<?xml version="1.0" encoding="UTF-8"?>
<svg xmlns="http://www.w3.org/2000/svg" xmlns:xlink="http://www.w3.org/1999/xlink" version="1.2" >
<font id="FivePixel">
<font-face  font-family="FivePixel" units-per-em="1000" ascent="800" descent="-200" font-style="normal" font-weight="400" font-stretch="normal" cap-height="700" x-height="400" underline-position="-75" underline-thickness="50" />
<missing-glyph  horiz-adv-x="800" d="" />
<glyph glyph-name="space" unicode="&#x20;" horiz-adv-x="800" d="" />
<glyph glyph-name="exclam" unicode="&#x21;" horiz-adv-x="800" d="M487 -174 L312 -174 L312 0 L487 0 L487 -174 Z M487 174 L312 174 L312 700 L487 700 L487 174 Z " />
<glyph glyph-name="quotedbl" unicode="&#x22;" horiz-adv-x="800" d="M312 349 L137 349 L137 525 L137 700 L312 700 L312 525 L312 349 Z M487 700 L662 700 L662 525 L662 349 L487 349 L487 525 L487 700 Z " />
<glyph glyph-name="numbersign" unicode="&#x23;" horiz-adv-x="800" d="M662 349 L662 174 L749 174 L749 0 L662 0 L662 -87 L487 -87 L487 0 L312 0 L312 -87 L137 -87 L137 0 L50 0 L50 174 L137 174 L137 349 L50 349 L50 525 L137 525 L137 612 L312 612 L312 525 L487 525 L487 612 L662 612 L662 525 L749 525 L749 349 L662 349 Z M487 349 L312 349 L312 174 L487 174 L487 349 Z " />
<glyph glyph-name="dollar" unicode="&#x24;" horiz-adv-x="800" d="M487 525 L487 349 L749 349 L749 174 L749 -174 L574 -174 L50 -174 L50 0 L312 0 L312 174 L224 174 L50 174 L50 525 L50 700 L749 700 L749 525 L487 525 Z M487 174 L487 0 L574 0 L574 174 L487 174 Z M312 525 L224 525 L224 349 L312 349 L312 525 Z " />
<glyph glyph-name="percent" unicode="&#x25;" horiz-adv-x="800" d="M749 700 L749 349 L574 349 L574 174 L400 174 L400 0 L224 0 L224 -174 L50 -174 L50 174 L224 174 L224 349 L400 349 L400 525 L574 525 L574 700 L749 700 Z M224 525 L50 525 L50 700 L224 700 L224 525 Z M749 -174 L574 -174 L574 0 L749 0 L749 -174 Z " />
<glyph glyph-name="ampersand" unicode="&#x26;" horiz-adv-x="800" d="M749 174 L574 174 L574 349 L749 349 L749 174 Z M749 0 L574 0 L574 174 L749 174 L749 0 Z M749 -174 L224 -174 L224 0 L749 0 L749 -174 Z M224 -174 L50 -174 L50 174 L224 174 L224 -174 Z M400 174 L224 174 L224 349 L400 349 L400 174 Z M224 349 L50 349 L50 525 L224 525 L224 349 Z M574 525 L50 525 L50 700 L574 700 L574 525 Z " />
<glyph glyph-name="parenleft" unicode="&#x28;" horiz-adv-x="800" d="M401 700 L575 700 L575 525 L401 525 L401 700 Z M225 525 L401 525 L401 0 L225 0 L225 525 Z M401 -174 L401 0 L575 0 L575 -174 L401 -174 Z " />
<glyph glyph-name="parenright" unicode="&#x29;" horiz-adv-x="800" d="M401 700 L401 525 L225 525 L225 700 L401 700 Z M401 525 L575 525 L575 0 L401 0 L401 525 Z M225 0 L401 0 L401 -174 L225 -174 L225 0 Z " />
<glyph glyph-name="asterisk" unicode="&#x2a;" horiz-adv-x="800" d="M575 349 L225 349 L225 700 L575 700 L575 349 Z " />
<glyph glyph-name="plus" unicode="&#x2b;" horiz-adv-x="800" d="M662 174 L487 174 L487 0 L312 0 L312 174 L137 174 L137 349 L312 349 L312 525 L487 525 L487 349 L662 349 L662 174 Z " />
<glyph glyph-name="comma" unicode="&#x2c;" horiz-adv-x="800" d="M401 -174 L225 -174 L225 0 L401 0 L401 -174 Z M575 0 L401 0 L401 174 L575 174 L575 0 Z " />
<glyph glyph-name="hyphen" unicode="&#x2d;" horiz-adv-x="800" d="M225 349 L575 349 L575 174 L225 174 L225 349 Z " />
<glyph glyph-name="period" unicode="&#x2e;" horiz-adv-x="800" d="M312 0 L487 0 L487 -174 L312 -174 L312 0 Z " />
<glyph glyph-name="slash" unicode="&#x2f;" horiz-adv-x="800" d="M749 700 L749 349 L574 349 L574 174 L400 174 L400 0 L224 0 L224 -174 L50 -174 L50 174 L224 174 L224 349 L400 349 L400 525 L574 525 L574 700 L749 700 Z " />
<glyph glyph-name="zero" unicode="0" horiz-adv-x="800" d="M574 700 L749 700 L749 0 L749 -174 L224 -174 L50 -174 L50 700 L224 700 L574 700 Z M574 0 L574 525 L224 525 L224 0 L574 0 Z " />
<glyph glyph-name="one" unicode="1" horiz-adv-x="800" d="M574 0 L749 0 L749 -174 L50 -174 L50 0 L400 0 L400 174 L400 349 L224 349 L224 525 L400 525 L400 700 L574 700 L574 525 L574 349 L574 174 L574 0 Z " />
<glyph glyph-name="two" unicode="2" horiz-adv-x="800" d="M574 700 L574 525 L50 525 L50 700 L574 700 Z M574 525 L749 525 L749 174 L574 174 L224 174 L224 349 L574 349 L574 525 Z M50 174 L224 174 L224 0 L749 0 L749 -174 L224 -174 L50 -174 L50 174 Z " />
<glyph glyph-name="three" unicode="3" horiz-adv-x="800" d="M50 700 L749 700 L749 525 L749 349 L749 174 L749 0 L749 -174 L574 -174 L50 -174 L50 0 L574 0 L574 174 L224 174 L224 349 L574 349 L574 525 L50 525 L50 700 Z " />
<glyph glyph-name="four" unicode="4" horiz-adv-x="800" d="M574 174 L749 174 L749 0 L574 0 L574 -174 L400 -174 L400 0 L224 0 L50 0 L50 700 L224 700 L224 174 L400 174 L400 349 L574 349 L574 174 Z " />
<glyph glyph-name="five" unicode="5" horiz-adv-x="800" d="M50 700 L749 700 L749 525 L224 525 L224 349 L574 349 L574 174 L224 174 L50 174 L50 525 L50 700 Z M574 0 L574 174 L749 174 L749 -174 L574 -174 L50 -174 L50 0 L574 0 Z " />
<glyph glyph-name="six" unicode="6" horiz-adv-x="800" d="M224 700 L749 700 L749 525 L224 525 L224 349 L749 349 L749 174 L749 0 L749 -174 L574 -174 L224 -174 L50 -174 L50 0 L50 700 L224 700 Z M224 174 L224 0 L574 0 L574 174 L224 174 Z " />
<glyph glyph-name="seven" unicode="7" horiz-adv-x="800" d="M50 700 L749 700 L749 525 L749 349 L574 349 L574 525 L50 525 L50 700 Z M400 349 L574 349 L574 -174 L400 -174 L400 349 Z " />
<glyph glyph-name="eight" unicode="8" horiz-adv-x="800" d="M50 700 L749 700 L749 525 L749 349 L749 0 L749 -174 L224 -174 L50 -174 L50 525 L50 700 Z M574 0 L574 174 L224 174 L224 0 L574 0 Z M224 525 L224 349 L574 349 L574 525 L224 525 Z " />
<glyph glyph-name="nine" unicode="9" horiz-adv-x="800" d="M50 700 L749 700 L749 525 L749 0 L749 -174 L224 -174 L224 0 L574 0 L574 174 L50 174 L50 349 L50 525 L50 700 Z M224 525 L224 349 L574 349 L574 525 L224 525 Z " />
<glyph glyph-name="colon" unicode="&#x3a;" horiz-adv-x="800" d="M487 0 L312 0 L312 174 L487 174 L487 0 Z M487 349 L312 349 L312 525 L487 525 L487 349 Z " />
<glyph glyph-name="semicolon" unicode="&#x3b;" horiz-adv-x="800" d="M401 -174 L225 -174 L225 0 L401 0 L401 -174 Z M575 0 L401 0 L401 174 L575 174 L575 0 Z M575 349 L401 349 L401 525 L575 525 L575 349 Z " />
<glyph glyph-name="less" unicode="&#x3c;" horiz-adv-x="800" d="M401 0 L401 174 L575 174 L575 0 L401 0 Z M225 349 L401 349 L401 174 L225 174 L225 349 Z M401 525 L575 525 L575 349 L401 349 L401 525 Z " />
<glyph glyph-name="equal" unicode="&#x3d;" horiz-adv-x="800" d="M225 525 L575 525 L575 349 L225 349 L225 525 Z M225 174 L575 174 L575 0 L225 0 L225 174 Z " />
<glyph glyph-name="greater" unicode="&#x3e;" horiz-adv-x="800" d="M401 525 L401 349 L225 349 L225 525 L401 525 Z M401 349 L575 349 L575 174 L401 174 L401 349 Z M225 174 L401 174 L401 0 L225 0 L225 174 Z " />
<glyph glyph-name="question" unicode="&#x3f;" horiz-adv-x="800" d="M137 700 L662 700 L662 525 L662 174 L487 174 L312 174 L312 349 L487 349 L487 525 L137 525 L137 700 Z M312 0 L487 0 L487 -174 L312 -174 L312 0 Z " />
<glyph glyph-name="at" unicode="&#x40;" horiz-adv-x="800" d="M749 700 L749 525 L749 -174 L574 -174 L50 -174 L50 0 L50 406 L224 406 L499 406 L499 231 L499 0 L574 0 L574 525 L50 525 L50 700 L749 700 Z M224 0 L322 0 L322 231 L224 231 L224 0 Z " />
<glyph glyph-name="A" unicode="A" horiz-adv-x="800" d="M574 700 L749 700 L749 -174 L574 -174 L574 174 L224 174 L224 -174 L50 -174 L50 700 L224 700 L574 700 Z M574 525 L224 525 L224 349 L574 349 L574 525 Z " />
<glyph glyph-name="B" unicode="B" horiz-adv-x="800" d="M224 525 L749 525 L749 349 L749 -174 L574 -174 L224 -174 L50 -174 L50 700 L224 700 L224 525 Z M224 349 L224 0 L574 0 L574 349 L224 349 Z " />
<glyph glyph-name="C" unicode="C" horiz-adv-x="800" d="M400 700 L749 700 L749 525 L400 525 L224 525 L224 0 L749 0 L749 -174 L224 -174 L50 -174 L50 700 L224 700 L400 700 Z " />
<glyph glyph-name="D" unicode="D" horiz-adv-x="800" d="M574 700 L749 700 L749 525 L749 349 L749 -174 L574 -174 L224 -174 L50 -174 L50 525 L224 525 L574 525 L574 700 Z M574 349 L224 349 L224 0 L574 0 L574 349 Z " />
<glyph glyph-name="E" unicode="E" horiz-adv-x="800" d="M224 700 L749 700 L749 525 L749 349 L749 174 L224 174 L224 0 L749 0 L749 -174 L224 -174 L50 -174 L50 700 L224 700 Z M224 525 L224 349 L574 349 L574 525 L224 525 Z " />
<glyph glyph-name="F" unicode="F" horiz-adv-x="800" d="M400 700 L749 700 L749 525 L400 525 L400 349 L749 349 L749 174 L400 174 L400 -174 L224 -174 L50 -174 L50 0 L224 0 L224 174 L50 174 L50 349 L224 349 L224 700 L400 700 Z " />
<glyph glyph-name="G" unicode="G" horiz-adv-x="800" d="M400 349 L749 349 L749 174 L749 0 L749 -174 L224 -174 L50 -174 L50 700 L224 700 L574 700 L574 525 L224 525 L224 0 L574 0 L574 174 L400 174 L400 349 Z " />
<glyph glyph-name="H" unicode="H" horiz-adv-x="800" d="M224 525 L749 525 L749 349 L749 -174 L574 -174 L574 349 L224 349 L224 -174 L50 -174 L50 700 L224 700 L224 525 Z " />
<glyph glyph-name="I" unicode="I" horiz-adv-x="800" d="M574 0 L749 0 L749 -174 L50 -174 L50 0 L400 0 L400 349 L400 525 L224 525 L224 700 L400 700 L574 700 L574 349 L574 0 Z " />
<glyph glyph-name="J" unicode="J" horiz-adv-x="800" d="M574 700 L749 700 L749 -174 L574 -174 L50 -174 L50 0 L50 174 L224 174 L224 0 L574 0 L574 700 Z " />
<glyph glyph-name="K" unicode="K" horiz-adv-x="800" d="M574 349 L749 349 L749 -174 L574 -174 L574 174 L400 174 L224 174 L224 -174 L50 -174 L50 700 L224 700 L224 349 L400 349 L400 700 L574 700 L574 349 Z " />
<glyph glyph-name="L" unicode="L" horiz-adv-x="800" d="M224 0 L749 0 L749 -174 L224 -174 L50 -174 L50 700 L224 700 L224 0 Z " />
<glyph glyph-name="M" unicode="M" horiz-adv-x="800" d="M224 -174 L50 -174 L50 700 L224 700 L749 700 L749 525 L749 -174 L574 -174 L574 525 L485 525 L485 174 L309 174 L309 525 L224 525 L224 -174 Z " />
<glyph glyph-name="N" unicode="N" horiz-adv-x="800" d="M224 700 L749 700 L749 525 L749 349 L749 0 L749 -174 L574 -174 L574 0 L574 349 L574 525 L224 525 L224 -174 L50 -174 L50 700 L224 700 Z " />
<glyph glyph-name="O" unicode="O" horiz-adv-x="800" d="M574 525 L749 525 L749 349 L749 0 L749 -174 L574 -174 L224 -174 L50 -174 L50 525 L224 525 L574 525 Z M574 349 L224 349 L224 0 L574 0 L574 349 Z " />
<glyph glyph-name="P" unicode="P" horiz-adv-x="800" d="M224 700 L749 700 L749 525 L749 174 L749 0 L574 0 L400 0 L224 0 L224 -174 L50 -174 L50 700 L224 700 Z M224 525 L224 174 L400 174 L574 174 L574 525 L224 525 Z " />
<glyph glyph-name="Q" unicode="Q" horiz-adv-x="800" d="M50 700 L749 700 L749 525 L749 174 L749 0 L574 0 L574 -174 L400 -174 L400 0 L224 0 L50 0 L50 525 L50 700 Z M224 525 L224 174 L574 174 L574 525 L224 525 Z " />
<glyph glyph-name="R" unicode="R" horiz-adv-x="800" d="M224 700 L749 700 L749 525 L749 174 L574 174 L574 -174 L400 -174 L400 174 L224 174 L224 -174 L50 -174 L50 700 L224 700 Z M224 525 L224 349 L574 349 L574 525 L224 525 Z " />
<glyph glyph-name="S" unicode="S" horiz-adv-x="800" d="M50 700 L749 700 L749 525 L224 525 L224 349 L574 349 L574 174 L574 -174 L400 -174 L50 -174 L50 0 L400 0 L400 174 L224 174 L50 174 L50 525 L50 700 Z " />
<glyph glyph-name="T" unicode="T" horiz-adv-x="800" d="M400 525 L749 525 L749 349 L400 349 L400 -174 L224 -174 L50 -174 L50 0 L224 0 L224 349 L50 349 L50 525 L224 525 L224 700 L400 700 L400 525 Z " />
<glyph glyph-name="U" unicode="U" horiz-adv-x="800" d="M574 700 L749 700 L749 0 L749 -174 L574 -174 L400 -174 L224 -174 L50 -174 L50 700 L224 700 L224 0 L400 0 L574 0 L574 700 Z " />
<glyph glyph-name="V" unicode="V" horiz-adv-x="800" d="M574 700 L749 700 L749 525 L749 349 L574 349 L574 525 L574 700 Z M400 349 L574 349 L574 0 L400 0 L400 349 Z M224 0 L400 0 L400 -174 L224 -174 L50 -174 L50 525 L50 700 L224 700 L224 525 L224 0 Z " />
<glyph glyph-name="W" unicode="W" horiz-adv-x="800" d="M574 700 L749 700 L749 -174 L574 -174 L50 -174 L50 0 L50 700 L224 700 L224 0 L315 0 L315 349 L491 349 L491 0 L574 0 L574 700 Z " />
<glyph glyph-name="X" unicode="X" horiz-adv-x="800" d="M224 700 L224 525 L50 525 L50 700 L224 700 Z M400 349 L574 349 L574 174 L574 0 L400 0 L400 174 L224 174 L224 349 L224 525 L400 525 L400 349 Z M574 -174 L574 0 L749 0 L749 -174 L574 -174 Z M50 174 L224 174 L224 0 L224 -174 L50 -174 L50 174 Z M574 700 L749 700 L749 525 L749 349 L574 349 L574 525 L574 700 Z " />
<glyph glyph-name="Y" unicode="Y" horiz-adv-x="800" d="M574 700 L749 700 L749 525 L749 349 L749 174 L574 174 L574 -174 L400 -174 L400 174 L224 174 L50 174 L50 700 L224 700 L224 349 L574 349 L574 525 L574 700 Z " />
<glyph glyph-name="Z" unicode="Z" horiz-adv-x="800" d="M50 700 L749 700 L749 525 L574 525 L574 349 L400 349 L400 525 L50 525 L50 700 Z M50 174 L224 174 L224 0 L749 0 L749 -174 L50 -174 L50 0 L50 174 Z M224 349 L400 349 L400 174 L224 174 L224 349 Z " />
<glyph glyph-name="bracketleft" unicode="&#x5b;" horiz-adv-x="800" d="M401 525 L401 0 L575 0 L575 -174 L401 -174 L225 -174 L225 0 L225 525 L225 700 L401 700 L575 700 L575 525 L401 525 Z " />
<glyph glyph-name="backslash" unicode="&#x5c;" horiz-adv-x="800" d="M224 700 L224 525 L400 525 L400 349 L574 349 L574 174 L749 174 L749 -174 L574 -174 L574 0 L400 0 L400 174 L224 174 L224 349 L50 349 L50 700 L224 700 Z " />
<glyph glyph-name="bracketright" unicode="&#x5d;" horiz-adv-x="800" d="M401 0 L401 525 L225 525 L225 700 L401 700 L575 700 L575 525 L575 0 L575 -174 L401 -174 L225 -174 L225 0 L401 0 Z " />
<glyph glyph-name="asciicircum" unicode="&#x5e;" horiz-adv-x="800" d="M137 525 L312 525 L312 349 L137 349 L137 525 Z M312 525 L312 700 L487 700 L487 525 L312 525 Z M487 349 L487 525 L662 525 L662 349 L487 349 Z " />
<glyph glyph-name="underscore" unicode="&#x5f;" horiz-adv-x="800" d="M574 0 L749 0 L749 -174 L574 -174 L224 -174 L50 -174 L50 0 L224 0 L574 0 Z " />
<glyph glyph-name="a" unicode="a" horiz-adv-x="800" d="M574 700 L749 700 L749 -174 L574 -174 L574 174 L224 174 L224 -174 L50 -174 L50 700 L224 700 L574 700 Z M574 525 L224 525 L224 349 L574 349 L574 525 Z " />
<glyph glyph-name="b" unicode="b" horiz-adv-x="800" d="M224 525 L749 525 L749 349 L749 -174 L574 -174 L224 -174 L50 -174 L50 700 L224 700 L224 525 Z M224 349 L224 0 L574 0 L574 349 L224 349 Z " />
<glyph glyph-name="c" unicode="c" horiz-adv-x="800" d="M400 700 L749 700 L749 525 L400 525 L224 525 L224 0 L749 0 L749 -174 L224 -174 L50 -174 L50 700 L224 700 L400 700 Z " />
<glyph glyph-name="d" unicode="d" horiz-adv-x="800" d="M574 700 L749 700 L749 525 L749 349 L749 -174 L574 -174 L224 -174 L50 -174 L50 525 L224 525 L574 525 L574 700 Z M574 349 L224 349 L224 0 L574 0 L574 349 Z " />
<glyph glyph-name="e" unicode="e" horiz-adv-x="800" d="M224 700 L749 700 L749 525 L749 349 L749 174 L224 174 L224 0 L749 0 L749 -174 L224 -174 L50 -174 L50 700 L224 700 Z M224 525 L224 349 L574 349 L574 525 L224 525 Z " />
<glyph glyph-name="f" unicode="f" horiz-adv-x="800" d="M400 700 L749 700 L749 525 L400 525 L400 349 L749 349 L749 174 L400 174 L400 -174 L224 -174 L50 -174 L50 0 L224 0 L224 174 L50 174 L50 349 L224 349 L224 700 L400 700 Z " />
<glyph glyph-name="g" unicode="g" horiz-adv-x="800" d="M400 349 L749 349 L749 174 L749 0 L749 -174 L224 -174 L50 -174 L50 700 L224 700 L574 700 L574 525 L224 525 L224 0 L574 0 L574 174 L400 174 L400 349 Z " />
<glyph glyph-name="h" unicode="h" horiz-adv-x="800" d="M224 525 L749 525 L749 349 L749 -174 L574 -174 L574 349 L224 349 L224 -174 L50 -174 L50 700 L224 700 L224 525 Z " />
<glyph glyph-name="i" unicode="i" horiz-adv-x="800" d="M574 0 L749 0 L749 -174 L50 -174 L50 0 L400 0 L400 174 L224 174 L224 349 L400 349 L574 349 L574 0 Z M574 525 L400 525 L400 700 L574 700 L574 525 Z " />
<glyph glyph-name="j" unicode="j" horiz-adv-x="800" d="M574 700 L749 700 L749 -174 L574 -174 L50 -174 L50 0 L50 174 L224 174 L224 0 L574 0 L574 700 Z " />
<glyph glyph-name="k" unicode="k" horiz-adv-x="800" d="M574 349 L749 349 L749 -174 L574 -174 L574 174 L400 174 L224 174 L224 -174 L50 -174 L50 700 L224 700 L224 349 L400 349 L400 700 L574 700 L574 349 Z " />
<glyph glyph-name="l" unicode="l" horiz-adv-x="800" d="M224 0 L749 0 L749 -174 L224 -174 L50 -174 L50 700 L224 700 L224 0 Z " />
<glyph glyph-name="m" unicode="m" horiz-adv-x="800" d="M224 -174 L50 -174 L50 700 L224 700 L749 700 L749 525 L749 -174 L574 -174 L574 525 L485 525 L485 174 L309 174 L309 525 L224 525 L224 -174 Z " />
<glyph glyph-name="n" unicode="n" horiz-adv-x="800" d="M224 700 L749 700 L749 525 L749 349 L749 0 L749 -174 L574 -174 L574 0 L574 349 L574 525 L224 525 L224 -174 L50 -174 L50 700 L224 700 Z " />
<glyph glyph-name="o" unicode="o" horiz-adv-x="800" d="M574 525 L749 525 L749 349 L749 0 L749 -174 L574 -174 L224 -174 L50 -174 L50 525 L224 525 L574 525 Z M574 349 L224 349 L224 0 L574 0 L574 349 Z " />
<glyph glyph-name="p" unicode="p" horiz-adv-x="800" d="M224 700 L749 700 L749 525 L749 174 L749 0 L574 0 L400 0 L224 0 L224 -174 L50 -174 L50 700 L224 700 Z M224 525 L224 174 L400 174 L574 174 L574 525 L224 525 Z " />
<glyph glyph-name="q" unicode="q" horiz-adv-x="800" d="M50 700 L749 700 L749 525 L749 174 L749 0 L574 0 L574 -174 L400 -174 L400 0 L224 0 L50 0 L50 525 L50 700 Z M224 525 L224 174 L574 174 L574 525 L224 525 Z " />
<glyph glyph-name="r" unicode="r" horiz-adv-x="800" d="M224 700 L749 700 L749 525 L749 174 L574 174 L574 -174 L400 -174 L400 174 L224 174 L224 -174 L50 -174 L50 700 L224 700 Z M224 525 L224 349 L574 349 L574 525 L224 525 Z " />
<glyph glyph-name="s" unicode="s" horiz-adv-x="800" d="M50 700 L749 700 L749 525 L224 525 L224 349 L574 349 L574 174 L574 -174 L400 -174 L50 -174 L50 0 L400 0 L400 174 L224 174 L50 174 L50 525 L50 700 Z " />
<glyph glyph-name="t" unicode="t" horiz-adv-x="800" d="M400 525 L749 525 L749 349 L400 349 L400 -174 L224 -174 L50 -174 L50 0 L224 0 L224 349 L50 349 L50 525 L224 525 L224 700 L400 700 L400 525 Z " />
<glyph glyph-name="u" unicode="u" horiz-adv-x="800" d="M574 700 L749 700 L749 0 L749 -174 L574 -174 L400 -174 L224 -174 L50 -174 L50 700 L224 700 L224 0 L400 0 L574 0 L574 700 Z " />
<glyph glyph-name="v" unicode="v" horiz-adv-x="800" d="M574 700 L749 700 L749 525 L749 349 L574 349 L574 525 L574 700 Z M400 349 L574 349 L574 0 L400 0 L400 349 Z M224 0 L400 0 L400 -174 L224 -174 L50 -174 L50 525 L50 700 L224 700 L224 525 L224 0 Z " />
<glyph glyph-name="w" unicode="w" horiz-adv-x="800" d="M574 700 L749 700 L749 -174 L574 -174 L50 -174 L50 0 L50 700 L224 700 L224 0 L315 0 L315 349 L491 349 L491 0 L574 0 L574 700 Z " />
<glyph glyph-name="x" unicode="x" horiz-adv-x="800" d="M224 700 L224 525 L50 525 L50 700 L224 700 Z M400 349 L574 349 L574 174 L574 0 L400 0 L400 174 L224 174 L224 349 L224 525 L400 525 L400 349 Z M574 -174 L574 0 L749 0 L749 -174 L574 -174 Z M50 174 L224 174 L224 0 L224 -174 L50 -174 L50 174 Z M574 700 L749 700 L749 525 L749 349 L574 349 L574 525 L574 700 Z " />
<glyph glyph-name="y" unicode="y" horiz-adv-x="800" d="M574 700 L749 700 L749 525 L749 349 L749 174 L574 174 L574 -174 L400 -174 L400 174 L224 174 L50 174 L50 700 L224 700 L224 349 L574 349 L574 525 L574 700 Z " />
<glyph glyph-name="z" unicode="z" horiz-adv-x="800" d="M50 700 L749 700 L749 525 L574 525 L574 349 L400 349 L400 525 L50 525 L50 700 Z M50 174 L224 174 L224 0 L749 0 L749 -174 L50 -174 L50 0 L50 174 Z M224 349 L400 349 L400 174 L224 174 L224 349 Z " />
<glyph glyph-name="braceleft" unicode="&#x7b;" horiz-adv-x="800" d="M312 174 L137 174 L137 349 L312 349 L312 525 L312 700 L487 700 L662 700 L662 525 L487 525 L487 0 L662 0 L662 -174 L487 -174 L312 -174 L312 0 L312 174 Z " />
<glyph glyph-name="braceright" unicode="&#x7d;" horiz-adv-x="800" d="M487 349 L662 349 L662 174 L487 174 L487 0 L487 -174 L312 -174 L137 -174 L137 0 L312 0 L312 525 L137 525 L137 700 L312 700 L487 700 L487 525 L487 349 Z " />
<glyph glyph-name="asciitilde" unicode="&#x7e;" horiz-adv-x="800" d="M50 349 L400 349 L400 174 L50 174 L50 349 Z M749 525 L749 349 L400 349 L400 525 L749 525 Z " />
<glyph glyph-name="quotesingle" unicode="&#x27;" horiz-adv-x="800" d="M487 525 L487 349 L312 349 L312 525 L312 700 L487 700 L487 525 Z " />
<glyph glyph-name="grave" unicode="&#x60;" horiz-adv-x="800" d="M487 525 L487 349 L312 349 L312 525 L312 700 L487 700 L487 525 Z " />
<glyph glyph-name="dotlessi" unicode="&#x131;" horiz-adv-x="800" d="M574 0 L749 0 L749 -174 L50 -174 L50 0 L400 0 L400 349 L400 525 L224 525 L224 700 L400 700 L574 700 L574 349 L574 0 Z " />
<glyph glyph-name="Ccedilla" unicode="&#xc7;" horiz-adv-x="800" d="M224 349 L224 174 L749 174 L749 0 L400 0 L400 -174 L224 -174 L224 0 L50 0 L50 174 L50 525 L50 700 L749 700 L749 525 L224 525 L224 349 Z " />
<glyph glyph-name="Odieresis" unicode="&#xd6;" horiz-adv-x="800" d="M224 349 L749 349 L749 174 L749 -174 L574 -174 L224 -174 L50 -174 L50 349 L224 349 Z M224 174 L224 0 L574 0 L574 174 L224 174 Z M224 525 L50 525 L50 700 L224 700 L224 525 Z M574 700 L749 700 L749 525 L574 525 L574 700 Z " />
<glyph glyph-name="Ograve" unicode="&#xd2;" horiz-adv-x="800" d="" />
<glyph glyph-name="Udieresis" unicode="&#xdc;" horiz-adv-x="800" d="M224 525 L50 525 L50 700 L224 700 L224 525 Z M574 700 L749 700 L749 525 L574 525 L574 700 Z M574 349 L749 349 L749 0 L749 -174 L224 -174 L50 -174 L50 349 L224 349 L224 0 L574 0 L574 349 Z " />
<glyph glyph-name="ccedilla" unicode="&#xe7;" horiz-adv-x="800" d="M224 349 L224 174 L749 174 L749 0 L400 0 L400 -174 L224 -174 L224 0 L50 0 L50 174 L50 525 L50 700 L749 700 L749 525 L224 525 L224 349 Z " />
<glyph glyph-name="odieresis" unicode="&#xf6;" horiz-adv-x="800" d="M224 349 L749 349 L749 174 L749 -174 L574 -174 L224 -174 L50 -174 L50 349 L224 349 Z M224 174 L224 0 L574 0 L574 174 L224 174 Z M224 525 L50 525 L50 700 L224 700 L224 525 Z M574 700 L749 700 L749 525 L574 525 L574 700 Z " />
<glyph glyph-name="udieresis" unicode="&#xfc;" horiz-adv-x="800" d="M224 525 L50 525 L50 700 L224 700 L224 525 Z M574 700 L749 700 L749 525 L574 525 L574 700 Z M574 349 L749 349 L749 0 L749 -174 L224 -174 L50 -174 L50 349 L224 349 L224 0 L574 0 L574 349 Z " />
<glyph glyph-name="Gbreve" unicode="&#x11e;" horiz-adv-x="800" d="M400 700 L749 700 L749 525 L400 525 L400 700 Z M400 349 L749 349 L749 174 L749 -174 L574 -174 L224 -174 L50 -174 L50 700 L224 700 L224 0 L574 0 L574 174 L400 174 L400 349 Z " />
<glyph glyph-name="Idotaccent" unicode="&#x130;" horiz-adv-x="800" d="M574 0 L749 0 L749 -174 L50 -174 L50 0 L400 0 L400 174 L224 174 L224 349 L400 349 L574 349 L574 0 Z M574 525 L400 525 L400 700 L574 700 L574 525 Z " />
<glyph glyph-name="Scedilla" unicode="&#x15e;" horiz-adv-x="800" d="M50 700 L749 700 L749 525 L224 525 L224 349 L400 349 L574 349 L574 174 L749 174 L749 0 L574 0 L574 -174 L400 -174 L50 -174 L50 0 L400 0 L400 174 L224 174 L50 174 L50 525 L50 700 Z " />
<glyph glyph-name="gbreve" unicode="&#x11f;" horiz-adv-x="800" d="M400 700 L749 700 L749 525 L400 525 L400 700 Z M400 349 L749 349 L749 174 L749 -174 L574 -174 L224 -174 L50 -174 L50 700 L224 700 L224 0 L574 0 L574 174 L400 174 L400 349 Z " />
<glyph glyph-name="scedilla" unicode="&#x15f;" horiz-adv-x="800" d="M50 700 L749 700 L749 525 L224 525 L224 349 L400 349 L574 349 L574 174 L749 174 L749 0 L574 0 L574 -174 L400 -174 L50 -174 L50 0 L400 0 L400 174 L224 174 L50 174 L50 525 L50 700 Z " />
</font>
</svg>
