<?xml version="1.0" encoding="UTF-8"?>
<svg xmlns="http://www.w3.org/2000/svg" xmlns:xlink="http://www.w3.org/1999/xlink" version="1.2" >
<font id="Kollektif Bold Italic">
<font-face  font-family="Kollektif" units-per-em="1000" ascent="809" descent="-191" font-style="italic" font-weight="700" font-stretch="normal" cap-height="709" x-height="496" underline-position="-155" underline-thickness="80" />
<missing-glyph  horiz-adv-x="354" d="" />
<glyph glyph-name="b" unicode="b" horiz-adv-x="591" d="M412 510 Q464 510 506 489.5 Q548 469 575 433.5 Q602 398 613.5 350.5 Q625 303 616 249 Q607 195 581 147.5 Q555 100 517 64.5 Q479 29 430.5 8.5 Q382 -12 330 -12 Q286 -12 248 3.5 Q210 19 190 43 L164 0 L46 0 L161 730 L299 730 L256 456 Q321 510 412 510 Z M330 111 Q357 111 382.5 122 Q408 133 428.5 151.5 Q449 170 463 195 Q477 220 482 249 Q486 277 480 302.5 Q474 328 459.5 346.5 Q445 365 423 376 Q401 387 374 387 Q347 387 322.5 379.5 Q298 372 278 355.5 Q258 339 243.5 312.5 Q229 286 223 247 Q217 212 223 186.5 Q229 161 244 144.5 Q259 128 281 119.5 Q303 111 330 111 Z " />
<glyph glyph-name="c" unicode="c" horiz-adv-x="515" d="M350 387 Q325 387 301 375.5 Q277 364 257.5 344.5 Q238 325 224.5 299 Q211 273 206 243 Q201 213 206.5 188.5 Q212 164 226 146.5 Q240 129 260.5 119 Q281 109 306 109 Q337 109 368.5 123.5 Q400 138 425 164 L497 80 Q455 38 400.5 13 Q346 -12 287 -12 Q233 -12 189 8.5 Q145 29 115.5 64.5 Q86 100 73 147.5 Q60 195 69 249 Q78 303 105.5 350.5 Q133 398 174 433.5 Q215 469 265 489.5 Q315 510 369 510 Q430 510 478 484 Q526 458 555 413 L447 339 Q423 366 401 376.5 Q379 387 350 387 Z " />
<glyph glyph-name="d" unicode="d" horiz-adv-x="590" d="M660 730 L545 0 L427 0 L413 43 Q386 19 343.5 3.5 Q301 -12 257 -12 Q204 -12 162.5 8.5 Q121 29 93.5 64.5 Q66 100 55 147.5 Q44 195 53 249 Q62 303 87.5 350.5 Q113 398 151.5 433.5 Q190 469 238 489.5 Q286 510 339 510 Q386 510 421 499 Q456 488 480 462 L522 730 L660 730 Z M446 247 Q452 286 446 312.5 Q440 339 425 355.5 Q410 372 387.5 379.5 Q365 387 338 387 Q311 387 286 376 Q261 365 240.5 346.5 Q220 328 205.5 302.5 Q191 277 187 249 Q182 220 188.5 195 Q195 170 209.5 151.5 Q224 133 245.5 122 Q267 111 294 111 Q348 111 391 144.5 Q434 178 446 247 Z " />
<glyph glyph-name="e" unicode="e" horiz-adv-x="595" d="M370 510 Q426 510 468.5 487.5 Q511 465 538 428.5 Q565 392 576 344.5 Q587 297 579 247 Q576 231 571.5 215 Q567 199 560 183 L206 183 Q220 149 254 125.5 Q288 102 331 102 Q374 102 407.5 109 Q441 116 472 127 L504 42 Q463 16 413.5 2 Q364 -12 310 -12 Q251 -12 203 8.5 Q155 29 122.5 64 Q90 99 75.5 147 Q61 195 70 249 Q78 302 106 349.5 Q134 397 174.5 432.5 Q215 468 265.5 489 Q316 510 370 510 Z M448 290 Q443 333 416.5 360 Q390 387 351 387 Q311 387 274 360 Q237 333 218 290 L448 290 Z " />
<glyph glyph-name="f" unicode="f" horiz-adv-x="379" d="M169 538 Q177 590 198.5 627.5 Q220 665 249.5 689.5 Q279 714 315 725.5 Q351 737 389 737 Q433 737 479 721 L452 620 L419 625 Q412 626 405.5 626.5 Q399 627 393 627 Q355 627 334.5 608.5 Q314 590 308 555 L299 496 L432 496 L413 373 L280 373 L221 0 L84 0 L143 373 L78 373 L89 446 L162 496 L169 538 L169 538 Z " />
<glyph glyph-name="g" unicode="g" horiz-adv-x="593" d="M512 496 L630 496 L578 168 Q569 111 560.5 66.5 Q552 22 540 -13.5 Q528 -49 510.5 -77 Q493 -105 465 -129 Q414 -172 357 -188 Q300 -204 240 -204 Q189 -204 146 -192 Q103 -180 70 -159 L91 -30 Q105 -57 147 -74 Q189 -91 240 -91 Q273 -91 303.5 -82.5 Q334 -74 358.5 -55 Q383 -36 400 -7.5 Q417 21 423 62 L425 72 Q392 46 351.5 30.5 Q311 15 266 15 Q216 15 176.5 34.5 Q137 54 111.5 87.5 Q86 121 75.5 166.5 Q65 212 73 263 Q81 314 106 359 Q131 404 167 437.5 Q203 471 248.5 490.5 Q294 510 344 510 Q391 510 427 497.5 Q463 485 486 458 L512 496 Z M313 138 Q345 138 370 149.5 Q395 161 412.5 179 Q430 197 441 219 Q452 241 455 262 Q459 285 455 307.5 Q451 330 439 347.5 Q427 365 405.5 376 Q384 387 353 387 Q327 387 303.5 377 Q280 367 260.5 350 Q241 333 228 310.5 Q215 288 211 262 Q207 236 213 213.5 Q219 191 232.5 174 Q246 157 266.5 147.5 Q287 138 313 138 Z " />
<glyph glyph-name="h" unicode="h" horiz-adv-x="569" d="M401 510 Q450 510 489.5 489.5 Q529 469 554.5 433.5 Q580 398 590 350.5 Q600 303 591 249 Q584 205 577 161 Q570 117 565 81 Q558 39 552 0 L417 0 Q424 47 431 91 Q437 129 443.5 169.5 Q450 210 455 239 Q459 267 454.5 294 Q450 321 437.5 341.5 Q425 362 405.5 374.5 Q386 387 362 387 Q339 387 317 378.5 Q295 370 276 353.5 Q257 337 243.5 312 Q230 287 225 253 L185 0 L46 0 L161 730 L300 730 L257 458 Q286 483 322 496.5 Q358 510 401 510 Z " />
<glyph glyph-name="i" unicode="i" horiz-adv-x="253" d="M195 0 L57 0 L135 496 L273 496 L195 0 Z M215 564 Q183 564 164.5 586 Q146 608 151 640 Q154 656 162 670 Q170 684 182 694.5 Q194 705 208.5 711 Q223 717 239 717 Q271 717 289.5 694.5 Q308 672 303 640 Q298 608 272.5 586 Q247 564 215 564 Z " />
<glyph glyph-name="j" unicode="j" horiz-adv-x="273" d="M170 496 L308 496 L229 -2 Q221 -54 199.5 -91.5 Q178 -129 148 -153.5 Q118 -178 82 -189.5 Q46 -201 8 -201 Q-14 -201 -37 -197 Q-60 -193 -81 -185 L-54 -84 Q-38 -86 -29 -87.5 Q-20 -89 -14.5 -90 Q-9 -91 -4.5 -91 Q0 -91 6 -91 Q44 -91 63.5 -72.5 Q83 -54 88 -20 L170 496 Z M275 717 Q307 717 325.5 694.5 Q344 672 339 640 Q334 608 308.5 586 Q283 564 251 564 Q219 564 200.5 586 Q182 608 187 640 Q190 656 198 670 Q206 684 218 694.5 Q230 705 244.5 711 Q259 717 275 717 Z " />
<glyph glyph-name="k" unicode="k" horiz-adv-x="536" d="M365 290 L529 0 L364 0 L264 198 L206 145 L184 0 L46 0 L161 730 L299 730 L235 325 L423 496 L591 496 L365 290 Z " />
<glyph glyph-name="l" unicode="l" horiz-adv-x="227" d="M164 731 L302 731 L187 0 L49 0 L164 731 Z " />
<glyph glyph-name="m" unicode="m" horiz-adv-x="816" d="M675 496 Q702 496 731.5 487 Q761 478 783.5 455 Q806 432 817 392 Q828 352 818 290 L773 0 L635 0 L676 265 Q681 295 678 316 Q675 337 666 350 Q657 363 643.5 368.5 Q630 374 615 374 Q601 374 586 369 Q571 364 558.5 352 Q546 340 536 319 Q526 298 521 266 L479 0 L341 0 L382 265 Q392 326 375 350 Q358 374 318 374 Q289 374 261.5 347 Q234 320 225 263 L184 0 L46 0 L124 496 L242 496 L255 450 Q281 472 313.5 484 Q346 496 381 496 Q399 496 418 492.5 Q437 489 455 480 Q473 471 488.5 456.5 Q504 442 514 420 Q529 439 548 453.5 Q567 468 588.5 477.5 Q610 487 632.5 491.5 Q655 496 675 496 Z " />
<glyph glyph-name="n" unicode="n" horiz-adv-x="541" d="M381 496 Q409 496 442 488 Q475 480 501.5 458 Q528 436 542 397 Q556 358 546 296 L500 0 L361 0 L407 291 Q410 314 405 330 Q400 346 389.5 355.5 Q379 365 363.5 369.5 Q348 374 332 374 Q319 374 303 369.5 Q287 365 272 355 Q257 345 245 329 Q233 313 230 291 L184 0 L46 0 L124 496 L242 496 L256 458 Q283 475 314.5 485.5 Q346 496 381 496 Z " />
<glyph glyph-name="o" unicode="o" horiz-adv-x="574" d="M369 510 Q422 510 466 489.5 Q510 469 539.5 433.5 Q569 398 582 350.5 Q595 303 586 249 Q577 195 549.5 147.5 Q522 100 481.5 64.5 Q441 29 390.5 8.5 Q340 -12 287 -12 Q233 -12 189 8.5 Q145 29 115.5 64.5 Q86 100 73 147.5 Q60 195 69 249 Q78 303 105.5 350.5 Q133 398 174 433.5 Q215 469 265 489.5 Q315 510 369 510 Z M306 109 Q331 109 354 119 Q377 129 396 146.5 Q415 164 428.5 188.5 Q442 213 447 243 Q452 273 446.5 299 Q441 325 428 344.5 Q415 364 395 375.5 Q375 387 350 387 Q325 387 301 375.5 Q277 364 257.5 344.5 Q238 325 224.5 299 Q211 273 206 243 Q201 213 206.5 188.5 Q212 164 226 146.5 Q240 129 260.5 119 Q281 109 306 109 Z " />
<glyph glyph-name="p" unicode="p" horiz-adv-x="591" d="M412 510 Q465 510 506.5 489.5 Q548 469 575.5 433.5 Q603 398 614 350.5 Q625 303 616 249 Q607 195 581 147.5 Q555 100 517 64.5 Q479 29 431 8.5 Q383 -12 330 -12 Q287 -12 248.5 3.5 Q210 19 190 43 L152 -198 L14 -198 L124 496 L242 496 L257 462 Q289 488 327 499 Q365 510 412 510 Z M331 111 Q358 111 383 122 Q408 133 429 151.5 Q450 170 464 195 Q478 220 483 249 Q487 277 481 302.5 Q475 328 460 346.5 Q445 365 423.5 376 Q402 387 375 387 Q321 387 278.5 355 Q236 323 224 249 Q218 214 224 188.5 Q230 163 245 145.5 Q260 128 282 119.5 Q304 111 331 111 Z " />
<glyph glyph-name="q" unicode="q" horiz-adv-x="591" d="M624 496 L514 -198 L376 -198 L414 43 Q387 19 344 3.5 Q301 -12 258 -12 Q205 -12 163 8.5 Q121 29 94 64.5 Q67 100 55.5 147.5 Q44 195 53 249 Q62 303 88 350.5 Q114 398 152.5 433.5 Q191 469 239 489.5 Q287 510 340 510 Q387 510 421.5 499 Q456 488 481 462 L506 496 L624 496 Z M295 111 Q349 111 392 147 Q435 183 446 252 Q452 289 446 314.5 Q440 340 425 356 Q410 372 388 379.5 Q366 387 339 387 Q312 387 287 376 Q262 365 241 346.5 Q220 328 205.5 302.5 Q191 277 187 249 Q182 220 188.5 195 Q195 170 210 151.5 Q225 133 246.5 122 Q268 111 295 111 Z " />
<glyph glyph-name="r" unicode="r" horiz-adv-x="412" d="M248 427 Q260 443 276 457.5 Q292 472 311.5 483.5 Q331 495 355 502 Q379 509 408 509 Q441 509 485 497 L453 374 Q443 376 432 379 Q423 381 412 382.5 Q401 384 392 384 Q360 384 331.5 375 Q303 366 280 350 Q257 334 241.5 311.5 Q226 289 222 263 L181 0 L43 0 L121 496 L246 496 L248 427 Z " />
<glyph glyph-name="s" unicode="s" horiz-adv-x="443" d="M401 260 Q450 221 438 149 Q433 116 412.5 87 Q392 58 362 36 Q332 14 294 1.5 Q256 -11 215 -11 Q184 -11 156 -3 Q128 5 105 19 Q82 33 66.5 52.5 Q51 72 46 96 Q70 107 100 120.5 Q130 134 153 145 Q160 130 177 117.5 Q194 105 227 105 Q261 105 279.5 121 Q298 137 300 151 Q302 161 292 169.5 Q282 178 269 183 Q251 191 238.5 191.5 Q226 192 209 197 Q157 210 131.5 231.5 Q106 253 97 275 Q88 297 89.5 317 Q91 337 93 349 Q98 381 116.5 410 Q135 439 163 460.5 Q191 482 225.5 495 Q260 508 297 508 Q359 508 402 474.5 Q445 441 452 387 L339 351 Q336 369 319 380 Q302 391 281 391 Q260 391 245 377 Q230 363 228 349 Q225 332 236 322.5 Q247 313 261 309 Q272 307 282.5 305.5 Q293 304 302 302 Q337 294 360.5 284 Q384 274 401 260 Z " />
<glyph glyph-name="t" unicode="t" horiz-adv-x="383" d="M256 178 Q250 143 268.5 124 Q287 105 322 105 Q335 105 349.5 107.5 Q364 110 380 116 L362 0 Q336 -8 306.5 -13.5 Q277 -19 249 -19 Q217 -19 189 -11 Q161 -3 141.5 16.5 Q122 36 113.5 68.5 Q105 101 113 149 L149 373 L78 373 L92 466 L168 496 L186 607 L324 607 L306 496 L440 496 L421 373 L287 373 L256 178 L256 178 Z " />
<glyph glyph-name="u" unicode="u" horiz-adv-x="543" d="M437 496 L575 496 L497 0 L379 0 L365 38 Q338 21 306 10.5 Q274 0 239 0 Q212 0 179 8 Q146 16 119 38 Q92 60 77.5 99 Q63 138 73 200 L120 496 L259 496 L213 205 Q209 182 214 166 Q219 150 230 140.5 Q241 131 256.5 126.5 Q272 122 289 122 Q302 122 318 126.5 Q334 131 349 141 Q364 151 376 167 Q388 183 391 205 L437 496 Z " />
<glyph glyph-name="v" unicode="v" horiz-adv-x="594" d="M514 496 L663 496 L385 0 L207 0 L85 496 L233 496 L316 129 L514 496 Z " />
<glyph glyph-name="w" unicode="w" horiz-adv-x="871" d="M775 496 L917 496 L690 0 L515 0 L480 239 L485 310 L465 239 L356 0 L182 0 L111 496 L253 496 L299 137 L456 496 L571 496 L614 135 L775 496 Z " />
<glyph glyph-name="x" unicode="x" horiz-adv-x="622" d="M271 259 L131 496 L302 496 L369 364 L478 496 L649 496 L433 258 L586 0 L415 0 L335 154 L207 0 L36 0 L271 259 Z " />
<glyph glyph-name="y" unicode="y" horiz-adv-x="591" d="M506 496 L657 496 L234 -198 L83 -198 L249 75 L106 496 L260 496 L348 237 L506 496 Z " />
<glyph glyph-name="z" unicode="z" horiz-adv-x="498" d="M243 122 L472 122 L453 0 L43 0 L61 116 L306 373 L121 373 L140 496 L525 496 L510 404 L243 122 Z " />
<glyph glyph-name="germandbls" unicode="&#xdf;" horiz-adv-x="572" d="M481 351 Q480 343 494.5 331.5 Q509 320 525 299.5 Q541 279 552 248 Q563 217 556 169 Q550 131 532 98.5 Q514 66 488.5 42 Q463 18 433.5 4 Q404 -10 374 -10 L265 -10 L286 120 L317 120 Q361 120 382.5 141.5 Q404 163 409 195 Q412 211 408 226.5 Q404 242 393.5 254 Q383 266 366.5 273 Q350 280 328 280 L344 384 Q362 387 379 397 Q396 407 409.5 421.5 Q423 436 432.5 454 Q442 472 445 491 Q448 512 444 528.5 Q440 545 430 557 Q420 569 406.5 575 Q393 581 378 581 Q337 581 311.5 558.5 Q286 536 276 477 Q273 455 266.5 417 Q260 379 252.5 331.5 Q245 284 236.5 230 Q228 176 220 124 Q200 1 177 -141 L38 -141 Q42 -121 54 -43 Q59 -10 67 39.5 Q75 89 86 159.5 Q97 230 112 323 Q127 416 146 536 Q154 574 178 607 Q202 640 235 664.5 Q268 689 306.5 703 Q345 717 384 717 L404 717 Q444 717 479.5 702 Q515 687 539.5 659.5 Q564 632 575.5 594 Q587 556 580 510 Q573 468 557.5 441 Q542 414 525.5 397.5 Q509 381 495.5 370.5 Q482 360 481 351 Z " />
<glyph glyph-name="A" unicode="A" horiz-adv-x="801" d="M595 709 L779 0 L615 0 L575 152 L274 152 L187 0 L22 0 L430 709 L595 709 Z M539 290 L482 513 L353 290 L539 290 Z " />
<glyph glyph-name="N" unicode="N" horiz-adv-x="730" d="M644 709 L795 709 L683 0 L539 0 L271 463 L198 0 L47 0 L159 709 L301 709 L570 243 L644 709 Z " />
<glyph glyph-name="Z" unicode="Z" horiz-adv-x="632" d="M274 138 L609 138 L588 0 L42 0 L57 101 L463 571 L167 571 L189 709 L679 709 L659 582 L274 138 Z " />
<glyph glyph-name="T" unicode="T" horiz-adv-x="559" d="M135 709 L648 709 L626 571 L445 571 L355 0 L204 0 L294 571 L113 571 L135 709 Z " />
<glyph glyph-name="O" unicode="O" horiz-adv-x="765" d="M495 719 Q567 719 626.5 690 Q686 661 725.5 611 Q765 561 782.5 495 Q800 429 788 354 Q776 280 737.5 213 Q699 146 643.5 96 Q588 46 519.5 16.5 Q451 -13 379 -13 Q307 -13 248 16.5 Q189 46 149.5 96 Q110 146 93.5 213 Q77 280 89 354 Q101 429 138.5 495 Q176 561 231 611 Q286 661 354.5 690 Q423 719 495 719 Z M403 138 Q444 138 483 155 Q522 172 553.5 201.5 Q585 231 607 270 Q629 309 636 354 Q643 399 634 438.5 Q625 478 602.5 507.5 Q580 537 546.5 554 Q513 571 472 571 Q431 571 392.5 554 Q354 537 322.5 507.5 Q291 478 269 438.5 Q247 399 240 354 Q233 309 242 270 Q251 231 273.5 201.5 Q296 172 329 155 Q362 138 403 138 Z " />
<glyph glyph-name="P" unicode="P" horiz-adv-x="568" d="M465 709 Q507 709 541.5 692.5 Q576 676 599 647.5 Q622 619 631.5 580.5 Q641 542 634 498 Q627 454 605 415.5 Q583 377 551 348 Q519 319 479.5 302.5 Q440 286 398 286 L243 286 L198 0 L47 0 L159 709 L465 709 Z M400 424 Q415 424 429 430 Q443 436 454 446 Q465 456 473 469.5 Q481 483 483 498 Q488 528 470 549.5 Q452 571 423 571 L288 571 L265 424 L400 424 Z " />
<glyph glyph-name="Q" unicode="Q" horiz-adv-x="790" d="M696 108 L768 82 L707 -13 L613 19 L580 52 Q538 21 485 4 Q432 -13 380 -13 Q308 -13 249 16.5 Q190 46 150.5 96 Q111 146 94 213 Q77 280 89 354 Q101 429 138.5 495 Q176 561 231.5 611 Q287 661 355.5 690 Q424 719 496 719 Q568 719 627 690 Q686 661 725.5 611 Q765 561 782.5 495 Q800 429 788 354 Q777 290 748 233 Q719 176 676 130 L696 108 Z M582 231 Q603 257 616.5 288.5 Q630 320 636 354 Q643 399 634 438.5 Q625 478 602.5 507.5 Q580 537 547 554 Q514 571 473 571 Q432 571 393 554 Q354 537 322.5 507.5 Q291 478 269.5 438.5 Q248 399 241 354 Q234 309 243 270 Q252 231 274 201.5 Q296 172 329.5 155 Q363 138 404 138 Q441 138 478 152 L419 211 L520 299 L582 231 Z " />
<glyph glyph-name="R" unicode="R" horiz-adv-x="687" d="M635 498 Q630 464 615.5 433.5 Q601 403 580 377.5 Q559 352 532 332.5 Q505 313 475 301 L663 0 L486 0 L312 286 L244 286 L199 0 L47 0 L159 709 L465 709 Q507 709 541.5 692.5 Q576 676 599.5 647.5 Q623 619 632.5 580.5 Q642 542 635 498 Z M401 424 Q416 424 429.5 430 Q443 436 454.5 446 Q466 456 473.5 469.5 Q481 483 483 498 Q488 528 470.5 549.5 Q453 571 424 571 L289 571 L266 424 L401 424 Z " />
<glyph glyph-name="S" unicode="S" horiz-adv-x="616" d="M555 365 Q593 340 609 301 Q625 262 617 211 Q609 163 580 121.5 Q551 80 503 48 Q460 19 409 3.5 Q358 -12 304 -13 Q250 -13 204 2 Q158 17 124 47 Q74 89 62 151 L213 216 Q212 206 216.5 191 Q221 176 234 162 Q247 148 269 138 Q291 128 326 128 Q383 128 415.5 152.5 Q448 177 453 204 Q455 220 446.5 234 Q438 248 418 256 Q380 270 337 279.5 Q294 289 254 303.5 Q214 318 182.5 342 Q151 366 136 409 Q129 429 128 449 Q127 469 130 490 Q138 538 167 583 Q196 628 241 659 Q283 688 331 703.5 Q379 719 430 719 Q481 719 525.5 704 Q570 689 602 660 Q634 632 649 597 L523 519 Q506 548 477.5 565.5 Q449 583 410 583 Q356 583 322.5 559 Q289 535 283 496 Q280 478 294.5 464 Q309 450 333.5 439 Q358 428 389.5 419.5 Q421 411 452.5 402.5 Q484 394 511 385 Q538 376 555 365 Z " />
<glyph glyph-name="U" unicode="U" horiz-adv-x="640" d="M493 286 Q495 299 499 324.5 Q503 350 508 382 Q513 414 519 451 Q525 488 531 524 Q544 609 560 709 L711 709 Q693 596 678 503 Q672 463 665.5 423.5 Q659 384 653.5 350 Q648 316 644 291 Q640 266 639 256 Q631 203 601 154 Q571 105 527.5 68 Q484 31 429.5 9 Q375 -13 317 -13 Q260 -13 213 9 Q166 31 134 68 Q102 105 88 154 Q74 203 82 256 Q84 267 88 292.5 Q92 318 97.5 352 Q103 386 109.5 425.5 Q116 465 122 505 Q137 598 154 709 L305 709 Q289 605 275 519 Q269 482 263 445 Q257 408 252 376.5 Q247 345 243 321 Q239 297 238 286 Q233 256 238.5 229.5 Q244 203 258 182.5 Q272 162 293.5 150 Q315 138 341 138 Q368 138 393 150 Q418 162 438.5 182.5 Q459 203 473.5 229.5 Q488 256 493 286 Z " />
<glyph glyph-name="V" unicode="V" horiz-adv-x="806" d="M732 709 L897 709 L486 0 L319 0 L133 709 L298 709 L431 179 L732 709 Z " />
<glyph glyph-name="W" unicode="W" horiz-adv-x="1098" d="M1035 709 L1193 709 L881 0 L693 0 L622 477 L401 0 L215 0 L127 709 L285 709 L340 173 L586 709 L732 709 L808 169 L1035 709 Z " />
<glyph glyph-name="X" unicode="X" horiz-adv-x="764" d="M534 382 L729 0 L547 0 L420 245 L218 0 L35 0 L351 382 L184 709 L366 709 L464 518 L622 709 L805 709 L534 382 Z " />
<glyph glyph-name="Y" unicode="Y" horiz-adv-x="693" d="M604 709 L787 709 L474 332 L422 0 L271 0 L323 332 L130 709 L313 709 L424 491 L604 709 Z " />
<glyph glyph-name="B" unicode="B" horiz-adv-x="619" d="M552 386 Q589 357 606.5 311.5 Q624 266 616 211 Q609 167 586 128.5 Q563 90 529.5 61.5 Q496 33 455 16.5 Q414 0 370 0 L48 0 L160 709 L472 709 Q512 709 545 693.5 Q578 678 599.5 652 Q621 626 630.5 591 Q640 556 634 516 Q627 473 605.5 440.5 Q584 408 552 386 Z M270 443 L430 443 Q457 443 478.5 462 Q500 481 505 508 Q510 535 493.5 553 Q477 571 450 571 L290 571 L270 443 Z M391 137 Q406 137 420.5 144 Q435 151 446.5 162.5 Q458 174 466 189.5 Q474 205 477 222 Q482 257 465 281 Q448 305 418 305 L248 305 L221 137 L391 137 Z " />
<glyph glyph-name="C" unicode="C" horiz-adv-x="695" d="M402 138 Q450 138 500 160 Q550 182 605 234 L688 141 Q617 65 535 26 Q453 -13 373 -13 Q301 -13 242.5 16.5 Q184 46 146 96 Q108 146 92 212.5 Q76 279 88 354 Q100 429 137.5 495 Q175 561 230 611 Q285 661 353.5 690 Q422 719 494 719 Q561 719 617.5 694 Q674 669 723 611 L618 504 Q583 543 547.5 556.5 Q512 570 471 570 Q430 570 391 553 Q352 536 320.5 507 Q289 478 267 438.5 Q245 399 238 354 Q231 309 240 270 Q249 231 271.5 201.5 Q294 172 327.5 155 Q361 138 402 138 Z " />
<glyph glyph-name="D" unicode="D" horiz-adv-x="683" d="M446 709 Q523 709 577.5 681 Q632 653 664 605 Q696 557 706.5 492 Q717 427 705 354 Q693 280 661.5 215.5 Q630 151 584 103 Q538 55 482 27.5 Q426 0 365 0 L48 0 L160 709 L446 709 Z M356 137 Q399 137 432.5 154.5 Q466 172 490.5 202 Q515 232 530.5 271 Q546 310 553 353 Q560 396 557 435.5 Q554 475 539 505 Q524 535 496 553 Q468 571 425 571 L290 571 L221 137 L356 137 Z " />
<glyph glyph-name="E" unicode="E" horiz-adv-x="539" d="M160 709 L603 709 L581 571 L290 571 L270 443 L526 443 L504 305 L248 305 L221 137 L512 137 L491 0 L48 0 L160 709 Z " />
<glyph glyph-name="F" unicode="F" horiz-adv-x="503" d="M159 709 L602 709 L580 571 L289 571 L269 443 L525 443 L503 305 L247 305 L199 0 L47 0 L159 709 Z " />
<glyph glyph-name="G" unicode="G" horiz-adv-x="700" d="M461 401 L729 401 L688 141 Q616 65 536.5 26 Q457 -13 377 -13 Q305 -13 246 16.5 Q187 46 147.5 96 Q108 146 91.5 212.5 Q75 279 87 354 Q99 429 136.5 495 Q174 561 229 611 Q284 661 352.5 690 Q421 719 493 719 Q561 719 617.5 694 Q674 669 722 611 L617 504 Q582 543 547 556.5 Q512 570 471 570 Q429 570 390 553 Q351 536 319.5 507 Q288 478 266 438.5 Q244 399 237 354 Q230 309 239 270 Q248 231 270.5 201.5 Q293 172 326.5 155 Q360 138 402 138 Q439 138 478 151.5 Q517 165 559 196 L571 273 L441 273 L461 401 Z " />
<glyph glyph-name="H" unicode="H" horiz-adv-x="722" d="M635 709 L787 709 L675 0 L523 0 L571 305 L246 305 L198 0 L47 0 L159 709 L310 709 L268 443 L593 443 L635 709 Z " />
<glyph glyph-name="I" unicode="I" horiz-adv-x="351" d="M417 709 L397 581 L344 581 L272 127 L325 127 L305 0 L47 0 L67 127 L120 127 L192 581 L139 581 L159 709 L417 709 Z " />
<glyph glyph-name="J" unicode="J" horiz-adv-x="498" d="M565 709 Q548 601 534 512 Q528 474 522 436 Q516 398 510.5 366.5 Q505 335 501.5 312 Q498 289 497 280 L493 254 Q486 210 474 169.5 Q462 129 429 91 Q387 42 333.5 17.5 Q280 -7 223 -7 Q184 -7 151.5 6 Q119 19 94 41.5 Q69 64 53 94.5 Q37 125 32 160 L170 204 Q173 175 192.5 156 Q212 137 242 137 Q277 137 300.5 160.5 Q324 184 333 214 Q334 218 338 242 Q342 266 348 301.5 Q354 337 361 381.5 Q368 426 375 471 Q392 577 412 709 L565 709 Z " />
<glyph glyph-name="K" unicode="K" horiz-adv-x="712" d="M416 385 L698 0 L511 0 L305 289 L234 227 L199 0 L47 0 L159 709 L311 709 L265 422 L596 709 L790 709 L416 385 Z " />
<glyph glyph-name="L" unicode="L" horiz-adv-x="500" d="M220 137 L511 137 L490 0 L47 0 L159 709 L311 709 L220 137 Z " />
<glyph glyph-name="M" unicode="M" horiz-adv-x="858" d="M780 709 L923 709 L811 0 L660 0 L734 468 L527 231 L406 231 L272 461 L199 0 L47 0 L159 709 L303 709 L491 382 L780 709 Z " />
<glyph glyph-name="one" unicode="1" horiz-adv-x="367" d="M172 709 L408 709 L296 0 L144 0 L234 571 L150 571 L172 709 Z " />
<glyph glyph-name="two" unicode="2" horiz-adv-x="561" d="M399 719 Q446 719 484.5 701 Q523 683 549 653 Q575 623 586.5 582.5 Q598 542 591 497 Q585 460 562.5 419 Q540 378 500 340 L290 137 L530 137 L509 0 L49 0 Q52 18 55 36 Q57 51 59.5 68 Q62 85 64 98 Q152 185 222 255 Q252 285 281.5 314.5 Q311 344 335 368.5 Q359 393 375.5 409.5 Q392 426 396 431 Q413 450 423.5 466 Q434 482 437 499 Q443 539 422.5 560.5 Q402 582 367 582 Q350 582 333.5 575 Q317 568 303.5 556 Q290 544 281 528.5 Q272 513 269 497 L137 497 Q144 542 168.5 582.5 Q193 623 228.5 653 Q264 683 308 701 Q352 719 399 719 Z " />
<glyph glyph-name="three" unicode="3" horiz-adv-x="550" d="M479 438 Q523 403 541.5 349.5 Q560 296 550 234 Q542 183 515.5 138.5 Q489 94 450 60 Q411 26 363.5 6.5 Q316 -13 265 -13 Q225 -13 191 -0.5 Q157 12 130.5 34 Q104 56 86 86.5 Q68 117 61 153 L202 209 Q204 174 226.5 149.5 Q249 125 284 125 Q304 125 323.5 133.5 Q343 142 358.5 156.5 Q374 171 385 190.5 Q396 210 399 231 Q406 276 383 307 Q360 338 314 338 Q301 338 288 335 Q275 332 263 324 L203 419 L345 571 L164 571 L186 709 L555 709 L544 640 L401 472 Q446 463 479 438 Z " />
<glyph glyph-name="four" unicode="4" horiz-adv-x="684" d="M566 246 L674 246 L654 114 L546 114 L528 0 L376 0 L394 115 L130 115 L79 197 L523 709 L640 709 L566 246 Z M448 456 L418 413 L290 262 L270 246 L414 246 L442 420 L448 456 Z " />
<glyph glyph-name="five" unicode="5" horiz-adv-x="561" d="M479 438 Q524 406 542 351 Q560 296 550 234 Q542 183 515.5 138.5 Q489 94 450 60 Q411 26 363.5 6.5 Q316 -13 265 -13 Q225 -13 190.5 -0.5 Q156 12 129.5 34 Q103 56 85.5 86.5 Q68 117 61 153 L201 209 Q203 174 225.5 149.5 Q248 125 283 125 Q303 125 322.5 133.5 Q342 142 357.5 156.5 Q373 171 384 190.5 Q395 210 398 231 Q402 255 397 274.5 Q392 294 380 308.5 Q368 323 351 331 Q334 339 314 339 Q290 339 264.5 330 Q239 321 214 307 L131 376 L220 709 L568 709 L546 571 L320 571 L291 451 Q330 467 371 467 Q404 467 432 458.5 Q460 450 479 438 Z " />
<glyph glyph-name="six" unicode="6" horiz-adv-x="586" d="M504 438 Q547 403 566 349.5 Q585 296 575 234 Q567 183 540.5 138.5 Q514 94 475 60 Q436 26 388.5 6.5 Q341 -13 290 -13 Q239 -13 197.5 6.5 Q156 26 128.5 60 Q101 94 89 138.5 Q77 183 85 234 Q90 269 106.5 301.5 Q123 334 143 365 Q145 368 156 384.5 Q167 401 184.5 425.5 Q202 450 223 480.5 Q244 511 266 543 Q317 617 381 709 L552 709 L386 475 Q421 475 451 465 Q481 455 504 438 Z M308 125 Q328 125 347.5 133.5 Q367 142 382.5 156.5 Q398 171 409 190.5 Q420 210 423 231 Q430 276 407.5 307 Q385 338 338 338 Q320 338 301 331 Q282 324 265 307 L262 303 Q251 284 240 264 Q229 244 227 231 Q224 210 228.5 190.5 Q233 171 244 156.5 Q255 142 271.5 133.5 Q288 125 308 125 Z " />
<glyph glyph-name="seven" unicode="7" horiz-adv-x="537" d="M148 709 L614 709 L602 637 L234 0 L70 0 L400 571 L126 571 L148 709 Z " />
<glyph glyph-name="eight" unicode="8" horiz-adv-x="573" d="M493 390 Q512 378 528 359 Q544 340 554 317 Q564 294 567.5 268 Q571 242 567 216 Q559 170 532.5 128.5 Q506 87 467 55.5 Q428 24 380 5.5 Q332 -13 282 -13 Q232 -13 190 5.5 Q148 24 119.5 55.5 Q91 87 77.5 128.5 Q64 170 72 216 Q80 268 113.5 315.5 Q147 363 200 390 Q168 416 157 448.5 Q146 481 152 519 Q158 559 181 595.5 Q204 632 237.5 659.5 Q271 687 312.5 703 Q354 719 398 719 Q442 719 479 703 Q516 687 541 659.5 Q566 632 577.5 595.5 Q589 559 583 519 Q577 481 553.5 448.5 Q530 416 493 390 Z M377 580 Q362 580 347.5 574 Q333 568 322 557.5 Q311 547 303 533.5 Q295 520 293 506 Q289 486 297.5 469 Q306 452 323 443 Q339 436 355 436 Q364 436 372.5 438 Q381 440 389 443 Q409 452 421.5 469 Q434 486 438 506 Q443 535 425.5 557.5 Q408 580 377 580 Z M306 128 Q326 128 344.5 136.5 Q363 145 378 159 Q393 173 403.5 191 Q414 209 417 229 Q422 260 409.5 283.5 Q397 307 372 318 Q358 325 337 325 Q317 325 300 318 Q272 307 252 283.5 Q232 260 227 229 Q224 209 228.5 191 Q233 173 243.5 159 Q254 145 270 136.5 Q286 128 306 128 Z " />
<glyph glyph-name="nine" unicode="9" horiz-adv-x="566" d="M394 719 Q445 719 486.5 699.5 Q528 680 556.5 647 Q585 614 597.5 569.5 Q610 525 602 474 Q596 439 579.5 407 Q563 375 543 343 Q541 340 529.5 323.5 Q518 307 500.5 282.5 Q483 258 462 227 Q441 196 419 165 Q368 91 304 0 L134 0 L300 233 Q249 234 210 254.5 Q171 275 147 308.5 Q123 342 113.5 385 Q104 428 112 474 Q120 525 146 569.5 Q172 614 210 647 Q248 680 295.5 699.5 Q343 719 394 719 Z M424 406 Q436 424 446.5 444 Q457 464 459 477 Q466 521 442.5 552 Q419 583 378 583 Q358 583 338.5 574.5 Q319 566 303.5 551.5 Q288 537 277 518 Q266 499 263 477 Q260 456 263.5 436.5 Q267 417 277.5 402 Q288 387 305.5 378.5 Q323 370 346 370 Q365 370 384.5 377.5 Q404 385 421 402 L424 406 Z " />
<glyph glyph-name="zero" unicode="0" horiz-adv-x="625" d="M429 718 Q489 718 536.5 695 Q584 672 613 628 Q642 585 652.5 526 Q663 467 652 394 L638 307 Q627 238 597 180.5 Q567 123 523 80 Q479 36 425.5 13.5 Q372 -9 314 -9 Q257 -9 210 15 Q163 39 133 84 Q104 127 91 184 Q78 241 89 307 L103 394 Q114 466 143.5 525.5 Q173 585 215 627 Q258 672 313 695 Q368 718 429 718 Z M498 389 Q513 485 484 537 Q459 580 405 580 Q351 580 314 537 Q267 486 252 389 L240 314 Q234 272 238.5 236.5 Q243 201 258 175 Q285 128 334 128 Q362 128 386.5 141.5 Q411 155 431 179.5 Q451 204 465.5 238 Q480 272 486 314 L498 389 Z " />
<glyph glyph-name="cedilla" unicode="&#xb8;" horiz-adv-x="329" d="M149 -34 Q173 -34 190 -42 Q207 -50 217.5 -62.5 Q228 -75 232.5 -91.5 Q237 -108 234 -125 Q231 -146 218.5 -163 Q206 -180 188 -191.5 Q170 -203 147.5 -209 Q125 -215 101 -215 Q71 -215 53 -210 Q43 -208 36 -205 L52 -155 Q59 -155 65 -155.5 Q71 -156 79 -156 Q101 -156 118 -148 Q135 -140 138 -123 Q143 -92 105 -92 Q97 -92 87.5 -94 Q78 -96 70 -101 L44 -73 L148 48 L243 48 L149 -34 L149 -34 Z " />
<glyph glyph-name="breve" unicode="&#x2d8;" horiz-adv-x="385" d="M478 894 Q473 864 457.5 838 Q442 812 419.5 792.5 Q397 773 368.5 761.5 Q340 750 310 750 Q280 750 256 761.5 Q232 773 215.5 792.5 Q199 812 191.5 838 Q184 864 189 894 L285 894 Q282 874 293.5 860 Q305 846 325 846 Q345 846 362 860 Q379 874 382 894 L478 894 Z " />
<glyph glyph-name="period" unicode="&#x2e;" horiz-adv-x="249" d="M146 144 Q178 144 197 122 Q216 100 211 68 Q209 52 200.5 38.5 Q192 25 180 14.5 Q168 4 153 -2 Q138 -8 122 -8 Q90 -8 71.5 14 Q53 36 58 68 Q63 100 88.5 122 Q114 144 146 144 Z " />
<glyph glyph-name="colon" unicode="&#x3a;" horiz-adv-x="314" d="M182 144 Q214 144 233 122 Q252 100 247 68 Q245 52 236.5 38.5 Q228 25 216 14.5 Q204 4 189 -2 Q174 -8 158 -8 Q126 -8 107.5 14 Q89 36 94 68 Q99 100 124.5 122 Q150 144 182 144 Z M237 473 Q269 473 287.5 451 Q306 429 301 397 Q296 365 270.5 342.5 Q245 320 213 320 Q181 320 162 342.5 Q143 365 148 397 Q153 429 179 451 Q205 473 237 473 Z " />
<glyph glyph-name="semicolon" unicode="&#x3b;" horiz-adv-x="284" d="M101 127 L256 127 L131 -144 L25 -144 L101 127 Z M234 473 Q266 473 284.5 451 Q303 429 298 397 Q293 365 267.5 342.5 Q242 320 210 320 Q178 320 159 342.5 Q140 365 145 397 Q150 429 176 451 Q202 473 234 473 Z " />
<glyph glyph-name="parenleft" unicode="&#x28;" horiz-adv-x="321" d="M384 726 Q311 641 259.5 534 Q208 427 189 306 Q169 183 187.5 75 Q206 -33 254 -118 L158 -145 Q110 -51 93 63 Q76 177 96 306 Q116 433 168.5 546 Q221 659 298 753 L384 726 L384 726 Z " />
<glyph glyph-name="parenright" unicode="&#x29;" horiz-adv-x="321" d="M261 753 Q308 659 324.5 546 Q341 433 321 306 Q301 177 247.5 63 Q194 -51 116 -145 L29 -118 Q104 -33 156 75 Q208 183 228 306 Q247 427 230 534 Q213 641 165 726 L261 753 Z " />
<glyph glyph-name="exclam" unicode="&#x21;" horiz-adv-x="280" d="M163 144 Q195 144 213.5 122 Q232 100 227 68 Q222 36 196.5 14 Q171 -8 139 -8 Q107 -8 88 14 Q69 36 74 68 Q79 100 105 122 Q131 144 163 144 Z M112 205 L180 709 L326 709 L235 205 L112 205 Z " />
<glyph glyph-name="question" unicode="&#x3f;" horiz-adv-x="473" d="M176 144 Q208 144 227 122 Q246 100 241 68 Q236 36 210 14 Q184 -8 152 -8 Q120 -8 101.5 14 Q83 36 88 68 Q93 100 118.5 122 Q144 144 176 144 Z M293 718 Q353 718 396 700 Q439 682 465 651.5 Q491 621 500.5 580 Q510 539 503 493 Q485 380 360 312 Q342 302 325.5 294 Q309 286 294.5 275 Q280 264 268.5 248 Q257 232 250 205 L130 205 L133 227 Q139 261 152.5 285.5 Q166 310 187 330.5 Q208 351 236.5 368 Q265 385 300 404 Q326 418 343.5 442.5 Q361 467 366 495 Q369 517 362.5 535.5 Q356 554 341.5 567 Q327 580 306 587 Q285 594 260 594 Q240 594 225.5 591.5 Q211 589 200 586 Q188 582 179 578 L156 682 Q187 699 222 708.5 Q257 718 293 718 Z " />
<glyph glyph-name="space" unicode="&#x20;" horiz-adv-x="275" d="" />
<glyph glyph-name="dieresis" unicode="&#xa8;" horiz-adv-x="479" d="M503 902 Q535 902 553.5 880 Q572 858 567 826 Q562 794 536.5 771.5 Q511 749 479 749 Q463 749 450 755 Q437 761 428.5 771.5 Q420 782 416 796 Q412 810 414 826 Q419 858 445 880 Q471 902 503 902 Z M261 902 Q293 902 311.5 880 Q330 858 325 826 Q320 794 294.5 771.5 Q269 749 237 749 Q221 749 208 755 Q195 761 186.5 771.5 Q178 782 174 796 Q170 810 172 826 Q177 858 203 880 Q229 902 261 902 Z " />
<glyph glyph-name="Odieresis" unicode="&#xd6;" horiz-adv-x="781" d="M495 719 Q567 719 626.5 690 Q686 661 725.5 611 Q765 561 782.5 495 Q800 429 788 354 Q776 280 737.5 213 Q699 146 643.5 96 Q588 46 519.5 16.5 Q451 -13 379 -13 Q307 -13 248 16.5 Q189 46 149.5 96 Q110 146 93.5 213 Q77 280 89 354 Q101 429 138.5 495 Q176 561 231 611 Q286 661 354.5 690 Q423 719 495 719 Z M403 138 Q444 138 483 155 Q522 172 553.5 201.5 Q585 231 607 270 Q629 309 636 354 Q643 399 634 438.5 Q625 478 602.5 507.5 Q580 537 546.5 554 Q513 571 472 571 Q431 571 392.5 554 Q354 537 322.5 507.5 Q291 478 269 438.5 Q247 399 240 354 Q233 309 242 270 Q251 231 273.5 201.5 Q296 172 329 155 Q362 138 403 138 Z M648 909 Q680 909 698.5 887 Q717 865 712 833 Q707 801 681.5 778.5 Q656 756 624 756 Q608 756 595 762 Q582 768 573.5 778.5 Q565 789 561 803 Q557 817 559 833 Q564 865 590 887 Q616 909 648 909 Z M406 909 Q438 909 456.5 887 Q475 865 470 833 Q465 801 439.5 778.5 Q414 756 382 756 Q366 756 353 762 Q340 768 331.5 778.5 Q323 789 319 803 Q315 817 317 833 Q322 865 348 887 Q374 909 406 909 Z " />
<glyph glyph-name="Udieresis" unicode="&#xdc;" horiz-adv-x="688" d="M517 286 Q519 299 523 324.5 Q527 350 532 382 Q537 414 543 451 Q549 488 555 524 Q568 609 584 709 L735 709 Q717 596 702 503 Q696 463 689.5 423.5 Q683 384 677.5 350 Q672 316 668 291 Q664 266 663 256 Q655 203 625 154 Q595 105 551.5 68 Q508 31 453.5 9 Q399 -13 341 -13 Q284 -13 237 9 Q190 31 158 68 Q126 105 112 154 Q98 203 106 256 Q108 267 112 292.5 Q116 318 121.5 352 Q127 386 133.5 425.5 Q140 465 146 505 Q161 598 178 709 L329 709 Q313 605 299 519 Q293 482 287 445 Q281 408 276 376.5 Q271 345 267 321 Q263 297 262 286 Q257 256 262.5 229.5 Q268 203 282 182.5 Q296 162 317.5 150 Q339 138 365 138 Q392 138 417 150 Q442 162 462.5 182.5 Q483 203 497.5 229.5 Q512 256 517 286 Z M609 909 Q641 909 659.5 887 Q678 865 673 833 Q668 801 642.5 778.5 Q617 756 585 756 Q569 756 556 762 Q543 768 534.5 778.5 Q526 789 522 803 Q518 817 520 833 Q525 865 551 887 Q577 909 609 909 Z M367 909 Q399 909 417.5 887 Q436 865 431 833 Q426 801 400.5 778.5 Q375 756 343 756 Q327 756 314 762 Q301 768 292.5 778.5 Q284 789 280 803 Q276 817 278 833 Q283 865 309 887 Q335 909 367 909 Z " />
<glyph glyph-name="odieresis" unicode="&#xf6;" horiz-adv-x="599" d="M370 510 Q423 510 467 489.5 Q511 469 540.5 433.5 Q570 398 583 350.5 Q596 303 587 249 Q578 195 550.5 147.5 Q523 100 482.5 64.5 Q442 29 391.5 8.5 Q341 -12 288 -12 Q234 -12 190 8.5 Q146 29 116.5 64.5 Q87 100 74 147.5 Q61 195 70 249 Q79 303 106.5 350.5 Q134 398 175 433.5 Q216 469 266 489.5 Q316 510 370 510 Z M307 109 Q332 109 355 119 Q378 129 397 146.5 Q416 164 429.5 188.5 Q443 213 448 243 Q453 273 447.5 299 Q442 325 429 344.5 Q416 364 396 375.5 Q376 387 351 387 Q326 387 302 375.5 Q278 364 258.5 344.5 Q239 325 225.5 299 Q212 273 207 243 Q202 213 207.5 188.5 Q213 164 227 146.5 Q241 129 261.5 119 Q282 109 307 109 Z M526 709 Q558 709 576.5 687 Q595 665 590 633 Q585 601 559.5 578.5 Q534 556 502 556 Q486 556 473 562 Q460 568 451.5 578.5 Q443 589 439 603 Q435 617 437 633 Q442 665 468 687 Q494 709 526 709 Z M284 709 Q316 709 334.5 687 Q353 665 348 633 Q343 601 317.5 578.5 Q292 556 260 556 Q244 556 231 562 Q218 568 209.5 578.5 Q201 589 197 603 Q193 617 195 633 Q200 665 226 687 Q252 709 284 709 Z " />
<glyph glyph-name="udieresis" unicode="&#xfc;" horiz-adv-x="581" d="M437 496 L575 496 L497 0 L379 0 L365 38 Q338 21 306 10.5 Q274 0 239 0 Q212 0 179 8 Q146 16 119 38 Q92 60 77.5 99 Q63 138 73 200 L120 496 L259 496 L213 205 Q209 182 214 166 Q219 150 230 140.5 Q241 131 256.5 126.5 Q272 122 289 122 Q302 122 318 126.5 Q334 131 349 141 Q364 151 376 167 Q388 183 391 205 L437 496 Z M506 710 Q538 710 556.5 688 Q575 666 570 634 Q565 602 539.5 579.5 Q514 557 482 557 Q466 557 453 563 Q440 569 431.5 579.5 Q423 590 419 604 Q415 618 417 634 Q422 666 448 688 Q474 710 506 710 Z M264 710 Q296 710 314.5 688 Q333 666 328 634 Q323 602 297.5 579.5 Q272 557 240 557 Q224 557 211 563 Q198 569 189.5 579.5 Q181 590 177 604 Q173 618 175 634 Q180 666 206 688 Q232 710 264 710 Z " />
<glyph glyph-name="Gbreve" unicode="&#x11e;" horiz-adv-x="724" d="M672 900 Q667 870 651.5 844 Q636 818 613.5 798.5 Q591 779 562.5 767.5 Q534 756 504 756 Q474 756 450 767.5 Q426 779 409.5 798.5 Q393 818 385.5 844 Q378 870 383 900 L479 900 Q476 880 487.5 866 Q499 852 519 852 Q539 852 555.5 866 Q572 880 575 900 L672 900 Z M461 401 L729 401 L688 141 Q616 65 536.5 26 Q457 -13 377 -13 Q305 -13 246 16.5 Q187 46 147.5 96 Q108 146 91.5 212.5 Q75 279 87 354 Q99 429 136.5 495 Q174 561 229 611 Q284 661 352.5 690 Q421 719 493 719 Q561 719 617.5 694 Q674 669 722 611 L617 504 Q582 543 547 556.5 Q512 570 471 570 Q429 570 390 553 Q351 536 319.5 507 Q288 478 266 438.5 Q244 399 237 354 Q230 309 239 270 Q248 231 270.5 201.5 Q293 172 326.5 155 Q360 138 402 138 Q439 138 478 151.5 Q517 165 559 196 L571 273 L441 273 L461 401 Z " />
<glyph glyph-name="gbreve" unicode="&#x11f;" horiz-adv-x="616" d="M569 709 Q564 679 548.5 653 Q533 627 510 607.5 Q487 588 459 576.5 Q431 565 401 565 Q371 565 346.5 576.5 Q322 588 305.5 607.5 Q289 627 282 653 Q275 679 280 709 L376 709 Q373 689 384.5 675 Q396 661 416 661 Q436 661 452.5 675 Q469 689 472 709 L569 709 Z M512 496 L630 496 L578 168 Q569 111 560.5 66.5 Q552 22 540 -13.5 Q528 -49 510.5 -77 Q493 -105 465 -129 Q414 -172 357 -188 Q300 -204 240 -204 Q189 -204 146 -192 Q103 -180 70 -159 L91 -30 Q105 -57 147 -74 Q189 -91 240 -91 Q273 -91 303.5 -82.5 Q334 -74 358.5 -55 Q383 -36 400 -7.5 Q417 21 423 62 L425 72 Q392 46 351.5 30.5 Q311 15 266 15 Q216 15 176.5 34.5 Q137 54 111.5 87.5 Q86 121 75.5 166.5 Q65 212 73 263 Q81 314 106 359 Q131 404 167 437.5 Q203 471 248.5 490.5 Q294 510 344 510 Q391 510 427 497.5 Q463 485 486 458 L512 496 Z M313 138 Q345 138 370 149.5 Q395 161 412.5 179 Q430 197 441 219 Q452 241 455 262 Q459 285 455 307.5 Q451 330 439 347.5 Q427 365 405.5 376 Q384 387 353 387 Q327 387 303.5 377 Q280 367 260.5 350 Q241 333 228 310.5 Q215 288 211 262 Q207 236 213 213.5 Q219 191 232.5 174 Q246 157 266.5 147.5 Q287 138 313 138 Z " />
<glyph glyph-name="Idotaccent" unicode="&#x130;" horiz-adv-x="387" d="M311 756 Q279 756 260 778 Q241 800 246 832 Q251 864 277 886.5 Q303 909 335 909 Q367 909 385.5 886.5 Q404 864 399 832 Q394 800 368.5 778 Q343 756 311 756 Z M434 709 L414 581 L361 581 L289 127 L342 127 L322 0 L64 0 L84 127 L137 127 L209 581 L156 581 L176 709 L434 709 Z " />
<glyph glyph-name="dotlessi" unicode="&#x131;" horiz-adv-x="262" d="M200 0 L62 0 L140 496 L278 496 L200 0 Z " />
<glyph glyph-name="Scedilla" unicode="&#x15e;" horiz-adv-x="616" d="M298 -44 Q322 -44 339 -52 Q356 -60 366.5 -72.5 Q377 -85 381 -101.5 Q385 -118 382 -135 Q379 -156 366.5 -173 Q354 -190 336 -201.5 Q318 -213 296 -219 Q274 -225 250 -225 Q219 -225 201 -220 Q191 -218 184 -215 L200 -165 Q207 -165 213 -165.5 Q219 -166 227 -166 Q249 -166 266.5 -158 Q284 -150 286 -133 Q291 -102 253 -102 Q245 -102 235.5 -104 Q226 -106 218 -111 L192 -83 L255 -10 Q214 -5 179.5 9 Q145 23 119 47 Q69 89 57 151 L208 216 Q207 206 211.5 191 Q216 176 229 162 Q242 148 264 138 Q286 128 321 128 Q366 128 396.5 144.5 Q427 161 440 182.5 Q453 204 447 225 Q441 246 413 256 Q375 270 332 279.5 Q289 289 249 303.5 Q209 318 177.5 342 Q146 366 131 409 Q120 441 123.5 476 Q127 511 141.5 544.5 Q156 578 180.5 607.5 Q205 637 236 659 Q278 688 326 703 Q374 718 425 719 Q476 719 520.5 704 Q565 689 597 660 Q629 632 644 597 L518 519 Q501 548 472.5 565.5 Q444 583 405 583 Q351 583 317.5 559 Q284 535 278 496 Q275 478 289.5 464 Q304 450 328.5 439 Q353 428 384.5 419.5 Q416 411 447.5 402.5 Q479 394 506 385 Q533 376 550 365 Q629 314 612 214 Q605 166 575.5 123.5 Q546 81 498 49 Q462 24 421 9.5 Q380 -5 336 -10 L298 -44 L298 -44 Z " />
<glyph glyph-name="scedilla" unicode="&#x15f;" horiz-adv-x="465" d="M225 -44 Q249 -44 266 -52 Q283 -60 293.5 -72.5 Q304 -85 308 -101.5 Q312 -118 309 -135 Q306 -156 293.5 -173 Q281 -190 263 -201.5 Q245 -213 223 -219 Q201 -225 177 -225 Q146 -225 128 -220 Q118 -218 111 -215 L127 -165 Q134 -165 140 -165.5 Q146 -166 154 -166 Q176 -166 193.5 -158 Q211 -150 213 -133 Q218 -102 180 -102 Q172 -102 162.5 -104 Q153 -106 145 -111 L119 -83 L184 -7 Q136 2 102 30 Q68 58 59 96 Q83 107 113 120.5 Q143 134 166 145 Q173 130 190 117.5 Q207 105 240 105 Q261 105 275.5 111.5 Q290 118 299 127 Q308 136 311.5 145.5 Q315 155 312 162 Q309 169 301 174 Q293 179 283 182.5 Q273 186 264 188 Q255 190 250 191 Q164 207 133 241 Q119 255 112.5 271.5 Q106 288 104 303 Q102 318 103.5 330.5 Q105 343 106 349 Q111 382 130.5 412 Q150 442 181 465 Q209 485 242 496.5 Q275 508 310 508 Q345 508 374.5 496.5 Q404 485 426 465 Q443 449 452.5 429 Q462 409 465 387 L352 351 Q349 369 332 380 Q315 391 294 391 Q273 391 258 377 Q243 363 241 349 Q238 328 251 321 Q259 315 269.5 312 Q280 309 289 307 Q334 299 364 287.5 Q394 276 414 260 Q463 221 451 149 Q446 114 424 83.5 Q402 53 367 30 Q321 0 265 -8 L225 -44 L225 -44 Z " />
<glyph glyph-name="ccedilla" unicode="&#xe7;" horiz-adv-x="525" d="M278 -44 Q302 -44 319 -52 Q336 -60 346.5 -72.5 Q357 -85 361 -101.5 Q365 -118 362 -135 Q359 -156 346.5 -173 Q334 -190 316 -201.5 Q298 -213 276 -219 Q254 -225 230 -225 Q199 -225 181 -220 Q171 -218 164 -215 L180 -165 Q187 -165 193 -165.5 Q199 -166 207 -166 Q229 -166 246.5 -158 Q264 -150 266 -133 Q271 -102 233 -102 Q225 -102 215.5 -104 Q206 -106 198 -111 L172 -83 L241 -3 Q200 7 168.5 31 Q137 55 116.5 88 Q96 121 88 162 Q80 203 87 249 Q96 303 123.5 350.5 Q151 398 192 433.5 Q233 469 283 489.5 Q333 510 387 510 Q448 510 496 484 Q544 458 573 413 L465 339 Q441 366 419 376.5 Q397 387 368 387 Q343 387 319 375.5 Q295 364 275.5 344.5 Q256 325 242.5 299 Q229 273 224 243 Q219 213 224.5 188.5 Q230 164 244 146.5 Q258 129 278.5 119 Q299 109 324 109 Q355 109 386.5 123.5 Q418 138 443 164 L515 80 Q475 39 423 14.5 Q371 -10 315 -12 L278 -44 L278 -44 Z " />
<glyph glyph-name="Ccedilla" unicode="&#xc7;" horiz-adv-x="688" d="M347 -44 Q371 -44 388 -52 Q405 -60 415.5 -72.5 Q426 -85 430 -101.5 Q434 -118 431 -135 Q428 -156 415.5 -173 Q403 -190 385 -201.5 Q367 -213 345 -219 Q323 -225 299 -225 Q268 -225 250 -220 Q240 -218 233 -215 L249 -165 Q256 -165 262 -165.5 Q268 -166 276 -166 Q298 -166 315.5 -158 Q333 -150 335 -133 Q340 -102 302 -102 Q294 -102 284.5 -104 Q275 -106 267 -111 L241 -83 L306 -7 Q247 5 200 37.5 Q153 70 123 118 Q93 166 81.5 226.5 Q70 287 81 354 Q93 429 130.5 495 Q168 561 223 611 Q278 661 346.5 690 Q415 719 487 719 Q554 719 610.5 694 Q667 669 716 611 L611 504 Q576 543 540.5 556.5 Q505 570 464 570 Q423 570 384 553 Q345 536 313.5 507 Q282 478 260 438.5 Q238 399 231 354 Q224 309 233 270 Q242 231 264.5 201.5 Q287 172 320.5 155 Q354 138 395 138 Q443 138 493 160 Q543 182 598 234 L681 141 Q614 69 536 30.5 Q458 -8 383 -12 L347 -44 L347 -44 Z " />
<glyph glyph-name="comma" unicode="&#x2c;" horiz-adv-x="302" d="M101 127 L256 127 L131 -144 L25 -144 L101 127 Z " />
<glyph glyph-name="a" unicode="a" horiz-adv-x="608" d="M642 496 L564 0 L445 0 L439 53 Q404 14 361.5 1 Q319 -12 275 -12 Q222 -12 180.5 8.5 Q139 29 112 64.5 Q85 100 73.5 147.5 Q62 195 71 249 Q80 303 106 350.5 Q132 398 170 433.5 Q208 469 256 489.5 Q304 510 357 510 Q405 510 442.5 495 Q480 480 501 447 L523 496 L642 496 Z M465 247 Q471 286 464.5 312.5 Q458 339 443 355.5 Q428 372 406 379.5 Q384 387 357 387 Q330 387 304.5 376 Q279 365 258.5 346.5 Q238 328 223.5 302.5 Q209 277 205 249 Q200 220 206.5 195 Q213 170 227.5 151.5 Q242 133 264 122 Q286 111 313 111 Q340 111 364.5 119.5 Q389 128 409.5 144.5 Q430 161 444.5 186.5 Q459 212 465 247 Z " />
<glyph glyph-name="ampersand" unicode="&#x26;" horiz-adv-x="697" d="M709 260 Q678 231 644.5 202.5 Q611 174 578 148 L689 0 L519 0 L468 66 Q416 31 359 5 Q302 -21 242 -21 Q204 -21 170 -8.5 Q136 4 111.5 28 Q87 52 75.5 87.5 Q64 123 71 170 Q82 233 126 287 Q170 341 231 385 L137 516 Q145 565 170 604 Q195 643 230.5 670 Q266 697 307.5 711.5 Q349 726 389 726 Q427 726 460.5 710.5 Q494 695 517.5 668.5 Q541 642 552.5 607.5 Q564 573 558 535 Q553 506 540 482 Q527 458 508 437.5 Q489 417 465 399 Q441 381 416 365 L510 242 Q523 250 534 262 Q545 274 559 285 L632 350 L709 260 Z M253 99 Q279 99 305 108.5 Q331 118 352 130 Q376 143 398 161 Q373 195 348 226 Q323 257 300 291 Q283 280 269 268.5 Q255 257 241 243 Q230 232 214.5 215 Q199 198 193 161 Q192 153 194.5 142 Q197 131 204 121.5 Q211 112 223 105.5 Q235 99 253 99 Z M361 603 Q337 603 321.5 593 Q306 583 297 572 Q286 558 282 541 L347 460 Q372 476 387.5 488.5 Q403 501 411.5 510 Q420 519 423 526.5 Q426 534 427 540 Q431 568 410 585.5 Q389 603 361 603 Z " />
<glyph glyph-name="percent" unicode="&#x25;" horiz-adv-x="754" d="M749 695 L180 -34 L108 16 L677 744 L749 695 Z M608 325 Q642 325 670.5 312 Q699 299 718 276 Q737 253 745.5 222.5 Q754 192 749 158 Q743 123 725 93 Q707 63 681 40 Q655 17 622 4 Q589 -9 555 -9 Q520 -9 492 4 Q464 17 445 40 Q426 63 417.5 93 Q409 123 415 158 Q420 192 438 222.5 Q456 253 482 276 Q508 299 540.5 312 Q573 325 608 325 Z M570 86 Q585 86 599 92 Q613 98 624.5 107.5 Q636 117 643.5 130 Q651 143 654 158 Q659 188 641 209 Q623 230 593 230 Q563 230 539 209 Q515 188 510 158 Q505 129 522.5 107.5 Q540 86 570 86 Z M313 723 Q347 723 375.5 710 Q404 697 423 674 Q442 651 450.5 620.5 Q459 590 454 556 Q448 521 430 491 Q412 461 386 438 Q360 415 327 402 Q294 389 260 389 Q225 389 197 402 Q169 415 150 438 Q131 461 122.5 491 Q114 521 120 556 Q125 590 143 620.5 Q161 651 187 674 Q213 697 245.5 710 Q278 723 313 723 Z M275 484 Q305 484 329.5 505 Q354 526 359 556 Q364 586 346 607 Q328 628 298 628 Q268 628 244 607 Q220 586 215 556 Q210 526 227.5 505 Q245 484 275 484 Z " />
<glyph glyph-name="dollar" unicode="&#x24;" horiz-adv-x="567" d="M517 348 Q591 301 576 204 Q570 163 548.5 128 Q527 93 494.5 66 Q462 39 420 20 Q378 1 332 -8 L318 -101 L233 -101 L247 -12 Q206 -9 171.5 4 Q137 17 110.5 37.5 Q84 58 67.5 85 Q51 112 45 144 L189 206 Q188 199 190.5 186 Q193 173 202 160.5 Q211 148 227 137.5 Q243 127 268 124 L291 270 Q246 282 209.5 298.5 Q173 315 148.5 338.5 Q124 362 113.5 394.5 Q103 427 110 471 Q117 514 140.5 551 Q164 588 198.5 616 Q233 644 274 661 Q315 678 357 683 L370 764 L455 764 L442 683 Q467 680 492.5 670.5 Q518 661 540 646.5 Q562 632 579.5 612.5 Q597 593 606 570 L485 495 Q465 532 421 550 L395 390 Q428 381 462 371 Q496 361 517 348 Z M304 419 Q307 418 309 417 Q311 416 314 415 L336 552 Q301 544 280.5 522.5 Q260 501 255 473 Q253 456 267 442.5 Q281 429 304 419 Z M411 174 Q416 182 418 194 Q422 214 409.5 228.5 Q397 243 373 248 L354 131 Q375 139 389 150 Q403 161 411 174 Z " />
<glyph glyph-name="numbersign" unicode="&#x23;" horiz-adv-x="740" d="M635 419 L576 240 L712 240 L696 145 L545 145 L495 -8 L405 8 L449 143 L274 143 L225 -8 L134 8 L178 141 L46 141 L61 237 L209 237 L267 416 L132 416 L147 511 L298 511 L348 664 L439 648 L395 513 L569 513 L619 664 L709 648 L665 515 L797 515 L782 420 L635 419 Z M538 417 L364 417 L305 239 L479 239 L538 417 Z " />
<glyph glyph-name="quotedbl" unicode="&#x22;" horiz-adv-x="404" d="M339 709 L476 709 L400 439 L313 439 L339 709 Z M129 439 L156 709 L292 709 L216 439 L129 439 Z " />
<glyph glyph-name="asterisk" unicode="&#x2a;" horiz-adv-x="488" d="M474 347 L380 284 L313 444 L198 285 L123 347 L270 478 L101 508 L148 608 L297 544 L303 709 L408 709 L363 546 L531 608 L546 508 L377 475 L474 347 Z " />
<glyph glyph-name="plus" unicode="&#x2b;" horiz-adv-x="523" d="M567 343 L552 249 L348 249 L315 44 L220 44 L253 249 L49 249 L64 343 L268 343 L300 548 L395 548 L363 343 L567 343 Z " />
<glyph glyph-name="hyphen" unicode="&#x2d;" horiz-adv-x="389" d="M378 228 L84 228 L98 322 L392 322 L378 228 Z " />
<glyph glyph-name="slash" unicode="&#x2f;" horiz-adv-x="547" d="M650 695 L81 -34 L9 16 L578 744 L650 695 Z " />
<glyph glyph-name="less" unicode="&#x3c;" horiz-adv-x="501" d="M82 203 L97 302 L539 505 L521 387 L199 253 L478 119 L460 2 L82 203 Z " />
<glyph glyph-name="equal" unicode="&#x3d;" horiz-adv-x="522" d="M119 450 L545 450 L530 355 L104 355 L119 450 Z M86 243 L512 243 L497 148 L71 148 L86 243 Z " />
<glyph glyph-name="greater" unicode="&#x3e;" horiz-adv-x="502" d="M52 2 L70 119 L393 253 L113 387 L131 505 L509 302 L494 203 L52 2 Z " />
<glyph glyph-name="at" unicode="&#x40;" horiz-adv-x="836" d="M534 726 Q621 726 687.5 698 Q754 670 797 619.5 Q840 569 856.5 498 Q873 427 860 341 Q852 290 836.5 254 Q821 218 803.5 194 Q786 170 768 156.5 Q750 143 737 137 Q710 124 678 124 Q645 124 617 140 Q589 156 569 187 Q539 160 503 145 Q467 130 426 130 Q384 130 350 146 Q316 162 293.5 189.5 Q271 217 261 253.5 Q251 290 257 332 Q264 374 285.5 410.5 Q307 447 338.5 474.5 Q370 502 409 518 Q448 534 490 534 Q522 534 549.5 524 Q577 514 597 496 Q597 502 601 508 Q603 513 608 518 Q613 523 621 526 L698 518 L646 304 Q645 302 645 300 Q645 298 644 296 Q641 278 644.5 263.5 Q648 249 655.5 239.5 Q663 230 673 224.5 Q683 219 693 219 Q715 219 733 248.5 Q751 278 762 326 Q775 410 760 468.5 Q745 527 710.5 563.5 Q676 600 626 616 Q576 632 520 632 Q461 632 404 608 Q347 584 301 543 Q255 502 223 448 Q191 394 181 333 Q171 270 185 216.5 Q199 163 233.5 124 Q268 85 320 63 Q372 41 439 41 Q499 41 555 63 L578 -24 Q501 -54 423 -54 Q336 -54 267.5 -24.5 Q199 5 154.5 57 Q110 109 91.5 180 Q73 251 86 333 Q99 412 141 483.5 Q183 555 244 609 Q305 663 380 694.5 Q455 726 534 726 Z M441 225 Q466 225 485.5 234.5 Q505 244 519 259 Q533 274 541.5 293 Q550 312 553 332 Q556 351 553.5 370.5 Q551 390 542 405 Q533 420 516.5 429.5 Q500 439 475 439 Q453 439 432 430.5 Q411 422 394 407.5 Q377 393 365.5 373.5 Q354 354 351 332 Q348 310 353 290.5 Q358 271 370.5 256.5 Q383 242 401 233.5 Q419 225 441 225 Z " />
<glyph glyph-name="grave" unicode="&#x60;" horiz-adv-x="242" d="M283 710 L269 531 L167 531 L132 710 L283 710 Z " />
<glyph glyph-name="underscore" unicode="&#x5f;" horiz-adv-x="597" d="M48 0 L549 0 L533 -95 L32 -95 L48 0 Z " />
<glyph glyph-name="asciicircum" unicode="&#x5e;" horiz-adv-x="452" d="M493 414 L387 414 L322 609 L195 414 L89 414 L288 719 L390 719 L493 414 Z " />
<glyph glyph-name="bracketright" unicode="&#x5d;" horiz-adv-x="312" d="M239 -158 L18 -158 L34 -63 L160 -63 L285 728 L159 728 L174 823 L395 823 L239 -158 Z " />
<glyph glyph-name="backslash" unicode="&#x5c;" horiz-adv-x="547" d="M117 695 L203 744 L542 16 L454 -34 L117 695 Z " />
<glyph glyph-name="bracketleft" unicode="&#x5b;" horiz-adv-x="325" d="M178 823 L398 823 L383 728 L258 728 L133 -63 L258 -63 L242 -158 L22 -158 L178 823 Z " />
<glyph glyph-name="asciitilde" unicode="&#x7e;" horiz-adv-x="594" d="M444 304 Q465 304 484.5 309 Q504 314 519.5 321.5 Q535 329 546.5 337 Q558 345 564 351 L614 299 Q610 296 593 281.5 Q576 267 550.5 251 Q525 235 492.5 222.5 Q460 210 425 210 Q389 210 367 221.5 Q345 233 328 246.5 Q311 260 293.5 271.5 Q276 283 250 283 Q226 283 204.5 276 Q183 269 167 260.5 Q151 252 141.5 245 Q132 238 131 237 L70 276 Q71 277 85 293.5 Q99 310 124 328.5 Q149 347 184.5 362.5 Q220 378 265 378 Q305 378 331.5 366.5 Q358 355 377.5 341 Q397 327 412 315.5 Q427 304 444 304 Z " />
<glyph glyph-name="braceright" unicode="&#x7d;" horiz-adv-x="301" d="M119 206 Q125 238 145 266 Q165 294 197 311 L217 320 Q219 322 226 324 Q233 326 238 326 Q215 335 199 351.5 Q183 368 174 390 Q165 412 162 436.5 Q159 461 163 485 L194 681 Q196 691 195.5 703 Q195 715 190.5 725 Q186 735 177.5 741.5 Q169 748 155 748 L167 826 Q197 826 221.5 814.5 Q246 803 262.5 783.5 Q279 764 286.5 737.5 Q294 711 289 681 L255 467 Q255 461 256 447.5 Q257 434 266.5 418.5 Q276 403 296 389.5 Q316 376 353 372 L338 274 Q298 270 273.5 259 Q249 248 235.5 235.5 Q222 223 217.5 212.5 Q213 202 213 200 L178 -20 Q173 -50 157.5 -76.5 Q142 -103 119.5 -122.5 Q97 -142 68.5 -153.5 Q40 -165 10 -165 L23 -87 Q38 -87 49 -80.5 Q60 -74 67 -64 Q74 -54 77.5 -42.5 Q81 -31 83 -20 L119 206 Z " />
<glyph glyph-name="bar" unicode="&#x7c;" horiz-adv-x="188" d="M177 816 L271 816 L116 -160 L22 -160 L177 816 Z " />
<glyph glyph-name="braceleft" unicode="&#x7b;" horiz-adv-x="301" d="M300 546 Q298 531 295.5 515.5 Q293 500 291 485 Q288 465 278.5 439 Q269 413 253.5 390 Q238 367 216 351 Q194 335 167 335 Q190 326 206 309 Q222 292 231 270.5 Q240 249 242.5 224.5 Q245 200 241 176 L210 -20 Q208 -31 209 -42.5 Q210 -54 214.5 -64 Q219 -74 227.5 -80.5 Q236 -87 250 -87 L237 -165 Q207 -165 182.5 -153.5 Q158 -142 142 -122.5 Q126 -103 118.5 -76.5 Q111 -50 116 -20 L150 194 Q150 200 149 213.5 Q148 227 138.5 242.5 Q129 258 108.5 271 Q88 284 51 289 L67 387 Q107 391 131 402 Q155 413 168.5 425.5 Q182 438 187 448.5 Q192 459 193 461 L227 681 Q232 711 247.5 737.5 Q263 764 285.5 783.5 Q308 803 336 814.5 Q364 826 394 826 L382 748 Q367 748 356 741.5 Q345 735 338 725 Q331 715 327 703 Q323 691 321 681 L300 546 Z " />
<glyph glyph-name="degree" unicode="&#xb0;" horiz-adv-x="386" d="M298 667 Q331 667 358 654.5 Q385 642 403 621 Q421 600 429 571 Q437 542 432 509 Q427 476 410 447 Q393 418 368 396.5 Q343 375 312 362.5 Q281 350 248 350 Q215 350 188 362.5 Q161 375 143 396.5 Q125 418 117 447 Q109 476 114 509 Q119 542 136 571 Q153 600 178 621 Q203 642 234 654.5 Q265 667 298 667 Z M262 440 Q291 440 314 460 Q337 480 342 509 Q347 537 330 557 Q313 577 284 577 Q255 577 232 557 Q209 537 204 509 Q199 480 216 460 Q233 440 262 440 Z " />
<glyph glyph-name="cent" unicode="&#xa2;" horiz-adv-x="471" d="M213 0 L224 73 Q185 84 153.5 106 Q122 128 101.5 159 Q81 190 72.5 229 Q64 268 71 312 Q78 355 99 395 Q120 435 150.5 466.5 Q181 498 219.5 520 Q258 542 300 550 L315 648 L406 648 L391 552 Q433 546 467.5 522.5 Q502 499 525 465 L424 396 Q396 426 372 434 L333 188 Q353 194 371 205 Q389 216 404 233 L471 154 Q439 122 399 100.5 Q359 79 315 71 L304 0 L213 0 Z M218 216 Q223 209 229.5 204 Q236 199 243 194 L280 426 Q248 406 226.5 375.5 Q205 345 199 306 Q190 252 218 216 Z " />
<glyph glyph-name="sterling" unicode="&#xa3;" horiz-adv-x="554" d="M388 123 Q404 123 423.5 129.5 Q443 136 461 145 Q479 154 493.5 163 Q508 172 516 177 L577 79 Q544 57 509 39 Q479 24 441.5 12 Q404 0 369 0 L55 0 L70 66 Q72 69 79.5 104 Q87 139 100 190 L117 259 L67 259 L86 384 L143 384 L144 389 Q146 400 148.5 413.5 Q151 427 153 438 L158 463 Q170 541 199.5 588 Q229 635 265.5 660.5 Q302 686 340 694 Q378 702 408 702 Q463 702 499.5 681 Q536 660 557.5 629 Q579 598 588 564 Q597 530 597 505 L471 481 Q471 485 469 500.5 Q467 516 458.5 533.5 Q450 551 433.5 565 Q417 579 388 579 Q363 579 344.5 572 Q326 565 312 544 Q298 523 287 485 Q276 447 266 384 L443 384 L424 259 L239 259 L207 123 L388 123 L388 123 Z " />
<glyph glyph-name="AE" unicode="&#xc6;" horiz-adv-x="978" d="M511 152 L278 152 L191 0 L26 0 L434 709 L1042 709 L1020 571 L729 571 L709 443 L965 443 L943 305 L687 305 L660 137 L951 137 L930 0 L487 0 L511 152 Z M532 290 L577 571 L521 571 L357 290 L532 290 Z " />
<glyph glyph-name="notequal" unicode="&#x2260;" horiz-adv-x="526" d="M119 450 L545 450 L530 355 L104 355 L119 450 Z M86 243 L512 243 L497 148 L71 148 L86 243 Z " />
<glyph glyph-name="acute" unicode="&#xb4;" horiz-adv-x="244" d="M337 710 L246 531 L144 531 L186 710 L337 710 Z " />
<glyph glyph-name="trademark" unicode="&#x2122;" horiz-adv-x="681" d="M150 709 L377 709 L366 639 L290 639 L252 400 L177 400 L215 639 L139 639 L150 709 Z M676 709 L745 709 L696 400 L621 400 L650 581 Q630 561 611.5 539 Q593 517 575 497 L518 497 L468 580 L440 400 L364 400 L413 709 L483 709 L559 576 L676 709 Z " />
<glyph glyph-name="copyright" unicode="&#xa9;" horiz-adv-x="849" d="M520 231 Q545 242 576 270 L621 221 Q584 181 541 160 Q498 139 453 139 Q417 139 386 153.5 Q355 168 334 194.5 Q313 221 303.5 257 Q294 293 301 335 Q307 376 327.5 411.5 Q348 447 377.5 473 Q407 499 443 514 Q479 529 517 529 Q554 529 584 515.5 Q614 502 639 472 L584 415 Q564 435 546 442.5 Q528 450 505 450 Q481 450 460 440 Q439 430 422.5 414 Q406 398 395 377 Q384 356 381 335 Q376 308 382 287 Q388 266 400.5 251 Q413 236 430.5 228 Q448 220 468 220 Q481 220 494 222.5 Q507 225 520 231 Z M532 686 Q605 686 664.5 658.5 Q724 631 764.5 583 Q805 535 822.5 471 Q840 407 828 334 Q817 261 779 197 Q741 133 686 85 Q631 37 562.5 9.5 Q494 -18 421 -18 Q349 -18 289.5 9.5 Q230 37 189.5 85 Q149 133 131.5 197 Q114 261 125 334 Q137 407 174.5 471 Q212 535 267.5 583 Q323 631 391.5 658.5 Q460 686 532 686 Z M434 68 Q489 68 541 89 Q593 110 635 146 Q677 182 705 230.5 Q733 279 742 334 Q751 389 738 437.5 Q725 486 695 522 Q665 558 619.5 579 Q574 600 519 600 Q464 600 412 579 Q360 558 318 522 Q276 486 247.5 437.5 Q219 389 210 334 Q201 279 214.5 230.5 Q228 182 258.5 146 Q289 110 334 89 Q379 68 434 68 Z " />
<glyph glyph-name="registered" unicode="&#xae;" horiz-adv-x="850" d="M575 322 Q561 312 545 305 L631 167 L550 145 L458 297 L422 297 L397 145 L316 145 L376 523 L539 523 Q560 523 581 515 Q590 510 597.5 504 Q605 498 611 491 Q624 477 629 455 Q631 444 631.5 433.5 Q632 423 630 410 Q629 402 626.5 393 Q624 384 620 376 Q615 368 611 361 Q607 354 600 347 Q591 333 575 322 Z M534 383 Q548 397 549 410 Q552 426 543 438 Q533 449 518 449 L446 449 L433 371 L505 371 Q520 371 534 383 Z M533 686 Q605 686 665 658.5 Q725 631 765 583 Q805 535 823 471 Q841 407 829 334 Q818 261 780 197 Q742 133 686.5 85 Q631 37 562.5 9.5 Q494 -18 422 -18 Q349 -18 289.5 9.5 Q230 37 189.5 85 Q149 133 131.5 197 Q114 261 125 334 Q137 407 174.5 471 Q212 535 267.5 583 Q323 631 391.5 658.5 Q460 686 533 686 Z M435 68 Q490 68 542 89 Q594 110 635.5 146 Q677 182 705.5 230.5 Q734 279 743 334 Q752 389 739 437.5 Q726 486 695.5 522 Q665 558 620 579 Q575 600 520 600 Q465 600 413 579 Q361 558 319 522 Q277 486 248.5 437.5 Q220 389 211 334 Q202 279 215.5 230.5 Q229 182 259.5 146 Q290 110 335 89 Q380 68 435 68 Z " />
<glyph glyph-name="paragraph" unicode="&#xb6;" horiz-adv-x="645" d="M729 709 L714 614 L584 614 L462 -156 L364 -156 L486 614 L405 614 L283 -156 L185 -156 L261 323 Q222 324 191 340 Q160 356 139 382 Q118 408 109 442.5 Q100 477 106 516 Q112 555 132 589.5 Q152 624 181.5 650 Q211 676 247 691.5 Q283 707 322 709 L729 709 Z " />
<glyph glyph-name="bullet" unicode="&#x2022;" horiz-adv-x="374" d="M105 169 Q68 212 78 276 Q89 340 139 383 Q192 427 254 427 Q319 427 355 383 Q394 340 383 276 Q373 212 321 169 Q271 127 207 127 Q144 127 105 169 Z " />
<glyph glyph-name="quoteleft" unicode="&#x2018;" horiz-adv-x="245" d="M293 436 L187 436 L147 707 L302 707 L293 436 Z " />
<glyph glyph-name="quoteright" unicode="&#x2019;" horiz-adv-x="244" d="M181 709 L336 709 L211 438 L105 438 L181 709 Z " />
<glyph glyph-name="quotesingle" unicode="&#x27;" horiz-adv-x="219" d="M152 709 L298 709 L223 439 L125 439 L152 709 Z " />
<glyph glyph-name="logicalnot" unicode="&#xac;" horiz-adv-x="559" d="M532 137 L437 137 L469 337 L61 337 L76 432 L579 432 L532 137 Z " />
<glyph glyph-name="exclamdown" unicode="&#xa1;" horiz-adv-x="236" d="M174 358 Q142 358 123.5 380 Q105 402 110 434 Q115 466 140.5 488 Q166 510 198 510 Q230 510 249 488 Q268 466 263 434 Q258 402 232 380 Q206 358 174 358 Z M226 297 L158 -207 L12 -207 L103 297 L226 297 Z " />
<glyph glyph-name="questiondown" unicode="&#xbf;" horiz-adv-x="429" d="M343 358 Q311 358 292 380 Q273 402 278 434 Q283 466 309 488 Q335 510 367 510 Q399 510 417.5 488 Q436 466 431 434 Q426 402 400.5 380 Q375 358 343 358 Z M226 -216 Q166 -216 123 -198 Q80 -180 54 -149.5 Q28 -119 19 -78 Q10 -37 17 9 Q35 122 160 190 Q178 200 194.5 208 Q211 216 225 227 Q239 238 250.5 254 Q262 270 270 297 L390 297 L386 275 Q381 241 367.5 216.5 Q354 192 333 171.5 Q312 151 283.5 134 Q255 117 219 98 Q193 84 175.5 59.5 Q158 35 154 7 Q150 -15 157 -33.5 Q164 -52 178.5 -65 Q193 -78 214 -85 Q235 -92 260 -92 Q280 -92 295 -89.5 Q310 -87 320 -84 Q331 -80 340 -76 L364 -180 Q332 -197 297 -206.5 Q262 -216 226 -216 Z " />
<glyph glyph-name="quotedblleft" unicode="&#x201c;" horiz-adv-x="446" d="M482 436 L386 436 L346 707 L491 707 L482 436 Z M289 436 L193 436 L153 707 L298 707 L289 436 Z " />
<glyph glyph-name="quotedblright" unicode="&#x201d;" horiz-adv-x="447" d="M187 709 L332 709 L207 438 L111 438 L187 709 Z M382 709 L527 709 L402 438 L306 438 L382 709 Z " />
<glyph glyph-name="adieresis" unicode="&#xe4;" horiz-adv-x="608" d="M642 496 L564 0 L445 0 L439 53 Q404 14 361.5 1 Q319 -12 275 -12 Q222 -12 180.5 8.5 Q139 29 112 64.5 Q85 100 73.5 147.5 Q62 195 71 249 Q80 303 106 350.5 Q132 398 170 433.5 Q208 469 256 489.5 Q304 510 357 510 Q405 510 442.5 495 Q480 480 501 447 L523 496 L642 496 Z M465 247 Q471 286 464.5 312.5 Q458 339 443 355.5 Q428 372 406 379.5 Q384 387 357 387 Q330 387 304.5 376 Q279 365 258.5 346.5 Q238 328 223.5 302.5 Q209 277 205 249 Q200 220 206.5 195 Q213 170 227.5 151.5 Q242 133 264 122 Q286 111 313 111 Q340 111 364.5 119.5 Q389 128 409.5 144.5 Q430 161 444.5 186.5 Q459 212 465 247 Z M543 709 Q575 709 593.5 687 Q612 665 607 633 Q602 601 576.5 578.5 Q551 556 519 556 Q503 556 490 562 Q477 568 468.5 578.5 Q460 589 456 603 Q452 617 454 633 Q459 665 485 687 Q511 709 543 709 Z M301 709 Q333 709 351.5 687 Q370 665 365 633 Q360 601 334.5 578.5 Q309 556 277 556 Q261 556 248 562 Q235 568 226.5 578.5 Q218 589 214 603 Q210 617 212 633 Q217 665 243 687 Q269 709 301 709 Z " />
<glyph glyph-name="Adieresis" unicode="&#xc4;" horiz-adv-x="783" d="M595 709 L779 0 L615 0 L575 152 L274 152 L187 0 L22 0 L430 709 L595 709 Z M539 290 L482 513 L353 290 L539 290 Z M656 897 Q688 897 706.5 875 Q725 853 720 821 Q715 789 689.5 766.5 Q664 744 632 744 Q616 744 603 750 Q590 756 581.5 766.5 Q573 777 569 791 Q565 805 567 821 Q572 853 598 875 Q624 897 656 897 Z M414 897 Q446 897 464.5 875 Q483 853 478 821 Q473 789 447.5 766.5 Q422 744 390 744 Q374 744 361 750 Q348 756 339.5 766.5 Q331 777 327 791 Q323 805 325 821 Q330 853 356 875 Q382 897 414 897 Z " />
<glyph glyph-name="fl" unicode="&#xfb02;" horiz-adv-x="583" d="M500 619 Q486 622 472.5 623 Q459 624 447 624 Q420 624 396.5 618 Q373 612 355.5 602 Q338 592 327 578 Q316 564 313 548 L305 496 L408 496 L389 373 L286 373 L227 0 L90 0 L149 373 L84 373 L95 446 L168 496 L175 541 Q191 642 269 689.5 Q347 737 470 737 Q554 737 653 716 L540 0 L402 0 L500 619 Z " />
<glyph glyph-name="ffi" unicode="&#xfb03;" horiz-adv-x="900" d="M863 0 L725 0 L784 373 L626 373 L567 0 L430 0 L489 373 L293 373 L234 0 L97 0 L156 373 L91 373 L102 446 L175 496 L182 538 Q190 590 211.5 627.5 Q233 665 262.5 689.5 Q292 714 328 725.5 Q364 737 402 737 Q446 737 492 721 L465 620 L432 625 Q425 626 418.5 626.5 Q412 627 406 627 Q368 627 347.5 608.5 Q327 590 321 555 L312 496 L508 496 L515 540 Q523 593 547.5 630.5 Q572 668 606.5 691.5 Q641 715 682.5 726 Q724 737 766 737 Q816 737 861 723 Q906 709 938 684 L887 594 Q860 605 825.5 613.5 Q791 622 758 622 Q720 622 690 607.5 Q660 593 655 557 L645 496 L941 496 L863 0 Z " />
<glyph glyph-name="fi" unicode="&#xfb01;" horiz-adv-x="547" d="M512 0 L374 0 L433 373 L285 373 L226 0 L89 0 L148 373 L83 373 L94 446 L167 496 L174 539 Q182 592 206.5 629.5 Q231 667 265.5 690.5 Q300 714 341.5 725 Q383 736 425 736 Q475 736 520 722 Q565 708 597 683 L545 593 Q519 604 484.5 612.5 Q450 621 417 621 Q379 621 349 606.5 Q319 592 314 556 L304 496 L590 496 L512 0 Z " />
<glyph glyph-name="ffl" unicode="&#xfb04;" horiz-adv-x="927" d="M842 616 Q828 619 815 620 Q802 621 790 621 Q763 621 739.5 615 Q716 609 698.5 599 Q681 589 670 575 Q659 561 656 545 L648 496 L751 496 L732 373 L629 373 L570 0 L433 0 L492 373 L293 373 L234 0 L97 0 L156 373 L91 373 L102 446 L175 496 L182 537 Q190 589 211 626.5 Q232 664 262 688.5 Q292 713 328 724.5 Q364 736 402 736 Q446 736 492 720 L465 619 L432 624 Q424 625 418 625.5 Q412 626 406 626 Q368 626 348 607.5 Q328 589 321 554 L312 496 L511 496 L518 538 Q534 639 612 686.5 Q690 734 813 734 Q897 734 995 713 L883 0 L745 0 L842 616 Z " />
<glyph glyph-name="ff" unicode="&#xfb00;" horiz-adv-x="736" d="M516 538 Q524 590 545.5 627.5 Q567 665 596.5 689.5 Q626 714 662 725.5 Q698 737 736 737 Q780 737 826 721 L799 620 L766 625 Q759 626 752.5 626.5 Q746 627 740 627 Q702 627 681.5 608.5 Q661 590 655 555 L646 496 L779 496 L760 373 L627 373 L568 0 L431 0 L490 373 L291 373 L232 0 L95 0 L154 373 L89 373 L100 446 L173 496 L180 538 Q188 590 209.5 627.5 Q231 665 260.5 689.5 Q290 714 326 725.5 Q362 737 400 737 Q444 737 490 721 L463 620 L430 625 Q423 626 416.5 626.5 Q410 627 404 627 Q366 627 345.5 608.5 Q325 590 319 555 L310 496 L509 496 L516 538 L516 538 Z " />
<glyph glyph-name="ring" unicode="&#x2da;" horiz-adv-x="409" d="M347 801 Q372 801 392 791.5 Q412 782 426 766 Q440 750 446 728.5 Q452 707 448 682 Q444 657 431 635.5 Q418 614 399.5 598 Q381 582 358 572.5 Q335 563 310 563 Q285 563 264.5 572.5 Q244 582 230.5 598 Q217 614 211.5 635.5 Q206 657 210 682 Q214 707 226.5 728.5 Q239 750 257.5 766 Q276 782 299 791.5 Q322 801 347 801 Z M322 643 Q338 643 351 654.5 Q364 666 367 682 Q369 698 360 709 Q351 720 335 720 Q318 720 305 709 Q292 698 290 682 Q287 666 296 654.5 Q305 643 322 643 Z " />
<glyph glyph-name="tilde" unicode="&#x2dc;" horiz-adv-x="833" d="M642 835 Q655 835 670 840.5 Q685 846 699 854 Q713 862 724 870 Q735 878 740 884 L776 830 Q773 827 759.5 812 Q746 797 725.5 780.5 Q705 764 679 750.5 Q653 737 626 737 Q598 737 582 749 Q566 761 553 775.5 Q540 790 527.5 802 Q515 814 495 814 Q470 814 445 800 Q420 786 402 766 Q385 781 376 789 Q367 797 362 801 Q357 805 356 807 Q359 811 371 828 Q383 845 403 864 Q423 883 450.5 898 Q478 913 511 913 Q541 913 560.5 901 Q580 889 594 874 Q608 859 618.5 847 Q629 835 642 835 Z " />
<glyph glyph-name="circumflex" unicode="&#x2c6;" horiz-adv-x="833" d="M491 737 L370 737 L513 872 L644 872 L738 737 L616 737 L570 825 L491 737 Z " />
<glyph glyph-name="caron" unicode="&#x2c7;" horiz-adv-x="833" d="M638 871 L759 871 L617 736 L486 736 L391 871 L513 871 L560 783 L638 871 Z " />
<glyph glyph-name="dotaccent" unicode="&#x2d9;" horiz-adv-x="345" d="M295 750 Q263 750 244 772 Q225 794 230 826 Q233 842 241 856 Q249 870 261.5 880.5 Q274 891 289 897 Q304 903 320 903 Q352 903 370 880.5 Q388 858 383 826 Q378 794 352.5 772 Q327 750 295 750 Z " />
<glyph glyph-name="ogonek" unicode="&#x2db;" horiz-adv-x="297" d="M181 -38 Q172 -46 162.5 -55.5 Q153 -65 144.5 -76.5 Q136 -88 129.5 -99.5 Q123 -111 121 -123 Q119 -134 124.5 -140.5 Q130 -147 139 -150.5 Q148 -154 159 -155 Q170 -156 181 -156 Q189 -156 195 -155.5 Q201 -155 208 -155 L208 -205 Q200 -208 189 -210 Q169 -215 139 -215 Q115 -215 95 -209 Q75 -203 60.5 -191.5 Q46 -180 39.5 -163 Q33 -146 36 -125 Q40 -99 55.5 -78.5 Q71 -58 91 -38 L181 -38 Z " />
<glyph glyph-name="radical" unicode="&#x221a;" horiz-adv-x="659" d="M235 361 L313 110 L704 730 L806 730 L348 0 L244 0 L165 251 L103 151 L25 191 L132 360 L235 361 Z " />
<glyph glyph-name="hungarumlaut" unicode="&#x2dd;" horiz-adv-x="488" d="M337 710 L246 531 L144 531 L186 710 L337 710 Z M551 710 L460 531 L358 531 L400 710 L551 710 Z " />
<glyph glyph-name="Aring" unicode="&#xc5;" horiz-adv-x="801" d="M537 867 Q562 867 582 857.5 Q602 848 615.5 832 Q629 816 635 794.5 Q641 773 637 748 Q634 728 625 710 Q616 692 603 677 L779 0 L615 0 L575 152 L274 152 L187 0 L22 0 L411 676 Q393 706 399 748 Q403 773 415.5 794.5 Q428 816 446.5 832 Q465 848 488.5 857.5 Q512 867 537 867 Z M539 290 L482 513 L353 290 L539 290 Z M512 709 Q528 709 541 720.5 Q554 732 556 748 Q558 764 549 775 Q540 786 524 786 Q507 786 494 775 Q481 764 479 748 Q477 732 486 720.5 Q495 709 512 709 Z " />
<glyph glyph-name="Eacute" unicode="&#xc9;" horiz-adv-x="539" d="M160 709 L603 709 L581 571 L290 571 L270 443 L526 443 L504 305 L248 305 L221 137 L512 137 L491 0 L48 0 L160 709 Z M499 935 L408 756 L306 756 L348 935 L499 935 Z " />
<glyph glyph-name="Ntilde" unicode="&#xd1;" horiz-adv-x="730" d="M644 709 L795 709 L683 0 L539 0 L271 463 L198 0 L47 0 L159 709 L301 709 L570 243 L644 709 Z M574 854 Q587 854 602 859.5 Q617 865 631 873 Q645 881 656 889 Q667 897 672 903 L708 849 Q705 846 691.5 831 Q678 816 657.5 799.5 Q637 783 611 769.5 Q585 756 558 756 Q530 756 514 768 Q498 780 485 794.5 Q472 809 459.5 821 Q447 833 427 833 Q402 833 377 819 Q352 805 334 785 Q317 800 308 808 Q299 816 294 820 Q289 824 288 826 Q291 830 303 847 Q315 864 335 883 Q355 902 382.5 917 Q410 932 443 932 Q473 932 492.5 920 Q512 908 526 893 Q540 878 550.5 866 Q561 854 574 854 Z " />
<glyph glyph-name="aacute" unicode="&#xe1;" horiz-adv-x="608" d="M642 496 L564 0 L445 0 L439 53 Q404 14 361.5 1 Q319 -12 275 -12 Q222 -12 180.5 8.5 Q139 29 112 64.5 Q85 100 73.5 147.5 Q62 195 71 249 Q80 303 106 350.5 Q132 398 170 433.5 Q208 469 256 489.5 Q304 510 357 510 Q405 510 442.5 495 Q480 480 501 447 L523 496 L642 496 Z M465 247 Q471 286 464.5 312.5 Q458 339 443 355.5 Q428 372 406 379.5 Q384 387 357 387 Q330 387 304.5 376 Q279 365 258.5 346.5 Q238 328 223.5 302.5 Q209 277 205 249 Q200 220 206.5 195 Q213 170 227.5 151.5 Q242 133 264 122 Q286 111 313 111 Q340 111 364.5 119.5 Q389 128 409.5 144.5 Q430 161 444.5 186.5 Q459 212 465 247 Z M505 710 L414 531 L312 531 L354 710 L505 710 Z " />
<glyph glyph-name="agrave" unicode="&#xe0;" horiz-adv-x="608" d="M642 496 L564 0 L445 0 L439 53 Q404 14 361.5 1 Q319 -12 275 -12 Q222 -12 180.5 8.5 Q139 29 112 64.5 Q85 100 73.5 147.5 Q62 195 71 249 Q80 303 106 350.5 Q132 398 170 433.5 Q208 469 256 489.5 Q304 510 357 510 Q405 510 442.5 495 Q480 480 501 447 L523 496 L642 496 Z M465 247 Q471 286 464.5 312.5 Q458 339 443 355.5 Q428 372 406 379.5 Q384 387 357 387 Q330 387 304.5 376 Q279 365 258.5 346.5 Q238 328 223.5 302.5 Q209 277 205 249 Q200 220 206.5 195 Q213 170 227.5 151.5 Q242 133 264 122 Q286 111 313 111 Q340 111 364.5 119.5 Q389 128 409.5 144.5 Q430 161 444.5 186.5 Q459 212 465 247 Z M443 710 L429 531 L327 531 L292 710 L443 710 Z " />
<glyph glyph-name="acircumflex" unicode="&#xe2;" horiz-adv-x="608" d="M642 496 L564 0 L445 0 L439 53 Q404 14 361.5 1 Q319 -12 275 -12 Q222 -12 180.5 8.5 Q139 29 112 64.5 Q85 100 73.5 147.5 Q62 195 71 249 Q80 303 106 350.5 Q132 398 170 433.5 Q208 469 256 489.5 Q304 510 357 510 Q405 510 442.5 495 Q480 480 501 447 L523 496 L642 496 Z M465 247 Q471 286 464.5 312.5 Q458 339 443 355.5 Q428 372 406 379.5 Q384 387 357 387 Q330 387 304.5 376 Q279 365 258.5 346.5 Q238 328 223.5 302.5 Q209 277 205 249 Q200 220 206.5 195 Q213 170 227.5 151.5 Q242 133 264 122 Q286 111 313 111 Q340 111 364.5 119.5 Q389 128 409.5 144.5 Q430 161 444.5 186.5 Q459 212 465 247 Z M341 575 L220 575 L363 710 L494 710 L588 575 L466 575 L420 663 L341 575 Z " />
<glyph glyph-name="atilde" unicode="&#xe3;" horiz-adv-x="608" d="M642 496 L564 0 L445 0 L439 53 Q404 14 361.5 1 Q319 -12 275 -12 Q222 -12 180.5 8.5 Q139 29 112 64.5 Q85 100 73.5 147.5 Q62 195 71 249 Q80 303 106 350.5 Q132 398 170 433.5 Q208 469 256 489.5 Q304 510 357 510 Q405 510 442.5 495 Q480 480 501 447 L523 496 L642 496 Z M465 247 Q471 286 464.5 312.5 Q458 339 443 355.5 Q428 372 406 379.5 Q384 387 357 387 Q330 387 304.5 376 Q279 365 258.5 346.5 Q238 328 223.5 302.5 Q209 277 205 249 Q200 220 206.5 195 Q213 170 227.5 151.5 Q242 133 264 122 Q286 111 313 111 Q340 111 364.5 119.5 Q389 128 409.5 144.5 Q430 161 444.5 186.5 Q459 212 465 247 Z M489 659 Q502 659 517 664.5 Q532 670 546 678 Q560 686 571 694 Q582 702 587 708 L623 654 Q620 651 606.5 636 Q593 621 572.5 604.5 Q552 588 526 574.5 Q500 561 473 561 Q445 561 429 573 Q413 585 400 599.5 Q387 614 374.5 626 Q362 638 342 638 Q317 638 292 624 Q267 610 249 590 Q232 605 223 613 Q214 621 209 625 Q204 629 203 631 Q206 635 218 652 Q230 669 250 688 Q270 707 297.5 722 Q325 737 358 737 Q388 737 407.5 725 Q427 713 441 698 Q455 683 465.5 671 Q476 659 489 659 Z " />
<glyph glyph-name="aring" unicode="&#xe5;" horiz-adv-x="608" d="M642 496 L564 0 L445 0 L439 53 Q404 14 361.5 1 Q319 -12 275 -12 Q222 -12 180.5 8.5 Q139 29 112 64.5 Q85 100 73.5 147.5 Q62 195 71 249 Q80 303 106 350.5 Q132 398 170 433.5 Q208 469 256 489.5 Q304 510 357 510 Q405 510 442.5 495 Q480 480 501 447 L523 496 L642 496 Z M465 247 Q471 286 464.5 312.5 Q458 339 443 355.5 Q428 372 406 379.5 Q384 387 357 387 Q330 387 304.5 376 Q279 365 258.5 346.5 Q238 328 223.5 302.5 Q209 277 205 249 Q200 220 206.5 195 Q213 170 227.5 151.5 Q242 133 264 122 Q286 111 313 111 Q340 111 364.5 119.5 Q389 128 409.5 144.5 Q430 161 444.5 186.5 Q459 212 465 247 Z M438 801 Q463 801 483 791.5 Q503 782 517 766 Q531 750 537 728.5 Q543 707 539 682 Q535 657 522 635.5 Q509 614 490.5 598 Q472 582 449 572.5 Q426 563 401 563 Q376 563 355.5 572.5 Q335 582 321.5 598 Q308 614 302.5 635.5 Q297 657 301 682 Q305 707 317.5 728.5 Q330 750 348.5 766 Q367 782 390 791.5 Q413 801 438 801 Z M413 643 Q429 643 442 654.5 Q455 666 458 682 Q460 698 451 709 Q442 720 426 720 Q409 720 396 709 Q383 698 381 682 Q378 666 387 654.5 Q396 643 413 643 Z " />
<glyph glyph-name="eacute" unicode="&#xe9;" horiz-adv-x="595" d="M370 510 Q426 510 468.5 487.5 Q511 465 538 428.5 Q565 392 576 344.5 Q587 297 579 247 Q576 231 571.5 215 Q567 199 560 183 L206 183 Q220 149 254 125.5 Q288 102 331 102 Q374 102 407.5 109 Q441 116 472 127 L504 42 Q463 16 413.5 2 Q364 -12 310 -12 Q251 -12 203 8.5 Q155 29 122.5 64 Q90 99 75.5 147 Q61 195 70 249 Q78 302 106 349.5 Q134 397 174.5 432.5 Q215 468 265.5 489 Q316 510 370 510 Z M448 290 Q443 333 416.5 360 Q390 387 351 387 Q311 387 274 360 Q237 333 218 290 L448 290 Z M492 710 L401 531 L299 531 L341 710 L492 710 Z " />
<glyph glyph-name="egrave" unicode="&#xe8;" horiz-adv-x="595" d="M370 510 Q426 510 468.5 487.5 Q511 465 538 428.5 Q565 392 576 344.5 Q587 297 579 247 Q576 231 571.5 215 Q567 199 560 183 L206 183 Q220 149 254 125.5 Q288 102 331 102 Q374 102 407.5 109 Q441 116 472 127 L504 42 Q463 16 413.5 2 Q364 -12 310 -12 Q251 -12 203 8.5 Q155 29 122.5 64 Q90 99 75.5 147 Q61 195 70 249 Q78 302 106 349.5 Q134 397 174.5 432.5 Q215 468 265.5 489 Q316 510 370 510 Z M448 290 Q443 333 416.5 360 Q390 387 351 387 Q311 387 274 360 Q237 333 218 290 L448 290 Z M478 710 L464 531 L362 531 L327 710 L478 710 Z " />
<glyph glyph-name="ecircumflex" unicode="&#xea;" horiz-adv-x="595" d="M370 510 Q426 510 468.5 487.5 Q511 465 538 428.5 Q565 392 576 344.5 Q587 297 579 247 Q576 231 571.5 215 Q567 199 560 183 L206 183 Q220 149 254 125.5 Q288 102 331 102 Q374 102 407.5 109 Q441 116 472 127 L504 42 Q463 16 413.5 2 Q364 -12 310 -12 Q251 -12 203 8.5 Q155 29 122.5 64 Q90 99 75.5 147 Q61 195 70 249 Q78 302 106 349.5 Q134 397 174.5 432.5 Q215 468 265.5 489 Q316 510 370 510 Z M448 290 Q443 333 416.5 360 Q390 387 351 387 Q311 387 274 360 Q237 333 218 290 L448 290 Z M326 573 L205 573 L348 708 L479 708 L573 573 L451 573 L405 661 L326 573 Z " />
<glyph glyph-name="edieresis" unicode="&#xeb;" horiz-adv-x="595" d="M370 510 Q426 510 468.5 487.5 Q511 465 538 428.5 Q565 392 576 344.5 Q587 297 579 247 Q576 231 571.5 215 Q567 199 560 183 L206 183 Q220 149 254 125.5 Q288 102 331 102 Q374 102 407.5 109 Q441 116 472 127 L504 42 Q463 16 413.5 2 Q364 -12 310 -12 Q251 -12 203 8.5 Q155 29 122.5 64 Q90 99 75.5 147 Q61 195 70 249 Q78 302 106 349.5 Q134 397 174.5 432.5 Q215 468 265.5 489 Q316 510 370 510 Z M448 290 Q443 333 416.5 360 Q390 387 351 387 Q311 387 274 360 Q237 333 218 290 L448 290 Z M530 709 Q562 709 580.5 687 Q599 665 594 633 Q589 601 563.5 578.5 Q538 556 506 556 Q490 556 477 562 Q464 568 455.5 578.5 Q447 589 443 603 Q439 617 441 633 Q446 665 472 687 Q498 709 530 709 Z M288 709 Q320 709 338.5 687 Q357 665 352 633 Q347 601 321.5 578.5 Q296 556 264 556 Q248 556 235 562 Q222 568 213.5 578.5 Q205 589 201 603 Q197 617 199 633 Q204 665 230 687 Q256 709 288 709 Z " />
<glyph glyph-name="iacute" unicode="&#xed;" horiz-adv-x="262" d="M200 0 L62 0 L140 496 L278 496 L200 0 Z M358 710 L267 531 L165 531 L207 710 L358 710 Z " />
<glyph glyph-name="igrave" unicode="&#xec;" horiz-adv-x="262" d="M200 0 L62 0 L140 496 L278 496 L200 0 Z M280 710 L266 531 L164 531 L129 710 L280 710 Z " />
<glyph glyph-name="icircumflex" unicode="&#xee;" horiz-adv-x="262" d="M200 0 L62 0 L140 496 L278 496 L200 0 Z M159 573 L38 573 L181 708 L312 708 L406 573 L284 573 L238 661 L159 573 Z " />
<glyph glyph-name="idieresis" unicode="&#xef;" horiz-adv-x="262" d="M200 0 L62 0 L140 496 L278 496 L200 0 Z M365 708 Q397 708 415.5 686 Q434 664 429 632 Q424 600 398.5 577.5 Q373 555 341 555 Q325 555 312 561 Q299 567 290.5 577.5 Q282 588 278 602 Q274 616 276 632 Q281 664 307 686 Q333 708 365 708 Z M123 708 Q155 708 173.5 686 Q192 664 187 632 Q182 600 156.5 577.5 Q131 555 99 555 Q83 555 70 561 Q57 567 48.5 577.5 Q40 588 36 602 Q32 616 34 632 Q39 664 65 686 Q91 708 123 708 Z " />
<glyph glyph-name="ntilde" unicode="&#xf1;" horiz-adv-x="541" d="M381 496 Q409 496 442 488 Q475 480 501.5 458 Q528 436 542 397 Q556 358 546 296 L500 0 L361 0 L407 291 Q410 314 405 330 Q400 346 389.5 355.5 Q379 365 363.5 369.5 Q348 374 332 374 Q319 374 303 369.5 Q287 365 272 355 Q257 345 245 329 Q233 313 230 291 L184 0 L46 0 L124 496 L242 496 L256 458 Q283 475 314.5 485.5 Q346 496 381 496 Z M449 659 Q462 659 477 664.5 Q492 670 506 678 Q520 686 531 694 Q542 702 547 708 L583 654 Q580 651 566.5 636 Q553 621 532.5 604.5 Q512 588 486 574.5 Q460 561 433 561 Q405 561 389 573 Q373 585 360 599.5 Q347 614 334.5 626 Q322 638 302 638 Q277 638 252 624 Q227 610 209 590 Q192 605 183 613 Q174 621 169 625 Q164 629 163 631 Q166 635 178 652 Q190 669 210 688 Q230 707 257.5 722 Q285 737 318 737 Q348 737 367.5 725 Q387 713 401 698 Q415 683 425.5 671 Q436 659 449 659 Z " />
<glyph glyph-name="oacute" unicode="&#xf3;" horiz-adv-x="579" d="M370 510 Q423 510 467 489.5 Q511 469 540.5 433.5 Q570 398 583 350.5 Q596 303 587 249 Q578 195 550.5 147.5 Q523 100 482.5 64.5 Q442 29 391.5 8.5 Q341 -12 288 -12 Q234 -12 190 8.5 Q146 29 116.5 64.5 Q87 100 74 147.5 Q61 195 70 249 Q79 303 106.5 350.5 Q134 398 175 433.5 Q216 469 266 489.5 Q316 510 370 510 Z M307 109 Q332 109 355 119 Q378 129 397 146.5 Q416 164 429.5 188.5 Q443 213 448 243 Q453 273 447.5 299 Q442 325 429 344.5 Q416 364 396 375.5 Q376 387 351 387 Q326 387 302 375.5 Q278 364 258.5 344.5 Q239 325 225.5 299 Q212 273 207 243 Q202 213 207.5 188.5 Q213 164 227 146.5 Q241 129 261.5 119 Q282 109 307 109 Z M484 710 L393 531 L291 531 L333 710 L484 710 Z " />
<glyph glyph-name="ograve" unicode="&#xf2;" horiz-adv-x="579" d="M370 510 Q423 510 467 489.5 Q511 469 540.5 433.5 Q570 398 583 350.5 Q596 303 587 249 Q578 195 550.5 147.5 Q523 100 482.5 64.5 Q442 29 391.5 8.5 Q341 -12 288 -12 Q234 -12 190 8.5 Q146 29 116.5 64.5 Q87 100 74 147.5 Q61 195 70 249 Q79 303 106.5 350.5 Q134 398 175 433.5 Q216 469 266 489.5 Q316 510 370 510 Z M307 109 Q332 109 355 119 Q378 129 397 146.5 Q416 164 429.5 188.5 Q443 213 448 243 Q453 273 447.5 299 Q442 325 429 344.5 Q416 364 396 375.5 Q376 387 351 387 Q326 387 302 375.5 Q278 364 258.5 344.5 Q239 325 225.5 299 Q212 273 207 243 Q202 213 207.5 188.5 Q213 164 227 146.5 Q241 129 261.5 119 Q282 109 307 109 Z M470 710 L456 531 L354 531 L319 710 L470 710 Z " />
<glyph glyph-name="ocircumflex" unicode="&#xf4;" horiz-adv-x="579" d="M370 510 Q423 510 467 489.5 Q511 469 540.5 433.5 Q570 398 583 350.5 Q596 303 587 249 Q578 195 550.5 147.5 Q523 100 482.5 64.5 Q442 29 391.5 8.5 Q341 -12 288 -12 Q234 -12 190 8.5 Q146 29 116.5 64.5 Q87 100 74 147.5 Q61 195 70 249 Q79 303 106.5 350.5 Q134 398 175 433.5 Q216 469 266 489.5 Q316 510 370 510 Z M307 109 Q332 109 355 119 Q378 129 397 146.5 Q416 164 429.5 188.5 Q443 213 448 243 Q453 273 447.5 299 Q442 325 429 344.5 Q416 364 396 375.5 Q376 387 351 387 Q326 387 302 375.5 Q278 364 258.5 344.5 Q239 325 225.5 299 Q212 273 207 243 Q202 213 207.5 188.5 Q213 164 227 146.5 Q241 129 261.5 119 Q282 109 307 109 Z M318 574 L197 574 L340 709 L471 709 L565 574 L443 574 L397 662 L318 574 Z " />
<glyph glyph-name="otilde" unicode="&#xf5;" horiz-adv-x="579" d="M370 510 Q423 510 467 489.5 Q511 469 540.5 433.5 Q570 398 583 350.5 Q596 303 587 249 Q578 195 550.5 147.5 Q523 100 482.5 64.5 Q442 29 391.5 8.5 Q341 -12 288 -12 Q234 -12 190 8.5 Q146 29 116.5 64.5 Q87 100 74 147.5 Q61 195 70 249 Q79 303 106.5 350.5 Q134 398 175 433.5 Q216 469 266 489.5 Q316 510 370 510 Z M307 109 Q332 109 355 119 Q378 129 397 146.5 Q416 164 429.5 188.5 Q443 213 448 243 Q453 273 447.5 299 Q442 325 429 344.5 Q416 364 396 375.5 Q376 387 351 387 Q326 387 302 375.5 Q278 364 258.5 344.5 Q239 325 225.5 299 Q212 273 207 243 Q202 213 207.5 188.5 Q213 164 227 146.5 Q241 129 261.5 119 Q282 109 307 109 Z M468 659 Q481 659 496 664.5 Q511 670 525 678 Q539 686 550 694 Q561 702 566 708 L602 654 Q599 651 585.5 636 Q572 621 551.5 604.5 Q531 588 505 574.5 Q479 561 452 561 Q424 561 408 573 Q392 585 379 599.5 Q366 614 353.5 626 Q341 638 321 638 Q296 638 271 624 Q246 610 228 590 Q211 605 202 613 Q193 621 188 625 Q183 629 182 631 Q185 635 197 652 Q209 669 229 688 Q249 707 276.5 722 Q304 737 337 737 Q367 737 386.5 725 Q406 713 420 698 Q434 683 444.5 671 Q455 659 468 659 Z " />
<glyph glyph-name="uacute" unicode="&#xfa;" horiz-adv-x="543" d="M437 496 L575 496 L497 0 L379 0 L365 38 Q338 21 306 10.5 Q274 0 239 0 Q212 0 179 8 Q146 16 119 38 Q92 60 77.5 99 Q63 138 73 200 L120 496 L259 496 L213 205 Q209 182 214 166 Q219 150 230 140.5 Q241 131 256.5 126.5 Q272 122 289 122 Q302 122 318 126.5 Q334 131 349 141 Q364 151 376 167 Q388 183 391 205 L437 496 Z M466 710 L375 531 L273 531 L315 710 L466 710 Z " />
<glyph glyph-name="ugrave" unicode="&#xf9;" horiz-adv-x="543" d="M437 496 L575 496 L497 0 L379 0 L365 38 Q338 21 306 10.5 Q274 0 239 0 Q212 0 179 8 Q146 16 119 38 Q92 60 77.5 99 Q63 138 73 200 L120 496 L259 496 L213 205 Q209 182 214 166 Q219 150 230 140.5 Q241 131 256.5 126.5 Q272 122 289 122 Q302 122 318 126.5 Q334 131 349 141 Q364 151 376 167 Q388 183 391 205 L437 496 Z M452 710 L438 531 L336 531 L301 710 L452 710 Z " />
<glyph glyph-name="ucircumflex" unicode="&#xfb;" horiz-adv-x="543" d="M437 496 L575 496 L497 0 L379 0 L365 38 Q338 21 306 10.5 Q274 0 239 0 Q212 0 179 8 Q146 16 119 38 Q92 60 77.5 99 Q63 138 73 200 L120 496 L259 496 L213 205 Q209 182 214 166 Q219 150 230 140.5 Q241 131 256.5 126.5 Q272 122 289 122 Q302 122 318 126.5 Q334 131 349 141 Q364 151 376 167 Q388 183 391 205 L437 496 Z M300 573 L179 573 L322 708 L453 708 L547 573 L425 573 L379 661 L300 573 Z " />
<glyph glyph-name="Agrave" unicode="&#xc0;" horiz-adv-x="801" d="M595 709 L779 0 L615 0 L575 152 L274 152 L187 0 L22 0 L430 709 L595 709 Z M539 290 L482 513 L353 290 L539 290 Z M588 935 L574 756 L472 756 L437 935 L588 935 Z " />
<glyph glyph-name="Atilde" unicode="&#xc3;" horiz-adv-x="801" d="M595 709 L779 0 L615 0 L575 152 L274 152 L187 0 L22 0 L430 709 L595 709 Z M539 290 L482 513 L353 290 L539 290 Z M610 854 Q623 854 638 859.5 Q653 865 667 873 Q681 881 692 889 Q703 897 708 903 L744 849 Q741 846 727.5 831 Q714 816 693.5 799.5 Q673 783 647 769.5 Q621 756 594 756 Q566 756 550 768 Q534 780 521 794.5 Q508 809 495.5 821 Q483 833 463 833 Q438 833 413 819 Q388 805 370 785 Q353 800 344 808 Q335 816 330 820 Q325 824 324 826 Q327 830 339 847 Q351 864 371 883 Q391 902 418.5 917 Q446 932 479 932 Q509 932 528.5 920 Q548 908 562 893 Q576 878 586.5 866 Q597 854 610 854 Z " />
<glyph glyph-name="Otilde" unicode="&#xd5;" horiz-adv-x="765" d="M495 719 Q567 719 626.5 690 Q686 661 725.5 611 Q765 561 782.5 495 Q800 429 788 354 Q776 280 737.5 213 Q699 146 643.5 96 Q588 46 519.5 16.5 Q451 -13 379 -13 Q307 -13 248 16.5 Q189 46 149.5 96 Q110 146 93.5 213 Q77 280 89 354 Q101 429 138.5 495 Q176 561 231 611 Q286 661 354.5 690 Q423 719 495 719 Z M403 138 Q444 138 483 155 Q522 172 553.5 201.5 Q585 231 607 270 Q629 309 636 354 Q643 399 634 438.5 Q625 478 602.5 507.5 Q580 537 546.5 554 Q513 571 472 571 Q431 571 392.5 554 Q354 537 322.5 507.5 Q291 478 269 438.5 Q247 399 240 354 Q233 309 242 270 Q251 231 273.5 201.5 Q296 172 329 155 Q362 138 403 138 Z M592 854 Q605 854 620 859.5 Q635 865 649 873 Q663 881 674 889 Q685 897 690 903 L726 849 Q723 846 709.5 831 Q696 816 675.5 799.5 Q655 783 629 769.5 Q603 756 576 756 Q548 756 532 768 Q516 780 503 794.5 Q490 809 477.5 821 Q465 833 445 833 Q420 833 395 819 Q370 805 352 785 Q335 800 326 808 Q317 816 312 820 Q307 824 306 826 Q309 830 321 847 Q333 864 353 883 Q373 902 400.5 917 Q428 932 461 932 Q491 932 510.5 920 Q530 908 544 893 Q558 878 568.5 866 Q579 854 592 854 Z " />
<glyph glyph-name="Acircumflex" unicode="&#xc2;" horiz-adv-x="801" d="M595 709 L779 0 L615 0 L575 152 L274 152 L187 0 L22 0 L430 709 L595 709 Z M539 290 L482 513 L353 290 L539 290 Z M458 756 L337 756 L480 891 L611 891 L705 756 L583 756 L537 844 L458 756 Z " />
<glyph glyph-name="Ecircumflex" unicode="&#xca;" horiz-adv-x="539" d="M160 709 L603 709 L581 571 L290 571 L270 443 L526 443 L504 305 L248 305 L221 137 L512 137 L491 0 L48 0 L160 709 Z M327 756 L206 756 L349 891 L480 891 L574 756 L452 756 L406 844 L327 756 Z " />
<glyph glyph-name="Aacute" unicode="&#xc1;" horiz-adv-x="801" d="M595 709 L779 0 L615 0 L575 152 L274 152 L187 0 L22 0 L430 709 L595 709 Z M539 290 L482 513 L353 290 L539 290 Z M664 935 L573 756 L471 756 L513 935 L664 935 Z " />
<glyph glyph-name="Edieresis" unicode="&#xcb;" horiz-adv-x="539" d="M160 709 L603 709 L581 571 L290 571 L270 443 L526 443 L504 305 L248 305 L221 137 L512 137 L491 0 L48 0 L160 709 Z M534 909 Q566 909 584.5 887 Q603 865 598 833 Q593 801 567.5 778.5 Q542 756 510 756 Q494 756 481 762 Q468 768 459.5 778.5 Q451 789 447 803 Q443 817 445 833 Q450 865 476 887 Q502 909 534 909 Z M292 909 Q324 909 342.5 887 Q361 865 356 833 Q351 801 325.5 778.5 Q300 756 268 756 Q252 756 239 762 Q226 768 217.5 778.5 Q209 789 205 803 Q201 817 203 833 Q208 865 234 887 Q260 909 292 909 Z " />
<glyph glyph-name="Egrave" unicode="&#xc8;" horiz-adv-x="539" d="M160 709 L603 709 L581 571 L290 571 L270 443 L526 443 L504 305 L248 305 L221 137 L512 137 L491 0 L48 0 L160 709 Z M485 935 L471 756 L369 756 L334 935 L485 935 Z " />
<glyph glyph-name="Iacute" unicode="&#xcd;" horiz-adv-x="351" d="M417 709 L397 581 L344 581 L272 127 L325 127 L305 0 L47 0 L67 127 L120 127 L192 581 L139 581 L159 709 L417 709 Z M442 935 L351 756 L249 756 L291 935 L442 935 Z " />
<glyph glyph-name="Icircumflex" unicode="&#xce;" horiz-adv-x="351" d="M417 709 L397 581 L344 581 L272 127 L325 127 L305 0 L47 0 L67 127 L120 127 L192 581 L139 581 L159 709 L417 709 Z M233 756 L112 756 L255 891 L386 891 L480 756 L358 756 L312 844 L233 756 Z " />
<glyph glyph-name="Idieresis" unicode="&#xcf;" horiz-adv-x="351" d="M417 709 L397 581 L344 581 L272 127 L325 127 L305 0 L47 0 L67 127 L120 127 L192 581 L139 581 L159 709 L417 709 Z M444 909 Q476 909 494.5 887 Q513 865 508 833 Q503 801 477.5 778.5 Q452 756 420 756 Q404 756 391 762 Q378 768 369.5 778.5 Q361 789 357 803 Q353 817 355 833 Q360 865 386 887 Q412 909 444 909 Z M202 909 Q234 909 252.5 887 Q271 865 266 833 Q261 801 235.5 778.5 Q210 756 178 756 Q162 756 149 762 Q136 768 127.5 778.5 Q119 789 115 803 Q111 817 113 833 Q118 865 144 887 Q170 909 202 909 Z " />
<glyph glyph-name="Igrave" unicode="&#xcc;" horiz-adv-x="351" d="M417 709 L397 581 L344 581 L272 127 L325 127 L305 0 L47 0 L67 127 L120 127 L192 581 L139 581 L159 709 L417 709 Z M362 935 L348 756 L246 756 L211 935 L362 935 Z " />
<glyph glyph-name="Oacute" unicode="&#xd3;" horiz-adv-x="765" d="M495 719 Q567 719 626.5 690 Q686 661 725.5 611 Q765 561 782.5 495 Q800 429 788 354 Q776 280 737.5 213 Q699 146 643.5 96 Q588 46 519.5 16.5 Q451 -13 379 -13 Q307 -13 248 16.5 Q189 46 149.5 96 Q110 146 93.5 213 Q77 280 89 354 Q101 429 138.5 495 Q176 561 231 611 Q286 661 354.5 690 Q423 719 495 719 Z M403 138 Q444 138 483 155 Q522 172 553.5 201.5 Q585 231 607 270 Q629 309 636 354 Q643 399 634 438.5 Q625 478 602.5 507.5 Q580 537 546.5 554 Q513 571 472 571 Q431 571 392.5 554 Q354 537 322.5 507.5 Q291 478 269 438.5 Q247 399 240 354 Q233 309 242 270 Q251 231 273.5 201.5 Q296 172 329 155 Q362 138 403 138 Z M612 935 L521 756 L419 756 L461 935 L612 935 Z " />
<glyph glyph-name="Ocircumflex" unicode="&#xd4;" horiz-adv-x="765" d="M495 719 Q567 719 626.5 690 Q686 661 725.5 611 Q765 561 782.5 495 Q800 429 788 354 Q776 280 737.5 213 Q699 146 643.5 96 Q588 46 519.5 16.5 Q451 -13 379 -13 Q307 -13 248 16.5 Q189 46 149.5 96 Q110 146 93.5 213 Q77 280 89 354 Q101 429 138.5 495 Q176 561 231 611 Q286 661 354.5 690 Q423 719 495 719 Z M403 138 Q444 138 483 155 Q522 172 553.5 201.5 Q585 231 607 270 Q629 309 636 354 Q643 399 634 438.5 Q625 478 602.5 507.5 Q580 537 546.5 554 Q513 571 472 571 Q431 571 392.5 554 Q354 537 322.5 507.5 Q291 478 269 438.5 Q247 399 240 354 Q233 309 242 270 Q251 231 273.5 201.5 Q296 172 329 155 Q362 138 403 138 Z M440 756 L319 756 L462 891 L593 891 L687 756 L565 756 L519 844 L440 756 Z " />
<glyph glyph-name="Ydieresis" unicode="&#x178;" horiz-adv-x="693" d="M604 709 L787 709 L474 332 L422 0 L271 0 L323 332 L130 709 L313 709 L424 491 L604 709 Z M612 909 Q644 909 662.5 887 Q681 865 676 833 Q671 801 645.5 778.5 Q620 756 588 756 Q572 756 559 762 Q546 768 537.5 778.5 Q529 789 525 803 Q521 817 523 833 Q528 865 554 887 Q580 909 612 909 Z M370 909 Q402 909 420.5 887 Q439 865 434 833 Q429 801 403.5 778.5 Q378 756 346 756 Q330 756 317 762 Q304 768 295.5 778.5 Q287 789 283 803 Q279 817 281 833 Q286 865 312 887 Q338 909 370 909 Z " />
<glyph glyph-name="ydieresis" unicode="&#xff;" horiz-adv-x="591" d="M506 496 L657 496 L234 -198 L83 -198 L249 75 L106 496 L260 496 L348 237 L506 496 Z M537 709 Q569 709 587.5 687 Q606 665 601 633 Q596 601 570.5 578.5 Q545 556 513 556 Q497 556 484 562 Q471 568 462.5 578.5 Q454 589 450 603 Q446 617 448 633 Q453 665 479 687 Q505 709 537 709 Z M295 709 Q327 709 345.5 687 Q364 665 359 633 Q354 601 328.5 578.5 Q303 556 271 556 Q255 556 242 562 Q229 568 220.5 578.5 Q212 589 208 603 Q204 617 206 633 Q211 665 237 687 Q263 709 295 709 Z " />
<glyph glyph-name="Ugrave" unicode="&#xd9;" horiz-adv-x="640" d="M493 286 Q495 299 499 324.5 Q503 350 508 382 Q513 414 519 451 Q525 488 531 524 Q544 609 560 709 L711 709 Q693 596 678 503 Q672 463 665.5 423.5 Q659 384 653.5 350 Q648 316 644 291 Q640 266 639 256 Q631 203 601 154 Q571 105 527.5 68 Q484 31 429.5 9 Q375 -13 317 -13 Q260 -13 213 9 Q166 31 134 68 Q102 105 88 154 Q74 203 82 256 Q84 267 88 292.5 Q92 318 97.5 352 Q103 386 109.5 425.5 Q116 465 122 505 Q137 598 154 709 L305 709 Q289 605 275 519 Q269 482 263 445 Q257 408 252 376.5 Q247 345 243 321 Q239 297 238 286 Q233 256 238.5 229.5 Q244 203 258 182.5 Q272 162 293.5 150 Q315 138 341 138 Q368 138 393 150 Q418 162 438.5 182.5 Q459 203 473.5 229.5 Q488 256 493 286 Z M535 935 L521 756 L419 756 L384 935 L535 935 Z " />
<glyph glyph-name="Ucircumflex" unicode="&#xdb;" horiz-adv-x="640" d="M493 286 Q495 299 499 324.5 Q503 350 508 382 Q513 414 519 451 Q525 488 531 524 Q544 609 560 709 L711 709 Q693 596 678 503 Q672 463 665.5 423.5 Q659 384 653.5 350 Q648 316 644 291 Q640 266 639 256 Q631 203 601 154 Q571 105 527.5 68 Q484 31 429.5 9 Q375 -13 317 -13 Q260 -13 213 9 Q166 31 134 68 Q102 105 88 154 Q74 203 82 256 Q84 267 88 292.5 Q92 318 97.5 352 Q103 386 109.5 425.5 Q116 465 122 505 Q137 598 154 709 L305 709 Q289 605 275 519 Q269 482 263 445 Q257 408 252 376.5 Q247 345 243 321 Q239 297 238 286 Q233 256 238.5 229.5 Q244 203 258 182.5 Q272 162 293.5 150 Q315 138 341 138 Q368 138 393 150 Q418 162 438.5 182.5 Q459 203 473.5 229.5 Q488 256 493 286 Z M377 756 L256 756 L399 891 L530 891 L624 756 L502 756 L456 844 L377 756 Z " />
<glyph glyph-name="Uacute" unicode="&#xda;" horiz-adv-x="640" d="M493 286 Q495 299 499 324.5 Q503 350 508 382 Q513 414 519 451 Q525 488 531 524 Q544 609 560 709 L711 709 Q693 596 678 503 Q672 463 665.5 423.5 Q659 384 653.5 350 Q648 316 644 291 Q640 266 639 256 Q631 203 601 154 Q571 105 527.5 68 Q484 31 429.5 9 Q375 -13 317 -13 Q260 -13 213 9 Q166 31 134 68 Q102 105 88 154 Q74 203 82 256 Q84 267 88 292.5 Q92 318 97.5 352 Q103 386 109.5 425.5 Q116 465 122 505 Q137 598 154 709 L305 709 Q289 605 275 519 Q269 482 263 445 Q257 408 252 376.5 Q247 345 243 321 Q239 297 238 286 Q233 256 238.5 229.5 Q244 203 258 182.5 Q272 162 293.5 150 Q315 138 341 138 Q368 138 393 150 Q418 162 438.5 182.5 Q459 203 473.5 229.5 Q488 256 493 286 Z M549 935 L458 756 L356 756 L398 935 L549 935 Z " />
<glyph glyph-name="Ograve" unicode="&#xd2;" horiz-adv-x="765" d="M495 719 Q567 719 626.5 690 Q686 661 725.5 611 Q765 561 782.5 495 Q800 429 788 354 Q776 280 737.5 213 Q699 146 643.5 96 Q588 46 519.5 16.5 Q451 -13 379 -13 Q307 -13 248 16.5 Q189 46 149.5 96 Q110 146 93.5 213 Q77 280 89 354 Q101 429 138.5 495 Q176 561 231 611 Q286 661 354.5 690 Q423 719 495 719 Z M403 138 Q444 138 483 155 Q522 172 553.5 201.5 Q585 231 607 270 Q629 309 636 354 Q643 399 634 438.5 Q625 478 602.5 507.5 Q580 537 546.5 554 Q513 571 472 571 Q431 571 392.5 554 Q354 537 322.5 507.5 Q291 478 269 438.5 Q247 399 240 354 Q233 309 242 270 Q251 231 273.5 201.5 Q296 172 329 155 Q362 138 403 138 Z M598 935 L584 756 L482 756 L447 935 L598 935 Z " />
<glyph glyph-name="s_t" unicode="&#xfb06;" horiz-adv-x="809" d="M673 183 Q668 148 686.5 129 Q705 110 740 110 Q753 110 767 112.5 Q781 115 798 121 L779 5 Q753 -3 724 -8.5 Q695 -14 667 -14 Q635 -14 607 -6 Q579 2 559.5 21.5 Q540 41 531.5 73.5 Q523 106 531 154 L566 373 L495 373 L509 466 L585 496 L592 537 Q597 574 583 601.5 Q569 629 535 629 Q493 629 466.5 601 Q440 573 434 535 Q431 517 431 497.5 Q431 478 433 460 Q435 442 438 426 Q441 410 444 398 L446 387 L333 351 Q330 369 313 380 Q296 391 275 391 Q254 391 239 377 Q224 363 222 349 Q220 338 224 330.5 Q228 323 235.5 317.5 Q243 312 252.5 309.5 Q262 307 270 307 Q369 289 405.5 250.5 Q442 212 432 149 Q427 116 406.5 87 Q386 58 356 36 Q326 14 288 1.5 Q250 -11 209 -11 Q178 -11 150 -3 Q122 5 99 19 Q76 33 60.5 52.5 Q45 72 40 96 Q64 107 94 120.5 Q124 134 147 145 Q154 130 171 117.5 Q188 105 221 105 Q255 105 273.5 121 Q292 137 294 151 Q295 160 288 166.5 Q281 173 270.5 178.5 Q260 184 248.5 187 Q237 190 231 191 Q171 202 140 222.5 Q109 243 96 265.5 Q83 288 83.5 309 Q84 330 86 344 Q91 377 109.5 406.5 Q128 436 155.5 458.5 Q183 481 218 494.5 Q253 508 291 508 L296 508 Q296 513 296.5 518.5 Q297 524 298 530 Q304 568 321.5 609 Q339 650 370 684 Q401 718 447 740 Q493 762 556 762 Q610 762 646.5 744.5 Q683 727 704 696 Q725 665 731 624 Q737 583 730 537 L723 496 L857 496 L838 373 L704 373 L673 183 L673 183 Z " />
<glyph glyph-name="ae" unicode="&#xe6;" horiz-adv-x="897" d="M693 514 Q749 514 791.5 491.5 Q834 469 861 432.5 Q888 396 898.5 348.5 Q909 301 901 251 Q899 235 894 219 Q889 203 883 187 L529 187 Q543 153 576.5 129.5 Q610 106 653 106 Q696 106 730 113 Q764 120 794 131 L827 46 Q785 20 735.5 6 Q686 -8 632 -8 Q570 -8 520.5 14.5 Q471 37 439 75 Q409 48 385 32 Q361 16 338 8 Q315 0 290.5 -3 Q266 -6 235 -7 Q196 -8 164 -2 Q132 4 108.5 18.5 Q85 33 73 57.5 Q61 82 63 118 Q65 154 81 184.5 Q97 215 123.5 237.5 Q150 260 183.5 274.5 Q217 289 255 293 L304 298 Q338 301 358.5 305 Q379 309 389.5 314.5 Q400 320 403.5 326.5 Q407 333 409 341 Q413 368 393 383.5 Q373 399 328 399 Q293 399 266 384.5 Q239 370 204 339 L121 395 Q181 461 239.5 487.5 Q298 514 361 514 Q378 514 399 511 Q420 508 441 500.5 Q462 493 481 481.5 Q500 470 515 452 Q553 481 599 497.5 Q645 514 693 514 Z M771 294 Q766 337 739 364 Q712 391 673 391 Q633 391 596.5 364 Q560 337 541 294 L771 294 Z M389 213 Q368 211 348 208 Q331 206 311 204 Q291 202 274 200 Q236 195 219.5 176.5 Q203 158 203 143 Q203 123 219 110.5 Q235 98 268 100 Q281 101 299.5 105.5 Q318 110 336 120.5 Q354 131 367.5 147 Q381 163 385 187 L389 213 Z " />
<glyph glyph-name="dagger" unicode="&#x2020;" horiz-adv-x="388" d="M446 416 L305 416 L214 -160 L120 -160 L211 416 L72 416 L87 510 L226 510 L265 756 L359 756 L320 510 L461 510 L446 416 Z " />
<glyph glyph-name="daggerdbl" unicode="&#x2021;" horiz-adv-x="443" d="M87 496 L252 496 L293 756 L387 756 L346 496 L513 496 L498 401 L331 401 L300 204 L467 204 L452 109 L285 109 L237 -191 L143 -191 L191 109 L26 109 L41 204 L206 204 L237 401 L72 401 L87 496 Z " />
<glyph glyph-name="oe" unicode="&#x153;" horiz-adv-x="960" d="M754 510 Q810 510 852.5 487.5 Q895 465 922 428.5 Q949 392 960 344.5 Q971 297 963 247 Q960 231 955.5 215 Q951 199 944 183 L590 183 Q604 149 638 125.5 Q672 102 715 102 Q758 102 791.5 109 Q825 116 856 127 L888 42 Q847 16 797.5 2 Q748 -12 694 -12 Q631 -12 580.5 11 Q530 34 497 74 Q455 34 402.5 11 Q350 -12 293 -12 Q239 -12 195 8.5 Q151 29 121.5 64.5 Q92 100 79 147.5 Q66 195 75 249 Q84 303 111.5 350.5 Q139 398 180 433.5 Q221 469 271 489.5 Q321 510 375 510 Q431 510 476.5 487.5 Q522 465 551 426 Q593 465 645 487.5 Q697 510 754 510 Z M312 109 Q336 109 359 118.5 Q382 128 401 145 Q420 162 433.5 185.5 Q447 209 452 238 L453 243 Q458 273 452.5 299 Q447 325 434 344.5 Q421 364 401 375.5 Q381 387 356 387 Q331 387 307 375.5 Q283 364 263.5 344.5 Q244 325 230.5 299 Q217 273 212 243 Q207 213 212.5 188.5 Q218 164 232 146.5 Q246 129 266.5 119 Q287 109 312 109 Z M832 290 Q827 333 800.5 360 Q774 387 735 387 Q695 387 658 360 Q621 333 602 290 L832 290 Z " />
<glyph glyph-name="OE" unicode="&#x152;" horiz-adv-x="1005" d="M524 18 Q453 -13 380 -13 Q308 -13 249 16.5 Q190 46 150.5 96 Q111 146 94.5 213 Q78 280 90 354 Q102 429 139.5 495 Q177 561 232 611 Q287 661 355.5 690 Q424 719 496 719 Q570 719 630 688 L634 709 L1077 709 L1055 571 L764 571 L744 443 L1000 443 L978 305 L722 305 L695 137 L986 137 L965 0 L522 0 L524 18 Z M404 138 Q445 138 483 154.5 Q521 171 553 200 L602 509 Q579 538 546.5 554.5 Q514 571 473 571 Q432 571 393.5 554 Q355 537 323.5 507.5 Q292 478 270 438.5 Q248 399 241 354 Q234 309 243 270 Q252 231 274.5 201.5 Q297 172 330 155 Q363 138 404 138 Z " />
<glyph glyph-name="yen" unicode="&#xa5;" horiz-adv-x="693" d="M196 398 L290 398 L130 709 L313 709 L424 491 L604 709 L787 709 L529 398 L622 398 L611 333 L474 333 L474 332 L463 263 L600 263 L590 198 L453 198 L422 0 L271 0 L302 198 L164 198 L174 263 L312 263 L323 332 L322 333 L185 333 L196 398 Z " />
<glyph glyph-name="section" unicode="&#xa7;" horiz-adv-x="573" d="M528 427 Q563 404 578 367.5 Q593 331 585 283 Q578 239 552 201.5 Q526 164 484 134 Q518 111 532.5 75 Q547 39 539 -7 Q532 -52 505 -90.5 Q478 -129 433 -160 Q350 -215 247 -217 Q197 -217 153.5 -203 Q110 -189 79 -161 Q33 -121 22 -63 L162 -3 Q161 -12 165 -26 Q169 -40 181 -53 Q193 -66 214 -75.5 Q235 -85 267 -85 Q320 -85 351 -62.5 Q382 -40 386 -14 Q388 1 380.5 14 Q373 27 354 35 Q319 48 278.5 57 Q238 66 201 79.5 Q164 93 134 115 Q104 137 91 178 Q77 214 85 253 Q92 296 117 336 Q142 376 180 405 Q166 417 154.5 432.5 Q143 448 137 468 Q124 504 131 544 Q138 589 165.5 630.5 Q193 672 234 701 Q272 728 318 743 Q364 758 412 758 Q460 758 500.5 743.5 Q541 729 572 702 Q601 677 615 644 L497 571 Q481 597 454.5 614 Q428 631 392 631 Q341 631 310 608.5 Q279 586 273 549 Q270 532 284 519 Q298 506 321 496 Q344 486 373.5 478 Q403 470 432 462 Q461 454 486.5 445.5 Q512 437 528 427 Z M353 340 L346 340 Q295 340 264 317.5 Q233 295 228 259 Q224 232 259 213 Q270 210 283 208 Q296 206 313 206 Q366 206 397 228.5 Q428 251 432 277 Q434 291 427 304.5 Q420 318 400 325 L353 340 Z " />
<glyph glyph-name="divide" unicode="&#xf7;" horiz-adv-x="522" d="M557 281 L542 187 L39 187 L54 281 L557 281 Z M278 144 Q310 144 329 122 Q348 100 343 68 Q341 52 332.5 38.5 Q324 25 312 14.5 Q300 4 285 -2 Q270 -8 254 -8 Q222 -8 203.5 14 Q185 36 190 68 Q195 100 220.5 122 Q246 144 278 144 Z M333 473 Q365 473 383.5 451 Q402 429 397 397 Q392 365 366.5 342.5 Q341 320 309 320 Q277 320 258 342.5 Q239 365 244 397 Q249 429 275 451 Q301 473 333 473 Z " />
<glyph glyph-name="plusminus" unicode="&#xb1;" horiz-adv-x="533" d="M567 383 L552 289 L358 289 L334 134 L239 134 L263 289 L69 289 L84 383 L278 383 L303 538 L398 538 L373 383 L567 383 Z M523 94 L509 0 L26 0 L40 94 L523 94 Z " />
<glyph glyph-name="lessequal" unicode="&#x2264;" horiz-adv-x="521" d="M466 85 L98 282 L113 377 L543 574 L528 479 L202 329 L481 180 L466 85 Z M466 84 L453 0 L36 0 L49 84 L466 84 Z " />
<glyph glyph-name="greaterequal" unicode="&#x2265;" horiz-adv-x="521" d="M96 180 L423 329 L143 479 L158 574 L526 377 L511 282 L81 85 L96 180 Z M498 84 L485 0 L68 0 L81 84 L498 84 Z " />
<glyph glyph-name="ellipsis" unicode="&#x2026;" horiz-adv-x="693" d="M139 144 Q171 144 190 122 Q209 100 204 68 Q202 52 193.5 38.5 Q185 25 173 14.5 Q161 4 146 -2 Q131 -8 115 -8 Q83 -8 64.5 14 Q46 36 51 68 Q56 100 81.5 122 Q107 144 139 144 Z M368 144 Q400 144 419 122 Q438 100 433 68 Q431 52 422.5 38.5 Q414 25 402 14.5 Q390 4 375 -2 Q360 -8 344 -8 Q312 -8 293.5 14 Q275 36 280 68 Q285 100 310.5 122 Q336 144 368 144 Z M597 144 Q629 144 648 122 Q667 100 662 68 Q660 52 651.5 38.5 Q643 25 631 14.5 Q619 4 604 -2 Q589 -8 573 -8 Q541 -8 522.5 14 Q504 36 509 68 Q514 100 539.5 122 Q565 144 597 144 Z " />
<glyph glyph-name="approxequal" unicode="&#x2248;" horiz-adv-x="594" d="M427 194 Q448 194 467.5 199 Q487 204 502.5 211.5 Q518 219 529.5 227 Q541 235 547 241 L597 189 Q593 186 576 171.5 Q559 157 533.5 141 Q508 125 475.5 112.5 Q443 100 408 100 Q372 100 350 111.5 Q328 123 311 136.5 Q294 150 276.5 161.5 Q259 173 233 173 Q209 173 187.5 166 Q166 159 150 150.5 Q134 142 124.5 135 Q115 128 114 127 L53 166 Q54 167 68 183.5 Q82 200 107 218.5 Q132 237 167.5 252.5 Q203 268 248 268 Q288 268 314.5 256.5 Q341 245 360.5 231 Q380 217 395 205.5 Q410 194 427 194 Z M459 400 Q480 400 499.5 405 Q519 410 534.5 417.5 Q550 425 561.5 433 Q573 441 579 447 L629 395 Q625 392 608 377.5 Q591 363 565.5 347 Q540 331 507.5 318.5 Q475 306 440 306 Q404 306 382 317.5 Q360 329 343 342.5 Q326 356 308.5 367.5 Q291 379 265 379 Q241 379 219.5 372 Q198 365 182 356.5 Q166 348 156.5 341 Q147 334 146 333 L85 372 Q86 373 100 389.5 Q114 406 139 424.5 Q164 443 199.5 458.5 Q235 474 280 474 Q320 474 346.5 462.5 Q373 451 392.5 437 Q412 423 427 411.5 Q442 400 459 400 Z " />
<glyph glyph-name="quotesinglbase" unicode="&#x201a;" horiz-adv-x="238" d="M86 127 L241 127 L116 -144 L10 -144 L86 127 Z " />
<glyph glyph-name="quotedblbase" unicode="&#x201e;" horiz-adv-x="490" d="M92 127 L247 127 L122 -144 L16 -144 L92 127 Z M324 127 L479 127 L354 -144 L248 -144 L324 127 Z " />
<glyph glyph-name="periodcentered" unicode="&#xb7;" horiz-adv-x="224" d="M282 496 L191 317 L89 317 L131 496 L282 496 Z " />
<glyph glyph-name="florin" unicode="&#x192;" horiz-adv-x="562" d="M83 -48 Q109 -48 126.5 -63 Q144 -78 148 -101 Q175 -96 189.5 -78 Q204 -60 209 -31 L273 373 L208 373 L219 446 L292 496 L303 568 Q311 620 332.5 657.5 Q354 695 384 719.5 Q414 744 450 755.5 Q486 767 524 767 Q546 767 570.5 763.5 Q595 760 615 750 Q635 740 646.5 723 Q658 706 654 679 Q649 647 623 625 Q597 603 565 603 Q539 603 522 617 Q505 631 501 654 Q452 643 443 585 L429 496 L562 496 L543 373 L410 373 L348 -14 Q340 -66 318.5 -103.5 Q297 -141 267.5 -165.5 Q238 -190 202 -201.5 Q166 -213 128 -213 Q106 -213 81 -209 Q56 -205 35.5 -195.5 Q15 -186 3 -168.5 Q-9 -151 -4 -124 Q1 -92 26 -70 Q51 -48 83 -48 Z " />
<glyph glyph-name="endash" unicode="&#x2013;" horiz-adv-x="726" d="M728 300 L713 206 L77 206 L92 300 L728 300 Z " />
<glyph glyph-name="emdash" unicode="&#x2014;" horiz-adv-x="854" d="M856 300 L841 206 L77 206 L92 300 L856 300 Z " />
<glyph glyph-name="guillemotright" unicode="&#xbb;" horiz-adv-x="493" d="M100 405 L120 532 L294 348 L279 253 L43 75 L64 204 Q99 229 136 253 Q173 277 208 301 L100 405 Z M309 450 L329 578 L531 348 L516 255 L243 36 L264 165 Q293 186 324 209 Q355 232 386 255 L447 301 L309 450 Z " />
<glyph glyph-name="guillemotleft" unicode="&#xab;" horiz-adv-x="493" d="M379 301 Q407 277 436 253 Q465 229 493 204 L472 75 L294 253 L309 348 L541 532 L521 405 L379 301 Z M140 301 L187 255 Q210 232 234 209 Q258 186 281 165 L260 36 L57 255 L72 348 L346 578 L326 450 L140 301 Z " />
<glyph glyph-name="oslash" unicode="&#xf8;" horiz-adv-x="573" d="M588 510 L532 438 Q564 403 578 354 Q592 305 583 249 Q574 195 546.5 147.5 Q519 100 478.5 64.5 Q438 29 387.5 8.5 Q337 -12 284 -12 Q235 -12 192 5 L149 -50 L77 0 L120 55 Q86 91 71.5 141 Q57 191 66 249 Q75 303 102.5 350.5 Q130 398 171 433.5 Q212 469 262 489.5 Q312 510 366 510 Q419 510 462 490 L517 559 L588 510 Z M203 243 Q200 222 201 203 Q202 184 209 169 L377 382 Q369 384 362 385.5 Q355 387 347 387 Q322 387 298 375.5 Q274 364 254.5 344.5 Q235 325 221.5 299 Q208 273 203 243 Z M303 109 Q328 109 351 119 Q374 129 393 146.5 Q412 164 425.5 188.5 Q439 213 444 243 Q447 264 445 282.5 Q443 301 438 318 L276 112 Q288 109 303 109 Z " />
<glyph glyph-name="Oslash" unicode="&#xd8;" horiz-adv-x="759" d="M756 695 L705 631 Q754 580 776 508 Q798 436 785 354 Q773 280 734.5 213 Q696 146 640.5 96 Q585 46 516.5 16.5 Q448 -13 376 -13 Q335 -13 299 -3.5 Q263 6 231 23 L187 -34 L115 16 L163 77 Q115 128 93.5 200 Q72 272 86 354 Q98 429 135.5 495 Q173 561 228 611 Q283 661 351.5 690 Q420 719 492 719 Q532 719 568.5 709.5 Q605 700 637 683 L684 744 L756 695 Z M237 354 Q230 312 238 274.5 Q246 237 265 208 L538 556 Q522 563 505 567 Q488 571 469 571 Q428 571 389.5 554 Q351 537 319.5 507.5 Q288 478 266 438.5 Q244 399 237 354 Z M400 138 Q441 138 480 155 Q519 172 550.5 201.5 Q582 231 604 270 Q626 309 633 354 Q639 396 631.5 433.5 Q624 471 604 500 L332 152 Q363 138 400 138 Z " />
</font>
</svg>
