<?xml version="1.0" encoding="UTF-8"?>
<svg xmlns="http://www.w3.org/2000/svg" xmlns:xlink="http://www.w3.org/1999/xlink" version="1.2" >
<font id="Kollektif Bold">
<font-face  font-family="Kollektif" units-per-em="1000" ascent="809" descent="-191" font-style="normal" font-weight="700" font-stretch="normal" cap-height="709" x-height="496" underline-position="-155" underline-thickness="80" />
<missing-glyph  horiz-adv-x="354" d="" />
<glyph glyph-name="b" unicode="b" horiz-adv-x="591" d="M332 510 Q384 510 429 489.5 Q474 469 507 433.5 Q540 398 558.5 350.5 Q577 303 577 249 Q577 195 558.5 147.5 Q540 100 507 64.5 Q474 29 429 8.5 Q384 -12 332 -12 Q288 -12 247.5 3.5 Q207 19 184 43 L164 0 L46 0 L46 730 L184 730 L184 456 Q241 510 332 510 Z M313 111 Q340 111 363.5 122 Q387 133 405 151.5 Q423 170 433 195 Q443 220 443 249 Q443 277 433 302.5 Q423 328 405 346.5 Q387 365 363.5 376 Q340 387 313 387 Q286 387 262.5 379.5 Q239 372 221.5 355.5 Q204 339 194 312.5 Q184 286 184 247 Q184 212 194 186.5 Q204 161 221.5 144.5 Q239 128 262.5 119.5 Q286 111 313 111 Z " />
<glyph glyph-name="c" unicode="c" horiz-adv-x="515" d="M289 387 Q264 387 242 375.5 Q220 364 203.5 344.5 Q187 325 177.5 299 Q168 273 168 243 Q168 213 177.5 188.5 Q187 164 203.5 146.5 Q220 129 242 119 Q264 109 289 109 Q320 109 349.5 123.5 Q379 138 400 164 L485 80 Q450 38 399 13 Q348 -12 289 -12 Q235 -12 188 8.5 Q141 29 106 64.5 Q71 100 50.5 147.5 Q30 195 30 249 Q30 303 50.5 350.5 Q71 398 106 433.5 Q141 469 188 489.5 Q235 510 289 510 Q350 510 402 484 Q454 458 490 413 L394 339 Q365 366 341.5 376.5 Q318 387 289 387 Z " />
<glyph glyph-name="d" unicode="d" horiz-adv-x="590" d="M545 730 L545 0 L427 0 L407 43 Q384 19 343.5 3.5 Q303 -12 259 -12 Q206 -12 161 8.5 Q116 29 83.5 64.5 Q51 100 32.5 147.5 Q14 195 14 249 Q14 303 32.5 350.5 Q51 398 83.5 433.5 Q116 469 161 489.5 Q206 510 259 510 Q306 510 342.5 499 Q379 488 407 462 L407 730 L545 730 Z M407 247 Q407 286 397 312.5 Q387 339 369 355.5 Q351 372 327.5 379.5 Q304 387 277 387 Q250 387 226.5 376 Q203 365 185.5 346.5 Q168 328 158 302.5 Q148 277 148 249 Q148 220 158 195 Q168 170 185.5 151.5 Q203 133 226.5 122 Q250 111 277 111 Q331 111 368.5 144.5 Q406 178 407 247 Z " />
<glyph glyph-name="e" unicode="e" horiz-adv-x="595" d="M290 510 Q346 510 392 487.5 Q438 465 471 428.5 Q504 392 522 344.5 Q540 297 540 247 Q540 217 532 183 L178 183 Q198 149 235 125.5 Q272 102 315 102 Q358 102 390.5 109 Q423 116 452 127 L498 42 Q461 16 413.5 2 Q366 -12 312 -12 Q253 -12 202 8.5 Q151 29 113 64 Q75 99 53 147 Q31 195 31 249 Q31 302 51 349.5 Q71 397 106.5 432.5 Q142 468 189 489 Q236 510 290 510 Z M403 290 Q391 333 360 360 Q329 387 290 387 Q250 387 217.5 360 Q185 333 173 290 L403 290 Z " />
<glyph glyph-name="f" unicode="f" horiz-adv-x="379" d="M84 538 Q84 590 99.5 627.5 Q115 665 141 689.5 Q167 714 201 725.5 Q235 737 273 737 Q296 737 319 733 Q342 729 365 721 L354 620 L321 625 Q313 626 306.5 626.5 Q300 627 294 627 Q256 627 238.5 608.5 Q221 590 221 555 L221 496 L354 496 L354 373 L221 373 L221 0 L84 0 L84 373 L19 373 L19 446 L84 496 L84 538 L84 538 Z " />
<glyph glyph-name="g" unicode="g" horiz-adv-x="593" d="M434 496 L552 496 L552 168 Q552 111 550.5 66.5 Q549 22 543 -13.5 Q537 -49 523.5 -77 Q510 -105 486 -129 Q442 -172 387.5 -188 Q333 -204 273 -204 Q222 -204 177 -192 Q132 -180 96 -159 L96 -30 Q105 -44 121.5 -55 Q138 -66 159.5 -74 Q181 -82 205.5 -86.5 Q230 -91 255 -91 Q288 -91 317 -82.5 Q346 -74 367.5 -55 Q389 -36 401.5 -7.5 Q414 21 414 62 L414 72 Q385 46 347 30.5 Q309 15 264 15 Q214 15 171.5 34.5 Q129 54 98 87.5 Q67 121 49.5 166.5 Q32 212 32 263 Q32 314 49.5 359 Q67 404 98 437.5 Q129 471 171.5 490.5 Q214 510 264 510 Q311 510 349 497.5 Q387 485 414 458 L434 496 Z M292 138 Q324 138 347 149.5 Q370 161 385 179 Q400 197 407 219 Q414 241 414 262 Q414 285 406.5 307.5 Q399 330 384 347.5 Q369 365 346 376 Q323 387 292 387 Q266 387 244 377 Q222 367 205.5 350 Q189 333 179.5 310.5 Q170 288 170 262 Q170 236 179.5 213.5 Q189 191 205.5 174 Q222 157 244 147.5 Q266 138 292 138 Z " />
<glyph glyph-name="h" unicode="h" horiz-adv-x="569" d="M321 510 Q370 510 412.5 489.5 Q455 469 486 433.5 Q517 398 534.5 350.5 Q552 303 552 249 L552 0 L417 0 L417 91 Q417 129 417.5 169.5 Q418 210 418 239 Q418 267 409 294 Q400 321 384 341.5 Q368 362 346.5 374.5 Q325 387 301 387 Q278 387 257 378.5 Q236 370 220 353.5 Q204 337 194.5 312 Q185 287 185 253 L185 0 L46 0 L46 730 L185 730 L185 458 Q211 483 244.5 496.5 Q278 510 321 510 Z " />
<glyph glyph-name="i" unicode="i" horiz-adv-x="253" d="M195 0 L57 0 L57 496 L195 496 L195 0 Z M126 564 Q94 564 72 586 Q50 608 50 640 Q50 672 72 694.5 Q94 717 126 717 Q158 717 180 694.5 Q202 672 202 640 Q202 608 180 586 Q158 564 126 564 Z " />
<glyph glyph-name="j" unicode="j" horiz-adv-x="273" d="M92 496 L230 496 L230 -2 Q230 -54 214.5 -91.5 Q199 -129 173 -153.5 Q147 -178 112.5 -189.5 Q78 -201 40 -201 Q17 -201 -6 -197 Q-29 -193 -52 -185 L-41 -84 Q-25 -86 -15.5 -87.5 Q-6 -89 0 -90 Q6 -91 10 -91 Q14 -91 21 -91 Q59 -91 75.5 -72.5 Q92 -54 92 -20 L92 496 Z M162 717 Q194 717 216 694.5 Q238 672 238 640 Q238 608 216 586 Q194 564 162 564 Q130 564 108 586 Q86 608 86 640 Q86 672 108 694.5 Q130 717 162 717 Z " />
<glyph glyph-name="k" unicode="k" horiz-adv-x="536" d="M320 290 L529 0 L364 0 L233 198 L184 145 L184 0 L46 0 L46 730 L184 730 L184 325 L345 496 L513 496 L320 290 Z " />
<glyph glyph-name="l" unicode="l" horiz-adv-x="227" d="M49 731 L187 731 L187 0 L49 0 L49 731 Z " />
<glyph glyph-name="m" unicode="m" horiz-adv-x="816" d="M597 496 Q624 496 655 487 Q686 478 712.5 455 Q739 432 756 392 Q773 352 773 290 L773 0 L635 0 L635 265 Q635 295 628.5 316 Q622 337 611 350 Q600 363 585.5 368.5 Q571 374 556 374 Q542 374 528 369 Q514 364 503 352 Q492 340 485.5 319 Q479 298 479 266 L479 0 L341 0 L341 265 Q341 326 320 350 Q299 374 259 374 Q230 374 207 347 Q184 320 184 263 L184 0 L46 0 L46 496 L164 496 L184 450 Q207 472 237.5 484 Q268 496 303 496 Q321 496 341 492.5 Q361 489 380 480 Q399 471 416.5 456.5 Q434 442 448 420 Q460 439 477 453.5 Q494 468 514 477.5 Q534 487 555.5 491.5 Q577 496 597 496 Z " />
<glyph glyph-name="n" unicode="n" horiz-adv-x="541" d="M303 496 Q331 496 365 488 Q399 480 429 458 Q459 436 479.5 397 Q500 358 500 296 L500 0 L361 0 L361 291 Q361 314 353.5 330 Q346 346 333.5 355.5 Q321 365 305 369.5 Q289 374 273 374 Q260 374 244.5 369.5 Q229 365 215.5 355 Q202 345 193 329 Q184 313 184 291 L184 0 L46 0 L46 496 L164 496 L184 458 Q208 475 238 485.5 Q268 496 303 496 Z " />
<glyph glyph-name="o" unicode="o" horiz-adv-x="574" d="M289 510 Q342 510 389 489.5 Q436 469 471 433.5 Q506 398 526.5 350.5 Q547 303 547 249 Q547 195 526.5 147.5 Q506 100 471 64.5 Q436 29 389 8.5 Q342 -12 289 -12 Q235 -12 188 8.5 Q141 29 106 64.5 Q71 100 50.5 147.5 Q30 195 30 249 Q30 303 50.5 350.5 Q71 398 106 433.5 Q141 469 188 489.5 Q235 510 289 510 Z M289 109 Q314 109 335.5 119 Q357 129 373.5 146.5 Q390 164 399.5 188.5 Q409 213 409 243 Q409 273 399.5 299 Q390 325 373.5 344.5 Q357 364 335.5 375.5 Q314 387 289 387 Q264 387 242 375.5 Q220 364 203.5 344.5 Q187 325 177.5 299 Q168 273 168 243 Q168 213 177.5 188.5 Q187 164 203.5 146.5 Q220 129 242 119 Q264 109 289 109 Z " />
<glyph glyph-name="p" unicode="p" horiz-adv-x="591" d="M332 510 Q385 510 430 489.5 Q475 469 507.5 433.5 Q540 398 558.5 350.5 Q577 303 577 249 Q577 195 558.5 147.5 Q540 100 507.5 64.5 Q475 29 430 8.5 Q385 -12 332 -12 Q289 -12 248 3.5 Q207 19 184 43 L184 -198 L46 -198 L46 496 L164 496 L184 462 Q213 488 249 499 Q285 510 332 510 Z M314 111 Q341 111 364.5 122 Q388 133 405.5 151.5 Q423 170 433.5 195 Q444 220 444 249 Q444 277 433.5 302.5 Q423 328 405.5 346.5 Q388 365 364.5 376 Q341 387 314 387 Q287 387 263.5 379.5 Q240 372 222.5 355.5 Q205 339 195 312.5 Q185 286 185 249 Q185 214 195 188.5 Q205 163 222.5 145.5 Q240 128 263.5 119.5 Q287 111 314 111 Z " />
<glyph glyph-name="q" unicode="q" horiz-adv-x="591" d="M546 496 L546 -198 L408 -198 L408 43 Q385 19 344 3.5 Q303 -12 260 -12 Q207 -12 162 8.5 Q117 29 84 64.5 Q51 100 32.5 147.5 Q14 195 14 249 Q14 303 32.5 350.5 Q51 398 84 433.5 Q117 469 162 489.5 Q207 510 260 510 Q307 510 343 499 Q379 488 408 462 L428 496 L546 496 Z M278 111 Q305 111 328.5 120 Q352 129 369.5 147 Q387 165 397 191 Q407 217 407 252 Q407 289 397 314.5 Q387 340 369.5 356 Q352 372 328.5 379.5 Q305 387 278 387 Q251 387 227.5 376 Q204 365 186.5 346.5 Q169 328 158.5 302.5 Q148 277 148 249 Q148 220 158.5 195 Q169 170 186.5 151.5 Q204 133 227.5 122 Q251 111 278 111 Z " />
<glyph glyph-name="r" unicode="r" horiz-adv-x="412" d="M181 427 Q191 443 204 457.5 Q217 472 235 483.5 Q253 495 276 502 Q299 509 328 509 Q362 509 407 497 L394 374 Q383 376 372 379 Q363 381 352 382.5 Q341 384 332 384 Q300 384 272.5 375 Q245 366 225 350 Q205 334 193 311.5 Q181 289 181 263 L181 0 L43 0 L43 496 L168 496 L181 427 Z " />
<glyph glyph-name="s" unicode="s" horiz-adv-x="443" d="M360 260 Q415 221 415 149 Q415 116 399.5 87 Q384 58 357 36 Q330 14 294 1.5 Q258 -11 217 -11 Q186 -11 156.5 -3 Q127 5 102 19 Q77 33 58.5 52.5 Q40 72 31 96 Q54 107 82 120.5 Q110 134 131 145 Q140 130 159 117.5 Q178 105 211 105 Q245 105 261 121 Q277 137 277 151 Q277 161 266 169.5 Q255 178 241 183 Q221 191 208 191.5 Q195 192 178 197 Q124 210 95.5 231.5 Q67 253 54 275 Q41 297 39.5 317 Q38 337 38 349 Q38 381 52 410 Q66 439 90.5 460.5 Q115 482 147.5 495 Q180 508 217 508 Q248 508 276 499 Q304 490 327 474 Q350 458 366.5 436 Q383 414 391 387 L284 351 Q278 369 259.5 380 Q241 391 220 391 Q199 391 186 377 Q173 363 173 349 Q173 332 185.5 322.5 Q198 313 213 309 Q224 307 234.5 305.5 Q245 304 255 302 Q290 294 315.5 284 Q341 274 360 260 Z " />
<glyph glyph-name="t" unicode="t" horiz-adv-x="383" d="M228 178 Q228 143 249.5 124 Q271 105 306 105 Q334 105 362 116 L362 0 Q337 -8 309 -13.5 Q281 -19 253 -19 Q221 -19 192 -11 Q163 -3 140 16.5 Q117 36 103.5 68.5 Q90 101 90 149 L90 373 L19 373 L19 466 L90 496 L90 607 L228 607 L228 496 L362 496 L362 373 L228 373 L228 178 L228 178 Z " />
<glyph glyph-name="u" unicode="u" horiz-adv-x="543" d="M359 496 L497 496 L497 0 L379 0 L359 38 Q335 21 304.5 10.5 Q274 0 239 0 Q212 0 177.5 8 Q143 16 113 38 Q83 60 62.5 99 Q42 138 42 200 L42 496 L181 496 L181 205 Q181 182 188.5 166 Q196 150 208.5 140.5 Q221 131 237 126.5 Q253 122 270 122 Q283 122 298.5 126.5 Q314 131 327.5 141 Q341 151 350 167 Q359 183 359 205 L359 496 Z " />
<glyph glyph-name="v" unicode="v" horiz-adv-x="594" d="M436 496 L585 496 L385 0 L207 0 L7 496 L155 496 L296 129 L436 496 Z " />
<glyph glyph-name="w" unicode="w" horiz-adv-x="871" d="M697 496 L839 496 L690 0 L515 0 L443 239 L436 310 L428 239 L356 0 L182 0 L33 496 L175 496 L278 137 L378 496 L493 496 L593 135 L697 496 Z " />
<glyph glyph-name="x" unicode="x" horiz-adv-x="622" d="M230 259 L53 496 L224 496 L312 364 L400 496 L571 496 L393 258 L586 0 L415 0 L311 154 L207 0 L36 0 L230 259 Z " />
<glyph glyph-name="y" unicode="y" horiz-adv-x="591" d="M428 496 L579 496 L266 -198 L115 -198 L238 75 L28 496 L182 496 L311 237 L428 496 Z " />
<glyph glyph-name="z" unicode="z" horiz-adv-x="498" d="M224 122 L453 122 L453 0 L43 0 L43 116 L247 373 L62 373 L62 496 L447 496 L447 404 L224 122 Z " />
<glyph glyph-name="germandbls" unicode="&#xdf;" horiz-adv-x="572" d="M426 351 Q426 343 442 331.5 Q458 320 477.5 299.5 Q497 279 513.5 248 Q530 217 530 169 Q530 131 517 98.5 Q504 66 482.5 42 Q461 18 433.5 4 Q406 -10 376 -10 L267 -10 L267 120 L298 120 Q342 120 360.5 141.5 Q379 163 379 195 Q379 211 372.5 226.5 Q366 242 353.5 254 Q341 266 323.5 273 Q306 280 284 280 L284 384 Q302 387 317 397 Q332 407 343.5 421.5 Q355 436 361.5 454 Q368 472 368 491 Q368 512 361 528.5 Q354 545 342 557 Q330 569 315.5 575 Q301 581 286 581 Q245 581 223 558.5 Q201 536 201 477 Q201 455 201 417 Q201 379 200.5 331.5 Q200 284 200 230 Q200 176 200 124 L200 -141 L61 -141 L61 -43 Q61 -10 61 39.5 Q61 89 61 159.5 Q61 230 61.5 323 Q62 416 62 536 Q64 574 82.5 607 Q101 640 130 664.5 Q159 689 195.5 703 Q232 717 271 717 L291 717 Q331 717 368.5 702 Q406 687 435.5 659.5 Q465 632 482.5 594 Q500 556 500 510 Q500 468 488.5 441 Q477 414 463 397.5 Q449 381 437.5 370.5 Q426 360 426 351 Z " />
<glyph glyph-name="A" unicode="A" horiz-adv-x="801" d="M483 709 L779 0 L615 0 L551 152 L250 152 L187 0 L22 0 L318 709 L483 709 Z M494 290 L401 513 L308 290 L494 290 Z " />
<glyph glyph-name="N" unicode="N" horiz-adv-x="730" d="M532 709 L683 709 L683 0 L539 0 L198 463 L198 0 L47 0 L47 709 L189 709 L532 243 L532 709 Z " />
<glyph glyph-name="Z" unicode="Z" horiz-adv-x="632" d="M253 138 L588 138 L588 0 L42 0 L42 101 L373 571 L77 571 L77 709 L567 709 L567 582 L253 138 Z " />
<glyph glyph-name="T" unicode="T" horiz-adv-x="559" d="M23 709 L536 709 L536 571 L355 571 L355 0 L204 0 L204 571 L23 571 L23 709 Z " />
<glyph glyph-name="O" unicode="O" horiz-adv-x="765" d="M382 719 Q454 719 518 690 Q582 661 629.5 611 Q677 561 704.5 495 Q732 429 732 354 Q732 280 704.5 213 Q677 146 629.5 96 Q582 46 518 16.5 Q454 -13 382 -13 Q310 -13 246 16.5 Q182 46 135 96 Q88 146 60.5 213 Q33 280 33 354 Q33 429 60.5 495 Q88 561 135 611 Q182 661 246 690 Q310 719 382 719 Z M382 138 Q423 138 459 155 Q495 172 522 201.5 Q549 231 564.5 270 Q580 309 580 354 Q580 399 564.5 438.5 Q549 478 522 507.5 Q495 537 459 554 Q423 571 382 571 Q341 571 305 554 Q269 537 242 507.5 Q215 478 199.5 438.5 Q184 399 184 354 Q184 309 199.5 270 Q215 231 242 201.5 Q269 172 305 155 Q341 138 382 138 Z " />
<glyph glyph-name="P" unicode="P" horiz-adv-x="568" d="M353 709 Q395 709 432 692.5 Q469 676 496.5 647.5 Q524 619 540 580.5 Q556 542 556 498 Q556 454 540 415.5 Q524 377 496.5 348 Q469 319 432 302.5 Q395 286 353 286 L198 286 L198 0 L47 0 L47 709 L353 709 Z M333 424 Q362 424 383.5 445.5 Q405 467 405 498 Q405 528 383.5 549.5 Q362 571 333 571 L198 571 L198 424 L333 424 Z " />
<glyph glyph-name="Q" unicode="Q" horiz-adv-x="790" d="M679 108 L756 82 L710 -13 L610 19 L572 52 Q536 21 485.5 4 Q435 -13 383 -13 Q311 -13 247 16.5 Q183 46 135.5 96 Q88 146 60.5 213 Q33 280 33 354 Q33 429 60.5 495 Q88 561 135.5 611 Q183 661 247 690 Q311 719 383 719 Q455 719 518.5 690 Q582 661 629.5 611 Q677 561 704.5 495 Q732 429 732 354 Q732 290 711.5 233 Q691 176 656 130 L679 108 Z M546 231 Q580 285 580 354 Q580 399 564.5 438.5 Q549 478 522.5 507.5 Q496 537 460 554 Q424 571 383 571 Q342 571 306 554 Q270 537 243 507.5 Q216 478 200.5 438.5 Q185 399 185 354 Q185 309 200.5 270 Q216 231 243 201.5 Q270 172 306 155 Q342 138 383 138 Q420 138 454 152 L386 211 L473 299 L546 231 Z " />
<glyph glyph-name="R" unicode="R" horiz-adv-x="687" d="M557 498 Q557 464 547.5 433.5 Q538 403 521 377.5 Q504 352 480 332.5 Q456 313 428 301 L663 0 L486 0 L267 286 L199 286 L199 0 L47 0 L47 709 L353 709 Q395 709 432.5 692.5 Q470 676 497.5 647.5 Q525 619 541 580.5 Q557 542 557 498 Z M334 424 Q363 424 384 445.5 Q405 467 405 498 Q405 528 384 549.5 Q363 571 334 571 L199 571 L199 424 L334 424 Z " />
<glyph glyph-name="S" unicode="S" horiz-adv-x="616" d="M498 365 Q540 340 562 301 Q584 262 584 211 Q584 163 561 121.5 Q538 80 496 48 Q458 19 409.5 3.5 Q361 -12 307 -13 Q253 -13 204 2 Q155 17 117 47 Q60 90 39 151 L179 216 Q179 206 186 191 Q193 176 208 162 Q223 148 247 138 Q271 128 306 128 Q334 128 355.5 135 Q377 142 391.5 152.5 Q406 163 413.5 176.5 Q421 190 421 204 Q421 220 410.5 234 Q400 248 378 256 Q338 270 293.5 279.5 Q249 289 207 303.5 Q165 318 129 342 Q93 366 72 409 Q53 447 53 490 Q53 538 75.5 583 Q98 628 137 659 Q174 688 220 703.5 Q266 719 317 719 Q368 719 414.5 704 Q461 689 498 660 Q534 633 555 597 L441 519 Q420 548 388.5 565.5 Q357 583 318 583 Q264 583 234.5 559 Q205 535 205 496 Q205 478 221.5 464 Q238 450 264.5 439 Q291 428 324 419.5 Q357 411 389.5 402.5 Q422 394 451 385 Q480 376 498 365 Z " />
<glyph glyph-name="U" unicode="U" horiz-adv-x="640" d="M448 709 L599 709 L599 256 Q599 203 577 154 Q555 105 517 68 Q479 31 428.5 9 Q378 -13 320 -13 Q263 -13 212 9 Q161 31 123.5 68 Q86 105 64 154 Q42 203 42 256 L42 709 L193 709 L193 286 Q193 256 203 229.5 Q213 203 230 182.5 Q247 162 270.5 150 Q294 138 320 138 Q347 138 370 150 Q393 162 410.5 182.5 Q428 203 438 229.5 Q448 256 448 286 L448 709 Z " />
<glyph glyph-name="V" unicode="V" horiz-adv-x="806" d="M620 709 L785 709 L486 0 L319 0 L21 709 L186 709 L403 179 L620 709 Z " />
<glyph glyph-name="W" unicode="W" horiz-adv-x="1098" d="M923 709 L1081 709 L881 0 L693 0 L547 477 L401 0 L215 0 L15 709 L173 709 L313 173 L474 709 L620 709 L782 169 L923 709 Z " />
<glyph glyph-name="X" unicode="X" horiz-adv-x="764" d="M474 382 L729 0 L547 0 L382 245 L218 0 L35 0 L291 382 L72 709 L254 709 L382 518 L510 709 L693 709 L474 382 Z " />
<glyph glyph-name="Y" unicode="Y" horiz-adv-x="693" d="M492 709 L675 709 L422 332 L422 0 L271 0 L271 332 L18 709 L201 709 L347 491 L492 709 Z " />
<glyph glyph-name="B" unicode="B" horiz-adv-x="619" d="M491 386 Q533 357 558 311.5 Q583 266 583 211 Q583 167 566 128.5 Q549 90 520 61.5 Q491 33 452.5 16.5 Q414 0 370 0 L48 0 L48 709 L360 709 Q400 709 435 693.5 Q470 678 496.5 652 Q523 626 538 591 Q553 556 553 516 Q553 473 536.5 440.5 Q520 408 491 386 Z M200 443 L360 443 Q387 443 406 462 Q425 481 425 508 Q425 535 406 553 Q387 571 360 571 L200 571 L200 443 Z M370 137 Q400 137 421 162.5 Q442 188 442 222 Q442 257 421 281 Q400 305 370 305 L200 305 L200 137 L370 137 Z " />
<glyph glyph-name="C" unicode="C" horiz-adv-x="695" d="M381 138 Q429 138 475 160 Q521 182 568 234 L666 141 Q607 65 531.5 26 Q456 -13 376 -13 Q304 -13 241 16.5 Q178 46 131.5 96 Q85 146 58.5 212.5 Q32 279 32 354 Q32 429 59.5 495 Q87 561 134 611 Q181 661 245 690 Q309 719 381 719 Q448 719 508.5 694 Q569 669 627 611 L539 504 Q497 543 459.5 556.5 Q422 570 381 570 Q340 570 303.5 553 Q267 536 240 507 Q213 478 197.5 438.5 Q182 399 182 354 Q182 309 197.5 270 Q213 231 240 201.5 Q267 172 303.5 155 Q340 138 381 138 Z " />
<glyph glyph-name="D" unicode="D" horiz-adv-x="683" d="M334 709 Q411 709 470 681 Q529 653 568.5 605 Q608 557 628.5 492 Q649 427 649 354 Q649 280 627.5 215.5 Q606 151 568 103 Q530 55 478 27.5 Q426 0 365 0 L48 0 L48 709 L334 709 Z M335 137 Q378 137 408.5 154.5 Q439 172 459 202 Q479 232 488.5 271 Q498 310 498 353 Q498 396 489 435.5 Q480 475 460 505 Q440 535 409 553 Q378 571 335 571 L200 571 L200 137 L335 137 Z " />
<glyph glyph-name="E" unicode="E" horiz-adv-x="539" d="M48 709 L491 709 L491 571 L200 571 L200 443 L456 443 L456 305 L200 305 L200 137 L491 137 L491 0 L48 0 L48 709 Z " />
<glyph glyph-name="F" unicode="F" horiz-adv-x="503" d="M47 709 L490 709 L490 571 L199 571 L199 443 L455 443 L455 305 L199 305 L199 0 L47 0 L47 709 Z " />
<glyph glyph-name="G" unicode="G" horiz-adv-x="700" d="M398 401 L666 401 L666 141 Q606 65 533 26 Q460 -13 380 -13 Q308 -13 244 16.5 Q180 46 133 96 Q86 146 58.5 212.5 Q31 279 31 354 Q31 429 58.5 495 Q86 561 133 611 Q180 661 244 690 Q308 719 380 719 Q448 719 508.5 694 Q569 669 626 611 L538 504 Q496 543 459 556.5 Q422 570 381 570 Q339 570 302.5 553 Q266 536 239 507 Q212 478 196.5 438.5 Q181 399 181 354 Q181 309 196.5 270 Q212 231 239 201.5 Q266 172 302.5 155 Q339 138 381 138 Q418 138 454.5 151.5 Q491 165 528 196 L528 273 L398 273 L398 401 Z " />
<glyph glyph-name="H" unicode="H" horiz-adv-x="722" d="M523 709 L675 709 L675 0 L523 0 L523 305 L198 305 L198 0 L47 0 L47 709 L198 709 L198 443 L523 443 L523 709 Z " />
<glyph glyph-name="I" unicode="I" horiz-adv-x="351" d="M305 709 L305 581 L252 581 L252 127 L305 127 L305 0 L47 0 L47 127 L100 127 L100 581 L47 581 L47 709 L305 709 Z " />
<glyph glyph-name="J" unicode="J" horiz-adv-x="498" d="M453 709 L453 280 L453 254 Q453 210 447.5 169.5 Q442 129 415 91 Q381 42 331.5 17.5 Q282 -7 225 -7 Q186 -7 151.5 6 Q117 19 88.5 41.5 Q60 64 39 94.5 Q18 125 7 160 L138 204 Q146 175 168.5 156 Q191 137 221 137 Q256 137 275.5 160.5 Q295 184 300 214 Q300 218 300.5 242 Q301 266 301 301.5 Q301 337 301 381.5 Q301 426 301 471 Q301 577 300 709 L453 709 Z " />
<glyph glyph-name="K" unicode="K" horiz-adv-x="712" d="M356 385 L698 0 L511 0 L260 289 L199 227 L199 0 L47 0 L47 709 L199 709 L199 422 L484 709 L678 709 L356 385 Z " />
<glyph glyph-name="L" unicode="L" horiz-adv-x="500" d="M199 137 L490 137 L490 0 L47 0 L47 709 L199 709 L199 137 Z " />
<glyph glyph-name="M" unicode="M" horiz-adv-x="858" d="M668 709 L811 709 L811 0 L660 0 L660 468 L491 231 L370 231 L199 461 L199 0 L47 0 L47 709 L191 709 L431 382 L668 709 Z " />
<glyph glyph-name="one" unicode="1" horiz-adv-x="367" d="M60 709 L296 709 L296 0 L144 0 L144 571 L60 571 L60 709 Z " />
<glyph glyph-name="two" unicode="2" horiz-adv-x="561" d="M286 719 Q333 719 374.5 701 Q416 683 446.5 653 Q477 623 495 582.5 Q513 542 513 497 Q513 460 497 419 Q481 378 447 340 L269 137 L509 137 L509 0 L49 0 L49 98 Q122 185 182 255 Q207 285 231.5 314.5 Q256 344 276.5 368.5 Q297 393 311 409.5 Q325 426 328 431 Q342 450 350 466 Q358 482 358 499 Q358 539 334 560.5 Q310 582 275 582 Q258 582 242.5 575 Q227 568 215.5 556 Q204 544 197.5 528.5 Q191 513 191 497 L59 497 Q59 542 77 582.5 Q95 623 125.5 653 Q156 683 197.5 701 Q239 719 286 719 Z " />
<glyph glyph-name="three" unicode="3" horiz-adv-x="550" d="M410 438 Q459 403 486 349.5 Q513 296 513 234 Q513 183 493.5 138.5 Q474 94 441 60 Q408 26 363.5 6.5 Q319 -13 268 -13 Q228 -13 192 -0.5 Q156 12 125.5 34 Q95 56 72.5 86.5 Q50 117 37 153 L169 209 Q177 174 203.5 149.5 Q230 125 265 125 Q285 125 303 133.5 Q321 142 334.5 156.5 Q348 171 355.5 190.5 Q363 210 363 231 Q363 253 355.5 272.5 Q348 292 334.5 306.5 Q321 321 302.5 329.5 Q284 338 261 338 Q233 338 212 324 L137 419 L255 571 L74 571 L74 709 L443 709 L443 640 L327 472 Q374 463 410 438 Z " />
<glyph glyph-name="four" unicode="4" horiz-adv-x="684" d="M528 246 L636 246 L636 114 L528 114 L528 0 L376 0 L376 115 L112 115 L48 197 L411 709 L528 709 L528 246 Z M376 456 L353 413 L249 262 L232 246 L376 246 L376 420 L376 456 Z " />
<glyph glyph-name="five" unicode="5" horiz-adv-x="561" d="M410 438 Q461 406 487 351 Q513 296 513 234 Q513 183 493.5 138.5 Q474 94 441 60 Q408 26 363.5 6.5 Q319 -13 268 -13 Q228 -13 191.5 -0.5 Q155 12 125 34 Q95 56 72 86.5 Q49 117 37 153 L168 209 Q176 174 202.5 149.5 Q229 125 264 125 Q284 125 302 133.5 Q320 142 333.5 156.5 Q347 171 354.5 190.5 Q362 210 362 231 Q362 279 332 309 Q302 339 261 339 Q237 339 213 330 Q189 321 166 307 L72 376 L108 709 L456 709 L456 571 L230 571 L220 451 Q239 459 258.5 463 Q278 467 298 467 Q331 467 360.5 458.5 Q390 450 410 438 Z " />
<glyph glyph-name="six" unicode="6" horiz-adv-x="586" d="M435 438 Q483 403 510.5 349.5 Q538 296 538 234 Q538 183 518.5 138.5 Q499 94 466 60 Q433 26 388.5 6.5 Q344 -13 293 -13 Q242 -13 197.5 6.5 Q153 26 120 60 Q87 94 67.5 138.5 Q48 183 48 234 Q48 269 59 301.5 Q70 334 86 365 Q87 368 96 384.5 Q105 401 118 425.5 Q131 450 147 480.5 Q163 511 180 543 Q220 617 269 709 L440 709 L311 475 Q346 475 377.5 465 Q409 455 435 438 Z M289 125 Q309 125 327 133.5 Q345 142 358.5 156.5 Q372 171 379.5 190.5 Q387 210 387 231 Q387 276 359.5 307 Q332 338 285 338 Q267 338 249 331 Q231 324 217 307 L215 303 Q206 284 198.5 264 Q191 244 191 231 Q191 210 198.5 190.5 Q206 171 219.5 156.5 Q233 142 251 133.5 Q269 125 289 125 Z " />
<glyph glyph-name="seven" unicode="7" horiz-adv-x="537" d="M36 709 L502 709 L502 637 L234 0 L70 0 L310 571 L36 571 L36 709 Z " />
<glyph glyph-name="eight" unicode="8" horiz-adv-x="573" d="M432 390 Q453 378 471.5 359 Q490 340 503.5 317 Q517 294 525 268 Q533 242 533 216 Q533 170 513 128.5 Q493 87 459 55.5 Q425 24 380 5.5 Q335 -13 285 -13 Q235 -13 190 5.5 Q145 24 111.5 55.5 Q78 87 58 128.5 Q38 170 38 216 Q38 268 64 315.5 Q90 363 139 390 Q103 416 86.5 448.5 Q70 481 70 519 Q70 559 87 595.5 Q104 632 133.5 659.5 Q163 687 202 703 Q241 719 285 719 Q329 719 368.5 703 Q408 687 437.5 659.5 Q467 632 484 595.5 Q501 559 501 519 Q501 481 482.5 448.5 Q464 416 432 390 Z M286 580 Q255 580 234 557.5 Q213 535 213 506 Q213 486 223.5 469 Q234 452 253 443 Q270 436 286 436 Q295 436 303 438 Q311 440 319 443 Q337 452 347.5 469 Q358 486 358 506 Q358 535 337.5 557.5 Q317 580 286 580 Z M286 128 Q306 128 323.5 136.5 Q341 145 353.5 159 Q366 173 373.5 191 Q381 209 381 229 Q381 260 364.5 283.5 Q348 307 322 318 Q307 325 286 325 Q265 325 250 318 Q224 307 207.5 283.5 Q191 260 191 229 Q191 209 198.5 191 Q206 173 218.5 159 Q231 145 248.5 136.5 Q266 128 286 128 Z " />
<glyph glyph-name="nine" unicode="9" horiz-adv-x="566" d="M281 719 Q332 719 376.5 699.5 Q421 680 454.5 647 Q488 614 507.5 569.5 Q527 525 527 474 Q527 439 516 407 Q505 375 489 343 Q487 340 478.5 323.5 Q470 307 456.5 282.5 Q443 258 426.5 227 Q410 196 393 165 Q353 91 304 0 L134 0 L264 233 Q212 234 170 254.5 Q128 275 98.5 308.5 Q69 342 53 385 Q37 428 37 474 Q37 525 56 569.5 Q75 614 108 647 Q141 680 185.5 699.5 Q230 719 281 719 Z M360 406 Q369 424 376.5 444 Q384 464 384 477 Q384 499 376.5 518 Q369 537 355.5 551.5 Q342 566 324 574.5 Q306 583 286 583 Q266 583 248 574.5 Q230 566 216.5 551.5 Q203 537 195.5 518 Q188 499 188 477 Q188 434 214.5 402 Q241 370 288 370 Q307 370 325.5 377.5 Q344 385 358 402 L360 406 Z " />
<glyph glyph-name="zero" unicode="0" horiz-adv-x="625" d="M316 718 Q376 718 427 695 Q478 672 514 628 Q549 585 569.5 526 Q590 467 590 394 L590 307 Q590 238 569 180.5 Q548 123 511 80 Q474 36 424 13.5 Q374 -9 316 -9 Q259 -9 208.5 15 Q158 39 120 84 Q84 127 62.5 184 Q41 241 41 307 L41 394 Q41 466 61 525.5 Q81 585 116 627 Q152 672 203.5 695 Q255 718 316 718 Z M437 389 Q437 485 399 537 Q368 580 314 580 Q260 580 229 537 Q191 485 191 389 L191 314 Q191 272 201 236.5 Q211 201 231 175 Q265 128 314 128 Q342 128 364.5 141.5 Q387 155 403 179.5 Q419 204 428 238 Q437 272 437 314 L437 389 Z " />
<glyph glyph-name="cedilla" unicode="&#xb8;" horiz-adv-x="329" d="M155 -34 Q179 -34 197 -42 Q215 -50 228 -62.5 Q241 -75 247.5 -91.5 Q254 -108 254 -125 Q254 -146 244.5 -163 Q235 -180 218.5 -191.5 Q202 -203 181 -209 Q160 -215 136 -215 Q105 -215 87 -210 Q76 -208 69 -205 L77 -155 Q84 -155 90 -155.5 Q96 -156 104 -156 Q126 -156 142 -148 Q158 -140 158 -123 Q158 -92 120 -92 Q112 -92 103 -94 Q94 -96 86 -101 L56 -73 L141 48 L236 48 L155 -34 L155 -34 Z " />
<glyph glyph-name="breve" unicode="&#x2d8;" horiz-adv-x="385" d="M337 894 Q337 864 325.5 838 Q314 812 294.5 792.5 Q275 773 248.5 761.5 Q222 750 192 750 Q162 750 136 761.5 Q110 773 90.5 792.5 Q71 812 59.5 838 Q48 864 48 894 L144 894 Q144 874 158 860 Q172 846 192 846 Q212 846 226.5 860 Q241 874 241 894 L337 894 Z " />
<glyph glyph-name="period" unicode="&#x2e;" horiz-adv-x="249" d="M124 144 Q156 144 178.5 122 Q201 100 201 68 Q201 36 178.5 14 Q156 -8 124 -8 Q92 -8 70 14 Q48 36 48 68 Q48 100 70 122 Q92 144 124 144 Z " />
<glyph glyph-name="colon" unicode="&#x3a;" horiz-adv-x="314" d="M160 144 Q192 144 214.5 122 Q237 100 237 68 Q237 36 214.5 14 Q192 -8 160 -8 Q128 -8 106 14 Q84 36 84 68 Q84 100 106 122 Q128 144 160 144 Z M163 473 Q195 473 217 451 Q239 429 239 397 Q239 365 217 342.5 Q195 320 163 320 Q131 320 108.5 342.5 Q86 365 86 397 Q86 429 108.5 451 Q131 473 163 473 Z " />
<glyph glyph-name="semicolon" unicode="&#x3b;" horiz-adv-x="284" d="M81 127 L236 127 L154 -144 L48 -144 L81 127 Z M160 473 Q192 473 214 451 Q236 429 236 397 Q236 365 214 342.5 Q192 320 160 320 Q128 320 105.5 342.5 Q83 365 83 397 Q83 429 105.5 451 Q128 473 160 473 Z " />
<glyph glyph-name="parenleft" unicode="&#x28;" horiz-adv-x="321" d="M270 726 Q210 641 175.5 534 Q141 427 141 306 Q141 183 176 75 Q211 -33 273 -118 L181 -145 Q118 -51 83 63 Q48 177 48 306 Q48 433 82.5 546 Q117 659 179 753 L270 726 L270 726 Z " />
<glyph glyph-name="parenright" unicode="&#x29;" horiz-adv-x="321" d="M142 753 Q204 659 238.5 546 Q273 433 273 306 Q273 177 237.5 63 Q202 -51 139 -145 L48 -118 Q110 -33 145 75 Q180 183 180 306 Q180 427 145.5 534 Q111 641 51 726 L142 753 Z " />
<glyph glyph-name="exclam" unicode="&#x21;" horiz-adv-x="280" d="M141 144 Q173 144 195 122 Q217 100 217 68 Q217 36 195 14 Q173 -8 141 -8 Q109 -8 86.5 14 Q64 36 64 68 Q64 100 86.5 122 Q109 144 141 144 Z M80 205 L68 709 L214 709 L203 205 L80 205 Z " />
<glyph glyph-name="question" unicode="&#x3f;" horiz-adv-x="473" d="M154 144 Q186 144 208.5 122 Q231 100 231 68 Q231 36 208.5 14 Q186 -8 154 -8 Q122 -8 100 14 Q78 36 78 68 Q78 100 100 122 Q122 144 154 144 Z M180 718 Q240 718 286 700 Q332 682 362.5 651.5 Q393 621 409 580 Q425 539 425 493 Q425 380 311 312 Q295 302 279.5 294 Q264 286 251.5 275 Q239 264 230 248 Q221 232 218 205 L98 205 L98 227 Q98 261 107.5 285.5 Q117 310 135 330.5 Q153 351 178.5 368 Q204 385 237 404 Q261 418 274.5 442.5 Q288 467 288 495 Q288 517 278.5 535.5 Q269 554 252.5 567 Q236 580 213.5 587 Q191 594 166 594 Q146 594 131.5 591.5 Q117 589 107 586 Q96 582 88 578 L48 682 Q107 718 180 718 Z " />
<glyph glyph-name="space" unicode="&#x20;" horiz-adv-x="275" d="" />
<glyph glyph-name="dieresis" unicode="&#xa8;" horiz-adv-x="479" d="M361 902 Q393 902 415 880 Q437 858 437 826 Q437 794 415 771.5 Q393 749 361 749 Q329 749 306.5 771.5 Q284 794 284 826 Q284 858 306.5 880 Q329 902 361 902 Z M119 902 Q151 902 173 880 Q195 858 195 826 Q195 794 173 771.5 Q151 749 119 749 Q87 749 64.5 771.5 Q42 794 42 826 Q42 858 64.5 880 Q87 902 119 902 Z " />
<glyph glyph-name="Odieresis" unicode="&#xd6;" horiz-adv-x="781" d="M382 719 Q454 719 518 690 Q582 661 629.5 611 Q677 561 704.5 495 Q732 429 732 354 Q732 280 704.5 213 Q677 146 629.5 96 Q582 46 518 16.5 Q454 -13 382 -13 Q310 -13 246 16.5 Q182 46 135 96 Q88 146 60.5 213 Q33 280 33 354 Q33 429 60.5 495 Q88 561 135 611 Q182 661 246 690 Q310 719 382 719 Z M382 138 Q423 138 459 155 Q495 172 522 201.5 Q549 231 564.5 270 Q580 309 580 354 Q580 399 564.5 438.5 Q549 478 522 507.5 Q495 537 459 554 Q423 571 382 571 Q341 571 305 554 Q269 537 242 507.5 Q215 478 199.5 438.5 Q184 399 184 354 Q184 309 199.5 270 Q215 231 242 201.5 Q269 172 305 155 Q341 138 382 138 Z M505 909 Q537 909 559 887 Q581 865 581 833 Q581 801 559 778.5 Q537 756 505 756 Q473 756 450.5 778.5 Q428 801 428 833 Q428 865 450.5 887 Q473 909 505 909 Z M263 909 Q295 909 317 887 Q339 865 339 833 Q339 801 317 778.5 Q295 756 263 756 Q231 756 208.5 778.5 Q186 801 186 833 Q186 865 208.5 887 Q231 909 263 909 Z " />
<glyph glyph-name="Udieresis" unicode="&#xdc;" horiz-adv-x="688" d="M472 709 L623 709 L623 256 Q623 203 601 154 Q579 105 541 68 Q503 31 452.5 9 Q402 -13 344 -13 Q287 -13 236 9 Q185 31 147.5 68 Q110 105 88 154 Q66 203 66 256 L66 709 L217 709 L217 286 Q217 256 227 229.5 Q237 203 254 182.5 Q271 162 294.5 150 Q318 138 344 138 Q371 138 394 150 Q417 162 434.5 182.5 Q452 203 462 229.5 Q472 256 472 286 L472 709 Z M466 909 Q498 909 520 887 Q542 865 542 833 Q542 801 520 778.5 Q498 756 466 756 Q434 756 411.5 778.5 Q389 801 389 833 Q389 865 411.5 887 Q434 909 466 909 Z M224 909 Q256 909 278 887 Q300 865 300 833 Q300 801 278 778.5 Q256 756 224 756 Q192 756 169.5 778.5 Q147 801 147 833 Q147 865 169.5 887 Q192 909 224 909 Z " />
<glyph glyph-name="odieresis" unicode="&#xf6;" horiz-adv-x="599" d="M290 510 Q343 510 390 489.5 Q437 469 472 433.5 Q507 398 527.5 350.5 Q548 303 548 249 Q548 195 527.5 147.5 Q507 100 472 64.5 Q437 29 390 8.5 Q343 -12 290 -12 Q236 -12 189 8.5 Q142 29 107 64.5 Q72 100 51.5 147.5 Q31 195 31 249 Q31 303 51.5 350.5 Q72 398 107 433.5 Q142 469 189 489.5 Q236 510 290 510 Z M290 109 Q315 109 336.5 119 Q358 129 374.5 146.5 Q391 164 400.5 188.5 Q410 213 410 243 Q410 273 400.5 299 Q391 325 374.5 344.5 Q358 364 336.5 375.5 Q315 387 290 387 Q265 387 243 375.5 Q221 364 204.5 344.5 Q188 325 178.5 299 Q169 273 169 243 Q169 213 178.5 188.5 Q188 164 204.5 146.5 Q221 129 243 119 Q265 109 290 109 Z M415 709 Q447 709 469 687 Q491 665 491 633 Q491 601 469 578.5 Q447 556 415 556 Q383 556 360.5 578.5 Q338 601 338 633 Q338 665 360.5 687 Q383 709 415 709 Z M173 709 Q205 709 227 687 Q249 665 249 633 Q249 601 227 578.5 Q205 556 173 556 Q141 556 118.5 578.5 Q96 601 96 633 Q96 665 118.5 687 Q141 709 173 709 Z " />
<glyph glyph-name="udieresis" unicode="&#xfc;" horiz-adv-x="581" d="M359 496 L497 496 L497 0 L379 0 L359 38 Q335 21 304.5 10.5 Q274 0 239 0 Q212 0 177.5 8 Q143 16 113 38 Q83 60 62.5 99 Q42 138 42 200 L42 496 L181 496 L181 205 Q181 182 188.5 166 Q196 150 208.5 140.5 Q221 131 237 126.5 Q253 122 270 122 Q283 122 298.5 126.5 Q314 131 327.5 141 Q341 151 350 167 Q359 183 359 205 L359 496 Z M395 710 Q427 710 449 688 Q471 666 471 634 Q471 602 449 579.5 Q427 557 395 557 Q363 557 340.5 579.5 Q318 602 318 634 Q318 666 340.5 688 Q363 710 395 710 Z M153 710 Q185 710 207 688 Q229 666 229 634 Q229 602 207 579.5 Q185 557 153 557 Q121 557 98.5 579.5 Q76 602 76 634 Q76 666 98.5 688 Q121 710 153 710 Z " />
<glyph glyph-name="Gbreve" unicode="&#x11e;" horiz-adv-x="724" d="M530 900 Q530 870 518.5 844 Q507 818 487.5 798.5 Q468 779 441.5 767.5 Q415 756 385 756 Q355 756 329 767.5 Q303 779 283.5 798.5 Q264 818 252.5 844 Q241 870 241 900 L337 900 Q337 880 351 866 Q365 852 385 852 Q405 852 419 866 Q433 880 433 900 L530 900 Z M398 401 L666 401 L666 141 Q606 65 533 26 Q460 -13 380 -13 Q308 -13 244 16.5 Q180 46 133 96 Q86 146 58.5 212.5 Q31 279 31 354 Q31 429 58.5 495 Q86 561 133 611 Q180 661 244 690 Q308 719 380 719 Q448 719 508.5 694 Q569 669 626 611 L538 504 Q496 543 459 556.5 Q422 570 381 570 Q339 570 302.5 553 Q266 536 239 507 Q212 478 196.5 438.5 Q181 399 181 354 Q181 309 196.5 270 Q212 231 239 201.5 Q266 172 302.5 155 Q339 138 381 138 Q418 138 454.5 151.5 Q491 165 528 196 L528 273 L398 273 L398 401 Z " />
<glyph glyph-name="gbreve" unicode="&#x11f;" horiz-adv-x="616" d="M457 709 Q457 679 445.5 653 Q434 627 414.5 607.5 Q395 588 368.5 576.5 Q342 565 312 565 Q282 565 256 576.5 Q230 588 210.5 607.5 Q191 627 179.5 653 Q168 679 168 709 L264 709 Q264 689 278 675 Q292 661 312 661 Q332 661 346 675 Q360 689 360 709 L457 709 Z M434 496 L552 496 L552 168 Q552 111 550.5 66.5 Q549 22 543 -13.5 Q537 -49 523.5 -77 Q510 -105 486 -129 Q442 -172 387.5 -188 Q333 -204 273 -204 Q222 -204 177 -192 Q132 -180 96 -159 L96 -30 Q105 -44 121.5 -55 Q138 -66 159.5 -74 Q181 -82 205.5 -86.5 Q230 -91 255 -91 Q288 -91 317 -82.5 Q346 -74 367.5 -55 Q389 -36 401.5 -7.5 Q414 21 414 62 L414 72 Q385 46 347 30.5 Q309 15 264 15 Q214 15 171.5 34.5 Q129 54 98 87.5 Q67 121 49.5 166.5 Q32 212 32 263 Q32 314 49.5 359 Q67 404 98 437.5 Q129 471 171.5 490.5 Q214 510 264 510 Q311 510 349 497.5 Q387 485 414 458 L434 496 Z M292 138 Q324 138 347 149.5 Q370 161 385 179 Q400 197 407 219 Q414 241 414 262 Q414 285 406.5 307.5 Q399 330 384 347.5 Q369 365 346 376 Q323 387 292 387 Q266 387 244 377 Q222 367 205.5 350 Q189 333 179.5 310.5 Q170 288 170 262 Q170 236 179.5 213.5 Q189 191 205.5 174 Q222 157 244 147.5 Q266 138 292 138 Z " />
<glyph glyph-name="Idotaccent" unicode="&#x130;" horiz-adv-x="387" d="M192 756 Q160 756 137.5 778 Q115 800 115 832 Q115 864 137.5 886.5 Q160 909 192 909 Q224 909 246 886.5 Q268 864 268 832 Q268 800 246 778 Q224 756 192 756 Z M322 709 L322 581 L269 581 L269 127 L322 127 L322 0 L64 0 L64 127 L117 127 L117 581 L64 581 L64 709 L322 709 Z " />
<glyph glyph-name="dotlessi" unicode="&#x131;" horiz-adv-x="262" d="M200 0 L62 0 L62 496 L200 496 L200 0 Z " />
<glyph glyph-name="Scedilla" unicode="&#x15e;" horiz-adv-x="616" d="M305 -44 Q329 -44 347 -52 Q365 -60 378 -72.5 Q391 -85 397.5 -101.5 Q404 -118 404 -135 Q404 -156 394.5 -173 Q385 -190 368.5 -201.5 Q352 -213 331 -219 Q310 -225 286 -225 Q255 -225 237 -220 Q226 -218 219 -215 L227 -165 Q234 -165 240 -165.5 Q246 -166 254 -166 Q276 -166 292 -158 Q308 -150 308 -133 Q308 -102 270 -102 Q262 -102 253 -104 Q244 -106 236 -111 L206 -83 L257 -10 Q215 -5 178.5 9 Q142 23 112 47 Q55 90 34 151 L174 216 Q174 206 181 191 Q188 176 203 162 Q218 148 242 138 Q266 128 301 128 Q346 128 374 144.5 Q402 161 411.5 182.5 Q421 204 411.5 225 Q402 246 373 256 Q333 270 288.5 279.5 Q244 289 202 303.5 Q160 318 124 342 Q88 366 67 409 Q51 441 48.5 476 Q46 511 55.5 544.5 Q65 578 84.5 607.5 Q104 637 132 659 Q169 688 215 703 Q261 718 312 719 Q363 719 409.5 704 Q456 689 493 660 Q529 633 550 597 L436 519 Q415 548 383.5 565.5 Q352 583 313 583 Q259 583 229.5 559 Q200 535 200 496 Q200 478 216.5 464 Q233 450 259.5 439 Q286 428 319 419.5 Q352 411 384.5 402.5 Q417 394 446 385 Q475 376 493 365 Q579 314 579 214 Q580 166 557 123.5 Q534 81 491 49 Q426 -1 338 -10 L305 -44 L305 -44 Z " />
<glyph glyph-name="scedilla" unicode="&#x15f;" horiz-adv-x="465" d="M232 -44 Q256 -44 274 -52 Q292 -60 305 -72.5 Q318 -85 324.5 -101.5 Q331 -118 331 -135 Q331 -156 321.5 -173 Q312 -190 295.5 -201.5 Q279 -213 258 -219 Q237 -225 213 -225 Q182 -225 164 -220 Q153 -218 146 -215 L154 -165 Q161 -165 167 -165.5 Q173 -166 181 -166 Q203 -166 219 -158 Q235 -150 235 -133 Q235 -102 197 -102 Q189 -102 180 -104 Q171 -106 163 -111 L133 -83 L186 -7 Q137 2 98 30 Q58 58 44 96 Q67 107 95 120.5 Q123 134 144 145 Q153 130 172 117.5 Q191 105 224 105 Q245 105 258.5 111.5 Q272 118 279.5 127 Q287 136 289 145.5 Q291 155 287 162 Q283 169 274 174 Q265 179 254.5 182.5 Q244 186 234.5 188 Q225 190 220 191 Q132 207 95 241 Q78 255 69.5 271.5 Q61 288 56.5 303 Q52 318 51.5 330.5 Q51 343 51 349 Q51 382 66 412 Q81 442 108 465 Q133 485 164 496.5 Q195 508 230 508 Q265 508 296.5 496.5 Q328 485 353 465 Q391 433 404 387 L297 351 Q291 369 272.5 380 Q254 391 233 391 Q212 391 199 377 Q186 363 186 349 Q186 328 201 321 Q210 315 220.5 312 Q231 309 241 307 Q288 299 319.5 287.5 Q351 276 373 260 Q428 221 428 149 Q428 114 411 83.5 Q394 53 363 30 Q322 0 267 -8 L232 -44 L232 -44 Z " />
<glyph glyph-name="ccedilla" unicode="&#xe7;" horiz-adv-x="525" d="M285 -44 Q309 -44 327 -52 Q345 -60 358 -72.5 Q371 -85 377.5 -101.5 Q384 -118 384 -135 Q384 -156 374.5 -173 Q365 -190 348.5 -201.5 Q332 -213 311 -219 Q290 -225 266 -225 Q235 -225 217 -220 Q206 -218 199 -215 L207 -165 Q214 -165 220 -165.5 Q226 -166 234 -166 Q256 -166 272 -158 Q288 -150 288 -133 Q288 -102 250 -102 Q242 -102 233 -104 Q224 -106 216 -111 L186 -83 L242 -3 Q200 7 164.5 31 Q129 55 103 88 Q77 121 62.5 162 Q48 203 48 249 Q48 303 68.5 350.5 Q89 398 124 433.5 Q159 469 206 489.5 Q253 510 307 510 Q368 510 420 484 Q472 458 508 413 L412 339 Q383 366 359.5 376.5 Q336 387 307 387 Q282 387 260 375.5 Q238 364 221.5 344.5 Q205 325 195.5 299 Q186 273 186 243 Q186 213 195.5 188.5 Q205 164 221.5 146.5 Q238 129 260 119 Q282 109 307 109 Q338 109 367.5 123.5 Q397 138 418 164 L503 80 Q469 39 421 14.5 Q373 -10 317 -12 L285 -44 L285 -44 Z " />
<glyph glyph-name="Ccedilla" unicode="&#xc7;" horiz-adv-x="688" d="M354 -44 Q378 -44 396 -52 Q414 -60 427 -72.5 Q440 -85 446.5 -101.5 Q453 -118 453 -135 Q453 -156 443.5 -173 Q434 -190 417.5 -201.5 Q401 -213 380 -219 Q359 -225 335 -225 Q304 -225 286 -220 Q275 -218 268 -215 L276 -165 Q283 -165 289 -165.5 Q295 -166 303 -166 Q325 -166 341 -158 Q357 -150 357 -133 Q357 -102 319 -102 Q311 -102 302 -104 Q293 -106 285 -111 L255 -83 L308 -7 Q247 5 195 37.5 Q143 70 105.5 118 Q68 166 46.5 226.5 Q25 287 25 354 Q25 429 52.5 495 Q80 561 127 611 Q174 661 238 690 Q302 719 374 719 Q441 719 501.5 694 Q562 669 620 611 L532 504 Q490 543 452.5 556.5 Q415 570 374 570 Q333 570 296.5 553 Q260 536 233 507 Q206 478 190.5 438.5 Q175 399 175 354 Q175 309 190.5 270 Q206 231 233 201.5 Q260 172 296.5 155 Q333 138 374 138 Q422 138 468 160 Q514 182 561 234 L659 141 Q603 69 531.5 30.5 Q460 -8 385 -12 L354 -44 L354 -44 Z " />
<glyph glyph-name="comma" unicode="&#x2c;" horiz-adv-x="302" d="M81 127 L236 127 L154 -144 L48 -144 L81 127 Z " />
<glyph glyph-name="a" unicode="a" horiz-adv-x="608" d="M564 496 L564 0 L445 0 L431 53 Q402 14 361.5 1 Q321 -12 277 -12 Q224 -12 179.5 8.5 Q135 29 102 64.5 Q69 100 50.5 147.5 Q32 195 32 249 Q32 303 50.5 350.5 Q69 398 102 433.5 Q135 469 179.5 489.5 Q224 510 277 510 Q325 510 365 495 Q405 480 431 447 L445 496 L564 496 Z M426 247 Q426 286 415.5 312.5 Q405 339 387.5 355.5 Q370 372 346.5 379.5 Q323 387 296 387 Q269 387 245.5 376 Q222 365 204 346.5 Q186 328 176 302.5 Q166 277 166 249 Q166 220 176 195 Q186 170 204 151.5 Q222 133 245.5 122 Q269 111 296 111 Q350 111 387.5 144.5 Q425 178 426 247 Z " />
<glyph glyph-name="ampersand" unicode="&#x26;" horiz-adv-x="697" d="M668 260 Q642 231 613 202.5 Q584 174 555 148 L689 0 L519 0 L458 66 Q411 31 358.5 5 Q306 -21 246 -21 Q208 -21 172 -8.5 Q136 4 107.5 28 Q79 52 62 87.5 Q45 123 45 170 Q45 233 81 287 Q117 341 171 385 L56 516 Q56 565 75 604 Q94 643 125 670 Q156 697 195.5 711.5 Q235 726 275 726 Q313 726 349 710.5 Q385 695 412.5 668.5 Q440 642 457 607.5 Q474 573 474 535 Q474 506 464.5 482 Q455 458 439.5 437.5 Q424 417 403 399 Q382 381 359 365 L472 242 Q483 250 493 262 Q503 274 514 285 L577 350 L668 260 Z M238 99 Q264 99 288.5 108.5 Q313 118 332 130 Q354 143 373 161 Q343 195 313 226 Q283 257 254 291 Q226 269 203 243 Q193 232 180.5 215 Q168 198 168 161 Q168 153 172.5 142 Q177 131 185.5 121.5 Q194 112 207 105.5 Q220 99 238 99 Z M266 603 Q242 603 228 593 Q214 583 207 572 Q199 558 197 541 L275 460 Q298 476 311.5 488.5 Q325 501 331.5 510 Q338 519 340 526.5 Q342 534 342 540 Q342 568 318 585.5 Q294 603 266 603 Z " />
<glyph glyph-name="percent" unicode="&#x25;" horiz-adv-x="754" d="M639 695 L186 -34 L106 16 L560 744 L639 695 Z M557 325 Q591 325 621.5 312 Q652 299 675 276 Q698 253 711 222.5 Q724 192 724 158 Q724 123 711 93 Q698 63 675 40 Q652 17 621.5 4 Q591 -9 557 -9 Q522 -9 492 4 Q462 17 439 40 Q416 63 403 93 Q390 123 390 158 Q390 192 403 222.5 Q416 253 439 276 Q462 299 492 312 Q522 325 557 325 Z M557 86 Q587 86 608 107.5 Q629 129 629 158 Q629 188 608 209 Q587 230 557 230 Q527 230 506 209 Q485 188 485 158 Q485 129 506 107.5 Q527 86 557 86 Z M199 723 Q233 723 263.5 710 Q294 697 317 674 Q340 651 353 620.5 Q366 590 366 556 Q366 521 353 491 Q340 461 317 438 Q294 415 263.5 402 Q233 389 199 389 Q164 389 134 402 Q104 415 81 438 Q58 461 45 491 Q32 521 32 556 Q32 590 45 620.5 Q58 651 81 674 Q104 697 134 710 Q164 723 199 723 Z M199 484 Q229 484 250 505 Q271 526 271 556 Q271 586 250 607 Q229 628 199 628 Q169 628 148 607 Q127 586 127 556 Q127 526 148 505 Q169 484 199 484 Z " />
<glyph glyph-name="dollar" unicode="&#x24;" horiz-adv-x="567" d="M462 348 Q544 300 544 204 Q544 163 528 128 Q512 93 484 66 Q456 39 417.5 20 Q379 1 334 -8 L334 -101 L249 -101 L249 -12 Q208 -9 171.5 4 Q135 17 105.5 37.5 Q76 58 54.5 85 Q33 112 23 144 L157 206 Q157 199 162 186 Q167 173 177.5 160.5 Q188 148 205.5 137.5 Q223 127 249 124 L249 270 Q202 282 163 298.5 Q124 315 96 338.5 Q68 362 52 394.5 Q36 427 36 471 Q36 514 54 551 Q72 588 101.5 616 Q131 644 169.5 661 Q208 678 249 683 L249 764 L334 764 L334 683 Q360 680 387 670.5 Q414 661 438 646.5 Q462 632 482.5 612.5 Q503 593 516 570 L407 495 Q393 515 375 528 Q357 541 334 550 L334 390 Q369 381 404 371 Q439 361 462 348 Z M238 419 Q241 418 243.5 417 Q246 416 249 415 L249 552 Q215 544 198 522.5 Q181 501 181 473 Q181 456 197.5 442.5 Q214 429 238 419 Z M384 174 Q388 182 388 194 Q388 214 373.5 228.5 Q359 243 334 248 L334 131 Q354 139 366.5 150 Q379 161 384 174 Z " />
<glyph glyph-name="numbersign" unicode="&#x23;" horiz-adv-x="740" d="M569 419 L538 240 L674 240 L674 145 L523 145 L497 -8 L404 8 L427 143 L252 143 L227 -8 L133 8 L156 141 L24 141 L24 237 L172 237 L202 416 L67 416 L67 511 L218 511 L243 664 L337 648 L314 513 L488 513 L514 664 L607 648 L584 515 L716 515 L716 420 L569 419 Z M472 417 L298 417 L268 239 L442 239 L472 417 Z " />
<glyph glyph-name="quotedbl" unicode="&#x22;" horiz-adv-x="404" d="M227 709 L364 709 L331 439 L244 439 L227 709 Z M60 439 L44 709 L180 709 L147 439 L60 439 Z " />
<glyph glyph-name="asterisk" unicode="&#x2a;" horiz-adv-x="488" d="M420 347 L336 284 L243 444 L153 285 L69 347 L195 478 L21 508 L52 608 L211 544 L191 709 L296 709 L277 546 L435 608 L466 508 L302 475 L420 347 Z " />
<glyph glyph-name="plus" unicode="&#x2b;" horiz-adv-x="523" d="M513 343 L513 249 L309 249 L309 44 L214 44 L214 249 L10 249 L10 343 L214 343 L214 548 L309 548 L309 343 L513 343 Z " />
<glyph glyph-name="hyphen" unicode="&#x2d;" horiz-adv-x="389" d="M342 228 L48 228 L48 322 L342 322 L342 228 Z " />
<glyph glyph-name="slash" unicode="&#x2f;" horiz-adv-x="547" d="M540 695 L87 -34 L7 16 L461 744 L540 695 Z " />
<glyph glyph-name="less" unicode="&#x3c;" horiz-adv-x="501" d="M50 203 L50 302 L460 505 L460 387 L159 253 L460 119 L460 2 L50 203 Z " />
<glyph glyph-name="equal" unicode="&#x3d;" horiz-adv-x="522" d="M48 450 L474 450 L474 355 L48 355 L48 450 Z M48 243 L474 243 L474 148 L48 148 L48 243 Z " />
<glyph glyph-name="greater" unicode="&#x3e;" horiz-adv-x="502" d="M52 2 L52 119 L353 253 L52 387 L52 505 L462 302 L462 203 L52 2 Z " />
<glyph glyph-name="at" unicode="&#x40;" horiz-adv-x="836" d="M420 726 Q507 726 578 698 Q649 670 699.5 619.5 Q750 569 778 498 Q806 427 806 341 Q806 290 796.5 254 Q787 218 773 194 Q759 170 743.5 156.5 Q728 143 716 137 Q690 124 659 124 Q626 124 595 140 Q564 156 540 187 Q514 160 480.5 145 Q447 130 406 130 Q364 130 327.5 146 Q291 162 264 189.5 Q237 217 221 253.5 Q205 290 205 332 Q205 374 221 410.5 Q237 447 264 474.5 Q291 502 327.5 518 Q364 534 406 534 Q438 534 467 524 Q496 514 519 496 Q519 502 521 508 Q523 513 526.5 518 Q530 523 538 526 L616 518 L598 304 L598 296 Q598 278 603.5 263.5 Q609 249 618 239.5 Q627 230 638 224.5 Q649 219 659 219 Q681 219 694.5 248.5 Q708 278 711 326 Q711 410 686.5 468.5 Q662 527 621.5 563.5 Q581 600 528.5 616 Q476 632 420 632 Q361 632 308 608 Q255 584 215 543 Q175 502 152 448 Q129 394 129 333 Q129 270 151.5 216.5 Q174 163 214.5 124 Q255 85 310.5 63 Q366 41 433 41 Q493 41 546 63 L582 -24 Q510 -54 432 -54 Q345 -54 272 -24.5 Q199 5 146 57 Q93 109 63.5 180 Q34 251 34 333 Q34 412 64.5 483.5 Q95 555 147.5 609 Q200 663 270.5 694.5 Q341 726 420 726 Z M406 225 Q431 225 449 234.5 Q467 244 478.5 259 Q490 274 495.5 293 Q501 312 501 332 Q501 351 495.5 370.5 Q490 390 478.5 405 Q467 420 449 429.5 Q431 439 406 439 Q384 439 364.5 430.5 Q345 422 330.5 407.5 Q316 393 307.5 373.5 Q299 354 299 332 Q299 310 307.5 290.5 Q316 271 330.5 256.5 Q345 242 364.5 233.5 Q384 225 406 225 Z " />
<glyph glyph-name="grave" unicode="&#x60;" horiz-adv-x="242" d="M171 710 L185 531 L83 531 L20 710 L171 710 Z " />
<glyph glyph-name="underscore" unicode="&#x5f;" horiz-adv-x="597" d="M48 0 L549 0 L549 -95 L48 -95 L48 0 Z " />
<glyph glyph-name="asciicircum" unicode="&#x5e;" horiz-adv-x="452" d="M428 414 L322 414 L226 609 L130 414 L24 414 L175 719 L277 719 L428 414 Z " />
<glyph glyph-name="bracketright" unicode="&#x5d;" horiz-adv-x="312" d="M265 -158 L44 -158 L44 -63 L170 -63 L170 728 L44 728 L44 823 L265 823 L265 -158 Z " />
<glyph glyph-name="backslash" unicode="&#x5c;" horiz-adv-x="547" d="M7 695 L86 744 L540 16 L460 -34 L7 695 Z " />
<glyph glyph-name="bracketleft" unicode="&#x5b;" horiz-adv-x="325" d="M48 823 L268 823 L268 728 L143 728 L143 -63 L268 -63 L268 -158 L48 -158 L48 823 Z " />
<glyph glyph-name="asciitilde" unicode="&#x7e;" horiz-adv-x="594" d="M396 304 Q417 304 435.5 309 Q454 314 469 321.5 Q484 329 494 337 Q504 345 509 351 L567 299 Q564 296 549.5 281.5 Q535 267 511.5 251 Q488 235 457.5 222.5 Q427 210 392 210 Q356 210 332.5 221.5 Q309 233 289.5 246.5 Q270 260 251 271.5 Q232 283 206 283 Q182 283 162 276 Q142 269 127 260.5 Q112 252 103.5 245 Q95 238 94 237 L27 276 Q28 277 39 293.5 Q50 310 72 328.5 Q94 347 127.5 362.5 Q161 378 206 378 Q246 378 274.5 366.5 Q303 355 324.5 341 Q346 327 362.5 315.5 Q379 304 396 304 Z " />
<glyph glyph-name="braceright" unicode="&#x7d;" horiz-adv-x="301" d="M87 206 Q88 238 103.5 266 Q119 294 148 311 L167 320 Q169 322 175.5 324 Q182 326 187 326 Q163 335 144 351.5 Q125 368 112.5 390 Q100 412 93.5 436.5 Q87 461 87 485 L87 681 Q87 691 84.5 703 Q82 715 76 725 Q70 735 60.5 741.5 Q51 748 37 748 L37 826 Q67 826 93.5 814.5 Q120 803 139.5 783.5 Q159 764 170.5 737.5 Q182 711 182 681 L182 467 Q182 461 185.5 447.5 Q189 434 201 418.5 Q213 403 235 389.5 Q257 376 295 372 L295 274 Q256 270 233 259 Q210 248 199 235.5 Q188 223 185 212.5 Q182 202 182 200 L182 -20 Q182 -50 170.5 -76.5 Q159 -103 139.5 -122.5 Q120 -142 93.5 -153.5 Q67 -165 37 -165 L37 -87 Q52 -87 62 -80.5 Q72 -74 77.5 -64 Q83 -54 85 -42.5 Q87 -31 87 -20 L87 206 Z " />
<glyph glyph-name="bar" unicode="&#x7c;" horiz-adv-x="188" d="M48 816 L142 816 L142 -160 L48 -160 L48 816 Z " />
<glyph glyph-name="braceleft" unicode="&#x7b;" horiz-adv-x="301" d="M214 546 Q214 531 214.5 515.5 Q215 500 215 485 Q215 465 209.5 439 Q204 413 192 390 Q180 367 160.5 351 Q141 335 114 335 Q138 326 157 309 Q176 292 188.5 270.5 Q201 249 207.5 224.5 Q214 200 214 176 L214 -20 Q214 -31 216.5 -42.5 Q219 -54 225 -64 Q231 -74 240.5 -80.5 Q250 -87 264 -87 L264 -165 Q234 -165 207.5 -153.5 Q181 -142 161.5 -122.5 Q142 -103 131 -76.5 Q120 -50 120 -20 L120 194 Q119 200 115.5 213.5 Q112 227 100.5 242.5 Q89 258 66.5 271 Q44 284 6 289 L6 387 Q45 391 68 402 Q91 413 102 425.5 Q113 438 116.5 448.5 Q120 459 120 461 L120 681 Q120 711 131 737.5 Q142 764 161.5 783.5 Q181 803 207.5 814.5 Q234 826 264 826 L264 748 Q249 748 239 741.5 Q229 735 223.5 725 Q218 715 216 703 Q214 691 214 681 L214 546 Z " />
<glyph glyph-name="degree" unicode="&#xb0;" horiz-adv-x="386" d="M193 667 Q226 667 255 654.5 Q284 642 305.5 621 Q327 600 339.5 571 Q352 542 352 509 Q352 476 339.5 447 Q327 418 305.5 396.5 Q284 375 255 362.5 Q226 350 193 350 Q160 350 131 362.5 Q102 375 80.5 396.5 Q59 418 46.5 447 Q34 476 34 509 Q34 542 46.5 571 Q59 600 80.5 621 Q102 642 131 654.5 Q160 667 193 667 Z M193 440 Q222 440 242 460 Q262 480 262 509 Q262 537 242 557 Q222 577 193 577 Q164 577 144 557 Q124 537 124 509 Q124 480 144 460 Q164 440 193 440 Z " />
<glyph glyph-name="cent" unicode="&#xa2;" horiz-adv-x="471" d="M213 0 L213 73 Q172 84 137 106 Q102 128 76.5 159 Q51 190 36.5 229 Q22 268 22 312 Q22 355 37 395 Q52 435 77.5 466.5 Q103 498 138 520 Q173 542 213 550 L213 648 L304 648 L304 552 Q347 546 385.5 522.5 Q424 499 452 465 L362 396 Q330 425 304 434 L304 188 Q322 194 338.5 205 Q355 216 368 233 L447 154 Q421 122 384 100.5 Q347 79 304 71 L304 0 L213 0 Z M184 216 Q191 209 198 204 Q205 199 213 194 L213 426 Q184 406 167.5 375.5 Q151 345 151 306 Q151 252 184 216 Z " />
<glyph glyph-name="sterling" unicode="&#xa3;" horiz-adv-x="554" d="M369 123 Q385 123 403.5 129.5 Q422 136 438.5 145 Q455 154 468 163 Q481 172 488 177 L565 79 Q536 57 503 39 Q475 24 439.5 12 Q404 0 369 0 L55 0 L60 66 Q61 69 63 104 Q65 139 70 190 L76 259 L26 259 L26 384 L83 384 L83 389 Q83 400 83 413.5 Q83 427 84 438 Q84 451 85 463 Q85 541 107 588 Q129 635 161.5 660.5 Q194 686 230.5 694 Q267 702 297 702 Q352 702 392 681 Q432 660 458.5 629 Q485 598 499 564 Q513 530 518 505 L395 481 Q394 485 389.5 500.5 Q385 516 374.5 533.5 Q364 551 345 565 Q326 579 297 579 Q272 579 254.5 572 Q237 565 226.5 544 Q216 523 211 485 Q206 447 206 384 L383 384 L383 259 L198 259 L188 123 L369 123 L369 123 Z " />
<glyph glyph-name="AE" unicode="&#xc6;" horiz-adv-x="978" d="M487 152 L254 152 L191 0 L26 0 L322 709 L930 709 L930 571 L639 571 L639 443 L895 443 L895 305 L639 305 L639 137 L930 137 L930 0 L487 0 L487 152 Z M487 290 L487 571 L431 571 L312 290 L487 290 Z " />
<glyph glyph-name="notequal" unicode="&#x2260;" horiz-adv-x="526" d="M48 450 L474 450 L474 355 L48 355 L48 450 Z M48 243 L474 243 L474 148 L48 148 L48 243 Z " />
<glyph glyph-name="acute" unicode="&#xb4;" horiz-adv-x="244" d="M225 710 L162 531 L60 531 L74 710 L225 710 Z " />
<glyph glyph-name="trademark" unicode="&#x2122;" horiz-adv-x="681" d="M38 709 L265 709 L265 639 L189 639 L189 400 L114 400 L114 639 L38 639 L38 709 Z M564 709 L633 709 L633 400 L558 400 L558 581 Q542 561 527 539 Q512 517 497 497 L440 497 L377 580 L377 400 L301 400 L301 709 L371 709 L468 576 L564 709 Z " />
<glyph glyph-name="copyright" unicode="&#xa9;" horiz-adv-x="849" d="M484 231 Q508 242 534 270 L586 221 Q556 181 516 160 Q476 139 431 139 Q395 139 361.5 153.5 Q328 168 303 194.5 Q278 221 263 257 Q248 293 248 335 Q248 376 263 411.5 Q278 447 303.5 473 Q329 499 362.5 514 Q396 529 434 529 Q471 529 503 515.5 Q535 502 565 472 L519 415 Q496 435 476.5 442.5 Q457 450 434 450 Q410 450 390.5 440 Q371 430 357 414 Q343 398 335.5 377 Q328 356 328 335 Q328 308 337 287 Q346 266 361 251 Q376 236 395 228 Q414 220 434 220 Q462 220 484 231 Z M424 686 Q497 686 561 658.5 Q625 631 673 583 Q721 535 748.5 471 Q776 407 776 334 Q776 261 748.5 197 Q721 133 673 85 Q625 37 561 9.5 Q497 -18 424 -18 Q352 -18 288 9.5 Q224 37 176 85 Q128 133 100.5 197 Q73 261 73 334 Q73 407 100.5 471 Q128 535 176 583 Q224 631 288 658.5 Q352 686 424 686 Z M424 68 Q479 68 527.5 89 Q576 110 612 146 Q648 182 669 230.5 Q690 279 690 334 Q690 389 669 437.5 Q648 486 612 522 Q576 558 527.5 579 Q479 600 424 600 Q369 600 320.5 579 Q272 558 236 522 Q200 486 179 437.5 Q158 389 158 334 Q158 279 179 230.5 Q200 182 236 146 Q272 110 320.5 89 Q369 68 424 68 Z " />
<glyph glyph-name="registered" unicode="&#xae;" horiz-adv-x="850" d="M525 322 Q518 317 511.5 313 Q505 309 497 305 L605 167 L528 145 L411 297 L375 297 L375 145 L294 145 L294 523 L457 523 Q478 523 500 515 Q510 510 518 504 Q526 498 534 491 Q549 476 557 455 Q566 434 566 410 Q566 394 561 376 Q558 368 554.5 361 Q551 354 546 347 Q539 334 525 322 Z M474 383 Q485 396 485 410 Q485 425 474 438 Q463 449 447 449 L375 449 L375 371 L447 371 Q462 371 474 383 Z M425 686 Q497 686 561 658.5 Q625 631 673 583 Q721 535 749 471 Q777 407 777 334 Q777 261 749 197 Q721 133 673 85 Q625 37 561 9.5 Q497 -18 425 -18 Q352 -18 288 9.5 Q224 37 176 85 Q128 133 100.5 197 Q73 261 73 334 Q73 407 100.5 471 Q128 535 176 583 Q224 631 288 658.5 Q352 686 425 686 Z M425 68 Q480 68 528.5 89 Q577 110 613 146 Q649 182 670 230.5 Q691 279 691 334 Q691 389 670 437.5 Q649 486 613 522 Q577 558 528.5 579 Q480 600 425 600 Q370 600 321.5 579 Q273 558 237 522 Q201 486 180 437.5 Q159 389 159 334 Q159 279 180 230.5 Q201 182 237 146 Q273 110 321.5 89 Q370 68 425 68 Z " />
<glyph glyph-name="paragraph" unicode="&#xb6;" horiz-adv-x="645" d="M617 709 L617 614 L487 614 L487 -156 L389 -156 L389 614 L308 614 L308 -156 L210 -156 L210 323 Q171 324 137.5 340 Q104 356 79 382 Q54 408 39.5 442.5 Q25 477 25 516 Q25 555 39.5 589.5 Q54 624 79 650 Q104 676 137.5 691.5 Q171 707 210 709 L617 709 Z " />
<glyph glyph-name="bullet" unicode="&#x2022;" horiz-adv-x="374" d="M79 169 Q35 212 35 276 Q35 340 79 383 Q125 427 187 427 Q251 427 295 383 Q340 339 340 276 Q340 212 295 169 Q251 127 187 127 Q124 127 79 169 Z " />
<glyph glyph-name="quoteleft" unicode="&#x2018;" horiz-adv-x="245" d="M224 436 L118 436 L36 707 L191 707 L224 436 Z " />
<glyph glyph-name="quoteright" unicode="&#x2019;" horiz-adv-x="244" d="M69 709 L224 709 L142 438 L36 438 L69 709 Z " />
<glyph glyph-name="quotesingle" unicode="&#x27;" horiz-adv-x="219" d="M40 709 L186 709 L154 439 L56 439 L40 709 Z " />
<glyph glyph-name="logicalnot" unicode="&#xac;" horiz-adv-x="559" d="M511 137 L416 137 L416 337 L8 337 L8 432 L511 432 L511 137 Z " />
<glyph glyph-name="exclamdown" unicode="&#xa1;" horiz-adv-x="236" d="M118 358 Q86 358 64 380 Q42 402 42 434 Q42 466 64 488 Q86 510 118 510 Q150 510 172.5 488 Q195 466 195 434 Q195 402 172.5 380 Q150 358 118 358 Z M179 297 L191 -207 L45 -207 L56 297 L179 297 Z " />
<glyph glyph-name="questiondown" unicode="&#xbf;" horiz-adv-x="429" d="M287 358 Q255 358 232.5 380 Q210 402 210 434 Q210 466 232.5 488 Q255 510 287 510 Q319 510 341 488 Q363 466 363 434 Q363 402 341 380 Q319 358 287 358 Z M261 -216 Q201 -216 155 -198 Q109 -180 78.5 -149.5 Q48 -119 32 -78 Q16 -37 16 9 Q16 122 130 190 Q146 200 161.5 208 Q177 216 189.5 227 Q202 238 211 254 Q220 270 223 297 L343 297 L343 275 Q343 241 333.5 216.5 Q324 192 306 171.5 Q288 151 262.5 134 Q237 117 204 98 Q180 84 166.5 59.5 Q153 35 153 7 Q153 -15 162.5 -33.5 Q172 -52 188.5 -65 Q205 -78 227.5 -85 Q250 -92 275 -92 Q295 -92 309.5 -89.5 Q324 -87 334 -84 Q345 -80 353 -76 L393 -180 Q334 -216 261 -216 Z " />
<glyph glyph-name="quotedblleft" unicode="&#x201c;" horiz-adv-x="446" d="M413 436 L317 436 L235 707 L380 707 L413 436 Z M220 436 L124 436 L42 707 L187 707 L220 436 Z " />
<glyph glyph-name="quotedblright" unicode="&#x201d;" horiz-adv-x="447" d="M75 709 L220 709 L138 438 L42 438 L75 709 Z M270 709 L415 709 L333 438 L237 438 L270 709 Z " />
<glyph glyph-name="adieresis" unicode="&#xe4;" horiz-adv-x="608" d="M564 496 L564 0 L445 0 L431 53 Q402 14 361.5 1 Q321 -12 277 -12 Q224 -12 179.5 8.5 Q135 29 102 64.5 Q69 100 50.5 147.5 Q32 195 32 249 Q32 303 50.5 350.5 Q69 398 102 433.5 Q135 469 179.5 489.5 Q224 510 277 510 Q325 510 365 495 Q405 480 431 447 L445 496 L564 496 Z M426 247 Q426 286 415.5 312.5 Q405 339 387.5 355.5 Q370 372 346.5 379.5 Q323 387 296 387 Q269 387 245.5 376 Q222 365 204 346.5 Q186 328 176 302.5 Q166 277 166 249 Q166 220 176 195 Q186 170 204 151.5 Q222 133 245.5 122 Q269 111 296 111 Q350 111 387.5 144.5 Q425 178 426 247 Z M432 709 Q464 709 486 687 Q508 665 508 633 Q508 601 486 578.5 Q464 556 432 556 Q400 556 377.5 578.5 Q355 601 355 633 Q355 665 377.5 687 Q400 709 432 709 Z M190 709 Q222 709 244 687 Q266 665 266 633 Q266 601 244 578.5 Q222 556 190 556 Q158 556 135.5 578.5 Q113 601 113 633 Q113 665 135.5 687 Q158 709 190 709 Z " />
<glyph glyph-name="Adieresis" unicode="&#xc4;" horiz-adv-x="783" d="M483 709 L779 0 L615 0 L551 152 L250 152 L187 0 L22 0 L318 709 L483 709 Z M494 290 L401 513 L308 290 L494 290 Z M515 897 Q547 897 569 875 Q591 853 591 821 Q591 789 569 766.5 Q547 744 515 744 Q483 744 460.5 766.5 Q438 789 438 821 Q438 853 460.5 875 Q483 897 515 897 Z M273 897 Q305 897 327 875 Q349 853 349 821 Q349 789 327 766.5 Q305 744 273 744 Q241 744 218.5 766.5 Q196 789 196 821 Q196 853 218.5 875 Q241 897 273 897 Z " />
<glyph glyph-name="fl" unicode="&#xfb02;" horiz-adv-x="583" d="M402 619 Q388 622 374.5 623 Q361 624 349 624 Q295 624 261 602 Q227 580 227 548 L227 496 L330 496 L330 373 L227 373 L227 0 L90 0 L90 373 L25 373 L25 446 L90 496 L90 541 Q90 591 108.5 628 Q127 665 161 689 Q195 713 244 725 Q293 737 354 737 Q438 737 540 716 L540 0 L402 0 L402 619 Z " />
<glyph glyph-name="ffi" unicode="&#xfb03;" horiz-adv-x="900" d="M863 0 L725 0 L725 373 L567 373 L567 0 L430 0 L430 373 L234 373 L234 0 L97 0 L97 373 L32 373 L32 446 L97 496 L97 538 Q97 590 112.5 627.5 Q128 665 154 689.5 Q180 714 214 725.5 Q248 737 286 737 Q309 737 332 733 Q355 729 378 721 L367 620 L334 625 Q326 626 319.5 626.5 Q313 627 307 627 Q269 627 251.5 608.5 Q234 590 234 555 L234 496 L430 496 L430 540 Q430 593 448.5 630.5 Q467 668 498 691.5 Q529 715 568.5 726 Q608 737 650 737 Q700 737 747.5 723 Q795 709 830 684 L793 594 Q764 605 728.5 613.5 Q693 622 660 622 Q622 622 594.5 607.5 Q567 593 567 557 L567 496 L863 496 L863 0 Z " />
<glyph glyph-name="fi" unicode="&#xfb01;" horiz-adv-x="547" d="M512 0 L374 0 L374 373 L226 373 L226 0 L89 0 L89 373 L24 373 L24 446 L89 496 L89 539 Q89 592 107.5 629.5 Q126 667 157 690.5 Q188 714 227.5 725 Q267 736 309 736 Q359 736 406.5 722 Q454 708 489 683 L452 593 Q423 604 387.5 612.5 Q352 621 319 621 Q281 621 253.5 606.5 Q226 592 226 556 L226 496 L512 496 L512 0 Z " />
<glyph glyph-name="ffl" unicode="&#xfb04;" horiz-adv-x="927" d="M745 616 Q731 619 717.5 620 Q704 621 692 621 Q638 621 604 599 Q570 577 570 545 L570 496 L673 496 L673 373 L570 373 L570 0 L433 0 L433 373 L234 373 L234 0 L97 0 L97 373 L32 373 L32 446 L97 496 L97 537 Q97 589 112.5 626.5 Q128 664 154 688.5 Q180 713 214 724.5 Q248 736 286 736 Q309 736 332 732 Q355 728 378 720 L367 619 L334 624 Q326 625 319.5 625.5 Q313 626 307 626 Q269 626 252 607.5 Q235 589 234 554 L234 496 L433 496 L433 538 Q433 588 451.5 625 Q470 662 504 686 Q538 710 587 722 Q636 734 697 734 Q781 734 883 713 L883 0 L745 0 L745 616 Z " />
<glyph glyph-name="ff" unicode="&#xfb00;" horiz-adv-x="736" d="M431 538 Q431 590 446.5 627.5 Q462 665 488 689.5 Q514 714 548 725.5 Q582 737 620 737 Q643 737 666 733 Q689 729 712 721 L701 620 L668 625 Q660 626 653.5 626.5 Q647 627 641 627 Q603 627 585.5 608.5 Q568 590 568 555 L568 496 L701 496 L701 373 L568 373 L568 0 L431 0 L431 373 L232 373 L232 0 L95 0 L95 373 L30 373 L30 446 L95 496 L95 538 Q95 590 110.5 627.5 Q126 665 152 689.5 Q178 714 212 725.5 Q246 737 284 737 Q307 737 330 733 Q353 729 376 721 L365 620 L332 625 Q324 626 317.5 626.5 Q311 627 305 627 Q267 627 249.5 608.5 Q232 590 232 555 L232 496 L431 496 L431 538 L431 538 Z " />
<glyph glyph-name="ring" unicode="&#x2da;" horiz-adv-x="409" d="M221 801 Q246 801 267.5 791.5 Q289 782 305 766 Q321 750 330.5 728.5 Q340 707 340 682 Q340 657 330.5 635.5 Q321 614 305 598 Q289 582 267.5 572.5 Q246 563 221 563 Q196 563 174 572.5 Q152 582 136 598 Q120 614 111 635.5 Q102 657 102 682 Q102 707 111 728.5 Q120 750 136 766 Q152 782 174 791.5 Q196 801 221 801 Z M221 643 Q237 643 248 654.5 Q259 666 259 682 Q259 698 248 709 Q237 720 221 720 Q204 720 193 709 Q182 698 182 682 Q182 666 193 654.5 Q204 643 221 643 Z " />
<glyph glyph-name="tilde" unicode="&#x2dc;" horiz-adv-x="833" d="M510 835 Q523 835 537 840.5 Q551 846 564 854 Q577 862 586.5 870 Q596 878 600 884 L645 830 Q643 827 631.5 812 Q620 797 602 780.5 Q584 764 560.5 750.5 Q537 737 510 737 Q482 737 464 749 Q446 761 431 775.5 Q416 790 401.5 802 Q387 814 367 814 Q342 814 319 800 Q296 786 281 766 Q261 781 250.5 789 Q240 797 235 801 Q229 805 229 807 Q231 811 240.5 828 Q250 845 267 864 Q284 883 309 898 Q334 913 367 913 Q397 913 418.5 901 Q440 889 456 874 Q472 859 484.5 847 Q497 835 510 835 Z " />
<glyph glyph-name="circumflex" unicode="&#x2c6;" horiz-adv-x="833" d="M375 737 L254 737 L375 872 L506 872 L622 737 L500 737 L440 825 L375 737 Z " />
<glyph glyph-name="caron" unicode="&#x2c7;" horiz-adv-x="833" d="M501 871 L622 871 L501 736 L370 736 L254 871 L376 871 L436 783 L501 871 Z " />
<glyph glyph-name="dotaccent" unicode="&#x2d9;" horiz-adv-x="345" d="M177 750 Q145 750 122.5 772 Q100 794 100 826 Q100 858 122.5 880.5 Q145 903 177 903 Q209 903 231 880.5 Q253 858 253 826 Q253 794 231 772 Q209 750 177 750 Z " />
<glyph glyph-name="ogonek" unicode="&#x2db;" horiz-adv-x="297" d="M188 -38 Q173 -53 157 -76.5 Q141 -100 141 -123 Q141 -134 147 -140.5 Q153 -147 163 -150.5 Q173 -154 184 -155 Q195 -156 206 -156 Q214 -156 220 -155.5 Q226 -155 233 -155 L241 -205 Q233 -208 223 -210 Q203 -215 174 -215 Q150 -215 129 -209 Q108 -203 91.5 -191.5 Q75 -180 65.5 -163 Q56 -146 56 -125 Q56 -99 68.5 -78.5 Q81 -58 98 -38 L188 -38 Z " />
<glyph glyph-name="radical" unicode="&#x221a;" horiz-adv-x="659" d="M178 361 L296 110 L589 730 L691 730 L348 0 L244 0 L126 251 L80 151 L-5 191 L75 360 L178 361 Z " />
<glyph glyph-name="hungarumlaut" unicode="&#x2dd;" horiz-adv-x="488" d="M225 710 L162 531 L60 531 L74 710 L225 710 Z M439 710 L376 531 L274 531 L288 710 L439 710 Z " />
<glyph glyph-name="Aring" unicode="&#xc5;" horiz-adv-x="801" d="M400 867 Q425 867 446.5 857.5 Q468 848 484 832 Q500 816 509.5 794.5 Q519 773 519 748 Q519 728 513 710 Q507 692 496 677 L779 0 L615 0 L551 152 L250 152 L187 0 L22 0 L304 676 Q281 707 281 748 Q281 773 290 794.5 Q299 816 315 832 Q331 848 353 857.5 Q375 867 400 867 Z M494 290 L401 513 L308 290 L494 290 Z M400 709 Q416 709 427 720.5 Q438 732 438 748 Q438 764 427 775 Q416 786 400 786 Q383 786 372 775 Q361 764 361 748 Q361 732 372 720.5 Q383 709 400 709 Z " />
<glyph glyph-name="Eacute" unicode="&#xc9;" horiz-adv-x="539" d="M48 709 L491 709 L491 571 L200 571 L200 443 L456 443 L456 305 L200 305 L200 137 L491 137 L491 0 L48 0 L48 709 Z M352 935 L289 756 L187 756 L201 935 L352 935 Z " />
<glyph glyph-name="Ntilde" unicode="&#xd1;" horiz-adv-x="730" d="M532 709 L683 709 L683 0 L539 0 L198 463 L198 0 L47 0 L47 709 L189 709 L532 243 L532 709 Z M438 854 Q451 854 465 859.5 Q479 865 492 873 Q505 881 514.5 889 Q524 897 528 903 L573 849 Q571 846 559.5 831 Q548 816 530 799.5 Q512 783 488.5 769.5 Q465 756 438 756 Q410 756 392 768 Q374 780 359 794.5 Q344 809 329.5 821 Q315 833 295 833 Q270 833 247 819 Q224 805 209 785 Q189 800 178.5 808 Q168 816 163 820 Q157 824 157 826 Q159 830 168.5 847 Q178 864 195 883 Q212 902 237 917 Q262 932 295 932 Q325 932 346.5 920 Q368 908 384 893 Q400 878 412.5 866 Q425 854 438 854 Z " />
<glyph glyph-name="aacute" unicode="&#xe1;" horiz-adv-x="608" d="M564 496 L564 0 L445 0 L431 53 Q402 14 361.5 1 Q321 -12 277 -12 Q224 -12 179.5 8.5 Q135 29 102 64.5 Q69 100 50.5 147.5 Q32 195 32 249 Q32 303 50.5 350.5 Q69 398 102 433.5 Q135 469 179.5 489.5 Q224 510 277 510 Q325 510 365 495 Q405 480 431 447 L445 496 L564 496 Z M426 247 Q426 286 415.5 312.5 Q405 339 387.5 355.5 Q370 372 346.5 379.5 Q323 387 296 387 Q269 387 245.5 376 Q222 365 204 346.5 Q186 328 176 302.5 Q166 277 166 249 Q166 220 176 195 Q186 170 204 151.5 Q222 133 245.5 122 Q269 111 296 111 Q350 111 387.5 144.5 Q425 178 426 247 Z M393 710 L330 531 L228 531 L242 710 L393 710 Z " />
<glyph glyph-name="agrave" unicode="&#xe0;" horiz-adv-x="608" d="M564 496 L564 0 L445 0 L431 53 Q402 14 361.5 1 Q321 -12 277 -12 Q224 -12 179.5 8.5 Q135 29 102 64.5 Q69 100 50.5 147.5 Q32 195 32 249 Q32 303 50.5 350.5 Q69 398 102 433.5 Q135 469 179.5 489.5 Q224 510 277 510 Q325 510 365 495 Q405 480 431 447 L445 496 L564 496 Z M426 247 Q426 286 415.5 312.5 Q405 339 387.5 355.5 Q370 372 346.5 379.5 Q323 387 296 387 Q269 387 245.5 376 Q222 365 204 346.5 Q186 328 176 302.5 Q166 277 166 249 Q166 220 176 195 Q186 170 204 151.5 Q222 133 245.5 122 Q269 111 296 111 Q350 111 387.5 144.5 Q425 178 426 247 Z M331 710 L345 531 L243 531 L180 710 L331 710 Z " />
<glyph glyph-name="acircumflex" unicode="&#xe2;" horiz-adv-x="608" d="M564 496 L564 0 L445 0 L431 53 Q402 14 361.5 1 Q321 -12 277 -12 Q224 -12 179.5 8.5 Q135 29 102 64.5 Q69 100 50.5 147.5 Q32 195 32 249 Q32 303 50.5 350.5 Q69 398 102 433.5 Q135 469 179.5 489.5 Q224 510 277 510 Q325 510 365 495 Q405 480 431 447 L445 496 L564 496 Z M426 247 Q426 286 415.5 312.5 Q405 339 387.5 355.5 Q370 372 346.5 379.5 Q323 387 296 387 Q269 387 245.5 376 Q222 365 204 346.5 Q186 328 176 302.5 Q166 277 166 249 Q166 220 176 195 Q186 170 204 151.5 Q222 133 245.5 122 Q269 111 296 111 Q350 111 387.5 144.5 Q425 178 426 247 Z M250 575 L129 575 L250 710 L381 710 L497 575 L375 575 L315 663 L250 575 Z " />
<glyph glyph-name="atilde" unicode="&#xe3;" horiz-adv-x="608" d="M564 496 L564 0 L445 0 L431 53 Q402 14 361.5 1 Q321 -12 277 -12 Q224 -12 179.5 8.5 Q135 29 102 64.5 Q69 100 50.5 147.5 Q32 195 32 249 Q32 303 50.5 350.5 Q69 398 102 433.5 Q135 469 179.5 489.5 Q224 510 277 510 Q325 510 365 495 Q405 480 431 447 L445 496 L564 496 Z M426 247 Q426 286 415.5 312.5 Q405 339 387.5 355.5 Q370 372 346.5 379.5 Q323 387 296 387 Q269 387 245.5 376 Q222 365 204 346.5 Q186 328 176 302.5 Q166 277 166 249 Q166 220 176 195 Q186 170 204 151.5 Q222 133 245.5 122 Q269 111 296 111 Q350 111 387.5 144.5 Q425 178 426 247 Z M384 659 Q397 659 411 664.5 Q425 670 438 678 Q451 686 460.5 694 Q470 702 474 708 L519 654 Q517 651 505.5 636 Q494 621 476 604.5 Q458 588 434.5 574.5 Q411 561 384 561 Q356 561 338 573 Q320 585 305 599.5 Q290 614 275.5 626 Q261 638 241 638 Q216 638 193 624 Q170 610 155 590 Q135 605 124.5 613 Q114 621 109 625 Q103 629 103 631 Q105 635 114.5 652 Q124 669 141 688 Q158 707 183 722 Q208 737 241 737 Q271 737 292.5 725 Q314 713 330 698 Q346 683 358.5 671 Q371 659 384 659 Z " />
<glyph glyph-name="aring" unicode="&#xe5;" horiz-adv-x="608" d="M564 496 L564 0 L445 0 L431 53 Q402 14 361.5 1 Q321 -12 277 -12 Q224 -12 179.5 8.5 Q135 29 102 64.5 Q69 100 50.5 147.5 Q32 195 32 249 Q32 303 50.5 350.5 Q69 398 102 433.5 Q135 469 179.5 489.5 Q224 510 277 510 Q325 510 365 495 Q405 480 431 447 L445 496 L564 496 Z M426 247 Q426 286 415.5 312.5 Q405 339 387.5 355.5 Q370 372 346.5 379.5 Q323 387 296 387 Q269 387 245.5 376 Q222 365 204 346.5 Q186 328 176 302.5 Q166 277 166 249 Q166 220 176 195 Q186 170 204 151.5 Q222 133 245.5 122 Q269 111 296 111 Q350 111 387.5 144.5 Q425 178 426 247 Z M312 801 Q337 801 358.5 791.5 Q380 782 396 766 Q412 750 421.5 728.5 Q431 707 431 682 Q431 657 421.5 635.5 Q412 614 396 598 Q380 582 358.5 572.5 Q337 563 312 563 Q287 563 265 572.5 Q243 582 227 598 Q211 614 202 635.5 Q193 657 193 682 Q193 707 202 728.5 Q211 750 227 766 Q243 782 265 791.5 Q287 801 312 801 Z M312 643 Q328 643 339 654.5 Q350 666 350 682 Q350 698 339 709 Q328 720 312 720 Q295 720 284 709 Q273 698 273 682 Q273 666 284 654.5 Q295 643 312 643 Z " />
<glyph glyph-name="eacute" unicode="&#xe9;" horiz-adv-x="595" d="M290 510 Q346 510 392 487.5 Q438 465 471 428.5 Q504 392 522 344.5 Q540 297 540 247 Q540 217 532 183 L178 183 Q198 149 235 125.5 Q272 102 315 102 Q358 102 390.5 109 Q423 116 452 127 L498 42 Q461 16 413.5 2 Q366 -12 312 -12 Q253 -12 202 8.5 Q151 29 113 64 Q75 99 53 147 Q31 195 31 249 Q31 302 51 349.5 Q71 397 106.5 432.5 Q142 468 189 489 Q236 510 290 510 Z M403 290 Q391 333 360 360 Q329 387 290 387 Q250 387 217.5 360 Q185 333 173 290 L403 290 Z M380 710 L317 531 L215 531 L229 710 L380 710 Z " />
<glyph glyph-name="egrave" unicode="&#xe8;" horiz-adv-x="595" d="M290 510 Q346 510 392 487.5 Q438 465 471 428.5 Q504 392 522 344.5 Q540 297 540 247 Q540 217 532 183 L178 183 Q198 149 235 125.5 Q272 102 315 102 Q358 102 390.5 109 Q423 116 452 127 L498 42 Q461 16 413.5 2 Q366 -12 312 -12 Q253 -12 202 8.5 Q151 29 113 64 Q75 99 53 147 Q31 195 31 249 Q31 302 51 349.5 Q71 397 106.5 432.5 Q142 468 189 489 Q236 510 290 510 Z M403 290 Q391 333 360 360 Q329 387 290 387 Q250 387 217.5 360 Q185 333 173 290 L403 290 Z M366 710 L380 531 L278 531 L215 710 L366 710 Z " />
<glyph glyph-name="ecircumflex" unicode="&#xea;" horiz-adv-x="595" d="M290 510 Q346 510 392 487.5 Q438 465 471 428.5 Q504 392 522 344.5 Q540 297 540 247 Q540 217 532 183 L178 183 Q198 149 235 125.5 Q272 102 315 102 Q358 102 390.5 109 Q423 116 452 127 L498 42 Q461 16 413.5 2 Q366 -12 312 -12 Q253 -12 202 8.5 Q151 29 113 64 Q75 99 53 147 Q31 195 31 249 Q31 302 51 349.5 Q71 397 106.5 432.5 Q142 468 189 489 Q236 510 290 510 Z M403 290 Q391 333 360 360 Q329 387 290 387 Q250 387 217.5 360 Q185 333 173 290 L403 290 Z M235 573 L114 573 L235 708 L366 708 L482 573 L360 573 L300 661 L235 573 Z " />
<glyph glyph-name="edieresis" unicode="&#xeb;" horiz-adv-x="595" d="M290 510 Q346 510 392 487.5 Q438 465 471 428.5 Q504 392 522 344.5 Q540 297 540 247 Q540 217 532 183 L178 183 Q198 149 235 125.5 Q272 102 315 102 Q358 102 390.5 109 Q423 116 452 127 L498 42 Q461 16 413.5 2 Q366 -12 312 -12 Q253 -12 202 8.5 Q151 29 113 64 Q75 99 53 147 Q31 195 31 249 Q31 302 51 349.5 Q71 397 106.5 432.5 Q142 468 189 489 Q236 510 290 510 Z M403 290 Q391 333 360 360 Q329 387 290 387 Q250 387 217.5 360 Q185 333 173 290 L403 290 Z M419 709 Q451 709 473 687 Q495 665 495 633 Q495 601 473 578.5 Q451 556 419 556 Q387 556 364.5 578.5 Q342 601 342 633 Q342 665 364.5 687 Q387 709 419 709 Z M177 709 Q209 709 231 687 Q253 665 253 633 Q253 601 231 578.5 Q209 556 177 556 Q145 556 122.5 578.5 Q100 601 100 633 Q100 665 122.5 687 Q145 709 177 709 Z " />
<glyph glyph-name="iacute" unicode="&#xed;" horiz-adv-x="262" d="M200 0 L62 0 L62 496 L200 496 L200 0 Z M246 710 L183 531 L81 531 L95 710 L246 710 Z " />
<glyph glyph-name="igrave" unicode="&#xec;" horiz-adv-x="262" d="M200 0 L62 0 L62 496 L200 496 L200 0 Z M168 710 L182 531 L80 531 L17 710 L168 710 Z " />
<glyph glyph-name="icircumflex" unicode="&#xee;" horiz-adv-x="262" d="M200 0 L62 0 L62 496 L200 496 L200 0 Z M68 573 L-53 573 L68 708 L199 708 L315 573 L193 573 L133 661 L68 573 Z " />
<glyph glyph-name="idieresis" unicode="&#xef;" horiz-adv-x="262" d="M200 0 L62 0 L62 496 L200 496 L200 0 Z M253 708 Q285 708 307 686 Q329 664 329 632 Q329 600 307 577.5 Q285 555 253 555 Q221 555 198.5 577.5 Q176 600 176 632 Q176 664 198.5 686 Q221 708 253 708 Z M11 708 Q43 708 65 686 Q87 664 87 632 Q87 600 65 577.5 Q43 555 11 555 Q-21 555 -43.5 577.5 Q-66 600 -66 632 Q-66 664 -43.5 686 Q-21 708 11 708 Z " />
<glyph glyph-name="ntilde" unicode="&#xf1;" horiz-adv-x="541" d="M303 496 Q331 496 365 488 Q399 480 429 458 Q459 436 479.5 397 Q500 358 500 296 L500 0 L361 0 L361 291 Q361 314 353.5 330 Q346 346 333.5 355.5 Q321 365 305 369.5 Q289 374 273 374 Q260 374 244.5 369.5 Q229 365 215.5 355 Q202 345 193 329 Q184 313 184 291 L184 0 L46 0 L46 496 L164 496 L184 458 Q208 475 238 485.5 Q268 496 303 496 Z M344 659 Q357 659 371 664.5 Q385 670 398 678 Q411 686 420.5 694 Q430 702 434 708 L479 654 Q477 651 465.5 636 Q454 621 436 604.5 Q418 588 394.5 574.5 Q371 561 344 561 Q316 561 298 573 Q280 585 265 599.5 Q250 614 235.5 626 Q221 638 201 638 Q176 638 153 624 Q130 610 115 590 Q95 605 84.5 613 Q74 621 69 625 Q63 629 63 631 Q65 635 74.5 652 Q84 669 101 688 Q118 707 143 722 Q168 737 201 737 Q231 737 252.5 725 Q274 713 290 698 Q306 683 318.5 671 Q331 659 344 659 Z " />
<glyph glyph-name="oacute" unicode="&#xf3;" horiz-adv-x="579" d="M290 510 Q343 510 390 489.5 Q437 469 472 433.5 Q507 398 527.5 350.5 Q548 303 548 249 Q548 195 527.5 147.5 Q507 100 472 64.5 Q437 29 390 8.5 Q343 -12 290 -12 Q236 -12 189 8.5 Q142 29 107 64.5 Q72 100 51.5 147.5 Q31 195 31 249 Q31 303 51.5 350.5 Q72 398 107 433.5 Q142 469 189 489.5 Q236 510 290 510 Z M290 109 Q315 109 336.5 119 Q358 129 374.5 146.5 Q391 164 400.5 188.5 Q410 213 410 243 Q410 273 400.5 299 Q391 325 374.5 344.5 Q358 364 336.5 375.5 Q315 387 290 387 Q265 387 243 375.5 Q221 364 204.5 344.5 Q188 325 178.5 299 Q169 273 169 243 Q169 213 178.5 188.5 Q188 164 204.5 146.5 Q221 129 243 119 Q265 109 290 109 Z M372 710 L309 531 L207 531 L221 710 L372 710 Z " />
<glyph glyph-name="ograve" unicode="&#xf2;" horiz-adv-x="579" d="M290 510 Q343 510 390 489.5 Q437 469 472 433.5 Q507 398 527.5 350.5 Q548 303 548 249 Q548 195 527.5 147.5 Q507 100 472 64.5 Q437 29 390 8.5 Q343 -12 290 -12 Q236 -12 189 8.5 Q142 29 107 64.5 Q72 100 51.5 147.5 Q31 195 31 249 Q31 303 51.5 350.5 Q72 398 107 433.5 Q142 469 189 489.5 Q236 510 290 510 Z M290 109 Q315 109 336.5 119 Q358 129 374.5 146.5 Q391 164 400.5 188.5 Q410 213 410 243 Q410 273 400.5 299 Q391 325 374.5 344.5 Q358 364 336.5 375.5 Q315 387 290 387 Q265 387 243 375.5 Q221 364 204.5 344.5 Q188 325 178.5 299 Q169 273 169 243 Q169 213 178.5 188.5 Q188 164 204.5 146.5 Q221 129 243 119 Q265 109 290 109 Z M358 710 L372 531 L270 531 L207 710 L358 710 Z " />
<glyph glyph-name="ocircumflex" unicode="&#xf4;" horiz-adv-x="579" d="M290 510 Q343 510 390 489.5 Q437 469 472 433.5 Q507 398 527.5 350.5 Q548 303 548 249 Q548 195 527.5 147.5 Q507 100 472 64.5 Q437 29 390 8.5 Q343 -12 290 -12 Q236 -12 189 8.5 Q142 29 107 64.5 Q72 100 51.5 147.5 Q31 195 31 249 Q31 303 51.5 350.5 Q72 398 107 433.5 Q142 469 189 489.5 Q236 510 290 510 Z M290 109 Q315 109 336.5 119 Q358 129 374.5 146.5 Q391 164 400.5 188.5 Q410 213 410 243 Q410 273 400.5 299 Q391 325 374.5 344.5 Q358 364 336.5 375.5 Q315 387 290 387 Q265 387 243 375.5 Q221 364 204.5 344.5 Q188 325 178.5 299 Q169 273 169 243 Q169 213 178.5 188.5 Q188 164 204.5 146.5 Q221 129 243 119 Q265 109 290 109 Z M227 574 L106 574 L227 709 L358 709 L474 574 L352 574 L292 662 L227 574 Z " />
<glyph glyph-name="otilde" unicode="&#xf5;" horiz-adv-x="579" d="M290 510 Q343 510 390 489.5 Q437 469 472 433.5 Q507 398 527.5 350.5 Q548 303 548 249 Q548 195 527.5 147.5 Q507 100 472 64.5 Q437 29 390 8.5 Q343 -12 290 -12 Q236 -12 189 8.5 Q142 29 107 64.5 Q72 100 51.5 147.5 Q31 195 31 249 Q31 303 51.5 350.5 Q72 398 107 433.5 Q142 469 189 489.5 Q236 510 290 510 Z M290 109 Q315 109 336.5 119 Q358 129 374.5 146.5 Q391 164 400.5 188.5 Q410 213 410 243 Q410 273 400.5 299 Q391 325 374.5 344.5 Q358 364 336.5 375.5 Q315 387 290 387 Q265 387 243 375.5 Q221 364 204.5 344.5 Q188 325 178.5 299 Q169 273 169 243 Q169 213 178.5 188.5 Q188 164 204.5 146.5 Q221 129 243 119 Q265 109 290 109 Z M363 659 Q376 659 390 664.5 Q404 670 417 678 Q430 686 439.5 694 Q449 702 453 708 L498 654 Q496 651 484.5 636 Q473 621 455 604.5 Q437 588 413.5 574.5 Q390 561 363 561 Q335 561 317 573 Q299 585 284 599.5 Q269 614 254.5 626 Q240 638 220 638 Q195 638 172 624 Q149 610 134 590 Q114 605 103.5 613 Q93 621 88 625 Q82 629 82 631 Q84 635 93.5 652 Q103 669 120 688 Q137 707 162 722 Q187 737 220 737 Q250 737 271.5 725 Q293 713 309 698 Q325 683 337.5 671 Q350 659 363 659 Z " />
<glyph glyph-name="uacute" unicode="&#xfa;" horiz-adv-x="543" d="M359 496 L497 496 L497 0 L379 0 L359 38 Q335 21 304.5 10.5 Q274 0 239 0 Q212 0 177.5 8 Q143 16 113 38 Q83 60 62.5 99 Q42 138 42 200 L42 496 L181 496 L181 205 Q181 182 188.5 166 Q196 150 208.5 140.5 Q221 131 237 126.5 Q253 122 270 122 Q283 122 298.5 126.5 Q314 131 327.5 141 Q341 151 350 167 Q359 183 359 205 L359 496 Z M354 710 L291 531 L189 531 L203 710 L354 710 Z " />
<glyph glyph-name="ugrave" unicode="&#xf9;" horiz-adv-x="543" d="M359 496 L497 496 L497 0 L379 0 L359 38 Q335 21 304.5 10.5 Q274 0 239 0 Q212 0 177.5 8 Q143 16 113 38 Q83 60 62.5 99 Q42 138 42 200 L42 496 L181 496 L181 205 Q181 182 188.5 166 Q196 150 208.5 140.5 Q221 131 237 126.5 Q253 122 270 122 Q283 122 298.5 126.5 Q314 131 327.5 141 Q341 151 350 167 Q359 183 359 205 L359 496 Z M340 710 L354 531 L252 531 L189 710 L340 710 Z " />
<glyph glyph-name="ucircumflex" unicode="&#xfb;" horiz-adv-x="543" d="M359 496 L497 496 L497 0 L379 0 L359 38 Q335 21 304.5 10.5 Q274 0 239 0 Q212 0 177.5 8 Q143 16 113 38 Q83 60 62.5 99 Q42 138 42 200 L42 496 L181 496 L181 205 Q181 182 188.5 166 Q196 150 208.5 140.5 Q221 131 237 126.5 Q253 122 270 122 Q283 122 298.5 126.5 Q314 131 327.5 141 Q341 151 350 167 Q359 183 359 205 L359 496 Z M209 573 L88 573 L209 708 L340 708 L456 573 L334 573 L274 661 L209 573 Z " />
<glyph glyph-name="Agrave" unicode="&#xc0;" horiz-adv-x="801" d="M483 709 L779 0 L615 0 L551 152 L250 152 L187 0 L22 0 L318 709 L483 709 Z M494 290 L401 513 L308 290 L494 290 Z M441 935 L455 756 L353 756 L290 935 L441 935 Z " />
<glyph glyph-name="Atilde" unicode="&#xc3;" horiz-adv-x="801" d="M483 709 L779 0 L615 0 L551 152 L250 152 L187 0 L22 0 L318 709 L483 709 Z M494 290 L401 513 L308 290 L494 290 Z M474 854 Q487 854 501 859.5 Q515 865 528 873 Q541 881 550.5 889 Q560 897 564 903 L609 849 Q607 846 595.5 831 Q584 816 566 799.5 Q548 783 524.5 769.5 Q501 756 474 756 Q446 756 428 768 Q410 780 395 794.5 Q380 809 365.5 821 Q351 833 331 833 Q306 833 283 819 Q260 805 245 785 Q225 800 214.5 808 Q204 816 199 820 Q193 824 193 826 Q195 830 204.5 847 Q214 864 231 883 Q248 902 273 917 Q298 932 331 932 Q361 932 382.5 920 Q404 908 420 893 Q436 878 448.5 866 Q461 854 474 854 Z " />
<glyph glyph-name="Otilde" unicode="&#xd5;" horiz-adv-x="765" d="M382 719 Q454 719 518 690 Q582 661 629.5 611 Q677 561 704.5 495 Q732 429 732 354 Q732 280 704.5 213 Q677 146 629.5 96 Q582 46 518 16.5 Q454 -13 382 -13 Q310 -13 246 16.5 Q182 46 135 96 Q88 146 60.5 213 Q33 280 33 354 Q33 429 60.5 495 Q88 561 135 611 Q182 661 246 690 Q310 719 382 719 Z M382 138 Q423 138 459 155 Q495 172 522 201.5 Q549 231 564.5 270 Q580 309 580 354 Q580 399 564.5 438.5 Q549 478 522 507.5 Q495 537 459 554 Q423 571 382 571 Q341 571 305 554 Q269 537 242 507.5 Q215 478 199.5 438.5 Q184 399 184 354 Q184 309 199.5 270 Q215 231 242 201.5 Q269 172 305 155 Q341 138 382 138 Z M456 854 Q469 854 483 859.5 Q497 865 510 873 Q523 881 532.5 889 Q542 897 546 903 L591 849 Q589 846 577.5 831 Q566 816 548 799.5 Q530 783 506.5 769.5 Q483 756 456 756 Q428 756 410 768 Q392 780 377 794.5 Q362 809 347.5 821 Q333 833 313 833 Q288 833 265 819 Q242 805 227 785 Q207 800 196.5 808 Q186 816 181 820 Q175 824 175 826 Q177 830 186.5 847 Q196 864 213 883 Q230 902 255 917 Q280 932 313 932 Q343 932 364.5 920 Q386 908 402 893 Q418 878 430.5 866 Q443 854 456 854 Z " />
<glyph glyph-name="Acircumflex" unicode="&#xc2;" horiz-adv-x="801" d="M483 709 L779 0 L615 0 L551 152 L250 152 L187 0 L22 0 L318 709 L483 709 Z M494 290 L401 513 L308 290 L494 290 Z M338 756 L217 756 L338 891 L469 891 L585 756 L463 756 L403 844 L338 756 Z " />
<glyph glyph-name="Ecircumflex" unicode="&#xca;" horiz-adv-x="539" d="M48 709 L491 709 L491 571 L200 571 L200 443 L456 443 L456 305 L200 305 L200 137 L491 137 L491 0 L48 0 L48 709 Z M207 756 L86 756 L207 891 L338 891 L454 756 L332 756 L272 844 L207 756 Z " />
<glyph glyph-name="Aacute" unicode="&#xc1;" horiz-adv-x="801" d="M483 709 L779 0 L615 0 L551 152 L250 152 L187 0 L22 0 L318 709 L483 709 Z M494 290 L401 513 L308 290 L494 290 Z M517 935 L454 756 L352 756 L366 935 L517 935 Z " />
<glyph glyph-name="Edieresis" unicode="&#xcb;" horiz-adv-x="539" d="M48 709 L491 709 L491 571 L200 571 L200 443 L456 443 L456 305 L200 305 L200 137 L491 137 L491 0 L48 0 L48 709 Z M391 909 Q423 909 445 887 Q467 865 467 833 Q467 801 445 778.5 Q423 756 391 756 Q359 756 336.5 778.5 Q314 801 314 833 Q314 865 336.5 887 Q359 909 391 909 Z M149 909 Q181 909 203 887 Q225 865 225 833 Q225 801 203 778.5 Q181 756 149 756 Q117 756 94.5 778.5 Q72 801 72 833 Q72 865 94.5 887 Q117 909 149 909 Z " />
<glyph glyph-name="Egrave" unicode="&#xc8;" horiz-adv-x="539" d="M48 709 L491 709 L491 571 L200 571 L200 443 L456 443 L456 305 L200 305 L200 137 L491 137 L491 0 L48 0 L48 709 Z M338 935 L352 756 L250 756 L187 935 L338 935 Z " />
<glyph glyph-name="Iacute" unicode="&#xcd;" horiz-adv-x="351" d="M305 709 L305 581 L252 581 L252 127 L305 127 L305 0 L47 0 L47 127 L100 127 L100 581 L47 581 L47 709 L305 709 Z M295 935 L232 756 L130 756 L144 935 L295 935 Z " />
<glyph glyph-name="Icircumflex" unicode="&#xce;" horiz-adv-x="351" d="M305 709 L305 581 L252 581 L252 127 L305 127 L305 0 L47 0 L47 127 L100 127 L100 581 L47 581 L47 709 L305 709 Z M113 756 L-8 756 L113 891 L244 891 L360 756 L238 756 L178 844 L113 756 Z " />
<glyph glyph-name="Idieresis" unicode="&#xcf;" horiz-adv-x="351" d="M305 709 L305 581 L252 581 L252 127 L305 127 L305 0 L47 0 L47 127 L100 127 L100 581 L47 581 L47 709 L305 709 Z M300 909 Q332 909 354 887 Q376 865 376 833 Q376 801 354 778.5 Q332 756 300 756 Q268 756 245.5 778.5 Q223 801 223 833 Q223 865 245.5 887 Q268 909 300 909 Z M58 909 Q90 909 112 887 Q134 865 134 833 Q134 801 112 778.5 Q90 756 58 756 Q26 756 3.5 778.5 Q-19 801 -19 833 Q-19 865 3.5 887 Q26 909 58 909 Z " />
<glyph glyph-name="Igrave" unicode="&#xcc;" horiz-adv-x="351" d="M305 709 L305 581 L252 581 L252 127 L305 127 L305 0 L47 0 L47 127 L100 127 L100 581 L47 581 L47 709 L305 709 Z M215 935 L229 756 L127 756 L64 935 L215 935 Z " />
<glyph glyph-name="Oacute" unicode="&#xd3;" horiz-adv-x="765" d="M382 719 Q454 719 518 690 Q582 661 629.5 611 Q677 561 704.5 495 Q732 429 732 354 Q732 280 704.5 213 Q677 146 629.5 96 Q582 46 518 16.5 Q454 -13 382 -13 Q310 -13 246 16.5 Q182 46 135 96 Q88 146 60.5 213 Q33 280 33 354 Q33 429 60.5 495 Q88 561 135 611 Q182 661 246 690 Q310 719 382 719 Z M382 138 Q423 138 459 155 Q495 172 522 201.5 Q549 231 564.5 270 Q580 309 580 354 Q580 399 564.5 438.5 Q549 478 522 507.5 Q495 537 459 554 Q423 571 382 571 Q341 571 305 554 Q269 537 242 507.5 Q215 478 199.5 438.5 Q184 399 184 354 Q184 309 199.5 270 Q215 231 242 201.5 Q269 172 305 155 Q341 138 382 138 Z M465 935 L402 756 L300 756 L314 935 L465 935 Z " />
<glyph glyph-name="Ocircumflex" unicode="&#xd4;" horiz-adv-x="765" d="M382 719 Q454 719 518 690 Q582 661 629.5 611 Q677 561 704.5 495 Q732 429 732 354 Q732 280 704.5 213 Q677 146 629.5 96 Q582 46 518 16.5 Q454 -13 382 -13 Q310 -13 246 16.5 Q182 46 135 96 Q88 146 60.5 213 Q33 280 33 354 Q33 429 60.5 495 Q88 561 135 611 Q182 661 246 690 Q310 719 382 719 Z M382 138 Q423 138 459 155 Q495 172 522 201.5 Q549 231 564.5 270 Q580 309 580 354 Q580 399 564.5 438.5 Q549 478 522 507.5 Q495 537 459 554 Q423 571 382 571 Q341 571 305 554 Q269 537 242 507.5 Q215 478 199.5 438.5 Q184 399 184 354 Q184 309 199.5 270 Q215 231 242 201.5 Q269 172 305 155 Q341 138 382 138 Z M320 756 L199 756 L320 891 L451 891 L567 756 L445 756 L385 844 L320 756 Z " />
<glyph glyph-name="Ydieresis" unicode="&#x178;" horiz-adv-x="693" d="M492 709 L675 709 L422 332 L422 0 L271 0 L271 332 L18 709 L201 709 L347 491 L492 709 Z M469 909 Q501 909 523 887 Q545 865 545 833 Q545 801 523 778.5 Q501 756 469 756 Q437 756 414.5 778.5 Q392 801 392 833 Q392 865 414.5 887 Q437 909 469 909 Z M227 909 Q259 909 281 887 Q303 865 303 833 Q303 801 281 778.5 Q259 756 227 756 Q195 756 172.5 778.5 Q150 801 150 833 Q150 865 172.5 887 Q195 909 227 909 Z " />
<glyph glyph-name="ydieresis" unicode="&#xff;" horiz-adv-x="591" d="M428 496 L579 496 L266 -198 L115 -198 L238 75 L28 496 L182 496 L311 237 L428 496 Z M426 709 Q458 709 480 687 Q502 665 502 633 Q502 601 480 578.5 Q458 556 426 556 Q394 556 371.5 578.5 Q349 601 349 633 Q349 665 371.5 687 Q394 709 426 709 Z M184 709 Q216 709 238 687 Q260 665 260 633 Q260 601 238 578.5 Q216 556 184 556 Q152 556 129.5 578.5 Q107 601 107 633 Q107 665 129.5 687 Q152 709 184 709 Z " />
<glyph glyph-name="Ugrave" unicode="&#xd9;" horiz-adv-x="640" d="M448 709 L599 709 L599 256 Q599 203 577 154 Q555 105 517 68 Q479 31 428.5 9 Q378 -13 320 -13 Q263 -13 212 9 Q161 31 123.5 68 Q86 105 64 154 Q42 203 42 256 L42 709 L193 709 L193 286 Q193 256 203 229.5 Q213 203 230 182.5 Q247 162 270.5 150 Q294 138 320 138 Q347 138 370 150 Q393 162 410.5 182.5 Q428 203 438 229.5 Q448 256 448 286 L448 709 Z M388 935 L402 756 L300 756 L237 935 L388 935 Z " />
<glyph glyph-name="Ucircumflex" unicode="&#xdb;" horiz-adv-x="640" d="M448 709 L599 709 L599 256 Q599 203 577 154 Q555 105 517 68 Q479 31 428.5 9 Q378 -13 320 -13 Q263 -13 212 9 Q161 31 123.5 68 Q86 105 64 154 Q42 203 42 256 L42 709 L193 709 L193 286 Q193 256 203 229.5 Q213 203 230 182.5 Q247 162 270.5 150 Q294 138 320 138 Q347 138 370 150 Q393 162 410.5 182.5 Q428 203 438 229.5 Q448 256 448 286 L448 709 Z M257 756 L136 756 L257 891 L388 891 L504 756 L382 756 L322 844 L257 756 Z " />
<glyph glyph-name="Uacute" unicode="&#xda;" horiz-adv-x="640" d="M448 709 L599 709 L599 256 Q599 203 577 154 Q555 105 517 68 Q479 31 428.5 9 Q378 -13 320 -13 Q263 -13 212 9 Q161 31 123.5 68 Q86 105 64 154 Q42 203 42 256 L42 709 L193 709 L193 286 Q193 256 203 229.5 Q213 203 230 182.5 Q247 162 270.5 150 Q294 138 320 138 Q347 138 370 150 Q393 162 410.5 182.5 Q428 203 438 229.5 Q448 256 448 286 L448 709 Z M402 935 L339 756 L237 756 L251 935 L402 935 Z " />
<glyph glyph-name="Ograve" unicode="&#xd2;" horiz-adv-x="765" d="M382 719 Q454 719 518 690 Q582 661 629.5 611 Q677 561 704.5 495 Q732 429 732 354 Q732 280 704.5 213 Q677 146 629.5 96 Q582 46 518 16.5 Q454 -13 382 -13 Q310 -13 246 16.5 Q182 46 135 96 Q88 146 60.5 213 Q33 280 33 354 Q33 429 60.5 495 Q88 561 135 611 Q182 661 246 690 Q310 719 382 719 Z M382 138 Q423 138 459 155 Q495 172 522 201.5 Q549 231 564.5 270 Q580 309 580 354 Q580 399 564.5 438.5 Q549 478 522 507.5 Q495 537 459 554 Q423 571 382 571 Q341 571 305 554 Q269 537 242 507.5 Q215 478 199.5 438.5 Q184 399 184 354 Q184 309 199.5 270 Q215 231 242 201.5 Q269 172 305 155 Q341 138 382 138 Z M451 935 L465 756 L363 756 L300 935 L451 935 Z " />
<glyph glyph-name="s_t" unicode="&#xfb06;" horiz-adv-x="809" d="M645 183 Q645 148 666.5 129 Q688 110 723 110 Q751 110 779 121 L779 5 Q754 -3 726 -8.5 Q698 -14 670 -14 Q638 -14 609 -6 Q580 2 557 21.5 Q534 41 520.5 73.5 Q507 106 507 154 L507 373 L436 373 L436 466 L507 496 L507 537 Q507 574 488.5 601.5 Q470 629 436 629 Q394 629 372 601 Q350 573 350 535 Q350 517 353.5 497.5 Q357 478 361.5 460 Q366 442 371.5 426 Q377 410 381 398 L385 387 L278 351 Q272 369 253.5 380 Q235 391 214 391 Q193 391 180 377 Q167 363 167 349 Q167 338 172.5 330.5 Q178 323 186 317.5 Q194 312 204 309.5 Q214 307 222 307 Q324 289 366.5 250.5 Q409 212 409 149 Q409 116 393.5 87 Q378 58 351 36 Q324 14 288 1.5 Q252 -11 211 -11 Q180 -11 150.5 -3 Q121 5 96 19 Q71 33 52.5 52.5 Q34 72 25 96 Q48 107 76 120.5 Q104 134 125 145 Q134 130 153 117.5 Q172 105 205 105 Q239 105 255 121 Q271 137 271 151 Q271 160 262.5 166.5 Q254 173 242.5 178.5 Q231 184 219.5 187 Q208 190 201 191 Q139 202 105 222.5 Q71 243 54.5 265.5 Q38 288 35 309 Q32 330 32 344 Q32 377 45.5 406.5 Q59 436 83 458.5 Q107 481 140 494.5 Q173 508 211 508 L216 508 Q215 513 215 518.5 Q215 524 215 530 Q215 568 226 609 Q237 650 262.5 684 Q288 718 330.5 740 Q373 762 436 762 Q490 762 529.5 744.5 Q569 727 594.5 696 Q620 665 632.5 624 Q645 583 645 537 L645 496 L779 496 L779 373 L645 373 L645 183 L645 183 Z " />
<glyph glyph-name="ae" unicode="&#xe6;" horiz-adv-x="897" d="M612 514 Q668 514 714 491.5 Q760 469 793 432.5 Q826 396 844 348.5 Q862 301 862 251 Q862 221 854 187 L500 187 Q520 153 557 129.5 Q594 106 637 106 Q680 106 712.5 113 Q745 120 774 131 L820 46 Q783 20 735.5 6 Q688 -8 634 -8 Q572 -8 519 14.5 Q466 37 428 75 Q402 48 380.5 32 Q359 16 337.5 8 Q316 0 291.5 -3 Q267 -6 237 -7 Q198 -8 165 -2 Q132 4 106.5 18.5 Q81 33 65 57.5 Q49 82 45 118 Q41 154 52.5 184.5 Q64 215 86.5 237.5 Q109 260 140.5 274.5 Q172 289 209 293 L257 298 Q291 301 310.5 305 Q330 309 340 314.5 Q350 320 352.5 326.5 Q355 333 355 341 Q355 368 332.5 383.5 Q310 399 265 399 Q230 399 205 384.5 Q180 370 151 339 L59 395 Q108 461 162.5 487.5 Q217 514 280 514 Q297 514 318.5 511 Q340 508 362 500.5 Q384 493 405 481.5 Q426 470 444 452 Q478 481 521 497.5 Q564 514 612 514 Z M725 294 Q713 337 682 364 Q651 391 612 391 Q572 391 539.5 364 Q507 337 495 294 L725 294 Z M356 213 Q336 211 316 208 Q299 206 279.5 204 Q260 202 243 200 Q206 195 192.5 176.5 Q179 158 181 143 Q184 123 202 110.5 Q220 98 253 100 Q266 101 283.5 105.5 Q301 110 317 120.5 Q333 131 344.5 147 Q356 163 356 187 L356 213 Z " />
<glyph glyph-name="dagger" unicode="&#x2020;" horiz-adv-x="388" d="M381 416 L240 416 L240 -160 L146 -160 L146 416 L7 416 L7 510 L146 510 L146 756 L240 756 L240 510 L381 510 L381 416 Z " />
<glyph glyph-name="daggerdbl" unicode="&#x2021;" horiz-adv-x="443" d="M9 496 L174 496 L174 756 L268 756 L268 496 L435 496 L435 401 L268 401 L268 204 L435 204 L435 109 L268 109 L268 -191 L174 -191 L174 109 L9 109 L9 204 L174 204 L174 401 L9 401 L9 496 Z " />
<glyph glyph-name="oe" unicode="&#x153;" horiz-adv-x="960" d="M674 510 Q730 510 776 487.5 Q822 465 855 428.5 Q888 392 906 344.5 Q924 297 924 247 Q924 217 916 183 L562 183 Q582 149 619 125.5 Q656 102 699 102 Q742 102 774.5 109 Q807 116 836 127 L882 42 Q845 16 797.5 2 Q750 -12 696 -12 Q633 -12 579 11 Q525 34 486 74 Q451 34 401.5 11 Q352 -12 295 -12 Q241 -12 194 8.5 Q147 29 112 64.5 Q77 100 56.5 147.5 Q36 195 36 249 Q36 303 56.5 350.5 Q77 398 112 433.5 Q147 469 194 489.5 Q241 510 295 510 Q351 510 400 487.5 Q449 465 484 426 Q519 465 568 487.5 Q617 510 674 510 Z M295 109 Q319 109 340.5 118.5 Q362 128 378.5 145 Q395 162 404.5 185.5 Q414 209 415 238 L415 243 Q415 273 405.5 299 Q396 325 379.5 344.5 Q363 364 341.5 375.5 Q320 387 295 387 Q270 387 248 375.5 Q226 364 209.5 344.5 Q193 325 183.5 299 Q174 273 174 243 Q174 213 183.5 188.5 Q193 164 209.5 146.5 Q226 129 248 119 Q270 109 295 109 Z M787 290 Q775 333 744 360 Q713 387 674 387 Q634 387 601.5 360 Q569 333 557 290 L787 290 Z " />
<glyph glyph-name="OE" unicode="&#x152;" horiz-adv-x="1005" d="M522 18 Q455 -13 383 -13 Q311 -13 247 16.5 Q183 46 136 96 Q89 146 61.5 213 Q34 280 34 354 Q34 429 61.5 495 Q89 561 136 611 Q183 661 247 690 Q311 719 383 719 Q455 719 522 688 L522 709 L965 709 L965 571 L674 571 L674 443 L930 443 L930 305 L674 305 L674 137 L965 137 L965 0 L522 0 L522 18 Z M383 138 Q424 138 459.5 154.5 Q495 171 522 200 L522 509 Q495 538 459.5 554.5 Q424 571 383 571 Q342 571 306 554 Q270 537 243 507.5 Q216 478 200.5 438.5 Q185 399 185 354 Q185 309 200.5 270 Q216 231 243 201.5 Q270 172 306 155 Q342 138 383 138 Z " />
<glyph glyph-name="yen" unicode="&#xa5;" horiz-adv-x="693" d="M133 398 L227 398 L18 709 L201 709 L347 491 L492 709 L675 709 L466 398 L559 398 L559 333 L422 333 L422 332 L422 263 L559 263 L559 198 L422 198 L422 0 L271 0 L271 198 L133 198 L133 263 L271 263 L271 332 L270 333 L133 333 L133 398 Z " />
<glyph glyph-name="section" unicode="&#xa7;" horiz-adv-x="573" d="M461 427 Q499 404 520 367.5 Q541 331 541 283 Q541 239 521 201.5 Q501 164 463 134 Q501 111 521 75 Q541 39 541 -7 Q541 -52 519.5 -90.5 Q498 -129 459 -160 Q385 -215 282 -217 Q232 -217 186 -203 Q140 -189 105 -161 Q51 -120 32 -63 L163 -3 Q163 -12 169.5 -26 Q176 -40 190 -53 Q204 -66 226.5 -75.5 Q249 -85 281 -85 Q334 -85 361.5 -62.5 Q389 -40 389 -14 Q389 1 379 14 Q369 27 349 35 Q312 48 270 57 Q228 66 188.5 79.5 Q149 93 116 115 Q83 137 63 178 Q45 214 45 253 Q45 296 64 336 Q83 376 116 405 Q100 417 86.5 432.5 Q73 448 63 468 Q45 504 45 544 Q45 589 66 630.5 Q87 672 123 701 Q158 728 201 743 Q244 758 292 758 Q340 758 383 743.5 Q426 729 461 702 Q494 678 514 644 L407 571 Q387 597 358 614 Q329 631 293 631 Q242 631 214.5 608.5 Q187 586 187 549 Q187 532 202.5 519 Q218 506 242.5 496 Q267 486 298 478 Q329 470 359.5 462 Q390 454 417 445.5 Q444 437 461 427 Z M300 340 L293 340 Q242 340 214.5 317.5 Q187 295 187 259 Q187 245 197.5 233.5 Q208 222 226 213 Q237 210 250.5 208 Q264 206 281 206 Q334 206 361.5 228.5 Q389 251 389 277 Q389 291 379 304.5 Q369 318 349 325 L300 340 Z " />
<glyph glyph-name="divide" unicode="&#xf7;" horiz-adv-x="522" d="M513 281 L513 187 L10 187 L10 281 L513 281 Z M256 144 Q288 144 310.5 122 Q333 100 333 68 Q333 36 310.5 14 Q288 -8 256 -8 Q224 -8 202 14 Q180 36 180 68 Q180 100 202 122 Q224 144 256 144 Z M259 473 Q291 473 313 451 Q335 429 335 397 Q335 365 313 342.5 Q291 320 259 320 Q227 320 204.5 342.5 Q182 365 182 397 Q182 429 204.5 451 Q227 473 259 473 Z " />
<glyph glyph-name="plusminus" unicode="&#xb1;" horiz-adv-x="533" d="M507 383 L507 289 L313 289 L313 134 L218 134 L218 289 L24 289 L24 383 L218 383 L218 538 L313 538 L313 383 L507 383 Z M509 94 L509 0 L26 0 L26 94 L509 94 Z " />
<glyph glyph-name="lessequal" unicode="&#x2264;" horiz-adv-x="521" d="M453 85 L54 282 L54 377 L453 574 L453 479 L150 329 L453 180 L453 85 Z M453 84 L453 0 L36 0 L36 84 L453 84 Z " />
<glyph glyph-name="greaterequal" unicode="&#x2265;" horiz-adv-x="521" d="M68 180 L371 329 L68 479 L68 574 L467 377 L467 282 L68 85 L68 180 Z M485 84 L485 0 L68 0 L68 84 L485 84 Z " />
<glyph glyph-name="ellipsis" unicode="&#x2026;" horiz-adv-x="693" d="M117 144 Q149 144 171.5 122 Q194 100 194 68 Q194 36 171.5 14 Q149 -8 117 -8 Q85 -8 63 14 Q41 36 41 68 Q41 100 63 122 Q85 144 117 144 Z M346 144 Q378 144 400.5 122 Q423 100 423 68 Q423 36 400.5 14 Q378 -8 346 -8 Q314 -8 292 14 Q270 36 270 68 Q270 100 292 122 Q314 144 346 144 Z M575 144 Q607 144 629.5 122 Q652 100 652 68 Q652 36 629.5 14 Q607 -8 575 -8 Q543 -8 521 14 Q499 36 499 68 Q499 100 521 122 Q543 144 575 144 Z " />
<glyph glyph-name="approxequal" unicode="&#x2248;" horiz-adv-x="594" d="M396 194 Q417 194 435.5 199 Q454 204 469 211.5 Q484 219 494 227 Q504 235 509 241 L567 189 Q564 186 549.5 171.5 Q535 157 511.5 141 Q488 125 457.5 112.5 Q427 100 392 100 Q356 100 332.5 111.5 Q309 123 289.5 136.5 Q270 150 251 161.5 Q232 173 206 173 Q182 173 162 166 Q142 159 127 150.5 Q112 142 103.5 135 Q95 128 94 127 L27 166 Q28 167 39 183.5 Q50 200 72 218.5 Q94 237 127.5 252.5 Q161 268 206 268 Q246 268 274.5 256.5 Q303 245 324.5 231 Q346 217 362.5 205.5 Q379 194 396 194 Z M396 400 Q417 400 435.5 405 Q454 410 469 417.5 Q484 425 494 433 Q504 441 509 447 L567 395 Q564 392 549.5 377.5 Q535 363 511.5 347 Q488 331 457.5 318.5 Q427 306 392 306 Q356 306 332.5 317.5 Q309 329 289.5 342.5 Q270 356 251 367.5 Q232 379 206 379 Q182 379 162 372 Q142 365 127 356.5 Q112 348 103.5 341 Q95 334 94 333 L27 372 Q28 373 39 389.5 Q50 406 72 424.5 Q94 443 127.5 458.5 Q161 474 206 474 Q246 474 274.5 462.5 Q303 451 324.5 437 Q346 423 362.5 411.5 Q379 400 396 400 Z " />
<glyph glyph-name="quotesinglbase" unicode="&#x201a;" horiz-adv-x="238" d="M66 127 L221 127 L139 -144 L33 -144 L66 127 Z " />
<glyph glyph-name="quotedblbase" unicode="&#x201e;" horiz-adv-x="490" d="M72 127 L227 127 L145 -144 L39 -144 L72 127 Z M304 127 L459 127 L377 -144 L271 -144 L304 127 Z " />
<glyph glyph-name="periodcentered" unicode="&#xb7;" horiz-adv-x="224" d="M204 496 L141 317 L39 317 L53 496 L204 496 Z " />
<glyph glyph-name="florin" unicode="&#x192;" horiz-adv-x="562" d="M91 -48 Q117 -48 137 -63 Q157 -78 164 -101 Q190 -96 202 -78 Q214 -60 214 -31 L214 373 L149 373 L149 446 L214 496 L214 568 Q214 620 229.5 657.5 Q245 695 271 719.5 Q297 744 331 755.5 Q365 767 403 767 Q425 767 450 763.5 Q475 760 496.5 750 Q518 740 532.5 723 Q547 706 547 679 Q547 647 524.5 625 Q502 603 470 603 Q444 603 425 617 Q406 631 398 654 Q351 643 351 585 L351 496 L484 496 L484 373 L351 373 L351 -14 Q351 -66 335.5 -103.5 Q320 -141 294 -165.5 Q268 -190 234 -201.5 Q200 -213 162 -213 Q140 -213 114 -209 Q88 -205 66 -195.5 Q44 -186 29.5 -168.5 Q15 -151 15 -124 Q15 -92 37 -70 Q59 -48 91 -48 Z " />
<glyph glyph-name="endash" unicode="&#x2013;" horiz-adv-x="726" d="M681 300 L681 206 L45 206 L45 300 L681 300 Z " />
<glyph glyph-name="emdash" unicode="&#x2014;" horiz-adv-x="854" d="M809 300 L809 206 L45 206 L45 300 L809 300 Z " />
<glyph glyph-name="guillemotright" unicode="&#xbb;" horiz-adv-x="493" d="M36 405 L36 532 L239 348 L239 253 L32 75 L32 204 Q64 229 96.5 253 Q129 277 161 301 L36 405 Z M238 450 L238 578 L476 348 L476 255 L238 36 L238 165 Q264 186 291.5 209 Q319 232 346 255 L400 301 L238 450 Z " />
<glyph glyph-name="guillemotleft" unicode="&#xab;" horiz-adv-x="493" d="M332 301 Q364 277 396.5 253 Q429 229 461 204 L461 75 L254 253 L254 348 L457 532 L457 405 L332 301 Z M93 301 L147 255 Q174 232 201.5 209 Q229 186 255 165 L255 36 L17 255 L17 348 L255 578 L255 450 L93 301 Z " />
<glyph glyph-name="oslash" unicode="&#xf8;" horiz-adv-x="573" d="M508 510 L463 438 Q501 403 522.5 354 Q544 305 544 249 Q544 195 523.5 147.5 Q503 100 468 64.5 Q433 29 386 8.5 Q339 -12 286 -12 Q237 -12 192 5 L157 -50 L77 0 L112 55 Q72 91 49.5 141 Q27 191 27 249 Q27 303 47.5 350.5 Q68 398 103 433.5 Q138 469 185 489.5 Q232 510 286 510 Q339 510 385 490 L429 559 L508 510 Z M165 243 Q165 199 183 169 L317 382 Q300 387 286 387 Q261 387 239 375.5 Q217 364 200.5 344.5 Q184 325 174.5 299 Q165 273 165 243 Z M286 109 Q311 109 332.5 119 Q354 129 370.5 146.5 Q387 164 396.5 188.5 Q406 213 406 243 Q406 264 401 282.5 Q396 301 388 318 L259 112 Q271 109 286 109 Z " />
<glyph glyph-name="Oslash" unicode="&#xd8;" horiz-adv-x="759" d="M646 695 L606 631 Q663 580 696 508 Q729 436 729 354 Q729 280 701.5 213 Q674 146 626.5 96 Q579 46 515 16.5 Q451 -13 379 -13 Q338 -13 300.5 -3.5 Q263 6 228 23 L193 -34 L113 16 L151 77 Q95 128 62.5 200 Q30 272 30 354 Q30 429 57.5 495 Q85 561 132 611 Q179 661 243 690 Q307 719 379 719 Q419 719 456.5 709.5 Q494 700 529 683 L567 744 L646 695 Z M181 354 Q181 312 195 274.5 Q209 237 233 208 L450 556 Q433 563 415.5 567 Q398 571 379 571 Q338 571 302 554 Q266 537 239 507.5 Q212 478 196.5 438.5 Q181 399 181 354 Z M379 138 Q420 138 456 155 Q492 172 519 201.5 Q546 231 561.5 270 Q577 309 577 354 Q577 396 563 433.5 Q549 471 525 500 L308 152 Q342 138 379 138 Z " />
</font>
</svg>
