<?xml version="1.0" encoding="UTF-8"?>
<svg xmlns="http://www.w3.org/2000/svg" xmlns:xlink="http://www.w3.org/1999/xlink" version="1.2" >
<font id="Kollektif Italic">
<font-face  font-family="Kollektif" units-per-em="1000" ascent="809" descent="-191" font-style="italic" font-weight="400" font-stretch="normal" cap-height="709" x-height="479" underline-position="-155" underline-thickness="80" />
<missing-glyph  horiz-adv-x="354" d="" />
<glyph glyph-name="A" unicode="A" horiz-adv-x="732" d="M125 0 L11 0 L418 709 L533 709 L716 0 L603 0 L545 222 L252 222 L125 0 Z M307 318 L520 318 L454 574 L307 318 Z " />
<glyph glyph-name="a" unicode="a" horiz-adv-x="553" d="M585 479 L510 0 L428 0 L421 55 Q391 22 349.5 5 Q308 -12 268 -12 Q218 -12 177.5 7.5 Q137 27 109.5 61 Q82 95 70.5 141 Q59 187 67 239 Q75 291 101.5 337 Q128 383 166 417 Q204 451 250.5 470.5 Q297 490 347 490 Q387 490 421.5 474.5 Q456 459 480 426 L503 479 L585 479 Z M281 74 Q310 74 338 87 Q366 100 388.5 122.5 Q411 145 427 175 Q443 205 448 239 Q454 273 447.5 303 Q441 333 425.5 355.5 Q410 378 386 391 Q362 404 333 404 Q304 404 276 391 Q248 378 225.5 355.5 Q203 333 187.5 303 Q172 273 166 239 Q161 205 167 175 Q173 145 189 122.5 Q205 100 228.5 87 Q252 74 281 74 Z " />
<glyph glyph-name="b" unicode="b" horiz-adv-x="583" d="M136 0 L59 0 L174 730 L271 730 L223 427 Q255 457 295 473.5 Q335 490 384 490 Q434 490 473.5 470.5 Q513 451 538.5 417 Q564 383 574 337 Q584 291 576 239 Q568 187 543 141 Q518 95 482 61 Q446 27 400.5 7.5 Q355 -12 305 -12 Q258 -12 223 4.5 Q188 21 163 50 L136 0 Z M362 402 Q333 402 305.5 393.5 Q278 385 255.5 365.5 Q233 346 217 315 Q201 284 194 239 Q188 197 194 166 Q200 135 216 114.5 Q232 94 256.5 84 Q281 74 310 74 Q339 74 367 87 Q395 100 417.5 122.5 Q440 145 456 175 Q472 205 477 239 Q483 273 476.5 303 Q470 333 454.5 355 Q439 377 415 389.5 Q391 402 362 402 Z " />
<glyph glyph-name="c" unicode="c" horiz-adv-x="508" d="M274 -12 Q224 -12 183.5 7.5 Q143 27 115.5 61 Q88 95 76.5 141 Q65 187 73 239 Q81 291 107 337 Q133 383 171 417 Q209 451 256 470.5 Q303 490 353 490 Q411 490 456 464 Q501 438 527 393 L450 340 Q435 369 407 385.5 Q379 402 344 402 Q314 402 285 389.5 Q256 377 232.5 355 Q209 333 193 303 Q177 273 171 239 Q166 205 172.5 175 Q179 145 195.5 122.5 Q212 100 237 87 Q262 74 292 74 Q331 74 366.5 95 Q402 116 427 151 L484 93 Q444 45 389 16.5 Q334 -12 274 -12 Z " />
<glyph glyph-name="d" unicode="d" horiz-adv-x="579" d="M629 730 L514 0 L437 0 L424 50 Q391 21 351.5 4.5 Q312 -12 264 -12 Q214 -12 175 7.5 Q136 27 110.5 61 Q85 95 74.5 141 Q64 187 72 239 Q80 291 105 337 Q130 383 166.5 417 Q203 451 248 470.5 Q293 490 343 490 Q393 490 427 473.5 Q461 457 484 427 L532 730 L629 730 Z M285 74 Q315 74 342.5 84 Q370 94 392.5 114.5 Q415 135 431 166 Q447 197 453 239 Q460 284 454 315 Q448 346 432 365.5 Q416 385 391.5 393.5 Q367 402 337 402 Q308 402 280 389.5 Q252 377 229.5 355 Q207 333 191.5 303 Q176 273 170 239 Q165 205 171 175 Q177 145 193 122.5 Q209 100 232.5 87 Q256 74 285 74 Z " />
<glyph glyph-name="e" unicode="e" horiz-adv-x="530" d="M281 -12 Q229 -12 186.5 7.5 Q144 27 115.5 61 Q87 95 74.5 141 Q62 187 70 239 Q78 291 104 337 Q130 383 167 417 Q204 451 249 470.5 Q294 490 342 490 Q391 490 430 473 Q469 456 493.5 420 Q518 384 526.5 328.5 Q535 273 523 196 L167 196 Q170 170 181 147.5 Q192 125 210 108.5 Q228 92 252 83 Q276 74 304 74 Q342 74 377 88 Q412 102 438 125 L489 65 Q448 30 394.5 9 Q341 -12 281 -12 Z M328 402 Q305 402 283 393 Q261 384 241 368 Q221 352 205 330 Q189 308 179 282 L432 282 Q433 306 427.5 328 Q422 350 409 366.5 Q396 383 376 392.5 Q356 402 328 402 Z " />
<glyph glyph-name="f" unicode="f" horiz-adv-x="380" d="M125 0 L187 392 L105 392 L115 459 L200 479 L210 537 Q218 588 237 625.5 Q256 663 282 687 Q308 711 339 722.5 Q370 734 403 734 Q444 734 483 717 L472 646 Q437 657 412 657 Q371 657 344 632 Q317 607 309 552 L297 479 L445 479 L432 392 L284 392 L222 0 L125 0 Z " />
<glyph glyph-name="g" unicode="g" horiz-adv-x="591" d="M277 24 Q227 24 188 42.5 Q149 61 123 93.5 Q97 126 86.5 168.5 Q76 211 84 259 Q91 307 115.5 349 Q140 391 175.5 422.5 Q211 454 256 472 Q301 490 351 490 Q401 490 436 475 Q471 460 494 432 L521 479 L597 479 Q596 476 595.5 471.5 Q595 467 593 454 Q591 441 587.5 417 Q584 393 577.5 351 Q571 309 561 246 Q551 183 537 93 Q532 63 526 34.5 Q520 6 509.5 -20.5 Q499 -47 482.5 -71.5 Q466 -96 441 -119 Q394 -161 341 -175.5 Q288 -190 232 -190 Q184 -190 143.5 -178 Q103 -166 72 -146 L89 -38 Q104 -67 144 -85 Q184 -103 238 -103 Q274 -103 306.5 -93.5 Q339 -84 365.5 -64.5 Q392 -45 410 -14 Q428 17 435 60 L438 79 Q424 68 405 58 Q386 48 364 40.5 Q342 33 319.5 28.5 Q297 24 277 24 Z M346 402 Q317 402 289.5 391 Q262 380 239.5 360.5 Q217 341 201.5 315 Q186 289 182 259 Q177 229 184 202.5 Q191 176 207.5 156.5 Q224 137 248 125.5 Q272 114 301 114 Q330 114 357 123 Q384 132 406 150 Q428 168 443.5 195 Q459 222 465 259 Q471 298 464 325.5 Q457 353 440.5 370 Q424 387 399.5 394.5 Q375 402 346 402 Z " />
<glyph glyph-name="h" unicode="h" horiz-adv-x="542" d="M153 0 L56 0 L171 730 L268 730 L221 435 Q253 465 284.5 477.5 Q316 490 355 490 Q405 490 441.5 470.5 Q478 451 500 417 Q522 383 529.5 337 Q537 291 529 239 Q521 186 514 142.5 Q507 99 502 67 Q496 30 492 0 L394 0 Q400 41 406 82 Q411 117 418 159 Q425 201 431 239 Q437 273 432 303 Q427 333 414.5 355 Q402 377 382 389.5 Q362 402 337 402 Q316 402 293.5 393.5 Q271 385 250.5 366 Q230 347 214 316 Q198 285 191 241 L153 0 Z " />
<glyph glyph-name="i" unicode="i" horiz-adv-x="210" d="M157 0 L60 0 L135 479 L231 479 L157 0 Z M200 583 Q174 583 158.5 601.5 Q143 620 148 646 Q152 672 173 690 Q194 708 220 708 Q246 708 261 690 Q276 672 272 646 Q267 620 246.5 601.5 Q226 583 200 583 Z " />
<glyph glyph-name="j" unicode="j" horiz-adv-x="238" d="M154 479 L251 479 L170 -33 Q160 -99 134.5 -135.5 Q109 -172 75 -187 Q41 -202 1.5 -199 Q-38 -196 -76 -182 L-47 -110 Q-17 -114 3.5 -114 Q24 -114 38 -107 Q52 -100 59.5 -86 Q67 -72 71 -48 L154 479 Z M238 708 Q264 708 279.5 690 Q295 672 291 646 Q286 620 265 601.5 Q244 583 218 583 Q192 583 176.5 601.5 Q161 620 166 646 Q170 672 191 690 Q212 708 238 708 Z " />
<glyph glyph-name="k" unicode="k" horiz-adv-x="500" d="M158 0 L61 0 L176 730 L273 730 L202 282 L421 479 L541 479 L327 286 L480 0 L370 0 L253 220 L182 156 L158 0 Z " />
<glyph glyph-name="l" unicode="l" horiz-adv-x="212" d="M273 730 L273 730 L158 0 L61 0 L176 730 L273 730 Z " />
<glyph glyph-name="m" unicode="m" horiz-adv-x="738" d="M153 0 L56 0 L131 479 L208 479 L222 438 Q243 459 270.5 474.5 Q298 490 334 490 Q348 490 365 486.5 Q382 483 399 474.5 Q416 466 430.5 451.5 Q445 437 454 414 Q477 445 514.5 467.5 Q552 490 591 490 Q617 490 645 482 Q673 474 694 452 Q715 430 725 391 Q735 352 725 290 L680 0 L589 0 L635 291 Q645 353 623 377.5 Q601 402 559 402 Q527 402 499 375 Q471 348 461 290 L416 0 L325 0 L371 291 Q381 353 359 377.5 Q337 402 295 402 Q265 402 238.5 379 Q212 356 201 307 L153 0 Z " />
<glyph glyph-name="n" unicode="n" horiz-adv-x="534" d="M151 0 L54 0 L129 479 L206 479 L220 437 Q248 460 284 475 Q320 490 360 490 Q386 490 417.5 482 Q449 474 474.5 452 Q500 430 513 391 Q526 352 516 290 L471 0 L379 0 L425 291 Q430 322 423.5 343.5 Q417 365 403.5 378 Q390 391 371.5 396.5 Q353 402 332 402 Q316 402 294.5 396 Q273 390 253 376.5 Q233 363 217 342.5 Q201 322 197 292 L151 0 Z " />
<glyph glyph-name="o" unicode="o" horiz-adv-x="528" d="M264 -12 Q214 -12 173.5 7.5 Q133 27 105.5 61 Q78 95 66.5 141 Q55 187 63 239 Q71 291 97.5 337 Q124 383 162 417 Q200 451 246.5 470.5 Q293 490 343 490 Q392 490 433 470.5 Q474 451 501 417 Q528 383 539.5 337 Q551 291 543 239 Q535 187 509 141 Q483 95 445 61 Q407 27 360 7.5 Q313 -12 264 -12 Z M329 403 Q300 403 272 390 Q244 377 221.5 355 Q199 333 183 303 Q167 273 161 239 Q156 205 162.5 175 Q169 145 184.5 122.5 Q200 100 224 87 Q248 74 277 74 Q306 74 334 87 Q362 100 384.5 122.5 Q407 145 423 175 Q439 205 444 239 Q450 273 443.5 303 Q437 333 421.5 355 Q406 377 382 390 Q358 403 329 403 Z " />
<glyph glyph-name="p" unicode="p" horiz-adv-x="564" d="M24 -198 L131 479 L208 479 L220 429 Q255 458 294.5 474 Q334 490 381 490 Q431 490 470.5 470.5 Q510 451 535.5 417 Q561 383 571 337 Q581 291 573 239 Q565 187 540 141 Q515 95 479 61 Q443 27 397.5 7.5 Q352 -12 302 -12 Q253 -12 218.5 4.5 Q184 21 161 52 L121 -198 L24 -198 Z M359 402 Q330 402 302.5 392.5 Q275 383 252.5 362.5 Q230 342 214 311.5 Q198 281 191 239 Q184 194 190 162.5 Q196 131 212.5 111.5 Q229 92 253.5 83 Q278 74 307 74 Q336 74 364 87 Q392 100 414.5 122.5 Q437 145 453 175 Q469 205 474 239 Q480 273 473.5 303 Q467 333 451.5 355 Q436 377 412 389.5 Q388 402 359 402 Z " />
<glyph glyph-name="q" unicode="q" horiz-adv-x="568" d="M478 -198 L381 -198 L421 52 Q389 21 349.5 4.5 Q310 -12 260 -12 Q210 -12 171 7.5 Q132 27 106.5 61 Q81 95 70.5 141 Q60 187 68 239 Q76 291 101 337 Q126 383 162.5 417 Q199 451 244 470.5 Q289 490 339 490 Q387 490 422 474 Q457 458 480 429 L508 479 L585 479 L478 -198 Z M282 74 Q311 74 338 83 Q365 92 387.5 111.5 Q410 131 426 162.5 Q442 194 449 239 Q456 281 449.5 311.5 Q443 342 427.5 362.5 Q412 383 387.5 392.5 Q363 402 334 402 Q304 402 276.5 389.5 Q249 377 226 355 Q203 333 187.5 303 Q172 273 166 239 Q161 205 167 175 Q173 145 189 122.5 Q205 100 228.5 87 Q252 74 282 74 Z " />
<glyph glyph-name="r" unicode="r" horiz-adv-x="378" d="M406 390 Q400 393 393 396 Q387 398 379.5 400 Q372 402 363 402 Q334 402 307.5 392.5 Q281 383 260.5 367 Q240 351 226 329.5 Q212 308 208 284 L163 0 L66 0 L141 479 L218 479 L230 426 Q255 455 290 472.5 Q325 490 374 490 Q407 490 446 481 L406 390 L406 390 Z " />
<glyph glyph-name="s" unicode="s" horiz-adv-x="430" d="M294 100 Q305 108 313.5 118 Q322 128 324 141 Q327 157 317 168 Q307 179 291.5 186.5 Q276 194 259 198 Q242 202 230 205 Q198 213 171 224.5 Q144 236 125 252.5 Q106 269 97 291.5 Q88 314 93 345 Q97 374 115 399.5 Q133 425 160 444.5 Q187 464 220.5 475.5 Q254 487 289 487 Q320 487 347 478 Q374 469 393.5 453.5 Q413 438 425 416 Q437 394 438 367 L347 346 Q345 370 327.5 386 Q310 402 275 402 Q263 402 249.5 398.5 Q236 395 224 388 Q212 381 203 371 Q194 361 192 348 Q190 334 196.5 324 Q203 314 214.5 307.5 Q226 301 239 297 Q252 293 263 290 Q314 277 347 262 Q380 247 398 229 Q416 211 421 189.5 Q426 168 422 141 Q417 109 398 81 Q379 53 350 32.5 Q321 12 284 0.5 Q247 -11 206 -11 Q143 -11 100 19.5 Q57 50 47 101 L135 138 Q146 103 169 90.5 Q192 78 224 78 Q264 78 294 100 Z " />
<glyph glyph-name="t" unicode="t" horiz-adv-x="342" d="M316 1 Q273 -13 232 -16 Q191 -19 161.5 -4.5 Q132 10 117.5 46.5 Q103 83 114 149 L153 392 L83 392 L93 459 L166 479 L187 607 L284 607 L263 479 L393 479 L380 392 L250 392 L209 134 Q201 86 223.5 75 Q246 64 308 72 L316 1 L316 1 Z " />
<glyph glyph-name="u" unicode="u" horiz-adv-x="535" d="M386 43 Q357 20 321.5 5 Q286 -10 245 -10 Q219 -10 187.5 -2.5 Q156 5 130.5 27 Q105 49 91.5 87.5 Q78 126 88 188 L134 479 L226 479 L180 188 Q175 157 181.5 135.5 Q188 114 201.5 101 Q215 88 234 82 Q253 76 274 76 Q290 76 311.5 82 Q333 88 353 101.5 Q373 115 388.5 136 Q404 157 409 187 L455 479 L552 479 L477 0 L400 0 L386 43 Z " />
<glyph glyph-name="v" unicode="v" horiz-adv-x="552" d="M339 0 L210 0 L87 479 L192 479 L290 98 L508 479 L613 479 L339 0 Z " />
<glyph glyph-name="w" unicode="w" horiz-adv-x="776" d="M175 0 L89 479 L192 479 L247 117 L422 479 L508 479 L570 120 L737 479 L840 479 L604 0 L498 0 L444 293 L443 339 L428 293 L283 0 L175 0 Z " />
<glyph glyph-name="x" unicode="x" horiz-adv-x="518" d="M502 0 L384 0 L287 168 L137 0 L19 0 L241 248 L107 479 L225 479 L313 329 L446 479 L564 479 L359 248 L502 0 Z " />
<glyph glyph-name="y" unicode="y" horiz-adv-x="535" d="M221 54 L85 479 L193 479 L292 168 L486 479 L593 479 L178 -191 L71 -191 L221 54 Z " />
<glyph glyph-name="z" unicode="z" horiz-adv-x="451" d="M170 86 L433 86 L420 0 L21 0 L31 69 L344 392 L104 392 L117 479 L491 479 L480 406 L170 86 Z " />
<glyph glyph-name="germandbls" unicode="&#xdf;" horiz-adv-x="527" d="M221 86 L289 86 Q310 86 329 97.5 Q348 109 363 127 Q378 145 388 168 Q398 191 402 215 Q406 239 403.5 260 Q401 281 390 296.5 Q379 312 358 321 Q337 330 304 330 L319 427 Q337 427 353 435 Q369 443 381.5 457 Q394 471 402 489.5 Q410 508 413 528 Q420 568 402.5 596.5 Q385 625 342 625 Q324 625 306.5 617.5 Q289 610 275 596.5 Q261 583 251 565.5 Q241 548 238 528 Q237 523 232 491 Q227 459 219.5 411 Q212 363 202.5 303 Q193 243 183 182 Q160 38 131 -143 L26 -143 Q55 38 78 184 Q88 246 97.5 307 Q107 368 114.5 417.5 Q122 467 127.5 500 Q133 533 134 541 Q140 577 159 609.5 Q178 642 205.5 666 Q233 690 267.5 704 Q302 718 339 718 L363 718 Q399 718 429.5 704 Q460 690 480 666 Q500 642 509 609.5 Q518 577 512 541 Q506 499 493 473.5 Q480 448 467 432 Q454 416 443.5 406.5 Q433 397 432 389 Q431 381 446 371.5 Q461 362 477.5 343 Q494 324 505 291 Q516 258 507 202 Q501 161 479 122.5 Q457 84 425.5 54.5 Q394 25 354.5 7.5 Q315 -10 274 -10 L206 -10 L221 86 Z " />
<glyph glyph-name="caron" unicode="&#x2c7;" horiz-adv-x="353" d="M376 861 L477 861 L336 736 L245 736 L149 861 L251 861 L297 773 L376 861 Z " />
<glyph glyph-name="zero" unicode="0" horiz-adv-x="580" d="M283 -10 Q231 -10 189 14.5 Q147 39 120 84 Q94 128 84 185 Q74 242 84 307 L98 394 Q109 466 137 525 Q165 584 203 627 Q242 671 292 694.5 Q342 718 398 718 Q453 718 495.5 695 Q538 672 564 628 Q590 585 599 525.5 Q608 466 597 394 L583 307 Q572 238 543.5 180.5 Q515 123 475 80 Q434 37 385 13.5 Q336 -10 283 -10 Z M186 307 Q178 258 184 216 Q190 174 207 144 Q224 118 247 103.5 Q270 89 299 89 Q332 89 361.5 105 Q391 121 415 149.5 Q439 178 456 218 Q473 258 481 307 L495 394 Q504 451 499 495 Q494 539 477 569 Q445 619 383 619 Q319 619 271 568 Q218 509 200 394 L186 307 Z " />
<glyph glyph-name="two" unicode="2" horiz-adv-x="551" d="M45 0 L56 70 L296 302 Q351 357 383 388 Q415 419 432 438 Q449 457 455.5 471 Q462 485 465 507 Q474 563 445.5 591.5 Q417 620 370 620 Q346 620 324 610.5 Q302 601 284 585 Q266 569 253.5 549 Q241 529 238 507 L136 507 Q143 550 166 588.5 Q189 627 222.5 656 Q256 685 298 702 Q340 719 385 719 Q430 719 466.5 702 Q503 685 527.5 656 Q552 627 563 588.5 Q574 550 567 507 Q562 475 548.5 444.5 Q535 414 512 391 L215 97 L517 97 L502 0 L45 0 Z " />
<glyph glyph-name="one" unicode="1" horiz-adv-x="299" d="M221 615 L126 615 L141 709 L341 709 L229 0 L124 0 L221 615 Z " />
<glyph glyph-name="three" unicode="3" horiz-adv-x="540" d="M403 464 Q449 460 479.5 440 Q510 420 527 389.5 Q544 359 548.5 320.5 Q553 282 546 242 Q538 192 511.5 146.5 Q485 101 446.5 66.5 Q408 32 360.5 11 Q313 -10 263 -10 Q222 -10 187.5 3.5 Q153 17 126 40.5 Q99 64 81.5 96 Q64 128 57 164 L155 199 Q162 152 197 120 Q232 88 285 90 Q313 91 340 103.5 Q367 116 388.5 136.5 Q410 157 425.5 182.5 Q441 208 447 237 Q453 267 446.5 294 Q440 321 424 341.5 Q408 362 384 374.5 Q360 387 330 388 Q320 388 309.5 386 Q299 384 289 381 L258 431 L411 615 L197 615 L212 709 L561 709 L550 642 Q509 592 476 553 Q462 536 449 520.5 Q436 505 425.5 492 Q415 479 409 471.5 Q403 464 403 464 Z " />
<glyph glyph-name="four" unicode="4" horiz-adv-x="642" d="M96 130 L71 181 L526 709 L609 709 L532 224 L646 224 L631 130 L517 130 L497 0 L392 0 L412 130 L96 130 Z M228 224 L425 224 L470 509 L228 224 Z " />
<glyph glyph-name="five" unicode="5" horiz-adv-x="538" d="M257 90 Q287 90 315.5 101.5 Q344 113 367 133 Q390 153 405.5 179.5 Q421 206 426 236 Q432 274 420.5 306.5 Q409 339 383 359 Q361 377 319.5 383 Q278 389 234 372 Q211 362 192 346 L139 386 L227 709 L537 709 L522 615 L299 615 L259 463 Q286 472 314 474 Q342 476 367.5 473 Q393 470 415 461 Q437 452 453 439 Q497 405 515.5 351.5 Q534 298 524 236 Q516 185 489.5 140.5 Q463 96 425 62.5 Q387 29 339.5 9.5 Q292 -10 241 -10 Q183 -10 137.5 16 Q92 42 65 84 Q47 108 41 139 L134 188 Q138 165 151 146 Q167 120 194.5 105 Q222 90 257 90 Z " />
<glyph glyph-name="six" unicode="6" horiz-adv-x="569" d="M285 -10 Q234 -10 192.5 9.5 Q151 29 123.5 62.5 Q96 96 84 140.5 Q72 185 80 236 Q85 271 101 303 Q117 335 138 367 Q143 374 156 393 Q169 412 187 437.5 Q205 463 226 493 Q247 523 268 553 Q317 623 377 709 L487 709 L318 470 Q372 483 419 474 Q466 465 498 439 Q541 405 560 351.5 Q579 298 569 236 Q561 185 534.5 140.5 Q508 96 469.5 62.5 Q431 29 383.5 9.5 Q336 -10 285 -10 Z M229 336 Q212 310 196.5 282 Q181 254 178 236 Q173 206 180.5 179 Q188 152 204.5 132 Q221 112 245.5 100 Q270 88 300 88 Q330 88 358.5 100 Q387 112 410.5 132 Q434 152 449.5 179 Q465 206 470 236 Q476 274 465 306.5 Q454 339 428 359 Q412 372 389 379.5 Q366 387 339.5 386 Q313 385 285 375 Q257 365 233 342 L229 336 Z " />
<glyph glyph-name="seven" unicode="7" horiz-adv-x="484" d="M401 615 L127 615 L142 709 L549 709 L549 708 L541 661 L162 0 L49 0 L401 615 Z " />
<glyph glyph-name="eight" unicode="8" horiz-adv-x="515" d="M67 216 Q75 268 106 313.5 Q137 359 186 386 Q157 412 147.5 446.5 Q138 481 144 519 Q150 559 171.5 595 Q193 631 224 658.5 Q255 686 293.5 702 Q332 718 372 718 Q412 718 445 702 Q478 686 500.5 658.5 Q523 631 533 595 Q543 559 537 519 Q531 481 509 446.5 Q487 412 454 386 Q472 374 485.5 355.5 Q499 337 507.5 314.5 Q516 292 519 267 Q522 242 518 216 Q510 170 485.5 129 Q461 88 425.5 57 Q390 26 346.5 8 Q303 -10 257 -10 Q211 -10 173 8 Q135 26 109 57 Q83 88 71 129 Q59 170 67 216 Z M357 621 Q337 621 318.5 612.5 Q300 604 285 590 Q270 576 260 557.5 Q250 539 247 519 Q242 491 252.5 468.5 Q263 446 284 434 Q301 424 326 424 Q350 424 370 434 Q396 446 412.5 468.5 Q429 491 434 519 Q437 539 432.5 557.5 Q428 576 418 590 Q408 604 392 612.5 Q376 621 357 621 Z M265 330 Q229 316 203.5 285.5 Q178 255 172 216 Q168 191 173.5 168 Q179 145 192.5 127 Q206 109 226 98.5 Q246 88 272 88 Q297 88 320.5 98.5 Q344 109 363.5 127 Q383 145 396 168 Q409 191 413 216 Q419 255 403.5 285.5 Q388 316 357 330 Q336 339 312 339 Q287 339 265 330 Z " />
<glyph glyph-name="nine" unicode="9" horiz-adv-x="556" d="M178 273 Q135 308 116 361.5 Q97 415 107 476 Q115 527 141 571 Q167 615 205.5 647.5 Q244 680 291.5 699 Q339 718 390 718 Q440 718 481.5 699 Q523 680 551 647.5 Q579 615 591.5 571 Q604 527 596 476 Q591 441 574.5 409 Q558 377 537 345 Q532 337 518.5 318 Q505 299 487 273.5 Q469 248 447.5 217.5 Q426 187 405 157 Q355 86 294 0 L185 0 L358 243 Q304 230 257 238.5 Q210 247 178 273 Z M375 622 Q345 622 316.5 610.5 Q288 599 264.5 579.5 Q241 560 225.5 533 Q210 506 205 476 Q199 438 210 405.5 Q221 373 247 353 Q263 340 286 332.5 Q309 325 335.5 326 Q362 327 390 337 Q418 347 442 370 L447 376 Q464 402 479.5 430 Q495 458 498 476 Q503 506 495.5 533 Q488 560 471.5 579.5 Q455 599 430 610.5 Q405 622 375 622 Z " />
<glyph glyph-name="breve" unicode="&#x2d8;" horiz-adv-x="375" d="M293 751 Q266 751 243.5 761.5 Q221 772 206 790 Q191 808 184.5 832.5 Q178 857 183 884 L258 884 Q254 861 268 844 Q282 827 305 827 Q328 827 348 844 Q368 861 372 884 L448 884 Q443 857 428.5 832.5 Q414 808 393 790 Q372 772 346 761.5 Q320 751 293 751 Z " />
<glyph glyph-name="period" unicode="&#x2e;" horiz-adv-x="239" d="M51 52 Q55 78 76 96.5 Q97 115 123 115 Q149 115 164 96.5 Q179 78 175 52 Q170 26 149.5 8 Q129 -10 103 -10 Q77 -10 61.5 8 Q46 26 51 52 Z " />
<glyph glyph-name="semicolon" unicode="&#x3b;" horiz-adv-x="274" d="M182 300 Q156 300 140.5 318 Q125 336 130 362 Q134 388 155 406.5 Q176 425 202 425 Q228 425 243.5 406.5 Q259 388 255 362 Q250 336 229 318 Q208 300 182 300 Z M103 -128 L22 -128 L94 118 L207 118 L103 -128 Z " />
<glyph glyph-name="colon" unicode="&#x3a;" horiz-adv-x="304" d="M188 300 Q162 300 146.5 318 Q131 336 136 362 Q140 388 161 406.5 Q182 425 208 425 Q234 425 249.5 406.5 Q265 388 261 362 Q256 336 235 318 Q214 300 188 300 Z M87 52 Q91 78 112 96.5 Q133 115 159 115 Q185 115 200 96.5 Q215 78 211 52 Q206 26 185.5 8 Q165 -10 139 -10 Q113 -10 97.5 8 Q82 26 87 52 Z " />
<glyph glyph-name="parenleft" unicode="&#x28;" horiz-adv-x="283" d="M155 -138 Q106 -44 89 70.5 Q72 185 92 313 Q112 441 164.5 554 Q217 667 294 760 L371 740 Q296 652 245 543.5 Q194 435 174 313 Q154 189 171 80 Q188 -29 236 -117 L155 -138 Z " />
<glyph glyph-name="parenright" unicode="&#x29;" horiz-adv-x="302" d="M4 -117 Q79 -29 131 80 Q183 189 203 313 Q223 435 206 543.5 Q189 652 144 740 L225 760 Q272 667 288.5 554 Q305 441 285 313 Q265 185 211.5 70.5 Q158 -44 81 -138 L4 -117 Z " />
<glyph glyph-name="exclam" unicode="&#x21;" horiz-adv-x="258" d="M112 164 L186 709 L299 709 L200 164 L112 164 Z M129 -10 Q103 -10 87 8 Q71 26 76 52 Q80 78 101.5 96.5 Q123 115 149 115 Q175 115 190 96.5 Q205 78 201 52 Q196 26 175.5 8 Q155 -10 129 -10 Z " />
<glyph glyph-name="question" unicode="&#x3f;" horiz-adv-x="463" d="M167 115 Q193 115 208 96.5 Q223 78 219 52 Q214 26 193.5 8 Q173 -10 147 -10 Q121 -10 105.5 8 Q90 26 95 52 Q99 78 120 96.5 Q141 115 167 115 Z M273 624 Q238 624 209 617.5 Q180 611 151 589 L151 682 Q182 699 217 708.5 Q252 718 288 718 Q339 718 380.5 700 Q422 682 450.5 651.5 Q479 621 491.5 580 Q504 539 497 493 Q479 380 355 312 Q335 301 314 293 Q293 285 275 273 Q257 261 243.5 243 Q230 225 225 195 L220 164 L124 164 L130 200 Q137 246 161 278 Q185 310 214 331 Q243 352 272.5 365 Q302 378 321 386 Q354 400 374 431 Q394 462 399 495 Q403 522 395.5 545.5 Q388 569 370.5 586.5 Q353 604 328 614 Q303 624 273 624 Z " />
<glyph glyph-name="B" unicode="B" horiz-adv-x="600" d="M589 198 Q582 157 561 121 Q540 85 508.5 58 Q477 31 438.5 15.5 Q400 0 359 0 L56 0 L168 709 L445 709 Q481 709 511 695 Q541 681 561 657 Q581 633 590 600.5 Q599 568 593 531 Q585 485 564 447.5 Q543 410 505 384 Q559 363 579 312.5 Q599 262 589 198 Z M226 422 Q266 421 300 421 L400 421 Q438 421 468.5 449.5 Q499 478 506 518 Q512 559 490.5 587 Q469 615 431 615 L257 615 L226 422 Z M175 97 Q182 96 206 96 L374 96 Q395 96 415 105 Q435 114 451.5 129.5 Q468 145 479 166 Q490 187 494 211 Q498 235 493 255.5 Q488 276 476.5 291.5 Q465 307 448 316 Q431 325 410 325 L211 325 L175 97 Z " />
<glyph glyph-name="C" unicode="C" horiz-adv-x="686" d="M403 87 Q461 87 515 115 Q569 143 610 189 L672 119 Q615 62 541 26 Q467 -10 388 -10 Q316 -10 257 19 Q198 48 158.5 97.5 Q119 147 102 213.5 Q85 280 97 354 Q109 429 146.5 495 Q184 561 239 610.5 Q294 660 362.5 689 Q431 718 503 718 Q570 718 625.5 691.5 Q681 665 721 622 L647 543 Q619 578 578.5 600.5 Q538 623 488 623 Q437 623 389 601.5 Q341 580 302 543 Q263 506 236.5 457.5 Q210 409 201 354 Q192 299 203.5 250.5 Q215 202 242.5 165.5 Q270 129 311 108 Q352 87 403 87 Z " />
<glyph glyph-name="D" unicode="D" horiz-adv-x="678" d="M60 0 L172 709 L424 709 Q501 709 555.5 681 Q610 653 642 605 Q674 557 684.5 492 Q695 427 683 354 Q671 280 639.5 215.5 Q608 151 562.5 103 Q517 55 460.5 27.5 Q404 0 344 0 L60 0 Z M323 97 Q380 97 423.5 118 Q467 139 498.5 174 Q530 209 549.5 256 Q569 303 577 354 Q585 405 580.5 452.5 Q576 500 556 536 Q536 572 499 593.5 Q462 615 405 615 L262 615 L180 97 L323 97 Z " />
<glyph glyph-name="E" unicode="E" horiz-adv-x="549" d="M601 709 L586 615 L257 615 L226 422 L519 422 L504 325 L504 325 L211 325 L175 97 L504 97 L489 0 L489 0 L160 0 L108 0 L56 0 L168 709 L601 709 Z " />
<glyph glyph-name="F" unicode="F" horiz-adv-x="540" d="M646 709 L631 615 L257 615 L226 422 L565 422 L550 325 L211 325 L160 0 L56 0 L168 709 L646 709 Z " />
<glyph glyph-name="G" unicode="G" horiz-adv-x="710" d="M512 379 L705 379 L663 119 Q606 62 532.5 26 Q459 -10 379 -10 Q307 -10 248 19 Q189 48 149.5 97.5 Q110 147 93 213 Q76 279 88 354 Q100 428 137.5 494.5 Q175 561 230 610.5 Q285 660 353.5 689 Q422 718 494 718 Q560 718 615 692 Q670 666 710 624 L636 545 Q608 580 568 601.5 Q528 623 479 623 Q428 623 380.5 601.5 Q333 580 294 543 Q255 506 228.5 457.5 Q202 409 193 354 Q184 299 195.5 250.5 Q207 202 234 165.5 Q261 129 302 108 Q343 87 394 87 Q441 87 485 105.5 Q529 124 566 155 L586 282 L496 282 L512 379 Z " />
<glyph glyph-name="H" unicode="H" horiz-adv-x="723" d="M670 709 L774 709 L662 0 L558 0 L609 325 L212 325 L161 0 L56 0 L168 709 L273 709 L227 422 L624 422 L670 709 Z " />
<glyph glyph-name="I" unicode="I" horiz-adv-x="393" d="M346 623 L261 86 L313 86 L300 0 L91 0 L104 86 L157 86 L242 623 L189 623 L203 709 L412 709 L398 623 L346 623 Z " />
<glyph glyph-name="J" unicode="J" horiz-adv-x="482" d="M535 709 Q517 595 502 501 Q496 461 489.5 421.5 Q483 382 477.5 349 Q472 316 468.5 292.5 Q465 269 464 261 Q460 237 456.5 214.5 Q453 192 446.5 170 Q440 148 429.5 126.5 Q419 105 401 85 Q362 40 312.5 15 Q263 -10 209 -10 Q170 -10 138 4.5 Q106 19 82 43.5 Q58 68 44 101 Q30 134 29 170 L129 199 Q129 177 136 157.5 Q143 138 156 123 Q169 108 187 99.5 Q205 91 226 91 Q250 91 270 100.5 Q290 110 305.5 125.5 Q321 141 332.5 161.5 Q344 182 350 203 Q351 208 354 224 Q357 240 361 264.5 Q365 289 370 320 Q375 351 380 385 Q388 439 397 496 Q406 553 414 601 Q423 656 431 709 L535 709 Z " />
<glyph glyph-name="K" unicode="K" horiz-adv-x="700" d="M401 380 L681 -1 L540 -1 L321 311 L191 199 L160 0 L56 0 L168 709 L272 709 L211 328 L303 411 L645 709 L782 709 L401 380 Z " />
<glyph glyph-name="L" unicode="L" horiz-adv-x="513" d="M59 0 L171 709 L276 709 L179 97 L507 97 L492 0 L59 0 Z " />
<glyph glyph-name="M" unicode="M" horiz-adv-x="825" d="M772 709 L877 709 L765 0 L661 0 L747 544 L495 259 L414 259 L251 544 L165 0 L60 0 L172 709 L277 709 L471 368 L772 709 Z " />
<glyph glyph-name="N" unicode="N" horiz-adv-x="725" d="M779 709 L667 0 L561 0 L251 544 L165 0 L56 0 L168 709 L278 709 L587 162 L674 709 L779 709 Z " />
<glyph glyph-name="O" unicode="O" horiz-adv-x="767" d="M498 719 Q570 719 629.5 690 Q689 661 729 611.5 Q769 562 786.5 495.5 Q804 429 792 355 Q780 280 741.5 214 Q703 148 647 98.5 Q591 49 522.5 20 Q454 -9 382 -9 Q310 -9 250.5 20 Q191 49 151.5 98.5 Q112 148 95 214 Q78 280 90 355 Q102 429 140 495.5 Q178 562 233.5 611.5 Q289 661 357.5 690 Q426 719 498 719 Z M399 90 Q450 90 497.5 110.5 Q545 131 583.5 167 Q622 203 649 251.5 Q676 300 685 355 Q694 410 682.5 458 Q671 506 643.5 542 Q616 578 575 598.5 Q534 619 483 619 Q432 619 384 598.5 Q336 578 297 542 Q258 506 231.5 458 Q205 410 196 355 Q187 300 198.5 251.5 Q210 203 238 167 Q266 131 307 110.5 Q348 90 399 90 Z " />
<glyph glyph-name="P" unicode="P" horiz-adv-x="582" d="M454 709 Q496 709 530.5 693 Q565 677 588 650 Q611 623 621.5 586.5 Q632 550 625 508 Q618 466 596.5 429 Q575 392 543 365 Q511 338 471.5 322.5 Q432 307 390 307 L206 306 L158 0 L54 0 L166 709 L454 709 Z M405 404 Q426 404 446 412.5 Q466 421 482 435 Q498 449 509.5 468.5 Q521 488 524 510 Q527 532 522 551 Q517 570 505.5 584.5 Q494 599 477 607.5 Q460 616 439 616 L255 616 L221 404 L405 404 Z " />
<glyph glyph-name="Q" unicode="Q" horiz-adv-x="794" d="M757 -9 L647 18 L605 67 Q556 33 499.5 12 Q443 -9 383 -9 Q311 -9 251.5 20 Q192 49 152.5 98.5 Q113 148 95.5 214 Q78 280 90 355 Q102 429 140 495.5 Q178 562 233.5 611.5 Q289 661 357.5 690 Q426 719 498 719 Q570 719 629.5 690 Q689 661 729 611.5 Q769 562 786.5 495.5 Q804 429 792 355 Q782 292 753.5 236.5 Q725 181 683 136 L716 96 L794 73 L757 -9 Z M622 209 Q646 241 662.5 277.5 Q679 314 686 355 Q695 410 683 458 Q671 506 643.5 542 Q616 578 575 598.5 Q534 619 483 619 Q432 619 384.5 598.5 Q337 578 298 542 Q259 506 232.5 458 Q206 410 197 355 Q188 300 199.5 251 Q211 202 238 165.5 Q265 129 306 108 Q347 87 398 87 Q437 87 474.5 100.5 Q512 114 546 137 L469 229 L549 298 L622 209 Z " />
<glyph glyph-name="R" unicode="R" horiz-adv-x="656" d="M641 0 L510 0 L335 306 L211 306 L163 0 L58 0 L170 709 L458 709 Q500 709 535 693 Q570 677 593 650 Q616 623 626.5 586.5 Q637 550 630 508 Q624 473 608 442 Q592 411 568.5 386 Q545 361 515 342.5 Q485 324 452 315 L641 0 Z M409 404 Q430 404 450 412.5 Q470 421 486.5 435 Q503 449 514 468.5 Q525 488 528 510 Q531 532 526.5 551 Q522 570 510.5 584.5 Q499 599 481.5 607.5 Q464 616 443 616 L260 616 L226 403 L409 404 Z " />
<glyph glyph-name="S" unicode="S" horiz-adv-x="580" d="M560 199 Q553 154 528.5 115.5 Q504 77 465 48 Q387 -10 279 -10 Q195 -10 132.5 24.5 Q70 59 47 117 L143 163 Q157 127 197.5 107.5 Q238 88 294 88 Q439 88 457 199 Q460 220 455 235 Q450 250 437 263 Q405 293 317 317 Q263 331 227 348 Q191 365 168 388 Q114 438 126 523 Q133 565 155 601.5 Q177 638 212 665 Q247 692 290.5 705.5 Q334 719 384 719 Q457 719 514 691 Q571 663 595 612 L507 562 Q483 597 447.5 611.5 Q412 626 370 626 Q340 626 313 616 Q286 606 267 592 Q252 580 242.5 562.5 Q233 545 230 525 Q228 512 229.5 498.5 Q231 485 244 470.5 Q257 456 283.5 442.5 Q310 429 358 416 Q415 401 454 383.5 Q493 366 517 342 Q574 288 560 199 Z " />
<glyph glyph-name="T" unicode="T" horiz-adv-x="522" d="M294 615 L102 615 L117 709 L606 709 L591 615 L398 615 L301 0 L197 0 L294 615 Z " />
<glyph glyph-name="U" unicode="U" horiz-adv-x="634" d="M689 709 Q671 595 656 501 Q650 460 643.5 420 Q637 380 631.5 346 Q626 312 621.5 286.5 Q617 261 616 251 Q608 197 580 149.5 Q552 102 511.5 66.5 Q471 31 420.5 10.5 Q370 -10 316 -10 Q262 -10 218.5 10.5 Q175 31 145.5 66.5 Q116 102 103 149.5 Q90 197 98 251 Q100 262 104 287.5 Q108 313 113.5 347.5 Q119 382 125.5 422 Q132 462 138 502 Q153 596 171 709 L275 709 Q257 598 242 504 Q236 464 229.5 423.5 Q223 383 217.5 348.5 Q212 314 208 288.5 Q204 263 202 251 Q197 219 204.5 190 Q212 161 229.5 138.5 Q247 116 273.5 103 Q300 90 332 90 Q364 90 394 103 Q424 116 448.5 138.5 Q473 161 489.5 190 Q506 219 511 251 Q513 266 517.5 293.5 Q522 321 527.5 356 Q533 391 539.5 431 Q546 471 552 510 Q567 602 584 709 L689 709 L689 709 Z " />
<glyph glyph-name="V" unicode="V" horiz-adv-x="732" d="M308 0 L126 709 L239 709 L387 134 L717 709 L830 709 L424 0 L308 0 Z " />
<glyph glyph-name="W" unicode="W" horiz-adv-x="957" d="M936 709 L1053 709 L728 0 L626 0 L563 441 L559 521 L528 437 L328 0 L225 0 L124 709 L239 709 L299 169 L550 709 L629 709 L707 174 L936 709 Z " />
<glyph glyph-name="X" unicode="X" horiz-adv-x="684" d="M463 381 L656 0 L531 0 L386 286 L150 0 L25 0 L338 381 L172 709 L297 709 L416 475 L608 709 L733 709 L463 381 Z " />
<glyph glyph-name="Y" unicode="Y" horiz-adv-x="627" d="M311 332 L121 709 L246 709 L381 443 L600 709 L726 709 L416 332 L364 0 L259 0 L311 332 Z " />
<glyph glyph-name="Z" unicode="Z" horiz-adv-x="605" d="M34 0 L47 85 L504 615 L164 615 L179 709 L645 709 L631 624 L181 97 L568 97 L553 0 L34 0 Z " />
<glyph glyph-name="dieresis" unicode="&#xa8;" horiz-adv-x="437" d="M220 742 Q194 742 178.5 760.5 Q163 779 168 805 Q172 831 193 849 Q214 867 240 867 Q266 867 281 849 Q296 831 292 805 Q287 779 266.5 760.5 Q246 742 220 742 Z M451 742 Q425 742 409.5 760.5 Q394 779 399 805 Q403 831 424 849 Q445 867 471 867 Q497 867 512 849 Q527 831 523 805 Q518 779 497.5 760.5 Q477 742 451 742 Z " />
<glyph glyph-name="Gbreve" unicode="&#x11e;" horiz-adv-x="703" d="M512 379 L705 379 L663 119 Q606 62 532.5 26 Q459 -10 379 -10 Q307 -10 248 19 Q189 48 149.5 97.5 Q110 147 93 213 Q76 279 88 354 Q100 428 137.5 494.5 Q175 561 230 610.5 Q285 660 353.5 689 Q422 718 494 718 Q560 718 615 692 Q670 666 710 624 L636 545 Q608 580 568 601.5 Q528 623 479 623 Q428 623 380.5 601.5 Q333 580 294 543 Q255 506 228.5 457.5 Q202 409 193 354 Q184 299 195.5 250.5 Q207 202 234 165.5 Q261 129 302 108 Q343 87 394 87 Q441 87 485 105.5 Q529 124 566 155 L586 282 L496 282 L512 379 Z M499 751 Q472 751 449.5 761.5 Q427 772 412 790 Q397 808 390.5 832.5 Q384 857 389 884 L464 884 Q460 861 474 844 Q488 827 511 827 Q534 827 554 844 Q574 861 578 884 L654 884 Q649 857 634.5 832.5 Q620 808 599 790 Q578 772 552 761.5 Q526 751 499 751 Z " />
<glyph glyph-name="gbreve" unicode="&#x11f;" horiz-adv-x="591" d="M277 24 Q227 24 188 42.5 Q149 61 123 93.5 Q97 126 86.5 168.5 Q76 211 84 259 Q91 307 115.5 349 Q140 391 175.5 422.5 Q211 454 256 472 Q301 490 351 490 Q401 490 436 475 Q471 460 494 432 L521 479 L597 479 Q596 476 595.5 471.5 Q595 467 593 454 Q591 441 587.5 417 Q584 393 577.5 351 Q571 309 561 246 Q551 183 537 93 Q532 63 526 34.5 Q520 6 509.5 -20.5 Q499 -47 482.5 -71.5 Q466 -96 441 -119 Q394 -161 341 -175.5 Q288 -190 232 -190 Q184 -190 143.5 -178 Q103 -166 72 -146 L89 -38 Q104 -67 144 -85 Q184 -103 238 -103 Q274 -103 306.5 -93.5 Q339 -84 365.5 -64.5 Q392 -45 410 -14 Q428 17 435 60 L438 79 Q424 68 405 58 Q386 48 364 40.5 Q342 33 319.5 28.5 Q297 24 277 24 Z M346 402 Q317 402 289.5 391 Q262 380 239.5 360.5 Q217 341 201.5 315 Q186 289 182 259 Q177 229 184 202.5 Q191 176 207.5 156.5 Q224 137 248 125.5 Q272 114 301 114 Q330 114 357 123 Q384 132 406 150 Q428 168 443.5 195 Q459 222 465 259 Q471 298 464 325.5 Q457 353 440.5 370 Q424 387 399.5 394.5 Q375 402 346 402 Z M391 576 Q364 576 341.5 586.5 Q319 597 304 615 Q289 633 282.5 657.5 Q276 682 281 709 L356 709 Q352 686 366 669 Q380 652 403 652 Q426 652 446 669 Q466 686 470 709 L546 709 Q541 682 526.5 657.5 Q512 633 491 615 Q470 597 444 586.5 Q418 576 391 576 Z " />
<glyph glyph-name="dotlessi" unicode="&#x131;" horiz-adv-x="232" d="M165 0 L68 0 L143 479 L239 479 L165 0 Z " />
<glyph glyph-name="Idotaccent" unicode="&#x130;" horiz-adv-x="335" d="M284 756 Q258 756 243 774.5 Q228 793 232 819 Q237 845 257.5 863 Q278 881 304 881 Q330 881 345.5 863 Q361 845 356 819 Q352 793 331 774.5 Q310 756 284 756 Z M317 623 L232 86 L284 86 L271 0 L62 0 L75 86 L128 86 L213 623 L160 623 L174 709 L383 709 L369 623 L317 623 Z " />
<glyph glyph-name="cedilla" unicode="&#xb8;" horiz-adv-x="319" d="M101 -79 Q84 -79 66 -88 L41 -60 L148 65 L197 65 L107 -47 Q155 -38 175.5 -56 Q196 -74 191 -104 Q185 -142 154 -159.5 Q123 -177 85 -177 Q74 -177 60.5 -176 Q47 -175 37 -173 Q41 -165 44.5 -156 Q48 -147 50 -139 Q55 -140 61 -140.5 Q67 -141 75 -141 Q96 -141 113 -133.5 Q130 -126 132 -109 Q134 -95 126 -87 Q118 -79 101 -79 Z " />
<glyph glyph-name="Scedilla" unicode="&#x15e;" horiz-adv-x="551" d="M255 -79 Q238 -79 220 -88 L195 -60 L239 -8 Q167 -1 114.5 32 Q62 65 42 117 L138 163 Q152 127 192.5 107.5 Q233 88 289 88 Q434 88 452 199 Q455 220 450 235 Q445 250 432 263 Q400 293 312 317 Q258 331 222 348 Q186 365 163 388 Q109 438 121 523 Q128 565 150 601.5 Q172 638 207 665 Q242 692 285.5 705.5 Q329 719 379 719 Q452 719 509 691 Q566 663 590 612 L502 562 Q478 597 442.5 611.5 Q407 626 365 626 Q335 626 308 616 Q281 606 262 592 Q247 580 237.5 562.5 Q228 545 225 525 Q223 512 224.5 498.5 Q226 485 239 470.5 Q252 456 278.5 442.5 Q305 429 353 416 Q410 401 449 383.5 Q488 366 512 342 Q569 288 555 199 Q548 154 523.5 115.5 Q499 77 460 48 Q425 22 382 7.5 Q339 -7 291 -9 L261 -47 Q309 -38 329.5 -56 Q350 -74 345 -104 Q339 -142 308 -159.5 Q277 -177 239 -177 Q228 -177 214.5 -176 Q201 -175 191 -173 Q195 -165 198.5 -156 Q202 -147 204 -139 Q209 -140 215 -140.5 Q221 -141 229 -141 Q250 -141 267 -133.5 Q284 -126 286 -109 Q288 -95 280 -87 Q272 -79 255 -79 Z " />
<glyph glyph-name="scedilla" unicode="&#x15f;" horiz-adv-x="444" d="M202 -79 Q185 -79 167 -88 L142 -60 L185 -9 Q158 -6 135 4 Q112 14 94 29 Q77 43 67.5 62 Q58 81 54 101 L142 138 Q147 121 153 113 Q159 105 165 100 Q176 89 193.5 83.5 Q211 78 231 78 Q271 78 301 100 Q314 109 323.5 122.5 Q333 136 331 151 Q329 164 318.5 173.5 Q308 183 293.5 189 Q279 195 263.5 198.5 Q248 202 237 205 Q205 213 178 224.5 Q151 236 132 252.5 Q113 269 104 291.5 Q95 314 100 345 Q105 374 125 402 Q145 430 174 450 Q200 468 232 477.5 Q264 487 296 487 Q328 487 357 477.5 Q386 468 406 450 Q424 434 434 412 Q444 390 445 367 L354 346 Q352 370 334.5 386.5 Q317 403 282 403 Q264 403 245 395 Q226 387 212 373 Q199 361 198 344 Q197 327 210 316 Q223 305 238 300 Q253 295 270 290 Q315 279 341 268 Q367 257 385 244 Q440 208 429 141 Q424 109 402.5 76.5 Q381 44 345 24 Q297 -4 238 -10 L208 -47 Q256 -38 276.5 -56 Q297 -74 292 -104 Q286 -142 255 -159.5 Q224 -177 186 -177 Q175 -177 161.5 -176 Q148 -175 138 -173 Q142 -165 145.5 -156 Q149 -147 151 -139 Q156 -140 162 -140.5 Q168 -141 176 -141 Q197 -141 214 -133.5 Q231 -126 233 -109 Q235 -95 227 -87 Q219 -79 202 -79 Z " />
<glyph glyph-name="Ccedilla" unicode="&#xc7;" horiz-adv-x="663" d="M346 -79 Q329 -79 311 -88 L286 -60 L330 -8 Q265 -1 212.5 30 Q160 61 125.5 110 Q91 159 77 221.5 Q63 284 74 354 Q86 429 123.5 495 Q161 561 216 610.5 Q271 660 339.5 689 Q408 718 480 718 Q547 718 602.5 691.5 Q658 665 698 622 L624 543 Q596 578 555.5 600.5 Q515 623 465 623 Q414 623 366 601.5 Q318 580 279 543 Q240 506 213.5 457.5 Q187 409 178 354 Q169 299 180.5 250.5 Q192 202 219.5 165.5 Q247 129 288 108 Q329 87 380 87 Q438 87 492 115 Q546 143 587 189 L649 119 Q595 65 526 30 Q457 -5 382 -9 L352 -47 Q400 -38 420.5 -56 Q441 -74 436 -104 Q430 -142 399 -159.5 Q368 -177 330 -177 Q319 -177 305.5 -176 Q292 -175 282 -173 Q286 -165 289.5 -156 Q293 -147 295 -139 Q300 -140 306 -140.5 Q312 -141 320 -141 Q341 -141 358 -133.5 Q375 -126 377 -109 Q379 -95 371 -87 Q363 -79 346 -79 Z " />
<glyph glyph-name="ccedilla" unicode="&#xe7;" horiz-adv-x="500" d="M260 -79 Q243 -79 225 -88 L200 -60 L243 -9 Q201 -2 167.5 19.5 Q134 41 112 74 Q90 107 81 149.5 Q72 192 80 239 Q88 291 114 337 Q140 383 178 417 Q216 451 263 470.5 Q310 490 360 490 Q418 490 463 464 Q508 438 534 393 L457 340 Q442 369 414 386.5 Q386 404 351 404 Q321 404 292 391 Q263 378 239.5 355.5 Q216 333 200 303 Q184 273 178 239 Q173 205 179.5 175 Q186 145 202.5 122.5 Q219 100 244 87 Q269 74 299 74 Q338 74 373.5 95 Q409 116 434 151 L491 93 Q453 47 402 19.5 Q351 -8 294 -11 L266 -47 Q314 -38 334.5 -56 Q355 -74 350 -104 Q344 -142 313 -159.5 Q282 -177 244 -177 Q233 -177 219.5 -176 Q206 -175 196 -173 Q200 -165 203.5 -156 Q207 -147 209 -139 Q214 -140 220 -140.5 Q226 -141 234 -141 Q255 -141 272 -133.5 Q289 -126 291 -109 Q293 -95 285 -87 Q277 -79 260 -79 Z " />
<glyph glyph-name="Odieresis" unicode="&#xd6;" horiz-adv-x="767" d="M496 719 Q568 719 627.5 690 Q687 661 727 611.5 Q767 562 784.5 495.5 Q802 429 790 355 Q778 280 739.5 214 Q701 148 645 98.5 Q589 49 520.5 20 Q452 -9 380 -9 Q308 -9 248.5 20 Q189 49 149.5 98.5 Q110 148 93 214 Q76 280 88 355 Q100 429 138 495.5 Q176 562 231.5 611.5 Q287 661 355.5 690 Q424 719 496 719 Z M397 90 Q448 90 495.5 110.5 Q543 131 581.5 167 Q620 203 647 251.5 Q674 300 683 355 Q692 410 680.5 458 Q669 506 641.5 542 Q614 578 573 598.5 Q532 619 481 619 Q430 619 382 598.5 Q334 578 295 542 Q256 506 229.5 458 Q203 410 194 355 Q185 300 196.5 251.5 Q208 203 236 167 Q264 131 305 110.5 Q346 90 397 90 Z M387 756 Q361 756 345.5 774.5 Q330 793 335 819 Q339 845 360 863 Q381 881 407 881 Q433 881 448 863 Q463 845 459 819 Q454 793 433.5 774.5 Q413 756 387 756 Z M618 756 Q592 756 576.5 774.5 Q561 793 566 819 Q570 845 591 863 Q612 881 638 881 Q664 881 679 863 Q694 845 690 819 Q685 793 664.5 774.5 Q644 756 618 756 Z " />
<glyph glyph-name="Udieresis" unicode="&#xdc;" horiz-adv-x="638" d="M690 709 Q672 595 657 501 Q651 460 644.5 420 Q638 380 632.5 346 Q627 312 622.5 286.5 Q618 261 617 251 Q609 197 581 149.5 Q553 102 512.5 66.5 Q472 31 421.5 10.5 Q371 -10 317 -10 Q263 -10 219.5 10.5 Q176 31 146.5 66.5 Q117 102 104 149.5 Q91 197 99 251 Q101 262 105 287.5 Q109 313 114.5 347.5 Q120 382 126.5 422 Q133 462 139 502 Q154 596 172 709 L276 709 Q258 598 243 504 Q237 464 230.5 423.5 Q224 383 218.5 348.5 Q213 314 209 288.5 Q205 263 203 251 Q198 219 205.5 190 Q213 161 230.5 138.5 Q248 116 274.5 103 Q301 90 333 90 Q365 90 395 103 Q425 116 449.5 138.5 Q474 161 490.5 190 Q507 219 512 251 Q514 266 518.5 293.5 Q523 321 528.5 356 Q534 391 540.5 431 Q547 471 553 510 Q568 602 585 709 L690 709 L690 709 Z M323 756 Q297 756 281.5 774.5 Q266 793 271 819 Q275 845 296 863 Q317 881 343 881 Q369 881 384 863 Q399 845 395 819 Q390 793 369.5 774.5 Q349 756 323 756 Z M554 756 Q528 756 512.5 774.5 Q497 793 502 819 Q506 845 527 863 Q548 881 574 881 Q600 881 615 863 Q630 845 626 819 Q621 793 600.5 774.5 Q580 756 554 756 Z " />
<glyph glyph-name="odieresis" unicode="&#xf6;" horiz-adv-x="540" d="M269 -12 Q219 -12 178.5 7.5 Q138 27 110.5 61 Q83 95 71.5 141 Q60 187 68 239 Q76 291 102.5 337 Q129 383 167 417 Q205 451 251.5 470.5 Q298 490 348 490 Q397 490 438 470.5 Q479 451 506 417 Q533 383 544.5 337 Q556 291 548 239 Q540 187 514 141 Q488 95 450 61 Q412 27 365 7.5 Q318 -12 269 -12 Z M334 403 Q305 403 277 390 Q249 377 226.5 355 Q204 333 188 303 Q172 273 166 239 Q161 205 167.5 175 Q174 145 189.5 122.5 Q205 100 229 87 Q253 74 282 74 Q311 74 339 87 Q367 100 389.5 122.5 Q412 145 428 175 Q444 205 449 239 Q455 273 448.5 303 Q442 333 426.5 355 Q411 377 387 390 Q363 403 334 403 Z M249 584 Q223 584 207.5 602.5 Q192 621 197 647 Q201 673 222 691 Q243 709 269 709 Q295 709 310 691 Q325 673 321 647 Q316 621 295.5 602.5 Q275 584 249 584 Z M480 584 Q454 584 438.5 602.5 Q423 621 428 647 Q432 673 453 691 Q474 709 500 709 Q526 709 541 691 Q556 673 552 647 Q547 621 526.5 602.5 Q506 584 480 584 Z " />
<glyph glyph-name="udieresis" unicode="&#xfc;" horiz-adv-x="542" d="M386 43 Q357 20 321.5 5 Q286 -10 245 -10 Q219 -10 187.5 -2.5 Q156 5 130.5 27 Q105 49 91.5 87.5 Q78 126 88 188 L134 479 L226 479 L180 188 Q175 157 181.5 135.5 Q188 114 201.5 101 Q215 88 234 82 Q253 76 274 76 Q290 76 311.5 82 Q333 88 353 101.5 Q373 115 388.5 136 Q404 157 409 187 L455 479 L552 479 L477 0 L400 0 L386 43 Z M245 584 Q219 584 203.5 602.5 Q188 621 193 647 Q197 673 218 691 Q239 709 265 709 Q291 709 306 691 Q321 673 317 647 Q312 621 291.5 602.5 Q271 584 245 584 Z M476 584 Q450 584 434.5 602.5 Q419 621 424 647 Q428 673 449 691 Q470 709 496 709 Q522 709 537 691 Q552 673 548 647 Q543 621 522.5 602.5 Q502 584 476 584 Z " />
<glyph glyph-name="comma" unicode="&#x2c;" horiz-adv-x="292" d="M103 -128 L22 -128 L94 118 L207 118 L103 -128 Z " />
<glyph glyph-name="space" unicode="&#x20;" horiz-adv-x="261" d="" />
<glyph glyph-name="quotesingle" unicode="&#x27;" horiz-adv-x="260" d="M238 463 L160 463 L187 709 L297 709 L238 463 Z " />
<glyph glyph-name="quotedbl" unicode="&#x22;" horiz-adv-x="380" d="M211 462 L131 462 L153 707 L265 707 L211 462 Z M394 462 L314 462 L336 707 L449 707 L394 462 Z " />
<glyph glyph-name="numbersign" unicode="&#x23;" horiz-adv-x="732" d="M790 498 L780 431 L620 431 L552 224 L704 224 L693 157 L530 157 L477 -8 L414 3 L463 155 L260 155 L207 -8 L144 3 L193 154 L44 154 L55 221 L215 221 L282 428 L130 428 L141 495 L304 495 L357 660 L420 649 L371 497 L574 497 L628 660 L691 649 L641 497 L790 498 Z M553 430 L350 430 L282 223 L485 223 L553 430 Z " />
<glyph glyph-name="dollar" unicode="&#x24;" horiz-adv-x="494" d="M175 108 Q200 95 234 92 L267 303 Q227 314 200 327 Q168 342 147 363 Q97 410 109 486 Q115 524 136 557 Q157 592 187 615 Q203 627 221 636.5 Q239 646 259 652 Q275 657 291 659.5 Q307 662 325 663 L337 740 L402 740 L389 661 Q430 655 463 639 Q514 613 535 567 L455 522 Q434 554 401 566 Q395 569 388.5 570.5 Q382 572 375 574 L345 382 Q364 377 379 371 Q394 365 407 359 Q425 351 439 342 Q453 333 464 322 Q516 273 504 192 Q498 151 475 116 Q464 99 449.5 83.5 Q435 68 417 55 Q389 33 356 21 Q323 9 285 4 L272 -82 L207 -82 L220 3 Q162 7 115 33 Q57 65 38 116 L125 158 Q131 141 144 129 Q157 117 175 108 Z M299 93 Q396 105 410 191 Q413 212 408 224 Q403 237 392 249 Q382 258 367 266.5 Q352 275 329 283 L299 93 Z M253 413 Q265 407 283 401 L311 578 Q303 577 295 575 Q287 573 279 571 Q267 566 257 560.5 Q247 555 237 549 Q224 539 215 522 Q207 508 204 488 Q203 482 202.5 476 Q202 470 203 464 Q207 450 217 438 Q223 432 231.5 425.5 Q240 419 253 413 Z " />
<glyph glyph-name="percent" unicode="&#x25;" horiz-adv-x="690" d="M376 140 Q381 171 397 199 Q413 227 437 247.5 Q461 268 490.5 280 Q520 292 552 292 Q583 292 609 280 Q635 268 652.5 247.5 Q670 227 678 199 Q686 171 681 140 Q676 108 659.5 80.5 Q643 53 619 32.5 Q595 12 565 0 Q535 -12 504 -12 Q472 -12 446.5 0 Q421 12 403.5 32.5 Q386 53 378.5 80.5 Q371 108 376 140 Z M541 226 Q523 226 506.5 219.5 Q490 213 476.5 201 Q463 189 454 173.5 Q445 158 442 140 Q436 104 457.5 78.5 Q479 53 514 53 Q532 53 549 60 Q566 67 579.5 78.5 Q593 90 602.5 106 Q612 122 615 140 Q620 176 598.5 201 Q577 226 541 226 Z M245 410 Q213 410 187.5 422 Q162 434 144.5 454.5 Q127 475 120 502.5 Q113 530 118 562 Q123 593 139 621 Q155 649 179 670 Q203 691 232.5 703 Q262 715 294 715 Q325 715 351 703 Q377 691 394.5 670 Q412 649 420 621 Q428 593 423 562 Q418 530 401 502.5 Q384 475 360 454.5 Q336 434 306 422 Q276 410 245 410 Z M283 649 Q265 649 248.5 642 Q232 635 218.5 623.5 Q205 612 196 596 Q187 580 184 562 Q178 527 199.5 501.5 Q221 476 256 476 Q274 476 291 483 Q308 490 321.5 501.5 Q335 513 344.5 528.5 Q354 544 357 562 Q362 598 340.5 623.5 Q319 649 283 649 Z M650 736 L702 702 L156 -25 L104 9 L650 736 Z " />
<glyph glyph-name="ampersand" unicode="&#x26;" horiz-adv-x="667" d="M528 513 Q522 494 508 476 Q494 458 473.5 440.5 Q453 423 428.5 405 Q404 387 379 368 Q395 346 410.5 324 Q426 302 443 281 L505 200 Q537 226 568.5 255.5 Q600 285 630 317 L692 253 Q658 218 625.5 188 Q593 158 556 129 L655 -2 L526 -2 Q518 9 510 19 Q502 29 495 39 L473 69 Q471 67 469.5 66.5 Q468 66 466 64 Q442 48 417.5 33 Q393 18 366 6.5 Q339 -5 308 -12 Q277 -19 239 -19 Q200 -19 165.5 -7 Q131 5 107 28 Q83 51 71.5 84.5 Q60 118 67 162 Q73 199 89 230 Q105 261 128 287.5 Q151 314 179.5 337 Q208 360 240 381 Q215 416 189.5 449.5 Q164 483 139 517 L140 524 Q147 566 170 602.5 Q193 639 225.5 665.5 Q258 692 296.5 707 Q335 722 373 722 Q409 722 441 708 Q473 694 496 670 Q519 646 530.5 614 Q542 582 536 545 Q534 537 532 529 Q530 521 528 513 Z M317 85 Q372 106 420 138 Q400 167 378 196 Q356 225 335 254 L291 312 Q270 298 249.5 282 Q229 266 212 248 Q195 230 183 209.5 Q171 189 167 166 Q159 117 184 94 Q209 71 250 71 Q267 71 284.5 75 Q302 79 317 85 Z M436 540 Q439 557 434 573 Q429 589 418.5 601.5 Q408 614 392.5 621.5 Q377 629 359 629 Q324 629 292 604.5 Q260 580 247 543 L326 437 Q341 447 356 458 Q371 469 385 479 Q387 480 393 484.5 Q399 489 400 490 Q414 500 422.5 509 Q431 518 435 535 L436 540 Z " />
<glyph glyph-name="asterisk" unicode="&#x2a;" horiz-adv-x="414" d="M254 514 L105 541 L142 619 L273 562 L277 707 L359 707 L320 564 L468 619 L479 541 L331 512 L416 399 L343 350 L284 490 L183 351 L125 399 L254 514 Z " />
<glyph glyph-name="plus" unicode="&#x2b;" horiz-adv-x="519" d="M387 546 L352 327 L562 327 L552 261 L342 261 L307 42 L303 42 L241 42 L229 42 L264 261 L49 261 L59 327 L274 327 L309 546 L321 546 L383 546 L387 546 L387 546 Z " />
<glyph glyph-name="hyphen" unicode="&#x2d;" horiz-adv-x="385" d="M97 327 L391 327 L381 261 L87 261 L97 327 Z " />
<glyph glyph-name="slash" unicode="&#x2f;" horiz-adv-x="500" d="M553 736 L605 702 L59 -25 L7 9 L553 736 Z " />
<glyph glyph-name="less" unicode="&#x3c;" horiz-adv-x="482" d="M49 277 L514 486 L503 413 L119 241 L448 68 L437 -5 L38 204 L49 277 Z " />
<glyph glyph-name="equal" unicode="&#x3d;" horiz-adv-x="518" d="M114 434 L540 434 L530 368 L104 368 L114 434 Z M497 161 L71 161 L81 226 L507 226 L497 161 Z " />
<glyph glyph-name="greater" unicode="&#x3e;" horiz-adv-x="484" d="M122 486 L521 277 L510 204 L45 -5 L56 68 L440 241 L111 413 L122 486 Z " />
<glyph glyph-name="bracketleft" unicode="&#x5b;" horiz-adv-x="269" d="M174 809 L380 809 L369 743 L229 743 L99 -78 L239 -78 L229 -144 L23 -144 L174 809 Z " />
<glyph glyph-name="backslash" unicode="&#x5c;" horiz-adv-x="500" d="M179 738 L495 10 L433 -23 L117 704 L179 738 Z " />
<glyph glyph-name="bracketright" unicode="&#x5d;" horiz-adv-x="261" d="M138 809 L344 809 L193 -144 L-12 -144 L-2 -78 L137 -78 L267 743 L127 743 L138 809 Z " />
<glyph glyph-name="asciicircum" unicode="&#x5e;" horiz-adv-x="418" d="M84 397 L284 709 L358 709 L458 397 L385 397 L309 633 L157 397 L84 397 Z " />
<glyph glyph-name="underscore" unicode="&#x5f;" horiz-adv-x="592" d="M46 0 L546 0 L535 -66 L35 -66 L46 0 Z " />
<glyph glyph-name="at" unicode="&#x40;" horiz-adv-x="814" d="M516 710 Q601 710 667.5 681 Q734 652 776 600 Q813 549 827 483 Q841 417 828 339 L825 321 Q816 277 802.5 247 Q789 217 773 196.5 Q757 176 741.5 164.5 Q726 153 714 147 Q687 134 661 134 Q626 134 592 157 Q567 176 555 201 Q526 172 490.5 156.5 Q455 141 413 141 Q374 141 341.5 156 Q309 171 287 196.5 Q265 222 256 256.5 Q247 291 253 330 Q259 370 279.5 404.5 Q300 439 330 465 Q360 491 397 506 Q434 521 473 521 Q508 521 536.5 508 Q565 495 585 473 L615 509 L667 505 L619 305 L618 297 Q613 268 622 248.5 Q631 229 644 219 Q659 209 673 209 Q681 209 691 213 Q711 223 727 251.5 Q743 280 751 323 L752 331 Q752 333 753 335 Q754 337 754 339 Q767 421 750 477.5 Q733 534 696 569 Q659 604 608.5 619.5 Q558 635 504 635 Q444 635 386.5 610.5 Q329 586 282 544.5 Q235 503 202.5 448 Q170 393 160 331 Q150 270 162.5 218 Q175 166 206.5 127 Q238 88 286 64 Q334 40 395 35 Q402 34 408.5 34 Q415 34 421 34 Q483 34 545 59 L564 -10 Q526 -26 486.5 -33.5 Q447 -41 409 -41 Q404 -41 398 -40.5 Q392 -40 384 -39 L378 -39 Q301 -33 241.5 -3 Q182 27 143 76 Q104 125 88.5 190 Q73 255 85 331 Q97 406 135.5 474.5 Q174 543 235 597 Q298 652 370 681 Q442 710 516 710 Z M425 216 Q470 216 504 248 Q538 280 546 330 Q554 381 530 413.5 Q506 446 461 446 Q437 446 415 436.5 Q393 427 375 411.5 Q357 396 344.5 375 Q332 354 328 330 Q324 306 330 285.5 Q336 265 349 249.5 Q362 234 381.5 225 Q401 216 425 216 Z " />
<glyph glyph-name="braceleft" unicode="&#x7b;" horiz-adv-x="309" d="M291 498 Q287 475 282 452.5 Q277 430 263 409 Q245 382 218.5 363 Q192 344 163 336 Q169 336 176 330.5 Q183 325 188 323 Q193 319 198 315.5 Q203 312 208 307 Q224 290 233 268 Q242 246 243 223 Q244 200 240 175 L209 -20 Q207 -34 208.5 -47 Q210 -60 216 -70 Q222 -80 233.5 -86.5 Q245 -93 263 -93 L254 -151 Q227 -151 204.5 -140.5 Q182 -130 167 -112.5 Q152 -95 145.5 -71 Q139 -47 143 -20 L177 194 Q177 199 176 216 Q175 233 164 251.5 Q153 270 127 286 Q101 302 52 305 L62 371 Q113 374 143.5 387.5 Q174 401 191 416.5 Q208 432 214 445.5 Q220 459 220 461 L254 681 Q258 708 272.5 732 Q287 756 307.5 773.5 Q328 791 353.5 801.5 Q379 812 406 812 L397 754 Q363 754 344 731 Q325 708 320 681 L291 498 Z " />
<glyph glyph-name="bar" unicode="&#x7c;" horiz-adv-x="156" d="M171 795 L237 795 L88 -151 L22 -151 L171 795 Z " />
<glyph glyph-name="braceright" unicode="&#x7d;" horiz-adv-x="308" d="M120 164 Q124 187 129 209 Q134 231 148 252 Q155 263 167.5 275.5 Q180 288 194 299 Q208 310 222.5 317.5 Q237 325 249 325 Q244 325 236 330.5 Q228 336 224 338 Q219 342 214 346 Q209 350 204 355 Q188 371 179 394 Q169 417 168 443 Q167 469 172 496 Q176 519 180 542.5 Q184 566 188 589 L202 681 Q204 694 203 707.5 Q202 721 196 731 Q190 741 178.5 747.5 Q167 754 149 754 L158 812 Q185 812 207 801.5 Q229 791 244 773.5 Q259 756 265.5 732 Q272 708 268 681 L234 467 Q234 462 235 445.5 Q236 429 247.5 410 Q259 391 285 375.5 Q311 360 360 357 L349 290 Q298 288 267.5 274.5 Q237 261 220.5 245 Q204 229 198 215.5 Q192 202 192 200 L157 -20 Q153 -47 139 -71 Q125 -95 104.5 -112.5 Q84 -130 58.5 -140.5 Q33 -151 6 -151 L15 -93 Q49 -93 68 -70 Q87 -47 91 -20 L120 164 Z " />
<glyph glyph-name="asciitilde" unicode="&#x7e;" horiz-adv-x="577" d="M429 290 Q451 290 474 298.5 Q497 307 516.5 317 Q536 327 549 336 Q562 345 562 345 L580 326 Q584 321 590 314.5 Q596 308 595 307 Q589 302 572 288 Q555 274 531 260 Q507 246 478 235 Q449 224 419 224 Q384 224 362.5 237 Q341 250 324 264 Q307 278 290 288 Q273 298 244 298 Q212 298 179.5 281.5 Q147 265 125 236 L73 269 Q74 270 87 285.5 Q100 301 123 318 Q146 335 179 349.5 Q212 364 254 364 Q299 364 325.5 348.5 Q352 333 372 317 L375 314 Q389 303 400.5 296.5 Q412 290 429 290 Z " />
<glyph glyph-name="grave" unicode="&#x60;" horiz-adv-x="198" d="M252 709 L248 531 L169 531 L141 709 L252 709 Z " />
<glyph glyph-name="bullet" unicode="&#x2022;" horiz-adv-x="296" d="M97 196 Q69 229 76 276 Q83 325 122 357 Q162 390 209 390 Q257 390 286 357 Q314 326 306 276 Q299 229 261 197 Q220 164 173 164 Q126 164 97 196 Z " />
<glyph glyph-name="paragraph" unicode="&#xb6;" horiz-adv-x="587" d="M669 709 L657 635 L568 635 L443 -155 L369 -155 L494 635 L389 635 L264 -155 L190 -155 L266 323 Q226 323 193 338 Q160 353 138 379.5 Q116 406 106.5 441 Q97 476 103 516 Q109 556 130 591 Q151 626 181.5 652 Q212 678 249.5 693.5 Q287 709 327 709 L669 709 Z " />
<glyph glyph-name="registered" unicode="&#xae;" horiz-adv-x="816" d="M558 332 Q543 323 525 316 L615 163 L554 145 L460 312 L392 312 L365 145 L308 145 L370 532 L527 532 Q550 532 568 523 Q587 514 601 499 Q613 484 619 465 Q621 454 622 443.5 Q623 433 621 422 Q618 402 609 386 Q605 378 599 370 Q593 362 588 355 Q573 340 558 332 Z M500 365 Q511 365 523 370 Q533 374 543 382 Q547 387 551 391 Q555 395 557 400 Q564 411 565 423 Q568 434 564 445 Q563 450 560.5 455 Q558 460 556 464 Q553 468 549 471 Q545 474 540 477 Q535 479 530 480 Q525 481 519 481 L419 481 L400 365 L500 365 Z M515 677 Q585 677 642 650.5 Q699 624 738 578 Q777 532 793.5 470 Q810 408 799 338 Q788 268 752 206.5 Q716 145 662.5 99 Q609 53 543.5 26.5 Q478 0 408 0 Q338 0 280.5 26.5 Q223 53 184.5 99 Q146 145 129 206.5 Q112 268 123 338 Q134 408 170.5 470 Q207 532 260 578 Q313 624 379 650.5 Q445 677 515 677 Z M417 59 Q475 59 529 81 Q583 103 627 141 Q671 179 701 229.5 Q731 280 740 338 Q749 396 735 447 Q721 498 689 536 Q657 574 610 596 Q563 618 505 618 Q447 618 392.5 596 Q338 574 294 536 Q250 498 220 447 Q190 396 181 338 Q172 280 186 229.5 Q200 179 232 141 Q264 103 311.5 81 Q359 59 417 59 Z " />
<glyph glyph-name="copyright" unicode="&#xa9;" horiz-adv-x="817" d="M510 208 Q542 224 562 248 L597 210 Q581 195 563 182 Q545 169 525 159 Q483 139 442 139 Q403 139 369 155 Q337 172 316 199 Q292 227 284 262 Q275 298 281 338 Q287 379 308 415 Q329 452 360 478 Q392 507 427 521 Q463 537 505 537 Q540 537 570 523 Q602 508 623 485 L582 442 Q566 461 545 473 Q524 485 496 485 Q469 485 442 473 Q428 468 417 460 Q406 452 395 442 Q384 431 375 420 Q366 409 358 395 Q344 369 339 338 Q334 307 340 281 Q348 255 362 235 Q370 225 379 217 Q388 209 400 204 Q422 192 450 192 Q480 192 510 208 Z M516 677 Q586 677 643 650.5 Q700 624 739 578 Q778 532 794.5 470 Q811 408 800 338 Q789 268 753 206.5 Q717 145 663.5 99 Q610 53 544.5 26.5 Q479 0 409 0 Q339 0 281.5 26.5 Q224 53 185 99 Q146 145 129 206.5 Q112 268 123 338 Q134 408 170.5 470 Q207 532 260.5 578 Q314 624 380 650.5 Q446 677 516 677 Z M418 59 Q476 59 530 81 Q584 103 628 141 Q672 179 702 229.5 Q732 280 741 338 Q750 396 736 447 Q722 498 690 536 Q658 574 611 596 Q564 618 506 618 Q448 618 393.5 596 Q339 574 295 536 Q251 498 221 447 Q191 396 182 338 Q173 280 187 229.5 Q201 179 233 141 Q265 103 312.5 81 Q360 59 418 59 Z " />
<glyph glyph-name="trademark" unicode="&#x2122;" horiz-adv-x="658" d="M211 654 L132 654 L141 709 L359 709 L350 654 L270 654 L230 401 L171 401 L211 654 Z M653 709 L709 709 L660 401 L599 401 L632 608 L544 508 L503 508 L445 608 L412 401 L353 401 L402 709 L457 709 L534 575 L653 709 Z " />
<glyph glyph-name="acute" unicode="&#xb4;" horiz-adv-x="196" d="M288 709 L204 531 L125 531 L177 709 L288 709 Z " />
<glyph glyph-name="notequal" unicode="&#x2260;" horiz-adv-x="519" d="M114 434 L540 434 L530 368 L104 368 L114 434 Z M497 161 L71 161 L81 226 L507 226 L497 161 Z " />
<glyph glyph-name="AE" unicode="&#xc6;" horiz-adv-x="900" d="M114 0 L0 0 L409 709 L952 709 L937 615 L608 615 L577 422 L870 422 L855 325 L562 325 L526 97 L855 97 L840 0 L407 0 L442 222 L241 222 L114 0 Z M457 318 L504 615 L466 615 L296 318 L457 318 Z " />
<glyph glyph-name="sterling" unicode="&#xa3;" horiz-adv-x="536" d="M357 93 Q375 93 396 99.5 Q417 106 436 114.5 Q455 123 470.5 132 Q486 141 495 147 L540 75 Q538 74 520 62 Q502 50 474 36.5 Q446 23 411.5 11.5 Q377 0 343 0 L67 0 L77 48 Q77 50 78 52 Q79 54 80 58 Q80 62 81 66.5 Q82 71 84 76 L98 138 L130 276 L63 276 L78 368 L150 368 Q153 385 157 403 Q161 421 164 437.5 Q167 454 169.5 467 Q172 480 173 488 Q184 557 212 600.5 Q240 644 274 668 Q308 692 343 701 Q378 710 403 710 Q454 710 487 690 Q520 670 540.5 641.5 Q561 613 569.5 581.5 Q578 550 579 526 L485 509 Q485 513 482.5 530.5 Q480 548 470 567.5 Q460 587 441 602.5 Q422 618 388 618 Q368 618 348.5 610.5 Q329 603 312 587 Q295 571 282 546.5 Q269 522 264 488 Q261 472 254.5 437.5 Q248 403 240 368 L435 368 L420 276 L219 276 L203 202 L192 150 Q189 134 186 118.5 Q183 103 181 93 L357 93 L357 93 Z " />
<glyph glyph-name="cent" unicode="&#xa2;" horiz-adv-x="452" d="M350 180 Q384 202 409 234 L463 179 Q424 133 372 106 Q335 87 295 81 L283 6 L209 6 L221 82 Q198 86 175 97 Q136 116 111 148 Q84 183 74 224 Q64 269 71 318 Q78 367 104 411 Q116 434 131.5 452.5 Q147 471 165 488 Q183 504 203 517 Q223 530 245 539 Q270 549 296 554 L312 653 L386 653 L370 555 Q407 549 436 533 Q480 506 503 465 L430 414 Q415 442 389 459 Q375 468 357 472 L308 164 Q319 166 329.5 170.5 Q340 175 350 180 Z M227 173 Q231 170 235 169 L282 467 Q276 465 273 463 Q248 452 222 429 Q201 409 185 379 Q177 365 171.5 350 Q166 335 164 318 Q161 301 161.5 286 Q162 271 165 257 Q171 230 187 207 Q203 185 227 173 Z " />
<glyph glyph-name="degree" unicode="&#xb0;" horiz-adv-x="368" d="M288 660 Q319 660 345 648 Q371 636 388.5 615.5 Q406 595 413.5 567 Q421 539 416 508 Q411 476 395 448.5 Q379 421 355 400 Q331 379 301 367 Q271 355 240 355 Q208 355 182.5 367 Q157 379 139.5 400 Q122 421 114.5 448.5 Q107 476 112 508 Q117 539 133 567 Q149 595 173 615.5 Q197 636 226.5 648 Q256 660 288 660 Z M250 421 Q268 421 285 428 Q302 435 315.5 446.5 Q329 458 338.5 474 Q348 490 351 508 Q356 543 335 568.5 Q314 594 278 594 Q260 594 243 587 Q226 580 212.5 568.5 Q199 557 190 541.5 Q181 526 178 508 Q172 472 193 446.5 Q214 421 250 421 Z " />
<glyph glyph-name="questiondown" unicode="&#xbf;" horiz-adv-x="463" d="M370 365 Q344 365 329 383.5 Q314 402 318 428 Q323 454 343.5 472 Q364 490 390 490 Q416 490 431.5 472 Q447 454 442 428 Q438 402 417 383.5 Q396 365 370 365 Z M264 -144 Q299 -144 328 -137.5 Q357 -131 386 -109 L387 -202 Q355 -219 320 -228.5 Q285 -238 249 -238 Q198 -238 156.5 -220 Q115 -202 86.5 -171.5 Q58 -141 45.5 -100 Q33 -59 40 -13 Q58 100 182 168 Q202 179 223 187 Q244 195 262 207 Q280 219 293.5 237 Q307 255 312 285 L317 316 L413 316 L407 280 Q399 233 375.5 201.5 Q352 170 323 149 Q294 128 264.5 115 Q235 102 216 94 Q183 80 163 49 Q143 18 138 -15 Q134 -42 141.5 -65.5 Q149 -89 166.5 -106.5 Q184 -124 209 -134 Q234 -144 264 -144 Z " />
<glyph glyph-name="exclamdown" unicode="&#xa1;" horiz-adv-x="281" d="M234 316 L160 -229 L47 -229 L146 316 L234 316 Z M217 490 Q243 490 259 472 Q275 454 270 428 Q266 402 244.5 383.5 Q223 365 197 365 Q171 365 156 383.5 Q141 402 145 428 Q150 454 170.5 472 Q191 490 217 490 Z " />
<glyph glyph-name="logicalnot" unicode="&#xac;" horiz-adv-x="515" d="M71 414 L534 414 L492 151 L426 151 L458 348 L61 348 L71 414 Z " />
<glyph glyph-name="quoteright" unicode="&#x2019;" horiz-adv-x="205" d="M289 709 L185 464 L105 464 L177 709 L289 709 Z " />
<glyph glyph-name="quoteright001" unicode="&#x2018;" horiz-adv-x="196" d="M126 463 L132 708 L212 708 L238 463 L126 463 Z " />
<glyph glyph-name="quotedblleft" unicode="&#x201c;" horiz-adv-x="374" d="M296 463 L302 708 L382 708 L408 463 L296 463 Z M138 463 L144 708 L224 708 L250 463 L138 463 Z " />
<glyph glyph-name="quotedblright" unicode="&#x201d;" horiz-adv-x="373" d="M296 709 L192 464 L112 464 L184 709 L296 709 Z M453 709 L349 464 L269 464 L341 709 L453 709 Z " />
<glyph glyph-name="Adieresis" unicode="&#xc4;" horiz-adv-x="732" d="M125 0 L11 0 L418 709 L533 709 L716 0 L603 0 L545 222 L252 222 L125 0 Z M307 318 L520 318 L454 574 L307 318 Z M369 757 Q343 757 327.5 775.5 Q312 794 317 820 Q321 846 342 864 Q363 882 389 882 Q415 882 430 864 Q445 846 441 820 Q436 794 415.5 775.5 Q395 757 369 757 Z M600 757 Q574 757 558.5 775.5 Q543 794 548 820 Q552 846 573 864 Q594 882 620 882 Q646 882 661 864 Q676 846 672 820 Q667 794 646.5 775.5 Q626 757 600 757 Z " />
<glyph glyph-name="adieresis" unicode="&#xe4;" horiz-adv-x="553" d="M585 479 L510 0 L428 0 L421 55 Q391 22 349.5 5 Q308 -12 268 -12 Q218 -12 177.5 7.5 Q137 27 109.5 61 Q82 95 70.5 141 Q59 187 67 239 Q75 291 101.5 337 Q128 383 166 417 Q204 451 250.5 470.5 Q297 490 347 490 Q387 490 421.5 474.5 Q456 459 480 426 L503 479 L585 479 Z M281 74 Q310 74 338 87 Q366 100 388.5 122.5 Q411 145 427 175 Q443 205 448 239 Q454 273 447.5 303 Q441 333 425.5 355.5 Q410 378 386 391 Q362 404 333 404 Q304 404 276 391 Q248 378 225.5 355.5 Q203 333 187.5 303 Q172 273 166 239 Q161 205 167 175 Q173 145 189 122.5 Q205 100 228.5 87 Q252 74 281 74 Z M257 584 Q231 584 215.5 602.5 Q200 621 205 647 Q209 673 230 691 Q251 709 277 709 Q303 709 318 691 Q333 673 329 647 Q324 621 303.5 602.5 Q283 584 257 584 Z M488 584 Q462 584 446.5 602.5 Q431 621 436 647 Q440 673 461 691 Q482 709 508 709 Q534 709 549 691 Q564 673 560 647 Q555 621 534.5 602.5 Q514 584 488 584 Z " />
<glyph glyph-name="fl" unicode="&#xfb02;" horiz-adv-x="497" d="M99 0 L161 392 L79 392 L89 459 L174 479 L182 530 Q194 593 219.5 632.5 Q245 672 279.5 694.5 Q314 717 355 725.5 Q396 734 438 734 Q472 734 505 730.5 Q538 727 569 722 L455 0 L358 0 L461 651 Q450 652 439.5 652.5 Q429 653 418 653 Q395 653 373 648.5 Q351 644 332.5 632 Q314 620 300.5 599 Q287 578 282 545 L271 479 L379 479 L366 392 L258 392 L196 0 L99 0 Z " />
<glyph glyph-name="ffi" unicode="&#xfb03;" horiz-adv-x="826" d="M427 0 L489 392 L270 392 L208 0 L111 0 L173 392 L91 392 L101 459 L186 479 L196 537 Q204 588 223 625.5 Q242 663 268 687 Q294 711 325.5 722.5 Q357 734 390 734 Q430 734 469 717 L458 646 Q423 657 398 657 Q357 657 330 632 Q303 607 295 552 L283 479 L502 479 L512 537 Q522 591 542.5 628.5 Q563 666 590.5 689.5 Q618 713 651 723.5 Q684 734 718 734 Q763 734 803.5 721 Q844 708 877 680 L827 624 Q807 632 787 639 Q770 645 749 650 Q728 655 711 655 Q676 655 648 633 Q620 611 611 552 L599 479 L860 479 L785 0 L688 0 L750 392 L586 392 L524 0 L427 0 Z " />
<glyph glyph-name="fi" unicode="&#xfb01;" horiz-adv-x="499" d="M102 0 L164 392 L82 392 L92 459 L177 479 L187 537 Q197 591 217.5 628.5 Q238 666 265.5 689.5 Q293 713 326 723.5 Q359 734 393 734 Q438 734 478.5 721 Q519 708 552 680 L502 624 Q482 632 462 639 Q445 645 424 650 Q403 655 386 655 Q351 655 323 633 Q295 611 286 552 L274 479 L535 479 L460 0 L363 0 L425 392 L261 392 L199 0 L102 0 Z " />
<glyph glyph-name="ffl" unicode="&#xfb04;" horiz-adv-x="833" d="M435 0 L497 392 L268 392 L206 0 L109 0 L171 392 L89 392 L99 459 L184 479 L194 537 Q202 588 221 625.5 Q240 663 266 687 Q292 711 323 722.5 Q354 734 387 734 Q428 734 467 717 L456 646 Q421 657 396 657 Q355 657 328 632 Q301 607 293 552 L281 479 L510 479 L518 530 Q530 593 555.5 632.5 Q581 672 615.5 694.5 Q650 717 691 725.5 Q732 734 774 734 Q808 734 841 730.5 Q874 727 905 722 L791 0 L694 0 L797 651 Q786 652 775.5 652.5 Q765 653 754 653 Q731 653 709 648.5 Q687 644 668.5 632 Q650 620 636.5 599 Q623 578 618 545 L607 479 L715 479 L702 392 L594 392 L532 0 L435 0 Z " />
<glyph glyph-name="ff" unicode="&#xfb00;" horiz-adv-x="699" d="M433 0 L495 392 L266 392 L204 0 L107 0 L169 392 L87 392 L97 459 L182 479 L192 537 Q200 588 219 625.5 Q238 663 264 687 Q290 711 321 722.5 Q352 734 385 734 Q426 734 465 717 L454 646 Q419 657 394 657 Q353 657 326 632 Q299 607 291 552 L279 479 L508 479 L518 537 Q526 588 545 625.5 Q564 663 590 687 Q616 711 647 722.5 Q678 734 711 734 Q752 734 791 717 L780 646 Q745 657 720 657 Q679 657 652 632 Q625 607 617 552 L605 479 L753 479 L740 392 L592 392 L530 0 L433 0 Z " />
<glyph glyph-name="radical" unicode="&#x221a;" horiz-adv-x="688" d="M253 0 L166 268 L82 135 L27 165 L141 346 L215 346 L301 72 L717 730 L790 730 L328 0 L253 0 Z " />
<glyph glyph-name="tilde" unicode="&#x2dc;" horiz-adv-x="443" d="M432 818 Q452 821 473 836 Q494 851 510 866 Q518 856 526.5 846 Q535 836 542 825 Q533 814 521 801.5 Q509 789 494.5 777.5 Q480 766 464 758 Q448 750 430 747 Q425 746 421 745.5 Q417 745 413 745 Q391 745 374.5 755 Q358 765 343 778 Q330 788 317 795 Q304 802 286 802 Q282 802 278.5 802 Q275 802 270 801 Q250 798 232 785.5 Q214 773 200 753 L154 787 Q170 812 199 838 Q228 864 273 872 Q278 873 282.5 873.5 Q287 874 292 874 Q318 874 336.5 864 Q355 854 371 843 L374 841 L379 837 L382 835 Q393 827 402.5 822 Q412 817 423 817 Q429 817 432 818 Z " />
<glyph glyph-name="ring" unicode="&#x2da;" horiz-adv-x="299" d="M277 789 Q299 789 317.5 780.5 Q336 772 348 757.5 Q360 743 365.5 723.5 Q371 704 368 682 Q364 660 352.5 640.5 Q341 621 324.5 606.5 Q308 592 287 583.5 Q266 575 244 575 Q221 575 203 583.5 Q185 592 173 606.5 Q161 621 155.5 640.5 Q150 660 154 682 Q157 704 168.5 723.5 Q180 743 196.5 757.5 Q213 772 233.5 780.5 Q254 789 277 789 Z M254 638 Q273 638 287 651 Q301 664 304 682 Q306 701 296 713 Q286 725 267 725 Q248 725 233.5 713 Q219 701 217 682 Q214 664 224.5 651 Q235 638 254 638 Z " />
<glyph glyph-name="ogonek" unicode="&#x2db;" horiz-adv-x="213" d="M122 -38 Q107 -52 89.5 -73 Q72 -94 68 -115 Q66 -141 87.5 -152 Q109 -163 135 -163 Q150 -163 164 -160 L167 -189 Q160 -192 150 -194 Q142 -196 130.5 -197 Q119 -198 105 -198 Q84 -198 65.5 -192.5 Q47 -187 34 -176.5 Q21 -166 14.5 -151 Q8 -136 11 -117 Q15 -94 29 -75 Q43 -56 61 -38 L122 -38 Z " />
<glyph glyph-name="hungarumlaut" unicode="&#x2dd;" horiz-adv-x="381" d="M286 709 L202 531 L123 531 L175 709 L286 709 Z M462 709 L378 531 L299 531 L351 709 L462 709 Z " />
<glyph glyph-name="dotaccent" unicode="&#x2d9;" horiz-adv-x="184" d="M211 756 Q185 756 170 774.5 Q155 793 159 819 Q164 845 184.5 863 Q205 881 231 881 Q257 881 272.5 863 Q288 845 283 819 Q279 793 258 774.5 Q237 756 211 756 Z " />
<glyph glyph-name="circumflex" unicode="&#x2c6;" horiz-adv-x="359" d="M308 844 L234 756 L132 756 L268 881 L359 881 L460 756 L359 756 L308 844 Z " />
<glyph glyph-name="Aring" unicode="&#xc5;" horiz-adv-x="732" d="M500 860 Q522 860 540 851.5 Q558 843 570.5 828.5 Q583 814 588 794.5 Q593 775 590 753 Q586 729 573 708.5 Q560 688 541 673 L716 0 L603 0 L545 222 L252 222 L125 0 L11 0 L397 674 Q368 704 376 753 Q379 775 390.5 794.5 Q402 814 419 828.5 Q436 843 456.5 851.5 Q477 860 500 860 Z M307 318 L520 318 L454 574 L307 318 Z M476 709 Q495 709 509 722 Q523 735 526 753 Q529 772 519 784 Q509 796 490 796 Q471 796 456.5 784 Q442 772 439 753 Q436 735 446.5 722 Q457 709 476 709 Z " />
<glyph glyph-name="Eacute" unicode="&#xc9;" horiz-adv-x="549" d="M601 709 L586 615 L257 615 L226 422 L519 422 L504 325 L504 325 L211 325 L175 97 L504 97 L489 0 L489 0 L160 0 L108 0 L56 0 L168 709 L601 709 Z M489 934 L405 756 L326 756 L378 934 L489 934 Z " />
<glyph glyph-name="Ntilde" unicode="&#xd1;" horiz-adv-x="725" d="M779 709 L667 0 L561 0 L251 544 L165 0 L56 0 L168 709 L278 709 L587 162 L674 709 L779 709 Z M574 829 Q594 832 615 847 Q636 862 652 877 Q660 867 668.5 857 Q677 847 684 836 Q675 825 663 812.5 Q651 800 636.5 788.5 Q622 777 606 769 Q590 761 572 758 Q567 757 563 756.5 Q559 756 555 756 Q533 756 516.5 766 Q500 776 485 789 Q472 799 459 806 Q446 813 428 813 Q424 813 420.5 813 Q417 813 412 812 Q392 809 374 796.5 Q356 784 342 764 L296 798 Q312 823 341 849 Q370 875 415 883 Q420 884 424.5 884.5 Q429 885 434 885 Q460 885 478.5 875 Q497 865 513 854 L516 852 L521 848 L524 846 Q535 838 544.5 833 Q554 828 565 828 Q571 828 574 829 Z " />
<glyph glyph-name="aacute" unicode="&#xe1;" horiz-adv-x="553" d="M585 479 L510 0 L428 0 L421 55 Q391 22 349.5 5 Q308 -12 268 -12 Q218 -12 177.5 7.5 Q137 27 109.5 61 Q82 95 70.5 141 Q59 187 67 239 Q75 291 101.5 337 Q128 383 166 417 Q204 451 250.5 470.5 Q297 490 347 490 Q387 490 421.5 474.5 Q456 459 480 426 L503 479 L585 479 Z M281 74 Q310 74 338 87 Q366 100 388.5 122.5 Q411 145 427 175 Q443 205 448 239 Q454 273 447.5 303 Q441 333 425.5 355.5 Q410 378 386 391 Q362 404 333 404 Q304 404 276 391 Q248 378 225.5 355.5 Q203 333 187.5 303 Q172 273 166 239 Q161 205 167 175 Q173 145 189 122.5 Q205 100 228.5 87 Q252 74 281 74 Z M477 709 L393 531 L314 531 L366 709 L477 709 Z " />
<glyph glyph-name="agrave" unicode="&#xe0;" horiz-adv-x="553" d="M585 479 L510 0 L428 0 L421 55 Q391 22 349.5 5 Q308 -12 268 -12 Q218 -12 177.5 7.5 Q137 27 109.5 61 Q82 95 70.5 141 Q59 187 67 239 Q75 291 101.5 337 Q128 383 166 417 Q204 451 250.5 470.5 Q297 490 347 490 Q387 490 421.5 474.5 Q456 459 480 426 L503 479 L585 479 Z M281 74 Q310 74 338 87 Q366 100 388.5 122.5 Q411 145 427 175 Q443 205 448 239 Q454 273 447.5 303 Q441 333 425.5 355.5 Q410 378 386 391 Q362 404 333 404 Q304 404 276 391 Q248 378 225.5 355.5 Q203 333 187.5 303 Q172 273 166 239 Q161 205 167 175 Q173 145 189 122.5 Q205 100 228.5 87 Q252 74 281 74 Z M413 709 L409 531 L330 531 L302 709 L413 709 Z " />
<glyph glyph-name="acircumflex" unicode="&#xe2;" horiz-adv-x="553" d="M585 479 L510 0 L428 0 L421 55 Q391 22 349.5 5 Q308 -12 268 -12 Q218 -12 177.5 7.5 Q137 27 109.5 61 Q82 95 70.5 141 Q59 187 67 239 Q75 291 101.5 337 Q128 383 166 417 Q204 451 250.5 470.5 Q297 490 347 490 Q387 490 421.5 474.5 Q456 459 480 426 L503 479 L585 479 Z M281 74 Q310 74 338 87 Q366 100 388.5 122.5 Q411 145 427 175 Q443 205 448 239 Q454 273 447.5 303 Q441 333 425.5 355.5 Q410 378 386 391 Q362 404 333 404 Q304 404 276 391 Q248 378 225.5 355.5 Q203 333 187.5 303 Q172 273 166 239 Q161 205 167 175 Q173 145 189 122.5 Q205 100 228.5 87 Q252 74 281 74 Z M393 672 L319 584 L217 584 L353 709 L444 709 L545 584 L444 584 L393 672 Z " />
<glyph glyph-name="atilde" unicode="&#xe3;" horiz-adv-x="553" d="M585 479 L510 0 L428 0 L421 55 Q391 22 349.5 5 Q308 -12 268 -12 Q218 -12 177.5 7.5 Q137 27 109.5 61 Q82 95 70.5 141 Q59 187 67 239 Q75 291 101.5 337 Q128 383 166 417 Q204 451 250.5 470.5 Q297 490 347 490 Q387 490 421.5 474.5 Q456 459 480 426 L503 479 L585 479 Z M281 74 Q310 74 338 87 Q366 100 388.5 122.5 Q411 145 427 175 Q443 205 448 239 Q454 273 447.5 303 Q441 333 425.5 355.5 Q410 378 386 391 Q362 404 333 404 Q304 404 276 391 Q248 378 225.5 355.5 Q203 333 187.5 303 Q172 273 166 239 Q161 205 167 175 Q173 145 189 122.5 Q205 100 228.5 87 Q252 74 281 74 Z M472 653 Q492 656 513 671 Q534 686 550 701 Q558 691 566.5 681 Q575 671 582 660 Q573 649 561 636.5 Q549 624 534.5 612.5 Q520 601 504 593 Q488 585 470 582 Q465 581 461 580.5 Q457 580 453 580 Q431 580 414.5 590 Q398 600 383 613 Q370 623 357 630 Q344 637 326 637 Q322 637 318.5 637 Q315 637 310 636 Q290 633 272 620.5 Q254 608 240 588 L194 622 Q210 647 239 673 Q268 699 313 707 Q318 708 322.5 708.5 Q327 709 332 709 Q358 709 376.5 699 Q395 689 411 678 L414 676 L419 672 L422 670 Q433 662 442.5 657 Q452 652 463 652 Q469 652 472 653 Z " />
<glyph glyph-name="aring" unicode="&#xe5;" horiz-adv-x="553" d="M585 479 L510 0 L428 0 L421 55 Q391 22 349.5 5 Q308 -12 268 -12 Q218 -12 177.5 7.5 Q137 27 109.5 61 Q82 95 70.5 141 Q59 187 67 239 Q75 291 101.5 337 Q128 383 166 417 Q204 451 250.5 470.5 Q297 490 347 490 Q387 490 421.5 474.5 Q456 459 480 426 L503 479 L585 479 Z M281 74 Q310 74 338 87 Q366 100 388.5 122.5 Q411 145 427 175 Q443 205 448 239 Q454 273 447.5 303 Q441 333 425.5 355.5 Q410 378 386 391 Q362 404 333 404 Q304 404 276 391 Q248 378 225.5 355.5 Q203 333 187.5 303 Q172 273 166 239 Q161 205 167 175 Q173 145 189 122.5 Q205 100 228.5 87 Q252 74 281 74 Z M394 730 Q416 730 434.5 721.5 Q453 713 465 698.5 Q477 684 482.5 664.5 Q488 645 485 623 Q481 601 469.5 581.5 Q458 562 441.5 547.5 Q425 533 404 524.5 Q383 516 361 516 Q338 516 320 524.5 Q302 533 290 547.5 Q278 562 272.5 581.5 Q267 601 271 623 Q274 645 285.5 664.5 Q297 684 313.5 698.5 Q330 713 350.5 721.5 Q371 730 394 730 Z M371 579 Q390 579 404 592 Q418 605 421 623 Q423 642 413 654 Q403 666 384 666 Q365 666 350.5 654 Q336 642 334 623 Q331 605 341.5 592 Q352 579 371 579 Z " />
<glyph glyph-name="eacute" unicode="&#xe9;" horiz-adv-x="556" d="M291 -12 Q239 -12 196.5 7.5 Q154 27 125.5 61 Q97 95 84.5 141 Q72 187 80 239 Q88 291 114 337 Q140 383 177 417 Q214 451 259 470.5 Q304 490 352 490 Q401 490 440 473 Q479 456 503.5 420 Q528 384 536.5 328.5 Q545 273 533 196 L177 196 Q180 170 191 147.5 Q202 125 220 108.5 Q238 92 262 83 Q286 74 314 74 Q352 74 387 88 Q422 102 448 125 L499 65 Q458 30 404.5 9 Q351 -12 291 -12 Z M338 402 Q315 402 293 393 Q271 384 251 368 Q231 352 215 330 Q199 308 189 282 L442 282 Q443 306 437.5 328 Q432 350 419 366.5 Q406 383 386 392.5 Q366 402 338 402 Z M457 709 L373 531 L294 531 L346 709 L457 709 Z " />
<glyph glyph-name="egrave" unicode="&#xe8;" horiz-adv-x="556" d="M291 -12 Q239 -12 196.5 7.5 Q154 27 125.5 61 Q97 95 84.5 141 Q72 187 80 239 Q88 291 114 337 Q140 383 177 417 Q214 451 259 470.5 Q304 490 352 490 Q401 490 440 473 Q479 456 503.5 420 Q528 384 536.5 328.5 Q545 273 533 196 L177 196 Q180 170 191 147.5 Q202 125 220 108.5 Q238 92 262 83 Q286 74 314 74 Q352 74 387 88 Q422 102 448 125 L499 65 Q458 30 404.5 9 Q351 -12 291 -12 Z M338 402 Q315 402 293 393 Q271 384 251 368 Q231 352 215 330 Q199 308 189 282 L442 282 Q443 306 437.5 328 Q432 350 419 366.5 Q406 383 386 392.5 Q366 402 338 402 Z M423 709 L419 531 L340 531 L312 709 L423 709 Z " />
<glyph glyph-name="ecircumflex" unicode="&#xea;" horiz-adv-x="556" d="M291 -12 Q239 -12 196.5 7.5 Q154 27 125.5 61 Q97 95 84.5 141 Q72 187 80 239 Q88 291 114 337 Q140 383 177 417 Q214 451 259 470.5 Q304 490 352 490 Q401 490 440 473 Q479 456 503.5 420 Q528 384 536.5 328.5 Q545 273 533 196 L177 196 Q180 170 191 147.5 Q202 125 220 108.5 Q238 92 262 83 Q286 74 314 74 Q352 74 387 88 Q422 102 448 125 L499 65 Q458 30 404.5 9 Q351 -12 291 -12 Z M338 402 Q315 402 293 393 Q271 384 251 368 Q231 352 215 330 Q199 308 189 282 L442 282 Q443 306 437.5 328 Q432 350 419 366.5 Q406 383 386 392.5 Q366 402 338 402 Z M391 672 L317 584 L215 584 L351 709 L442 709 L543 584 L442 584 L391 672 Z " />
<glyph glyph-name="edieresis" unicode="&#xeb;" horiz-adv-x="556" d="M291 -12 Q239 -12 196.5 7.5 Q154 27 125.5 61 Q97 95 84.5 141 Q72 187 80 239 Q88 291 114 337 Q140 383 177 417 Q214 451 259 470.5 Q304 490 352 490 Q401 490 440 473 Q479 456 503.5 420 Q528 384 536.5 328.5 Q545 273 533 196 L177 196 Q180 170 191 147.5 Q202 125 220 108.5 Q238 92 262 83 Q286 74 314 74 Q352 74 387 88 Q422 102 448 125 L499 65 Q458 30 404.5 9 Q351 -12 291 -12 Z M338 402 Q315 402 293 393 Q271 384 251 368 Q231 352 215 330 Q199 308 189 282 L442 282 Q443 306 437.5 328 Q432 350 419 366.5 Q406 383 386 392.5 Q366 402 338 402 Z M253 584 Q227 584 211.5 602.5 Q196 621 201 647 Q205 673 226 691 Q247 709 273 709 Q299 709 314 691 Q329 673 325 647 Q320 621 299.5 602.5 Q279 584 253 584 Z M484 584 Q458 584 442.5 602.5 Q427 621 432 647 Q436 673 457 691 Q478 709 504 709 Q530 709 545 691 Q560 673 556 647 Q551 621 530.5 602.5 Q510 584 484 584 Z " />
<glyph glyph-name="iacute" unicode="&#xed;" horiz-adv-x="252" d="M186 0 L89 0 L164 479 L260 479 L186 0 Z M343 709 L259 531 L180 531 L232 709 L343 709 Z " />
<glyph glyph-name="igrave" unicode="&#xec;" horiz-adv-x="252" d="M186 0 L89 0 L164 479 L260 479 L186 0 Z M260 709 L256 531 L177 531 L149 709 L260 709 Z " />
<glyph glyph-name="icircumflex" unicode="&#xee;" horiz-adv-x="252" d="M176 0 L79 0 L154 479 L250 479 L176 0 Z M230 672 L156 584 L54 584 L190 709 L281 709 L382 584 L281 584 L230 672 Z " />
<glyph glyph-name="idieresis" unicode="&#xef;" horiz-adv-x="252" d="M181 0 L84 0 L159 479 L255 479 L181 0 Z M103 584 Q77 584 61.5 602.5 Q46 621 51 647 Q55 673 76 691 Q97 709 123 709 Q149 709 164 691 Q179 673 175 647 Q170 621 149.5 602.5 Q129 584 103 584 Z M334 584 Q308 584 292.5 602.5 Q277 621 282 647 Q286 673 307 691 Q328 709 354 709 Q380 709 395 691 Q410 673 406 647 Q401 621 380.5 602.5 Q360 584 334 584 Z " />
<glyph glyph-name="ntilde" unicode="&#xf1;" horiz-adv-x="534" d="M151 0 L54 0 L129 479 L206 479 L220 437 Q248 460 284 475 Q320 490 360 490 Q386 490 417.5 482 Q449 474 474.5 452 Q500 430 513 391 Q526 352 516 290 L471 0 L379 0 L425 291 Q430 322 423.5 343.5 Q417 365 403.5 378 Q390 391 371.5 396.5 Q353 402 332 402 Q316 402 294.5 396 Q273 390 253 376.5 Q233 363 217 342.5 Q201 322 197 292 L151 0 Z M451 653 Q471 656 492 671 Q513 686 529 701 Q537 691 545.5 681 Q554 671 561 660 Q552 649 540 636.5 Q528 624 513.5 612.5 Q499 601 483 593 Q467 585 449 582 Q444 581 440 580.5 Q436 580 432 580 Q410 580 393.5 590 Q377 600 362 613 Q349 623 336 630 Q323 637 305 637 Q301 637 297.5 637 Q294 637 289 636 Q269 633 251 620.5 Q233 608 219 588 L173 622 Q189 647 218 673 Q247 699 292 707 Q297 708 301.5 708.5 Q306 709 311 709 Q337 709 355.5 699 Q374 689 390 678 L393 676 L398 672 L401 670 Q412 662 421.5 657 Q431 652 442 652 Q448 652 451 653 Z " />
<glyph glyph-name="oacute" unicode="&#xf3;" horiz-adv-x="558" d="M274 -12 Q224 -12 183.5 7.5 Q143 27 115.5 61 Q88 95 76.5 141 Q65 187 73 239 Q81 291 107.5 337 Q134 383 172 417 Q210 451 256.5 470.5 Q303 490 353 490 Q402 490 443 470.5 Q484 451 511 417 Q538 383 549.5 337 Q561 291 553 239 Q545 187 519 141 Q493 95 455 61 Q417 27 370 7.5 Q323 -12 274 -12 Z M339 403 Q310 403 282 390 Q254 377 231.5 355 Q209 333 193 303 Q177 273 171 239 Q166 205 172.5 175 Q179 145 194.5 122.5 Q210 100 234 87 Q258 74 287 74 Q316 74 344 87 Q372 100 394.5 122.5 Q417 145 433 175 Q449 205 454 239 Q460 273 453.5 303 Q447 333 431.5 355 Q416 377 392 390 Q368 403 339 403 Z M458 709 L374 531 L295 531 L347 709 L458 709 Z " />
<glyph glyph-name="ograve" unicode="&#xf2;" horiz-adv-x="558" d="M274 -12 Q224 -12 183.5 7.5 Q143 27 115.5 61 Q88 95 76.5 141 Q65 187 73 239 Q81 291 107.5 337 Q134 383 172 417 Q210 451 256.5 470.5 Q303 490 353 490 Q402 490 443 470.5 Q484 451 511 417 Q538 383 549.5 337 Q561 291 553 239 Q545 187 519 141 Q493 95 455 61 Q417 27 370 7.5 Q323 -12 274 -12 Z M339 403 Q310 403 282 390 Q254 377 231.5 355 Q209 333 193 303 Q177 273 171 239 Q166 205 172.5 175 Q179 145 194.5 122.5 Q210 100 234 87 Q258 74 287 74 Q316 74 344 87 Q372 100 394.5 122.5 Q417 145 433 175 Q449 205 454 239 Q460 273 453.5 303 Q447 333 431.5 355 Q416 377 392 390 Q368 403 339 403 Z M434 709 L430 531 L351 531 L323 709 L434 709 Z " />
<glyph glyph-name="ocircumflex" unicode="&#xf4;" horiz-adv-x="558" d="M274 -12 Q224 -12 183.5 7.5 Q143 27 115.5 61 Q88 95 76.5 141 Q65 187 73 239 Q81 291 107.5 337 Q134 383 172 417 Q210 451 256.5 470.5 Q303 490 353 490 Q402 490 443 470.5 Q484 451 511 417 Q538 383 549.5 337 Q561 291 553 239 Q545 187 519 141 Q493 95 455 61 Q417 27 370 7.5 Q323 -12 274 -12 Z M339 403 Q310 403 282 390 Q254 377 231.5 355 Q209 333 193 303 Q177 273 171 239 Q166 205 172.5 175 Q179 145 194.5 122.5 Q210 100 234 87 Q258 74 287 74 Q316 74 344 87 Q372 100 394.5 122.5 Q417 145 433 175 Q449 205 454 239 Q460 273 453.5 303 Q447 333 431.5 355 Q416 377 392 390 Q368 403 339 403 Z M382 672 L308 584 L206 584 L342 709 L433 709 L534 584 L433 584 L382 672 Z " />
<glyph glyph-name="otilde" unicode="&#xf5;" horiz-adv-x="558" d="M274 -12 Q224 -12 183.5 7.5 Q143 27 115.5 61 Q88 95 76.5 141 Q65 187 73 239 Q81 291 107.5 337 Q134 383 172 417 Q210 451 256.5 470.5 Q303 490 353 490 Q402 490 443 470.5 Q484 451 511 417 Q538 383 549.5 337 Q561 291 553 239 Q545 187 519 141 Q493 95 455 61 Q417 27 370 7.5 Q323 -12 274 -12 Z M339 403 Q310 403 282 390 Q254 377 231.5 355 Q209 333 193 303 Q177 273 171 239 Q166 205 172.5 175 Q179 145 194.5 122.5 Q210 100 234 87 Q258 74 287 74 Q316 74 344 87 Q372 100 394.5 122.5 Q417 145 433 175 Q449 205 454 239 Q460 273 453.5 303 Q447 333 431.5 355 Q416 377 392 390 Q368 403 339 403 Z M463 653 Q483 656 504 671 Q525 686 541 701 Q549 691 557.5 681 Q566 671 573 660 Q564 649 552 636.5 Q540 624 525.5 612.5 Q511 601 495 593 Q479 585 461 582 Q456 581 452 580.5 Q448 580 444 580 Q422 580 405.5 590 Q389 600 374 613 Q361 623 348 630 Q335 637 317 637 Q313 637 309.5 637 Q306 637 301 636 Q281 633 263 620.5 Q245 608 231 588 L185 622 Q201 647 230 673 Q259 699 304 707 Q309 708 313.5 708.5 Q318 709 323 709 Q349 709 367.5 699 Q386 689 402 678 L405 676 L410 672 L413 670 Q424 662 433.5 657 Q443 652 454 652 Q460 652 463 653 Z " />
<glyph glyph-name="uacute" unicode="&#xfa;" horiz-adv-x="535" d="M386 43 Q357 20 321.5 5 Q286 -10 245 -10 Q219 -10 187.5 -2.5 Q156 5 130.5 27 Q105 49 91.5 87.5 Q78 126 88 188 L134 479 L226 479 L180 188 Q175 157 181.5 135.5 Q188 114 201.5 101 Q215 88 234 82 Q253 76 274 76 Q290 76 311.5 82 Q333 88 353 101.5 Q373 115 388.5 136 Q404 157 409 187 L455 479 L552 479 L477 0 L400 0 L386 43 Z M447 709 L363 531 L284 531 L336 709 L447 709 Z " />
<glyph glyph-name="ugrave" unicode="&#xf9;" horiz-adv-x="535" d="M386 43 Q357 20 321.5 5 Q286 -10 245 -10 Q219 -10 187.5 -2.5 Q156 5 130.5 27 Q105 49 91.5 87.5 Q78 126 88 188 L134 479 L226 479 L180 188 Q175 157 181.5 135.5 Q188 114 201.5 101 Q215 88 234 82 Q253 76 274 76 Q290 76 311.5 82 Q333 88 353 101.5 Q373 115 388.5 136 Q404 157 409 187 L455 479 L552 479 L477 0 L400 0 L386 43 Z M423 709 L419 531 L340 531 L312 709 L423 709 Z " />
<glyph glyph-name="ucircumflex" unicode="&#xfb;" horiz-adv-x="535" d="M386 43 Q357 20 321.5 5 Q286 -10 245 -10 Q219 -10 187.5 -2.5 Q156 5 130.5 27 Q105 49 91.5 87.5 Q78 126 88 188 L134 479 L226 479 L180 188 Q175 157 181.5 135.5 Q188 114 201.5 101 Q215 88 234 82 Q253 76 274 76 Q290 76 311.5 82 Q333 88 353 101.5 Q373 115 388.5 136 Q404 157 409 187 L455 479 L552 479 L477 0 L400 0 L386 43 Z M370 672 L296 584 L194 584 L330 709 L421 709 L522 584 L421 584 L370 672 Z " />
<glyph glyph-name="Agrave" unicode="&#xc0;" horiz-adv-x="732" d="M125 0 L11 0 L418 709 L533 709 L716 0 L603 0 L545 222 L252 222 L125 0 Z M307 318 L520 318 L454 574 L307 318 Z M526 934 L522 756 L443 756 L415 934 L526 934 Z " />
<glyph glyph-name="Atilde" unicode="&#xc3;" horiz-adv-x="732" d="M125 0 L11 0 L418 709 L533 709 L716 0 L603 0 L545 222 L252 222 L125 0 Z M307 318 L520 318 L454 574 L307 318 Z M568 829 Q588 832 609 847 Q630 862 646 877 Q654 867 662.5 857 Q671 847 678 836 Q669 825 657 812.5 Q645 800 630.5 788.5 Q616 777 600 769 Q584 761 566 758 Q561 757 557 756.5 Q553 756 549 756 Q527 756 510.5 766 Q494 776 479 789 Q466 799 453 806 Q440 813 422 813 Q418 813 414.5 813 Q411 813 406 812 Q386 809 368 796.5 Q350 784 336 764 L290 798 Q306 823 335 849 Q364 875 409 883 Q414 884 418.5 884.5 Q423 885 428 885 Q454 885 472.5 875 Q491 865 507 854 L510 852 L515 848 L518 846 Q529 838 538.5 833 Q548 828 559 828 Q565 828 568 829 Z " />
<glyph glyph-name="Otilde" unicode="&#xd5;" horiz-adv-x="767" d="M498 719 Q570 719 629.5 690 Q689 661 729 611.5 Q769 562 786.5 495.5 Q804 429 792 355 Q780 280 741.5 214 Q703 148 647 98.5 Q591 49 522.5 20 Q454 -9 382 -9 Q310 -9 250.5 20 Q191 49 151.5 98.5 Q112 148 95 214 Q78 280 90 355 Q102 429 140 495.5 Q178 562 233.5 611.5 Q289 661 357.5 690 Q426 719 498 719 Z M399 90 Q450 90 497.5 110.5 Q545 131 583.5 167 Q622 203 649 251.5 Q676 300 685 355 Q694 410 682.5 458 Q671 506 643.5 542 Q616 578 575 598.5 Q534 619 483 619 Q432 619 384 598.5 Q336 578 297 542 Q258 506 231.5 458 Q205 410 196 355 Q187 300 198.5 251.5 Q210 203 238 167 Q266 131 307 110.5 Q348 90 399 90 Z M585 829 Q605 832 626 847 Q647 862 663 877 Q671 867 679.5 857 Q688 847 695 836 Q686 825 674 812.5 Q662 800 647.5 788.5 Q633 777 617 769 Q601 761 583 758 Q578 757 574 756.5 Q570 756 566 756 Q544 756 527.5 766 Q511 776 496 789 Q483 799 470 806 Q457 813 439 813 Q435 813 431.5 813 Q428 813 423 812 Q403 809 385 796.5 Q367 784 353 764 L307 798 Q323 823 352 849 Q381 875 426 883 Q431 884 435.5 884.5 Q440 885 445 885 Q471 885 489.5 875 Q508 865 524 854 L527 852 L532 848 L535 846 Q546 838 555.5 833 Q565 828 576 828 Q582 828 585 829 Z " />
<glyph glyph-name="ydieresis" unicode="&#xff;" horiz-adv-x="535" d="M221 54 L85 479 L193 479 L292 168 L486 479 L593 479 L178 -191 L71 -191 L221 54 Z M243 583 Q217 583 201.5 601.5 Q186 620 191 646 Q195 672 216 690 Q237 708 263 708 Q289 708 304 690 Q319 672 315 646 Q310 620 289.5 601.5 Q269 583 243 583 Z M474 583 Q448 583 432.5 601.5 Q417 620 422 646 Q426 672 447 690 Q468 708 494 708 Q520 708 535 690 Q550 672 546 646 Q541 620 520.5 601.5 Q500 583 474 583 Z " />
<glyph glyph-name="Ydieresis" unicode="&#x178;" horiz-adv-x="627" d="M311 332 L121 709 L246 709 L381 443 L600 709 L726 709 L416 332 L364 0 L259 0 L311 332 Z M317 756 Q291 756 275.5 774.5 Q260 793 265 819 Q269 845 290 863 Q311 881 337 881 Q363 881 378 863 Q393 845 389 819 Q384 793 363.5 774.5 Q343 756 317 756 Z M548 756 Q522 756 506.5 774.5 Q491 793 496 819 Q500 845 521 863 Q542 881 568 881 Q594 881 609 863 Q624 845 620 819 Q615 793 594.5 774.5 Q574 756 548 756 Z " />
<glyph glyph-name="Acircumflex" unicode="&#xc2;" horiz-adv-x="732" d="M125 0 L11 0 L418 709 L533 709 L716 0 L603 0 L545 222 L252 222 L125 0 Z M307 318 L520 318 L454 574 L307 318 Z M495 844 L421 756 L319 756 L455 881 L546 881 L647 756 L546 756 L495 844 Z " />
<glyph glyph-name="Ecircumflex" unicode="&#xca;" horiz-adv-x="549" d="M601 709 L586 615 L257 615 L226 422 L519 422 L504 325 L504 325 L211 325 L175 97 L504 97 L489 0 L489 0 L160 0 L108 0 L56 0 L168 709 L601 709 Z M405 844 L331 756 L229 756 L365 881 L456 881 L557 756 L456 756 L405 844 Z " />
<glyph glyph-name="Aacute" unicode="&#xc1;" horiz-adv-x="732" d="M125 0 L11 0 L418 709 L533 709 L716 0 L603 0 L545 222 L252 222 L125 0 Z M307 318 L520 318 L454 574 L307 318 Z M610 934 L526 756 L447 756 L499 934 L610 934 Z " />
<glyph glyph-name="Edieresis" unicode="&#xcb;" horiz-adv-x="549" d="M601 709 L586 615 L257 615 L226 422 L519 422 L504 325 L504 325 L211 325 L175 97 L504 97 L489 0 L489 0 L160 0 L108 0 L56 0 L168 709 L601 709 Z M278 756 Q252 756 236.5 774.5 Q221 793 226 819 Q230 845 251 863 Q272 881 298 881 Q324 881 339 863 Q354 845 350 819 Q345 793 324.5 774.5 Q304 756 278 756 Z M509 756 Q483 756 467.5 774.5 Q452 793 457 819 Q461 845 482 863 Q503 881 529 881 Q555 881 570 863 Q585 845 581 819 Q576 793 555.5 774.5 Q535 756 509 756 Z " />
<glyph glyph-name="Egrave" unicode="&#xc8;" horiz-adv-x="549" d="M601 709 L586 615 L257 615 L226 422 L519 422 L504 325 L504 325 L211 325 L175 97 L504 97 L489 0 L489 0 L160 0 L108 0 L56 0 L168 709 L601 709 Z M465 934 L461 756 L382 756 L354 934 L465 934 Z " />
<glyph glyph-name="Iacute" unicode="&#xcd;" horiz-adv-x="393" d="M346 623 L261 86 L313 86 L300 0 L91 0 L104 86 L157 86 L242 623 L189 623 L203 709 L412 709 L398 623 L346 623 Z M446 934 L362 756 L283 756 L335 934 L446 934 Z " />
<glyph glyph-name="Icircumflex" unicode="&#xce;" horiz-adv-x="393" d="M346 623 L261 86 L313 86 L300 0 L91 0 L104 86 L157 86 L242 623 L189 623 L203 709 L412 709 L398 623 L346 623 Z M327 844 L253 756 L151 756 L287 881 L378 881 L479 756 L378 756 L327 844 Z " />
<glyph glyph-name="Idieresis" unicode="&#xcf;" horiz-adv-x="393" d="M346 623 L261 86 L313 86 L300 0 L91 0 L104 86 L157 86 L242 623 L189 623 L203 709 L412 709 L398 623 L346 623 Z M204 756 Q178 756 162.5 774.5 Q147 793 152 819 Q156 845 177 863 Q198 881 224 881 Q250 881 265 863 Q280 845 276 819 Q271 793 250.5 774.5 Q230 756 204 756 Z M435 756 Q409 756 393.5 774.5 Q378 793 383 819 Q387 845 408 863 Q429 881 455 881 Q481 881 496 863 Q511 845 507 819 Q502 793 481.5 774.5 Q461 756 435 756 Z " />
<glyph glyph-name="Igrave" unicode="&#xcc;" horiz-adv-x="393" d="M346 623 L261 86 L313 86 L300 0 L91 0 L104 86 L157 86 L242 623 L189 623 L203 709 L412 709 L398 623 L346 623 Z M358 934 L354 756 L275 756 L247 934 L358 934 Z " />
<glyph glyph-name="Oacute" unicode="&#xd3;" horiz-adv-x="767" d="M498 719 Q570 719 629.5 690 Q689 661 729 611.5 Q769 562 786.5 495.5 Q804 429 792 355 Q780 280 741.5 214 Q703 148 647 98.5 Q591 49 522.5 20 Q454 -9 382 -9 Q310 -9 250.5 20 Q191 49 151.5 98.5 Q112 148 95 214 Q78 280 90 355 Q102 429 140 495.5 Q178 562 233.5 611.5 Q289 661 357.5 690 Q426 719 498 719 Z M399 90 Q450 90 497.5 110.5 Q545 131 583.5 167 Q622 203 649 251.5 Q676 300 685 355 Q694 410 682.5 458 Q671 506 643.5 542 Q616 578 575 598.5 Q534 619 483 619 Q432 619 384 598.5 Q336 578 297 542 Q258 506 231.5 458 Q205 410 196 355 Q187 300 198.5 251.5 Q210 203 238 167 Q266 131 307 110.5 Q348 90 399 90 Z M598 934 L514 756 L435 756 L487 934 L598 934 Z " />
<glyph glyph-name="Ocircumflex" unicode="&#xd4;" horiz-adv-x="767" d="M498 719 Q570 719 629.5 690 Q689 661 729 611.5 Q769 562 786.5 495.5 Q804 429 792 355 Q780 280 741.5 214 Q703 148 647 98.5 Q591 49 522.5 20 Q454 -9 382 -9 Q310 -9 250.5 20 Q191 49 151.5 98.5 Q112 148 95 214 Q78 280 90 355 Q102 429 140 495.5 Q178 562 233.5 611.5 Q289 661 357.5 690 Q426 719 498 719 Z M399 90 Q450 90 497.5 110.5 Q545 131 583.5 167 Q622 203 649 251.5 Q676 300 685 355 Q694 410 682.5 458 Q671 506 643.5 542 Q616 578 575 598.5 Q534 619 483 619 Q432 619 384 598.5 Q336 578 297 542 Q258 506 231.5 458 Q205 410 196 355 Q187 300 198.5 251.5 Q210 203 238 167 Q266 131 307 110.5 Q348 90 399 90 Z M514 844 L440 756 L338 756 L474 881 L565 881 L666 756 L565 756 L514 844 Z " />
<glyph glyph-name="Ograve" unicode="&#xd2;" horiz-adv-x="767" d="M498 719 Q570 719 629.5 690 Q689 661 729 611.5 Q769 562 786.5 495.5 Q804 429 792 355 Q780 280 741.5 214 Q703 148 647 98.5 Q591 49 522.5 20 Q454 -9 382 -9 Q310 -9 250.5 20 Q191 49 151.5 98.5 Q112 148 95 214 Q78 280 90 355 Q102 429 140 495.5 Q178 562 233.5 611.5 Q289 661 357.5 690 Q426 719 498 719 Z M399 90 Q450 90 497.5 110.5 Q545 131 583.5 167 Q622 203 649 251.5 Q676 300 685 355 Q694 410 682.5 458 Q671 506 643.5 542 Q616 578 575 598.5 Q534 619 483 619 Q432 619 384 598.5 Q336 578 297 542 Q258 506 231.5 458 Q205 410 196 355 Q187 300 198.5 251.5 Q210 203 238 167 Q266 131 307 110.5 Q348 90 399 90 Z M574 934 L570 756 L491 756 L463 934 L574 934 Z " />
<glyph glyph-name="Uacute" unicode="&#xda;" horiz-adv-x="634" d="M689 709 Q671 595 656 501 Q650 460 643.5 420 Q637 380 631.5 346 Q626 312 621.5 286.5 Q617 261 616 251 Q608 197 580 149.5 Q552 102 511.5 66.5 Q471 31 420.5 10.5 Q370 -10 316 -10 Q262 -10 218.5 10.5 Q175 31 145.5 66.5 Q116 102 103 149.5 Q90 197 98 251 Q100 262 104 287.5 Q108 313 113.5 347.5 Q119 382 125.5 422 Q132 462 138 502 Q153 596 171 709 L275 709 Q257 598 242 504 Q236 464 229.5 423.5 Q223 383 217.5 348.5 Q212 314 208 288.5 Q204 263 202 251 Q197 219 204.5 190 Q212 161 229.5 138.5 Q247 116 273.5 103 Q300 90 332 90 Q364 90 394 103 Q424 116 448.5 138.5 Q473 161 489.5 190 Q506 219 511 251 Q513 266 517.5 293.5 Q522 321 527.5 356 Q533 391 539.5 431 Q546 471 552 510 Q567 602 584 709 L689 709 L689 709 Z M531 934 L447 756 L368 756 L420 934 L531 934 Z " />
<glyph glyph-name="Ucircumflex" unicode="&#xdb;" horiz-adv-x="634" d="M688 709 Q670 595 655 501 Q649 460 642.5 420 Q636 380 630.5 346 Q625 312 620.5 286.5 Q616 261 615 251 Q607 197 579 149.5 Q551 102 510.5 66.5 Q470 31 419.5 10.5 Q369 -10 315 -10 Q261 -10 217.5 10.5 Q174 31 144.5 66.5 Q115 102 102 149.5 Q89 197 97 251 Q99 262 103 287.5 Q107 313 112.5 347.5 Q118 382 124.5 422 Q131 462 137 502 Q152 596 170 709 L274 709 Q256 598 241 504 Q235 464 228.5 423.5 Q222 383 216.5 348.5 Q211 314 207 288.5 Q203 263 201 251 Q196 219 203.5 190 Q211 161 228.5 138.5 Q246 116 272.5 103 Q299 90 331 90 Q363 90 393 103 Q423 116 447.5 138.5 Q472 161 488.5 190 Q505 219 510 251 Q512 266 516.5 293.5 Q521 321 526.5 356 Q532 391 538.5 431 Q545 471 551 510 Q566 602 583 709 L688 709 L688 709 Z M448 844 L374 756 L272 756 L408 881 L499 881 L600 756 L499 756 L448 844 Z " />
<glyph glyph-name="Ugrave" unicode="&#xd9;" horiz-adv-x="634" d="M689 709 Q671 595 656 501 Q650 460 643.5 420 Q637 380 631.5 346 Q626 312 621.5 286.5 Q617 261 616 251 Q608 197 580 149.5 Q552 102 511.5 66.5 Q471 31 420.5 10.5 Q370 -10 316 -10 Q262 -10 218.5 10.5 Q175 31 145.5 66.5 Q116 102 103 149.5 Q90 197 98 251 Q100 262 104 287.5 Q108 313 113.5 347.5 Q119 382 125.5 422 Q132 462 138 502 Q153 596 171 709 L275 709 Q257 598 242 504 Q236 464 229.5 423.5 Q223 383 217.5 348.5 Q212 314 208 288.5 Q204 263 202 251 Q197 219 204.5 190 Q212 161 229.5 138.5 Q247 116 273.5 103 Q300 90 332 90 Q364 90 394 103 Q424 116 448.5 138.5 Q473 161 489.5 190 Q506 219 511 251 Q513 266 517.5 293.5 Q522 321 527.5 356 Q533 391 539.5 431 Q546 471 552 510 Q567 602 584 709 L689 709 L689 709 Z M507 934 L503 756 L424 756 L396 934 L507 934 Z " />
<glyph glyph-name="dagger" unicode="&#x2020;" horiz-adv-x="305" d="M86 510 L199 510 L238 756 L304 756 L265 510 L380 510 L370 444 L255 444 L161 -151 L95 -151 L189 444 L76 444 L86 510 Z " />
<glyph glyph-name="daggerdbl" unicode="&#x2021;" horiz-adv-x="436" d="M449 115 L268 115 L219 -191 L153 -191 L202 115 L23 115 L33 180 L212 180 L249 412 L70 412 L80 478 L259 478 L303 756 L369 756 L325 478 L506 478 L496 412 L315 412 L278 180 L459 180 L449 115 Z " />
<glyph glyph-name="ae" unicode="&#xe6;" horiz-adv-x="846" d="M600 -12 Q542 -12 496 12 Q450 36 422 78 Q411 68 392 52.5 Q373 37 345 23 Q317 9 280.5 -1.5 Q244 -12 199 -12 Q164 -12 135 -4.5 Q106 3 86.5 19.5 Q67 36 58 62 Q49 88 55 126 Q60 157 76.5 183 Q93 209 117.5 228.5 Q142 248 173 260 Q204 272 237 275 L306 282 Q339 285 358 288.5 Q377 292 387 296.5 Q397 301 399.5 307.5 Q402 314 404 324 Q406 339 399.5 353 Q393 367 379.5 378 Q366 389 346.5 395.5 Q327 402 305 402 Q288 402 272.5 399 Q257 396 242 388 Q227 380 210 367 Q193 354 173 335 L107 382 Q155 435 212 462.5 Q269 490 327 490 Q346 490 367.5 486.5 Q389 483 409.5 473.5 Q430 464 448 448.5 Q466 433 478 409 Q516 446 563 468 Q610 490 661 490 Q710 490 749 473 Q788 456 812.5 420 Q837 384 845.5 328.5 Q854 273 842 196 L492 196 L492 166 Q506 124 540.5 99 Q575 74 623 74 Q661 74 696 88 Q731 102 757 125 L808 65 Q767 30 713.5 9 Q660 -12 600 -12 Z M647 402 Q624 402 602 393 Q580 384 560 368 Q540 352 524 330 Q508 308 498 282 L751 282 Q752 306 746.5 328 Q741 350 728 366.5 Q715 383 695 392.5 Q675 402 647 402 Z M386 213 Q361 211 336 208 Q314 206 289.5 202.5 Q265 199 244 197 Q223 194 207 187 Q191 180 180 170.5 Q169 161 163 150.5 Q157 140 156 131 Q152 105 171.5 88.5 Q191 72 228 72 Q242 72 265.5 77 Q289 82 313 94.5 Q337 107 356.5 128 Q376 149 381 181 L386 213 Z " />
<glyph glyph-name="oe" unicode="&#x153;" horiz-adv-x="912" d="M665 -12 Q603 -12 555.5 15 Q508 42 480 87 Q440 42 386.5 15 Q333 -12 274 -12 Q224 -12 183.5 7.5 Q143 27 115.5 61 Q88 95 76.5 141 Q65 187 73 239 Q81 291 107.5 337 Q134 383 172 417 Q210 451 256.5 470.5 Q303 490 353 490 Q411 490 456 463.5 Q501 437 527 392 Q566 437 618 463.5 Q670 490 726 490 Q775 490 814 473 Q853 456 877.5 420 Q902 384 910.5 328.5 Q919 273 907 196 L551 196 Q554 170 565 147.5 Q576 125 594 108.5 Q612 92 636 83 Q660 74 688 74 Q726 74 761 88 Q796 102 822 125 L873 65 Q832 30 778.5 9 Q725 -12 665 -12 Z M339 403 Q310 403 282 390 Q254 377 231.5 355 Q209 333 193 303 Q177 273 171 239 Q166 205 172.5 175 Q179 145 194.5 122.5 Q210 100 234 87 Q258 74 287 74 Q315 74 342.5 86.5 Q370 99 392.5 120 Q415 141 431 170 Q447 199 453 232 L455 246 Q459 279 452 307.5 Q445 336 429.5 357.5 Q414 379 390.5 391 Q367 403 339 403 Z M712 402 Q689 402 667 393 Q645 384 625 368 Q605 352 589 330 Q573 308 563 282 L816 282 Q817 306 811.5 328 Q806 350 793 366.5 Q780 383 760 392.5 Q740 402 712 402 Z " />
<glyph glyph-name="OE" unicode="&#x152;" horiz-adv-x="1025" d="M1101 709 L1086 615 L757 615 L726 422 L1019 422 L1004 325 L711 325 L675 97 L1004 97 L989 0 L556 0 L562 39 Q519 16 473.5 3.5 Q428 -9 381 -9 Q309 -9 249.5 20 Q190 49 150.5 98.5 Q111 148 94 214 Q77 280 89 355 Q101 429 139 495.5 Q177 562 232.5 611.5 Q288 661 356.5 690 Q425 719 497 719 Q591 719 662 671 L668 709 L1101 709 Z M398 90 Q449 90 496 110.5 Q543 131 582 167 L641 542 Q614 578 573.5 598.5 Q533 619 482 619 Q431 619 383 598.5 Q335 578 296 542 Q257 506 230.5 458 Q204 410 195 355 Q186 300 197.5 251.5 Q209 203 237 167 Q265 131 306 110.5 Q347 90 398 90 Z " />
<glyph glyph-name="yen" unicode="&#xa5;" horiz-adv-x="637" d="M564 201 L402 201 L371 0 L266 0 L297 201 L138 201 L145 246 L304 246 L318 331 L159 331 L166 377 L295 377 L128 709 L253 709 L388 443 L607 709 L733 709 L460 377 L592 377 L585 331 L423 331 L409 246 L571 246 L564 201 Z " />
<glyph glyph-name="section" unicode="&#xa7;" horiz-adv-x="519" d="M486 -14 Q480 -56 457.5 -91.5 Q435 -127 399 -153 Q329 -206 229 -206 Q191 -206 156.5 -197.5 Q122 -189 94.5 -174 Q67 -159 46.5 -137.5 Q26 -116 16 -90 L104 -48 Q117 -80 154.5 -98 Q192 -116 243 -116 Q377 -116 392 -14 Q398 22 373 44 Q346 70 263 94 Q214 107 181 122.5 Q148 138 128 158 Q76 207 88 283 Q94 321 115 354 Q136 387 168 412 Q180 421 195 430 Q188 434 183 438.5 Q178 443 173 448 Q122 495 134 572 Q140 610 161 643.5 Q182 677 214 701 Q246 727 285.5 739 Q325 751 370 751 Q437 751 489.5 725.5 Q542 700 564 653 L483 607 Q461 639 428 652.5 Q395 666 357 666 Q330 666 305.5 657 Q281 648 264 635 Q250 624 241 607.5 Q232 591 229 573 Q227 561 229 548.5 Q231 536 242.5 523.5 Q254 511 278 498 Q302 485 346 473 Q400 459 435 443.5 Q470 428 493 406 Q546 356 532 275 Q525 233 503 198 Q481 163 445 137 L433 128 L447 116 Q500 66 486 -14 Z M419 333 Q396 356 339 374 Q332 375 325 375.5 Q318 376 311 376 Q284 376 259.5 367.5 Q235 359 218 345 Q204 334 195 317.5 Q186 301 183 283 Q181 272 183 259.5 Q185 247 197 234 Q209 221 233 208.5 Q257 196 301 184 L330 176 Q424 191 438 275 Q441 295 436.5 308.5 Q432 322 419 333 Z " />
<glyph glyph-name="divide" unicode="&#xf7;" horiz-adv-x="517" d="M548 243 L538 177 L35 177 L45 243 L548 243 Z M302 300 Q276 300 260.5 318 Q245 336 250 362 Q254 388 275 406.5 Q296 425 322 425 Q348 425 363.5 406.5 Q379 388 375 362 Q370 336 349 318 Q328 300 302 300 Z M201 52 Q205 78 226 96.5 Q247 115 273 115 Q299 115 314 96.5 Q329 78 325 52 Q320 26 299.5 8 Q279 -10 253 -10 Q227 -10 211.5 8 Q196 26 201 52 Z " />
<glyph glyph-name="plusminus" unicode="&#xb1;" horiz-adv-x="511" d="M351 347 L551 347 L541 281 L341 281 L314 112 L236 112 L263 281 L58 281 L68 347 L273 347 L300 516 L378 516 L351 347 Z M507 66 L497 0 L14 0 L24 66 L507 66 Z " />
<glyph glyph-name="lessequal" unicode="&#x2264;" horiz-adv-x="494" d="M89 313 L508 501 L497 435 L152 281 L448 125 L438 59 L79 247 L89 313 Z M438 59 L429 0 L32 0 L41 59 L438 59 Z " />
<glyph glyph-name="greaterequal" unicode="&#x2265;" horiz-adv-x="494" d="M493 247 L74 59 L84 125 L430 281 L133 435 L144 501 L503 313 L493 247 Z M471 59 L462 0 L65 0 L74 59 L471 59 Z " />
<glyph glyph-name="ellipsis" unicode="&#x2026;" horiz-adv-x="644" d="M49 52 Q53 78 74 96.5 Q95 115 121 115 Q147 115 162 96.5 Q177 78 173 52 Q168 26 147.5 8 Q127 -10 101 -10 Q75 -10 59.5 8 Q44 26 49 52 Z M268 52 Q272 78 293 96.5 Q314 115 340 115 Q366 115 381 96.5 Q396 78 392 52 Q387 26 366.5 8 Q346 -10 320 -10 Q294 -10 278.5 8 Q263 26 268 52 Z M487 52 Q491 78 512 96.5 Q533 115 559 115 Q585 115 600 96.5 Q615 78 611 52 Q606 26 585.5 8 Q565 -10 539 -10 Q513 -10 497.5 8 Q482 26 487 52 Z " />
<glyph glyph-name="quotesinglbase" unicode="&#x201a;" horiz-adv-x="192" d="M89 -128 L8 -128 L80 118 L193 118 L89 -128 Z " />
<glyph glyph-name="quotedblbase" unicode="&#x201e;" horiz-adv-x="391" d="M97 -128 L16 -128 L88 118 L201 118 L97 -128 Z M275 -128 L194 -128 L266 118 L379 118 L275 -128 Z " />
<glyph glyph-name="periodcentered" unicode="&#xb7;" horiz-adv-x="186" d="M243 478 L159 300 L80 300 L132 478 L243 478 Z " />
<glyph glyph-name="approxequal" unicode="&#x2248;" horiz-adv-x="577" d="M411 171 Q433 171 456 179.5 Q479 188 498.5 198 Q518 208 531 217 Q544 226 544 226 L562 207 Q566 202 572 195.5 Q578 189 577 188 Q571 183 554 169 Q537 155 513 141 Q489 127 460 116 Q431 105 401 105 Q366 105 344.5 118 Q323 131 306 145 Q289 159 272 169 Q255 179 226 179 Q194 179 161.5 162.5 Q129 146 107 117 L55 150 Q56 151 69 166.5 Q82 182 105 199 Q128 216 161 230.5 Q194 245 236 245 Q281 245 307.5 229.5 Q334 214 354 198 L357 195 Q371 184 382.5 177.5 Q394 171 411 171 Z M441 375 Q463 375 486 383.5 Q509 392 528.5 402 Q548 412 561 421 Q574 430 574 430 L592 411 Q596 406 602 399.5 Q608 393 607 392 Q601 387 584 373 Q567 359 543 345 Q519 331 490 320 Q461 309 431 309 Q396 309 374.5 322 Q353 335 336 349 Q319 363 302 373 Q285 383 256 383 Q224 383 191.5 366.5 Q159 350 137 321 L85 354 Q86 355 99 370.5 Q112 386 135 403 Q158 420 191 434.5 Q224 449 266 449 Q311 449 337.5 433.5 Q364 418 384 402 L387 399 Q401 388 412.5 381.5 Q424 375 441 375 Z " />
<glyph glyph-name="florin" unicode="&#x192;" horiz-adv-x="494" d="M-7 -124 Q-3 -98 17.5 -79.5 Q38 -61 64 -61 Q88 -61 103.5 -77.5 Q119 -94 117 -118 Q147 -112 167 -87 Q187 -62 195 -16 L260 392 L178 392 L188 459 L273 479 L287 567 Q295 619 314.5 656 Q334 693 360 717 Q386 741 417.5 752.5 Q449 764 482 764 Q500 764 520 760.5 Q540 757 557 749 Q574 741 583.5 726 Q593 711 590 689 Q585 663 564.5 645 Q544 627 518 627 Q493 627 478 643.5 Q463 660 465 684 Q435 678 414.5 653 Q394 628 387 582 L370 479 L518 479 L505 392 L357 392 L294 -1 Q286 -53 266.5 -90 Q247 -127 221 -151 Q195 -175 163.5 -186.5 Q132 -198 99 -198 Q81 -198 61 -194.5 Q41 -191 25 -183 Q9 -175 -0.5 -160.5 Q-10 -146 -7 -124 Z " />
<glyph glyph-name="endash" unicode="&#x2013;" horiz-adv-x="699" d="M702 300 L692 234 L81 234 L91 300 L702 300 Z " />
<glyph glyph-name="emdash" unicode="&#x2014;" horiz-adv-x="793" d="M796 300 L786 234 L81 234 L91 300 L796 300 Z " />
<glyph glyph-name="guillemotright" unicode="&#xbb;" horiz-adv-x="461" d="M290 455 L307 564 L499 345 L485 256 L225 47 L242 157 L426 300 L290 455 Z M98 409 L116 518 L279 345 L265 254 L43 86 L61 198 L203 300 L98 409 Z " />
<glyph glyph-name="guillemotleft" unicode="&#xab;" horiz-adv-x="460" d="M129 300 L267 157 L250 47 L56 256 L70 345 L332 564 L315 455 L129 300 Z M352 300 L462 198 L444 86 L276 254 L290 345 L509 518 L491 409 L352 300 Z " />
<glyph glyph-name="oslash" unicode="&#xf8;" horiz-adv-x="536" d="M120 47 Q86 82 71 131.5 Q56 181 65 239 Q73 291 99.5 337 Q126 383 164 417 Q202 451 248.5 470.5 Q295 490 345 490 Q395 490 439 468 L480 524 L532 490 L489 432 Q524 397 539.5 347.5 Q555 298 545 239 Q537 187 511 141 Q485 95 447 61 Q409 27 362 7.5 Q315 -12 266 -12 Q214 -12 170 10 L136 -35 L84 -1 L120 47 Z M446 239 Q451 271 445.5 299.5 Q440 328 426 350 L227 86 Q251 74 279 74 Q308 74 336 87 Q364 100 386.5 122.5 Q409 145 425 175 Q441 205 446 239 Z M331 403 Q302 403 274 390 Q246 377 223.5 355 Q201 333 185 303 Q169 273 163 239 Q158 207 163.5 179 Q169 151 182 129 L381 392 Q357 403 331 403 Z " />
<glyph glyph-name="Oslash" unicode="&#xd8;" horiz-adv-x="760" d="M177 66 Q122 117 96.5 192 Q71 267 85 355 Q97 429 135 495.5 Q173 562 228.5 611.5 Q284 661 352.5 690 Q421 719 493 719 Q534 719 571 709 Q608 699 641 682 L681 736 L733 702 L691 646 Q719 621 740 589 Q761 557 774 519.5 Q787 482 790.5 440.5 Q794 399 787 355 Q775 280 736.5 214 Q698 148 642 98.5 Q586 49 517.5 20 Q449 -9 377 -9 Q335 -9 297 1 Q259 11 227 29 L187 -25 L135 9 L177 66 Z M394 90 Q445 90 492.5 110.5 Q540 131 578.5 167 Q617 203 644 251.5 Q671 300 680 355 Q690 416 674.5 468.5 Q659 521 624 557 L292 115 Q337 90 394 90 Z M191 355 Q181 294 195.5 242 Q210 190 244 154 L575 595 Q553 606 529 612.5 Q505 619 478 619 Q427 619 379 598.5 Q331 578 292 542 Q253 506 226.5 458 Q200 410 191 355 Z " />
</font>
</svg>
