<?xml version="1.0" encoding="UTF-8"?>
<svg xmlns="http://www.w3.org/2000/svg" xmlns:xlink="http://www.w3.org/1999/xlink" version="1.2" >
<font id="Type02 Bold">
<font-face  font-family="Type02" units-per-em="1000" ascent="667" descent="-17" font-style="normal" font-weight="900" font-stretch="normal" cap-height="667" x-height="667" underline-position="0" underline-thickness="0" />
<missing-glyph  horiz-adv-x="269" d="" />
<glyph glyph-name="nonmarkingreturn" unicode="&#xd;" horiz-adv-x="250" d="" />
<glyph glyph-name="Z" unicode="Z" horiz-adv-x="637" d="M322 189 L594 188 L594 0 L42 0 L42 83 L42 83 L42 183 L311 472 L68 472 L68 667 L581 667 L581 581 L581 581 L581 478 L322 189 Z " />
<glyph glyph-name="bracketleft" unicode="&#x5b;" horiz-adv-x="414" d="M45 -161 L45 799 L378 799 L378 666 L212 666 L212 -28 L378 -28 L378 -161 L45 -161 Z " />
<glyph glyph-name="backslash" unicode="&#x5c;" horiz-adv-x="432" d="M261 -16 Q258 -8 135.5 326 Q13 660 10 667 L171 667 Q174 658 296 326 Q418 -6 422 -16 L261 -16 Z " />
<glyph glyph-name="bracketright" unicode="&#x5d;" horiz-adv-x="414" d="M36 -161 L36 -28 L202 -28 L202 666 L36 666 L36 799 L369 799 L369 -161 L36 -161 Z " />
<glyph glyph-name="underscore" unicode="&#x5f;" horiz-adv-x="690" d="M645 -156 L45 -156 L45 0 L645 0 L645 -156 Z " />
<glyph glyph-name="a" unicode="a" horiz-adv-x="627" d="M408 667 L582 667 L582 0 L367 0 L366 158 L265 158 L264 0 L45 0 L45 667 L219 667 L408 667 Z M366 311 L365 472 L267 472 L265 311 L366 311 Z " />
<glyph glyph-name="x" unicode="x" horiz-adv-x="722" d="M685 667 L463 321 L685 0 L37 0 L259 339 L37 667 L685 667 Z " />
<glyph glyph-name="y" unicode="y" horiz-adv-x="680" d="M449 333 L449 0 L233 0 L233 347 L19 667 L661 667 L449 333 Z " />
<glyph glyph-name="z" unicode="z" horiz-adv-x="637" d="M322 183 L594 182 L594 0 L42 0 L42 83 L42 83 L42 183 L311 478 L68 478 L68 667 L581 667 L581 581 L581 581 L581 478 L322 183 Z " />
<glyph glyph-name="A" unicode="A" horiz-adv-x="717" d="M470 667 L694 0 L473 0 L447 104 L273 104 L247 0 L24 0 L238 667 L470 667 Z M408 256 L373 393 L359 444 Q359 446 355 446 Q351 446 350 444 L343 399 L334 363 L306 256 L408 256 Z " />
<glyph glyph-name="B" unicode="B" horiz-adv-x="609" d="M498 371 Q534 340 555.5 296.5 Q577 253 577 208 Q577 173 563.5 137 Q550 101 526.5 71.5 Q503 42 471.5 22 Q440 2 403 0 L213 0 L45 0 L45 631 L45 667 L372 667 L372 666 Q413 666 443 651.5 Q473 637 492.5 612.5 Q512 588 521 554.5 Q530 521 530 482 Q530 450 521.5 422 Q513 394 498 371 Z M350 444 Q350 462 340.5 482 Q331 502 315 502 L253 502 L253 390 L315 390 Q330 391 340 408 Q350 425 350 444 Z M321 160 Q337 160 346 179 Q355 198 355 217 Q355 227 352.5 238 Q350 249 345.5 258 Q341 267 335 273 Q329 279 321 279 L253 279 L253 160 L321 160 Z " />
<glyph glyph-name="C" unicode="C" horiz-adv-x="659" d="M371 185 Q422 185 461 215 L630 105 Q583 47 516 17 Q449 -13 371 -13 Q299 -13 237 13.5 Q175 40 128.5 86 Q82 132 55.5 195 Q29 258 29 330 Q29 404 55.5 468.5 Q82 533 128.5 580.5 Q175 628 237 655 Q299 682 371 682 Q447 682 512 652 Q577 622 624 568 L482 424 Q462 449 433.5 462.5 Q405 476 371 476 Q341 476 313.5 464.5 Q286 453 265.5 433.5 Q245 414 233 387 Q221 360 221 330 Q221 299 233 272.5 Q245 246 265.5 226.5 Q286 207 313.5 196 Q341 185 371 185 Z " />
<glyph glyph-name="D" unicode="D" horiz-adv-x="666" d="M505 624 Q549 594 575 549 Q600 508 613.5 459.5 Q627 411 630 361 Q633 311 626.5 262.5 Q620 214 605 173 Q592 137 572 105 Q552 73 520 48 Q497 26 455 16 Q450 14 417.5 7 Q385 0 339 0 L45 0 L45 247 L45 631 L45 667 L277 667 Q307 667 335.5 667 Q364 667 392.5 663.5 Q421 660 449 651 Q477 642 505 624 Z M319 183 Q344 183 361 199 Q378 215 388 238.5 Q398 262 402 289 Q406 316 406 338 Q406 360 400.5 385 Q395 410 383.5 431 Q372 452 356 465.5 Q340 479 319 479 L266 479 L266 183 L308 183 L310 183 L319 183 Z " />
<glyph glyph-name="E" unicode="E" horiz-adv-x="576" d="M45 667 L531 667 L531 472 L263 472 L263 414 L472 414 L472 249 L263 249 L263 189 L531 189 L531 0 L45 0 L45 148 L45 148 L45 659 L45 667 Z " />
<glyph glyph-name="F" unicode="F" horiz-adv-x="545" d="M45 667 L528 667 L528 472 L258 472 L258 411 L488 411 L488 256 L258 256 L258 0 L45 0 L45 659 L45 667 Z " />
<glyph glyph-name="G" unicode="G" horiz-adv-x="697" d="M446 329 L661 329 L661 -18 L571 49 Q530 18 479.5 0.5 Q429 -17 369 -17 Q297 -17 235.5 10 Q174 37 128 84 Q82 131 56 194.5 Q30 258 30 330 Q30 404 56 468.5 Q82 533 128 580.5 Q174 628 235.5 655 Q297 682 369 682 Q445 682 511 652 Q577 622 624 568 L481 424 Q463 449 433.5 462.5 Q404 476 369 476 Q337 476 309.5 464.5 Q282 453 262.5 433.5 Q243 414 232 387 Q221 360 221 330 Q221 299 232 272.5 Q243 246 262.5 226.5 Q282 207 309.5 196 Q337 185 369 185 Q389 185 409 190 Q429 195 446 205 L446 329 Z " />
<glyph glyph-name="H" unicode="H" horiz-adv-x="706" d="M444 667 L661 667 L661 0 L444 0 L444 256 L257 256 L257 0 L45 0 L45 667 L258 667 L257 411 L444 411 L444 667 Z " />
<glyph glyph-name="I" unicode="I" horiz-adv-x="482" d="M351 189 L439 189 L439 0 L44 0 L44 189 L136 189 L136 472 L52 472 L52 667 L429 667 L429 472 L351 472 L351 189 Z " />
<glyph glyph-name="J" unicode="J" horiz-adv-x="731" d="M503 667 L694 667 L694 470 L694 338 Q694 266 667.5 202 Q641 138 596 90.5 Q551 43 490 15.5 Q429 -12 360 -12 Q288 -12 225 15.5 Q162 43 115 90.5 Q68 138 41 202 Q14 266 14 338 L212 338 Q212 308 223.5 281.5 Q235 255 255.5 235.5 Q276 216 303 204.5 Q330 193 360 193 Q389 193 415 204.5 Q441 216 460.5 235.5 Q480 255 491.5 281.5 Q503 308 503 338 L503 472 L330 472 L330 667 L503 667 Z " />
<glyph glyph-name="K" unicode="K" horiz-adv-x="734" d="M687 667 L494 429 L698 0 L471 0 L352 264 L260 157 L260 0 L45 0 L45 667 L260 667 L260 436 L452 667 L687 667 Z " />
<glyph glyph-name="L" unicode="L" horiz-adv-x="607" d="M262 189 L596 189 L596 0 L45 0 L45 148 L45 148 L45 667 L262 667 L262 189 Z " />
<glyph glyph-name="M" unicode="M" horiz-adv-x="811" d="M738 667 L766 667 L766 0 L553 0 L553 371 L412 159 L263 381 L263 0 L45 0 L45 667 L71 667 L263 667 L264 667 L408 444 L550 667 L553 667 L738 667 Z " />
<glyph glyph-name="N" unicode="N" horiz-adv-x="760" d="M500 667 L715 667 L715 0 L711 0 L500 0 L500 0 L500 0 L258 353 L258 0 L45 0 L45 667 L258 667 L258 667 L258 667 L500 308 L500 667 Z " />
<glyph glyph-name="O" unicode="O" horiz-adv-x="738" d="M370 682 Q439 682 500.5 655 Q562 628 608 580.5 Q654 533 680.5 468.5 Q707 404 707 330 Q707 258 680.5 194.5 Q654 131 608 84 Q562 37 500.5 10 Q439 -17 370 -17 Q300 -17 238 10 Q176 37 130 84 Q84 131 57.5 194.5 Q31 258 31 330 Q31 404 57.5 468.5 Q84 533 130 580.5 Q176 628 238 655 Q300 682 370 682 Z M370 185 Q400 185 426 196 Q452 207 472 226.5 Q492 246 503.5 272.5 Q515 299 515 330 Q515 360 503.5 387 Q492 414 472 433.5 Q452 453 426 464.5 Q400 476 370 476 Q340 476 313 464.5 Q286 453 266 433.5 Q246 414 234.5 387 Q223 360 223 330 Q223 299 234.5 272.5 Q246 246 266 226.5 Q286 207 313 196 Q340 185 370 185 Z " />
<glyph glyph-name="P" unicode="P" horiz-adv-x="600" d="M408 666 Q445 663 477 642.5 Q509 622 532.5 591 Q556 560 569.5 521.5 Q583 483 583 444 Q583 394 569.5 352 Q556 310 533 278.5 Q510 247 477.5 229.5 Q445 212 408 212 L266 212 L266 0 L45 0 L45 667 L408 667 L408 666 Z M328 352 Q342 356 351.5 374 Q361 392 361 410 Q361 419 358.5 429.5 Q356 440 351.5 449.5 Q347 459 341 465.5 Q335 472 328 472 L267 472 L267 352 L328 352 Z " />
<glyph glyph-name="Q" unicode="Q" horiz-adv-x="765" d="M712 330 Q712 277 696.5 228 Q681 179 655 137 L734 0 L554 0 L535 24 Q497 4 456.5 -6.5 Q416 -17 367 -17 Q298 -17 237 10 Q176 37 130.5 84 Q85 131 58.5 194.5 Q32 258 32 330 Q32 404 58.5 468.5 Q85 533 130.5 580.5 Q176 628 237 655 Q298 682 367 682 Q439 682 502 655 Q565 628 611.5 580.5 Q658 533 685 468.5 Q712 404 712 330 Z M367 185 Q376 185 386 186 Q396 187 406 189 L357 247 L494 247 Q520 285 520 330 Q520 360 508.5 387 Q497 414 476.5 433.5 Q456 453 428 464.5 Q400 476 367 476 Q338 476 312 464.5 Q286 453 266.5 433.5 Q247 414 235.5 387 Q224 360 224 330 Q224 299 235.5 272.5 Q247 246 266.5 226.5 Q286 207 312 196 Q338 185 367 185 Z " />
<glyph glyph-name="R" unicode="R" horiz-adv-x="647" d="M582 444 Q582 391 566 347 Q550 303 521 272 L615 0 L404 0 L333 212 L262 212 L262 0 L45 0 L45 667 L405 667 L405 666 Q441 663 473.5 642.5 Q506 622 530 591 Q554 560 568 521.5 Q582 483 582 444 Z M263 352 L320 352 Q337 356 346.5 374 Q356 392 356 410 Q356 419 353.5 429.5 Q351 440 346.5 449.5 Q342 459 335 465.5 Q328 472 320 472 L263 472 L263 352 Z " />
<glyph glyph-name="S" unicode="S" horiz-adv-x="598" d="M240 468 Q240 448 264 436 Q288 424 324.5 412 Q361 400 403.5 386 Q446 372 482.5 347 Q519 322 543 284 Q567 246 567 187 Q566 95 494 38.5 Q422 -18 299 -18 Q175 -18 103.5 48 Q32 114 32 187 Q192 215 193 215 Q199 201 206.5 187.5 Q214 174 224.5 164 Q235 154 249 148 Q263 142 284 142 Q307 142 319.5 149 Q332 156 338 165 Q345 176 346 189 Q346 204 322.5 216 Q299 228 264.5 240.5 Q230 253 189 269 Q148 285 113.5 309.5 Q79 334 55.5 369.5 Q32 405 32 456 Q32 522 55.5 562.5 Q79 603 116.5 630 Q154 657 200 669.5 Q246 682 294 682 Q345 682 388.5 669 Q432 656 468.5 630.5 Q505 605 527 566.5 Q549 528 549 476 L378 463 Q378 478 371.5 489.5 Q365 501 354.5 508 Q344 515 331 518.5 Q318 522 305 522 Q279 522 259.5 507.5 Q240 493 240 468 Z " />
<glyph glyph-name="T" unicode="T" horiz-adv-x="587" d="M25 666 L562 666 L562 472 L401 472 L401 0 L186 0 L186 472 L25 472 L25 666 Z " />
<glyph glyph-name="U" unicode="U" horiz-adv-x="682" d="M418 667 L642 667 L642 217 Q642 180 625 139 Q608 98 571.5 63.5 Q535 29 477.5 6.5 Q420 -16 340 -16 Q260 -16 203 6.5 Q146 29 110 63.5 Q74 98 57.5 139 Q41 180 41 217 L41 667 L263 667 L263 258 Q263 226 284 203.5 Q305 181 340 181 Q372 181 393.5 202.5 Q415 224 417 255 Q417 258 417.5 261.5 Q418 265 418 268 L418 667 Z " />
<glyph glyph-name="V" unicode="V" horiz-adv-x="713" d="M455 667 L683 667 L542 0 L386 0 L317 0 L166 0 L30 667 L251 667 L353 170 L455 667 Z " />
<glyph glyph-name="W" unicode="W" horiz-adv-x="891" d="M637 667 L858 667 L724 0 L503 0 L504 1 L446 145 L394 0 L390 0 L390 0 L168 0 L33 667 L252 667 L330 297 L444 545 L563 301 L637 667 Z " />
<glyph glyph-name="X" unicode="X" horiz-adv-x="777" d="M510 346 L742 0 L508 0 L391 173 L273 0 L35 0 L271 346 L61 667 L300 667 L391 529 L481 667 L720 667 L510 346 Z " />
<glyph glyph-name="Y" unicode="Y" horiz-adv-x="680" d="M454 269 L453 0 L238 0 L238 267 L19 667 L249 667 L339 446 L430 667 L660 667 L454 269 Z " />
<glyph glyph-name="u" unicode="u" horiz-adv-x="661" d="M616 667 L616 191 L616 191 L616 0 L616 0 L616 0 L396 0 L396 0 L260 0 L260 0 L45 0 L45 0 L45 191 L45 667 L260 667 L260 191 L396 191 L396 667 L616 667 Z " />
<glyph glyph-name="j" unicode="j" horiz-adv-x="626" d="M581 667 L581 191 L581 191 L581 0 L581 0 L581 0 L367 0 L367 0 L232 0 L232 0 L16 0 L16 0 L16 191 L16 340 L232 340 L232 191 L367 191 L367 667 L581 667 Z " />
<glyph glyph-name="b" unicode="b" horiz-adv-x="609" d="M498 371 Q534 340 555.5 296.5 Q577 253 577 208 Q577 173 563.5 137 Q550 101 526.5 71.5 Q503 42 471.5 22 Q440 2 403 0 L213 0 L45 0 L45 631 L45 667 L372 667 L372 666 Q413 666 443 651.5 Q473 637 492.5 612.5 Q512 588 521 554.5 Q530 521 530 482 Q530 450 521.5 422 Q513 394 498 371 Z M350 464 Q350 482 340.5 502 Q331 522 315 522 L253 522 L253 410 L315 410 Q330 411 340 428 Q350 445 350 464 Z M321 170 Q337 170 346 189 Q355 208 355 227 Q355 237 352.5 248 Q350 259 345.5 268 Q341 277 335 283 Q329 289 321 289 L253 289 L253 170 L321 170 Z " />
<glyph glyph-name="m" unicode="m" horiz-adv-x="876" d="M761 667 L831 667 L831 0 L614 0 L614 435 L444 180 L261 445 L261 0 L45 0 L45 667 L116 667 L261 667 L614 667 L761 667 Z " />
<glyph glyph-name="c" unicode="c" horiz-adv-x="562" d="M259 189 L519 189 L519 0 L259 0 L45 0 L45 0 L45 666 L45 666 L45 669 L506 668 L506 472 L260 472 L259 189 Z " />
<glyph glyph-name="l" unicode="l" horiz-adv-x="604" d="M263 189 L593 189 L593 -1 L263 -1 L263 -1 L45 -1 L45 666 L263 666 L263 189 Z " />
<glyph glyph-name="s" unicode="s" horiz-adv-x="596" d="M379 667 L551 667 L551 472 L331 472 L314 472 L263 472 L262 399 L551 399 L551 247 L551 247 L551 -1 L484 -1 L333 -1 L45 -1 L45 190 L333 190 L333 247 L261 247 L179 247 L45 247 L45 667 L219 667 L379 667 Z " />
<glyph glyph-name="g" unicode="g" horiz-adv-x="625" d="M371 323 L587 323 L587 -1 L520 -1 L520 -1 L45 -1 L45 0 L45 0 L45 667 L45 667 L45 667 L46 667 L261 667 L261 667 L520 667 L520 470 L261 470 L261 190 L371 190 L371 323 Z " />
<glyph glyph-name="w" unicode="w" horiz-adv-x="870" d="M608 667 L825 667 L825 0 L756 0 L608 0 L263 0 L114 0 L45 0 L45 667 L263 667 L263 224 L426 481 L608 213 L608 667 Z " />
<glyph glyph-name="d" unicode="d" horiz-adv-x="666" d="M505 624 Q549 594 575 549 Q600 508 613.5 459.5 Q627 411 630 361 Q633 311 626.5 262.5 Q620 214 605 173 Q592 137 572 105 Q552 73 520 48 Q497 26 455 16 Q450 14 417.5 7 Q385 0 339 0 L45 0 L45 247 L45 631 L45 667 L277 667 Q307 667 335.5 667 Q364 667 392.5 663.5 Q421 660 449 651 Q477 642 505 624 Z M319 183 Q344 183 361 199 Q378 215 388 238.5 Q398 262 402 289 Q406 316 406 338 Q406 360 400.5 385 Q395 410 383.5 431 Q372 452 356 465.5 Q340 479 319 479 L266 479 L266 183 L308 183 L310 183 L319 183 Z " />
<glyph glyph-name="e" unicode="e" horiz-adv-x="576" d="M45 667 L531 667 L531 472 L263 472 L263 414 L472 414 L472 249 L263 249 L263 189 L531 189 L531 0 L45 0 L45 148 L45 148 L45 659 L45 667 Z " />
<glyph glyph-name="f" unicode="f" horiz-adv-x="545" d="M45 667 L528 667 L528 486 L258 486 L258 401 L488 401 L488 246 L258 246 L258 0 L45 0 L45 659 L45 667 Z " />
<glyph glyph-name="h" unicode="h" horiz-adv-x="706" d="M444 667 L661 667 L661 0 L444 0 L444 246 L257 246 L257 0 L45 0 L45 667 L258 667 L257 401 L444 401 L444 667 Z " />
<glyph glyph-name="i" unicode="i" horiz-adv-x="482" d="M351 189 L439 189 L439 0 L44 0 L44 189 L136 189 L136 472 L52 472 L52 667 L429 667 L429 472 L351 472 L351 189 Z " />
<glyph glyph-name="k" unicode="k" horiz-adv-x="724" d="M687 667 L494 429 L678 0 L471 0 L352 264 L260 157 L260 0 L45 0 L45 667 L260 667 L260 436 L452 667 L687 667 Z " />
<glyph glyph-name="n" unicode="n" horiz-adv-x="760" d="M500 667 L715 667 L715 0 L711 0 L500 0 L500 0 L500 0 L258 353 L258 0 L45 0 L45 667 L258 667 L258 667 L258 667 L500 308 L500 667 Z " />
<glyph glyph-name="o" unicode="o" horiz-adv-x="738" d="M370 682 Q439 682 500.5 655 Q562 628 608 580.5 Q654 533 680.5 468.5 Q707 404 707 330 Q707 258 680.5 194.5 Q654 131 608 84 Q562 37 500.5 10 Q439 -17 370 -17 Q300 -17 238 10 Q176 37 130 84 Q84 131 57.5 194.5 Q31 258 31 330 Q31 404 57.5 468.5 Q84 533 130 580.5 Q176 628 238 655 Q300 682 370 682 Z M370 185 Q400 185 426 196 Q452 207 472 226.5 Q492 246 503.5 272.5 Q515 299 515 330 Q515 360 503.5 387 Q492 414 472 433.5 Q452 453 426 464.5 Q400 476 370 476 Q340 476 313 464.5 Q286 453 266 433.5 Q246 414 234.5 387 Q223 360 223 330 Q223 299 234.5 272.5 Q246 246 266 226.5 Q286 207 313 196 Q340 185 370 185 Z " />
<glyph glyph-name="p" unicode="p" horiz-adv-x="600" d="M408 666 Q445 663 477 642.5 Q509 622 532.5 591 Q556 560 569.5 521.5 Q583 483 583 444 Q583 394 569.5 352 Q556 310 533 278.5 Q510 247 477.5 229.5 Q445 212 408 212 L266 212 L266 0 L45 0 L45 667 L408 667 L408 666 Z M328 352 Q342 356 351.5 374 Q361 392 361 410 Q361 419 358.5 429.5 Q356 440 351.5 449.5 Q347 459 341 465.5 Q335 472 328 472 L267 472 L267 352 L328 352 Z " />
<glyph glyph-name="q" unicode="q" horiz-adv-x="765" d="M712 330 Q712 277 696.5 228 Q681 179 655 137 L734 0 L554 0 L535 24 Q497 4 456.5 -6.5 Q416 -17 367 -17 Q298 -17 237 10 Q176 37 130.5 84 Q85 131 58.5 194.5 Q32 258 32 330 Q32 404 58.5 468.5 Q85 533 130.5 580.5 Q176 628 237 655 Q298 682 367 682 Q439 682 502 655 Q565 628 611.5 580.5 Q658 533 685 468.5 Q712 404 712 330 Z M367 185 Q376 185 386 186 Q396 187 406 189 L357 247 L494 247 Q520 285 520 330 Q520 360 508.5 387 Q497 414 476.5 433.5 Q456 453 428 464.5 Q400 476 367 476 Q338 476 312 464.5 Q286 453 266.5 433.5 Q247 414 235.5 387 Q224 360 224 330 Q224 299 235.5 272.5 Q247 246 266.5 226.5 Q286 207 312 196 Q338 185 367 185 Z " />
<glyph glyph-name="r" unicode="r" horiz-adv-x="647" d="M582 444 Q582 391 566 347 Q550 303 521 272 L615 0 L404 0 L333 212 L262 212 L262 0 L45 0 L45 667 L405 667 L405 666 Q441 663 473.5 642.5 Q506 622 530 591 Q554 560 568 521.5 Q582 483 582 444 Z M263 352 L320 352 Q337 356 346.5 374 Q356 392 356 410 Q356 419 353.5 429.5 Q351 440 346.5 449.5 Q342 459 335 465.5 Q328 472 320 472 L263 472 L263 352 Z " />
<glyph glyph-name="t" unicode="t" horiz-adv-x="587" d="M25 666 L562 666 L562 472 L401 472 L401 -1 L186 -1 L186 472 L25 472 L25 666 Z " />
<glyph glyph-name="v" unicode="v" horiz-adv-x="713" d="M455 667 L683 667 L542 0 L386 0 L317 0 L166 0 L30 667 L251 667 L353 170 L455 667 Z " />
<glyph glyph-name="Idotaccent" unicode="&#x130;" horiz-adv-x="459" d="M339 189 L427 189 L427 0 L32 0 L32 189 L124 189 L124 472 L40 472 L40 667 L417 667 L417 472 L339 472 L339 189 Z M97 842 Q97 869 107.5 893.5 Q118 918 136 936 Q154 954 178.5 964.5 Q203 975 230 975 Q257 975 281.5 964.5 Q306 954 324 936 Q342 918 352.5 893.5 Q363 869 363 842 Q363 815 352.5 790.5 Q342 766 324 748 Q306 730 281.5 719.5 Q257 709 230 709 Q203 709 178.5 719.5 Q154 730 136 748 Q118 766 107.5 790.5 Q97 815 97 842 Z " />
<glyph glyph-name="dotlessi" unicode="&#x131;" horiz-adv-x="482" d="M351 189 L439 189 L439 0 L44 0 L44 189 L136 189 L136 472 L52 472 L52 667 L429 667 L429 472 L351 472 L351 189 Z " />
<glyph glyph-name="cedilla" unicode="&#xb8;" horiz-adv-x="244" d="M200 -107 L45 -107 L45 108 L200 108 L200 -107 Z " />
<glyph glyph-name="dieresis" unicode="&#xa8;" horiz-adv-x="721" d="M39 862 Q39 889 49.5 913.5 Q60 938 78 956 Q96 974 120.5 984.5 Q145 995 172 995 Q199 995 223.5 984.5 Q248 974 266 956 Q284 938 294.5 913.5 Q305 889 305 862 Q305 835 294.5 810.5 Q284 786 266 768 Q248 750 223.5 739.5 Q199 729 172 729 Q145 729 120.5 739.5 Q96 750 78 768 Q60 786 49.5 810.5 Q39 835 39 862 Z M416 862 Q416 889 426.5 913.5 Q437 938 455 956 Q473 974 497.5 984.5 Q522 995 549 995 Q576 995 600.5 984.5 Q625 974 643 956 Q661 938 671.5 913.5 Q682 889 682 862 Q682 835 671.5 810.5 Q661 786 643 768 Q625 750 600.5 739.5 Q576 729 549 729 Q522 729 497.5 739.5 Q473 750 455 768 Q437 786 426.5 810.5 Q416 835 416 862 Z " />
<glyph glyph-name="breve" unicode="&#x2d8;" horiz-adv-x="461" d="M231 729 Q62 733 30 891 L147 913 Q147 906 151.5 893 Q156 880 165.5 867.5 Q175 855 191 845.5 Q207 836 231 836 Q255 836 271 845.5 Q287 855 296.5 867.5 Q306 880 310.5 893 Q315 906 315 913 L432 891 Q399 732 231 729 Z " />
<glyph glyph-name="Gbreve" unicode="&#x11e;" horiz-adv-x="690" d="M442 329 L657 329 L657 -18 L567 49 Q526 18 475.5 0.5 Q425 -17 365 -17 Q293 -17 231.5 10 Q170 37 124 84 Q78 131 52 194.5 Q26 258 26 330 Q26 404 52 468.5 Q78 533 124 580.5 Q170 628 231.5 655 Q293 682 365 682 Q441 682 507 652 Q573 622 620 568 L477 424 Q459 449 429.5 462.5 Q400 476 365 476 Q333 476 305.5 464.5 Q278 453 258.5 433.5 Q239 414 228 387 Q217 360 217 330 Q217 299 228 272.5 Q239 246 258.5 226.5 Q278 207 305.5 196 Q333 185 365 185 Q385 185 405 190 Q425 195 442 205 L442 329 Z M363 709 Q194 713 162 871 L279 893 Q279 886 283.5 873 Q288 860 297.5 847.5 Q307 835 323 825.5 Q339 816 363 816 Q387 816 403 825.5 Q419 835 428.5 847.5 Q438 860 442.5 873 Q447 886 447 893 L564 871 Q531 712 363 709 Z " />
<glyph glyph-name="gbreve" unicode="&#x11f;" horiz-adv-x="613" d="M365 323 L581 323 L581 -1 L514 -1 L39 -1 L39 0 L39 667 L40 667 L255 667 L514 667 L514 470 L255 470 L255 190 L365 190 L365 323 Z M301 709 Q132 713 100 871 L217 893 Q217 886 221.5 873 Q226 860 235.5 847.5 Q245 835 261 825.5 Q277 816 301 816 Q325 816 341 825.5 Q357 835 366.5 847.5 Q376 860 380.5 873 Q385 886 385 893 L502 871 Q469 712 301 709 Z " />
<glyph glyph-name="Ccedilla" unicode="&#xc7;" horiz-adv-x="648" d="M424 -107 L269 -107 L269 0 Q251 6 233 13 Q171 40 124.5 86 Q78 132 51.5 195 Q25 258 25 330 Q25 404 51.5 468.5 Q78 533 124.5 580.5 Q171 628 233 655 Q295 682 367 682 Q443 682 508 652 Q573 622 620 568 L478 424 Q458 449 429.5 462.5 Q401 476 367 476 Q337 476 309.5 464.5 Q282 453 261.5 433.5 Q241 414 229 387 Q217 360 217 330 Q217 299 229 272.5 Q241 246 261.5 226.5 Q282 207 309.5 196 Q337 185 367 185 Q418 185 457 215 L626 105 Q579 47 512 17 Q470 -2 424 -9 L424 -107 Z " />
<glyph glyph-name="ccedilla" unicode="&#xe7;" horiz-adv-x="544" d="M360 -107 L205 -107 L205 0 L39 0 L39 669 L500 668 L500 472 L254 472 L253 189 L513 189 L513 0 L360 0 L360 -107 Z " />
<glyph glyph-name="Odieresis" unicode="&#xd6;" horiz-adv-x="745" d="M374 682 Q443 682 504.5 655 Q566 628 612 580.5 Q658 533 684.5 468.5 Q711 404 711 330 Q711 258 684.5 194.5 Q658 131 612 84 Q566 37 504.5 10 Q443 -17 374 -17 Q304 -17 242 10 Q180 37 134 84 Q88 131 61.5 194.5 Q35 258 35 330 Q35 404 61.5 468.5 Q88 533 134 580.5 Q180 628 242 655 Q304 682 374 682 Z M374 185 Q404 185 430 196 Q456 207 476 226.5 Q496 246 507.5 272.5 Q519 299 519 330 Q519 360 507.5 387 Q496 414 476 433.5 Q456 453 430 464.5 Q404 476 374 476 Q344 476 317 464.5 Q290 453 270 433.5 Q250 414 238.5 387 Q227 360 227 330 Q227 299 238.5 272.5 Q250 246 270 226.5 Q290 207 317 196 Q344 185 374 185 Z M52 842 Q52 869 62.5 893.5 Q73 918 91 936 Q109 954 133.5 964.5 Q158 975 185 975 Q212 975 236.5 964.5 Q261 954 279 936 Q297 918 307.5 893.5 Q318 869 318 842 Q318 815 307.5 790.5 Q297 766 279 748 Q261 730 236.5 719.5 Q212 709 185 709 Q158 709 133.5 719.5 Q109 730 91 748 Q73 766 62.5 790.5 Q52 815 52 842 Z M429 842 Q429 869 439.5 893.5 Q450 918 468 936 Q486 954 510.5 964.5 Q535 975 562 975 Q589 975 613.5 964.5 Q638 954 656 936 Q674 918 684.5 893.5 Q695 869 695 842 Q695 815 684.5 790.5 Q674 766 656 748 Q638 730 613.5 719.5 Q589 709 562 709 Q535 709 510.5 719.5 Q486 730 468 748 Q450 766 439.5 790.5 Q429 815 429 842 Z " />
<glyph glyph-name="Udieresis" unicode="&#xdc;" horiz-adv-x="718" d="M437 667 L661 667 L661 217 Q661 180 644 139 Q627 98 590.5 63.5 Q554 29 496.5 6.5 Q439 -16 359 -16 Q279 -16 222 6.5 Q165 29 129 63.5 Q93 98 76.5 139 Q60 180 60 217 L60 667 L282 667 L282 258 Q282 226 303 203.5 Q324 181 359 181 Q391 181 412.5 202.5 Q434 224 436 255 Q436 258 436.5 261.5 Q437 265 437 268 L437 667 Z M37 842 Q37 869 47.5 893.5 Q58 918 76 936 Q94 954 118.5 964.5 Q143 975 170 975 Q197 975 221.5 964.5 Q246 954 264 936 Q282 918 292.5 893.5 Q303 869 303 842 Q303 815 292.5 790.5 Q282 766 264 748 Q246 730 221.5 719.5 Q197 709 170 709 Q143 709 118.5 719.5 Q94 730 76 748 Q58 766 47.5 790.5 Q37 815 37 842 Z M414 842 Q414 869 424.5 893.5 Q435 918 453 936 Q471 954 495.5 964.5 Q520 975 547 975 Q574 975 598.5 964.5 Q623 954 641 936 Q659 918 669.5 893.5 Q680 869 680 842 Q680 815 669.5 790.5 Q659 766 641 748 Q623 730 598.5 719.5 Q574 709 547 709 Q520 709 495.5 719.5 Q471 730 453 748 Q435 766 424.5 790.5 Q414 815 414 842 Z " />
<glyph glyph-name="scedilla" unicode="&#x15f;" horiz-adv-x="581" d="M376 -107 L221 -107 L221 -1 L37 -1 L37 190 L325 190 L325 247 L37 247 L37 667 L543 667 L543 472 L255 472 L254 399 L543 399 L543 -1 L376 -1 L376 -107 Z " />
<glyph glyph-name="Scedilla" unicode="&#x15e;" horiz-adv-x="588" d="M378 -107 L223 -107 L223 -12 Q148 2 98 48 Q27 114 27 187 Q187 215 188 215 Q194 201 201.5 187.5 Q209 174 219.5 164 Q230 154 244 148 Q258 142 279 142 Q302 142 314.5 149 Q327 156 333 165 Q340 176 341 189 Q341 204 317.5 216 Q294 228 259.5 240.5 Q225 253 184 269 Q143 285 108.5 309.5 Q74 334 50.5 369.5 Q27 405 27 456 Q27 522 50.5 562.5 Q74 603 111.5 630 Q149 657 195 669.5 Q241 682 289 682 Q340 682 383.5 669 Q427 656 463.5 630.5 Q500 605 522 566.5 Q544 528 544 476 L373 463 Q373 478 366.5 489.5 Q360 501 349.5 508 Q339 515 326 518.5 Q313 522 300 522 Q274 522 254.5 507.5 Q235 493 235 468 Q235 448 259 436 Q283 424 319.5 412 Q356 400 398.5 386 Q441 372 477.5 347 Q514 322 538 284 Q562 246 562 187 Q561 95 489 38 Q443 3 378 -10 L378 -107 Z " />
<glyph glyph-name="udieresis" unicode="&#xfc;" horiz-adv-x="720" d="M649 667 L649 191 L649 0 L429 0 L293 0 L78 0 L78 191 L78 667 L293 667 L293 191 L429 191 L429 667 L649 667 Z M38 842 Q38 869 48.5 893.5 Q59 918 77 936 Q95 954 119.5 964.5 Q144 975 171 975 Q198 975 222.5 964.5 Q247 954 265 936 Q283 918 293.5 893.5 Q304 869 304 842 Q304 815 293.5 790.5 Q283 766 265 748 Q247 730 222.5 719.5 Q198 709 171 709 Q144 709 119.5 719.5 Q95 730 77 748 Q59 766 48.5 790.5 Q38 815 38 842 Z M415 842 Q415 869 425.5 893.5 Q436 918 454 936 Q472 954 496.5 964.5 Q521 975 548 975 Q575 975 599.5 964.5 Q624 954 642 936 Q660 918 670.5 893.5 Q681 869 681 842 Q681 815 670.5 790.5 Q660 766 642 748 Q624 730 599.5 719.5 Q575 709 548 709 Q521 709 496.5 719.5 Q472 730 454 748 Q436 766 425.5 790.5 Q415 815 415 842 Z " />
<glyph glyph-name="odieresis" unicode="&#xf6;" horiz-adv-x="745" d="M374 682 Q443 682 504.5 655 Q566 628 612 580.5 Q658 533 684.5 468.5 Q711 404 711 330 Q711 258 684.5 194.5 Q658 131 612 84 Q566 37 504.5 10 Q443 -17 374 -17 Q304 -17 242 10 Q180 37 134 84 Q88 131 61.5 194.5 Q35 258 35 330 Q35 404 61.5 468.5 Q88 533 134 580.5 Q180 628 242 655 Q304 682 374 682 Z M374 185 Q404 185 430 196 Q456 207 476 226.5 Q496 246 507.5 272.5 Q519 299 519 330 Q519 360 507.5 387 Q496 414 476 433.5 Q456 453 430 464.5 Q404 476 374 476 Q344 476 317 464.5 Q290 453 270 433.5 Q250 414 238.5 387 Q227 360 227 330 Q227 299 238.5 272.5 Q250 246 270 226.5 Q290 207 317 196 Q344 185 374 185 Z M50 842 Q50 869 60.5 893.5 Q71 918 89 936 Q107 954 131.5 964.5 Q156 975 183 975 Q210 975 234.5 964.5 Q259 954 277 936 Q295 918 305.5 893.5 Q316 869 316 842 Q316 815 305.5 790.5 Q295 766 277 748 Q259 730 234.5 719.5 Q210 709 183 709 Q156 709 131.5 719.5 Q107 730 89 748 Q71 766 60.5 790.5 Q50 815 50 842 Z M427 842 Q427 869 437.5 893.5 Q448 918 466 936 Q484 954 508.5 964.5 Q533 975 560 975 Q587 975 611.5 964.5 Q636 954 654 936 Q672 918 682.5 893.5 Q693 869 693 842 Q693 815 682.5 790.5 Q672 766 654 748 Q636 730 611.5 719.5 Q587 709 560 709 Q533 709 508.5 719.5 Q484 730 466 748 Q448 766 437.5 790.5 Q427 815 427 842 Z " />
<glyph glyph-name="period" unicode="&#x2e;" horiz-adv-x="328" d="M31 116 Q31 143 41.5 167.5 Q52 192 70 210 Q88 228 112.5 238.5 Q137 249 164 249 Q191 249 215.5 238.5 Q240 228 258 210 Q276 192 286.5 167.5 Q297 143 297 116 Q297 89 286.5 64.5 Q276 40 258 22 Q240 4 215.5 -6.5 Q191 -17 164 -17 Q137 -17 112.5 -6.5 Q88 4 70 22 Q52 40 41.5 64.5 Q31 89 31 116 Z " />
<glyph glyph-name="zero" unicode="0" horiz-adv-x="650" d="M420 667 Q466 653 502 627.5 Q538 602 566 557 Q588 515 599.5 464.5 Q611 414 613.5 362.5 Q616 311 609.5 260.5 Q603 210 590 167 Q578 122 556 84.5 Q534 47 496 24 Q467 7 436.5 -0.5 Q406 -8 377 -11 Q342 -15 310 -14.5 Q278 -14 246 -7 Q195 4 154 31 Q113 58 87 106 Q54 165 43.5 233.5 Q33 302 38 370 Q40 401 45 434.5 Q50 468 60 500 Q70 532 85.5 561 Q101 590 124 614 Q152 639 188.5 654 Q225 669 265 674.5 Q305 680 345 678 Q385 676 420 667 Z M338 172 Q363 175 377 194 Q391 213 398 238 Q405 263 407 290 Q409 317 409 336 Q409 355 406 380 Q403 405 394 428.5 Q385 452 370 468.5 Q355 485 331 487 Q302 489 285 471 Q268 453 259 426.5 Q250 400 247.5 370.5 Q245 341 245 321 Q245 302 248 276.5 Q251 251 260 228 Q269 205 284.5 188.5 Q300 172 325 171 Q333 171 338 172 Z " />
<glyph glyph-name="one" unicode="1" horiz-adv-x="400" d="M355 667 L355 0 L140 0 L140 465 L16 465 L16 577 L140 667 L355 667 Z " />
<glyph glyph-name="two" unicode="2" horiz-adv-x="623" d="M579 421 Q569 379 539.5 346 Q510 313 470 284.5 Q430 256 384.5 231 Q339 206 297 181 L581 181 L581 0 L36 0 L36 82 L36 181 L39 183 Q49 191 71.5 206.5 Q94 222 122.5 242.5 Q151 263 183.5 286.5 Q216 310 245.5 333 Q275 356 300 378 Q325 400 339 417 Q356 443 355 462.5 Q354 482 342.5 494 Q331 506 312.5 510 Q294 514 276 508 Q258 502 244 485.5 Q230 469 227 441 L45 473 Q45 536 79 580.5 Q113 625 164 648 Q217 677 277 679 Q337 681 394 670 Q437 661 474.5 638 Q512 615 538 582 Q564 549 575.5 507.5 Q587 466 579 421 Z " />
<glyph glyph-name="three" unicode="3" horiz-adv-x="594" d="M431 388 Q453 375 474 360.5 Q495 346 511.5 328 Q528 310 539.5 287 Q551 264 555 235 Q561 199 554.5 165.5 Q548 132 533 104 Q509 65 468 37 Q427 9 374 -1 Q320 -12 260.5 -10.5 Q201 -9 148 17 Q94 41 62.5 85 Q31 129 31 186 L212 217 Q214 217 217 212.5 Q220 208 223 202 Q226 196 228 190 Q230 184 232 182 Q240 172 249 164 Q258 156 271 151 Q297 145 317.5 157.5 Q338 170 340 194 Q341 206 337 217.5 Q333 229 326 240 Q321 245 316 252.5 Q311 260 304 265 Q282 282 266.5 288 Q251 294 240 299 Q239 322 239 344.5 Q239 367 238 389 L325 485 L77 485 L77 667 L519 666 L519 575 L519 473 L431 388 Z " />
<glyph glyph-name="four" unicode="4" horiz-adv-x="673" d="M559 265 L642 265 L642 95 L559 95 L559 0 L343 0 L343 95 L17 95 L17 177 L17 177 L17 276 L331 667 L559 667 L559 265 Z M343 265 L343 411 L217 265 L343 265 Z " />
<glyph glyph-name="five" unicode="5" horiz-adv-x="589" d="M427 414 Q457 402 480.5 380.5 Q504 359 520.5 332 Q537 305 546.5 274 Q556 243 556 212 Q556 179 544.5 146 Q533 113 512 85 Q478 43 429.5 20 Q381 -3 327 -9 Q281 -14 233.5 -4.5 Q186 5 143 28 Q121 43 99 63 Q77 83 63 109 Q53 125 47 142 Q41 159 36 174 Q31 191 28 208 L194 232 Q201 223 207 216 Q212 210 217 203.5 Q222 197 224 195 Q235 184 251 178 Q267 172 281 171 Q298 169 311.5 177.5 Q325 186 333 201 Q340 218 337 237 Q334 256 321 270 Q301 292 271 290.5 Q241 289 215 281 L85 293 L85 495 L85 622 L85 667 L517 667 L517 485 L234 492 L227 420 Q229 421 230.5 421 Q232 421 234 422 Q279 436 331 434 Q383 432 427 414 Z " />
<glyph glyph-name="six" unicode="6" horiz-adv-x="563" d="M304 433 Q358 440 402 425.5 Q446 411 477 382 Q508 353 525 312 Q542 271 542 226 Q542 177 522 134 Q502 91 466.5 59 Q431 27 384 8.5 Q337 -10 283 -10 Q231 -10 184.5 8.5 Q138 27 103.5 59 Q69 91 49 134 Q29 177 29 226 Q29 250 34 273 L35 276 Q38 292 44 307 L173 667 L369 667 L304 433 Z M283 172 Q314 172 334 191 Q354 210 354 238 Q354 266 334 285.5 Q314 305 283 305 Q255 305 235.5 285.5 Q216 266 216 238 Q216 210 235.5 191 Q255 172 283 172 Z " />
<glyph glyph-name="seven" unicode="7" horiz-adv-x="589" d="M363 667 L575 667 L307 -4 L92 -4 L294 489 L34 494 L34 667 L363 666 L363 667 Z " />
<glyph glyph-name="eight" unicode="8" horiz-adv-x="585" d="M532 468 Q532 439 523 414 Q514 389 500 367 Q525 336 538.5 300.5 Q552 265 552 226 Q552 177 531 134 Q510 91 474 59 Q438 27 389.5 8.5 Q341 -10 287 -10 Q235 -10 188.5 8.5 Q142 27 107.5 59 Q73 91 53 134 Q33 177 33 226 Q33 265 46 300.5 Q59 336 80 367 Q66 389 59.5 414 Q53 439 53 468 Q53 512 71 550.5 Q89 589 120.5 617.5 Q152 646 195 662 Q238 678 287 678 Q338 678 382.5 662 Q427 646 460 617.5 Q493 589 512.5 550.5 Q532 512 532 468 Z M287 509 Q261 509 243.5 489.5 Q226 470 226 445 Q226 426 243.5 410 Q261 394 287 394 Q317 394 334.5 410 Q352 426 352 445 Q352 470 334.5 489.5 Q317 509 287 509 Z M287 172 Q319 172 338 191 Q357 210 357 238 Q357 261 338 279.5 Q319 298 287 298 Q260 298 240.5 279.5 Q221 261 221 238 Q221 210 240.5 191 Q260 172 287 172 Z " />
<glyph glyph-name="nine" unicode="9" horiz-adv-x="562" d="M279 678 Q332 678 378.5 659 Q425 640 460 607 Q495 574 515 529 Q535 484 535 432 Q535 406 529.5 381 Q524 356 515 332 L368 -1 L165 -1 L263 236 Q208 224 163.5 236 Q119 248 88 276.5 Q57 305 40 346 Q23 387 23 432 Q23 484 43 529 Q63 574 97.5 607 Q132 640 179 659 Q226 678 279 678 Z M211 427 Q211 399 230.5 379.5 Q250 360 279 360 Q309 360 328.5 379.5 Q348 399 348 427 Q348 456 328.5 475.5 Q309 495 279 495 Q250 495 230.5 475.5 Q211 456 211 427 Z " />
<glyph glyph-name="slash" unicode="&#x2f;" horiz-adv-x="431" d="M10 -16 Q14 -6 136 326 Q258 658 261 667 L422 667 Q419 660 296.5 326 Q174 -8 171 -16 L10 -16 Z " />
<glyph glyph-name="comma" unicode="&#x2c;" horiz-adv-x="344" d="M26 -106 Q30 -96 71.5 14.5 Q113 125 116 134 L327 134 Q324 127 262 14.5 Q200 -98 197 -106 L26 -106 Z " />
<glyph glyph-name="semicolon" unicode="&#x3b;" horiz-adv-x="382" d="M21 -106 Q25 -96 66.5 14.5 Q108 125 111 134 L322 134 Q319 127 257 14.5 Q195 -98 192 -106 L21 -106 Z M98 453 Q98 480 108.5 504.5 Q119 529 137 547 Q155 565 179.5 575.5 Q204 586 231 586 Q258 586 282.5 575.5 Q307 565 325 547 Q343 529 353.5 504.5 Q364 480 364 453 Q364 426 353.5 401.5 Q343 377 325 359 Q307 341 282.5 330.5 Q258 320 231 320 Q204 320 179.5 330.5 Q155 341 137 359 Q119 377 108.5 401.5 Q98 426 98 453 Z " />
<glyph glyph-name="colon" unicode="&#x3a;" horiz-adv-x="332" d="M33 453 Q33 480 43.5 504.5 Q54 529 72 547 Q90 565 114.5 575.5 Q139 586 166 586 Q193 586 217.5 575.5 Q242 565 260 547 Q278 529 288.5 504.5 Q299 480 299 453 Q299 426 288.5 401.5 Q278 377 260 359 Q242 341 217.5 330.5 Q193 320 166 320 Q139 320 114.5 330.5 Q90 341 72 359 Q54 377 43.5 401.5 Q33 426 33 453 Z M33 116 Q33 143 43.5 167.5 Q54 192 72 210 Q90 228 114.5 238.5 Q139 249 166 249 Q193 249 217.5 238.5 Q242 228 260 210 Q278 192 288.5 167.5 Q299 143 299 116 Q299 89 288.5 64.5 Q278 40 260 22 Q242 4 217.5 -6.5 Q193 -17 166 -17 Q139 -17 114.5 -6.5 Q90 4 72 22 Q54 40 43.5 64.5 Q33 89 33 116 Z " />
<glyph glyph-name="hyphen" unicode="&#x2d;" horiz-adv-x="480" d="M435 220 L45 220 L45 376 L435 376 L435 220 Z " />
<glyph glyph-name="equal" unicode="&#x3d;" horiz-adv-x="480" d="M435 332 L45 332 L45 488 L435 488 L435 332 Z M435 112 L45 112 L45 268 L435 268 L435 112 Z " />
<glyph glyph-name="exclam" unicode="&#x21;" horiz-adv-x="329" d="M254 310 L77 310 L57 667 L274 667 L254 310 Z M31 116 Q31 89 41.5 64.5 Q52 40 70 22 Q88 4 112.5 -6.5 Q137 -17 164 -17 Q191 -17 215.5 -6.5 Q240 4 258 22 Q276 40 286.5 64.5 Q297 89 297 116 Q297 143 286.5 167.5 Q276 192 258 210 Q240 228 215.5 238.5 Q191 249 164 249 Q137 249 112.5 238.5 Q88 228 70 210 Q52 192 41.5 167.5 Q31 143 31 116 Z " />
<glyph glyph-name="question" unicode="&#x3f;" horiz-adv-x="547" d="M52 116 Q52 89 62.5 64.5 Q73 40 91 22 Q109 4 133.5 -6.5 Q158 -17 185 -17 Q212 -17 236.5 -6.5 Q261 4 279 22 Q297 40 307.5 64.5 Q318 89 318 116 Q318 143 307.5 167.5 Q297 192 279 210 Q261 228 236.5 238.5 Q212 249 185 249 Q158 249 133.5 238.5 Q109 228 91 210 Q73 192 62.5 167.5 Q52 143 52 116 Z M526 659 L527 299 L99 300 L99 414 L308 414 L308 472 L40 472 L40 667 L526 667 L526 659 Z " />
<glyph glyph-name="plus" unicode="&#x2b;" horiz-adv-x="475" d="M160 78 L160 220 L18 220 L18 376 L160 376 L160 518 L316 518 L316 376 L458 376 L458 220 L316 220 L316 78 L160 78 Z " />
<glyph glyph-name="parenleft" unicode="&#x28;" horiz-adv-x="443" d="M209 -155 Q150 -91 111 -14.5 Q72 62 52 145.5 Q32 229 31.5 315.5 Q31 402 49.5 485.5 Q68 569 106.5 646.5 Q145 724 202 789 L373 674 Q308 602 275.5 507.5 Q243 413 243 315 Q243 217 277 124 Q311 31 379 -39 L209 -155 Z " />
<glyph glyph-name="parenright" unicode="&#x29;" horiz-adv-x="443" d="M64 -39 Q132 31 166 124 Q200 217 200 315 Q200 413 167 507.5 Q134 602 70 674 L241 789 Q298 724 336.5 646.5 Q375 569 393.5 485.5 Q412 402 411.5 315.5 Q411 229 391 145.5 Q371 62 331.5 -14.5 Q292 -91 234 -155 L64 -39 Z " />
<glyph glyph-name="space" unicode="&#x20;" horiz-adv-x="269" d="" />
<glyph glyph-name="at" unicode="&#x40;" horiz-adv-x="1119" d="M285 278 Q285 335 307 385.5 Q329 436 366.5 473.5 Q404 511 454.5 533 Q505 555 562 555 Q619 555 669.5 533 Q720 511 757.5 473.5 Q795 436 817 385.5 Q839 335 839 278 Q839 245 831.5 214 Q824 183 810 155 L894 155 Q916 212 916 277 Q916 349 888 413.5 Q860 478 812 524.5 Q764 571 701.5 598.5 Q639 626 568 626 Q496 626 432.5 598.5 Q369 571 320.5 524.5 Q272 478 245 413.5 Q218 349 218 277 Q218 203 245 139.5 Q272 76 320 30 Q341 10 364 -5 L364 -228 L359 -226 Q261 -184 189 -109.5 Q117 -35 74.5 65 Q32 165 32 279 Q32 396 74.5 498 Q117 600 189 675 Q261 750 359 792.5 Q457 835 567 835 Q676 835 773.5 792.5 Q871 750 944 675 Q1017 600 1058.5 498 Q1100 396 1100 279 Q1100 165 1058 65 Q1044 31 1026 0 L562 0 L562 1 Q505 1 454.5 23 Q404 45 366.5 82.5 Q329 120 307 170.5 Q285 221 285 278 Z M472 276 Q472 238 498 212 Q524 186 562 186 Q600 186 626.5 212 Q653 238 653 276 Q653 314 626.5 340.5 Q600 367 562 367 Q524 367 498 340.5 Q472 314 472 276 Z " />
<glyph glyph-name="braceleft" unicode="&#x7b;" horiz-adv-x="501" d="M17 326 L130 426 L130 799 L463 799 L463 666 L297 666 L297 386 L219 316 L219 280 L297 210 L297 -28 L463 -28 L463 -161 L130 -161 L130 160 L17 270 L17 326 Z " />
<glyph glyph-name="braceright" unicode="&#x7d;" horiz-adv-x="502" d="M485 270 L372 170 L372 -161 L39 -161 L39 -28 L205 -28 L205 230 L283 290 L283 306 L205 366 L205 666 L39 666 L39 799 L372 799 L372 416 L485 326 L485 270 Z " />
<glyph glyph-name="quotesingle" unicode="&#x27;" horiz-adv-x="306" d="M59 427 L39 667 L270 667 L243 427 L59 427 Z " />
<glyph glyph-name="quotedbl" unicode="&#x22;" horiz-adv-x="594" d="M62 427 L42 667 L273 667 L246 427 L62 427 Z M342 427 L322 667 L553 667 L526 427 L342 427 Z " />
<glyph glyph-name="notequal" unicode="&#x2260;" horiz-adv-x="484" d="M69 30 Q73 40 172 309 Q271 578 274 587 L435 587 Q432 580 332.5 309 Q233 38 230 30 L69 30 Z M455 332 L25 332 L25 488 L455 488 L455 332 Z M455 112 L25 112 L25 268 L455 268 L455 112 Z " />
<glyph glyph-name="bar" unicode="&#x7c;" horiz-adv-x="258" d="M85 765 L179 765 L179 -67 L85 -67 L85 765 Z " />
<glyph glyph-name="dollar" unicode="&#x24;" horiz-adv-x="598" d="M252 765 L346 765 L346 678 Q368 675 388 669 Q432 656 468.5 630.5 Q505 605 527 566.5 Q549 528 549 476 L378 463 Q378 478 371.5 489.5 Q365 501 354.5 508 Q344 515 331 518.5 Q318 522 305 522 Q279 522 259.5 507.5 Q240 493 240 468 Q240 448 264 436 Q288 424 324.5 412 Q361 400 403.5 386 Q446 372 482.5 347 Q519 322 543 284 Q567 246 567 187 Q566 95 494 38 Q436 -6 346 -16 L346 -93 L252 -93 L252 -15 Q161 -5 103 48 Q32 114 32 187 Q192 215 193 215 Q199 201 206.5 187.5 Q214 174 224.5 164 Q235 154 249 148 Q263 142 284 142 Q307 142 319.5 149 Q332 156 338 165 Q345 176 346 189 Q346 204 322.5 216 Q299 228 264.5 240.5 Q230 253 189 269 Q148 285 113.5 309.5 Q79 334 55.5 369.5 Q32 405 32 456 Q32 522 55.5 562.5 Q79 603 116.5 630 Q154 657 200 669 Q226 676 252 679 L252 765 Z " />
<glyph glyph-name="NULL" d="" />
</font>
</svg>
