<?xml version="1.0" encoding="utf-8"?>
<!-- Generator: Adobe Illustrator 18.0.0, SVG Export Plug-In . SVG Version: 6.00 Build 0)  -->
<!DOCTYPE svg PUBLIC "-//W3C//DTD SVG 1.1//EN" "http://www.w3.org/Graphics/SVG/1.1/DTD/svg11.dtd">
<svg version="1.1" id="Layer_1" xmlns="http://www.w3.org/2000/svg" xmlns:xlink="http://www.w3.org/1999/xlink" x="0px" y="0px"
	 viewBox="0 0 1477.9 800" enable-background="new 0 0 1477.9 800" xml:space="preserve">
<g>
	<g>
		<path d="M496,251.6h54.4v27.3H496v27.4h54.4v27.3H496v54.2h-27.4h-27.1v-27.1h27.1v-27.1h-27.1v-27.3h27.1v-54.7H496z"/>
		<path d="M644.6,360.7h27.3v27.1H563v-27.1h54.5v-54.4v27.6h-27.4v-27.3h27.4h27.1v-0.4V360.7z"/>
		<path d="M711.6,360.7H739v27.1h-27.4h-27.1V278.9v-27.3h27.1v27.3V360.7z M739,306.3h27.1v54.4H739V306.3z M766.1,251.6h27.1v27.3
			v27.4h-27.1v-27.4V251.6z"/>
		<path d="M833.1,251.6h81.6v27.3v27.4v27.3h-81.6v27.1h81.6v27.1h-81.6H806V251.6H833.1z M833.1,278.9v27.4h54.5v-27.4H833.1z"/>
		<path d="M468.6,412.2h81.6v27.3v54.7v27.1h-27.1H496h-27.4v27.1h-27.1V412.2H468.6z M468.6,439.5v54.7H496h27.1v-54.7H468.6z"/>
		<path d="M711.6,412.2v27.3h-27.1v-27.3H711.6z M684.5,494.1h27.1v27.1v27.1h-27.1V494.1z M739,466.9h27.1v27.3v27.1H739v-27.1
			h-27.4v-27.3v-27.4H739V466.9z M766.1,412.2h27.1v27.3v27.4h-27.1v-27.4V412.2z M766.1,548.4v-27.1h27.1v27.1H766.1z"/>
		<path d="M833.1,412.2h81.6v27.3v27.4v27.3h-81.6v27.1h81.6v27.1h-81.6H806V412.2H833.1z M833.1,439.5v27.4h54.5v-27.4H833.1z"/>
		<path d="M954.6,521.3h81.8v27.1h-81.8h-27.1V412.2h27.1V521.3z"/>
	</g>
	<rect x="617.1" y="251.6" width="27.3" height="27.3"/>
	<path d="M644.6,521.3h27.3v27.1H563v-27.1h54.5v-54.4v27.6h-27.4v-27.3h27.4h27.1v-0.4V521.3z"/>
	<rect x="617.1" y="412.2" width="27.3" height="27.3"/>
</g>
</svg>
