<?xml version="1.0" encoding="utf-8"?>
<!-- Generator: Adobe Illustrator 18.0.0, SVG Export Plug-In . SVG Version: 6.00 Build 0)  -->
<!DOCTYPE svg PUBLIC "-//W3C//DTD SVG 1.1//EN" "http://www.w3.org/Graphics/SVG/1.1/DTD/svg11.dtd">
<svg version="1.1" id="Layer_1" xmlns="http://www.w3.org/2000/svg" xmlns:xlink="http://www.w3.org/1999/xlink" x="0px" y="0px"
	 viewBox="0 0 1471.1 800" enable-background="new 0 0 1471.1 800" xml:space="preserve">
<g>
	<path d="M66.2,0h21.9v110.1H66.2V66.3H22.2v43.8H0.2V0h21.9H66.2z M66.2,22H22.2v22.2h44.1V22z"/>
	<path d="M175.8,22h66v22.2v65.9h-21.9h-44.1h-21.9V0h21.9V22z M175.8,44.2v44h44.1v-44H175.8z"/>
	<path d="M351.7,0h44v22h-44h-22.2v66.1h66.1v21.9h-66.1h-21.9V0h21.9H351.7z"/>
	<path d="M527.3,0h21.9v22v22.2v65.9h-21.9h-44.1h-21.9V22h21.9h44.1V0z M527.3,44.2h-44.1v44h44.1V44.2z"/>
	<path d="M636.9,0h66v22v22.2v22h-66v21.9h66v21.9h-66h-21.9V0H636.9z M636.9,22v22.2H681V22H636.9z"/>
	<path d="M812.7,0h44v22h-44v22.2h44v22h-44v43.8h-22.2h-21.9V88.2h21.9V66.3h-21.9v-22h21.9V0H812.7z"/>
	<path d="M966.4,44.2h43.8v22v21.9v21.9h-66h-21.9V0h21.9h44.1v22h-44.1v66.1h44.1V66.3h-21.9V44.2z"/>
	<path d="M1097.9,22h66v22.2v65.9H1142V44.2h-44.1v65.9H1076V0h21.9V22z"/>
	<path d="M1295.7,88.2h22v21.9h-88.1V88.2h44.1V66.3h-22.2v-22h22.2h21.9V88.2z M1295.7,22h-21.9V0h21.9V22z"/>
	<path d="M1449.3,0h21.9v110.1h-21.9h-66V88.2V66.3h21.9v21.9h44.1V0z"/>
	<path d="M66.2,216.7h21.9v65.9H66.2v-43.8H44.3H22.2v43.8H0.2V172.5h21.9v44.2h22.2v-44.2h21.9V216.7z"/>
	<path d="M175.8,260.7H242v21.9h-66.1h-21.9V172.5h21.9V260.7z"/>
	<path d="M329.5,282.6h-21.9V172.5h21.9h66v22v88.1h-21.9v-88.1h-11.2v44.2h-22.2v-44.2h-10.7V282.6z"/>
	<path d="M483.2,172.5h66v22v22.2v44v21.9h-21.9v-21.9v-44v-22.2h-44.1v88.1h-21.9V172.5H483.2z"/>
	<path d="M681,194.5h21.9v22.2v44v21.9H681h-44.1h-21.9v-88.1h21.9H681z M681,216.7h-44.1v44H681V216.7z"/>
	<path d="M790.5,172.5h66v22v44.2v21.9h-21.9h-21.9h-22.2v21.9h-21.9V172.5H790.5z M790.5,194.5v44.2h22.2h21.9v-44.2H790.5z"/>
	<path d="M922.3,172.5h87.9v22v44.2v21.9h-21.9v21.9h-21.9v-21.9h-22.2h-21.9v-66.1V172.5z M944.2,194.5v44.2h44.1v-44.2H944.2z"/>
	<path d="M1097.9,172.5h66v22v44.2H1142v43.8h-21.9v-43.8h-22.2v43.8H1076V172.5H1097.9z M1097.9,194.5v22.2h44.1v-22.2H1097.9z"/>
	<path d="M1229.7,172.5h88.1v22h-66.1v22.2h44.1v22v43.8h-21.9h-44.1v-21.9h44.1v-21.9h-22.2h-21.9v-44.2V172.5z"/>
	<path d="M1427.4,194.5h44v22.2h-44v65.9h-22.2h-21.9v-21.9h21.9v-44h-21.9v-22.2h21.9v-22h22.2V194.5z"/>
	<path d="M66.2,345h21.9v88.2V455H66.2H44.3H22.2H0.2V345h21.9v88.2h22.2h21.9V345z"/>
	<path d="M175.8,433.1H198V455h-22.2h-21.9V367v-22h21.9v22V433.1z M198,389.2h21.9v44H198V389.2z M219.9,345h21.9v22v22.2h-21.9
		V367V345z"/>
	<path d="M373.6,345h21.9V455h-22h-65.9v-21.9V345h21.9v88.2H341v-44h22.2v44h10.5V345z"/>
	<path d="M483.2,345v22h-21.9v-22H483.2z M461.3,411.2h21.9v21.9V455h-21.9V411.2z M505.4,389.2h21.9v22v21.9h-21.9v-21.9h-22.2v-22
		V367h22.2V389.2z M527.3,345h21.9v22v22.2h-21.9V367V345z M527.3,455v-21.9h21.9V455H527.3z"/>
	<path d="M681,345h21.9v22v22.2v22H681V455H659v-43.8h-22.2h-21.9V345h21.9v44.2H681V367V345z"/>
	<path d="M768.6,345h88.1v22h-22v22.2h-21.9V367h-44.1V345z M768.6,411.2h21.9v21.9h66.1V455h-88.1v-21.9V411.2z M790.5,389.2h22.2
		v22h-22.2V389.2z"/>
	<path d="M966.4,389.2h43.8v22V455h-21.9h-44.1h-21.9V345h21.9v88.2h44.1v-21.9h-21.9V389.2z M966.3,345h44v22h-44V345z"/>
	<path d="M1097.9,367H1076v-22h21.9V367z M1097.9,389.2h66v22V455H1142h-44.1H1076v-65.9H1097.9z M1097.9,411.2v21.9h44.1v-21.9
		H1097.9z M1142,345h21.9v22H1142V345z"/>
	<path d="M1251.6,367h-21.9v-22h21.9V367z M1295.7,389.2h21.9v44V455h-66h-21.9v-65.9h21.9v44h44.1V389.2z M1295.7,345h21.9v22
		h-21.9V345z"/>
	<path d="M1405.2,389.2v22h66.1v21.9h-44V455h-22.2v-21.9h-21.9v-21.9V367v-22h88.1v22h-66.1V389.2z"/>
	<path d="M66.2,605.6h22v21.9H0.2v-21.9h44.1v-21.9v-22H22.2v-22.2h22.2v-22h21.9v22v22.2v22V605.6z"/>
	<path d="M219.9,517.4v22h-66v-22H219.9z M153.9,583.7h21.9v21.9h66v21.9h-66h-21.9V583.7z M219.9,539.5h21.9v44.2h-21.9h-44.1v-22
		h44.1V539.5z"/>
	<path d="M307.6,517.4h87.9v22v22.2v22v21.9v21.9h-21.9h-66v-21.9h66v-21.9h-44.1v-22h44.1v-22.2h-66V517.4z"/>
	<path d="M527.3,583.7h22v21.9h-22v21.9h-21.9v-21.9h-22.2h-21.9v-88.2h21.9v66.3h22.2v-22h21.9V583.7z"/>
	<path d="M614.9,517.4h87.9v22h-66v22.2H681v22h-44.1h-21.9v-44.2V517.4z M681,605.6v-21.9h21.9v43.8H681h-66v-21.9H681z"/>
	<path d="M790.5,517.4h66v22h-66v22.2h66v22v21.9v21.9h-21.9h-44.1h-21.9v-21.9v-88.2H790.5z M790.5,583.7v21.9h44.1v-21.9H790.5z"
		/>
	<path d="M922.3,517.4h87.9v22v22.2h-21.9v-22.2h-66V517.4z M966.4,561.6h21.9v65.9h-21.9V561.6z"/>
	<path d="M1076,517.4h87.9v22v22.2v44v21.9h-66H1076v-88.1V517.4z M1097.9,539.5v22.2h44.1v-22.2H1097.9z M1142,605.6v-21.9h-44.1
		v21.9H1142z"/>
	<path d="M1229.7,517.4h87.9v22v66.1v21.9h-66v-21.9h44.1v-21.9h-66v-22v-22.2V517.4z M1251.6,539.5v22.2h44.1v-22.2H1251.6z"/>
	<path d="M1449.3,517.4h21.9v88.2v21.9h-66h-21.9V517.4h21.9H1449.3z M1449.3,605.6v-66.1h-44.1v66.1H1449.3z"/>
	<path d="M33.2,756.2h-22v-22h22v-22.2v-22h21.9h22v22h-22v66.1h22V800h-22H33.2v-21.9V756.2z"/>
	<path d="M198.1,711.9v66.1H220V800h-21.9H176v-21.9v-66.1v-22h22.2H220v22H198.1z"/>
	<path d="M329.6,711.9h22.2v66.1h-22.2V711.9z M351.8,689.9h21.9v22h-21.9V689.9z M351.8,800v-21.9h21.9V800H351.8z"/>
	<path d="M483.2,689.9v22h22.2v22.2h21.9v22h21.9V800h-21.9v-21.9h-21.9v-21.9h-22.2v-22h-21.9v-44.2H483.2z"/>
	<path d="M647.9,778.1h21.9V800h-21.9V778.1z"/>
	<path d="M812.8,800h-22.2v-21.9h22.2V800z M834.8,778.1h-21.9v-21.9h21.9V778.1z"/>
	<path d="M1010.2,689.9v44.2h-21.9v22h-21.9v21.9h-22.2V800h-21.9v-43.8h21.9v-22h22.2v-22.2h21.9v-22H1010.2z"/>
	<path d="M1120.2,689.9v22H1098v-22H1120.2z M1098,778.1h22.2V800H1098V778.1z M1120.2,711.9h21.9v66.1h-21.9V711.9z"/>
	<path d="M1273.9,778.1v-66.1h-22.2v-22h22.2h21.9v22v66.1V800h-21.9h-22.2v-21.9H1273.9z"/>
	<path d="M1438.3,734.1h22v22h-22v21.9V800h-21.9h-22v-21.9h22v-66.1h-22v-22h22h21.9v22V734.1z"/>
</g>
</svg>
