<?xml version="1.0" encoding="utf-8"?>
<!-- Generator: Adobe Illustrator 18.0.0, SVG Export Plug-In . SVG Version: 6.00 Build 0)  -->
<!DOCTYPE svg PUBLIC "-//W3C//DTD SVG 1.1//EN" "http://www.w3.org/Graphics/SVG/1.1/DTD/svg11.dtd">
<svg version="1.1" id="Layer_1" xmlns="http://www.w3.org/2000/svg" xmlns:xlink="http://www.w3.org/1999/xlink" x="0px" y="0px"
	 viewBox="0 0 1943.1 800" enable-background="new 0 0 1943.1 800" xml:space="preserve">
<g>
	<path d="M84.4,103.7h25.9v25.8H6.8v-25.8h51.8V52V25.9H32.6V0h26.1h25.8v52V103.7z"/>
	<path d="M325.1,52h25.8v77.5h-25.8V77.9h-25.8h-26.1v51.6h-25.8V0h25.8v52h26.1V0h25.8V52z"/>
	<path d="M401.8,0h77.6v25.9V52v51.7v25.8h-25.8v-25.8V52V25.9h-51.8v103.5H376V0H401.8z"/>
	<path d="M582.4,25.9h25.8V52v51.7v25.8h-25.8h-51.8h-25.8V25.9h25.8H582.4z M582.4,52h-51.8v51.7h51.8V52z"/>
	<path d="M711.1,0h25.8v129.5H711h-77.5v-25.8V0h25.8v103.7h13.5V52h26.1v51.7h12.3V0z"/>
	<path d="M951.8,103.7h25.9v25.8H874.2v-25.8h51.8V52V25.9H900V0h26.1h25.8v52V103.7z"/>
	<path d="M1033.8,25.9V52H1008V25.9V0h25.8V25.9z"/>
	<path d="M1103.3,103.7h26.1v25.8h-26.1h-25.8V25.9V0h25.8v25.9V103.7z M1129.3,52h25.8v51.7h-25.8V52z M1155.1,0h25.8v25.9V52
		h-25.8V25.9V0z"/>
	<path d="M1231.8,0h77.6v25.9V52v25.9h-77.6v25.8h77.6v25.8h-77.6H1206V0H1231.8z M1231.8,25.9V52h51.8V25.9H1231.8z"/>
	<path d="M1472.5,129.5h-25.8V0h25.7h77.7v25.9v103.5h-25.8V25.9h-13.2v52h-26.1v-52h-12.6V129.5z"/>
	<path d="M1653.1,0h25.8v129.5h-25.8V77.9h-51.8v51.6h-25.8V0h25.8H1653.1z M1653.1,25.9h-51.8V52h51.8V25.9z"/>
	<path d="M1781.6,0h25.8v25.9V52v77.5h-25.8h-51.8H1704V25.9h25.8h51.8V0z M1781.6,52h-51.8v51.7h51.8V52z"/>
	<path d="M1858.5,0h77.6v25.9V52v25.9h-77.6v25.8h77.6v25.8h-77.6h-25.8V0H1858.5z M1858.5,25.9V52h51.8V25.9H1858.5z"/>
	<path d="M62.7,237.1H82v19.2H4.9v-19.2h38.6v-38.5v-19.4H24.1v-19.3h19.4h19.2v38.7V237.1z"/>
	<path d="M247.8,198.6H267v57.7h-19.2v-38.4h-19.2h-19.4v38.4H190v-96.4h19.2v38.7h19.4v-38.7h19.2V198.6z"/>
	<path d="M305.4,159.9h57.8v19.3v19.4v38.5v19.2H344v-19.2v-38.5v-19.4h-38.6v77.1h-19.2v-96.4H305.4z"/>
	<path d="M440.3,179.2h19.2v19.4v38.5v19.2h-19.2h-38.6h-19.2v-77.1h19.2H440.3z M440.3,198.6h-38.6v38.5h38.6V198.6z"/>
	<path d="M536.6,159.9h19.2v96.4h-19.3h-57.7v-19.2v-77.2H498v77.2h10v-38.5h19.4v38.5h9.2V159.9z"/>
	<path d="M721.8,237.1h19.3v19.2H664v-19.2h38.6v-38.5v-19.4h-19.4v-19.3h19.4h19.2v38.7V237.1z"/>
	<path d="M783.8,179.2v19.4h-19.2v-19.4v-19.3h19.2V179.2z"/>
	<path d="M836.2,237.1h19.4v19.2h-19.4H817v-77.1v-19.3h19.2v19.3V237.1z M855.6,198.6h19.2v38.5h-19.2V198.6z M874.8,159.9H894
		v19.3v19.4h-19.2v-19.4V159.9z"/>
	<path d="M932.4,159.9h57.8v19.3v19.4v19.3h-57.8v19.2h57.8v19.2h-57.8h-19.2v-96.4H932.4z M932.4,179.2v19.4H971v-19.4H932.4z"/>
	<path d="M1117.5,256.3h-19.2v-96.4h19.2h57.8v19.3v77.1h-19.2v-77.1h-9.8v38.7h-19.4v-38.7h-9.4V256.3z"/>
	<path d="M1252.4,159.9h19.2v96.4h-19.2v-38.4h-38.6v38.4h-19.2v-96.4h19.2H1252.4z M1252.4,179.2h-38.6v19.4h38.6V179.2z"/>
	<path d="M1348.6,159.9h19.2v19.3v19.4v57.7h-19.2H1310h-19.2v-77.1h19.2h38.6V159.9z M1348.6,198.6H1310v38.5h38.6V198.6z"/>
	<path d="M1406.3,159.9h57.8v19.3v19.4v19.3h-57.8v19.2h57.8v19.2h-57.8h-19.2v-96.4H1406.3z M1406.3,179.2v19.4h38.6v-19.4H1406.3z
		"/>
	<path d="M1572.3,159.9h77.1v19.3h-57.9v19.4h38.6v19.3v38.4h-19.2h-38.6v-19.2h38.6v-19.2h-19.4h-19.2v-38.7V159.9z"/>
	<path d="M1726.3,179.2h19.2v19.4v38.5v19.2h-19.2h-38.6h-19.2v-77.1h19.2H1726.3z M1726.3,198.6h-38.6v38.5h38.6V198.6z"/>
	<path d="M1784,256.3h-19.2v-96.4h19.2h57.8v19.3v77.1h-19.2v-77.1h-9.8v38.7h-19.4v-38.7h-9.4V256.3z"/>
	<path d="M1880.3,159.9h57.8v19.3v19.4v19.3h-57.8v19.2h57.8v19.2h-57.8h-19.2v-96.4H1880.3z M1880.3,179.2v19.4h38.6v-19.4H1880.3z
		"/>
	<path d="M50,350.1h15.4v15.4H3.8v-15.4h30.9v-30.8v-15.5H19.1v-15.4h15.5H50v31V350.1z"/>
	<path d="M199.4,319.3h15.4v46.2h-15.4v-30.7H184h-15.5v30.7h-15.4v-77.1h15.4v31H184v-31h15.4V319.3z"/>
	<path d="M245.7,288.3h46.2v15.4v15.5v30.8v15.4h-15.4v-15.4v-30.8v-15.5h-30.9v61.7h-15.4v-77.1H245.7z"/>
	<path d="M353.8,303.8h15.4v15.5v30.8v15.4h-15.4h-30.9h-15.4v-61.7h15.4H353.8z M353.8,319.3h-30.9v30.8h30.9V319.3z"/>
	<path d="M431.1,288.3h15.4v77.1H431h-46.2v-15.4v-61.8h15.4v61.8h8v-30.8h15.5v30.8h7.3V288.3z"/>
	<path d="M580.5,350.1h15.4v15.4h-61.7v-15.4h30.9v-30.8v-15.5h-15.5v-15.4h15.5h15.4v31V350.1z"/>
	<path d="M630.5,303.8v15.5h-15.4v-15.5v-15.4h15.4V303.8z"/>
	<path d="M672.8,350.1h15.5v15.4h-15.5h-15.4v-61.7v-15.4h15.4v15.4V350.1z M688.3,319.3h15.4v30.8h-15.4V319.3z M703.7,288.3H719
		v15.4v15.5h-15.4v-15.5V288.3z"/>
	<path d="M749.9,288.3h46.2v15.4v15.5v15.4h-46.2v15.4h46.2v15.4h-46.2h-15.4v-77.1H749.9z M749.9,303.8v15.5h30.9v-15.5H749.9z"/>
	<path d="M899.3,365.5H884v-77.1h15.3h46.3v15.4v61.7h-15.4v-61.7h-7.9v31h-15.5v-31h-7.5V365.5z"/>
	<path d="M1007.5,288.3h15.4v77.1h-15.4v-30.7h-30.9v30.7h-15.4v-77.1h15.4H1007.5z M1007.5,303.8h-30.9v15.5h30.9V303.8z"/>
	<path d="M1084.6,288.3h15.4v15.4v15.5v46.2h-15.4h-30.9h-15.4v-61.7h15.4h30.9V288.3z M1084.6,319.3h-30.9v30.8h30.9V319.3z"/>
	<path d="M1131,288.3h46.2v15.4v15.5v15.4H1131v15.4h46.2v15.4H1131h-15.4v-77.1H1131z M1131,303.8v15.5h30.9v-15.5H1131z"/>
	<path d="M1265,288.3h61.7v15.4h-46.3v15.5h30.9v15.4v30.7h-15.4H1265v-15.4h30.9v-15.4h-15.5H1265v-31V288.3z"/>
	<path d="M1388.5,303.8h15.4v15.5v30.8v15.4h-15.4h-30.9h-15.4v-61.7h15.4H1388.5z M1388.5,319.3h-30.9v30.8h30.9V319.3z"/>
	<path d="M1434.9,365.5h-15.4v-77.1h15.3h46.3v15.4v61.7h-15.4v-61.7h-7.9v31h-15.5v-31h-7.5V365.5z"/>
	<path d="M1512.1,288.3h46.2v15.4v15.5v15.4h-46.2v15.4h46.2v15.4h-46.2h-15.4v-77.1H1512.1z M1512.1,303.8v15.5h30.9v-15.5H1512.1z
		"/>
	<path d="M1661.5,350.1h15.5v15.4h-15.5h-15.4v-61.7v-15.4h15.4v15.4V350.1z M1677,319.3h15.4v30.8H1677V319.3z M1692.4,288.3h15.4
		v15.4v15.5h-15.4v-15.5V288.3z"/>
	<path d="M1738.7,288.3h46.2v15.4v15.5v15.4h-46.2v15.4h46.2v15.4h-46.2h-15.4v-77.1H1738.7z M1738.7,303.8v15.5h30.9v-15.5H1738.7z
		"/>
	<path d="M1815.8,288.3h46.3v15.4v31h-15.4v30.7h-15.4v-30.7h-15.5v30.7h-15.4v-77.1H1815.8z M1815.8,303.8v15.5h30.9v-15.5H1815.8z
		"/>
	<path d="M1923.9,288.3h15.4v15.4v15.5v15.4h-15.4v30.7h-15.4v-30.7H1893h-15.4v-46.4h15.4v31h30.9v-15.5V288.3z"/>
	<path d="M41,448.4h12.7V461H3v-12.6h25.4v-25.3v-12.8H15.6v-12.7h12.8H41v25.4V448.4z"/>
	<path d="M169,423.1h12.6V461H169v-25.2h-12.6h-12.8V461H131v-63.4h12.6v25.4h12.8v-25.4H169V423.1z"/>
	<path d="M207.1,397.6h38v12.7v12.8v25.3V461h-12.6v-12.6v-25.3v-12.8h-25.4V461h-12.6v-63.4H207.1z"/>
	<path d="M296.1,410.3h12.6v12.8v25.3V461h-12.6h-25.4h-12.6v-50.7h12.6H296.1z M296.1,423.1h-25.4v25.3h25.4V423.1z"/>
	<path d="M359.7,397.6h12.6V461h-12.7h-37.9v-12.6v-50.7h12.6v50.7h6.6v-25.3h12.8v25.3h6V397.6z"/>
	<path d="M487.7,448.4h12.7V461h-50.7v-12.6H475v-25.3v-12.8h-12.8v-12.7H475h12.6v25.4V448.4z"/>
	<path d="M529,410.3v12.8h-12.6v-12.8v-12.7H529V410.3z"/>
	<path d="M563.9,448.4h12.8V461h-12.8h-12.6v-50.7v-12.7h12.6v12.7V448.4z M576.7,423.1h12.6v25.3h-12.6V423.1z M589.3,397.6h12.6
		v12.7v12.8h-12.6v-12.8V397.6z"/>
	<path d="M627.4,397.6h38v12.7v12.8v12.7h-38v12.6h38V461h-38h-12.6v-63.4H627.4z M627.4,410.3v12.8h25.4v-12.8H627.4z"/>
	<path d="M755.4,461h-12.6v-63.4h12.6h38v12.7V461h-12.6v-50.7h-6.5v25.4h-12.8v-25.4h-6.2V461z"/>
	<path d="M844.4,397.6H857V461h-12.6v-25.2H819V461h-12.6v-63.4H819H844.4z M844.4,410.3H819v12.8h25.4V410.3z"/>
	<path d="M907.9,397.6h12.6v12.7v12.8V461h-12.6h-25.4h-12.6v-50.7h12.6h25.4V397.6z M907.9,423.1h-25.4v25.3h25.4V423.1z"/>
	<path d="M946.1,397.6h38v12.7v12.8v12.7h-38v12.6h38V461h-38h-12.6v-63.4H946.1z M946.1,410.3v12.8h25.4v-12.8H946.1z"/>
	<path d="M1061.5,397.6h50.7v12.7h-38.1v12.8h25.4v12.7V461h-12.6h-25.4v-12.6h25.4v-12.6h-12.8h-12.6v-25.4V397.6z"/>
	<path d="M1163,410.3h12.6v12.8v25.3V461H1163h-25.4h-12.6v-50.7h12.6H1163z M1163,423.1h-25.4v25.3h25.4V423.1z"/>
	<path d="M1201.3,461h-12.6v-63.4h12.6h38v12.7V461h-12.6v-50.7h-6.5v25.4h-12.8v-25.4h-6.2V461z"/>
	<path d="M1264.8,397.6h38v12.7v12.8v12.7h-38v12.6h38V461h-38h-12.6v-63.4H1264.8z M1264.8,410.3v12.8h25.4v-12.8H1264.8z"/>
	<path d="M1392.8,448.4h12.8V461h-12.8h-12.6v-50.7v-12.7h12.6v12.7V448.4z M1405.6,423.1h12.6v25.3h-12.6V423.1z M1418.2,397.6
		h12.6v12.7v12.8h-12.6v-12.8V397.6z"/>
	<path d="M1456.3,397.6h38v12.7v12.8v12.7h-38v12.6h38V461h-38h-12.6v-63.4H1456.3z M1456.3,410.3v12.8h25.4v-12.8H1456.3z"/>
	<path d="M1519.8,397.6h38v12.7v25.4h-12.6V461h-12.6v-25.2h-12.8V461h-12.6v-63.4H1519.8z M1519.8,410.3v12.8h25.4v-12.8H1519.8z"
		/>
	<path d="M1608.7,397.6h12.6v12.7v12.8v12.7h-12.6V461h-12.6v-25.2h-12.8h-12.6v-38.1h12.6v25.4h25.4v-12.8V397.6z"/>
	<path d="M1711.3,397.6h38v12.7v25.4v12.6h-12.6h-12.6h-12.8V461h-12.6v-63.4H1711.3z M1711.3,410.3v25.4h12.8h12.6v-25.4H1711.3z"
		/>
	<path d="M1800.3,410.3h12.6v12.8v25.3V461h-12.6h-25.4h-12.6v-50.7h12.6H1800.3z M1800.3,423.1h-25.4v25.3h25.4V423.1z"/>
	<path d="M1863.9,410.3h12.6v12.8v25.3V461h-12.6h-25.4h-12.6v-50.7h12.6H1863.9z M1863.9,423.1h-25.4v25.3h25.4V423.1z"/>
	<path d="M1902.1,397.6h38v12.7v25.4h-12.6V461h-12.6v-25.2h-12.8V461h-12.6v-63.4H1902.1z M1902.1,410.3v12.8h25.4v-12.8H1902.1z"
		/>
	<path d="M24.7,522.8h7.7v7.7H1.6v-7.7H17v-15.4v-7.8H9.3v-7.7H17h7.7v15.5V522.8z"/>
	<path d="M102.3,507.4h7.7v23.1h-7.7v-15.4h-7.7h-7.8v15.4h-7.7v-38.6h7.7v15.5h7.8v-15.5h7.7V507.4z"/>
	<path d="M125.6,491.9h23.1v7.7v7.8v15.4v7.7h-7.7v-7.7v-15.4v-7.8h-15.4v30.8h-7.7v-38.6H125.6z"/>
	<path d="M179.9,499.6h7.7v7.8v15.4v7.7h-7.7h-15.4h-7.7v-30.8h7.7H179.9z M179.9,507.4h-15.4v15.4h15.4V507.4z"/>
	<path d="M218.7,491.9h7.7v38.6h-7.7h-23.1v-7.7v-30.9h7.7v30.9h4v-15.4h7.8v15.4h3.7V491.9z"/>
	<path d="M296.3,522.8h7.7v7.7h-30.8v-7.7h15.4v-15.4v-7.8h-7.8v-7.7h7.8h7.7v15.5V522.8z"/>
	<path d="M321.8,499.6v7.8h-7.7v-7.8v-7.7h7.7V499.6z"/>
	<path d="M343.3,522.8h7.8v7.7h-7.8h-7.7v-30.8v-7.7h7.7v7.7V522.8z M351,507.4h7.7v15.4H351V507.4z M358.7,491.9h7.7v7.7v7.8h-7.7
		v-7.8V491.9z"/>
	<path d="M382,491.9h23.1v7.7v7.8v7.7H382v7.7h23.1v7.7H382h-7.7v-38.6H382z M382,499.6v7.8h15.4v-7.8H382z"/>
	<path d="M459.6,530.4h-7.7v-38.6h7.7h23.1v7.7v30.8h-7.7v-30.8h-3.9v15.5h-7.8v-15.5h-3.8V530.4z"/>
	<path d="M513.9,491.9h7.7v38.6h-7.7v-15.4h-15.4v15.4h-7.7v-38.6h7.7H513.9z M513.9,499.6h-15.4v7.8h15.4V499.6z"/>
	<path d="M552.7,491.9h7.7v7.7v7.8v23.1h-7.7h-15.4h-7.7v-30.8h7.7h15.4V491.9z M552.7,507.4h-15.4v15.4h15.4V507.4z"/>
	<path d="M576.1,491.9h23.1v7.7v7.8v7.7h-23.1v7.7h23.1v7.7h-23.1h-7.7v-38.6H576.1z M576.1,499.6v7.8h15.4v-7.8H576.1z"/>
	<path d="M646,491.9h30.8v7.7h-23.2v7.8h15.4v7.7v15.4h-7.7H646v-7.7h15.4v-7.7h-7.8H646v-15.5V491.9z"/>
	<path d="M707.9,499.6h7.7v7.8v15.4v7.7h-7.7h-15.4h-7.7v-30.8h7.7H707.9z M707.9,507.4h-15.4v15.4h15.4V507.4z"/>
	<path d="M731.3,530.4h-7.7v-38.6h7.7h23.1v7.7v30.8h-7.7v-30.8h-3.9v15.5h-7.8v-15.5h-3.8V530.4z"/>
	<path d="M770.2,491.9h23.1v7.7v7.8v7.7h-23.1v7.7h23.1v7.7h-23.1h-7.7v-38.6H770.2z M770.2,499.6v7.8h15.4v-7.8H770.2z"/>
	<path d="M847.7,522.8h7.8v7.7h-7.8h-7.7v-30.8v-7.7h7.7v7.7V522.8z M855.5,507.4h7.7v15.4h-7.7V507.4z M863.2,491.9h7.7v7.7v7.8
		h-7.7v-7.8V491.9z"/>
	<path d="M886.5,491.9h23.1v7.7v7.8v7.7h-23.1v7.7h23.1v7.7h-23.1h-7.7v-38.6H886.5z M886.5,499.6v7.8H902v-7.8H886.5z"/>
	<path d="M925.3,491.9h23.1v7.7v15.5h-7.7v15.4h-7.7v-15.4h-7.8v15.4h-7.7v-38.6H925.3z M925.3,499.6v7.8h15.4v-7.8H925.3z"/>
	<path d="M979.5,491.9h7.7v7.7v7.8v7.7h-7.7v15.4h-7.7v-15.4h-7.8h-7.7v-23.2h7.7v15.5h15.4v-7.8V491.9z"/>
	<path d="M1041.7,491.9h23.1v7.7v15.5v7.7h-7.7h-7.7h-7.8v7.7h-7.7v-38.6H1041.7z M1041.7,499.6v15.5h7.8h7.7v-15.5H1041.7z"/>
	<path d="M1096,499.6h7.7v7.8v15.4v7.7h-7.7h-15.4h-7.7v-30.8h7.7H1096z M1096,507.4h-15.4v15.4h15.4V507.4z"/>
	<path d="M1134.8,499.6h7.7v7.8v15.4v7.7h-7.7h-15.4h-7.7v-30.8h7.7H1134.8z M1134.8,507.4h-15.4v15.4h15.4V507.4z"/>
	<path d="M1158.2,491.9h23.1v7.7v15.5h-7.7v15.4h-7.7v-15.4h-7.8v15.4h-7.7v-38.6H1158.2z M1158.2,499.6v7.8h15.4v-7.8H1158.2z"/>
	<path d="M1251.2,491.9h7.7v7.7v7.8v23.1h-7.7h-15.4h-7.7v-30.8h7.7h15.4V491.9z M1251.2,507.4h-15.4v15.4h15.4V507.4z"/>
	<path d="M1274.6,491.9h23.1v7.7v7.8v7.7h-23.1v7.7h23.1v7.7h-23.1h-7.7v-38.6H1274.6z M1274.6,499.6v7.8h15.4v-7.8H1274.6z"/>
	<path d="M1321.2,491.9h15.4v7.7h-15.4h-7.8v23.2h23.2v7.7h-23.2h-7.7v-38.6h7.7H1321.2z"/>
	<path d="M1367.7,522.8h7.7v7.7h-30.8v-7.7h15.4v-7.7h-7.8v-7.7h7.8h7.7V522.8z M1367.7,499.6h-7.7v-7.7h7.7V499.6z"/>
	<path d="M1383.4,491.9h30.8v7.7h-23.2v7.8h15.4v7.7v15.4h-7.7h-15.4v-7.7h15.4v-7.7h-7.8h-7.7v-15.5V491.9z"/>
	<path d="M1441.4,522.8h7.7v7.7h-30.8v-7.7h15.4v-7.7h-7.8v-7.7h7.8h7.7V522.8z M1441.4,499.6h-7.7v-7.7h7.7V499.6z"/>
	<path d="M1480.3,499.6h7.7v7.8v15.4v7.7h-7.7h-15.4h-7.7v-30.8h7.7H1480.3z M1480.3,507.4h-15.4v15.4h15.4V507.4z"/>
	<path d="M1503.7,491.9h23.1v7.7v7.8v15.4v7.7h-7.7v-7.7v-15.4v-7.8h-15.4v30.8h-7.7v-38.6H1503.7z"/>
	<path d="M1534.8,491.9h30.8v7.7h-23.2v7.8h15.4v7.7v15.4h-7.7h-15.4v-7.7h15.4v-7.7h-7.8h-7.7v-15.5V491.9z"/>
	<path d="M1620,491.9h23.1v7.7v15.5h-7.7v15.4h-7.7v-15.4h-7.8v15.4h-7.7v-38.6H1620z M1620,499.6v7.8h15.4v-7.8H1620z"/>
	<path d="M1658.8,491.9h23.1v7.7v7.8v7.7h-23.1v7.7h23.1v7.7h-23.1h-7.7v-38.6H1658.8z M1658.8,499.6v7.8h15.4v-7.8H1658.8z"/>
	<path d="M1705.4,491.9h15.4v7.7h-15.4h-7.8v23.2h23.2v7.7h-23.2h-7.7v-38.6h7.7H1705.4z"/>
	<path d="M1736.4,491.9h23.1v7.7v7.8v7.7h-23.1v7.7h23.1v7.7h-23.1h-7.7v-38.6H1736.4z M1736.4,499.6v7.8h15.4v-7.8H1736.4z"/>
	<path d="M1775.2,491.9h23.1v7.7v7.8v15.4v7.7h-7.7v-7.7v-15.4v-7.8h-15.4v30.8h-7.7v-38.6H1775.2z"/>
	<path d="M1821.8,499.6h15.4v7.8h-15.4v23.1h-7.8h-7.7v-7.7h7.7v-15.4h-7.7v-7.8h7.7v-7.7h7.8V499.6z"/>
	<path d="M1852.8,522.8h23.2v7.7h-23.2h-7.7v-38.6h7.7V522.8z"/>
	<path d="M1903.7,491.9h7.7v7.7v7.8v7.7h-7.7v15.4h-7.7v-15.4h-7.8h-7.7v-23.2h7.7v15.5h15.4v-7.8V491.9z"/>
	<path d="M1927.6,530.4h-7.8v-7.7h7.8V530.4z M1935.3,522.8h-7.7v-7.7h7.7V522.8z"/>
	<path d="M19.3,580.3h6.1v6H1.1v-6h12.1v-12.1v-6.1H7.1V556h6.1h6v12.2V580.3z"/>
	<path d="M76.1,568.2h6v18.1h-6v-12.1h-6h-6.1v12.1h-6V556h6v12.2H70V556h6V568.2z"/>
	<path d="M94.6,556h18.2v6.1v6.1v12.1v6h-6v-6v-12.1v-6.1H94.6v24.2h-6V556H94.6z"/>
	<path d="M137.4,562.1h6v6.1v12.1v6h-6h-12.1h-6v-24.2h6H137.4z M137.4,568.2h-12.1v12.1h12.1V568.2z"/>
	<path d="M168.2,556h6v30.3h-6.1H150v-6V556h6v24.3h3.2v-12.1h6.1v12.1h2.9V556z"/>
	<path d="M224.9,580.3h6.1v6h-24.2v-6h12.1v-12.1v-6.1h-6.1V556h6.1h6v12.2V580.3z"/>
	<path d="M245.3,562.1v6.1h-6v-6.1V556h6V562.1z"/>
	<path d="M262.4,580.3h6.1v6h-6.1h-6v-24.2V556h6v6.1V580.3z M268.5,568.2h6v12.1h-6V568.2z M274.6,556h6v6.1v6.1h-6v-6.1V556z"/>
	<path d="M293.1,556h18.2v6.1v6.1v6.1h-18.2v6h18.2v6h-18.2h-6V556H293.1z M293.1,562.1v6.1h12.1v-6.1H293.1z"/>
	<path d="M349.9,586.3h-6V556h6h18.2v6.1v24.2h-6v-24.2H359v12.2h-6.1v-12.2h-2.9V586.3z"/>
	<path d="M392.8,556h6v30.3h-6v-12.1h-12.1v12.1h-6V556h6H392.8z M392.8,562.1h-12.1v6.1h12.1V562.1z"/>
	<path d="M423.4,556h6v6.1v6.1v18.1h-6h-12.1h-6v-24.2h6h12.1V556z M423.4,568.2h-12.1v12.1h12.1V568.2z"/>
	<path d="M442,556h18.2v6.1v6.1v6.1H442v6h18.2v6H442h-6V556H442z M442,562.1v6.1h12.1v-6.1H442z"/>
	<path d="M492.8,556H517v6.1h-18.2v6.1h12.1v6.1v12.1h-6h-12.1v-6h12.1v-6h-6.1h-6v-12.2V556z"/>
	<path d="M541.6,562.1h6v6.1v12.1v6h-6h-12.1h-6v-24.2h6H541.6z M541.6,568.2h-12.1v12.1h12.1V568.2z"/>
	<path d="M560.2,586.3h-6V556h6h18.2v6.1v24.2h-6v-24.2h-3.1v12.2h-6.1v-12.2h-2.9V586.3z"/>
	<path d="M590.9,556h18.2v6.1v6.1v6.1h-18.2v6h18.2v6h-18.2h-6V556H590.9z M590.9,562.1v6.1H603v-6.1H590.9z"/>
	<path d="M647.7,580.3h6.1v6h-6.1h-6v-24.2V556h6v6.1V580.3z M653.8,568.2h6v12.1h-6V568.2z M659.8,556h6v6.1v6.1h-6v-6.1V556z"/>
	<path d="M678.4,556h18.2v6.1v6.1v6.1h-18.2v6h18.2v6h-18.2h-6V556H678.4z M678.4,562.1v6.1h12.1v-6.1H678.4z"/>
	<path d="M709,556h18.2v6.1v12.2h-6v12.1h-6v-12.1H709v12.1h-6V556H709z M709,562.1v6.1h12.1v-6.1H709z"/>
	<path d="M751.8,556h6v6.1v6.1v6.1h-6v12.1h-6v-12.1h-6.1h-6V556h6v12.2h12.1v-6.1V556z"/>
	<path d="M796.5,556h18.2v6.1v12.2v6h-6h-6h-6.1v6h-6V556H796.5z M796.5,562.1v12.2h6.1h6v-12.2H796.5z"/>
	<path d="M839.3,562.1h6v6.1v12.1v6h-6h-12.1h-6v-24.2h6H839.3z M839.3,568.2h-12.1v12.1h12.1V568.2z"/>
	<path d="M870,562.1h6v6.1v12.1v6h-6h-12.1h-6v-24.2h6H870z M870,568.2h-12.1v12.1H870V568.2z"/>
	<path d="M888.6,556h18.2v6.1v12.2h-6v12.1h-6v-12.1h-6.1v12.1h-6V556H888.6z M888.6,562.1v6.1h12.1v-6.1H888.6z"/>
	<path d="M957.6,556h6v6.1v6.1v18.1h-6h-12.1h-6v-24.2h6h12.1V556z M957.6,568.2h-12.1v12.1h12.1V568.2z"/>
	<path d="M976.1,556h18.2v6.1v6.1v6.1h-18.2v6h18.2v6h-18.2h-6V556H976.1z M976.1,562.1v6.1h12.1v-6.1H976.1z"/>
	<path d="M1012.9,556h12.1v6.1h-12.1h-6.1v18.2h18.2v6h-18.2h-6V556h6H1012.9z"/>
	<path d="M1049.6,580.3h6.1v6h-24.2v-6h12.1v-6h-6.1v-6.1h6.1h6V580.3z M1049.6,562.1h-6V556h6V562.1z"/>
	<path d="M1062.1,556h24.2v6.1h-18.2v6.1h12.1v6.1v12.1h-6h-12.1v-6h12.1v-6h-6.1h-6v-12.2V556z"/>
	<path d="M1108,580.3h6.1v6h-24.2v-6h12.1v-6h-6.1v-6.1h6.1h6V580.3z M1108,562.1h-6V556h6V562.1z"/>
	<path d="M1138.7,562.1h6v6.1v12.1v6h-6h-12.1h-6v-24.2h6H1138.7z M1138.7,568.2h-12.1v12.1h12.1V568.2z"/>
	<path d="M1157.3,556h18.2v6.1v6.1v12.1v6h-6v-6v-12.1v-6.1h-12.1v24.2h-6V556H1157.3z"/>
	<path d="M1181.9,556h24.2v6.1h-18.2v6.1h12.1v6.1v12.1h-6h-12.1v-6h12.1v-6h-6.1h-6v-12.2V556z"/>
	<path d="M1244.7,556h18.2v6.1v12.2h-6v12.1h-6v-12.1h-6.1v12.1h-6V556H1244.7z M1244.7,562.1v6.1h12.1v-6.1H1244.7z"/>
	<path d="M1275.4,556h18.2v6.1v6.1v6.1h-18.2v6h18.2v6h-18.2h-6V556H1275.4z M1275.4,562.1v6.1h12.1v-6.1H1275.4z"/>
	<path d="M1312.2,556h12.1v6.1h-12.1h-6.1v18.2h18.2v6h-18.2h-6V556h6H1312.2z"/>
	<path d="M1336.8,556h18.2v6.1v6.1v6.1h-18.2v6h18.2v6h-18.2h-6V556H1336.8z M1336.8,562.1v6.1h12.1v-6.1H1336.8z"/>
	<path d="M1367.4,556h18.2v6.1v6.1v12.1v6h-6v-6v-12.1v-6.1h-12.1v24.2h-6V556H1367.4z"/>
	<path d="M1404.2,562.1h12.1v6.1h-12.1v18.1h-6.1h-6v-6h6v-12.1h-6v-6.1h6V556h6.1V562.1z"/>
	<path d="M1428.8,580.3h18.2v6h-18.2h-6V556h6V580.3z"/>
	<path d="M1469,556h6v6.1v6.1v6.1h-6v12.1h-6v-12.1h-6.1h-6V556h6v12.2h12.1v-6.1V556z"/>
	<path d="M1488.1,586.3h-6.1v-6h6.1V586.3z M1494.1,580.3h-6v-6h6V580.3z"/>
	<path d="M1538.7,562.1h18.2v6.1v18.1h-6h-12.1h-6V556h6V562.1z M1538.7,568.2v12.1h12.1v-12.1H1538.7z"/>
	<path d="M1581.5,556h6v24.3v6h-6h-6h-6.1h-6V556h6v24.3h6.1h6V556z"/>
	<path d="M1606.2,562.1h12.1v6.1h-12.1v18.1h-6.1h-6v-6h6v-12.1h-6v-6.1h6V556h6.1V562.1z"/>
	<path d="M1669,580.3h6.1v6h-24.2v-6h12.1v-12.1v-6.1h-6.1V556h6.1h6v12.2V580.3z"/>
	<path d="M1719.8,556h12.1v6.1h-12.1h-6.1v18.2h18.2v6h-18.2h-6V556h6H1719.8z"/>
	<path d="M1756.5,556h6v30.3h-6v-12.1h-12.1v12.1h-6V556h6H1756.5z M1756.5,562.1h-12.1v6.1h12.1V562.1z"/>
	<path d="M1775.1,556h18.2v6.1v6.1v12.1v6h-6v-6v-12.1v-6.1h-12.1v24.2h-6V556H1775.1z"/>
	<path d="M1838,568.2h12.1v6.1v6v6h-18.2h-6V556h6h12.1v6.1h-12.1v18.2h12.1v-6h-6V568.2z"/>
	<path d="M1874.7,580.3h6.1v6h-24.2v-6h12.1v-6h-6.1v-6.1h6.1h6V580.3z M1874.7,562.1h-6V556h6V562.1z"/>
	<path d="M1893.2,580.3h6.1v6h-6.1h-6v-24.2V556h6v6.1V580.3z M1899.3,568.2h6v12.1h-6V568.2z M1905.3,556h6v6.1v6.1h-6v-6.1V556z"
		/>
	<path d="M1923.9,556h18.2v6.1v6.1v6.1h-18.2v6h18.2v6h-18.2h-6V556H1923.9z M1923.9,562.1v6.1h12.1v-6.1H1923.9z"/>
	<path d="M13.8,630.8h4.4v4.4H0.6v-4.4h8.8V622v-4.4H5v-4.4h4.4h4.4v8.9V630.8z"/>
	<path d="M66.1,622h4.4v13.2h-4.4v-8.8h-4.4h-4.4v8.8h-4.4v-22h4.4v8.9h4.4v-8.9h4.4V622z"/>
	<path d="M79.9,613.2h13.2v4.4v4.4v8.8v4.4h-4.4v-4.4V622v-4.4h-8.8v17.6h-4.4v-22H79.9z"/>
	<path d="M111.4,617.6h4.4v4.4v8.8v4.4h-4.4h-8.8h-4.4v-17.6h4.4H111.4z M111.4,622h-8.8v8.8h8.8V622z"/>
	<path d="M134.1,613.2h4.4v22h-4.4h-13.2v-4.4v-17.7h4.4v17.7h2.3V622h4.4v8.8h2.1V613.2z"/>
	<path d="M186.4,630.8h4.4v4.4h-17.6v-4.4h8.8V622v-4.4h-4.4v-4.4h4.4h4.4v8.9V630.8z"/>
	<path d="M201.8,617.6v4.4h-4.4v-4.4v-4.4h4.4V617.6z"/>
	<path d="M214.8,630.8h4.4v4.4h-4.4h-4.4v-17.6v-4.4h4.4v4.4V630.8z M219.3,622h4.4v8.8h-4.4V622z M223.6,613.2h4.4v4.4v4.4h-4.4
		v-4.4V613.2z"/>
	<path d="M237.5,613.2h13.2v4.4v4.4v4.4h-13.2v4.4h13.2v4.4h-13.2h-4.4v-22H237.5z M237.5,617.6v4.4h8.8v-4.4H237.5z"/>
	<path d="M289.7,635.2h-4.4v-22h4.4h13.2v4.4v17.6h-4.4v-17.6h-2.2v8.9h-4.4v-8.9h-2.1V635.2z"/>
	<path d="M321.2,613.2h4.4v22h-4.4v-8.8h-8.8v8.8H308v-22h4.4H321.2z M321.2,617.6h-8.8v4.4h8.8V617.6z"/>
	<path d="M343.9,613.2h4.4v4.4v4.4v13.2h-4.4h-8.8h-4.4v-17.6h4.4h8.8V613.2z M343.9,622h-8.8v8.8h8.8V622z"/>
	<path d="M357.8,613.2H371v4.4v4.4v4.4h-13.2v4.4H371v4.4h-13.2h-4.4v-22H357.8z M357.8,617.6v4.4h8.8v-4.4H357.8z"/>
	<path d="M405.6,613.2h17.6v4.4H410v4.4h8.8v4.4v8.8h-4.4h-8.8v-4.4h8.8v-4.4H410h-4.4v-8.9V613.2z"/>
	<path d="M441.5,617.6h4.4v4.4v8.8v4.4h-4.4h-8.8h-4.4v-17.6h4.4H441.5z M441.5,622h-8.8v8.8h8.8V622z"/>
	<path d="M455.4,635.2H451v-22h4.4h13.2v4.4v17.6h-4.4v-17.6H462v8.9h-4.4v-8.9h-2.1V635.2z"/>
	<path d="M478.1,613.2h13.2v4.4v4.4v4.4h-13.2v4.4h13.2v4.4h-13.2h-4.4v-22H478.1z M478.1,617.6v4.4h8.8v-4.4H478.1z"/>
	<path d="M530.3,630.8h4.4v4.4h-4.4h-4.4v-17.6v-4.4h4.4v4.4V630.8z M534.8,622h4.4v8.8h-4.4V622z M539.2,613.2h4.4v4.4v4.4h-4.4
		v-4.4V613.2z"/>
	<path d="M553,613.2h13.2v4.4v4.4v4.4H553v4.4h13.2v4.4H553h-4.4v-22H553z M553,617.6v4.4h8.8v-4.4H553z"/>
	<path d="M575.6,613.2h13.2v4.4v8.9h-4.4v8.8h-4.4v-8.8h-4.4v8.8h-4.4v-22H575.6z M575.7,617.6v4.4h8.8v-4.4H575.7z"/>
	<path d="M607.1,613.2h4.4v4.4v4.4v4.4h-4.4v8.8h-4.4v-8.8h-4.4h-4.4v-13.3h4.4v8.9h8.8v-4.4V613.2z"/>
	<path d="M650.6,613.2h13.2v4.4v8.9v4.4h-4.4H655h-4.4v4.4h-4.4v-22H650.6z M650.6,617.6v8.9h4.4h4.4v-8.9H650.6z"/>
	<path d="M682.1,617.6h4.4v4.4v8.8v4.4h-4.4h-8.8h-4.4v-17.6h4.4H682.1z M682.1,622h-8.8v8.8h8.8V622z"/>
	<path d="M704.8,617.6h4.4v4.4v8.8v4.4h-4.4h-8.8h-4.4v-17.6h4.4H704.8z M704.8,622h-8.8v8.8h8.8V622z"/>
	<path d="M718.6,613.2h13.2v4.4v8.9h-4.4v8.8h-4.4v-8.8h-4.4v8.8h-4.4v-22H718.6z M718.6,617.6v4.4h8.8v-4.4H718.6z"/>
	<path d="M779.7,613.2h4.4v4.4v4.4v13.2h-4.4h-8.8h-4.4v-17.6h4.4h8.8V613.2z M779.7,622h-8.8v8.8h8.8V622z"/>
	<path d="M793.6,613.2h13.2v4.4v4.4v4.4h-13.2v4.4h13.2v4.4h-13.2h-4.4v-22H793.6z M793.6,617.6v4.4h8.8v-4.4H793.6z"/>
	<path d="M820.7,613.2h8.8v4.4h-8.8h-4.4v13.2h13.2v4.4h-13.2h-4.4v-22h4.4H820.7z"/>
	<path d="M847.7,630.8h4.4v4.4h-17.6v-4.4h8.8v-4.4h-4.4V622h4.4h4.4V630.8z M847.7,617.6h-4.4v-4.4h4.4V617.6z"/>
	<path d="M857.2,613.2h17.6v4.4h-13.2v4.4h8.8v4.4v8.8H866h-8.8v-4.4h8.8v-4.4h-4.4h-4.4v-8.9V613.2z"/>
	<path d="M891,630.8h4.4v4.4h-17.6v-4.4h8.8v-4.4h-4.4V622h4.4h4.4V630.8z M891,617.6h-4.4v-4.4h4.4V617.6z"/>
	<path d="M913.7,617.6h4.4v4.4v8.8v4.4h-4.4h-8.8h-4.4v-17.6h4.4H913.7z M913.7,622h-8.8v8.8h8.8V622z"/>
	<path d="M927.5,613.2h13.2v4.4v4.4v8.8v4.4h-4.4v-4.4V622v-4.4h-8.8v17.6h-4.4v-22H927.5z"/>
	<path d="M945.8,613.2h17.6v4.4h-13.2v4.4h8.8v4.4v8.8h-4.4h-8.8v-4.4h8.8v-4.4h-4.4h-4.4v-8.9V613.2z"/>
	<path d="M1002.5,613.2h13.2v4.4v8.9h-4.4v8.8h-4.4v-8.8h-4.4v8.8h-4.4v-22H1002.5z M1002.5,617.6v4.4h8.8v-4.4H1002.5z"/>
	<path d="M1025.1,613.2h13.2v4.4v4.4v4.4h-13.2v4.4h13.2v4.4h-13.2h-4.4v-22H1025.1z M1025.1,617.6v4.4h8.8v-4.4H1025.1z"/>
	<path d="M1052.2,613.2h8.8v4.4h-8.8h-4.4v13.2h13.2v4.4h-13.2h-4.4v-22h4.4H1052.2z"/>
	<path d="M1070.4,613.2h13.2v4.4v4.4v4.4h-13.2v4.4h13.2v4.4h-13.2h-4.4v-22H1070.4z M1070.4,617.6v4.4h8.8v-4.4H1070.4z"/>
	<path d="M1093.1,613.2h13.2v4.4v4.4v8.8v4.4h-4.4v-4.4V622v-4.4h-8.8v17.6h-4.4v-22H1093.1z"/>
	<path d="M1120.2,617.6h8.8v4.4h-8.8v13.2h-4.4h-4.4v-4.4h4.4V622h-4.4v-4.4h4.4v-4.4h4.4V617.6z"/>
	<path d="M1138.4,630.8h13.2v4.4h-13.2h-4.4v-22h4.4V630.8z"/>
	<path d="M1168.1,613.2h4.4v4.4v4.4v4.4h-4.4v8.8h-4.4v-8.8h-4.4h-4.4v-13.3h4.4v8.9h8.8v-4.4V613.2z"/>
	<path d="M1182.6,635.2h-4.4v-4.4h4.4V635.2z M1186.9,630.8h-4.4v-4.4h4.4V630.8z"/>
	<path d="M1230.4,617.6h13.2v4.4v13.2h-4.4h-8.8h-4.4v-22h4.4V617.6z M1230.4,622v8.8h8.8V622H1230.4z"/>
	<path d="M1261.8,613.2h4.4v17.7v4.4h-4.4h-4.4h-4.4h-4.4v-22h4.4v17.7h4.4h4.4V613.2z"/>
	<path d="M1280.1,617.6h8.8v4.4h-8.8v13.2h-4.4h-4.4v-4.4h4.4V622h-4.4v-4.4h4.4v-4.4h4.4V617.6z"/>
	<path d="M1336.8,630.8h4.4v4.4h-17.6v-4.4h8.8V622v-4.4h-4.4v-4.4h4.4h4.4v8.9V630.8z"/>
	<path d="M1384.6,613.2h8.8v4.4h-8.8h-4.4v13.2h13.2v4.4h-13.2h-4.4v-22h4.4H1384.6z"/>
	<path d="M1411.7,613.2h4.4v22h-4.4v-8.8h-8.8v8.8h-4.4v-22h4.4H1411.7z M1411.7,617.6h-8.8v4.4h8.8V617.6z"/>
	<path d="M1425.6,613.2h13.2v4.4v4.4v8.8v4.4h-4.4v-4.4V622v-4.4h-8.8v17.6h-4.4v-22H1425.6z"/>
	<path d="M1482.3,622h8.8v4.4v4.4v4.4h-13.2h-4.4v-22h4.4h8.8v4.4h-8.8v13.2h8.8v-4.4h-4.4V622z"/>
	<path d="M1509.3,630.8h4.4v4.4h-17.6v-4.4h8.8v-4.4h-4.4V622h4.4h4.4V630.8z M1509.3,617.6h-4.4v-4.4h4.4V617.6z"/>
	<path d="M1523.2,630.8h4.4v4.4h-4.4h-4.4v-17.6v-4.4h4.4v4.4V630.8z M1527.6,622h4.4v8.8h-4.4V622z M1532,613.2h4.4v4.4v4.4h-4.4
		v-4.4V613.2z"/>
	<path d="M1545.8,613.2h13.2v4.4v4.4v4.4h-13.2v4.4h13.2v4.4h-13.2h-4.4v-22H1545.8z M1545.8,617.6v4.4h8.8v-4.4H1545.8z"/>
	<path d="M1606.9,613.2h4.4v4.4v4.4v4.4h-4.4v8.8h-4.4v-8.8h-4.4h-4.4v-13.3h4.4v8.9h8.8v-4.4V613.2z"/>
	<path d="M1629.6,617.6h4.4v4.4v8.8v4.4h-4.4h-8.8h-4.4v-17.6h4.4H1629.6z M1629.6,622h-8.8v8.8h8.8V622z"/>
	<path d="M1652.3,613.2h4.4v17.7v4.4h-4.4h-4.4h-4.4h-4.4v-22h4.4v17.7h4.4h4.4V613.2z"/>
	<path d="M1695.7,635.2h-4.4v-22h4.4h13.2v4.4v17.6h-4.4v-17.6h-2.2v8.9h-4.4v-8.9h-2.1V635.2z"/>
	<path d="M1727.2,613.2h4.4v4.4v4.4v4.4h-4.4v8.8h-4.4v-8.8h-4.4h-4.4v-13.3h4.4v8.9h8.8v-4.4V613.2z"/>
	<path d="M1775.1,613.2h8.8v4.4h-8.8h-4.4v13.2h13.2v4.4h-13.2h-4.4v-22h4.4H1775.1z"/>
	<path d="M1802.1,617.6h4.4v4.4v8.8v4.4h-4.4h-8.8h-4.4v-17.6h4.4H1802.1z M1802.1,622h-8.8v8.8h8.8V622z"/>
	<path d="M1816,635.2h-4.4v-22h4.4h13.2v4.4v17.6h-4.4v-17.6h-2.2v8.9h-4.4v-8.9h-2.1V635.2z"/>
	<path d="M1838.7,613.2h13.2v4.4v8.9v4.4h-4.4h-4.4h-4.4v4.4h-4.4v-22H1838.7z M1838.7,617.6v8.9h4.4h4.4v-8.9H1838.7z"/>
	<path d="M1861.4,630.8h13.2v4.4h-13.2h-4.4v-22h4.4V630.8z"/>
	<path d="M1884,613.2h13.2v4.4v4.4v4.4H1884v4.4h13.2v4.4H1884h-4.4v-22H1884z M1884,617.6v4.4h8.8v-4.4H1884z"/>
	<path d="M1911.1,617.6h8.8v4.4h-8.8v13.2h-4.4h-4.4v-4.4h4.4V622h-4.4v-4.4h4.4v-4.4h4.4V617.6z"/>
	<path d="M1929.4,613.2h13.2v4.4v4.4v4.4h-13.2v4.4h13.2v4.4h-13.2h-4.4v-22H1929.4z M1929.4,617.6v4.4h8.8v-4.4H1929.4z"/>
	<path d="M12,677.8h3.9v3.8H0.5v-3.8h7.7v-7.7v-3.9H4.3v-3.9h3.9H12v7.7V677.8z"/>
	<path d="M59.8,670.1h3.8v11.5h-3.8V674h-3.8H52v7.7h-3.8v-19.3H52v7.7h3.9v-7.7h3.8V670.1z"/>
	<path d="M72,662.4h11.6v3.9v3.9v7.7v3.8h-3.8v-3.8v-7.7v-3.9H72v15.4h-3.8v-19.3H72z"/>
	<path d="M99.7,666.3h3.8v3.9v7.7v3.8h-3.8h-7.7h-3.8v-15.4h3.8H99.7z M99.7,670.1h-7.7v7.7h7.7V670.1z"/>
	<path d="M119.6,662.4h3.8v19.3h-3.9h-11.5v-3.8v-15.4h3.8v15.4h2v-7.7h3.9v7.7h1.8V662.4z"/>
	<path d="M167.4,677.8h3.9v3.8h-15.4v-3.8h7.7v-7.7v-3.9h-3.9v-3.9h3.9h3.8v7.7V677.8z"/>
	<path d="M181,666.3v3.9h-3.8v-3.9v-3.9h3.8V666.3z"/>
	<path d="M192.6,677.8h3.9v3.8h-3.9h-3.8v-15.4v-3.9h3.8v3.9V677.8z M196.4,670.1h3.8v7.7h-3.8V670.1z M200.3,662.4h3.8v3.9v3.9
		h-3.8v-3.9V662.4z"/>
	<path d="M212.5,662.4h11.6v3.9v3.9v3.9h-11.6v3.8h11.6v3.8h-11.6h-3.8v-19.3H212.5z M212.5,666.3v3.9h7.7v-3.9H212.5z"/>
	<path d="M260.2,681.7h-3.8v-19.3h3.8h11.6v3.9v15.4H268v-15.4h-2v7.7h-3.9v-7.7h-1.9V681.7z"/>
	<path d="M287.9,662.4h3.8v19.3h-3.8V674h-7.7v7.7h-3.8v-19.3h3.8H287.9z M287.9,666.3h-7.7v3.9h7.7V666.3z"/>
	<path d="M307.9,662.4h3.8v3.9v3.9v11.5h-3.8h-7.7h-3.8v-15.4h3.8h7.7V662.4z M307.9,670.1h-7.7v7.7h7.7V670.1z"/>
	<path d="M320.1,662.4h11.6v3.9v3.9v3.9h-11.6v3.8h11.6v3.8h-11.6h-3.8v-19.3H320.1z M320.1,666.3v3.9h7.7v-3.9H320.1z"/>
	<path d="M364,662.4h15.4v3.9h-11.6v3.9h7.7v3.9v7.7h-3.8H364v-3.8h7.7V674h-3.9H364v-7.7V662.4z"/>
	<path d="M395.5,666.3h3.8v3.9v7.7v3.8h-3.8h-7.7h-3.8v-15.4h3.8H395.5z M395.5,670.1h-7.7v7.7h7.7V670.1z"/>
	<path d="M407.7,681.7h-3.8v-19.3h3.8h11.6v3.9v15.4h-3.8v-15.4h-2v7.7h-3.9v-7.7h-1.9V681.7z"/>
	<path d="M427.7,662.4h11.6v3.9v3.9v3.9h-11.6v3.8h11.6v3.8h-11.6h-3.8v-19.3H427.7z M427.7,666.3v3.9h7.7v-3.9H427.7z"/>
	<path d="M475.4,677.8h3.9v3.8h-3.9h-3.8v-15.4v-3.9h3.8v3.9V677.8z M479.3,670.1h3.8v7.7h-3.8V670.1z M483.1,662.4h3.8v3.9v3.9
		h-3.8v-3.9V662.4z"/>
	<path d="M495.3,662.4h11.6v3.9v3.9v3.9h-11.6v3.8h11.6v3.8h-11.6h-3.8v-19.3H495.3z M495.3,666.3v3.9h7.7v-3.9H495.3z"/>
	<path d="M515.3,662.4h11.6v3.9v7.7H523v7.7h-3.8V674h-3.9v7.7h-3.8v-19.3H515.3z M515.3,666.3v3.9h7.7v-3.9H515.3z"/>
	<path d="M542.9,662.4h3.8v3.9v3.9v3.9h-3.8v7.7h-3.8V674h-3.9h-3.8v-11.6h3.8v7.7h7.7v-3.9V662.4z"/>
	<path d="M582.9,662.4h11.6v3.9v7.7v3.8h-3.8h-3.8h-3.9v3.8h-3.8v-19.3H582.9z M582.9,666.3v7.7h3.9h3.8v-7.7H582.9z"/>
	<path d="M610.6,666.3h3.8v3.9v7.7v3.8h-3.8h-7.7h-3.8v-15.4h3.8H610.6z M610.6,670.1h-7.7v7.7h7.7V670.1z"/>
	<path d="M630.6,666.3h3.8v3.9v7.7v3.8h-3.8h-7.7H619v-15.4h3.8H630.6z M630.6,670.1h-7.7v7.7h7.7V670.1z"/>
	<path d="M642.8,662.4h11.6v3.9v7.7h-3.8v7.7h-3.8V674h-3.9v7.7H639v-19.3H642.8z M642.8,666.3v3.9h7.7v-3.9H642.8z"/>
	<path d="M698.3,662.4h3.8v3.9v3.9v11.5h-3.8h-7.7h-3.8v-15.4h3.8h7.7V662.4z M698.3,670.1h-7.7v7.7h7.7V670.1z"/>
	<path d="M710.5,662.4h11.6v3.9v3.9v3.9h-11.6v3.8h11.6v3.8h-11.6h-3.8v-19.3H710.5z M710.5,666.3v3.9h7.7v-3.9H710.5z"/>
	<path d="M734.3,662.4h7.7v3.9h-7.7h-3.9v11.6H742v3.8h-11.6h-3.8v-19.3h3.8H734.3z"/>
	<path d="M758.1,677.8h3.9v3.8h-15.4v-3.8h7.7V674h-3.9v-3.9h3.9h3.8V677.8z M758.1,666.3h-3.8v-3.9h3.8V666.3z"/>
	<path d="M766.5,662.4h15.4v3.9h-11.6v3.9h7.7v3.9v7.7h-3.8h-7.7v-3.8h7.7V674h-3.9h-3.8v-7.7V662.4z"/>
	<path d="M796.2,677.8h3.9v3.8h-15.4v-3.8h7.7V674h-3.9v-3.9h3.9h3.8V677.8z M796.2,666.3h-3.8v-3.9h3.8V666.3z"/>
	<path d="M816.2,666.3h3.8v3.9v7.7v3.8h-3.8h-7.7h-3.8v-15.4h3.8H816.2z M816.2,670.1h-7.7v7.7h7.7V670.1z"/>
	<path d="M828.4,662.4H840v3.9v3.9v7.7v3.8h-3.8v-3.8v-7.7v-3.9h-7.7v15.4h-3.8v-19.3H828.4z"/>
	<path d="M844.5,662.4h15.4v3.9h-11.6v3.9h7.7v3.9v7.7h-3.8h-7.7v-3.8h7.7V674h-3.9h-3.8v-7.7V662.4z"/>
	<path d="M896.1,662.4h11.6v3.9v7.7h-3.8v7.7H900V674h-3.9v7.7h-3.8v-19.3H896.1z M896.1,666.3v3.9h7.7v-3.9H896.1z"/>
	<path d="M916,662.4h11.6v3.9v3.9v3.9H916v3.8h11.6v3.8H916h-3.8v-19.3H916z M916,666.3v3.9h7.7v-3.9H916z"/>
	<path d="M939.8,662.4h7.7v3.9h-7.7h-3.9v11.6h11.6v3.8h-11.6h-3.8v-19.3h3.8H939.8z"/>
	<path d="M955.9,662.4h11.6v3.9v3.9v3.9h-11.6v3.8h11.6v3.8h-11.6H952v-19.3H955.9z M955.9,666.3v3.9h7.7v-3.9H955.9z"/>
	<path d="M975.8,662.4h11.6v3.9v3.9v7.7v3.8h-3.8v-3.8v-7.7v-3.9h-7.7v15.4H972v-19.3H975.8z"/>
	<path d="M999.6,666.3h7.7v3.9h-7.7v11.5h-3.9h-3.8v-3.8h3.8v-7.7h-3.8v-3.9h3.8v-3.9h3.9V666.3z"/>
	<path d="M1015.7,677.8h11.6v3.8h-11.6h-3.8v-19.3h3.8V677.8z"/>
	<path d="M1041.8,662.4h3.8v3.9v3.9v3.9h-3.8v7.7h-3.8V674h-3.9h-3.8v-11.6h3.8v7.7h7.7v-3.9V662.4z"/>
	<path d="M1054.6,681.7h-3.9v-3.8h3.9V681.7z M1058.5,677.8h-3.8V674h3.8V677.8z"/>
	<path d="M1098.4,666.3h11.6v3.9v11.5h-3.8h-7.7h-3.8v-19.3h3.8V666.3z M1098.4,670.1v7.7h7.7v-7.7H1098.4z"/>
	<path d="M1126.1,662.4h3.8v15.4v3.8h-3.8h-3.8h-3.9h-3.8v-19.3h3.8v15.4h3.9h3.8V662.4z"/>
	<path d="M1142.2,666.3h7.7v3.9h-7.7v11.5h-3.9h-3.8v-3.8h3.8v-7.7h-3.8v-3.9h3.8v-3.9h3.9V666.3z"/>
	<path d="M1193.8,677.8h3.9v3.8h-15.4v-3.8h7.7v-7.7v-3.9h-3.9v-3.9h3.9h3.8v7.7V677.8z"/>
	<path d="M1237.7,662.4h7.7v3.9h-7.7h-3.9v11.6h11.6v3.8h-11.6h-3.8v-19.3h3.8H1237.7z"/>
	<path d="M1261.4,662.4h3.8v19.3h-3.8V674h-7.7v7.7h-3.8v-19.3h3.8H1261.4z M1261.4,666.3h-7.7v3.9h7.7V666.3z"/>
	<path d="M1273.7,662.4h11.6v3.9v3.9v7.7v3.8h-3.8v-3.8v-7.7v-3.9h-7.7v15.4h-3.8v-19.3H1273.7z"/>
	<path d="M1325.3,670.1h7.7v3.9v3.8v3.8h-11.6h-3.8v-19.3h3.8h7.7v3.9h-7.7v11.6h7.7V674h-3.8V670.1z"/>
	<path d="M1349,677.8h3.9v3.8h-15.4v-3.8h7.7V674h-3.9v-3.9h3.9h3.8V677.8z M1349,666.3h-3.8v-3.9h3.8V666.3z"/>
	<path d="M1361.3,677.8h3.9v3.8h-3.9h-3.8v-15.4v-3.9h3.8v3.9V677.8z M1365.1,670.1h3.8v7.7h-3.8V670.1z M1369,662.4h3.8v3.9v3.9
		h-3.8v-3.9V662.4z"/>
	<path d="M1381.2,662.4h11.6v3.9v3.9v3.9h-11.6v3.8h11.6v3.8h-11.6h-3.8v-19.3H1381.2z M1381.2,666.3v3.9h7.7v-3.9H1381.2z"/>
	<path d="M1436.6,662.4h3.8v3.9v3.9v3.9h-3.8v7.7h-3.8V674h-3.9h-3.8v-11.6h3.8v7.7h7.7v-3.9V662.4z"/>
	<path d="M1456.6,666.3h3.8v3.9v7.7v3.8h-3.8h-7.7h-3.8v-15.4h3.8H1456.6z M1456.6,670.1h-7.7v7.7h7.7V670.1z"/>
	<path d="M1476.5,662.4h3.8v15.4v3.8h-3.8h-3.8h-3.9h-3.8v-19.3h3.8v15.4h3.9h3.8V662.4z"/>
	<path d="M1516.6,681.7h-3.8v-19.3h3.8h11.6v3.9v15.4h-3.8v-15.4h-2v7.7h-3.9v-7.7h-1.9V681.7z"/>
	<path d="M1544.2,662.4h3.8v3.9v3.9v3.9h-3.8v7.7h-3.8V674h-3.9h-3.8v-11.6h3.8v7.7h7.7v-3.9V662.4z"/>
	<path d="M1588.1,662.4h7.7v3.9h-7.7h-3.9v11.6h11.6v3.8h-11.6h-3.8v-19.3h3.8H1588.1z"/>
	<path d="M1611.9,666.3h3.8v3.9v7.7v3.8h-3.8h-7.7h-3.8v-15.4h3.8H1611.9z M1611.9,670.1h-7.7v7.7h7.7V670.1z"/>
	<path d="M1624.1,681.7h-3.8v-19.3h3.8h11.6v3.9v15.4h-3.8v-15.4h-2v7.7h-3.9v-7.7h-1.9V681.7z"/>
	<path d="M1644.1,662.4h11.6v3.9v7.7v3.8h-3.8h-3.8h-3.9v3.8h-3.8v-19.3H1644.1z M1644.1,666.3v7.7h3.9h3.8v-7.7H1644.1z"/>
	<path d="M1664,677.8h11.6v3.8H1664h-3.8v-19.3h3.8V677.8z"/>
	<path d="M1683.9,662.4h11.6v3.9v3.9v3.9h-11.6v3.8h11.6v3.8h-11.6h-3.8v-19.3H1683.9z M1683.9,666.3v3.9h7.7v-3.9H1683.9z"/>
	<path d="M1707.8,666.3h7.7v3.9h-7.7v11.5h-3.9h-3.8v-3.8h3.8v-7.7h-3.8v-3.9h3.8v-3.9h3.9V666.3z"/>
	<path d="M1723.8,662.4h11.6v3.9v3.9v3.9h-11.6v3.8h11.6v3.8h-11.6h-3.8v-19.3H1723.8z M1723.8,666.3v3.9h7.7v-3.9H1723.8z"/>
	<path d="M1779.3,662.4h3.8v19.3h-3.8V674h-7.7v7.7h-3.8v-19.3h3.8H1779.3z M1779.3,666.3h-7.7v3.9h7.7V666.3z"/>
	<path d="M1787.7,662.4h15.4v3.9h-11.6v3.9h7.7v3.9v7.7h-3.8h-7.7v-3.8h7.7V674h-3.9h-3.8v-7.7V662.4z"/>
	<path d="M1807.6,662.4h15.4v3.9h-11.6v3.9h7.7v3.9v7.7h-3.8h-7.7v-3.8h7.7V674h-3.9h-3.8v-7.7V662.4z"/>
	<path d="M1839.1,662.4h3.8v15.4v3.8h-3.8h-3.8h-3.9h-3.8v-19.3h3.8v15.4h3.9h3.8V662.4z"/>
	<path d="M1851.3,662.4h11.6v3.9v7.7h-3.8v7.7h-3.8V674h-3.9v7.7h-3.8v-19.3H1851.3z M1851.3,666.3v3.9h7.7v-3.9H1851.3z"/>
	<path d="M1879,662.4h3.8v19.3h-3.8V674h-7.7v7.7h-3.8v-19.3h3.8H1879z M1879,666.3h-7.7v3.9h7.7V666.3z"/>
	<path d="M1891.2,662.4h11.6v3.9v3.9v7.7v3.8h-3.8v-3.8v-7.7v-3.9h-7.7v15.4h-3.8v-19.3H1891.2z"/>
	<path d="M1915.1,662.4h7.7v3.9h-7.7h-3.9v11.6h11.6v3.8h-11.6h-3.8v-19.3h3.8H1915.1z"/>
	<path d="M1931.1,662.4h11.6v3.9v3.9v3.9h-11.6v3.8h11.6v3.8h-11.6h-3.8v-19.3H1931.1z M1931.1,666.3v3.9h7.7v-3.9H1931.1z"/>
	<path d="M10.2,721.3h3.3v3.3H0.3v-3.3h6.6v-6.6v-3.3H3.6v-3.3h3.3h3.3v6.6V721.3z"/>
	<path d="M52.7,714.7h3.3v9.9h-3.3v-6.6h-3.3H46v6.6h-3.3v-16.5H46v6.6h3.3v-6.6h3.3V714.7z"/>
	<path d="M63.2,708.1h9.9v3.3v3.3v6.6v3.3h-3.3v-3.3v-6.6v-3.3h-6.6v13.2h-3.3v-16.5H63.2z"/>
	<path d="M87,711.4h3.3v3.3v6.6v3.3H87h-6.6h-3.3v-13.2h3.3H87z M87,714.7h-6.6v6.6H87V714.7z"/>
	<path d="M104.2,708.1h3.3v16.5h-3.3h-9.9v-3.3v-13.2h3.3v13.2h1.7v-6.6h3.3v6.6h1.6V708.1z"/>
	<path d="M146.7,721.3h3.3v3.3h-13.2v-3.3h6.6v-6.6v-3.3h-3.3v-3.3h3.3h3.3v6.6V721.3z"/>
	<path d="M158.6,711.4v3.3h-3.3v-3.3v-3.3h3.3V711.4z"/>
	<path d="M168.6,721.3h3.3v3.3h-3.3h-3.3v-13.2v-3.3h3.3v3.3V721.3z M171.9,714.7h3.3v6.6h-3.3V714.7z M175.2,708.1h3.3v3.3v3.3
		h-3.3v-3.3V708.1z"/>
	<path d="M185.8,708.1h9.9v3.3v3.3v3.3h-9.9v3.3h9.9v3.3h-9.9h-3.3v-16.5H185.8z M185.8,711.4v3.3h6.6v-3.3H185.8z"/>
	<path d="M228.2,724.6h-3.3v-16.5h3.3h9.9v3.3v13.2h-3.3v-13.2h-1.7v6.6h-3.3v-6.6h-1.6V724.6z"/>
	<path d="M252,708.1h3.3v16.5H252v-6.6h-6.6v6.6h-3.3v-16.5h3.3H252z M252,711.4h-6.6v3.3h6.6V711.4z"/>
	<path d="M269.2,708.1h3.3v3.3v3.3v9.9h-3.3h-6.6h-3.3v-13.2h3.3h6.6V708.1z M269.2,714.7h-6.6v6.6h6.6V714.7z"/>
	<path d="M279.8,708.1h9.9v3.3v3.3v3.3h-9.9v3.3h9.9v3.3h-9.9h-3.3v-16.5H279.8z M279.8,711.4v3.3h6.6v-3.3H279.8z"/>
	<path d="M318.9,708.1h13.2v3.3h-9.9v3.3h6.6v3.3v6.6h-3.3h-6.6v-3.3h6.6v-3.3h-3.3h-3.3v-6.6V708.1z"/>
	<path d="M346,711.4h3.3v3.3v6.6v3.3H346h-6.6h-3.3v-13.2h3.3H346z M346,714.7h-6.6v6.6h6.6V714.7z"/>
	<path d="M356.6,724.6h-3.3v-16.5h3.3h9.9v3.3v13.2h-3.3v-13.2h-1.7v6.6h-3.3v-6.6h-1.6V724.6z"/>
	<path d="M373.8,708.1h9.9v3.3v3.3v3.3h-9.9v3.3h9.9v3.3h-9.9h-3.3v-16.5H373.8z M373.8,711.4v3.3h6.6v-3.3H373.8z"/>
	<path d="M416.2,721.3h3.3v3.3h-3.3h-3.3v-13.2v-3.3h3.3v3.3V721.3z M419.6,714.7h3.3v6.6h-3.3V714.7z M422.8,708.1h3.3v3.3v3.3
		h-3.3v-3.3V708.1z"/>
	<path d="M433.4,708.1h9.9v3.3v3.3v3.3h-9.9v3.3h9.9v3.3h-9.9h-3.3v-16.5H433.4z M433.4,711.4v3.3h6.6v-3.3H433.4z"/>
	<path d="M450.6,708.1h9.9v3.3v6.6h-3.3v6.6h-3.3v-6.6h-3.3v6.6h-3.3v-16.5H450.6z M450.6,711.4v3.3h6.6v-3.3H450.6z"/>
	<path d="M474.4,708.1h3.3v3.3v3.3v3.3h-3.3v6.6h-3.3v-6.6h-3.3h-3.3v-9.9h3.3v6.6h6.6v-3.3V708.1z"/>
	<path d="M510.2,708.1h9.9v3.3v6.6v3.3h-3.3h-3.3h-3.3v3.3h-3.3v-16.5H510.2z M510.2,711.4v6.6h3.3h3.3v-6.6H510.2z"/>
	<path d="M534,711.4h3.3v3.3v6.6v3.3H534h-6.6h-3.3v-13.2h3.3H534z M534,714.7h-6.6v6.6h6.6V714.7z"/>
	<path d="M551.2,711.4h3.3v3.3v6.6v3.3h-3.3h-6.6h-3.3v-13.2h3.3H551.2z M551.2,714.7h-6.6v6.6h6.6V714.7z"/>
	<path d="M561.8,708.1h9.9v3.3v6.6h-3.3v6.6h-3.3v-6.6h-3.3v6.6h-3.3v-16.5H561.8z M561.8,711.4v3.3h6.6v-3.3H561.8z"/>
	<path d="M610.9,708.1h3.3v3.3v3.3v9.9h-3.3h-6.6H601v-13.2h3.3h6.6V708.1z M610.9,714.7h-6.6v6.6h6.6V714.7z"/>
	<path d="M621.4,708.1h9.9v3.3v3.3v3.3h-9.9v3.3h9.9v3.3h-9.9h-3.3v-16.5H621.4z M621.4,711.4v3.3h6.6v-3.3H621.4z"/>
	<path d="M642,708.1h6.6v3.3H642h-3.3v9.9h9.9v3.3h-9.9h-3.3v-16.5h3.3H642z"/>
	<path d="M662.4,721.3h3.3v3.3h-13.2v-3.3h6.6v-3.3h-3.3v-3.3h3.3h3.3V721.3z M662.4,711.4h-3.3v-3.3h3.3V711.4z"/>
	<path d="M669.7,708.1h13.2v3.3H673v3.3h6.6v3.3v6.6h-3.3h-6.6v-3.3h6.6v-3.3H673h-3.3v-6.6V708.1z"/>
	<path d="M695.3,721.3h3.3v3.3h-13.2v-3.3h6.6v-3.3h-3.3v-3.3h3.3h3.3V721.3z M695.3,711.4H692v-3.3h3.3V711.4z"/>
	<path d="M712.5,711.4h3.3v3.3v6.6v3.3h-3.3h-6.6h-3.3v-13.2h3.3H712.5z M712.5,714.7h-6.6v6.6h6.6V714.7z"/>
	<path d="M723.1,708.1h9.9v3.3v3.3v6.6v3.3h-3.3v-3.3v-6.6v-3.3h-6.6v13.2h-3.3v-16.5H723.1z"/>
	<path d="M737,708.1h13.2v3.3h-9.9v3.3h6.6v3.3v6.6h-3.3H737v-3.3h6.6v-3.3h-3.3H737v-6.6V708.1z"/>
	<path d="M782.7,708.1h9.9v3.3v6.6h-3.3v6.6H786v-6.6h-3.3v6.6h-3.3v-16.5H782.7z M782.7,711.4v3.3h6.6v-3.3H782.7z"/>
	<path d="M799.9,708.1h9.9v3.3v3.3v3.3h-9.9v3.3h9.9v3.3h-9.9h-3.3v-16.5H799.9z M799.9,711.4v3.3h6.6v-3.3H799.9z"/>
	<path d="M820.4,708.1h6.6v3.3h-6.6h-3.3v9.9h9.9v3.3h-9.9h-3.3v-16.5h3.3H820.4z"/>
	<path d="M834.2,708.1h9.9v3.3v3.3v3.3h-9.9v3.3h9.9v3.3h-9.9H831v-16.5H834.2z M834.2,711.4v3.3h6.6v-3.3H834.2z"/>
	<path d="M851.4,708.1h9.9v3.3v3.3v6.6v3.3H858v-3.3v-6.6v-3.3h-6.6v13.2h-3.3v-16.5H851.4z"/>
	<path d="M871.9,711.4h6.6v3.3h-6.6v9.9h-3.3h-3.3v-3.3h3.3v-6.6h-3.3v-3.3h3.3v-3.3h3.3V711.4z"/>
	<path d="M885.8,721.3h9.9v3.3h-9.9h-3.3v-16.5h3.3V721.3z"/>
	<path d="M908.3,708.1h3.3v3.3v3.3v3.3h-3.3v6.6H905v-6.6h-3.3h-3.3v-9.9h3.3v6.6h6.6v-3.3V708.1z"/>
	<path d="M919.4,724.6h-3.3v-3.3h3.3V724.6z M922.7,721.3h-3.3v-3.3h3.3V721.3z"/>
	<path d="M958.5,711.4h9.9v3.3v9.9h-3.3h-6.6h-3.3v-16.5h3.3V711.4z M958.5,714.7v6.6h6.6v-6.6H958.5z"/>
	<path d="M982.3,708.1h3.3v13.2v3.3h-3.3H979h-3.3h-3.3v-16.5h3.3v13.2h3.3h3.3V708.1z"/>
	<path d="M996.2,711.4h6.6v3.3h-6.6v9.9h-3.3h-3.3v-3.3h3.3v-6.6h-3.3v-3.3h3.3v-3.3h3.3V711.4z"/>
	<path d="M1041.9,721.3h3.3v3.3H1032v-3.3h6.6v-6.6v-3.3h-3.3v-3.3h3.3h3.3v6.6V721.3z"/>
	<path d="M1081.1,708.1h6.6v3.3h-6.6h-3.3v9.9h9.9v3.3h-9.9h-3.3v-16.5h3.3H1081.1z"/>
	<path d="M1101.5,708.1h3.3v16.5h-3.3v-6.6h-6.6v6.6h-3.3v-16.5h3.3H1101.5z M1101.5,711.4h-6.6v3.3h6.6V711.4z"/>
	<path d="M1112.1,708.1h9.9v3.3v3.3v6.6v3.3h-3.3v-3.3v-6.6v-3.3h-6.6v13.2h-3.3v-16.5H1112.1z"/>
	<path d="M1157.9,714.7h6.6v3.3v3.3v3.3h-9.9h-3.3v-16.5h3.3h6.6v3.3h-6.6v9.9h6.6v-3.3h-3.3V714.7z"/>
	<path d="M1178.4,721.3h3.3v3.3h-13.2v-3.3h6.6v-3.3h-3.3v-3.3h3.3h3.3V721.3z M1178.4,711.4h-3.3v-3.3h3.3V711.4z"/>
	<path d="M1188.9,721.3h3.3v3.3h-3.3h-3.3v-13.2v-3.3h3.3v3.3V721.3z M1192.2,714.7h3.3v6.6h-3.3V714.7z M1195.5,708.1h3.3v3.3v3.3
		h-3.3v-3.3V708.1z"/>
	<path d="M1206.1,708.1h9.9v3.3v3.3v3.3h-9.9v3.3h9.9v3.3h-9.9h-3.3v-16.5H1206.1z M1206.1,711.4v3.3h6.6v-3.3H1206.1z"/>
	<path d="M1255.2,708.1h3.3v3.3v3.3v3.3h-3.3v6.6h-3.3v-6.6h-3.3h-3.3v-9.9h3.3v6.6h6.6v-3.3V708.1z"/>
	<path d="M1272.3,711.4h3.3v3.3v6.6v3.3h-3.3h-6.6h-3.3v-13.2h3.3H1272.3z M1272.3,714.7h-6.6v6.6h6.6V714.7z"/>
	<path d="M1289.5,708.1h3.3v13.2v3.3h-3.3h-3.3h-3.3h-3.3v-16.5h3.3v13.2h3.3h3.3V708.1z"/>
	<path d="M1325.4,724.6h-3.3v-16.5h3.3h9.9v3.3v13.2h-3.3v-13.2h-1.7v6.6h-3.3v-6.6h-1.6V724.6z"/>
	<path d="M1349.2,708.1h3.3v3.3v3.3v3.3h-3.3v6.6h-3.3v-6.6h-3.3h-3.3v-9.9h3.3v6.6h6.6v-3.3V708.1z"/>
	<path d="M1388.3,708.1h6.6v3.3h-6.6h-3.3v9.9h9.9v3.3h-9.9h-3.3v-16.5h3.3H1388.3z"/>
	<path d="M1408.8,711.4h3.3v3.3v6.6v3.3h-3.3h-6.6h-3.3v-13.2h3.3H1408.8z M1408.8,714.7h-6.6v6.6h6.6V714.7z"/>
	<path d="M1419.3,724.6h-3.3v-16.5h3.3h9.9v3.3v13.2h-3.3v-13.2h-1.7v6.6h-3.3v-6.6h-1.6V724.6z"/>
	<path d="M1436.5,708.1h9.9v3.3v6.6v3.3h-3.3h-3.3h-3.3v3.3h-3.3v-16.5H1436.5z M1436.5,711.4v6.6h3.3h3.3v-6.6H1436.5z"/>
	<path d="M1453.7,721.3h9.9v3.3h-9.9h-3.3v-16.5h3.3V721.3z"/>
	<path d="M1470.9,708.1h9.9v3.3v3.3v3.3h-9.9v3.3h9.9v3.3h-9.9h-3.3v-16.5H1470.9z M1470.9,711.4v3.3h6.6v-3.3H1470.9z"/>
	<path d="M1491.4,711.4h6.6v3.3h-6.6v9.9h-3.3h-3.3v-3.3h3.3v-6.6h-3.3v-3.3h3.3v-3.3h3.3V711.4z"/>
	<path d="M1505.3,708.1h9.9v3.3v3.3v3.3h-9.9v3.3h9.9v3.3h-9.9h-3.3v-16.5H1505.3z M1505.3,711.4v3.3h6.6v-3.3H1505.3z"/>
	<path d="M1554.4,708.1h3.3v16.5h-3.3v-6.6h-6.6v6.6h-3.3v-16.5h3.3H1554.4z M1554.4,711.4h-6.6v3.3h6.6V711.4z"/>
	<path d="M1561.6,708.1h13.2v3.3h-9.9v3.3h6.6v3.3v6.6h-3.3h-6.6v-3.3h6.6v-3.3h-3.3h-3.3v-6.6V708.1z"/>
	<path d="M1578.8,708.1h13.2v3.3h-9.9v3.3h6.6v3.3v6.6h-3.3h-6.6v-3.3h6.6v-3.3h-3.3h-3.3v-6.6V708.1z"/>
	<path d="M1605.9,708.1h3.3v13.2v3.3h-3.3h-3.3h-3.3h-3.3v-16.5h3.3v13.2h3.3h3.3V708.1z"/>
	<path d="M1616.5,708.1h9.9v3.3v6.6h-3.3v6.6h-3.3v-6.6h-3.3v6.6h-3.3v-16.5H1616.5z M1616.5,711.4v3.3h6.6v-3.3H1616.5z"/>
	<path d="M1640.3,708.1h3.3v16.5h-3.3v-6.6h-6.6v6.6h-3.3v-16.5h3.3H1640.3z M1640.3,711.4h-6.6v3.3h6.6V711.4z"/>
	<path d="M1650.9,708.1h9.9v3.3v3.3v6.6v3.3h-3.3v-3.3v-6.6v-3.3h-6.6v13.2h-3.3v-16.5H1650.9z"/>
	<path d="M1671.4,708.1h6.6v3.3h-6.6h-3.3v9.9h9.9v3.3h-9.9h-3.3v-16.5h3.3H1671.4z"/>
	<path d="M1685.3,708.1h9.9v3.3v3.3v3.3h-9.9v3.3h9.9v3.3h-9.9h-3.3v-16.5H1685.3z M1685.3,711.4v3.3h6.6v-3.3H1685.3z"/>
	<path d="M1731,711.4h6.6v3.3h-6.6v9.9h-3.3h-3.3v-3.3h3.3v-6.6h-3.3v-3.3h3.3v-3.3h3.3V711.4z"/>
	<path d="M1744.9,711.4h9.9v3.3v9.9h-3.3v-9.9h-6.6v9.9h-3.3v-16.5h3.3V711.4z"/>
	<path d="M1768.7,708.1h3.3v16.5h-3.3v-6.6h-6.6v6.6h-3.3v-16.5h3.3H1768.7z M1768.7,711.4h-6.6v3.3h6.6V711.4z"/>
	<path d="M1782.6,711.4h6.6v3.3h-6.6v9.9h-3.3h-3.3v-3.3h3.3v-6.6h-3.3v-3.3h3.3v-3.3h3.3V711.4z"/>
	<path d="M1821.7,724.6h-3.3v-16.5h3.3h9.9v3.3v13.2h-3.3v-13.2h-1.7v6.6h-3.3v-6.6h-1.6V724.6z"/>
	<path d="M1845.5,708.1h3.3v3.3v3.3v3.3h-3.3v6.6h-3.3v-6.6h-3.3h-3.3v-9.9h3.3v6.6h6.6v-3.3V708.1z"/>
	<path d="M1887.9,708.1h3.3v16.5h-3.3h-9.9v-3.3v-13.2h3.3v13.2h1.7v-6.6h3.3v6.6h1.6V708.1z"/>
	<path d="M1905.1,711.4h3.3v3.3v6.6v3.3h-3.3h-6.6h-3.3v-13.2h3.3H1905.1z M1905.1,714.7h-6.6v6.6h6.6V714.7z"/>
	<path d="M1915.7,708.1h9.9v3.3v6.6h-3.3v6.6h-3.3v-6.6h-3.3v6.6h-3.3v-16.5H1915.7z M1915.7,711.4v3.3h6.6v-3.3H1915.7z"/>
	<path d="M1939.5,714.7h3.3v9.9h-3.3v-6.6h-3.3h-3.3v6.6h-3.3v-16.5h3.3v6.6h3.3v-6.6h3.3V714.7z"/>
	<path d="M8.4,761.3h2.8v2.7h-11v-2.7h5.5v-5.5v-2.8H2.9v-2.8h2.8h2.7v5.5V761.3z"/>
	<path d="M49.1,755.8h2.7v8.2h-2.7v-5.5h-2.7h-2.8v5.5h-2.7v-13.8h2.7v5.5h2.8v-5.5h2.7V755.8z"/>
	<path d="M57.9,750.3h8.3v2.8v2.8v5.5v2.7h-2.7v-2.7v-5.5v-2.8h-5.5v11h-2.7v-13.8H57.9z"/>
	<path d="M77.8,753.1h2.7v2.8v5.5v2.7h-2.7h-5.5h-2.7v-11h2.7H77.8z M77.8,755.8h-5.5v5.5h5.5V755.8z"/>
	<path d="M92.1,750.3h2.7v13.8h-2.8h-8.2v-2.7v-11h2.7v11H88v-5.5h2.8v5.5h1.3V750.3z"/>
	<path d="M132.8,761.3h2.8v2.7h-11v-2.7h5.5v-5.5v-2.8h-2.8v-2.8h2.8h2.7v5.5V761.3z"/>
	<path d="M142.7,753.1v2.8H140v-2.8v-2.8h2.7V753.1z"/>
	<path d="M151.1,761.3h2.8v2.7h-2.8h-2.7v-11v-2.8h2.7v2.8V761.3z M153.8,755.8h2.7v5.5h-2.7V755.8z M156.6,750.3h2.7v2.8v2.8h-2.7
		v-2.8V750.3z"/>
	<path d="M165.4,750.3h8.3v2.8v2.8v2.8h-8.3v2.7h8.3v2.7h-8.3h-2.7v-13.8H165.4z M165.4,753.1v2.8h5.5v-2.8H165.4z"/>
	<path d="M206.1,764.1h-2.7v-13.8h2.7h8.3v2.8v11h-2.7v-11h-1.4v5.5h-2.8v-5.5h-1.3V764.1z"/>
	<path d="M225.9,750.3h2.7v13.8h-2.7v-5.5h-5.5v5.5h-2.7v-13.8h2.7H225.9z M225.9,753.1h-5.5v2.8h5.5V753.1z"/>
	<path d="M240.3,750.3h2.7v2.8v2.8v8.2h-2.7h-5.5H232v-11h2.7h5.5V750.3z M240.3,755.8h-5.5v5.5h5.5V755.8z"/>
	<path d="M249.1,750.3h8.3v2.8v2.8v2.8h-8.3v2.7h8.3v2.7h-8.3h-2.7v-13.8H249.1z M249.1,753.1v2.8h5.5v-2.8H249.1z"/>
	<path d="M287.1,750.3h11v2.8h-8.3v2.8h5.5v2.8v5.5h-2.7h-5.5v-2.7h5.5v-2.7h-2.8h-2.7v-5.5V750.3z"/>
	<path d="M309.6,753.1h2.7v2.8v5.5v2.7h-2.7h-5.5h-2.7v-11h2.7H309.6z M309.6,755.8h-5.5v5.5h5.5V755.8z"/>
	<path d="M318.4,764.1h-2.7v-13.8h2.7h8.3v2.8v11H324v-11h-1.4v5.5h-2.8v-5.5h-1.3V764.1z"/>
	<path d="M332.8,750.3h8.3v2.8v2.8v2.8h-8.3v2.7h8.3v2.7h-8.3H330v-13.8H332.8z M332.8,753.1v2.8h5.5v-2.8H332.8z"/>
	<path d="M373.5,761.3h2.8v2.7h-2.8h-2.7v-11v-2.8h2.7v2.8V761.3z M376.3,755.8h2.7v5.5h-2.7V755.8z M379,750.3h2.7v2.8v2.8H379
		v-2.8V750.3z"/>
	<path d="M387.8,750.3h8.3v2.8v2.8v2.8h-8.3v2.7h8.3v2.7h-8.3h-2.7v-13.8H387.8z M387.8,753.1v2.8h5.5v-2.8H387.8z"/>
	<path d="M402.1,750.3h8.3v2.8v5.5h-2.7v5.5h-2.7v-5.5h-2.8v5.5h-2.7v-13.8H402.1z M402.1,753.1v2.8h5.5v-2.8H402.1z"/>
	<path d="M422,750.3h2.7v2.8v2.8v2.8H422v5.5h-2.7v-5.5h-2.8h-2.7v-8.3h2.7v5.5h5.5v-2.8V750.3z"/>
	<path d="M457.2,750.3h8.3v2.8v5.5v2.7h-2.7h-2.7h-2.8v2.7h-2.7v-13.8H457.2z M457.2,753.1v5.5h2.8h2.7v-5.5H457.2z"/>
	<path d="M477,753.1h2.7v2.8v5.5v2.7H477h-5.5h-2.7v-11h2.7H477z M477,755.8h-5.5v5.5h5.5V755.8z"/>
	<path d="M491.3,753.1h2.7v2.8v5.5v2.7h-2.7h-5.5h-2.7v-11h2.7H491.3z M491.3,755.8h-5.5v5.5h5.5V755.8z"/>
	<path d="M500.2,750.3h8.3v2.8v5.5h-2.7v5.5h-2.7v-5.5h-2.8v5.5h-2.7v-13.8H500.2z M500.2,753.1v2.8h5.5v-2.8H500.2z"/>
	<path d="M546.4,750.3h2.7v2.8v2.8v8.2h-2.7h-5.5h-2.7v-11h2.7h5.5V750.3z M546.4,755.8h-5.5v5.5h5.5V755.8z"/>
	<path d="M555.2,750.3h8.3v2.8v2.8v2.8h-8.3v2.7h8.3v2.7h-8.3h-2.7v-13.8H555.2z M555.2,753.1v2.8h5.5v-2.8H555.2z"/>
	<path d="M572.3,750.3h5.5v2.8h-5.5h-2.8v8.3h8.3v2.7h-8.3h-2.7v-13.8h2.7H572.3z"/>
	<path d="M589.4,761.3h2.8v2.7h-11v-2.7h5.5v-2.7h-2.8v-2.8h2.8h2.7V761.3z M589.4,753.1h-2.7v-2.8h2.7V753.1z"/>
	<path d="M595.4,750.3h11v2.8h-8.3v2.8h5.5v2.8v5.5h-2.7h-5.5v-2.7h5.5v-2.7h-2.8h-2.7v-5.5V750.3z"/>
	<path d="M616.8,761.3h2.8v2.7h-11v-2.7h5.5v-2.7h-2.8v-2.8h2.8h2.7V761.3z M616.8,753.1H614v-2.8h2.7V753.1z"/>
	<path d="M631.1,753.1h2.7v2.8v5.5v2.7h-2.7h-5.5h-2.7v-11h2.7H631.1z M631.1,755.8h-5.5v5.5h5.5V755.8z"/>
	<path d="M639.9,750.3h8.3v2.8v2.8v5.5v2.7h-2.7v-2.7v-5.5v-2.8h-5.5v11h-2.7v-13.8H639.9z"/>
	<path d="M651.5,750.3h11v2.8h-8.3v2.8h5.5v2.8v5.5H657h-5.5v-2.7h5.5v-2.7h-2.8h-2.7v-5.5V750.3z"/>
	<path d="M694.9,750.3h8.3v2.8v5.5h-2.7v5.5h-2.7v-5.5h-2.8v5.5h-2.7v-13.8H694.9z M694.9,753.1v2.8h5.5v-2.8H694.9z"/>
	<path d="M709.3,750.3h8.3v2.8v2.8v2.8h-8.3v2.7h8.3v2.7h-8.3h-2.7v-13.8H709.3z M709.3,753.1v2.8h5.5v-2.8H709.3z"/>
	<path d="M726.4,750.3h5.5v2.8h-5.5h-2.8v8.3h8.3v2.7h-8.3h-2.7v-13.8h2.7H726.4z"/>
	<path d="M737.9,750.3h8.3v2.8v2.8v2.8h-8.3v2.7h8.3v2.7h-8.3h-2.7v-13.8H737.9z M737.9,753.1v2.8h5.5v-2.8H737.9z"/>
	<path d="M752.2,750.3h8.3v2.8v2.8v5.5v2.7h-2.7v-2.7v-5.5v-2.8h-5.5v11h-2.7v-13.8H752.2z"/>
	<path d="M769.3,753.1h5.5v2.8h-5.5v8.2h-2.8h-2.7v-2.7h2.7v-5.5h-2.7v-2.8h2.7v-2.8h2.8V753.1z"/>
	<path d="M780.9,761.3h8.3v2.7h-8.3h-2.7v-13.8h2.7V761.3z"/>
	<path d="M799.6,750.3h2.7v2.8v2.8v2.8h-2.7v5.5h-2.7v-5.5h-2.8h-2.7v-8.3h2.7v5.5h5.5v-2.8V750.3z"/>
	<path d="M808.9,764.1h-2.8v-2.7h2.8V764.1z M811.6,761.3h-2.7v-2.7h2.7V761.3z"/>
	<path d="M846.8,753.1h8.3v2.8v8.2h-2.7h-5.5h-2.7v-13.8h2.7V753.1z M846.8,755.8v5.5h5.5v-5.5H846.8z"/>
	<path d="M866.6,750.3h2.7v11v2.7h-2.7h-2.7h-2.8h-2.7v-13.8h2.7v11h2.8h2.7V750.3z"/>
	<path d="M878.2,753.1h5.5v2.8h-5.5v8.2h-2.8h-2.7v-2.7h2.7v-5.5h-2.7v-2.8h2.7v-2.8h2.8V753.1z"/>
	<path d="M921.7,761.3h2.8v2.7h-11v-2.7h5.5v-5.5v-2.8h-2.8v-2.8h2.8h2.7v5.5V761.3z"/>
	<path d="M959.7,750.3h5.5v2.8h-5.5h-2.8v8.3h8.3v2.7h-8.3h-2.7v-13.8h2.7H959.7z"/>
	<path d="M976.7,750.3h2.7v13.8h-2.7v-5.5h-5.5v5.5h-2.7v-13.8h2.7H976.7z M976.7,753.1h-5.5v2.8h5.5V753.1z"/>
	<path d="M985.5,750.3h8.3v2.8v2.8v5.5v2.7H991v-2.7v-5.5v-2.8h-5.5v11h-2.7v-13.8H985.5z"/>
	<path d="M1029,755.8h5.5v2.8v2.7v2.7h-8.3h-2.7v-13.8h2.7h5.5v2.8h-5.5v8.3h5.5v-2.7h-2.7V755.8z"/>
	<path d="M1046.1,761.3h2.8v2.7h-11v-2.7h5.5v-2.7h-2.8v-2.8h2.8h2.7V761.3z M1046.1,753.1h-2.7v-2.8h2.7V753.1z"/>
	<path d="M1054.9,761.3h2.8v2.7h-2.8h-2.7v-11v-2.8h2.7v2.8V761.3z M1057.7,755.8h2.7v5.5h-2.7V755.8z M1060.4,750.3h2.7v2.8v2.8
		h-2.7v-2.8V750.3z"/>
	<path d="M1069.2,750.3h8.3v2.8v2.8v2.8h-8.3v2.7h8.3v2.7h-8.3h-2.7v-13.8H1069.2z M1069.2,753.1v2.8h5.5v-2.8H1069.2z"/>
	<path d="M1115.4,750.3h2.7v2.8v2.8v2.8h-2.7v5.5h-2.7v-5.5h-2.8h-2.7v-8.3h2.7v5.5h5.5v-2.8V750.3z"/>
	<path d="M1129.8,753.1h2.7v2.8v5.5v2.7h-2.7h-5.5h-2.7v-11h2.7H1129.8z M1129.8,755.8h-5.5v5.5h5.5V755.8z"/>
	<path d="M1144.1,750.3h2.7v11v2.7h-2.7h-2.7h-2.8h-2.7v-13.8h2.7v11h2.8h2.7V750.3z"/>
	<path d="M1179.3,764.1h-2.7v-13.8h2.7h8.3v2.8v11h-2.7v-11h-1.4v5.5h-2.8v-5.5h-1.3V764.1z"/>
	<path d="M1199.1,750.3h2.7v2.8v2.8v2.8h-2.7v5.5h-2.7v-5.5h-2.8h-2.7v-8.3h2.7v5.5h5.5v-2.8V750.3z"/>
	<path d="M1237.1,750.3h5.5v2.8h-5.5h-2.8v8.3h8.3v2.7h-8.3h-2.7v-13.8h2.7H1237.1z"/>
	<path d="M1254.2,753.1h2.7v2.8v5.5v2.7h-2.7h-5.5h-2.7v-11h2.7H1254.2z M1254.2,755.8h-5.5v5.5h5.5V755.8z"/>
	<path d="M1263,764.1h-2.7v-13.8h2.7h8.3v2.8v11h-2.7v-11h-1.4v5.5h-2.8v-5.5h-1.3V764.1z"/>
	<path d="M1277.3,750.3h8.3v2.8v5.5v2.7h-2.7h-2.7h-2.8v2.7h-2.7v-13.8H1277.3z M1277.3,753.1v5.5h2.8h2.7v-5.5H1277.3z"/>
	<path d="M1291.6,761.3h8.3v2.7h-8.3h-2.7v-13.8h2.7V761.3z"/>
	<path d="M1305.9,750.3h8.3v2.8v2.8v2.8h-8.3v2.7h8.3v2.7h-8.3h-2.7v-13.8H1305.9z M1305.9,753.1v2.8h5.5v-2.8H1305.9z"/>
	<path d="M1323,753.1h5.5v2.8h-5.5v8.2h-2.8h-2.7v-2.7h2.7v-5.5h-2.7v-2.8h2.7v-2.8h2.8V753.1z"/>
	<path d="M1334.6,750.3h8.3v2.8v2.8v2.8h-8.3v2.7h8.3v2.7h-8.3h-2.7v-13.8H1334.6z M1334.6,753.1v2.8h5.5v-2.8H1334.6z"/>
	<path d="M1380.8,750.3h2.7v13.8h-2.7v-5.5h-5.5v5.5h-2.7v-13.8h2.7H1380.8z M1380.8,753.1h-5.5v2.8h5.5V753.1z"/>
	<path d="M1386.9,750.3h11v2.8h-8.3v2.8h5.5v2.8v5.5h-2.7h-5.5v-2.7h5.5v-2.7h-2.8h-2.7v-5.5V750.3z"/>
	<path d="M1401.2,750.3h11v2.8h-8.3v2.8h5.5v2.8v5.5h-2.7h-5.5v-2.7h5.5v-2.7h-2.8h-2.7v-5.5V750.3z"/>
	<path d="M1423.8,750.3h2.7v11v2.7h-2.7h-2.7h-2.8h-2.7v-13.8h2.7v11h2.8h2.7V750.3z"/>
	<path d="M1432.6,750.3h8.3v2.8v5.5h-2.7v5.5h-2.7v-5.5h-2.8v5.5h-2.7v-13.8H1432.6z M1432.6,753.1v2.8h5.5v-2.8H1432.6z"/>
	<path d="M1452.4,750.3h2.7v13.8h-2.7v-5.5h-5.5v5.5h-2.7v-13.8h2.7H1452.4z M1452.4,753.1h-5.5v2.8h5.5V753.1z"/>
	<path d="M1461.3,750.3h8.3v2.8v2.8v5.5v2.7h-2.7v-2.7v-5.5v-2.8h-5.5v11h-2.7v-13.8H1461.3z"/>
	<path d="M1478.4,750.3h5.5v2.8h-5.5h-2.8v8.3h8.3v2.7h-8.3h-2.7v-13.8h2.7H1478.4z"/>
	<path d="M1489.9,750.3h8.3v2.8v2.8v2.8h-8.3v2.7h8.3v2.7h-8.3h-2.7v-13.8H1489.9z M1489.9,753.1v2.8h5.5v-2.8H1489.9z"/>
	<path d="M1533.4,753.1h5.5v2.8h-5.5v8.2h-2.8h-2.7v-2.7h2.7v-5.5h-2.7v-2.8h2.7v-2.8h2.8V753.1z"/>
	<path d="M1545,753.1h8.3v2.8v8.2h-2.7v-8.2h-5.5v8.2h-2.7v-13.8h2.7V753.1z"/>
	<path d="M1564.8,750.3h2.7v13.8h-2.7v-5.5h-5.5v5.5h-2.7v-13.8h2.7H1564.8z M1564.8,753.1h-5.5v2.8h5.5V753.1z"/>
	<path d="M1576.4,753.1h5.5v2.8h-5.5v8.2h-2.8h-2.7v-2.7h2.7v-5.5h-2.7v-2.8h2.7v-2.8h2.8V753.1z"/>
	<path d="M1614.3,764.1h-2.7v-13.8h2.7h8.3v2.8v11h-2.7v-11h-1.4v5.5h-2.8v-5.5h-1.3V764.1z"/>
	<path d="M1634.2,750.3h2.7v2.8v2.8v2.8h-2.7v5.5h-2.7v-5.5h-2.8h-2.7v-8.3h2.7v5.5h5.5v-2.8V750.3z"/>
	<path d="M1674.9,750.3h2.7v13.8h-2.8h-8.2v-2.7v-11h2.7v11h1.4v-5.5h2.8v5.5h1.3V750.3z"/>
	<path d="M1689.2,753.1h2.7v2.8v5.5v2.7h-2.7h-5.5h-2.7v-11h2.7H1689.2z M1689.2,755.8h-5.5v5.5h5.5V755.8z"/>
	<path d="M1698,750.3h8.3v2.8v5.5h-2.7v5.5h-2.7v-5.5h-2.8v5.5h-2.7v-13.8H1698z M1698,753.1v2.8h5.5v-2.8H1698z"/>
	<path d="M1717.9,755.8h2.7v8.2h-2.7v-5.5h-2.7h-2.8v5.5h-2.7v-13.8h2.7v5.5h2.8v-5.5h2.7V755.8z"/>
	<path d="M1758.6,750.3h2.7v13.8h-2.8h-8.2v-2.7v-11h2.7v11h1.4v-5.5h2.8v5.5h1.3V750.3z"/>
	<path d="M1772.9,761.3h2.8v2.7h-11v-2.7h5.5v-2.7h-2.8v-2.8h2.8h2.7V761.3z M1772.9,753.1h-2.7v-2.8h2.7V753.1z"/>
	<path d="M1781.7,761.3h8.3v2.7h-8.3h-2.7v-13.8h2.7V761.3z"/>
	<path d="M1796.1,761.3h8.3v2.7h-8.3h-2.7v-13.8h2.7V761.3z"/>
	<path d="M1836.8,753.1h8.3v2.8v8.2h-2.7h-5.5h-2.7v-13.8h2.7V753.1z M1836.8,755.8v5.5h5.5v-5.5H1836.8z"/>
	<path d="M1851.1,750.3h8.3v2.8v2.8v2.8h-8.3v2.7h8.3v2.7h-8.3h-2.7v-13.8H1851.1z M1851.1,753.1v2.8h5.5v-2.8H1851.1z"/>
	<path d="M1891.8,753.1h8.3v2.8v8.2h-2.7h-5.5h-2.7v-13.8h2.7V753.1z M1891.8,755.8v5.5h5.5v-5.5H1891.8z"/>
	<path d="M1911.6,750.3h2.7v13.8h-2.7v-5.5h-5.5v5.5h-2.7v-13.8h2.7H1911.6z M1911.6,753.1h-5.5v2.8h5.5V753.1z"/>
	<path d="M1923.2,750.3h5.5v2.8h-5.5h-2.8v8.3h8.3v2.7h-8.3h-2.7v-13.8h2.7H1923.2z"/>
	<path d="M1940.3,755.8h2.7v8.2h-2.7v-5.5h-2.7h-2.8v5.5h-2.7v-13.8h2.7v5.5h2.8v-5.5h2.7V755.8z"/>
	<path d="M6.6,797.8h2.2v2.2H0v-2.2h4.4v-4.4v-2.2H2.2V789h2.2h2.2v4.4V797.8z"/>
	<path d="M49.4,793.4h2.2v6.6h-2.2v-4.4h-2.2H45v4.4h-2.2v-11H45v4.4h2.2V789h2.2V793.4z"/>
	<path d="M56.4,789H63v2.2v2.2v4.4v2.2h-2.2v-2.2v-4.4v-2.2h-4.4v8.8h-2.2v-11H56.4z"/>
	<path d="M72.3,791.2h2.2v2.2v4.4v2.2h-2.2h-4.4h-2.2v-8.8h2.2H72.3z M72.3,793.4h-4.4v4.4h4.4V793.4z"/>
	<path d="M83.8,789H86v11h-2.2h-6.6v-2.2V789h2.2v8.8h1.1v-4.4h2.2v4.4h1V789z"/>
	<path d="M126.5,797.8h2.2v2.2h-8.8v-2.2h4.4v-4.4v-2.2h-2.2V789h2.2h2.2v4.4V797.8z"/>
	<path d="M134.5,791.2v2.2h-2.2v-2.2V789h2.2V791.2z"/>
	<path d="M141.1,797.8h2.2v2.2h-2.2H139v-8.8V789h2.2v2.2V797.8z M143.4,793.4h2.2v4.4h-2.2V793.4z M145.6,789h2.2v2.2v2.2h-2.2
		v-2.2V789z"/>
	<path d="M152.6,789h6.6v2.2v2.2v2.2h-6.6v2.2h6.6v2.2h-6.6h-2.2v-11H152.6z M152.6,791.2v2.2h4.4v-2.2H152.6z"/>
	<path d="M195.4,800h-2.2v-11h2.2h6.6v2.2v8.8h-2.2v-8.8h-1.1v4.4h-2.2v-4.4h-1.1V800z"/>
	<path d="M211.3,789h2.2v11h-2.2v-4.4h-4.4v4.4h-2.2v-11h2.2H211.3z M211.3,791.2h-4.4v2.2h4.4V791.2z"/>
	<path d="M222.7,789h2.2v2.2v2.2v6.6h-2.2h-4.4h-2.2v-8.8h2.2h4.4V789z M222.7,793.4h-4.4v4.4h4.4V793.4z"/>
	<path d="M229.8,789h6.6v2.2v2.2v2.2h-6.6v2.2h6.6v2.2h-6.6h-2.2v-11H229.8z M229.8,791.2v2.2h4.4v-2.2H229.8z"/>
	<path d="M270.4,789h8.8v2.2h-6.6v2.2h4.4v2.2v4.4h-2.2h-4.4v-2.2h4.4v-2.2h-2.2h-2.2v-4.4V789z"/>
	<path d="M288.5,791.2h2.2v2.2v4.4v2.2h-2.2H284h-2.2v-8.8h2.2H288.5z M288.5,793.4H284v4.4h4.4V793.4z"/>
	<path d="M295.5,800h-2.2v-11h2.2h6.6v2.2v8.8h-2.2v-8.8h-1.1v4.4h-2.2v-4.4h-1.1V800z"/>
	<path d="M307,789h6.6v2.2v2.2v2.2H307v2.2h6.6v2.2H307h-2.2v-11H307z M307,791.2v2.2h4.4v-2.2H307z"/>
	<path d="M349.7,797.8h2.2v2.2h-2.2h-2.2v-8.8V789h2.2v2.2V797.8z M352,793.4h2.2v4.4H352V793.4z M354.2,789h2.2v2.2v2.2h-2.2v-2.2
		V789z"/>
	<path d="M361.2,789h6.6v2.2v2.2v2.2h-6.6v2.2h6.6v2.2h-6.6H359v-11H361.2z M361.2,791.2v2.2h4.4v-2.2H361.2z"/>
	<path d="M372.7,789h6.6v2.2v4.4h-2.2v4.4h-2.2v-4.4h-2.2v4.4h-2.2v-11H372.7z M372.7,791.2v2.2h4.4v-2.2H372.7z"/>
	<path d="M388.5,789h2.2v2.2v2.2v2.2h-2.2v4.4h-2.2v-4.4h-2.2h-2.2V789h2.2v4.4h4.4v-2.2V789z"/>
	<path d="M426.9,789h6.6v2.2v4.4v2.2h-2.2h-2.2h-2.2v2.2h-2.2v-11H426.9z M426.9,791.2v4.4h2.2h2.2v-4.4H426.9z"/>
	<path d="M442.8,791.2h2.2v2.2v4.4v2.2h-2.2h-4.4h-2.2v-8.8h2.2H442.8z M442.8,793.4h-4.4v4.4h4.4V793.4z"/>
	<path d="M454.2,791.2h2.2v2.2v4.4v2.2h-2.2h-4.4h-2.2v-8.8h2.2H454.2z M454.2,793.4h-4.4v4.4h4.4V793.4z"/>
	<path d="M461.3,789h6.6v2.2v4.4h-2.2v4.4h-2.2v-4.4h-2.2v4.4h-2.2v-11H461.3z M461.3,791.2v2.2h4.4v-2.2H461.3z"/>
	<path d="M508.5,789h2.2v2.2v2.2v6.6h-2.2h-4.4h-2.2v-8.8h2.2h4.4V789z M508.5,793.4h-4.4v4.4h4.4V793.4z"/>
	<path d="M515.6,789h6.6v2.2v2.2v2.2h-6.6v2.2h6.6v2.2h-6.6h-2.2v-11H515.6z M515.6,791.2v2.2h4.4v-2.2H515.6z"/>
	<path d="M529.2,789h4.4v2.2h-4.4H527v6.6h6.6v2.2H527h-2.2v-11h2.2H529.2z"/>
	<path d="M542.9,797.8h2.2v2.2h-8.8v-2.2h4.4v-2.2h-2.2v-2.2h2.2h2.2V797.8z M542.9,791.2h-2.2V789h2.2V791.2z"/>
	<path d="M547.8,789h8.8v2.2H550v2.2h4.4v2.2v4.4h-2.2h-4.4v-2.2h4.4v-2.2H550h-2.2v-4.4V789z"/>
	<path d="M564.8,797.8h2.2v2.2h-8.8v-2.2h4.4v-2.2h-2.2v-2.2h2.2h2.2V797.8z M564.8,791.2h-2.2V789h2.2V791.2z"/>
	<path d="M576.3,791.2h2.2v2.2v4.4v2.2h-2.2h-4.4h-2.2v-8.8h2.2H576.3z M576.3,793.4h-4.4v4.4h4.4V793.4z"/>
	<path d="M583.4,789h6.6v2.2v2.2v4.4v2.2h-2.2v-2.2v-4.4v-2.2h-4.4v8.8h-2.2v-11H583.4z"/>
	<path d="M592.6,789h8.8v2.2h-6.6v2.2h4.4v2.2v4.4H597h-4.4v-2.2h4.4v-2.2h-2.2h-2.2v-4.4V789z"/>
	<path d="M637.6,789h6.6v2.2v4.4H642v4.4h-2.2v-4.4h-2.2v4.4h-2.2v-11H637.6z M637.6,791.2v2.2h4.4v-2.2H637.6z"/>
	<path d="M649.1,789h6.6v2.2v2.2v2.2h-6.6v2.2h6.6v2.2h-6.6h-2.2v-11H649.1z M649.1,791.2v2.2h4.4v-2.2H649.1z"/>
	<path d="M662.7,789h4.4v2.2h-4.4h-2.2v6.6h6.6v2.2h-6.6h-2.2v-11h2.2H662.7z"/>
	<path d="M672,789h6.6v2.2v2.2v2.2H672v2.2h6.6v2.2H672h-2.2v-11H672z M672,791.2v2.2h4.4v-2.2H672z"/>
	<path d="M683.4,789h6.6v2.2v2.2v4.4v2.2h-2.2v-2.2v-4.4v-2.2h-4.4v8.8h-2.2v-11H683.4z"/>
	<path d="M697.1,791.2h4.4v2.2h-4.4v6.6h-2.2h-2.2v-2.2h2.2v-4.4h-2.2v-2.2h2.2V789h2.2V791.2z"/>
	<path d="M706.3,797.8h6.6v2.2h-6.6h-2.2v-11h2.2V797.8z"/>
	<path d="M721.3,789h2.2v2.2v2.2v2.2h-2.2v4.4h-2.2v-4.4h-2.2h-2.2V789h2.2v4.4h4.4v-2.2V789z"/>
	<path d="M728.8,800h-2.2v-2.2h2.2V800z M730.9,797.8h-2.2v-2.2h2.2V797.8z"/>
	<path d="M769.3,791.2h6.6v2.2v6.6h-2.2h-4.4h-2.2v-11h2.2V791.2z M769.3,793.4v4.4h4.4v-4.4H769.3z"/>
	<path d="M785.2,789h2.2v8.8v2.2h-2.2H783h-2.2h-2.2v-11h2.2v8.8h2.2h2.2V789z"/>
	<path d="M794.4,791.2h4.4v2.2h-4.4v6.6h-2.2H790v-2.2h2.2v-4.4H790v-2.2h2.2V789h2.2V791.2z"/>
	<path d="M839.4,797.8h2.2v2.2h-8.8v-2.2h4.4v-4.4v-2.2H835V789h2.2h2.2v4.4V797.8z"/>
	<path d="M880,789h4.4v2.2H880h-2.2v6.6h6.6v2.2h-6.6h-2.2v-11h2.2H880z"/>
	<path d="M893.7,789h2.2v11h-2.2v-4.4h-4.4v4.4h-2.2v-11h2.2H893.7z M893.7,791.2h-4.4v2.2h4.4V791.2z"/>
	<path d="M900.7,789h6.6v2.2v2.2v4.4v2.2h-2.2v-2.2v-4.4v-2.2h-4.4v8.8h-2.2v-11H900.7z"/>
	<path d="M945.7,793.4h4.4v2.2v2.2v2.2h-6.6h-2.2v-11h2.2h4.4v2.2h-4.4v6.6h4.4v-2.2h-2.2V793.4z"/>
	<path d="M959.4,797.8h2.2v2.2h-8.8v-2.2h4.4v-2.2h-2.2v-2.2h2.2h2.2V797.8z M959.4,791.2h-2.2V789h2.2V791.2z"/>
	<path d="M966.4,797.8h2.2v2.2h-2.2h-2.2v-8.8V789h2.2v2.2V797.8z M968.6,793.4h2.2v4.4h-2.2V793.4z M970.8,789h2.2v2.2v2.2h-2.2
		v-2.2V789z"/>
	<path d="M977.9,789h6.6v2.2v2.2v2.2h-6.6v2.2h6.6v2.2h-6.6h-2.2v-11H977.9z M977.9,791.2v2.2h4.4v-2.2H977.9z"/>
	<path d="M1025.1,789h2.2v2.2v2.2v2.2h-2.2v4.4h-2.2v-4.4h-2.2h-2.2V789h2.2v4.4h4.4v-2.2V789z"/>
	<path d="M1036.5,791.2h2.2v2.2v4.4v2.2h-2.2h-4.4h-2.2v-8.8h2.2H1036.5z M1036.5,793.4h-4.4v4.4h4.4V793.4z"/>
	<path d="M1048,789h2.2v8.8v2.2h-2.2h-2.2h-2.2h-2.2v-11h2.2v8.8h2.2h2.2V789z"/>
	<path d="M1086.3,800h-2.2v-11h2.2h6.6v2.2v8.8h-2.2v-8.8h-1.1v4.4h-2.2v-4.4h-1.1V800z"/>
	<path d="M1102.2,789h2.2v2.2v2.2v2.2h-2.2v4.4h-2.2v-4.4h-2.2h-2.2V789h2.2v4.4h4.4v-2.2V789z"/>
	<path d="M1142.8,789h4.4v2.2h-4.4h-2.2v6.6h6.6v2.2h-6.6h-2.2v-11h2.2H1142.8z"/>
	<path d="M1156.5,791.2h2.2v2.2v4.4v2.2h-2.2h-4.4h-2.2v-8.8h2.2H1156.5z M1156.5,793.4h-4.4v4.4h4.4V793.4z"/>
	<path d="M1163.5,800h-2.2v-11h2.2h6.6v2.2v8.8h-2.2v-8.8h-1.1v4.4h-2.2v-4.4h-1.1V800z"/>
	<path d="M1175,789h6.6v2.2v4.4v2.2h-2.2h-2.2h-2.2v2.2h-2.2v-11H1175z M1175,791.2v4.4h2.2h2.2v-4.4H1175z"/>
	<path d="M1186.4,797.8h6.6v2.2h-6.6h-2.2v-11h2.2V797.8z"/>
	<path d="M1197.9,789h6.6v2.2v2.2v2.2h-6.6v2.2h6.6v2.2h-6.6h-2.2v-11H1197.9z M1197.9,791.2v2.2h4.4v-2.2H1197.9z"/>
	<path d="M1211.6,791.2h4.4v2.2h-4.4v6.6h-2.2h-2.2v-2.2h2.2v-4.4h-2.2v-2.2h2.2V789h2.2V791.2z"/>
	<path d="M1220.8,789h6.6v2.2v2.2v2.2h-6.6v2.2h6.6v2.2h-6.6h-2.2v-11H1220.8z M1220.8,791.2v2.2h4.4v-2.2H1220.8z"/>
	<path d="M1268,789h2.2v11h-2.2v-4.4h-4.4v4.4h-2.2v-11h2.2H1268z M1268,791.2h-4.4v2.2h4.4V791.2z"/>
	<path d="M1272.9,789h8.8v2.2h-6.6v2.2h4.4v2.2v4.4h-2.2h-4.4v-2.2h4.4v-2.2h-2.2h-2.2v-4.4V789z"/>
	<path d="M1284.3,789h8.8v2.2h-6.6v2.2h4.4v2.2v4.4h-2.2h-4.4v-2.2h4.4v-2.2h-2.2h-2.2v-4.4V789z"/>
	<path d="M1302.4,789h2.2v8.8v2.2h-2.2h-2.2h-2.2h-2.2v-11h2.2v8.8h2.2h2.2V789z"/>
	<path d="M1309.4,789h6.6v2.2v4.4h-2.2v4.4h-2.2v-4.4h-2.2v4.4h-2.2v-11H1309.4z M1309.4,791.2v2.2h4.4v-2.2H1309.4z"/>
	<path d="M1325.3,789h2.2v11h-2.2v-4.4h-4.4v4.4h-2.2v-11h2.2H1325.3z M1325.3,791.2h-4.4v2.2h4.4V791.2z"/>
	<path d="M1332.3,789h6.6v2.2v2.2v4.4v2.2h-2.2v-2.2v-4.4v-2.2h-4.4v8.8h-2.2v-11H1332.3z"/>
	<path d="M1346,789h4.4v2.2h-4.4h-2.2v6.6h6.6v2.2h-6.6h-2.2v-11h2.2H1346z"/>
	<path d="M1355.2,789h6.6v2.2v2.2v2.2h-6.6v2.2h6.6v2.2h-6.6h-2.2v-11H1355.2z M1355.2,791.2v2.2h4.4v-2.2H1355.2z"/>
	<path d="M1400.2,791.2h4.4v2.2h-4.4v6.6h-2.2h-2.2v-2.2h2.2v-4.4h-2.2v-2.2h2.2V789h2.2V791.2z"/>
	<path d="M1409.5,791.2h6.6v2.2v6.6h-2.2v-6.6h-4.4v6.6h-2.2v-11h2.2V791.2z"/>
	<path d="M1425.3,789h2.2v11h-2.2v-4.4h-4.4v4.4h-2.2v-11h2.2H1425.3z M1425.3,791.2h-4.4v2.2h4.4V791.2z"/>
	<path d="M1434.6,791.2h4.4v2.2h-4.4v6.6h-2.2h-2.2v-2.2h2.2v-4.4h-2.2v-2.2h2.2V789h2.2V791.2z"/>
	<path d="M1475.2,800h-2.2v-11h2.2h6.6v2.2v8.8h-2.2v-8.8h-1.1v4.4h-2.2v-4.4h-1.1V800z"/>
	<path d="M1491.1,789h2.2v2.2v2.2v2.2h-2.2v4.4h-2.2v-4.4h-2.2h-2.2V789h2.2v4.4h4.4v-2.2V789z"/>
	<path d="M1533.8,789h2.2v11h-2.2h-6.6v-2.2V789h2.2v8.8h1.1v-4.4h2.2v4.4h1V789z"/>
	<path d="M1545.3,791.2h2.2v2.2v4.4v2.2h-2.2h-4.4h-2.2v-8.8h2.2H1545.3z M1545.3,793.4h-4.4v4.4h4.4V793.4z"/>
	<path d="M1552.4,789h6.6v2.2v4.4h-2.2v4.4h-2.2v-4.4h-2.2v4.4h-2.2v-11H1552.4z M1552.4,791.2v2.2h4.4v-2.2H1552.4z"/>
	<path d="M1568.2,793.4h2.2v6.6h-2.2v-4.4h-2.2h-2.2v4.4h-2.2v-11h2.2v4.4h2.2V789h2.2V793.4z"/>
	<path d="M1611,789h2.2v11h-2.2h-6.6v-2.2V789h2.2v8.8h1.1v-4.4h2.2v4.4h1V789z"/>
	<path d="M1622.5,797.8h2.2v2.2h-8.8v-2.2h4.4v-2.2h-2.2v-2.2h2.2h2.2V797.8z M1622.5,791.2h-2.2V789h2.2V791.2z"/>
	<path d="M1629.5,797.8h6.6v2.2h-6.6h-2.2v-11h2.2V797.8z"/>
	<path d="M1641,797.8h6.6v2.2h-6.6h-2.2v-11h2.2V797.8z"/>
	<path d="M1683.8,791.2h6.6v2.2v6.6h-2.2h-4.4h-2.2v-11h2.2V791.2z M1683.8,793.4v4.4h4.4v-4.4H1683.8z"/>
	<path d="M1695.2,789h6.6v2.2v2.2v2.2h-6.6v2.2h6.6v2.2h-6.6h-2.2v-11H1695.2z M1695.2,791.2v2.2h4.4v-2.2H1695.2z"/>
	<path d="M1738,791.2h6.6v2.2v6.6h-2.2h-4.4h-2.2v-11h2.2V791.2z M1738,793.4v4.4h4.4v-4.4H1738z"/>
	<path d="M1753.9,789h2.2v11h-2.2v-4.4h-4.4v4.4h-2.2v-11h2.2H1753.9z M1753.9,791.2h-4.4v2.2h4.4V791.2z"/>
	<path d="M1763.1,789h4.4v2.2h-4.4h-2.2v6.6h6.6v2.2h-6.6h-2.2v-11h2.2H1763.1z"/>
	<path d="M1776.8,793.4h2.2v6.6h-2.2v-4.4h-2.2h-2.2v4.4h-2.2v-11h2.2v4.4h2.2V789h2.2V793.4z"/>
	<path d="M1817.4,791.2h4.4v2.2h-4.4v6.6h-2.2h-2.2v-2.2h2.2v-4.4h-2.2v-2.2h2.2V789h2.2V791.2z"/>
	<path d="M1831,791.2h2.2v2.2v4.4v2.2h-2.2h-4.4h-2.2v-8.8h2.2H1831z M1831,793.4h-4.4v4.4h4.4V793.4z"/>
	<path d="M1869.4,789h6.6v2.2v2.2v4.4v2.2h-2.2v-2.2v-4.4v-2.2h-4.4v8.8h-2.2v-11H1869.4z"/>
	<path d="M1885.3,791.2h2.2v2.2v4.4v2.2h-2.2h-4.4h-2.2v-8.8h2.2H1885.3z M1885.3,793.4h-4.4v4.4h4.4V793.4z"/>
	<path d="M1892.3,789h6.6v2.2v4.4h-2.2v4.4h-2.2v-4.4h-2.2v4.4h-2.2v-11H1892.3z M1892.3,791.2v2.2h4.4v-2.2H1892.3z"/>
	<path d="M1903.8,800h-2.2v-11h2.2h6.6v2.2v8.8h-2.2v-8.8h-1.1v4.4h-2.2v-4.4h-1.1V800z"/>
	<path d="M1919.7,789h2.2v11h-2.2v-4.4h-4.4v4.4h-2.2v-11h2.2H1919.7z M1919.7,791.2h-4.4v2.2h4.4V791.2z"/>
	<path d="M1926.7,797.8h6.6v2.2h-6.6h-2.2v-11h2.2V797.8z"/>
	<path d="M1937.8,797.8h2.2v2.2h-2.2V797.8z"/>
</g>
</svg>
