<?xml version="1.0" encoding="utf-8"?>
<!-- Generator: Adobe Illustrator 18.0.0, SVG Export Plug-In . SVG Version: 6.00 Build 0)  -->
<!DOCTYPE svg PUBLIC "-//W3C//DTD SVG 1.1//EN" "http://www.w3.org/Graphics/SVG/1.1/DTD/svg11.dtd">
<svg version="1.1" id="Layer_1" xmlns="http://www.w3.org/2000/svg" xmlns:xlink="http://www.w3.org/1999/xlink" x="0px" y="0px"
	 viewBox="0 0 782 800" enable-background="new 0 0 782 800" xml:space="preserve">
<g>
	<g>
		<path d="M-0.9,0h49.2v12.3H11.4v12.4h24.7v12.3H11.4H-0.9V12.3V0z M36.1,49.3V37.1h12.3v24.5H36.1H-0.9V49.3H36.1z"/>
		<path d="M74,49.3h12.3v12.3H74V49.3z"/>
		<path d="M111.9,0h49.2v12.3h-37v12.4h24.7v12.3v24.5h-12.3h-24.7V49.3h24.7V37.1h-12.4h-12.3V12.3V0z"/>
		<path d="M180.5,0h36.9v12.3v12.4v12.3h-36.9v12.3h36.9v12.3h-36.9h-12.3V0H180.5z M180.5,12.3v12.4h24.7V12.3H180.5z"/>
		<path d="M249.2,24.7h24.5v12.3v12.3v12.3h-36.9h-12.3V0h12.3h24.7v12.3h-24.7v37h24.7V37.1h-12.3V24.7z"/>
		<path d="M317.9,0h12.3v61.6h-12.3V37.1h-24.7v24.5H281V0h12.3H317.9z M317.9,12.3h-24.7v12.4h24.7V12.3z"/>
		<path d="M418.3,24.7h24.5v12.3v12.3v12.3h-36.9h-12.3V0h12.3h24.7v12.3h-24.7v37h24.7V37.1h-12.3V24.7z"/>
		<path d="M462.3,0h36.9v12.3v12.4v12.3h-36.9v12.3h36.9v12.3h-36.9H450V0H462.3z M462.3,12.3v12.4H487V12.3H462.3z"/>
		<path d="M518.7,0h36.9v12.3v12.4v24.6v12.3h-12.3V49.3V24.7V12.3h-24.7v49.2h-12.3V0H518.7z"/>
		<path d="M575,0h36.9v12.3v12.4v12.3H575v12.3h36.9v12.3H575h-12.3V0H575z M575,12.3v12.4h24.7V12.3H575z"/>
		<path d="M619.1,0h49.2v12.3h-37v12.4H656v12.3v24.5h-12.3h-24.7V49.3h24.7V37.1h-12.4h-12.3V12.3V0z"/>
		<path d="M712.4,49.3h12.3v12.3h-49.2V49.3h24.7V37.1h-12.4V24.7h12.4h12.3V49.3z M712.4,12.3h-12.3V0h12.3V12.3z"/>
		<path d="M731.8,0h49.2v12.3h-37v12.4h24.7v12.3v24.5h-12.3h-24.7V49.3h24.7V37.1h-12.4h-12.3V12.3V0z"/>
	</g>
	<g>
		<path d="M35.7,128.2H72v18.3v18.2v18.2H17.3H-0.9V91.5h18.2h36.5v18.3H17.3v54.8h36.5v-18.2H35.7V128.2z"/>
		<path d="M137.3,91.5h18.2v91.2h-18.2v-36.3h-36.5v36.3H82.6V91.5h18.2H137.3z M137.3,109.8h-36.5v18.4h36.5V109.8z"/>
		<path d="M184.3,182.7h-18.2V91.5h18.1h54.7v18.3v72.9h-18.2v-72.9h-9.3v36.6h-18.4v-36.6h-8.9V182.7z"/>
		<path d="M267.7,91.5h54.7v18.3v18.4v18.3h-54.7v18.2h54.7v18.2h-54.7h-18.2V91.5H267.7z M267.7,109.8v18.4h36.5v-18.4H267.7z"/>
		<path d="M494.3,91.5h36.4v18.3h-36.4H476v54.8h54.8v18.2H476h-18.2V91.5H476H494.3z"/>
		<path d="M596,91.5h18.2v73v18.2H596h-18.2h-18.4h-18.2V91.5h18.2v73h18.4H596V91.5z"/>
		<path d="M642.9,109.8h54.7v18.4v54.6h-18.2h-36.5h-18.2V91.5h18.2V109.8z M642.9,128.2v36.4h36.5v-36.4H642.9z"/>
		<path d="M726.4,91.5h54.7v18.3v18.4v18.3h-54.7v18.2h54.7v18.2h-54.7h-18.2V91.5H726.4z M726.4,109.8v18.4h36.5v-18.4H726.4z"/>
	</g>
	<g>
		<path d="M-0.9,212.4h176.4v44.2H43V301h88.3v44.2V433H87.5H-0.9v-43.9h88.3v-43.9H43H-0.9v-88.6V212.4z"/>
		<path d="M244.9,212.4h132.2v44.2V301v88.1V433h-43.9v-43.9V301v-44.4h-88.3V433H201V212.4H244.9z"/>
		<path d="M446.8,212.4H579v44.2V301v44.2H446.8v43.9H579V433H446.8h-43.9V212.4H446.8z M446.8,256.6V301h88.3v-44.4H446.8z"/>
		<path d="M604.7,212.4h176.4v44.2H648.6V301h88.3v44.2V433H693h-88.3v-43.9H693v-43.9h-44.4h-43.9v-88.6V212.4z"/>
	</g>
	<g>
		<path d="M14.5,461.1h46.2v15.4v31v15.4H45.4H30H14.5v15.4H-0.9v-77.1H14.5z M14.5,476.5v31H30h15.4v-31H14.5z"/>
		<path d="M86.5,522.9h46.3v15.4H86.5H71.2v-77.1h15.4V522.9z"/>
		<path d="M189.5,461.1h15.4v77.1h-15.4v-30.7h-30.9v30.7h-15.4v-77.1h15.4H189.5z M189.5,476.5h-30.9v15.5h30.9V476.5z"/>
		<path d="M261.5,461.1h15.4v15.4v15.5v15.4h-15.4v30.7h-15.4v-30.7h-15.5h-15.4v-46.4h15.4v31h30.9v-15.5V461.1z"/>
		<path d="M287.3,461.1H349v15.4h-46.3v15.5h30.9v15.4v30.7h-15.4h-30.9v-15.4h30.9v-15.4h-15.5h-15.4v-31V461.1z"/>
		<path d="M390.2,476.5H421v15.5h-30.8v46.2h-15.5h-15.4v-15.4h15.4v-30.8h-15.4v-15.5h15.4v-15.4h15.5V476.5z"/>
		<path d="M477.6,461.1H493v77.1h-15.4v-30.7h-30.9v30.7h-15.4v-77.1h15.4H477.6z M477.6,476.5h-30.9v15.5h30.9V476.5z"/>
		<path d="M534.3,476.5h30.8v15.5h-30.8v46.2h-15.5h-15.4v-15.4h15.4v-30.8h-15.4v-15.5h15.4v-15.4h15.5V476.5z"/>
		<path d="M621.7,522.9h15.4v15.4h-61.7v-15.4h30.9v-15.4h-15.5v-15.4h15.5h15.4V522.9z M621.7,476.5h-15.4v-15.4h15.4V476.5z"/>
		<path d="M693.7,476.5h15.4v15.5v30.8v15.4h-15.4h-30.9h-15.4v-61.7h15.4H693.7z M693.7,492.1h-30.9v30.8h30.9V492.1z"/>
		<path d="M734.9,461.1h46.2v15.4v15.5v30.8v15.4h-15.4v-15.4v-30.8v-15.5h-30.9v61.7h-15.4v-77.1H734.9z"/>
	</g>
	<g>
		<path d="M23.9,562.4v24.9H-0.9v-24.9H23.9z M-0.9,637.2h24.7v24.7v24.7H-0.9V637.2z M48.9,612.3h24.7v24.9v24.7H48.9v-24.7h-25
			v-24.9v-25h25V612.3z M73.7,562.4h24.7v24.9v25H73.7v-25V562.4z M73.7,686.7v-24.7h24.7v24.7H73.7z"/>
		<path d="M137.7,587.3h74.5v25v74.4h-24.7h-49.8h-24.7V562.4h24.7V587.3z M137.7,612.3v49.6h49.8v-49.6H137.7z"/>
		<path d="M301.2,587.3H326v25v49.6v24.7h-24.7h-49.8h-24.7v-99.4h24.7H301.2z M301.2,612.3h-49.8v49.6h49.8V612.3z"/>
		<path d="M365.2,562.4v24.9h-24.7v-24.9H365.2z M340.5,637.2h24.7v24.7v24.7h-24.7V637.2z M390.3,612.3H415v24.9v24.7h-24.7v-24.7
			h-25v-24.9v-25h25V612.3z M415,562.4h24.7v24.9v25H415v-25V562.4z M415,686.7v-24.7h24.7v24.7H415z"/>
		<path d="M454.3,562.4h99.3v24.9v25v24.9v24.7v24.7h-24.7h-74.5v-24.7h74.5v-24.7H479v-24.9h49.8v-25h-74.5V562.4z"/>
		<path d="M592.8,562.4h74.5v24.9h-74.5v25h74.5v24.9v24.7v24.7h-24.7h-49.8H568v-24.7v-99.6H592.8z M592.8,637.2v24.7h49.8v-24.7
			H592.8z"/>
		<path d="M756.3,562.4h24.7v99.6v24.7h-74.5h-24.7V562.4h24.7H756.3z M756.3,661.9v-74.7h-49.8v74.7H756.3z"/>
	</g>
	<g>
		<path d="M53.8,708.8H72V800H53.8v-36.3H17.3V800H-0.9v-91.2h18.2H53.8z M53.8,727.1H17.3v18.4h36.5V727.1z"/>
		<path d="M119.1,727.1h36.4v18.4h-36.4V800h-18.4H82.6v-18.2h18.2v-36.4H82.6v-18.4h18.2v-18.3h18.4V727.1z"/>
		<path d="M220.8,708.8h18.2V800h-18.2v-36.3h-36.5V800h-18.2v-91.2h18.2H220.8z M220.8,727.1h-36.5v18.4h36.5V727.1z"/>
		<path d="M267.7,708.8h54.7v18.3v36.6h-18.2V800h-18.2v-36.3h-18.4V800h-18.2v-91.2H267.7z M267.7,727.1v18.4h36.5v-18.4H267.7z"/>
		<path d="M387.8,781.8H406V800h-72.9v-18.2h36.5v-18.2h-18.4v-18.3h18.4h18.2V781.8z M387.8,727.1h-18.2v-18.3h18.2V727.1z"/>
		<path d="M512.5,708.8v18.3h-54.7v-18.3H512.5z M457.8,763.7H476v18.2h54.7V800H476h-18.2V763.7z M512.5,727.1h18.2v36.6h-18.2H476
			v-18.3h36.5V727.1z"/>
		<path d="M559.4,708.8h54.7v18.3h-54.7v18.4h54.7v18.3v18.2V800H596h-36.5h-18.2v-18.2v-73H559.4z M559.4,763.7v18.2H596v-18.2
			H559.4z"/>
		<path d="M679.5,708.8h18.2v73V800h-54.7h-18.2v-91.2h18.2H679.5z M679.5,781.8v-54.8h-36.5v54.8H679.5z"/>
		<path d="M762.9,708.8h18.2v73V800h-54.7h-18.2v-91.2h18.2H762.9z M762.9,781.8v-54.8h-36.5v54.8H762.9z"/>
	</g>
</g>
</svg>
