<?xml version="1.0" encoding="utf-8"?>
<!-- Generator: Adobe Illustrator 18.0.0, SVG Export Plug-In . SVG Version: 6.00 Build 0)  -->
<!DOCTYPE svg PUBLIC "-//W3C//DTD SVG 1.1//EN" "http://www.w3.org/Graphics/SVG/1.1/DTD/svg11.dtd">
<svg version="1.1" id="Layer_1" xmlns="http://www.w3.org/2000/svg" xmlns:xlink="http://www.w3.org/1999/xlink" x="0px" y="0px"
	 viewBox="0 0 844.9 600" enable-background="new 0 0 844.9 600" xml:space="preserve">
<g>
	<g>
		<path fill="#0000FF" d="M199.5,18.8c-1.4,4.4-2.1,9.2-2.1,14.2c0,5.1,0.7,9.9,2.2,14.4s3.5,8.5,6,12l-5.7,1.7
			c-2.6-3.9-4.6-8.2-6.1-12.9c-1.5-4.7-2.2-9.8-2.2-15.1c0-5.3,0.7-10.2,2.1-14.9c1.4-4.7,3.4-9,6-12.9l5.7,1.7
			C202.9,10.4,200.9,14.4,199.5,18.8z"/>
		<path fill="#0000FF" d="M240.4,8L258.9,52h-10.2l-4-9.5H226L222,52h-10.3L230.2,8H240.4z M241.1,34l-5.8-13.9L229.6,34H241.1z"/>
		<path fill="#0000FF" d="M278.2,43.5h18.1V52h-27.5V8h9.5V43.5z"/>
		<path fill="#0000FF" d="M298.5,8h32v8.6h-11.3V52h-9.5V16.5h-11.3V8z"/>
		<path fill="#0000FF" d="M340.4,8h27.5v8.6h-18.1v8h15.9v8.6h-15.9v10.4h18.1V52h-27.5V8z"/>
		<path fill="#0000FF" d="M411.1,21.1c0,1.4-0.2,2.7-0.6,4c-0.4,1.3-0.9,2.4-1.6,3.5c-0.7,1.1-1.6,2-2.5,2.8c-1,0.8-2.1,1.5-3.2,2
			L417.7,52h-11l-13.6-17.8h-4.2V52h-9.5V8h19c1.7,0,3.4,0.3,4.9,1s2.9,1.6,4,2.8c1.1,1.2,2,2.6,2.7,4.2
			C410.8,17.5,411.1,19.3,411.1,21.1z M397.3,25.7c1.2,0,2.2-0.4,3.1-1.3c0.9-0.9,1.3-2,1.3-3.3c0-1.2-0.4-2.3-1.3-3.2
			c-0.9-0.9-1.9-1.3-3.1-1.3h-8.4v9.1H397.3z"/>
		<path fill="#0000FF" d="M457.9,8h9.5V52h-9l-21.1-28.8V52h-9.5V8h8.8l21.3,29V8z"/>
		<path fill="#0000FF" d="M505.9,8L524.3,52h-10.2l-4-9.5h-18.7l-3.9,9.5h-10.3L495.6,8H505.9z M506.5,34l-5.8-13.9L495,34H506.5z"
			/>
		<path fill="#0000FF" d="M526.4,8h32v8.6h-11.3V52h-9.5V16.5h-11.3V8z"/>
		<path fill="#0000FF" d="M568.3,8h27.5v8.6h-18.1v8h15.9v8.6h-15.9v10.4h18.1V52h-27.5V8z"/>
		<path fill="#0000FF" d="M635.4,29.4c1.7,1,3.1,2.4,4,4c0.9,1.6,1.4,3.5,1.4,5.6c0,2-0.5,3.8-1.4,5.6c-1,1.7-2.3,3.2-4,4.6
			c-1.6,1.2-3.4,2.1-5.4,2.8c-2,0.6-4.1,1-6.4,1c-2.2,0-4.4-0.3-6.4-0.9c-2-0.6-3.8-1.6-5.4-2.8c-2.4-1.8-4-3.9-4.8-6.5l8.7-4
			c0,0.4,0.1,0.9,0.4,1.6c0.3,0.6,0.7,1.2,1.4,1.8c0.6,0.6,1.4,1.1,2.4,1.5c1,0.4,2.2,0.6,3.7,0.6c1.2,0,2.2-0.1,3.1-0.4
			c0.9-0.3,1.6-0.7,2.2-1.1c0.6-0.4,1.1-0.9,1.4-1.5c0.3-0.6,0.5-1.1,0.5-1.7c0-0.7-0.2-1.3-0.7-1.9c-0.4-0.6-1.1-1-2-1.4
			c-1.7-0.6-3.4-1.1-5.3-1.5c-1.8-0.4-3.6-0.9-5.4-1.5c-1.7-0.6-3.4-1.4-4.8-2.4c-1.5-1-2.7-2.4-3.5-4.2c-0.8-1.6-1.2-3.3-1.2-5
			c0-2,0.5-3.9,1.4-5.8c0.9-1.9,2.2-3.4,3.8-4.7c1.5-1.2,3.3-2.1,5.2-2.8c1.9-0.6,3.9-1,6-1c2.1,0,4.1,0.3,6.1,0.9
			c1.9,0.6,3.7,1.5,5.2,2.7c1.5,1.1,2.7,2.4,3.5,3.9l-7.1,4.9c-0.9-1.2-2-2.2-3.3-2.9c-1.3-0.7-2.8-1.1-4.4-1.1
			c-2.2,0-4,0.5-5.2,1.5c-1.2,1-1.8,2.3-1.8,3.9c0,0.7,0.3,1.4,1,2c0.7,0.6,1.6,1.1,2.7,1.6c1.1,0.5,2.3,0.9,3.7,1.2
			c1.4,0.4,2.7,0.7,4.1,1.1c1.3,0.4,2.6,0.7,3.8,1.1C633.7,28.5,634.7,28.9,635.4,29.4z"/>
		<path fill="#0000FF" d="M657.2,5.2c2.6,3.9,4.6,8.2,6,12.9c1.4,4.7,2.1,9.7,2.1,14.9c0,5.3-0.7,10.4-2.2,15.1
			c-1.5,4.7-3.5,9-6.1,12.9l-5.7-1.7c2.6-3.5,4.6-7.5,6-12s2.2-9.3,2.2-14.4c0-5-0.7-9.7-2.1-14.2c-1.4-4.4-3.4-8.4-5.9-11.9
			L657.2,5.2z"/>
		<path d="M64.6,84c3,0,5.8,0.6,8.5,1.8c2.7,1.2,5,2.8,6.9,4.9c2,2.1,3.5,4.5,4.7,7.2c1.1,2.7,1.7,5.7,1.7,8.8c0,3.1-0.6,6-1.7,8.8
			c-1.1,2.8-2.7,5.2-4.7,7.3c-2,2.1-4.3,3.7-6.9,4.9c-2.7,1.2-5.5,1.8-8.5,1.8c-3,0-5.8-0.6-8.5-1.8c-2.7-1.2-5-2.9-6.9-4.9
			c-1.9-2.1-3.5-4.5-4.6-7.3c-1.1-2.8-1.7-5.7-1.7-8.8c0-3.1,0.6-6,1.7-8.8s2.7-5.1,4.6-7.2c1.9-2.1,4.2-3.7,6.9-4.9
			C58.8,84.6,61.7,84,64.6,84z M64.7,120.1c1.7,0,3.3-0.4,4.8-1.1c1.5-0.7,2.8-1.7,3.9-2.9c1.1-1.2,2-2.6,2.6-4.3
			c0.6-1.6,1-3.4,1-5.2c0-1.9-0.3-3.6-1-5.3c-0.6-1.6-1.5-3.1-2.6-4.3c-1.1-1.2-2.4-2.2-3.9-2.9c-1.5-0.7-3.1-1.1-4.8-1.1
			c-1.7,0-3.3,0.4-4.8,1.1c-1.5,0.7-2.8,1.7-3.9,2.9c-1.1,1.2-2,2.7-2.6,4.3c-0.6,1.6-1,3.4-1,5.3c0,1.9,0.3,3.6,1,5.2
			c0.6,1.6,1.5,3,2.6,4.3c1.1,1.2,2.4,2.2,3.9,2.9C61.4,119.7,63,120.1,64.7,120.1z"/>
		<path d="M126.6,84.6h9.5v44.1h-9.5v-19h-20.1v19H97V84.6h9.5v16.5h20.1V84.6z"/>
		<path d="M149.6,120.8h9.6l-5.1,16.9h-6.6L149.6,120.8z"/>
		<path d="M212.4,84.6c3.2,0,6,0.6,8.5,1.7c2.4,1.2,4.5,2.7,6.1,4.7c1.6,2,2.9,4.3,3.7,7c0.8,2.7,1.3,5.6,1.3,8.6
			c0,3.1-0.4,5.9-1.3,8.6c-0.9,2.7-2.1,5-3.7,7c-1.6,2-3.4,3.6-5.6,4.7c-2.2,1.1-4.5,1.7-7,1.7h-19.7V84.6H212.4z M212.5,120.1
			c1.8,0,3.3-0.4,4.6-1.1c1.3-0.7,2.3-1.7,3.1-2.9c0.8-1.2,1.4-2.7,1.8-4.3c0.4-1.6,0.6-3.3,0.6-5.1c0-1.8-0.2-3.5-0.6-5.1
			c-0.4-1.6-1-3.1-1.8-4.3c-0.8-1.2-1.9-2.2-3.2-3c-1.3-0.7-2.8-1.1-4.6-1.1h-8.4v26.9H212.5z"/>
		<path d="M242.7,84.6h27.5v8.6h-18.1v8h15.9v8.6h-15.9v10.4h18.1v8.6h-27.5V84.6z"/>
		<path d="M309.8,106c1.7,1,3.1,2.4,4,4c0.9,1.6,1.4,3.5,1.4,5.6c0,2-0.5,3.8-1.4,5.6c-1,1.7-2.3,3.2-4,4.6
			c-1.6,1.2-3.4,2.1-5.4,2.8c-2,0.6-4.1,1-6.4,1c-2.2,0-4.4-0.3-6.4-0.9c-2-0.6-3.8-1.6-5.4-2.8c-2.4-1.8-4-3.9-4.8-6.5l8.7-4
			c0,0.4,0.1,0.9,0.4,1.6c0.3,0.6,0.7,1.2,1.4,1.8c0.6,0.6,1.4,1.1,2.4,1.5c1,0.4,2.2,0.6,3.7,0.6c1.2,0,2.2-0.1,3.1-0.4
			c0.9-0.3,1.6-0.7,2.2-1.1c0.6-0.4,1.1-0.9,1.4-1.5c0.3-0.6,0.5-1.1,0.5-1.7c0-0.7-0.2-1.3-0.7-1.9c-0.4-0.6-1.1-1-2-1.4
			c-1.7-0.6-3.4-1.1-5.3-1.5c-1.8-0.4-3.6-0.9-5.4-1.5c-1.7-0.6-3.4-1.4-4.8-2.4c-1.5-1-2.7-2.4-3.5-4.2c-0.8-1.6-1.2-3.3-1.2-5
			c0-2,0.5-3.9,1.4-5.8c0.9-1.9,2.2-3.4,3.8-4.7c1.5-1.2,3.3-2.1,5.2-2.8c1.9-0.6,3.9-1,6-1c2.1,0,4.1,0.3,6.1,0.9
			c1.9,0.6,3.7,1.5,5.2,2.7c1.5,1.1,2.7,2.4,3.5,3.9l-7.1,4.9c-0.9-1.2-2-2.2-3.3-2.9c-1.3-0.7-2.8-1.1-4.4-1.1
			c-2.2,0-4,0.5-5.2,1.5c-1.2,1-1.8,2.3-1.8,3.9c0,0.7,0.3,1.4,1,2c0.7,0.6,1.6,1.1,2.7,1.6c1.1,0.5,2.3,0.9,3.7,1.2
			c1.4,0.4,2.7,0.7,4.1,1.1c1.3,0.4,2.6,0.7,3.8,1.1C308.1,105.1,309,105.5,309.8,106z"/>
		<path d="M341.7,84.6v8h-3.3v28.2h3.3v7.9h-16v-7.9h3.3V92.5h-3.3v-8H341.7z"/>
		<path d="M374.9,103.7h16.7v16.2c-2.5,3.2-5.2,5.5-8.3,7.2c-3,1.6-6.2,2.4-9.5,2.4c-3,0-5.8-0.6-8.5-1.8c-2.7-1.2-5-2.9-6.9-4.9
			c-1.9-2.1-3.5-4.5-4.6-7.2c-1.1-2.8-1.7-5.7-1.7-8.8c0-3.1,0.6-6,1.7-8.8s2.7-5.1,4.6-7.2c1.9-2.1,4.2-3.7,6.9-4.9
			c2.7-1.2,5.5-1.8,8.5-1.8c2.8,0,5.5,0.5,8,1.6c2.5,1,4.9,2.8,7.3,5.2l-5.5,6.7c-1.7-1.6-3.4-2.7-4.9-3.3c-1.5-0.6-3.2-0.8-4.8-0.8
			c-1.7,0-3.4,0.4-4.9,1.1c-1.5,0.7-2.8,1.7-3.9,2.9c-1.1,1.2-2,2.6-2.6,4.3c-0.6,1.6-1,3.4-1,5.3c0,1.9,0.3,3.6,1,5.2
			c0.6,1.6,1.5,3,2.6,4.3c1.1,1.2,2.4,2.2,3.9,2.9c1.5,0.7,3.1,1.1,4.9,1.1c1.5,0,3.1-0.3,4.6-0.8c1.5-0.6,3-1.5,4.6-2.8v-4.8h-8.1
			V103.7z"/>
		<path d="M432.3,84.6h9.5v44.1h-9l-21.1-28.8v28.8h-9.5V84.6h8.8l21.3,29V84.6z"/>
		<path d="M491.9,84.6v8h-3.3v28.2h3.3v7.9h-16v-7.9h3.3V92.5h-3.3v-8H491.9z"/>
		<path d="M531.3,106c1.7,1,3.1,2.4,4,4c0.9,1.6,1.4,3.5,1.4,5.6c0,2-0.5,3.8-1.4,5.6c-1,1.7-2.3,3.2-4,4.6
			c-1.6,1.2-3.4,2.1-5.4,2.8c-2,0.6-4.1,1-6.4,1c-2.2,0-4.4-0.3-6.4-0.9c-2-0.6-3.8-1.6-5.4-2.8c-2.4-1.8-4-3.9-4.9-6.5l8.7-4
			c0,0.4,0.1,0.9,0.4,1.6c0.3,0.6,0.7,1.2,1.4,1.8c0.6,0.6,1.4,1.1,2.4,1.5c1,0.4,2.2,0.6,3.7,0.6c1.2,0,2.2-0.1,3.1-0.4
			c0.9-0.3,1.6-0.7,2.2-1.1c0.6-0.4,1.1-0.9,1.4-1.5c0.3-0.6,0.5-1.1,0.5-1.7c0-0.7-0.2-1.3-0.7-1.9c-0.4-0.6-1.1-1-2-1.4
			c-1.7-0.6-3.4-1.1-5.3-1.5c-1.8-0.4-3.6-0.9-5.4-1.5c-1.7-0.6-3.4-1.4-4.8-2.4c-1.5-1-2.7-2.4-3.5-4.2c-0.8-1.6-1.2-3.3-1.2-5
			c0-2,0.5-3.9,1.4-5.8c0.9-1.9,2.2-3.4,3.8-4.7c1.5-1.2,3.3-2.1,5.2-2.8c1.9-0.6,3.9-1,6-1c2.1,0,4.1,0.3,6.1,0.9
			c1.9,0.6,3.7,1.5,5.2,2.7c1.5,1.1,2.7,2.4,3.5,3.9l-7.1,4.9c-0.9-1.2-2-2.2-3.3-2.9c-1.3-0.7-2.8-1.1-4.4-1.1
			c-2.2,0-4,0.5-5.2,1.5s-1.8,2.3-1.8,3.9c0,0.7,0.3,1.4,1,2c0.7,0.6,1.6,1.1,2.7,1.6c1.1,0.5,2.3,0.9,3.7,1.2
			c1.4,0.4,2.7,0.7,4.1,1.1c1.3,0.4,2.6,0.7,3.8,1.1C529.6,105.1,530.6,105.5,531.3,106z"/>
		<path d="M597.9,106c1.7,1,3.1,2.4,4,4c0.9,1.6,1.4,3.5,1.4,5.6c0,2-0.5,3.8-1.4,5.6c-1,1.7-2.3,3.2-4,4.6
			c-1.6,1.2-3.4,2.1-5.4,2.8c-2,0.6-4.1,1-6.4,1c-2.2,0-4.4-0.3-6.4-0.9c-2-0.6-3.8-1.6-5.4-2.8c-2.4-1.8-4-3.9-4.8-6.5l8.7-4
			c0,0.4,0.1,0.9,0.4,1.6c0.3,0.6,0.7,1.2,1.4,1.8c0.6,0.6,1.4,1.1,2.4,1.5c1,0.4,2.2,0.6,3.7,0.6c1.2,0,2.2-0.1,3.1-0.4
			c0.9-0.3,1.6-0.7,2.2-1.1c0.6-0.4,1.1-0.9,1.4-1.5c0.3-0.6,0.5-1.1,0.5-1.7c0-0.7-0.2-1.3-0.7-1.9c-0.4-0.6-1.1-1-2-1.4
			c-1.7-0.6-3.4-1.1-5.3-1.5c-1.8-0.4-3.6-0.9-5.4-1.5c-1.7-0.6-3.4-1.4-4.8-2.4c-1.5-1-2.7-2.4-3.5-4.2c-0.8-1.6-1.2-3.3-1.2-5
			c0-2,0.5-3.9,1.4-5.8c0.9-1.9,2.2-3.4,3.8-4.7c1.5-1.2,3.3-2.1,5.2-2.8c1.9-0.6,3.9-1,6-1c2.1,0,4.1,0.3,6.1,0.9
			c1.9,0.6,3.7,1.5,5.2,2.7c1.5,1.1,2.7,2.4,3.5,3.9l-7.1,4.9c-0.9-1.2-2-2.2-3.3-2.9c-1.3-0.7-2.8-1.1-4.4-1.1
			c-2.2,0-4,0.5-5.2,1.5c-1.2,1-1.8,2.3-1.8,3.9c0,0.7,0.3,1.4,1,2c0.7,0.6,1.6,1.1,2.7,1.6c1.1,0.5,2.3,0.9,3.7,1.2
			c1.4,0.4,2.7,0.7,4.1,1.1c1.3,0.4,2.6,0.7,3.8,1.1C596.2,105.1,597.2,105.5,597.9,106z"/>
		<path d="M668.3,84.6h9.8l-12.4,44.1H654L644.9,99l-9.1,29.7h-11.6l-12.4-44.1h9.8l8.7,33.3l10-33.3h9.1l10.1,33.6L668.3,84.6z"/>
		<path d="M687.7,84.6h27.5v8.6h-18.1v8h15.9v8.6h-15.9v10.4h18.1v8.6h-27.5V84.6z"/>
		<path d="M736.2,120.1h18.1v8.6h-27.5V84.6h9.5V120.1z"/>
		<path d="M772.9,120.1H791v8.6h-27.5V84.6h9.5V120.1z"/>
		<path d="M802.3,120.8h9.6l-5.1,16.9h-6.6L802.3,120.8z"/>
		<path d="M151.1,161.2c3.2,0,6,0.6,8.5,1.7c2.4,1.2,4.5,2.7,6.1,4.7c1.6,2,2.9,4.3,3.7,7c0.9,2.7,1.3,5.6,1.3,8.6
			c0,3.1-0.4,5.9-1.3,8.6c-0.9,2.7-2.1,5-3.7,7c-1.6,2-3.4,3.6-5.6,4.7c-2.2,1.1-4.5,1.7-7,1.7h-19.7v-44.1H151.1z M151.1,196.7
			c1.8,0,3.3-0.4,4.6-1.1c1.3-0.7,2.3-1.7,3.1-2.9c0.8-1.2,1.4-2.7,1.8-4.3c0.4-1.6,0.6-3.3,0.6-5.1c0-1.8-0.2-3.5-0.6-5.1
			c-0.4-1.6-1-3.1-1.8-4.3c-0.8-1.2-1.9-2.2-3.2-3c-1.3-0.7-2.8-1.1-4.6-1.1h-8.4v26.9H151.1z"/>
		<path d="M181.4,161.2h27.5v8.6h-18.1v8h15.9v8.6h-15.9v10.4h18.1v8.6h-27.5V161.2z"/>
		<path d="M248.5,182.6c1.7,1,3.1,2.4,4,4c0.9,1.6,1.4,3.5,1.4,5.6c0,2-0.5,3.8-1.4,5.6c-1,1.7-2.3,3.2-4,4.6
			c-1.6,1.2-3.4,2.1-5.4,2.8c-2,0.6-4.1,1-6.4,1c-2.2,0-4.4-0.3-6.4-0.9c-2-0.6-3.8-1.6-5.4-2.8c-2.4-1.8-4-3.9-4.8-6.5l8.7-4
			c0,0.4,0.1,0.9,0.4,1.6c0.3,0.6,0.7,1.2,1.4,1.8c0.6,0.6,1.4,1.1,2.4,1.5c1,0.4,2.2,0.6,3.7,0.6c1.2,0,2.2-0.1,3.1-0.4
			c0.9-0.3,1.6-0.7,2.2-1.1c0.6-0.4,1.1-0.9,1.4-1.5c0.3-0.6,0.5-1.1,0.5-1.7c0-0.7-0.2-1.3-0.7-1.9c-0.4-0.6-1.1-1-2-1.4
			c-1.7-0.6-3.4-1.1-5.3-1.5c-1.8-0.4-3.6-0.9-5.4-1.5c-1.7-0.6-3.4-1.4-4.8-2.4c-1.5-1-2.7-2.4-3.5-4.2c-0.8-1.6-1.2-3.3-1.2-5
			c0-2,0.5-3.9,1.4-5.8c0.9-1.9,2.2-3.4,3.8-4.7c1.5-1.2,3.3-2.1,5.2-2.8c1.9-0.6,3.9-1,6-1c2.1,0,4.1,0.3,6.1,0.9
			c1.9,0.6,3.7,1.5,5.2,2.7c1.5,1.1,2.7,2.4,3.5,3.9l-7.1,4.9c-0.9-1.2-2-2.2-3.3-2.9c-1.3-0.7-2.8-1.1-4.4-1.1
			c-2.2,0-4,0.5-5.2,1.5c-1.2,1-1.8,2.3-1.8,3.9c0,0.7,0.3,1.4,1,2c0.7,0.6,1.6,1.1,2.7,1.6c1.1,0.5,2.3,0.9,3.7,1.2
			c1.4,0.4,2.7,0.7,4.1,1.1c1.3,0.4,2.6,0.7,3.8,1.1C246.7,181.7,247.7,182.1,248.5,182.6z"/>
		<path d="M280.4,161.2v8h-3.3v28.2h3.3v7.9h-16v-7.9h3.3v-28.2h-3.3v-8H280.4z"/>
		<path d="M313.6,180.4h16.7v16.2c-2.5,3.2-5.2,5.5-8.3,7.2c-3,1.6-6.2,2.4-9.5,2.4c-3,0-5.8-0.6-8.5-1.8c-2.7-1.2-5-2.9-6.9-4.9
			c-1.9-2.1-3.5-4.5-4.6-7.2c-1.1-2.8-1.7-5.7-1.7-8.8c0-3.1,0.6-6,1.7-8.8s2.7-5.1,4.6-7.2c1.9-2.1,4.2-3.7,6.9-4.9
			c2.7-1.2,5.5-1.8,8.5-1.8c2.8,0,5.5,0.5,8,1.6c2.5,1,4.9,2.8,7.3,5.2l-5.5,6.7c-1.7-1.6-3.4-2.7-4.9-3.3c-1.5-0.6-3.2-0.8-4.8-0.8
			c-1.7,0-3.4,0.4-4.9,1.1c-1.5,0.7-2.8,1.7-3.9,2.9c-1.1,1.2-2,2.6-2.6,4.3c-0.6,1.6-1,3.4-1,5.3c0,1.9,0.3,3.6,1,5.2
			c0.6,1.6,1.5,3,2.6,4.3c1.1,1.2,2.4,2.2,3.9,2.9c1.5,0.7,3.1,1.1,4.9,1.1c1.5,0,3.1-0.3,4.6-0.8c1.5-0.6,3-1.5,4.6-2.8v-4.8h-8.1
			V180.4z"/>
		<path d="M371,161.2h9.5v44.1h-9l-21.1-28.8v28.8h-9.5v-44.1h8.8l21.3,29V161.2z"/>
		<path d="M430.6,161.2v8h-3.3v28.2h3.3v7.9h-16v-7.9h3.3v-28.2h-3.3v-8H430.6z"/>
		<path d="M470,182.6c1.7,1,3.1,2.4,4,4c0.9,1.6,1.4,3.5,1.4,5.6c0,2-0.5,3.8-1.4,5.6c-1,1.7-2.3,3.2-4,4.6
			c-1.6,1.2-3.4,2.1-5.4,2.8c-2,0.6-4.1,1-6.4,1c-2.2,0-4.4-0.3-6.4-0.9c-2-0.6-3.8-1.6-5.4-2.8c-2.4-1.8-4-3.9-4.8-6.5l8.7-4
			c0,0.4,0.1,0.9,0.4,1.6c0.3,0.6,0.7,1.2,1.4,1.8c0.6,0.6,1.4,1.1,2.4,1.5c1,0.4,2.2,0.6,3.7,0.6c1.2,0,2.2-0.1,3.1-0.4
			c0.9-0.3,1.6-0.7,2.2-1.1c0.6-0.4,1.1-0.9,1.4-1.5c0.3-0.6,0.5-1.1,0.5-1.7c0-0.7-0.2-1.3-0.7-1.9c-0.4-0.6-1.1-1-2-1.4
			c-1.7-0.6-3.4-1.1-5.3-1.5c-1.8-0.4-3.6-0.9-5.4-1.5c-1.7-0.6-3.4-1.4-4.8-2.4c-1.5-1-2.7-2.4-3.5-4.2c-0.8-1.6-1.2-3.3-1.2-5
			c0-2,0.5-3.9,1.4-5.8c0.9-1.9,2.2-3.4,3.8-4.7c1.5-1.2,3.3-2.1,5.2-2.8c1.9-0.6,3.9-1,6-1c2.1,0,4.1,0.3,6.1,0.9
			c1.9,0.6,3.7,1.5,5.2,2.7c1.5,1.1,2.7,2.4,3.5,3.9l-7.1,4.9c-0.9-1.2-2-2.2-3.3-2.9c-1.3-0.7-2.8-1.1-4.4-1.1
			c-2.2,0-4,0.5-5.2,1.5c-1.2,1-1.8,2.3-1.8,3.9c0,0.7,0.3,1.4,1,2c0.7,0.6,1.6,1.1,2.7,1.6c1.1,0.5,2.3,0.9,3.7,1.2
			c1.4,0.4,2.7,0.7,4.1,1.1c1.3,0.4,2.6,0.7,3.8,1.1C468.3,181.7,469.3,182.1,470,182.6z"/>
		<path d="M536.6,182.6c1.7,1,3.1,2.4,4,4c0.9,1.6,1.4,3.5,1.4,5.6c0,2-0.5,3.8-1.4,5.6c-1,1.7-2.3,3.2-4,4.6
			c-1.6,1.2-3.4,2.1-5.4,2.8c-2,0.6-4.1,1-6.4,1c-2.2,0-4.4-0.3-6.4-0.9c-2-0.6-3.8-1.6-5.4-2.8c-2.4-1.8-4-3.9-4.9-6.5l8.7-4
			c0,0.4,0.1,0.9,0.4,1.6c0.3,0.6,0.7,1.2,1.4,1.8c0.6,0.6,1.4,1.1,2.4,1.5c1,0.4,2.2,0.6,3.7,0.6c1.2,0,2.2-0.1,3.1-0.4
			c0.9-0.3,1.6-0.7,2.2-1.1c0.6-0.4,1.1-0.9,1.4-1.5c0.3-0.6,0.5-1.1,0.5-1.7c0-0.7-0.2-1.3-0.7-1.9c-0.4-0.6-1.1-1-2-1.4
			c-1.7-0.6-3.4-1.1-5.3-1.5c-1.8-0.4-3.6-0.9-5.4-1.5c-1.7-0.6-3.4-1.4-4.8-2.4c-1.5-1-2.7-2.4-3.5-4.2c-0.8-1.6-1.2-3.3-1.2-5
			c0-2,0.5-3.9,1.4-5.8c0.9-1.9,2.2-3.4,3.8-4.7c1.5-1.2,3.3-2.1,5.2-2.8c1.9-0.6,3.9-1,6-1c2.1,0,4.1,0.3,6.1,0.9
			c1.9,0.6,3.7,1.5,5.2,2.7c1.5,1.1,2.7,2.4,3.5,3.9l-7.1,4.9c-0.9-1.2-2-2.2-3.3-2.9c-1.3-0.7-2.8-1.1-4.4-1.1
			c-2.2,0-4,0.5-5.2,1.5s-1.8,2.3-1.8,3.9c0,0.7,0.3,1.4,1,2c0.7,0.6,1.6,1.1,2.7,1.6c1.1,0.5,2.3,0.9,3.7,1.2
			c1.4,0.4,2.7,0.7,4.1,1.1c1.3,0.4,2.6,0.7,3.8,1.1C534.9,181.7,535.9,182.1,536.6,182.6z"/>
		<path d="M607,161.2h9.8l-12.4,44.1h-11.7l-9.1-29.7l-9.1,29.7h-11.6l-12.4-44.1h9.8l8.7,33.3l10-33.3h9.1l10.1,33.6L607,161.2z"/>
		<path d="M626.4,161.2H654v8.6h-18.1v8h15.9v8.6h-15.9v10.4H654v8.6h-27.5V161.2z"/>
		<path d="M674.9,196.7H693v8.6h-27.5v-44.1h9.5V196.7z"/>
		<path d="M711.6,196.7h18.1v8.6h-27.5v-44.1h9.5V196.7z"/>
		<path d="M79,237.8c3.2,0,6,0.6,8.5,1.7c2.4,1.2,4.5,2.7,6.1,4.7c1.6,2,2.9,4.3,3.7,7c0.8,2.7,1.3,5.6,1.3,8.6
			c0,3.1-0.4,5.9-1.3,8.6s-2.1,5-3.7,7s-3.4,3.6-5.6,4.7c-2.2,1.1-4.5,1.7-7,1.7H61.2v-44.1H79z M79,273.3c1.8,0,3.3-0.4,4.6-1.1
			c1.3-0.7,2.3-1.7,3.1-2.9c0.8-1.2,1.4-2.7,1.8-4.3c0.4-1.6,0.6-3.3,0.6-5.1c0-1.8-0.2-3.5-0.6-5.1c-0.4-1.6-1-3.1-1.8-4.3
			c-0.8-1.2-1.9-2.2-3.2-3c-1.3-0.7-2.8-1.1-4.6-1.1h-8.4v26.9H79z"/>
		<path d="M109.2,237.8h27.5v8.6h-18.1v8h15.9v8.6h-15.9v10.4h18.1v8.6h-27.5V237.8z"/>
		<path d="M176.3,259.2c1.7,1,3.1,2.4,4,4c0.9,1.6,1.4,3.5,1.4,5.6c0,2-0.5,3.8-1.4,5.6c-1,1.7-2.3,3.2-4,4.6
			c-1.6,1.2-3.4,2.1-5.4,2.8c-2,0.6-4.1,1-6.4,1c-2.2,0-4.4-0.3-6.4-0.9c-2-0.6-3.8-1.6-5.4-2.8c-2.4-1.8-4-3.9-4.9-6.5l8.7-4
			c0,0.4,0.1,0.9,0.4,1.6c0.3,0.6,0.7,1.2,1.4,1.8c0.6,0.6,1.4,1.1,2.4,1.5c1,0.4,2.2,0.6,3.7,0.6c1.2,0,2.2-0.1,3.1-0.4
			c0.9-0.3,1.6-0.7,2.2-1.1c0.6-0.4,1.1-0.9,1.4-1.5c0.3-0.6,0.5-1.1,0.5-1.7c0-0.7-0.2-1.3-0.7-1.9c-0.4-0.6-1.1-1-2-1.4
			c-1.7-0.6-3.4-1.1-5.3-1.5c-1.8-0.4-3.6-0.9-5.4-1.5c-1.7-0.6-3.4-1.4-4.8-2.4c-1.5-1-2.7-2.4-3.5-4.2c-0.8-1.6-1.2-3.3-1.2-5
			c0-2,0.5-3.9,1.4-5.8c0.9-1.9,2.2-3.4,3.8-4.7c1.5-1.2,3.3-2.1,5.2-2.8c1.9-0.6,3.9-1,6-1c2.1,0,4.1,0.3,6.1,0.9
			c1.9,0.6,3.7,1.5,5.2,2.7c1.5,1.1,2.7,2.4,3.5,3.9l-7.1,4.9c-0.9-1.2-2-2.2-3.3-2.9c-1.3-0.7-2.8-1.1-4.4-1.1
			c-2.2,0-4,0.5-5.2,1.5s-1.8,2.3-1.8,3.9c0,0.7,0.3,1.4,1,2c0.7,0.6,1.6,1.1,2.7,1.6c1.1,0.5,2.3,0.9,3.7,1.2
			c1.4,0.4,2.7,0.7,4.1,1.1c1.3,0.4,2.6,0.7,3.8,1.1C174.6,258.4,175.6,258.8,176.3,259.2z"/>
		<path d="M208.2,237.8v8h-3.3V274h3.3v7.9h-16V274h3.3v-28.2h-3.3v-8H208.2z"/>
		<path d="M241.4,257h16.7v16.2c-2.5,3.2-5.2,5.5-8.3,7.2c-3,1.6-6.2,2.4-9.5,2.4c-3,0-5.8-0.6-8.5-1.8c-2.7-1.2-5-2.9-6.9-4.9
			c-1.9-2.1-3.5-4.5-4.6-7.2c-1.1-2.8-1.7-5.7-1.7-8.8c0-3.1,0.6-6,1.7-8.8c1.1-2.7,2.7-5.1,4.6-7.2c1.9-2.1,4.2-3.7,6.9-4.9
			c2.7-1.2,5.5-1.8,8.5-1.8c2.8,0,5.5,0.5,8,1.6c2.5,1,4.9,2.8,7.3,5.2l-5.5,6.7c-1.7-1.6-3.4-2.7-4.9-3.3c-1.5-0.6-3.2-0.8-4.9-0.8
			c-1.7,0-3.4,0.4-4.9,1.1c-1.5,0.7-2.8,1.7-3.9,2.9c-1.1,1.2-2,2.6-2.6,4.3c-0.6,1.6-1,3.4-1,5.3c0,1.9,0.3,3.6,1,5.2
			c0.6,1.6,1.5,3,2.6,4.3c1.1,1.2,2.4,2.2,3.9,2.9c1.5,0.7,3.1,1.1,4.9,1.1c1.5,0,3.1-0.3,4.6-0.8s3-1.5,4.6-2.8v-4.8h-8.1V257z"/>
		<path d="M298.9,237.8h9.5v44.1h-9l-21.1-28.8v28.8h-9.5v-44.1h8.8l21.3,29V237.8z"/>
		<path d="M369.5,237.8l18.4,44.1h-10.2l-4-9.5h-18.7l-3.9,9.5h-10.3l18.4-44.1H369.5z M370.2,263.9l-5.8-13.9l-5.8,13.9H370.2z"/>
		<path d="M407.3,273.3h18.1v8.6h-27.5v-44.1h9.5V273.3z"/>
		<path d="M444,273.3h18.1v8.6h-27.5v-44.1h9.5V273.3z"/>
		<path d="M485.6,237.8h32v8.6h-11.3v35.5h-9.5v-35.5h-11.3V237.8z"/>
		<path d="M557,237.8h9.5v44.1H557v-19h-20.1v19h-9.5v-44.1h9.5v16.5H557V237.8z"/>
		<path d="M578,237.8h27.5v8.6h-18.1v8h15.9v8.6h-15.9v10.4h18.1v8.6H578V237.8z"/>
		<path d="M694.2,237.8h9.8l-12.4,44.1h-11.7l-9.1-29.7l-9.1,29.7h-11.6l-12.4-44.1h9.8l8.7,33.3l10-33.3h9.1l10.1,33.6L694.2,237.8
			z"/>
		<path d="M736.4,237.8l18.4,44.1h-10.2l-4-9.5h-18.7l-3.9,9.5h-10.3l18.4-44.1H736.4z M737.1,263.9l-5.8-13.9l-5.8,13.9H737.1z"/>
		<path d="M786.3,237.8h11.4L782,261.3v20.6h-9.5v-20.6l-15.7-23.4h11.4l9.1,13.6L786.3,237.8z"/>
		<path d="M105.6,313.8c3,0,5.8,0.6,8.5,1.8c2.7,1.2,5,2.8,6.9,4.9c2,2.1,3.5,4.5,4.7,7.2c1.1,2.7,1.7,5.7,1.7,8.8
			c0,3.1-0.6,6-1.7,8.8c-1.1,2.8-2.7,5.2-4.7,7.3c-2,2.1-4.3,3.7-6.9,4.9c-2.7,1.2-5.5,1.8-8.5,1.8c-3,0-5.8-0.6-8.5-1.8
			c-2.7-1.2-5-2.9-6.9-4.9c-1.9-2.1-3.5-4.5-4.6-7.3c-1.1-2.8-1.7-5.7-1.7-8.8c0-3.1,0.6-6,1.7-8.8s2.7-5.1,4.6-7.2
			c1.9-2.1,4.2-3.7,6.9-4.9S102.6,313.8,105.6,313.8z M105.6,350c1.7,0,3.3-0.4,4.8-1.1c1.5-0.7,2.8-1.7,3.9-2.9
			c1.1-1.2,2-2.6,2.6-4.3c0.6-1.6,1-3.4,1-5.2c0-1.9-0.3-3.6-1-5.3s-1.5-3.1-2.6-4.3c-1.1-1.2-2.4-2.2-3.9-2.9
			c-1.5-0.7-3.1-1.1-4.8-1.1s-3.3,0.4-4.8,1.1c-1.5,0.7-2.8,1.7-3.9,2.9c-1.1,1.2-2,2.7-2.6,4.3s-1,3.4-1,5.3c0,1.9,0.3,3.6,1,5.2
			c0.6,1.6,1.5,3,2.6,4.3c1.1,1.2,2.4,2.2,3.9,2.9C102.3,349.6,103.9,350,105.6,350z"/>
		<path d="M167.5,314.5h9.5v44.1h-9.5v-19h-20.1v19h-9.5v-44.1h9.5V331h20.1V314.5z"/>
		<path d="M190.5,350.6h9.6l-5.1,16.9h-6.6L190.5,350.6z"/>
		<path d="M289.9,314.5h9.8l-12.4,44.1h-11.7l-9.1-29.7l-9.1,29.7h-11.6l-12.4-44.1h9.8l8.7,33.3l10-33.3h9.1l10.1,33.6L289.9,314.5
			z"/>
		<path d="M338.9,314.5h9.5v44.1h-9.5v-19h-20.1v19h-9.5v-44.1h9.5V331h20.1V314.5z"/>
		<path d="M387,314.5l18.4,44.1h-10.2l-4-9.5h-18.7l-3.9,9.5h-10.3l18.4-44.1H387z M387.6,340.5l-5.8-13.9l-5.8,13.9H387.6z"/>
		<path d="M407.5,314.5h32v8.6h-11.3v35.5h-9.5V323h-11.3V314.5z"/>
		<path d="M469,314.5h27.5v8.6h-18.1v8h15.9v8.6h-15.9v19H469V314.5z"/>
		<path d="M530.8,314.5h9.5v28.2c0,2.2-0.5,4.3-1.4,6.3c-0.9,2-2.2,3.8-3.7,5.3c-1.6,1.5-3.4,2.8-5.5,3.7c-2.1,0.9-4.3,1.4-6.8,1.4
			c-2.4,0-4.6-0.5-6.7-1.4c-2.1-0.9-4-2.1-5.5-3.7c-1.6-1.5-2.8-3.3-3.7-5.3c-0.9-2-1.4-4.1-1.4-6.3v-28.2h9.5v26.3
			c0,1.2,0.2,2.4,0.6,3.5c0.4,1.1,1,2.1,1.7,2.9c0.7,0.8,1.5,1.5,2.5,2c1,0.5,2,0.7,3.1,0.7c1.1,0,2.1-0.2,3.1-0.7
			c0.9-0.5,1.8-1.2,2.5-2s1.3-1.8,1.7-2.9c0.4-1.1,0.6-2.3,0.6-3.5V314.5z"/>
		<path d="M581.4,314.5h9.5v44.1h-9l-21.1-28.8v28.8h-9.5v-44.1h8.8l21.3,29V314.5z"/>
		<path d="M641,314.5v8h-3.3v28.2h3.3v7.9h-16v-7.9h3.3v-28.2h-3.3v-8H641z"/>
		<path d="M650.9,314.5h32v8.6h-11.3v35.5h-9.5V323h-11.3V314.5z"/>
		<path d="M728.4,314.5v8h-3.3v28.2h3.3v7.9h-16v-7.9h3.3v-28.2h-3.3v-8H728.4z"/>
		<path d="M767.8,335.8c1.7,1,3.1,2.4,4,4c0.9,1.6,1.4,3.5,1.4,5.6c0,2-0.5,3.8-1.4,5.6c-1,1.7-2.3,3.2-4,4.6
			c-1.6,1.2-3.4,2.1-5.4,2.8c-2,0.6-4.1,1-6.4,1c-2.2,0-4.4-0.3-6.4-0.9c-2-0.6-3.8-1.6-5.4-2.8c-2.4-1.8-4-3.9-4.9-6.5l8.7-4
			c0,0.4,0.1,0.9,0.4,1.6c0.3,0.6,0.7,1.2,1.4,1.8c0.6,0.6,1.4,1.1,2.4,1.5c1,0.4,2.2,0.6,3.7,0.6c1.2,0,2.2-0.1,3.1-0.4
			c0.9-0.3,1.6-0.7,2.2-1.1c0.6-0.4,1.1-0.9,1.4-1.5c0.3-0.6,0.5-1.1,0.5-1.7c0-0.7-0.2-1.3-0.7-1.9c-0.4-0.6-1.1-1-2-1.4
			c-1.7-0.6-3.4-1.1-5.3-1.5c-1.8-0.4-3.6-0.9-5.4-1.5c-1.7-0.6-3.4-1.4-4.8-2.4s-2.7-2.4-3.5-4.2c-0.8-1.6-1.2-3.3-1.2-5
			c0-2,0.5-3.9,1.4-5.8c0.9-1.9,2.2-3.4,3.8-4.7c1.5-1.2,3.3-2.1,5.2-2.8c1.9-0.6,3.9-1,6-1c2.1,0,4.1,0.3,6.1,0.9s3.7,1.5,5.2,2.7
			c1.5,1.1,2.7,2.4,3.5,3.9l-7.1,4.9c-0.9-1.2-2-2.2-3.3-2.9c-1.3-0.7-2.8-1.1-4.4-1.1c-2.2,0-4,0.5-5.2,1.5c-1.2,1-1.8,2.3-1.8,3.9
			c0,0.7,0.3,1.4,1,2c0.7,0.6,1.6,1.1,2.7,1.6c1.1,0.5,2.3,0.9,3.7,1.2c1.4,0.4,2.7,0.7,4.1,1.1c1.3,0.4,2.6,0.7,3.8,1.1
			S767,335.4,767.8,335.8z"/>
		<path d="M245.3,391.1h32v8.6H266v35.5h-9.5v-35.5h-11.3V391.1z"/>
		<path d="M307.9,390.5c3,0,5.8,0.6,8.5,1.8c2.7,1.2,5,2.8,6.9,4.9c2,2.1,3.5,4.5,4.7,7.2c1.1,2.7,1.7,5.7,1.7,8.8
			c0,3.1-0.6,6-1.7,8.8c-1.1,2.8-2.7,5.2-4.7,7.3c-2,2.1-4.3,3.7-6.9,4.9c-2.7,1.2-5.5,1.8-8.5,1.8c-3,0-5.8-0.6-8.5-1.8
			c-2.7-1.2-5-2.9-6.9-4.9c-1.9-2.1-3.5-4.5-4.6-7.3c-1.1-2.8-1.7-5.7-1.7-8.8c0-3.1,0.6-6,1.7-8.8s2.7-5.1,4.6-7.2
			c1.9-2.1,4.2-3.7,6.9-4.9S305,390.5,307.9,390.5z M308,426.6c1.7,0,3.3-0.4,4.8-1.1c1.5-0.7,2.8-1.7,3.9-2.9
			c1.1-1.2,2-2.6,2.6-4.3c0.6-1.6,1-3.4,1-5.2c0-1.9-0.3-3.6-1-5.3s-1.5-3.1-2.6-4.3c-1.1-1.2-2.4-2.2-3.9-2.9
			c-1.5-0.7-3.1-1.1-4.8-1.1s-3.3,0.4-4.8,1.1c-1.5,0.7-2.8,1.7-3.9,2.9c-1.1,1.2-2,2.7-2.6,4.3s-1,3.4-1,5.3c0,1.9,0.3,3.6,1,5.2
			c0.6,1.6,1.5,3,2.6,4.3c1.1,1.2,2.4,2.2,3.9,2.9C304.7,426.2,306.3,426.6,308,426.6z"/>
		<path d="M380.9,391.1c3.2,0,6,0.6,8.5,1.7c2.4,1.2,4.5,2.7,6.1,4.7c1.6,2,2.9,4.3,3.7,7c0.9,2.7,1.3,5.6,1.3,8.6
			c0,3.1-0.4,5.9-1.3,8.6s-2.1,5-3.7,7s-3.4,3.6-5.6,4.7c-2.2,1.1-4.5,1.7-7,1.7H363v-44.1H380.9z M380.9,426.6
			c1.8,0,3.3-0.4,4.6-1.1c1.3-0.7,2.3-1.7,3.1-2.9c0.8-1.2,1.4-2.7,1.8-4.3c0.4-1.6,0.6-3.3,0.6-5.1s-0.2-3.5-0.6-5.1
			c-0.4-1.6-1-3.1-1.8-4.3c-0.8-1.2-1.9-2.2-3.2-3c-1.3-0.7-2.8-1.1-4.6-1.1h-8.4v26.9H380.9z"/>
		<path d="M411.1,391.1h27.5v8.6h-18.1v8h15.9v8.6h-15.9v10.4h18.1v8.6h-27.5V391.1z"/>
		<path d="M478.2,412.5c1.7,1,3.1,2.4,4,4c0.9,1.6,1.4,3.5,1.4,5.6c0,2-0.5,3.8-1.4,5.6c-1,1.7-2.3,3.2-4,4.6
			c-1.6,1.2-3.4,2.1-5.4,2.8c-2,0.6-4.1,1-6.4,1c-2.2,0-4.4-0.3-6.4-0.9c-2-0.6-3.8-1.6-5.4-2.8c-2.4-1.8-4-3.9-4.8-6.5l8.7-4
			c0,0.4,0.1,0.9,0.4,1.6c0.3,0.6,0.7,1.2,1.4,1.8c0.6,0.6,1.4,1.1,2.4,1.5c1,0.4,2.2,0.6,3.7,0.6c1.2,0,2.2-0.1,3.1-0.4
			c0.9-0.3,1.6-0.7,2.2-1.1s1.1-0.9,1.4-1.5s0.5-1.1,0.5-1.7c0-0.7-0.2-1.3-0.7-1.9c-0.4-0.6-1.1-1-2-1.4c-1.7-0.6-3.4-1.1-5.3-1.5
			c-1.8-0.4-3.6-0.9-5.4-1.5c-1.7-0.6-3.4-1.4-4.8-2.4c-1.5-1-2.7-2.4-3.5-4.2c-0.8-1.6-1.2-3.3-1.2-5c0-2,0.5-3.9,1.4-5.8
			c0.9-1.9,2.2-3.4,3.8-4.7c1.5-1.2,3.3-2.1,5.2-2.8c1.9-0.6,3.9-1,6-1c2.1,0,4.1,0.3,6.1,0.9s3.7,1.5,5.2,2.7
			c1.5,1.1,2.7,2.4,3.5,3.9l-7.1,4.9c-0.9-1.2-2-2.2-3.3-2.9c-1.3-0.7-2.8-1.1-4.4-1.1c-2.2,0-4,0.5-5.2,1.5c-1.2,1-1.8,2.3-1.8,3.9
			c0,0.7,0.3,1.4,1,2c0.7,0.6,1.6,1.1,2.7,1.6c1.1,0.5,2.3,0.9,3.7,1.2c1.4,0.4,2.7,0.7,4.1,1.1c1.3,0.4,2.6,0.7,3.8,1.1
			C476.5,411.6,477.5,412,478.2,412.5z"/>
		<path d="M510.1,391.1v8h-3.3v28.2h3.3v7.9h-16v-7.9h3.3V399h-3.3v-8H510.1z"/>
		<path d="M543.3,410.2H560v16.2c-2.5,3.2-5.2,5.5-8.3,7.2c-3,1.6-6.2,2.4-9.5,2.4c-3,0-5.8-0.6-8.5-1.8c-2.7-1.2-5-2.9-6.9-4.9
			c-1.9-2.1-3.5-4.5-4.6-7.2c-1.1-2.8-1.7-5.7-1.7-8.8s0.6-6,1.7-8.8c1.1-2.7,2.7-5.1,4.6-7.2c1.9-2.1,4.2-3.7,6.9-4.9
			c2.7-1.2,5.5-1.8,8.5-1.8c2.8,0,5.5,0.5,8,1.6c2.5,1,4.9,2.8,7.3,5.2l-5.5,6.7c-1.7-1.6-3.4-2.7-4.9-3.3c-1.5-0.6-3.2-0.8-4.9-0.8
			c-1.7,0-3.4,0.4-4.9,1.1c-1.5,0.7-2.8,1.7-3.9,2.9c-1.1,1.2-2,2.6-2.6,4.3c-0.6,1.6-1,3.4-1,5.3c0,1.9,0.3,3.6,1,5.2
			c0.6,1.6,1.5,3,2.6,4.3s2.4,2.2,3.9,2.9c1.5,0.7,3.1,1.1,4.9,1.1c1.5,0,3.1-0.3,4.6-0.8s3-1.5,4.6-2.8v-4.8h-8.1V410.2z"/>
		<path d="M600.8,391.1h9.5v44.1h-9l-21.1-28.8v28.8h-9.5v-44.1h8.8l21.3,29V391.1z"/>
		<path d="M71.6,467.7L90,511.8H79.8l-4-9.5H57.1l-3.9,9.5H42.9l18.4-44.1H71.6z M72.3,493.8l-5.8-13.9l-5.8,13.9H72.3z"/>
		<path d="M132,503.2h18.1v8.6h-27.5v-44.1h9.5V503.2z"/>
		<path d="M178.7,467.1c3,0,5.8,0.6,8.5,1.8c2.7,1.2,5,2.8,6.9,4.9c2,2.1,3.5,4.5,4.7,7.2c1.1,2.7,1.7,5.7,1.7,8.8
			c0,3.1-0.6,6-1.7,8.8c-1.1,2.8-2.7,5.2-4.7,7.3c-2,2.1-4.3,3.7-6.9,4.9c-2.7,1.2-5.5,1.8-8.5,1.8c-3,0-5.8-0.6-8.5-1.8
			c-2.7-1.2-5-2.9-6.9-4.9c-1.9-2.1-3.5-4.5-4.6-7.3c-1.1-2.8-1.7-5.7-1.7-8.8c0-3.1,0.6-6,1.7-8.8s2.7-5.1,4.6-7.2
			c1.9-2.1,4.2-3.7,6.9-4.9S175.7,467.1,178.7,467.1z M178.8,503.2c1.7,0,3.3-0.4,4.8-1.1c1.5-0.7,2.8-1.7,3.9-2.9
			c1.1-1.2,2-2.6,2.6-4.3c0.6-1.6,1-3.4,1-5.2c0-1.9-0.3-3.6-1-5.3s-1.5-3.1-2.6-4.3c-1.1-1.2-2.4-2.2-3.9-2.9
			c-1.5-0.7-3.1-1.1-4.8-1.1s-3.3,0.4-4.8,1.1c-1.5,0.7-2.8,1.7-3.9,2.9c-1.1,1.2-2,2.7-2.6,4.3s-1,3.4-1,5.3c0,1.9,0.3,3.6,1,5.2
			c0.6,1.6,1.5,3,2.6,4.3c1.1,1.2,2.4,2.2,3.9,2.9C175.5,502.9,177.1,503.2,178.8,503.2z"/>
		<path d="M232.9,486.9h16.7V503c-2.5,3.2-5.2,5.5-8.3,7.2c-3,1.6-6.2,2.4-9.5,2.4c-3,0-5.8-0.6-8.5-1.8c-2.7-1.2-5-2.9-6.9-4.9
			c-1.9-2.1-3.5-4.5-4.6-7.2c-1.1-2.8-1.7-5.7-1.7-8.8s0.6-6,1.7-8.8c1.1-2.7,2.7-5.1,4.6-7.2c1.9-2.1,4.2-3.7,6.9-4.9
			c2.7-1.2,5.5-1.8,8.5-1.8c2.8,0,5.5,0.5,8,1.6c2.5,1,4.9,2.8,7.3,5.2l-5.5,6.7c-1.7-1.6-3.4-2.7-4.9-3.3c-1.5-0.6-3.2-0.8-4.9-0.8
			c-1.7,0-3.4,0.4-4.9,1.1c-1.5,0.7-2.8,1.7-3.9,2.9c-1.1,1.2-2,2.6-2.6,4.3c-0.6,1.6-1,3.4-1,5.3c0,1.9,0.3,3.6,1,5.2
			c0.6,1.6,1.5,3,2.6,4.3s2.4,2.2,3.9,2.9c1.5,0.7,3.1,1.1,4.9,1.1c1.5,0,3.1-0.3,4.6-0.8s3-1.5,4.6-2.8v-4.8h-8.1V486.9z"/>
		<path d="M281,467.1c3,0,5.8,0.6,8.5,1.8c2.7,1.2,5,2.8,6.9,4.9c2,2.1,3.5,4.5,4.7,7.2s1.7,5.7,1.7,8.8c0,3.1-0.6,6-1.7,8.8
			c-1.1,2.8-2.7,5.2-4.7,7.3c-2,2.1-4.3,3.7-6.9,4.9c-2.7,1.2-5.5,1.8-8.5,1.8s-5.8-0.6-8.5-1.8c-2.7-1.2-5-2.9-6.9-4.9
			c-1.9-2.1-3.5-4.5-4.6-7.3c-1.1-2.8-1.7-5.7-1.7-8.8c0-3.1,0.6-6,1.7-8.8c1.1-2.7,2.7-5.1,4.6-7.2c1.9-2.1,4.2-3.7,6.9-4.9
			C275.2,467.7,278,467.1,281,467.1z M281,503.2c1.7,0,3.3-0.4,4.8-1.1s2.8-1.7,3.9-2.9c1.1-1.2,2-2.6,2.6-4.3c0.6-1.6,1-3.4,1-5.2
			c0-1.9-0.3-3.6-1-5.3c-0.6-1.6-1.5-3.1-2.6-4.3c-1.1-1.2-2.4-2.2-3.9-2.9c-1.5-0.7-3.1-1.1-4.8-1.1c-1.7,0-3.3,0.4-4.8,1.1
			c-1.5,0.7-2.8,1.7-3.9,2.9c-1.1,1.2-2,2.7-2.6,4.3c-0.6,1.6-1,3.4-1,5.3c0,1.9,0.3,3.6,1,5.2c0.6,1.6,1.5,3,2.6,4.3
			c1.1,1.2,2.4,2.2,3.9,2.9S279.4,503.2,281,503.2z"/>
		<path d="M363.2,467.7l18.4,44.1h-10.2l-4-9.5h-18.7l-3.9,9.5h-10.3l18.4-44.1H363.2z M363.9,493.8l-5.8-13.9l-5.8,13.9H363.9z"/>
		<path d="M400.9,503.2H419v8.6h-27.5v-44.1h9.5V503.2z"/>
		<path d="M437.6,503.2h18.1v8.6h-27.5v-44.1h9.5V503.2z"/>
		<path d="M479.2,467.7h32v8.6h-11.3v35.5h-9.5v-35.5h-11.3V467.7z"/>
		<path d="M550.7,467.7h9.5v44.1h-9.5v-19h-20.1v19h-9.5v-44.1h9.5v16.5h20.1V467.7z"/>
		<path d="M571.6,467.7h27.5v8.6h-18.1v8H597v8.6h-15.9v10.4h18.1v8.6h-27.5V467.7z"/>
		<path d="M687.8,467.7h9.8l-12.4,44.1h-11.7l-9.1-29.7l-9.1,29.7h-11.6l-12.4-44.1h9.8l8.7,33.3l10-33.3h9.1l10.1,33.6L687.8,467.7
			z"/>
		<path d="M730,467.7l18.4,44.1h-10.2l-4-9.5h-18.7l-3.9,9.5h-10.3l18.4-44.1H730z M730.7,493.8l-5.8-13.9l-5.8,13.9H730.7z"/>
		<path d="M779.9,467.7h11.4l-15.7,23.4v20.6h-9.5v-20.6l-15.7-23.4h11.4l9.1,13.6L779.9,467.7z"/>
		<path d="M806.7,502.8c1.3,0,2.4,0.5,3.4,1.4c0.9,0.9,1.4,2,1.4,3.4s-0.5,2.5-1.4,3.4c-0.9,0.9-2,1.4-3.4,1.4
			c-1.3,0-2.5-0.5-3.4-1.4c-0.9-0.9-1.4-2-1.4-3.4s0.5-2.5,1.4-3.4C804.3,503.2,805.4,502.8,806.7,502.8z M802.9,499l-0.7-31.3h9.1
			l-0.7,31.3H802.9z"/>
		<path d="M383.1,544.3h9.5v44.1h-9.5v-19H363v19h-9.5v-44.1h9.5v16.5h20.1V544.3z"/>
		<path d="M404.1,544.3h27.5v8.6h-18.1v8h15.9v8.6h-15.9v10.4h18.1v8.6h-27.5V544.3z"/>
		<path d="M470.9,544.3h11.4l-15.7,23.4v20.6h-9.5v-20.6l-15.7-23.4h11.4l9.1,13.6L470.9,544.3z"/>
		<path d="M497.7,579.4c1.3,0,2.4,0.5,3.4,1.4c0.9,0.9,1.4,2,1.4,3.4s-0.5,2.5-1.4,3.4c-0.9,0.9-2,1.4-3.4,1.4s-2.5-0.5-3.4-1.4
			c-0.9-0.9-1.4-2-1.4-3.4s0.5-2.5,1.4-3.4C495.2,579.9,496.3,579.4,497.7,579.4z M493.9,575.7l-0.7-31.3h9.1l-0.7,31.3H493.9z"/>
	</g>
</g>
</svg>
