<?xml version="1.0" encoding="utf-8"?>
<!-- Generator: Adobe Illustrator 18.0.0, SVG Export Plug-In . SVG Version: 6.00 Build 0)  -->
<!DOCTYPE svg PUBLIC "-//W3C//DTD SVG 1.1//EN" "http://www.w3.org/Graphics/SVG/1.1/DTD/svg11.dtd">
<svg version="1.1" id="Layer_1" xmlns="http://www.w3.org/2000/svg" xmlns:xlink="http://www.w3.org/1999/xlink" x="0px" y="0px"
	 viewBox="0 0 844.9 600" enable-background="new 0 0 844.9 600" xml:space="preserve">
<g>
	<g>
		<path fill="#0000FF" d="M183.1,18.8C181.7,23.3,181,28,181,33c0,5.1,0.7,9.9,2.2,14.4s3.5,8.5,6,12l-5.7,1.7
			c-2.6-3.9-4.6-8.2-6.1-12.9c-1.5-4.7-2.2-9.8-2.2-15.1c0-5.3,0.7-10.2,2.1-14.9c1.4-4.7,3.4-9,6-12.9l5.7,1.7
			C186.5,10.4,184.5,14.4,183.1,18.8z"/>
		<path fill="#0000FF" d="M224,8L242.5,52h-10.2l-4-9.5h-18.7l-3.9,9.5h-10.3L213.8,8H224z M224.7,34l-5.8-13.9L213.2,34H224.7z"/>
		<path fill="#0000FF" d="M261.8,43.5h18.1V52h-27.5V8h9.5V43.5z"/>
		<path fill="#0000FF" d="M282.4,8h48.7v8.6h-11.3V52h-9.5V16.5h-7.3V52h-9.5V16.5h-11.3V8z"/>
		<path fill="#0000FF" d="M341.2,0h27.5v8.6h-18.1v8.6h15.9v8.6h-15.9v9.1h15.9v8.6h-15.9V52h18.1v8.6h-27.5V0z"/>
		<path fill="#0000FF" d="M411.2,21.1c0,1.4-0.2,2.7-0.6,4c-0.4,1.3-0.9,2.4-1.6,3.5c-0.7,1.1-1.6,2-2.5,2.8c-1,0.8-2.1,1.5-3.2,2
			L417.8,52h-11l-13.6-17.8H389V52h-9.5V8h19c1.7,0,3.4,0.3,4.9,1s2.9,1.6,4,2.8c1.1,1.2,2,2.6,2.7,4.2
			C410.9,17.5,411.2,19.3,411.2,21.1z M397.4,25.7c1.2,0,2.2-0.4,3.1-1.3c0.9-0.9,1.3-2,1.3-3.3c0-1.2-0.4-2.3-1.3-3.2
			c-0.9-0.9-1.9-1.3-3.1-1.3H389v9.1H397.4z"/>
		<path fill="#0000FF" d="M458,8h9.5V52h-9l-21.1-28.8V52h-9.5V8h8.8l21.3,29V8z"/>
		<path fill="#0000FF" d="M505.9,8L524.3,52h-10.2l-4-9.5h-18.7l-3.9,9.5h-10.3L495.7,8H505.9z M506.6,34l-5.8-13.9L495.1,34H506.6z
			"/>
		<path fill="#0000FF" d="M526.9,8h48.7v8.6h-11.3V52h-9.5V16.5h-7.3V52h-9.5V16.5h-11.3V8z"/>
		<path fill="#0000FF" d="M585.7,0h27.5v8.6h-18.1v8.6H611v8.6h-15.9v9.1H611v8.6h-15.9V52h18.1v8.6h-27.5V0z"/>
		<path fill="#0000FF" d="M652,29.4c1.7,1,3.1,2.4,4,4c0.9,1.6,1.4,3.5,1.4,5.6c0,2-0.5,3.8-1.4,5.6c-1,1.7-2.3,3.2-4,4.6
			c-1.6,1.2-3.4,2.1-5.4,2.8c-2,0.6-4.1,1-6.4,1c-2.2,0-4.4-0.3-6.4-0.9c-2-0.6-3.8-1.6-5.4-2.8c-2.4-1.8-4-3.9-4.9-6.5l8.7-4
			c0,0.4,0.1,0.9,0.4,1.6c0.3,0.6,0.7,1.2,1.4,1.8c0.6,0.6,1.4,1.1,2.4,1.5c1,0.4,2.2,0.6,3.7,0.6c1.2,0,2.2-0.1,3.1-0.4
			c0.9-0.3,1.6-0.7,2.2-1.1c0.6-0.4,1.1-0.9,1.4-1.5c0.3-0.6,0.5-1.1,0.5-1.7c0-0.7-0.2-1.3-0.7-1.9c-0.4-0.6-1.1-1-2-1.4
			c-1.7-0.6-3.4-1.1-5.3-1.5c-1.8-0.4-3.6-0.9-5.4-1.5c-1.7-0.6-3.4-1.4-4.8-2.4c-1.5-1-2.7-2.4-3.5-4.2c-0.8-1.6-1.2-3.3-1.2-5
			c0-2,0.5-3.9,1.4-5.8c0.9-1.9,2.2-3.4,3.8-4.7c1.5-1.2,3.3-2.1,5.2-2.8c1.9-0.6,3.9-1,6-1s4.1,0.3,6.1,0.9
			c1.9,0.6,3.7,1.5,5.2,2.7c1.5,1.1,2.7,2.4,3.5,3.9l-7.1,4.9c-0.9-1.2-2-2.2-3.3-2.9c-1.3-0.7-2.8-1.1-4.4-1.1
			c-2.2,0-4,0.5-5.2,1.5c-1.2,1-1.8,2.3-1.8,3.9c0,0.7,0.3,1.4,1,2c0.7,0.6,1.6,1.1,2.7,1.6c1.1,0.5,2.3,0.9,3.7,1.2
			c1.4,0.4,2.7,0.7,4.1,1.1c1.3,0.4,2.6,0.7,3.8,1.1C650.3,28.5,651.3,28.9,652,29.4z"/>
		<path fill="#0000FF" d="M673.8,5.2c2.6,3.9,4.6,8.2,6,12.9c1.4,4.7,2.1,9.7,2.1,14.9c0,5.3-0.7,10.4-2.2,15.1
			c-1.5,4.7-3.5,9-6.1,12.9l-5.7-1.7c2.6-3.5,4.6-7.5,6-12s2.2-9.3,2.2-14.4c0-5-0.7-9.7-2.1-14.2c-1.4-4.4-3.4-8.4-5.9-11.9
			L673.8,5.2z"/>
		<path d="M73.8,84c3,0,5.8,0.6,8.5,1.8c2.7,1.2,5,2.8,6.9,4.9c2,2.1,3.5,4.5,4.7,7.2c1.1,2.7,1.7,5.7,1.7,8.8c0,3.1-0.6,6-1.7,8.8
			c-1.1,2.8-2.7,5.2-4.7,7.3c-2,2.1-4.3,3.7-6.9,4.9c-2.7,1.2-5.5,1.8-8.5,1.8c-1.5,0-2.9-0.1-4.2-0.4c-1.4-0.3-2.7-0.7-3.9-1.2
			c-1.3,0.5-2.6,1-3.9,1.2c-1.3,0.3-2.7,0.4-4.2,0.4c-3,0-5.8-0.6-8.5-1.8c-2.7-1.2-5-2.9-6.9-4.9c-1.9-2.1-3.5-4.5-4.6-7.3
			c-1.1-2.8-1.7-5.7-1.7-8.8c0-3.1,0.6-6,1.7-8.8c1.1-2.7,2.7-5.1,4.6-7.2c1.9-2.1,4.2-3.7,6.9-4.9c2.7-1.2,5.5-1.8,8.5-1.8
			c1.5,0,2.8,0.1,4.2,0.4c1.3,0.3,2.7,0.7,3.9,1.2c1.2-0.5,2.5-1,3.9-1.2S72.4,84,73.8,84z M45.3,106.7c0,1.7,0.3,3.4,0.9,4.9
			s1.4,2.9,2.4,4.1c1,1.2,2.2,2.2,3.5,2.9c1.3,0.7,2.8,1.2,4.4,1.4c-1.3-1.9-2.4-4-3.1-6.2c-0.8-2.3-1.1-4.6-1.1-7.1
			c0-2.5,0.4-4.9,1.1-7.2c0.8-2.3,1.8-4.4,3.1-6.3c-1.6,0.2-3,0.6-4.4,1.4c-1.3,0.8-2.5,1.8-3.5,3c-1,1.2-1.8,2.6-2.4,4.1
			C45.6,103.3,45.3,104.9,45.3,106.7z M69.8,106.7c0-2-0.4-3.9-1.1-5.7s-1.7-3.2-3-4.5c-1.3,1.2-2.3,2.7-3,4.5
			c-0.7,1.7-1.1,3.6-1.1,5.7c0,2,0.4,3.9,1.1,5.7c0.7,1.7,1.7,3.2,3,4.4c1.3-1.2,2.3-2.7,3-4.4S69.8,108.7,69.8,106.7z M79.3,106.7
			c0,2.5-0.4,4.9-1.1,7.1c-0.7,2.3-1.8,4.3-3.1,6.2c1.5-0.2,3-0.6,4.3-1.4c1.3-0.8,2.5-1.7,3.5-2.9s1.8-2.5,2.4-4.1
			c0.6-1.6,0.9-3.2,0.9-4.9s-0.3-3.4-0.9-4.9c-0.6-1.6-1.4-2.9-2.4-4.1c-1-1.2-2.2-2.2-3.5-3c-1.3-0.8-2.8-1.2-4.4-1.4
			c1.3,1.9,2.4,4,3.1,6.3C78.9,101.8,79.3,104.2,79.3,106.7z"/>
		<path d="M135.8,84.6h9.5v44.1h-9.5v-19h-20.1v19h-9.5V84.6h9.5v16.5h20.1V84.6z"/>
		<path d="M158.8,120.8h9.6l-5.1,16.9h-6.6L158.8,120.8z"/>
		<path d="M221.7,84.6c3.2,0,6,0.6,8.5,1.7c2.4,1.2,4.5,2.7,6.1,4.7c1.6,2,2.9,4.3,3.7,7c0.9,2.7,1.3,5.6,1.3,8.6
			c0,3.1-0.4,5.9-1.3,8.6c-0.9,2.7-2.1,5-3.7,7c-1.6,2-3.4,3.6-5.6,4.7c-2.2,1.1-4.5,1.7-7,1.7h-19.7V84.6H221.7z M221.7,120.1
			c1.8,0,3.3-0.4,4.6-1.1c1.3-0.7,2.3-1.7,3.1-2.9c0.8-1.2,1.4-2.7,1.8-4.3c0.4-1.6,0.6-3.3,0.6-5.1c0-1.8-0.2-3.5-0.6-5.1
			c-0.4-1.6-1-3.1-1.8-4.3c-0.8-1.2-1.9-2.2-3.2-3c-1.3-0.7-2.8-1.1-4.6-1.1h-8.4v26.9H221.7z"/>
		<path d="M251.7,76.6h27.5v8.6h-18.1v8.6h15.9v8.6h-15.9v9.1h15.9v8.6h-15.9v8.6h18.1v8.6h-27.5V76.6z"/>
		<path d="M318.1,106c1.7,1,3.1,2.4,4,4c0.9,1.6,1.4,3.5,1.4,5.6c0,2-0.5,3.8-1.4,5.6c-1,1.7-2.3,3.2-4,4.6
			c-1.6,1.2-3.4,2.1-5.4,2.8c-2,0.6-4.1,1-6.4,1c-2.2,0-4.4-0.3-6.4-0.9c-2-0.6-3.8-1.6-5.4-2.8c-2.4-1.8-4-3.9-4.9-6.5l8.7-4
			c0,0.4,0.1,0.9,0.4,1.6c0.3,0.6,0.7,1.2,1.4,1.8c0.6,0.6,1.4,1.1,2.4,1.5c1,0.4,2.2,0.6,3.7,0.6c1.2,0,2.2-0.1,3.1-0.4
			c0.9-0.3,1.6-0.7,2.2-1.1c0.6-0.4,1.1-0.9,1.4-1.5c0.3-0.6,0.5-1.1,0.5-1.7c0-0.7-0.2-1.3-0.7-1.9c-0.4-0.6-1.1-1-2-1.4
			c-1.7-0.6-3.4-1.1-5.3-1.5c-1.8-0.4-3.6-0.9-5.4-1.5c-1.7-0.6-3.4-1.4-4.8-2.4c-1.5-1-2.7-2.4-3.5-4.2c-0.8-1.6-1.2-3.3-1.2-5
			c0-2,0.5-3.9,1.4-5.8c0.9-1.9,2.2-3.4,3.8-4.7c1.5-1.2,3.3-2.1,5.2-2.8c1.9-0.6,3.9-1,6-1s4.1,0.3,6.1,0.9
			c1.9,0.6,3.7,1.5,5.2,2.7c1.5,1.1,2.7,2.4,3.5,3.9l-7.1,4.9c-0.9-1.2-2-2.2-3.3-2.9c-1.3-0.7-2.8-1.1-4.4-1.1
			c-2.2,0-4,0.5-5.2,1.5c-1.2,1-1.8,2.3-1.8,3.9c0,0.7,0.3,1.4,1,2c0.7,0.6,1.6,1.1,2.7,1.6c1.1,0.5,2.3,0.9,3.7,1.2
			c1.4,0.4,2.7,0.7,4.1,1.1c1.3,0.4,2.6,0.7,3.8,1.1C316.4,105.1,317.3,105.5,318.1,106z"/>
		<path d="M350,84.6v8h-3.3v28.2h3.3v7.9h-16v-7.9h3.3V92.5h-3.3v-8H350z"/>
		<path d="M383.2,103.7h16.7v16.2c-2.5,3.2-5.2,5.5-8.3,7.2c-3,1.6-6.2,2.4-9.5,2.4c-3,0-5.8-0.6-8.5-1.8c-2.7-1.2-5-2.9-6.9-4.9
			c-1.9-2.1-3.5-4.5-4.6-7.2c-1.1-2.8-1.7-5.7-1.7-8.8c0-3.1,0.6-6,1.7-8.8c1.1-2.7,2.7-5.1,4.6-7.2c1.9-2.1,4.2-3.7,6.9-4.9
			c2.7-1.2,5.5-1.8,8.5-1.8c2.8,0,5.5,0.5,8,1.6c2.5,1,4.9,2.8,7.3,5.2l-5.5,6.7c-1.7-1.6-3.4-2.7-4.9-3.3c-1.5-0.6-3.2-0.8-4.9-0.8
			c-1.7,0-3.4,0.4-4.9,1.1c-1.5,0.7-2.8,1.7-3.9,2.9c-1.1,1.2-2,2.6-2.6,4.3c-0.6,1.6-1,3.4-1,5.3c0,1.9,0.3,3.6,1,5.2
			c0.6,1.6,1.5,3,2.6,4.3c1.1,1.2,2.4,2.2,3.9,2.9c1.5,0.7,3.1,1.1,4.9,1.1c1.5,0,3.1-0.3,4.6-0.8c1.5-0.6,3-1.5,4.6-2.8v-4.8h-8.1
			V103.7z"/>
		<path d="M440.6,84.6h9.5v44.1h-9l-21.1-28.8v28.8h-9.5V84.6h8.8l21.3,29V84.6z"/>
		<path d="M500.2,84.6v8h-3.3v28.2h3.3v7.9h-16v-7.9h3.3V92.5h-3.3v-8H500.2z"/>
		<path d="M539.6,106c1.7,1,3.1,2.4,4,4c0.9,1.6,1.4,3.5,1.4,5.6c0,2-0.5,3.8-1.4,5.6c-1,1.7-2.3,3.2-4,4.6
			c-1.6,1.2-3.4,2.1-5.4,2.8c-2,0.6-4.1,1-6.4,1c-2.2,0-4.4-0.3-6.4-0.9c-2-0.6-3.8-1.6-5.4-2.8c-2.4-1.8-4-3.9-4.9-6.5l8.7-4
			c0,0.4,0.1,0.9,0.4,1.6c0.3,0.6,0.7,1.2,1.4,1.8c0.6,0.6,1.4,1.1,2.4,1.5c1,0.4,2.2,0.6,3.7,0.6c1.2,0,2.2-0.1,3.1-0.4
			c0.9-0.3,1.6-0.7,2.2-1.1c0.6-0.4,1.1-0.9,1.4-1.5c0.3-0.6,0.5-1.1,0.5-1.7c0-0.7-0.2-1.3-0.7-1.9c-0.4-0.6-1.1-1-2-1.4
			c-1.7-0.6-3.4-1.1-5.3-1.5c-1.8-0.4-3.6-0.9-5.4-1.5c-1.7-0.6-3.4-1.4-4.8-2.4c-1.5-1-2.7-2.4-3.5-4.2c-0.8-1.6-1.2-3.3-1.2-5
			c0-2,0.5-3.9,1.4-5.8c0.9-1.9,2.2-3.4,3.8-4.7c1.5-1.2,3.3-2.1,5.2-2.8c1.9-0.6,3.9-1,6-1s4.1,0.3,6.1,0.9
			c1.9,0.6,3.7,1.5,5.2,2.7c1.5,1.1,2.7,2.4,3.5,3.9l-7.1,4.9c-0.9-1.2-2-2.2-3.3-2.9c-1.3-0.7-2.8-1.1-4.4-1.1
			c-2.2,0-4,0.5-5.2,1.5c-1.2,1-1.8,2.3-1.8,3.9c0,0.7,0.3,1.4,1,2c0.7,0.6,1.6,1.1,2.7,1.6c1.1,0.5,2.3,0.9,3.7,1.2
			c1.4,0.4,2.7,0.7,4.1,1.1c1.3,0.4,2.6,0.7,3.8,1.1C537.9,105.1,538.9,105.5,539.6,106z"/>
		<path d="M606.2,106c1.7,1,3.1,2.4,4,4c0.9,1.6,1.4,3.5,1.4,5.6c0,2-0.5,3.8-1.4,5.6c-1,1.7-2.3,3.2-4,4.6
			c-1.6,1.2-3.4,2.1-5.4,2.8c-2,0.6-4.1,1-6.4,1c-2.2,0-4.4-0.3-6.4-0.9c-2-0.6-3.8-1.6-5.4-2.8c-2.4-1.8-4-3.9-4.9-6.5l8.7-4
			c0,0.4,0.1,0.9,0.4,1.6c0.3,0.6,0.7,1.2,1.4,1.8c0.6,0.6,1.4,1.1,2.4,1.5c1,0.4,2.2,0.6,3.7,0.6c1.2,0,2.2-0.1,3.1-0.4
			c0.9-0.3,1.6-0.7,2.2-1.1c0.6-0.4,1.1-0.9,1.4-1.5c0.3-0.6,0.5-1.1,0.5-1.7c0-0.7-0.2-1.3-0.7-1.9c-0.4-0.6-1.1-1-2-1.4
			c-1.7-0.6-3.4-1.1-5.3-1.5c-1.8-0.4-3.6-0.9-5.4-1.5c-1.7-0.6-3.4-1.4-4.8-2.4c-1.5-1-2.7-2.4-3.5-4.2c-0.8-1.6-1.2-3.3-1.2-5
			c0-2,0.5-3.9,1.4-5.8c0.9-1.9,2.2-3.4,3.8-4.7c1.5-1.2,3.3-2.1,5.2-2.8c1.9-0.6,3.9-1,6-1s4.1,0.3,6.1,0.9
			c1.9,0.6,3.7,1.5,5.2,2.7c1.5,1.1,2.7,2.4,3.5,3.9l-7.1,4.9c-0.9-1.2-2-2.2-3.3-2.9c-1.3-0.7-2.8-1.1-4.4-1.1
			c-2.2,0-4,0.5-5.2,1.5c-1.2,1-1.8,2.3-1.8,3.9c0,0.7,0.3,1.4,1,2c0.7,0.6,1.6,1.1,2.7,1.6c1.1,0.5,2.3,0.9,3.7,1.2
			c1.4,0.4,2.7,0.7,4.1,1.1c1.3,0.4,2.6,0.7,3.8,1.1C604.5,105.1,605.5,105.5,606.2,106z"/>
		<path d="M676.6,84.6h9.8L674,128.7h-11.7L653.2,99l-9.1,29.7h-11.6l-12.4-44.1h9.8l8.7,33.3l10-33.3h9.1l10.1,33.6L676.6,84.6z"/>
		<path d="M695.9,76.6h27.5v8.6h-18.1v8.6h15.9v8.6h-15.9v9.1h15.9v8.6h-15.9v8.6h18.1v8.6h-27.5V76.6z"/>
		<path d="M743.6,120.1h18.1v8.6h-27.5V84.6h9.5V120.1z"/>
		<path d="M780.3,120.1h18.1v8.6h-27.5V84.6h9.5V120.1z"/>
		<path d="M809.7,120.8h9.6l-5.1,16.9h-6.6L809.7,120.8z"/>
		<path d="M152.1,161.2c3.2,0,6,0.6,8.5,1.7c2.4,1.2,4.5,2.7,6.1,4.7c1.6,2,2.9,4.3,3.7,7c0.9,2.7,1.3,5.6,1.3,8.6
			c0,3.1-0.4,5.9-1.3,8.6c-0.9,2.7-2.1,5-3.7,7c-1.6,2-3.4,3.6-5.6,4.7c-2.2,1.1-4.5,1.7-7,1.7h-19.7v-44.1H152.1z M152.2,196.7
			c1.8,0,3.3-0.4,4.6-1.1c1.3-0.7,2.3-1.7,3.1-2.9c0.8-1.2,1.4-2.7,1.8-4.3c0.4-1.6,0.6-3.3,0.6-5.1c0-1.8-0.2-3.5-0.6-5.1
			c-0.4-1.6-1-3.1-1.8-4.3c-0.8-1.2-1.9-2.2-3.2-3c-1.3-0.7-2.8-1.1-4.6-1.1h-8.4v26.9H152.2z"/>
		<path d="M182.2,153.2h27.5v8.6h-18.1v8.6h15.9v8.6h-15.9v9.1h15.9v8.6h-15.9v8.6h18.1v8.6h-27.5V153.2z"/>
		<path d="M248.5,182.6c1.7,1,3.1,2.4,4,4c0.9,1.6,1.4,3.5,1.4,5.6c0,2-0.5,3.8-1.4,5.6c-1,1.7-2.3,3.2-4,4.6
			c-1.6,1.2-3.4,2.1-5.4,2.8c-2,0.6-4.1,1-6.4,1c-2.2,0-4.4-0.3-6.4-0.9c-2-0.6-3.8-1.6-5.4-2.8c-2.4-1.8-4-3.9-4.9-6.5l8.7-4
			c0,0.4,0.1,0.9,0.4,1.6c0.3,0.6,0.7,1.2,1.4,1.8c0.6,0.6,1.4,1.1,2.4,1.5c1,0.4,2.2,0.6,3.7,0.6c1.2,0,2.2-0.1,3.1-0.4
			c0.9-0.3,1.6-0.7,2.2-1.1c0.6-0.4,1.1-0.9,1.4-1.5c0.3-0.6,0.5-1.1,0.5-1.7c0-0.7-0.2-1.3-0.7-1.9c-0.4-0.6-1.1-1-2-1.4
			c-1.7-0.6-3.4-1.1-5.3-1.5c-1.8-0.4-3.6-0.9-5.4-1.5c-1.7-0.6-3.4-1.4-4.8-2.4c-1.5-1-2.7-2.4-3.5-4.2c-0.8-1.6-1.2-3.3-1.2-5
			c0-2,0.5-3.9,1.4-5.8c0.9-1.9,2.2-3.4,3.8-4.7c1.5-1.2,3.3-2.1,5.2-2.8c1.9-0.6,3.9-1,6-1s4.1,0.3,6.1,0.9
			c1.9,0.6,3.7,1.5,5.2,2.7c1.5,1.1,2.7,2.4,3.5,3.9L245,173c-0.9-1.2-2-2.2-3.3-2.9c-1.3-0.7-2.8-1.1-4.4-1.1c-2.2,0-4,0.5-5.2,1.5
			c-1.2,1-1.8,2.3-1.8,3.9c0,0.7,0.3,1.4,1,2c0.7,0.6,1.6,1.1,2.7,1.6c1.1,0.5,2.3,0.9,3.7,1.2c1.4,0.4,2.7,0.7,4.1,1.1
			c1.3,0.4,2.6,0.7,3.8,1.1C246.8,181.7,247.8,182.1,248.5,182.6z"/>
		<path d="M280.5,161.2v8h-3.3v28.2h3.3v7.9h-16v-7.9h3.3v-28.2h-3.3v-8H280.5z"/>
		<path d="M313.7,180.4h16.7v16.2c-2.5,3.2-5.2,5.5-8.3,7.2c-3,1.6-6.2,2.4-9.5,2.4c-3,0-5.8-0.6-8.5-1.8c-2.7-1.2-5-2.9-6.9-4.9
			c-1.9-2.1-3.5-4.5-4.6-7.2c-1.1-2.8-1.7-5.7-1.7-8.8c0-3.1,0.6-6,1.7-8.8c1.1-2.7,2.7-5.1,4.6-7.2c1.9-2.1,4.2-3.7,6.9-4.9
			c2.7-1.2,5.5-1.8,8.5-1.8c2.8,0,5.5,0.5,8,1.6c2.5,1,4.9,2.8,7.3,5.2l-5.5,6.7c-1.7-1.6-3.4-2.7-4.9-3.3c-1.5-0.6-3.2-0.8-4.9-0.8
			c-1.7,0-3.4,0.4-4.9,1.1c-1.5,0.7-2.8,1.7-3.9,2.9c-1.1,1.2-2,2.6-2.6,4.3c-0.6,1.6-1,3.4-1,5.3c0,1.9,0.3,3.6,1,5.2
			c0.6,1.6,1.5,3,2.6,4.3c1.1,1.2,2.4,2.2,3.9,2.9c1.5,0.7,3.1,1.1,4.9,1.1c1.5,0,3.1-0.3,4.6-0.8c1.5-0.6,3-1.5,4.6-2.8v-4.8h-8.1
			V180.4z"/>
		<path d="M371.1,161.2h9.5v44.1h-9l-21.1-28.8v28.8H341v-44.1h8.8l21.3,29V161.2z"/>
		<path d="M430.7,161.2v8h-3.3v28.2h3.3v7.9h-16v-7.9h3.3v-28.2h-3.3v-8H430.7z"/>
		<path d="M470.1,182.6c1.7,1,3.1,2.4,4,4c0.9,1.6,1.4,3.5,1.4,5.6c0,2-0.5,3.8-1.4,5.6c-1,1.7-2.3,3.2-4,4.6
			c-1.6,1.2-3.4,2.1-5.4,2.8c-2,0.6-4.1,1-6.4,1c-2.2,0-4.4-0.3-6.4-0.9c-2-0.6-3.8-1.6-5.4-2.8c-2.4-1.8-4-3.9-4.9-6.5l8.7-4
			c0,0.4,0.1,0.9,0.4,1.6c0.3,0.6,0.7,1.2,1.4,1.8c0.6,0.6,1.4,1.1,2.4,1.5c1,0.4,2.2,0.6,3.7,0.6c1.2,0,2.2-0.1,3.1-0.4
			c0.9-0.3,1.6-0.7,2.2-1.1c0.6-0.4,1.1-0.9,1.4-1.5c0.3-0.6,0.5-1.1,0.5-1.7c0-0.7-0.2-1.3-0.7-1.9c-0.4-0.6-1.1-1-2-1.4
			c-1.7-0.6-3.4-1.1-5.3-1.5c-1.8-0.4-3.6-0.9-5.4-1.5c-1.7-0.6-3.4-1.4-4.8-2.4c-1.5-1-2.7-2.4-3.5-4.2c-0.8-1.6-1.2-3.3-1.2-5
			c0-2,0.5-3.9,1.4-5.8c0.9-1.9,2.2-3.4,3.8-4.7c1.5-1.2,3.3-2.1,5.2-2.8c1.9-0.6,3.9-1,6-1s4.1,0.3,6.1,0.9
			c1.9,0.6,3.7,1.5,5.2,2.7c1.5,1.1,2.7,2.4,3.5,3.9l-7.1,4.9c-0.9-1.2-2-2.2-3.3-2.9c-1.3-0.7-2.8-1.1-4.4-1.1
			c-2.2,0-4,0.5-5.2,1.5c-1.2,1-1.8,2.3-1.8,3.9c0,0.7,0.3,1.4,1,2c0.7,0.6,1.6,1.1,2.7,1.6c1.1,0.5,2.3,0.9,3.7,1.2
			c1.4,0.4,2.7,0.7,4.1,1.1c1.3,0.4,2.6,0.7,3.8,1.1C468.4,181.7,469.4,182.1,470.1,182.6z"/>
		<path d="M536.7,182.6c1.7,1,3.1,2.4,4,4c0.9,1.6,1.4,3.5,1.4,5.6c0,2-0.5,3.8-1.4,5.6c-1,1.7-2.3,3.2-4,4.6
			c-1.6,1.2-3.4,2.1-5.4,2.8c-2,0.6-4.1,1-6.4,1c-2.2,0-4.4-0.3-6.4-0.9c-2-0.6-3.8-1.6-5.4-2.8c-2.4-1.8-4-3.9-4.9-6.5l8.7-4
			c0,0.4,0.1,0.9,0.4,1.6c0.3,0.6,0.7,1.2,1.4,1.8c0.6,0.6,1.4,1.1,2.4,1.5c1,0.4,2.2,0.6,3.7,0.6c1.2,0,2.2-0.1,3.1-0.4
			c0.9-0.3,1.6-0.7,2.2-1.1c0.6-0.4,1.1-0.9,1.4-1.5c0.3-0.6,0.5-1.1,0.5-1.7c0-0.7-0.2-1.3-0.7-1.9c-0.4-0.6-1.1-1-2-1.4
			c-1.7-0.6-3.4-1.1-5.3-1.5c-1.8-0.4-3.6-0.9-5.4-1.5c-1.7-0.6-3.4-1.4-4.8-2.4c-1.5-1-2.7-2.4-3.5-4.2c-0.8-1.6-1.2-3.3-1.2-5
			c0-2,0.5-3.9,1.4-5.8c0.9-1.9,2.2-3.4,3.8-4.7c1.5-1.2,3.3-2.1,5.2-2.8c1.9-0.6,3.9-1,6-1s4.1,0.3,6.1,0.9
			c1.9,0.6,3.7,1.5,5.2,2.7c1.5,1.1,2.7,2.4,3.5,3.9l-7.1,4.9c-0.9-1.2-2-2.2-3.3-2.9c-1.3-0.7-2.8-1.1-4.4-1.1
			c-2.2,0-4,0.5-5.2,1.5c-1.2,1-1.8,2.3-1.8,3.9c0,0.7,0.3,1.4,1,2c0.7,0.6,1.6,1.1,2.7,1.6c1.1,0.5,2.3,0.9,3.7,1.2
			c1.4,0.4,2.7,0.7,4.1,1.1c1.3,0.4,2.6,0.7,3.8,1.1C535,181.7,536,182.1,536.7,182.6z"/>
		<path d="M607.1,161.2h9.8l-12.4,44.1h-11.7l-9.1-29.7l-9.1,29.7H563l-12.4-44.1h9.8l8.7,33.3l10-33.3h9.1l10.1,33.6L607.1,161.2z"
			/>
		<path d="M626.3,153.2h27.5v8.6h-18.1v8.6h15.9v8.6h-15.9v9.1h15.9v8.6h-15.9v8.6h18.1v8.6h-27.5V153.2z"/>
		<path d="M674.1,196.7h18.1v8.6h-27.5v-44.1h9.5V196.7z"/>
		<path d="M710.8,196.7h18.1v8.6h-27.5v-44.1h9.5V196.7z"/>
		<path d="M71.3,237.8c3.2,0,6,0.6,8.5,1.7c2.4,1.2,4.5,2.7,6.1,4.7c1.6,2,2.9,4.3,3.7,7c0.9,2.7,1.3,5.6,1.3,8.6
			c0,3.1-0.4,5.9-1.3,8.6s-2.1,5-3.7,7s-3.4,3.6-5.6,4.7c-2.2,1.1-4.5,1.7-7,1.7H53.5v-44.1H71.3z M71.3,273.3
			c1.8,0,3.3-0.4,4.6-1.1c1.3-0.7,2.3-1.7,3.1-2.9c0.8-1.2,1.4-2.7,1.8-4.3c0.4-1.6,0.6-3.3,0.6-5.1c0-1.8-0.2-3.5-0.6-5.1
			c-0.4-1.6-1-3.1-1.8-4.3c-0.8-1.2-1.9-2.2-3.2-3c-1.3-0.7-2.8-1.1-4.6-1.1h-8.4v26.9H71.3z"/>
		<path d="M101.4,229.9h27.5v8.6h-18.1v8.6h15.9v8.6h-15.9v9.1h15.9v8.6h-15.9v8.6h18.1v8.6h-27.5V229.9z"/>
		<path d="M167.7,259.2c1.7,1,3.1,2.4,4,4c0.9,1.6,1.4,3.5,1.4,5.6c0,2-0.5,3.8-1.4,5.6c-1,1.7-2.3,3.2-4,4.6
			c-1.6,1.2-3.4,2.1-5.4,2.8s-4.1,1-6.4,1c-2.2,0-4.4-0.3-6.4-0.9c-2-0.6-3.8-1.6-5.4-2.8c-2.4-1.8-4-3.9-4.9-6.5l8.7-4
			c0,0.4,0.1,0.9,0.4,1.6c0.3,0.6,0.7,1.2,1.4,1.8c0.6,0.6,1.4,1.1,2.4,1.5c1,0.4,2.2,0.6,3.7,0.6c1.2,0,2.2-0.1,3.1-0.4
			c0.9-0.3,1.6-0.7,2.2-1.1c0.6-0.4,1.1-0.9,1.4-1.5c0.3-0.6,0.5-1.1,0.5-1.7c0-0.7-0.2-1.3-0.7-1.9c-0.4-0.6-1.1-1-2-1.4
			c-1.7-0.6-3.4-1.1-5.3-1.5c-1.8-0.4-3.6-0.9-5.4-1.5c-1.7-0.6-3.4-1.4-4.8-2.4c-1.5-1-2.7-2.4-3.5-4.2c-0.8-1.6-1.2-3.3-1.2-5
			c0-2,0.5-3.9,1.4-5.8c0.9-1.9,2.2-3.4,3.8-4.7c1.5-1.2,3.3-2.1,5.2-2.8c1.9-0.6,3.9-1,6-1s4.1,0.3,6.1,0.9
			c1.9,0.6,3.7,1.5,5.2,2.7c1.5,1.1,2.7,2.4,3.5,3.9l-7.1,4.9c-0.9-1.2-2-2.2-3.3-2.9c-1.3-0.7-2.8-1.1-4.4-1.1
			c-2.2,0-4,0.5-5.2,1.5c-1.2,1-1.8,2.3-1.8,3.9c0,0.7,0.3,1.4,1,2c0.7,0.6,1.6,1.1,2.7,1.6c1.1,0.5,2.3,0.9,3.7,1.2
			c1.4,0.4,2.7,0.7,4.1,1.1c1.3,0.4,2.6,0.7,3.8,1.1C166,258.4,167,258.8,167.7,259.2z"/>
		<path d="M199.6,237.8v8h-3.3V274h3.3v7.9h-16V274h3.3v-28.2h-3.3v-8H199.6z"/>
		<path d="M232.8,257h16.7v16.2c-2.5,3.2-5.2,5.5-8.3,7.2c-3,1.6-6.2,2.4-9.5,2.4c-3,0-5.8-0.6-8.5-1.8c-2.7-1.2-5-2.9-6.9-4.9
			c-1.9-2.1-3.5-4.5-4.6-7.2c-1.1-2.8-1.7-5.7-1.7-8.8c0-3.1,0.6-6,1.7-8.8c1.1-2.7,2.7-5.1,4.6-7.2c1.9-2.1,4.2-3.7,6.9-4.9
			c2.7-1.2,5.5-1.8,8.5-1.8c2.8,0,5.5,0.5,8,1.6c2.5,1,4.9,2.8,7.3,5.2l-5.5,6.7c-1.7-1.6-3.4-2.7-4.9-3.3c-1.5-0.6-3.2-0.8-4.9-0.8
			c-1.7,0-3.4,0.4-4.9,1.1c-1.5,0.7-2.8,1.7-3.9,2.9c-1.1,1.2-2,2.6-2.6,4.3c-0.6,1.6-1,3.4-1,5.3c0,1.9,0.3,3.6,1,5.2
			c0.6,1.6,1.5,3,2.6,4.3c1.1,1.2,2.4,2.2,3.9,2.9c1.5,0.7,3.1,1.1,4.9,1.1c1.5,0,3.1-0.3,4.6-0.8c1.5-0.6,3-1.5,4.6-2.8v-4.8h-8.1
			V257z"/>
		<path d="M290.3,237.8h9.5v44.1h-9l-21.1-28.8v28.8h-9.5v-44.1h8.8l21.3,29V237.8z"/>
		<path d="M360.9,237.8l18.4,44.1h-10.2l-4-9.5h-18.7l-3.9,9.5h-10.3l18.4-44.1H360.9z M361.6,263.9l-5.8-13.9l-5.8,13.9H361.6z"/>
		<path d="M398.7,273.3h18.1v8.6h-27.5v-44.1h9.5V273.3z"/>
		<path d="M435.4,273.3h18.1v8.6h-27.5v-44.1h9.5V273.3z"/>
		<path d="M477.3,237.8H526v8.6h-11.3v35.5h-9.5v-35.5H498v35.5h-9.5v-35.5h-11.3V237.8z"/>
		<path d="M565.8,237.8h9.5v44.1h-9.5v-19h-20.1v19h-9.5v-44.1h9.5v16.5h20.1V237.8z"/>
		<path d="M586.6,229.9h27.5v8.6H596v8.6H612v8.6H596v9.1H612v8.6H596v8.6h18.1v8.6h-27.5V229.9z"/>
		<path d="M702.1,237.8h9.8l-12.4,44.1h-11.7l-9.1-29.7l-9.1,29.7H658l-12.4-44.1h9.8l8.7,33.3l10-33.3h9.1l10.1,33.6L702.1,237.8z"
			/>
		<path d="M744.2,237.8l18.4,44.1h-10.2l-4-9.5h-18.7l-3.9,9.5h-10.3l18.4-44.1H744.2z M744.9,263.9l-5.8-13.9l-5.8,13.9H744.9z"/>
		<path d="M794.2,237.8h11.4l-15.7,23.4v20.6h-9.5v-20.6l-15.7-23.4H776l9.1,13.6L794.2,237.8z"/>
		<path d="M96.4,313.8c3,0,5.8,0.6,8.5,1.8c2.7,1.2,5,2.8,6.9,4.9c2,2.1,3.5,4.5,4.7,7.2c1.1,2.7,1.7,5.7,1.7,8.8
			c0,3.1-0.6,6-1.7,8.8c-1.1,2.8-2.7,5.2-4.7,7.3c-2,2.1-4.3,3.7-6.9,4.9c-2.7,1.2-5.5,1.8-8.5,1.8c-1.5,0-2.9-0.1-4.2-0.4
			s-2.7-0.7-3.9-1.2c-1.3,0.5-2.6,1-3.9,1.2c-1.3,0.3-2.7,0.4-4.2,0.4c-3,0-5.8-0.6-8.5-1.8c-2.7-1.2-5-2.9-6.9-4.9
			c-1.9-2.1-3.5-4.5-4.6-7.3c-1.1-2.8-1.7-5.7-1.7-8.8c0-3.1,0.6-6,1.7-8.8c1.1-2.7,2.7-5.1,4.6-7.2c1.9-2.1,4.2-3.7,6.9-4.9
			c2.7-1.2,5.5-1.8,8.5-1.8c1.5,0,2.8,0.1,4.2,0.4c1.3,0.3,2.7,0.7,3.9,1.2c1.2-0.5,2.5-1,3.9-1.2S94.9,313.8,96.4,313.8z
			 M67.8,336.5c0,1.7,0.3,3.4,0.9,4.9s1.4,2.9,2.4,4.1c1,1.2,2.2,2.2,3.5,2.9c1.3,0.7,2.8,1.2,4.4,1.4c-1.3-1.9-2.4-4-3.1-6.2
			c-0.8-2.3-1.1-4.6-1.1-7.1s0.4-4.9,1.1-7.2s1.8-4.4,3.1-6.3c-1.6,0.2-3,0.6-4.4,1.4c-1.3,0.8-2.5,1.8-3.5,3
			c-1,1.2-1.8,2.6-2.4,4.1S67.8,334.8,67.8,336.5z M92.4,336.5c0-2-0.4-3.9-1.1-5.7s-1.7-3.2-3-4.5c-1.3,1.2-2.3,2.7-3,4.5
			c-0.7,1.7-1.1,3.6-1.1,5.7s0.4,3.9,1.1,5.7c0.7,1.7,1.7,3.2,3,4.4c1.3-1.2,2.3-2.7,3-4.4C92,340.4,92.4,338.6,92.4,336.5z
			 M101.9,336.5c0,2.5-0.4,4.9-1.1,7.1c-0.7,2.3-1.8,4.3-3.1,6.2c1.5-0.2,3-0.6,4.3-1.4c1.3-0.8,2.5-1.7,3.5-2.9s1.8-2.5,2.4-4.1
			c0.6-1.6,0.9-3.2,0.9-4.9s-0.3-3.4-0.9-4.9c-0.6-1.6-1.4-2.9-2.4-4.1s-2.2-2.2-3.5-3c-1.3-0.8-2.8-1.2-4.4-1.4
			c1.3,1.9,2.4,4,3.1,6.3C101.5,331.7,101.9,334,101.9,336.5z"/>
		<path d="M158.4,314.5h9.5v44.1h-9.5v-19h-20.1v19h-9.5v-44.1h9.5V331h20.1V314.5z"/>
		<path d="M181.4,350.6h9.6l-5.1,16.9h-6.6L181.4,350.6z"/>
		<path d="M280.8,314.5h9.8l-12.4,44.1h-11.7l-9.1-29.7l-9.1,29.7h-11.6l-12.4-44.1h9.8l8.7,33.3l10-33.3h9.1l10.1,33.6L280.8,314.5
			z"/>
		<path d="M329.8,314.5h9.5v44.1h-9.5v-19h-20.1v19h-9.5v-44.1h9.5V331h20.1V314.5z"/>
		<path d="M377.8,314.5l18.4,44.1H386l-4-9.5h-18.7l-3.9,9.5h-10.3l18.4-44.1H377.8z M378.5,340.5l-5.8-13.9l-5.8,13.9H378.5z"/>
		<path d="M398.8,314.5h48.7v8.6h-11.3v35.5h-9.5V323h-7.3v35.5H410V323h-11.3V314.5z"/>
		<path d="M477.3,314.5h27.5v8.6h-18.1v8h15.9v8.6h-15.9v19h-9.5V314.5z"/>
		<path d="M539.1,314.5h9.5v28.2c0,2.2-0.5,4.3-1.4,6.3c-0.9,2-2.2,3.8-3.7,5.3c-1.6,1.5-3.4,2.8-5.5,3.7s-4.3,1.4-6.8,1.4
			c-2.4,0-4.6-0.5-6.7-1.4s-4-2.1-5.5-3.7c-1.6-1.5-2.8-3.3-3.7-5.3c-0.9-2-1.4-4.1-1.4-6.3v-28.2h9.5v26.3c0,1.2,0.2,2.4,0.6,3.5
			c0.4,1.1,1,2.1,1.7,2.9c0.7,0.8,1.5,1.5,2.5,2c1,0.5,2,0.7,3.1,0.7c1.1,0,2.1-0.2,3.1-0.7c1-0.5,1.8-1.2,2.5-2s1.3-1.8,1.7-2.9
			s0.6-2.3,0.6-3.5V314.5z"/>
		<path d="M589.7,314.5h9.5v44.1h-9L569,329.8v28.8h-9.5v-44.1h8.8l21.3,29V314.5z"/>
		<path d="M649.3,314.5v8H646v28.2h3.3v7.9h-16v-7.9h3.3v-28.2h-3.3v-8H649.3z"/>
		<path d="M659.5,314.5h48.7v8.6H697v35.5h-9.5V323h-7.3v35.5h-9.5V323h-11.3V314.5z"/>
		<path d="M754.1,314.5v8h-3.3v28.2h3.3v7.9h-16v-7.9h3.3v-28.2H738v-8H754.1z"/>
		<path d="M793.5,335.8c1.7,1,3.1,2.4,4,4c0.9,1.6,1.4,3.5,1.4,5.6c0,2-0.5,3.8-1.4,5.6c-1,1.7-2.3,3.2-4,4.6
			c-1.6,1.2-3.4,2.1-5.4,2.8s-4.1,1-6.4,1c-2.2,0-4.4-0.3-6.4-0.9c-2-0.6-3.8-1.6-5.4-2.8c-2.4-1.8-4-3.9-4.9-6.5l8.7-4
			c0,0.4,0.1,0.9,0.4,1.6c0.3,0.6,0.7,1.2,1.4,1.8c0.6,0.6,1.4,1.1,2.4,1.5c1,0.4,2.2,0.6,3.7,0.6c1.2,0,2.2-0.1,3.1-0.4
			c0.9-0.3,1.6-0.7,2.2-1.1c0.6-0.4,1.1-0.9,1.4-1.5c0.3-0.6,0.5-1.1,0.5-1.7c0-0.7-0.2-1.3-0.7-1.9c-0.4-0.6-1.1-1-2-1.4
			c-1.7-0.6-3.4-1.1-5.3-1.5c-1.8-0.4-3.6-0.9-5.4-1.5s-3.4-1.4-4.8-2.4c-1.5-1-2.7-2.4-3.5-4.2c-0.8-1.6-1.2-3.3-1.2-5
			c0-2,0.5-3.9,1.4-5.8c0.9-1.9,2.2-3.4,3.8-4.7c1.5-1.2,3.3-2.1,5.2-2.8c1.9-0.6,3.9-1,6-1s4.1,0.3,6.1,0.9s3.7,1.5,5.2,2.7
			c1.5,1.1,2.7,2.4,3.5,3.9l-7.1,4.9c-0.9-1.2-2-2.2-3.3-2.9s-2.8-1.1-4.4-1.1c-2.2,0-4,0.5-5.2,1.5c-1.2,1-1.8,2.3-1.8,3.9
			c0,0.7,0.3,1.4,1,2c0.7,0.6,1.6,1.1,2.7,1.6c1.1,0.5,2.3,0.9,3.7,1.2c1.4,0.4,2.7,0.7,4.1,1.1c1.3,0.4,2.6,0.7,3.8,1.1
			C791.8,335,792.7,335.4,793.5,335.8z"/>
		<path d="M229.3,391.1H278v8.6h-11.3v35.5h-9.5v-35.5H250v35.5h-9.5v-35.5h-11.3V391.1z"/>
		<path d="M325.4,390.5c3,0,5.8,0.6,8.5,1.8c2.7,1.2,5,2.8,6.9,4.9c2,2.1,3.5,4.5,4.7,7.2c1.1,2.7,1.7,5.7,1.7,8.8
			c0,3.1-0.6,6-1.7,8.8c-1.1,2.8-2.7,5.2-4.7,7.3c-2,2.1-4.3,3.7-6.9,4.9c-2.7,1.2-5.5,1.8-8.5,1.8c-1.5,0-2.9-0.1-4.2-0.4
			s-2.7-0.7-3.9-1.2c-1.3,0.5-2.6,1-3.9,1.2c-1.3,0.3-2.7,0.4-4.2,0.4c-3,0-5.8-0.6-8.5-1.8c-2.7-1.2-5-2.9-6.9-4.9
			c-1.9-2.1-3.5-4.5-4.6-7.3c-1.1-2.8-1.7-5.7-1.7-8.8c0-3.1,0.6-6,1.7-8.8c1.1-2.7,2.7-5.1,4.6-7.2c1.9-2.1,4.2-3.7,6.9-4.9
			c2.7-1.2,5.5-1.8,8.5-1.8c1.5,0,2.8,0.1,4.2,0.4c1.3,0.3,2.7,0.7,3.9,1.2c1.2-0.5,2.5-1,3.9-1.2S323.9,390.5,325.4,390.5z
			 M296.8,413.2c0,1.7,0.3,3.4,0.9,4.9s1.4,2.9,2.4,4.1c1,1.2,2.2,2.2,3.5,2.9c1.3,0.7,2.8,1.2,4.4,1.4c-1.3-1.9-2.4-4-3.1-6.2
			c-0.8-2.3-1.1-4.6-1.1-7.1s0.4-4.9,1.1-7.2s1.8-4.4,3.1-6.3c-1.6,0.2-3,0.6-4.4,1.4c-1.3,0.8-2.5,1.8-3.5,3
			c-1,1.2-1.8,2.6-2.4,4.1S296.8,411.4,296.8,413.2z M321.4,413.2c0-2-0.4-3.9-1.1-5.7s-1.7-3.2-3-4.5c-1.3,1.2-2.3,2.7-3,4.5
			c-0.7,1.7-1.1,3.6-1.1,5.7s0.4,3.9,1.1,5.7c0.7,1.7,1.7,3.2,3,4.4c1.3-1.2,2.3-2.7,3-4.4C321,417.1,321.4,415.2,321.4,413.2z
			 M330.8,413.2c0,2.5-0.4,4.9-1.1,7.1c-0.7,2.3-1.8,4.3-3.1,6.2c1.5-0.2,3-0.6,4.3-1.4c1.3-0.8,2.5-1.7,3.5-2.9s1.8-2.5,2.4-4.1
			c0.6-1.6,0.9-3.2,0.9-4.9s-0.3-3.4-0.9-4.9c-0.6-1.6-1.4-2.9-2.4-4.1s-2.2-2.2-3.5-3c-1.3-0.8-2.8-1.2-4.4-1.4
			c1.3,1.9,2.4,4,3.1,6.3C330.4,408.3,330.8,410.7,330.8,413.2z"/>
		<path d="M398.3,391.1c3.2,0,6,0.6,8.5,1.7c2.4,1.2,4.5,2.7,6.1,4.7c1.6,2,2.9,4.3,3.7,7c0.9,2.7,1.3,5.6,1.3,8.6
			c0,3.1-0.4,5.9-1.3,8.6s-2.1,5-3.7,7s-3.4,3.6-5.6,4.7c-2.2,1.1-4.5,1.7-7,1.7h-19.7v-44.1H398.3z M398.4,426.6
			c1.8,0,3.3-0.4,4.6-1.1c1.3-0.7,2.3-1.7,3.1-2.9c0.8-1.2,1.4-2.7,1.8-4.3c0.4-1.6,0.6-3.3,0.6-5.1s-0.2-3.5-0.6-5.1
			c-0.4-1.6-1-3.1-1.8-4.3c-0.8-1.2-1.9-2.2-3.2-3c-1.3-0.7-2.8-1.1-4.6-1.1H390v26.9H398.4z"/>
		<path d="M428.4,383.1h27.5v8.6h-18.1v8.6h15.9v8.6h-15.9v9.1h15.9v8.6h-15.9v8.6h18.1v8.6h-27.5V383.1z"/>
		<path d="M494.7,412.5c1.7,1,3.1,2.4,4,4c0.9,1.6,1.4,3.5,1.4,5.6c0,2-0.5,3.8-1.4,5.6c-1,1.7-2.3,3.2-4,4.6
			c-1.6,1.2-3.4,2.1-5.4,2.8s-4.1,1-6.4,1c-2.2,0-4.4-0.3-6.4-0.9c-2-0.6-3.8-1.6-5.4-2.8c-2.4-1.8-4-3.9-4.9-6.5l8.7-4
			c0,0.4,0.1,0.9,0.4,1.6c0.3,0.6,0.7,1.2,1.4,1.8c0.6,0.6,1.4,1.1,2.4,1.5c1,0.4,2.2,0.6,3.7,0.6c1.2,0,2.2-0.1,3.1-0.4
			c0.9-0.3,1.6-0.7,2.2-1.1c0.6-0.4,1.1-0.9,1.4-1.5c0.3-0.6,0.5-1.1,0.5-1.7c0-0.7-0.2-1.3-0.7-1.9c-0.4-0.6-1.1-1-2-1.4
			c-1.7-0.6-3.4-1.1-5.3-1.5c-1.8-0.4-3.6-0.9-5.4-1.5s-3.4-1.4-4.8-2.4c-1.5-1-2.7-2.4-3.5-4.2c-0.8-1.6-1.2-3.3-1.2-5
			c0-2,0.5-3.9,1.4-5.8c0.9-1.9,2.2-3.4,3.8-4.7c1.5-1.2,3.3-2.1,5.2-2.8c1.9-0.6,3.9-1,6-1s4.1,0.3,6.1,0.9s3.7,1.5,5.2,2.7
			c1.5,1.1,2.7,2.4,3.5,3.9l-7.1,4.9c-0.9-1.2-2-2.2-3.3-2.9s-2.8-1.1-4.4-1.1c-2.2,0-4,0.5-5.2,1.5c-1.2,1-1.8,2.3-1.8,3.9
			c0,0.7,0.3,1.4,1,2c0.7,0.6,1.6,1.1,2.7,1.6c1.1,0.5,2.3,0.9,3.7,1.2c1.4,0.4,2.7,0.7,4.1,1.1c1.3,0.4,2.6,0.7,3.8,1.1
			C493,411.6,494,412,494.7,412.5z"/>
		<path d="M526.6,391.1v8h-3.3v28.2h3.3v7.9h-16v-7.9h3.3V399h-3.3v-8H526.6z"/>
		<path d="M559.9,410.2h16.7v16.2c-2.5,3.2-5.2,5.5-8.3,7.2c-3,1.6-6.2,2.4-9.5,2.4c-3,0-5.8-0.6-8.5-1.8c-2.7-1.2-5-2.9-6.9-4.9
			c-1.9-2.1-3.5-4.5-4.6-7.2c-1.1-2.8-1.7-5.7-1.7-8.8s0.6-6,1.7-8.8c1.1-2.7,2.7-5.1,4.6-7.2c1.9-2.1,4.2-3.7,6.9-4.9
			c2.7-1.2,5.5-1.8,8.5-1.8c2.8,0,5.5,0.5,8,1.6c2.5,1,4.9,2.8,7.3,5.2l-5.5,6.7c-1.7-1.6-3.4-2.7-4.9-3.3c-1.5-0.6-3.2-0.8-4.9-0.8
			c-1.7,0-3.4,0.4-4.9,1.1c-1.5,0.7-2.8,1.7-3.9,2.9c-1.1,1.2-2,2.6-2.6,4.3c-0.6,1.6-1,3.4-1,5.3c0,1.9,0.3,3.6,1,5.2
			c0.6,1.6,1.5,3,2.6,4.3s2.4,2.2,3.9,2.9c1.5,0.7,3.1,1.1,4.9,1.1c1.5,0,3.1-0.3,4.6-0.8c1.5-0.6,3-1.5,4.6-2.8v-4.8h-8.1V410.2z"
			/>
		<path d="M617.3,391.1h9.5v44.1h-9l-21.1-28.8v28.8h-9.5v-44.1h8.8l21.3,29V391.1z"/>
		<path d="M47,467.7l18.4,44.1H55.2l-4-9.5H32.5l-3.9,9.5H18.3l18.4-44.1H47z M47.7,493.8l-5.8-13.9l-5.8,13.9H47.7z"/>
		<path d="M107.4,503.2h18.1v8.6H98v-44.1h9.5V503.2z"/>
		<path d="M170.5,467.1c3,0,5.8,0.6,8.5,1.8c2.7,1.2,5,2.8,6.9,4.9c2,2.1,3.5,4.5,4.7,7.2c1.1,2.7,1.7,5.7,1.7,8.8
			c0,3.1-0.6,6-1.7,8.8c-1.1,2.8-2.7,5.2-4.7,7.3c-2,2.1-4.3,3.7-6.9,4.9c-2.7,1.2-5.5,1.8-8.5,1.8c-1.5,0-2.9-0.1-4.2-0.4
			s-2.7-0.7-3.9-1.2c-1.3,0.5-2.6,1-3.9,1.2c-1.3,0.3-2.7,0.4-4.2,0.4c-3,0-5.8-0.6-8.5-1.8c-2.7-1.2-5-2.9-6.9-4.9
			c-1.9-2.1-3.5-4.5-4.6-7.3c-1.1-2.8-1.7-5.7-1.7-8.8c0-3.1,0.6-6,1.7-8.8c1.1-2.7,2.7-5.1,4.6-7.2c1.9-2.1,4.2-3.7,6.9-4.9
			c2.7-1.2,5.5-1.8,8.5-1.8c1.5,0,2.8,0.1,4.2,0.4c1.3,0.3,2.7,0.7,3.9,1.2c1.2-0.5,2.5-1,3.9-1.2S169.1,467.1,170.5,467.1z
			 M142,489.8c0,1.7,0.3,3.4,0.9,4.9s1.4,2.9,2.4,4.1c1,1.2,2.2,2.2,3.5,2.9c1.3,0.7,2.8,1.2,4.4,1.4c-1.3-1.9-2.4-4-3.1-6.2
			c-0.8-2.3-1.1-4.6-1.1-7.1s0.4-4.9,1.1-7.2s1.8-4.4,3.1-6.3c-1.6,0.2-3,0.6-4.4,1.4c-1.3,0.8-2.5,1.8-3.5,3
			c-1,1.2-1.8,2.6-2.4,4.1S142,488,142,489.8z M166.5,489.8c0-2-0.4-3.9-1.1-5.7s-1.7-3.2-3-4.5c-1.3,1.2-2.3,2.7-3,4.5
			c-0.7,1.7-1.1,3.6-1.1,5.7s0.4,3.9,1.1,5.7c0.7,1.7,1.7,3.2,3,4.4c1.3-1.2,2.3-2.7,3-4.4C166.2,493.7,166.5,491.8,166.5,489.8z
			 M176,489.8c0,2.5-0.4,4.9-1.1,7.1c-0.7,2.3-1.8,4.3-3.1,6.2c1.5-0.2,3-0.6,4.3-1.4c1.3-0.8,2.5-1.7,3.5-2.9s1.8-2.5,2.4-4.1
			c0.6-1.6,0.9-3.2,0.9-4.9s-0.3-3.4-0.9-4.9c-0.6-1.6-1.4-2.9-2.4-4.1s-2.2-2.2-3.5-3c-1.3-0.8-2.8-1.2-4.4-1.4
			c1.3,1.9,2.4,4,3.1,6.3C175.6,484.9,176,487.3,176,489.8z"/>
		<path d="M224.7,486.9h16.7V503c-2.5,3.2-5.2,5.5-8.3,7.2c-3,1.6-6.2,2.4-9.5,2.4c-3,0-5.8-0.6-8.5-1.8c-2.7-1.2-5-2.9-6.9-4.9
			c-1.9-2.1-3.5-4.5-4.6-7.2c-1.1-2.8-1.7-5.7-1.7-8.8s0.6-6,1.7-8.8c1.1-2.7,2.7-5.1,4.6-7.2c1.9-2.1,4.2-3.7,6.9-4.9
			c2.7-1.2,5.5-1.8,8.5-1.8c2.8,0,5.5,0.5,8,1.6c2.5,1,4.9,2.8,7.3,5.2l-5.5,6.7c-1.7-1.6-3.4-2.7-4.9-3.3c-1.5-0.6-3.2-0.8-4.9-0.8
			c-1.7,0-3.4,0.4-4.9,1.1c-1.5,0.7-2.8,1.7-3.9,2.9c-1.1,1.2-2,2.6-2.6,4.3c-0.6,1.6-1,3.4-1,5.3c0,1.9,0.3,3.6,1,5.2
			c0.6,1.6,1.5,3,2.6,4.3s2.4,2.2,3.9,2.9c1.5,0.7,3.1,1.1,4.9,1.1c1.5,0,3.1-0.3,4.6-0.8c1.5-0.6,3-1.5,4.6-2.8v-4.8h-8.1V486.9z"
			/>
		<path d="M289.2,467.1c3,0,5.8,0.6,8.5,1.8c2.7,1.2,5,2.8,6.9,4.9c2,2.1,3.5,4.5,4.7,7.2c1.1,2.7,1.7,5.7,1.7,8.8
			c0,3.1-0.6,6-1.7,8.8c-1.1,2.8-2.7,5.2-4.7,7.3c-2,2.1-4.3,3.7-6.9,4.9c-2.7,1.2-5.5,1.8-8.5,1.8c-1.5,0-2.9-0.1-4.2-0.4
			s-2.7-0.7-3.9-1.2c-1.3,0.5-2.6,1-3.9,1.2c-1.3,0.3-2.7,0.4-4.2,0.4c-3,0-5.8-0.6-8.5-1.8c-2.7-1.2-5-2.9-6.9-4.9
			c-1.9-2.1-3.5-4.5-4.6-7.3c-1.1-2.8-1.7-5.7-1.7-8.8c0-3.1,0.6-6,1.7-8.8c1.1-2.7,2.7-5.1,4.6-7.2c1.9-2.1,4.2-3.7,6.9-4.9
			c2.7-1.2,5.5-1.8,8.5-1.8c1.5,0,2.8,0.1,4.2,0.4c1.3,0.3,2.7,0.7,3.9,1.2c1.2-0.5,2.5-1,3.9-1.2S287.8,467.1,289.2,467.1z
			 M260.7,489.8c0,1.7,0.3,3.4,0.9,4.9s1.4,2.9,2.4,4.1c1,1.2,2.2,2.2,3.5,2.9c1.3,0.7,2.8,1.2,4.4,1.4c-1.3-1.9-2.4-4-3.1-6.2
			c-0.8-2.3-1.1-4.6-1.1-7.1s0.4-4.9,1.1-7.2s1.8-4.4,3.1-6.3c-1.6,0.2-3,0.6-4.4,1.4c-1.3,0.8-2.5,1.8-3.5,3
			c-1,1.2-1.8,2.6-2.4,4.1S260.7,488,260.7,489.8z M285.2,489.8c0-2-0.4-3.9-1.1-5.7s-1.7-3.2-3-4.5c-1.3,1.2-2.3,2.7-3,4.5
			c-0.7,1.7-1.1,3.6-1.1,5.7s0.4,3.9,1.1,5.7c0.7,1.7,1.7,3.2,3,4.4c1.3-1.2,2.3-2.7,3-4.4C284.9,493.7,285.2,491.8,285.2,489.8z
			 M294.7,489.8c0,2.5-0.4,4.9-1.1,7.1c-0.7,2.3-1.8,4.3-3.1,6.2c1.5-0.2,3-0.6,4.3-1.4c1.3-0.8,2.5-1.7,3.5-2.9s1.8-2.5,2.4-4.1
			c0.6-1.6,0.9-3.2,0.9-4.9s-0.3-3.4-0.9-4.9c-0.6-1.6-1.4-2.9-2.4-4.1s-2.2-2.2-3.5-3c-1.3-0.8-2.8-1.2-4.4-1.4
			c1.3,1.9,2.4,4,3.1,6.3C294.3,484.9,294.7,487.3,294.7,489.8z"/>
		<path d="M371.4,467.7l18.4,44.1h-10.2l-4-9.5h-18.7l-3.9,9.5h-10.3l18.4-44.1H371.4z M372.1,493.8l-5.8-13.9l-5.8,13.9H372.1z"/>
		<path d="M409.2,503.2h18.1v8.6h-27.5v-44.1h9.5V503.2z"/>
		<path d="M445.9,503.2H464v8.6h-27.5v-44.1h9.5V503.2z"/>
		<path d="M487.8,467.7h48.7v8.6h-11.3v35.5h-9.5v-35.5h-7.3v35.5h-9.5v-35.5h-11.3V467.7z"/>
		<path d="M576.3,467.7h9.5v44.1h-9.5v-19h-20.1v19h-9.5v-44.1h9.5v16.5h20.1V467.7z"/>
		<path d="M597.1,459.7h27.5v8.6h-18.1v8.6h15.9v8.6h-15.9v9.1h15.9v8.6h-15.9v8.6h18.1v8.6h-27.5V459.7z"/>
		<path d="M712.6,467.7h9.8L710,511.8h-11.7l-9.1-29.7l-9.1,29.7h-11.6l-12.4-44.1h9.8l8.7,33.3l10-33.3h9.1l10.1,33.6L712.6,467.7z
			"/>
		<path d="M754.7,467.7l18.4,44.1h-10.2l-4-9.5h-18.7l-3.9,9.5h-10.3l18.4-44.1H754.7z M755.4,493.8l-5.8-13.9l-5.8,13.9H755.4z"/>
		<path d="M804.7,467.7h11.4l-15.7,23.4v20.6h-9.5v-20.6l-15.7-23.4h11.4l9.1,13.6L804.7,467.7z"/>
		<path d="M831.5,502.8c1.3,0,2.4,0.5,3.4,1.4c0.9,0.9,1.4,2,1.4,3.4s-0.5,2.5-1.4,3.4c-0.9,0.9-2,1.4-3.4,1.4
			c-1.3,0-2.5-0.5-3.4-1.4c-0.9-0.9-1.4-2-1.4-3.4s0.5-2.5,1.4-3.4C829,503.2,830.2,502.8,831.5,502.8z M827.7,499l-0.7-31.3h9.1
			l-0.7,31.3H827.7z"/>
		<path d="M383.7,544.3h9.5v44.1h-9.5v-19h-20.1v19h-9.5v-44.1h9.5v16.5h20.1V544.3z"/>
		<path d="M404.5,536.4H432v8.6h-18.1v8.6h15.9v8.6h-15.9v9.1h15.9v8.6h-15.9v8.6H432v8.6h-27.5V536.4z"/>
		<path d="M470.5,544.3h11.4l-15.7,23.4v20.6h-9.5v-20.6L441,544.3h11.4l9.1,13.6L470.5,544.3z"/>
		<path d="M497.3,579.4c1.3,0,2.4,0.5,3.4,1.4c0.9,0.9,1.4,2,1.4,3.4s-0.5,2.5-1.4,3.4c-0.9,0.9-2,1.4-3.4,1.4
			c-1.3,0-2.5-0.5-3.4-1.4c-0.9-0.9-1.4-2-1.4-3.4s0.5-2.5,1.4-3.4C494.8,579.9,496,579.4,497.3,579.4z M493.5,575.7l-0.7-31.3h9.1
			l-0.7,31.3H493.5z"/>
	</g>
</g>
</svg>
