<?xml version="1.0" encoding="utf-8"?>
<!-- Generator: Adobe Illustrator 18.0.0, SVG Export Plug-In . SVG Version: 6.00 Build 0)  -->
<!DOCTYPE svg PUBLIC "-//W3C//DTD SVG 1.1//EN" "http://www.w3.org/Graphics/SVG/1.1/DTD/svg11.dtd">
<svg version="1.1" id="Layer_1" xmlns="http://www.w3.org/2000/svg" xmlns:xlink="http://www.w3.org/1999/xlink" x="0px" y="0px"
	 viewBox="0 0 820.4 598.1" enable-background="new 0 0 820.4 598.1" xml:space="preserve">
<g>
	<g>
		<path d="M108,0.1L61.7,89.5H45.5L-0.8,0.1h16.2l38.3,73.7L91.8,0.1H108z"/>
		<path d="M195.9,127.4l-46.3,89.4h-16.2l-46.3-89.4h16.2l38.3,73.7l38.1-73.7H195.9z"/>
		<path d="M372.6,127.4l-46.3,89.4h-16.2l-46.3-89.4H280l38.3,73.7l38.1-73.7H372.6z"/>
		<path d="M551.5,127.4l-46.3,89.4H489l-46.3-89.4h16.2l38.3,73.7l38.1-73.7H551.5z"/>
		<path d="M730.4,127.4l-46.3,89.4h-16.2l-46.3-89.4h16.2l38.3,73.7l38.1-73.7H730.4z"/>
		<path d="M285.9,0.1l-46.3,89.4h-16.2L177.1,0.1h16.2l38.3,73.7l38.1-73.7H285.9z"/>
		<path d="M463.8,0.1l-46.3,89.4h-16.2L355,0.1h16.2l38.3,73.7l38.1-73.7H463.8z"/>
		<path d="M641.7,0.1l-46.3,89.4h-16.2L532.9,0.1h16.2l38.3,73.7l38.1-73.7H641.7z"/>
		<path d="M819.6,0.1l-46.3,89.4h-16.2L710.8,0.1H727l38.3,73.7l38.1-73.7H819.6z"/>
	</g>
	<g>
		<path d="M108,254.9l-46.3,89.4H45.5l-46.3-89.4h16.2l38.3,73.7l38.1-73.7H108z"/>
		<path d="M195.9,382.2l-46.3,89.4h-16.2l-46.3-89.4h16.2l38.3,73.7l38.1-73.7H195.9z"/>
		<path d="M372.6,382.2l-46.3,89.4h-16.2l-46.3-89.4H280l38.3,73.7l38.1-73.7H372.6z"/>
		<path d="M551.5,382.2l-46.3,89.4H489l-46.3-89.4h16.2l38.3,73.7l38.1-73.7H551.5z"/>
		<path d="M730.4,382.2l-46.3,89.4h-16.2l-46.3-89.4h16.2l38.3,73.7l38.1-73.7H730.4z"/>
		<path d="M285.9,254.9l-46.3,89.4h-16.2l-46.3-89.4h16.2l38.3,73.7l38.1-73.7H285.9z"/>
		<path d="M463.8,254.9l-46.3,89.4h-16.2L355,254.9h16.2l38.3,73.7l38.1-73.7H463.8z"/>
		<path d="M641.7,254.9l-46.3,89.4h-16.2l-46.3-89.4h16.2l38.3,73.7l38.1-73.7H641.7z"/>
		<path d="M819.6,254.9l-46.3,89.4h-16.2l-46.3-89.4H727l38.3,73.7l38.1-73.7H819.6z"/>
	</g>
	<g>
		<path d="M108,509.8l-46.3,89.4H45.5l-46.3-89.4h16.2l38.3,73.7l38.1-73.7H108z"/>
		<path d="M285.9,509.8l-46.3,89.4h-16.2l-46.3-89.4h16.2l38.3,73.7l38.1-73.7H285.9z"/>
		<path d="M463.8,509.8l-46.3,89.4h-16.2L355,509.8h16.2l38.3,73.7l38.1-73.7H463.8z"/>
		<path d="M641.7,509.8l-46.3,89.4h-16.2l-46.3-89.4h16.2l38.3,73.7l38.1-73.7H641.7z"/>
		<path d="M819.6,509.8l-46.3,89.4h-16.2l-46.3-89.4H727l38.3,73.7l38.1-73.7H819.6z"/>
	</g>
</g>
</svg>
