<?xml version="1.0" encoding="utf-8"?>
<!-- Generator: Adobe Illustrator 18.0.0, SVG Export Plug-In . SVG Version: 6.00 Build 0)  -->
<!DOCTYPE svg PUBLIC "-//W3C//DTD SVG 1.1//EN" "http://www.w3.org/Graphics/SVG/1.1/DTD/svg11.dtd">
<svg version="1.1" id="Layer_1" xmlns="http://www.w3.org/2000/svg" xmlns:xlink="http://www.w3.org/1999/xlink" x="0px" y="0px"
	 viewBox="0 0 631.9 600" enable-background="new 0 0 631.9 600" xml:space="preserve">
<g>
	<path d="M-39.7,186.6c5.6,0,10.9,1.1,15.9,3.2c5,2.2,9.3,5.1,13,8.9c3.7,3.8,6.6,8.1,8.8,13.2c2.2,5,3.2,10.4,3.2,16.1
		c0,5.7-1.1,11.1-3.2,16.1c-2.2,5-5.1,9.4-8.8,13.2c-3.7,3.8-8,6.7-13,8.9c-5,2.2-10.3,3.2-15.9,3.2c-5.7,0-11-1.1-16-3.2
		c-5-2.2-9.3-5.1-13-8.9c-3.7-3.7-6.6-8.1-8.8-13.2c-2.2-5-3.2-10.4-3.2-16.1c0-5.7,1.1-11.1,3.2-16.1c2.2-5,5.1-9.4,8.8-13.2
		c3.7-3.7,8-6.7,13-8.9C-50.8,187.7-45.5,186.6-39.7,186.6z M-39.7,250.1c2.6,0,5.1-0.5,7.4-1.6c2.3-1.1,4.3-2.5,6-4.4
		c1.7-1.8,3.1-4.1,4.1-6.7c1-2.6,1.5-5.5,1.5-8.6s-0.5-6.1-1.5-8.9c-1-2.7-2.4-5.2-4.1-7.2c-1.7-2.1-3.8-3.7-6-4.9
		c-2.3-1.2-4.7-1.8-7.4-1.8c-2.6,0-5.1,0.6-7.4,1.8c-2.3,1.2-4.4,2.9-6.1,4.9c-1.7,2.1-3.1,4.5-4.1,7.2c-1,2.7-1.5,5.7-1.5,8.9
		s0.5,6.1,1.5,8.6c1,2.6,2.4,4.8,4.1,6.7c1.7,1.9,3.8,3.3,6.1,4.4C-44.9,249.6-42.4,250.1-39.7,250.1z"/>
</g>
<g>
	<path d="M77.6,292l85.9,96.7h-47l-63.1-72.6l-15.3,15.6v57H0V210.6h38.2v72.1l71.6-72.1h48.7L77.6,292z"/>
	<path d="M302.6,208.1c12.1,0,23.4,2.4,34.2,7.3c10.7,4.9,20.1,11.5,28,19.8c8,8.4,14.2,18.1,18.8,29.1c4.6,11.1,6.9,22.9,6.9,35.4
		c0,12.4-2.3,24.2-6.9,35.4c-4.6,11.2-10.9,21-18.8,29.4c-8,8.4-17.3,15-28,20c-10.7,4.9-22.1,7.4-34.2,7.4
		c-5.9,0-11.6-0.6-17.1-1.8c-5.5-1.2-10.8-2.8-15.8-5c-5.2,2.2-10.5,3.9-16,5c-5.4,1.2-11.1,1.8-17,1.8c-12.1,0-23.4-2.5-34.2-7.4
		c-10.7-4.9-20-11.6-27.9-20c-7.9-8.4-14.1-18.2-18.7-29.4c-4.6-11.2-6.9-23-6.9-35.4c0-12.6,2.3-24.4,6.9-35.4
		c4.6-11.1,10.8-20.8,18.7-29.1c7.9-8.4,17.2-15,27.9-19.8c10.7-4.9,22.1-7.3,34.2-7.3c5.9,0,11.5,0.6,17,1.8c5.4,1.2,10.8,2.8,16,5
		c5-2.2,10.3-3.9,15.8-5C291.1,208.6,296.7,208.1,302.6,208.1z M187.3,299.7c0,7,1.2,13.7,3.5,20c2.3,6.3,5.5,11.9,9.5,16.7
		c4,4.9,8.7,8.8,14.1,11.8c5.4,3,11.3,4.9,17.7,5.5c-5.4-7.7-9.6-16.1-12.6-25.2c-3-9.1-4.5-18.7-4.5-28.8s1.5-19.7,4.5-28.9
		c3-9.2,7.2-17.7,12.6-25.4c-6.3,0.7-12.2,2.6-17.7,5.7c-5.4,3.1-10.1,7.1-14.1,11.9c-4,4.9-7.2,10.4-9.5,16.7
		C188.5,286.1,187.3,292.7,187.3,299.7z M286.5,299.7c0-8.2-1.5-15.8-4.5-22.9c-3-7-7.1-13.1-12.2-18.1c-5.2,5-9.2,11.1-12.2,18.1
		c-3,7-4.5,14.7-4.5,22.9c0,8.2,1.5,15.8,4.5,22.9s7.1,13,12.2,17.8c5.1-4.9,9.2-10.8,12.2-17.8S286.5,308,286.5,299.7z
		 M324.7,299.7c0,10-1.5,19.6-4.5,28.8c-3,9.1-7.2,17.5-12.6,25.2c6.2-0.7,12-2.6,17.5-5.7c5.4-3.1,10.2-7,14.2-11.8
		c4-4.8,7.2-10.3,9.5-16.6c2.3-6.3,3.5-12.9,3.5-20c0-7-1.2-13.7-3.5-20c-2.3-6.3-5.5-11.8-9.5-16.7c-4-4.9-8.8-8.8-14.2-11.9
		c-5.4-3.1-11.3-5-17.7-5.7c5.4,7.7,9.6,16.2,12.7,25.4C323.2,280.1,324.7,289.7,324.7,299.7z"/>
	<path d="M442.6,354h73.1v34.7H404.4V210.6h38.2V354z"/>
	<path d="M558.6,354h73.1v34.7H520.4V210.6h38.2V354z"/>
</g>
</svg>
