<?xml version="1.0" encoding="utf-8"?>
<!-- Generator: Adobe Illustrator 18.0.0, SVG Export Plug-In . SVG Version: 6.00 Build 0)  -->
<!DOCTYPE svg PUBLIC "-//W3C//DTD SVG 1.1//EN" "http://www.w3.org/Graphics/SVG/1.1/DTD/svg11.dtd">
<svg version="1.1" id="Layer_1" xmlns="http://www.w3.org/2000/svg" xmlns:xlink="http://www.w3.org/1999/xlink" x="0px" y="0px"
	 viewBox="0 0 700.3 600" enable-background="new 0 0 700.3 600" xml:space="preserve">
<g>
	<path d="M84.3,38.2v78.6H65.5l-2.2-8.4c-3.1,4.1-6.7,6.9-11,8.2c-4.3,1.4-8.7,2.1-13.4,2.1c-5.6,0-10.8-1.1-15.5-3.2
		c-4.7-2.2-8.8-5.1-12.3-8.9c-3.5-3.7-6.2-8.1-8.2-13.2C1,88.4,0,83.1,0,77.4c0-5.7,1-11.1,2.9-16.1c2-5,4.7-9.4,8.2-13.2
		c3.5-3.7,7.6-6.7,12.3-8.9c4.7-2.2,9.9-3.2,15.5-3.2c5.1,0,9.7,0.8,13.9,2.4c4.2,1.6,7.7,4.1,10.5,7.6l2.2-7.8H84.3z M62.5,77.7
		c0-4.1-0.6-7.6-1.7-10.4c-1.1-2.8-2.6-5.1-4.4-6.8c-1.9-1.7-4-3-6.5-3.8c-2.5-0.8-5.2-1.2-8-1.2s-5.5,0.6-8,1.7
		c-2.5,1.2-4.7,2.7-6.6,4.7c-1.9,2-3.4,4.3-4.4,7c-1.1,2.7-1.6,5.5-1.6,8.5c0,3.1,0.5,5.9,1.6,8.6c1.1,2.6,2.5,4.9,4.4,6.9
		c1.9,2,4.1,3.5,6.6,4.7c2.5,1.2,5.2,1.7,8,1.7c5.7,0,10.5-1.8,14.5-5.3C60.3,90.4,62.4,85,62.5,77.7z"/>
	<path d="M161.7,36c5.5,0,10.6,1.1,15.4,3.2c4.8,2.2,8.9,5.1,12.4,8.9c3.5,3.8,6.2,8.1,8.2,13.2c2,5,2.9,10.4,2.9,16.1
		c0,5.7-1,11.1-2.9,16.1c-2,5-4.7,9.4-8.2,13.2c-3.5,3.8-7.6,6.7-12.4,8.9c-4.8,2.2-9.9,3.2-15.4,3.2c-4.7,0-9.1-0.8-13.4-2.5
		c-4.3-1.6-7.6-3.7-10.1-6.3l-3.2,6.8h-18.7V1.1h21.9v43.4C144.2,38.8,152.1,36,161.7,36z M158.7,99.2c2.9,0,5.5-0.6,8-1.7
		c2.5-1.2,4.7-2.7,6.6-4.7c1.9-2,3.4-4.3,4.4-6.9c1.1-2.6,1.6-5.5,1.6-8.6c0-3-0.5-5.8-1.6-8.5c-1.1-2.7-2.5-5-4.4-7
		c-1.9-2-4.1-3.5-6.6-4.7c-2.5-1.2-5.2-1.7-8-1.7c-2.9,0-5.5,0.4-8,1.2c-2.5,0.8-4.7,2.1-6.5,3.8c-1.9,1.7-3.3,4-4.4,6.8
		c-1.1,2.8-1.6,6.3-1.6,10.4c0,3.7,0.5,6.9,1.6,9.6c1.1,2.7,2.5,4.9,4.4,6.7c1.8,1.7,4,3.1,6.5,4C153.1,98.8,155.8,99.2,158.7,99.2z
		"/>
	<path d="M263.3,55.5c-2.6,0-5.1,0.6-7.5,1.8c-2.3,1.2-4.4,2.9-6.1,4.9c-1.7,2.1-3.1,4.5-4.1,7.2c-1,2.7-1.5,5.7-1.5,8.9
		c0,3.2,0.5,6.1,1.5,8.6c1,2.6,2.4,4.8,4.1,6.7c1.7,1.9,3.8,3.3,6.1,4.4c2.3,1.1,4.8,1.6,7.5,1.6c3.3,0,6.5-0.8,9.6-2.3
		c3.1-1.5,5.8-3.7,8-6.4l13.5,13.3c-3.7,4.4-8.2,8-13.6,10.6c-5.4,2.6-11.2,4-17.4,4c-5.7,0-11-1.1-16-3.2c-5-2.2-9.3-5.1-13-8.9
		c-3.7-3.7-6.6-8.1-8.8-13.2c-2.2-5-3.2-10.4-3.2-16.1c0-5.7,1.1-11.1,3.2-16.1c2.2-5,5.1-9.4,8.8-13.2c3.7-3.7,8-6.7,13-8.9
		c5-2.2,10.3-3.2,16-3.2c6.4,0,12.4,1.4,17.9,4.1c5.5,2.7,10.1,6.5,13.9,11.3L280,63.1c-3.1-2.9-5.8-4.8-8.3-5.9
		C269.2,56,266.4,55.5,263.3,55.5z"/>
	<path d="M400.3,1.1v115.7h-18.7l-3.2-6.8c-2.4,2.5-5.8,4.6-10.1,6.3c-4.3,1.6-8.7,2.5-13.4,2.5c-5.6,0-10.8-1.1-15.5-3.2
		c-4.8-2.2-8.9-5.1-12.3-8.9c-3.4-3.7-6.1-8.1-8.1-13.2c-2-5-2.9-10.4-2.9-16.1c0-5.7,1-11.1,2.9-16.1c2-5,4.6-9.4,8.1-13.2
		c3.4-3.7,7.5-6.7,12.3-8.9c4.8-2.2,9.9-3.2,15.5-3.2c5,0,9.4,0.6,13.2,1.7c3.9,1.2,7.3,3.1,10.2,5.9V1.1H400.3z M378.4,77.7
		c0-4.1-0.5-7.6-1.6-10.4c-1.1-2.8-2.5-5.1-4.4-6.8c-1.9-1.7-4.1-3-6.6-3.8c-2.5-0.8-5.2-1.2-8-1.2c-2.9,0-5.5,0.6-8,1.7
		c-2.5,1.2-4.7,2.7-6.5,4.7c-1.9,2-3.3,4.3-4.4,7c-1.1,2.7-1.6,5.5-1.6,8.5c0,3.1,0.5,5.9,1.6,8.6c1.1,2.6,2.5,4.9,4.4,6.9
		c1.8,2,4,3.5,6.5,4.7c2.5,1.2,5.2,1.7,8,1.7c5.7,0,10.5-1.8,14.5-5.3C376.3,90.4,378.3,85,378.4,77.7z"/>
	<path d="M469.9,36c5.9,0,11.3,1.2,16.2,3.6c4.9,2.4,9,5.5,12.5,9.4c3.5,3.9,6.2,8.3,8.1,13.3c1.9,5,2.9,10.2,2.9,15.5
		c0,3.2-0.4,6.6-1.3,10.1h-56.1c2.1,3.6,5.1,6.6,9,9.1c3.9,2.5,8.1,3.7,12.7,3.7c4.5,0,8.5-0.4,12-1.1c3.4-0.7,6.7-1.7,9.7-2.9
		l7.3,13.5c-3.9,2.7-8.4,4.9-13.4,6.3c-5,1.5-10.4,2.2-16.1,2.2c-6.2,0-12-1.1-17.4-3.2c-5.4-2.2-10.1-5.1-14.1-8.8
		c-4-3.7-7.2-8.1-9.5-13.2c-2.3-5.1-3.5-10.5-3.5-16.2c0-5.6,1.1-10.9,3.2-15.9c2.1-5,5-9.4,8.8-13.2c3.7-3.8,8.1-6.7,13.1-9
		C458.8,37.1,464.2,36,469.9,36z M487.8,70.9c-1.3-4.5-3.5-8.2-6.8-11.1c-3.3-2.9-7-4.3-11.1-4.3c-4.2,0-8.1,1.4-11.5,4.3
		c-3.4,2.9-5.8,6.6-7.1,11.1H487.8z"/>
	<path d="M550.2,17.4c1.6-4,3.9-7.2,6.6-9.8c2.8-2.6,6-4.5,9.6-5.7C570,0.6,573.8,0,577.8,0c2.4,0,4.9,0.2,7.3,0.6
		c2.4,0.4,4.9,1.1,7.3,1.9l-1.7,16l-5.2-0.8c-0.8-0.1-1.6-0.2-2.3-0.2c-0.7-0.1-1.3-0.1-2-0.1c-4,0-7,1-8.8,2.9
		c-1.9,2-2.8,4.8-2.8,8.5v9.4h21.1v19.5h-21.1v59.1h-21.9V57.7h-10.3V46.1l10.3-7.9v-6.7C547.7,26.1,548.5,21.3,550.2,17.4z"/>
	<path d="M679,38.2h18.7v52c0,6-0.1,11.4-0.2,16.1c-0.2,4.7-0.6,8.9-1.2,12.7c-0.6,3.7-1.7,7.1-3.1,10.1c-1.4,3-3.4,5.7-5.9,8.2
		c-4.7,4.5-9.9,7.7-15.6,9.4c-5.8,1.7-11.8,2.5-18.2,2.5c-5.4,0-10.5-0.6-15.2-1.9c-4.8-1.3-9-3-12.8-5.2v-20.4c1,1.5,2.3,2.8,4,4
		c1.7,1.2,3.7,2.2,6,3c2.3,0.8,4.7,1.5,7.3,2c2.6,0.5,5.2,0.7,7.8,0.7c3.5,0,6.8-0.5,9.8-1.3c3.1-0.9,5.7-2.4,8-4.4
		c2.3-2,4.1-4.5,5.4-7.5c1.3-3,2-6.7,2-11v-1.6c-3.1,2.7-6.6,4.9-10.6,6.6c-4,1.6-8.4,2.5-13.2,2.5c-5.3,0-10.2-1-14.7-3.1
		c-4.5-2.1-8.4-4.9-11.7-8.4c-3.3-3.5-5.8-7.7-7.7-12.5c-1.9-4.8-2.8-9.9-2.8-15.3s0.9-10.5,2.8-15.2c1.8-4.8,4.4-8.9,7.7-12.4
		c3.3-3.5,7.2-6.3,11.7-8.4c4.5-2.1,9.4-3.1,14.7-3.1c5,0,9.5,0.7,13.5,2c4,1.3,7.5,3.4,10.3,6.3L679,38.2z M656.5,95
		c3.4,0,6.3-0.6,8.7-1.8c2.4-1.2,4.4-2.8,6-4.7s2.7-4,3.5-6.3c0.7-2.3,1.1-4.6,1.1-6.8c0-2.4-0.4-4.8-1.2-7.2
		c-0.8-2.4-2-4.5-3.6-6.3c-1.6-1.8-3.6-3.4-6-4.5c-2.4-1.2-5.3-1.7-8.6-1.7c-2.7,0-5.3,0.5-7.6,1.6c-2.3,1.1-4.4,2.5-6.1,4.3
		c-1.7,1.8-3.1,3.9-4.1,6.3c-1,2.4-1.5,4.9-1.5,7.7c0,2.7,0.5,5.3,1.5,7.7c1,2.4,2.4,4.5,4.1,6.3c1.7,1.8,3.8,3.2,6.1,4.2
		C651.2,94.5,653.8,95,656.5,95z"/>
	<path d="M46,186.6c5.2,0,10,1.1,14.5,3.2c4.5,2.2,8.4,5.1,11.7,8.9c3.3,3.8,5.8,8.1,7.7,13.2c1.8,5,2.8,10.4,2.8,16.1v39.5H61.2
		V253c0-4,0-8.2,0.1-12.4c0.1-4.3,0.1-8,0.1-11c0-3-0.5-5.9-1.4-8.7c-1-2.9-2.3-5.4-4-7.5c-1.7-2.2-3.7-3.9-6-5.2
		c-2.3-1.3-4.7-2-7.2-2c-2.4,0-4.8,0.5-7,1.3c-2.2,0.9-4.2,2.2-5.9,4c-1.7,1.7-3.1,3.9-4.1,6.6c-1,2.6-1.5,5.8-1.5,9.4v40.1H2.4
		V151.7h21.9l0.2,43.1c2.7-2.6,5.9-4.7,9.4-6.1C37.4,187.3,41.5,186.6,46,186.6z"/>
	<path d="M118,178c-3.4,0-6.2-1.2-8.6-3.5c-2.3-2.3-3.5-5.2-3.5-8.6c0-3.4,1.2-6.3,3.5-8.6c2.3-2.4,5.2-3.6,8.6-3.6
		c3.4,0,6.2,1.2,8.6,3.6c2.3,2.4,3.5,5.3,3.5,8.6c0,3.4-1.2,6.2-3.5,8.6C124.2,176.9,121.4,178,118,178z M128.9,267.4h-21.9v-78.6
		h21.9V267.4z"/>
	<path d="M165.5,188.8h21.9v78.9c0,5.5-0.8,10.2-2.5,14.2c-1.6,4-3.8,7.2-6.6,9.8c-2.7,2.6-5.9,4.5-9.6,5.7
		c-3.6,1.2-7.5,1.8-11.5,1.8c-2.4,0-4.9-0.2-7.3-0.6c-2.4-0.4-4.9-1.1-7.3-1.9l1.7-16c1.7,0.2,3,0.4,4,0.6c1,0.2,1.8,0.3,2.5,0.4
		c0.6,0.1,1.2,0.2,1.6,0.2c0.4,0,1,0,1.7,0c4,0,6.9-1,8.6-2.9c1.7-2,2.6-4.7,2.6-8.3V188.8z M176.6,153.8c3.4,0,6.2,1.2,8.6,3.6
		c2.3,2.4,3.5,5.3,3.5,8.6c0,3.4-1.2,6.2-3.5,8.6c-2.3,2.3-5.2,3.5-8.6,3.5c-3.4,0-6.2-1.2-8.6-3.5c-2.3-2.3-3.5-5.2-3.5-8.6
		c0-3.4,1.2-6.3,3.5-8.6C170.3,155,173.2,153.8,176.6,153.8z"/>
	<path d="M262.4,221.5l33.1,46h-26.2L248.6,236l-7.8,8.4v23H219V151.7h21.9v64.2l25.5-27.1H293L262.4,221.5z"/>
	<path d="M319.4,151.5h21.9v115.9h-21.9V151.5z"/>
	<path d="M460,188.8c2.9,0,5.9,0.5,9.2,1.4c3.3,1,6.3,2.6,9.1,5.1c2.8,2.4,5.1,5.8,6.9,10c1.8,4.2,2.7,9.6,2.7,16.2v46H466v-41.9
		c0-3.2-0.3-5.8-1-8.1c-0.7-2.2-1.6-4-2.8-5.4c-1.2-1.4-2.5-2.3-4-2.9c-1.5-0.6-3.1-0.9-4.7-0.9c-1.5,0-3,0.3-4.4,0.8
		c-1.5,0.5-2.8,1.4-4,2.7c-1.2,1.3-2.1,3-2.8,5.2c-0.7,2.2-1,5-1,8.4v42.1h-21.9v-41.9c0-6.4-1.1-10.9-3.3-13.4
		c-2.2-2.5-5.4-3.8-9.7-3.8c-3.1,0-5.8,1.4-8.2,4.3c-2.4,2.8-3.6,7.3-3.6,13.3v41.6h-21.9v-78.6h18.7l3.2,7.4
		c2.4-2.3,5.3-4.2,8.5-5.4c3.2-1.3,6.7-1.9,10.4-1.9c1.9,0,3.9,0.2,6,0.6c2.1,0.4,4.2,1,6.2,2c2,1,3.9,2.2,5.8,3.8
		c1.8,1.5,3.5,3.5,5,5.8c1.3-2,2.8-3.8,4.6-5.4c1.8-1.5,3.7-2.8,5.9-3.8c2.1-1,4.3-1.8,6.6-2.2C455.7,189,457.9,188.8,460,188.8z"/>
	<path d="M560,188.8c2.9,0,6.2,0.4,9.8,1.3c3.6,0.8,7,2.4,10.1,4.8c3.2,2.3,5.8,5.5,8,9.7c2.2,4.1,3.2,9.5,3.2,16v46.9h-21.9v-46
		c0-2.4-0.4-4.5-1.2-6.2c-0.8-1.7-1.9-3-3.2-4c-1.3-1-2.8-1.7-4.5-2.2c-1.7-0.5-3.4-0.7-5.1-0.7c-1.4,0-2.9,0.2-4.5,0.7
		c-1.6,0.5-3.2,1.2-4.6,2.3c-1.4,1.1-2.6,2.4-3.6,4.1c-1,1.7-1.4,3.7-1.4,6v46h-21.9v-78.6H538l3.2,6c2.5-1.8,5.4-3.2,8.5-4.4
		C552.8,189.4,556.3,188.8,560,188.8z"/>
	<path d="M659.4,186.6c5.6,0,10.9,1.1,15.9,3.2c5,2.2,9.3,5.1,13,8.9c3.7,3.8,6.6,8.1,8.8,13.2c2.2,5,3.2,10.4,3.2,16.1
		c0,5.7-1.1,11.1-3.2,16.1c-2.2,5-5.1,9.4-8.8,13.2c-3.7,3.8-8,6.7-13,8.9c-5,2.2-10.3,3.2-15.9,3.2c-5.7,0-11-1.1-16-3.2
		c-5-2.2-9.3-5.1-13-8.9c-3.7-3.7-6.6-8.1-8.8-13.2c-2.2-5-3.2-10.4-3.2-16.1c0-5.7,1.1-11.1,3.2-16.1c2.2-5,5.1-9.4,8.8-13.2
		c3.7-3.7,8-6.7,13-8.9C648.3,187.7,653.7,186.6,659.4,186.6z M659.4,250.1c2.6,0,5.1-0.5,7.4-1.6c2.3-1.1,4.3-2.5,6-4.4
		c1.7-1.8,3.1-4.1,4.1-6.7c1-2.6,1.5-5.5,1.5-8.6s-0.5-6.1-1.5-8.9c-1-2.7-2.4-5.2-4.1-7.2c-1.7-2.1-3.8-3.7-6-4.9
		c-2.3-1.2-4.7-1.8-7.4-1.8c-2.6,0-5.1,0.6-7.4,1.8c-2.3,1.2-4.4,2.9-6.1,4.9c-1.7,2.1-3.1,4.5-4.1,7.2c-1,2.7-1.5,5.7-1.5,8.9
		s0.5,6.1,1.5,8.6c1,2.6,2.4,4.8,4.1,6.7c1.7,1.9,3.8,3.3,6.1,4.4C654.3,249.6,656.7,250.1,659.4,250.1z"/>
	<path d="M47.1,337.2c5.6,0,10.8,1.1,15.5,3.2c4.8,2.2,8.8,5.1,12.3,8.9c3.4,3.8,6.1,8.1,8.1,13.2c2,5,2.9,10.4,2.9,16.1
		c0,5.7-1,11.1-2.9,16.1c-2,5-4.7,9.4-8.1,13.2c-3.4,3.8-7.5,6.7-12.3,8.9c-4.8,2.2-9.9,3.2-15.5,3.2c-4.5,0-9-0.8-13.3-2.5
		c-4.3-1.6-7.7-3.7-10.1-6.3v38.2H1.7v-110h18.7l3.2,5.4c3.1-2.7,6.5-4.7,10.3-5.9C37.7,337.8,42.1,337.2,47.1,337.2z M44.2,400.4
		c2.9,0,5.5-0.6,8-1.7c2.5-1.2,4.6-2.7,6.5-4.7c1.8-2,3.3-4.3,4.4-6.9c1.1-2.6,1.7-5.5,1.7-8.6c0-3-0.6-5.8-1.7-8.5
		c-1.1-2.7-2.6-5-4.4-7c-1.9-2-4-3.5-6.5-4.7c-2.5-1.2-5.2-1.7-8-1.7c-2.9,0-5.5,0.4-8,1.2c-2.5,0.8-4.7,2.1-6.5,3.8
		c-1.9,1.7-3.3,4-4.4,6.8c-1.1,2.8-1.6,6.2-1.6,10.1c0,3.7,0.5,6.9,1.6,9.6c1.1,2.7,2.5,5,4.4,6.8c1.8,1.9,4,3.2,6.5,4.1
		C38.7,400,41.4,400.4,44.2,400.4z"/>
	<path d="M197,339.4v110h-21.9v-38.2c-2.4,2.5-5.8,4.6-10.1,6.3c-4.3,1.6-8.8,2.5-13.3,2.5c-5.6,0-10.8-1.1-15.5-3.2
		c-4.8-2.2-8.9-5.1-12.4-8.9c-3.5-3.7-6.2-8.1-8.2-13.2c-2-5-2.9-10.4-2.9-16.1c0-5.7,1-11.1,2.9-16.1c2-5,4.7-9.4,8.2-13.2
		c3.5-3.7,7.6-6.7,12.4-8.9c4.8-2.2,9.9-3.2,15.5-3.2c5,0,9.4,0.6,13.2,1.7c3.8,1.2,7.2,3.1,10.3,5.9l3.2-5.4H197z M154.6,400.4
		c2.9,0,5.5-0.5,8-1.4c2.5-1,4.6-2.4,6.5-4.3c1.8-1.9,3.3-4.2,4.4-7c1.1-2.7,1.6-6,1.6-9.7c0-3.9-0.5-7.2-1.6-9.9
		c-1.1-2.7-2.5-4.9-4.4-6.6c-1.9-1.7-4-2.9-6.5-3.7c-2.5-0.8-5.2-1.2-8-1.2c-2.9,0-5.5,0.6-8,1.7c-2.5,1.2-4.7,2.7-6.5,4.7
		c-1.9,2-3.3,4.3-4.4,7c-1.1,2.7-1.7,5.5-1.7,8.5c0,3.1,0.6,5.9,1.7,8.6c1.1,2.6,2.6,4.9,4.4,6.9c1.8,2,4,3.5,6.5,4.7
		C149,399.8,151.7,400.4,154.6,400.4z"/>
	<path d="M257.8,350.3c1.1-1.7,2.3-3.3,3.6-4.8c1.4-1.5,3-2.9,4.9-4.1c1.9-1.2,4.1-2.2,6.5-2.9c2.4-0.7,5.2-1.1,8.2-1.1
		c3.6,0,7.8,0.6,12.5,1.9l-2.1,19.5c-1.2-0.2-2.3-0.5-3.5-0.8c-1-0.2-2-0.4-3.2-0.6c-1.2-0.2-2.2-0.2-3.2-0.2
		c-3.4,0-6.5,0.5-9.4,1.4c-2.9,1-5.4,2.3-7.5,4c-2.1,1.7-3.8,3.7-5.1,6.1c-1.3,2.4-1.9,4.9-1.9,7.7V418h-21.9v-78.6h19.8
		L257.8,350.3z"/>
	<path d="M373.8,376.8c5.8,4.1,8.7,10,8.7,17.6c0,3.5-0.8,6.8-2.5,9.8c-1.6,3.1-3.9,5.8-6.7,8.1c-2.9,2.3-6.2,4.1-10,5.5
		c-3.8,1.3-7.9,2-12.2,2c-3.3,0-6.5-0.4-9.6-1.3c-3.1-0.8-6-2-8.6-3.5c-2.6-1.5-4.9-3.2-6.9-5.3c-2-2.1-3.4-4.4-4.4-6.9
		c2.4-1.2,5.1-2.5,8.1-3.9c3-1.4,5.5-2.7,7.8-3.9c1,1.6,2.4,3,4.4,4.4c2,1.3,4.8,2,8.2,2c3.6,0,6.2-0.8,7.9-2.5
		c1.7-1.7,2.5-3.3,2.5-4.8c0-1.1-0.6-2-1.7-2.9c-1.2-0.9-2.5-1.6-4-2.1c-2.1-0.8-3.9-1.3-5.2-1.3c-1.4-0.1-3-0.3-4.8-0.9
		c-5.7-1.4-10.1-3.2-13.1-5.5c-3-2.3-5.2-4.6-6.6-6.9c-1.4-2.3-2.1-4.5-2.3-6.7c-0.2-2.1-0.2-3.8-0.2-5.1c0-3.4,0.7-6.6,2.2-9.7
		c1.5-3.1,3.5-5.7,6.1-8c2.6-2.3,5.6-4.1,9-5.5c3.4-1.4,7.1-2.1,11-2.1c3.3,0,6.4,0.5,9.4,1.4c3,1,5.7,2.3,8.1,4
		c2.4,1.7,4.5,3.7,6.3,6c1.7,2.3,3,4.9,3.9,7.8l-17,5.7c-0.6-1.9-1.9-3.4-3.9-4.6c-2-1.2-4-1.7-6.3-1.7c-2.2,0-4,0.7-5.4,2.2
		c-1.4,1.5-2.1,3-2.1,4.4c0,1.8,0.7,3.2,2,4.2c1.3,1,2.8,1.7,4.4,2.1c1.2,0.2,2.3,0.4,3.4,0.6c1.1,0.2,2.2,0.3,3.2,0.6
		c3.7,0.8,6.9,1.8,9.6,2.9C369.4,374.1,371.7,375.3,373.8,376.8z"/>
	<path d="M447.5,398.5c2.3,2,5.3,3,9,3c3,0,5.9-0.6,8.9-1.7V418c-2.6,0.8-5.4,1.5-8.4,2.1c-3,0.6-5.9,0.9-8.9,0.9
		c-3.4,0-6.6-0.4-9.7-1.3c-3.1-0.8-5.8-2.3-8.2-4.4c-2.4-2.1-4.4-4.8-5.8-8.2c-1.4-3.4-2.1-7.7-2.1-12.8v-35.5h-11.3v-14.7l11.3-4.8
		v-17.6h21.9v17.6h21.2v19.5h-21.2v31C444.1,393.6,445.2,396.5,447.5,398.5z"/>
	<path d="M553.1,339.4H575V418h-18.7l-3.2-6c-2.5,1.8-5.4,3.2-8.6,4.4c-3.2,1.1-6.7,1.7-10.4,1.7c-2.9,0-6.1-0.4-9.7-1.3
		c-3.6-0.8-7.1-2.4-10.2-4.8c-3.2-2.3-5.8-5.5-8-9.7c-2.2-4.1-3.2-9.5-3.2-16v-46.9h21.9v46c0,2.4,0.4,4.5,1.2,6.2
		c0.8,1.7,1.9,3,3.2,4c1.3,1,2.8,1.7,4.5,2.2c1.7,0.5,3.5,0.7,5.3,0.7c1.4,0,2.9-0.2,4.5-0.7c1.6-0.5,3.2-1.2,4.6-2.3
		c1.4-1.1,2.6-2.4,3.6-4.1c1-1.7,1.4-3.7,1.4-6V339.4z"/>
	<path d="M673.9,339.4h23.6L665.8,418h-28.2l-31.7-78.6h23.5l22.4,58.2L673.9,339.4z"/>
	<path d="M106.3,490h22.5l-23.6,78.6H77.5l-11.4-37.9L65,519.5l-1.3,11.3l-11.4,37.9H24.7L1.1,490h22.5l16.3,56.9L55.8,490H74
		l15.9,57.2L106.3,490z"/>
	<path d="M181.3,527.6L153.3,490h27.1l13.9,20.9l13.9-20.9h27.1l-28.2,37.7l30.6,40.9h-27.1l-16.5-24.4l-16.5,24.4h-27.1
		L181.3,527.6z"/>
	<path d="M322.7,490h23.9l-49.6,110h-23.9l19.5-43.3L259.3,490h24.4l20.4,41.1L322.7,490z"/>
	<path d="M395.9,549.1h36.3v19.5h-65v-18.4l32.3-40.7h-29.3V490h61v14.5L395.9,549.1z"/>
	<path d="M531.4,487.8l-7.1,11.4c4,3.7,7.2,8.1,9.4,13.3c2.3,5.2,3.4,10.7,3.4,16.6c0,5.7-1.1,11.1-3.2,16.1
		c-2.2,5-5.1,9.4-8.8,13.2c-3.7,3.8-8,6.7-13,8.9c-5,2.2-10.3,3.2-15.9,3.2c-5.2,0-10.1-0.9-14.9-2.7l-5.5,8.7l-12.7-7.9l5.5-8.7
		c-4.2-3.8-7.5-8.3-9.9-13.6c-2.4-5.3-3.6-11-3.6-17.1c0-5.7,1.1-11.1,3.2-16.1c2.2-5,5.1-9.4,8.8-13.2c3.7-3.7,8-6.7,13-8.9
		c5-2.2,10.3-3.2,16-3.2c5.6,0,10.8,1.1,15.7,3.2l7-10.9L531.4,487.8z M477,530.1c0,4.7,1,8.6,2.9,11.7l21.2-33.8
		c-1.8-0.5-3.4-0.8-4.9-0.8c-2.6,0-5.1,0.6-7.5,1.8c-2.3,1.2-4.4,2.9-6.1,4.9c-1.7,2.1-3.1,4.5-4.1,7.2
		C477.5,524,477,526.9,477,530.1z M496.2,551.3c2.6,0,5.1-0.5,7.4-1.6c2.3-1.1,4.3-2.5,6-4.4c1.7-1.8,3.1-4.1,4.1-6.7
		c1-2.6,1.5-5.5,1.5-8.6c0-2.2-0.3-4.3-0.8-6.3c-0.5-2-1.2-3.8-2.1-5.6l-20.4,32.7C493.2,551.2,494.6,551.3,496.2,551.3z"/>
	<path d="M644.9,490v78.6H626l-2.2-8.4c-3.1,4.1-6.7,6.9-11,8.2c-4.3,1.4-8.7,2.1-13.4,2.1c-5.6,0-10.8-1.1-15.5-3.2
		c-4.7-2.2-8.8-5.1-12.3-8.9c-3.5-3.7-6.2-8.1-8.2-13.2c-2-5-2.9-10.4-2.9-16.1c0-5.7,1-11.1,2.9-16.1c2-5,4.7-9.4,8.2-13.2
		c3.5-3.7,7.6-6.7,12.3-8.9c4.7-2.2,9.9-3.2,15.5-3.2c5.1,0,9.7,0.8,13.9,2.4c4.2,1.6,7.7,4.1,10.5,7.6l2.2-7.8H644.9z M585.5,456.2
		c3.4,0,6.2,1.2,8.5,3.5c2.3,2.3,3.5,5.2,3.5,8.6c0,3.4-1.2,6.3-3.5,8.6c-2.3,2.4-5.1,3.6-8.5,3.6c-3.4,0-6.2-1.2-8.6-3.6
		c-2.4-2.4-3.5-5.3-3.5-8.6c0-3.4,1.2-6.2,3.5-8.6C579.3,457.4,582.1,456.2,585.5,456.2z M623,529.5c0-4.1-0.6-7.6-1.7-10.4
		c-1.1-2.8-2.6-5.1-4.4-6.8c-1.9-1.7-4-3-6.5-3.8c-2.5-0.8-5.2-1.2-8-1.2c-2.9,0-5.5,0.6-8,1.7c-2.5,1.2-4.7,2.7-6.6,4.7
		c-1.9,2-3.4,4.3-4.4,7c-1.1,2.7-1.6,5.5-1.6,8.5c0,3.1,0.5,5.9,1.6,8.6c1.1,2.6,2.5,4.9,4.4,6.9c1.9,2,4.1,3.5,6.6,4.7
		c2.5,1.2,5.2,1.7,8,1.7c5.7,0,10.5-1.8,14.5-5.3C620.9,542.2,622.9,536.8,623,529.5z M623.9,456.2c3.4,0,6.2,1.2,8.5,3.5
		c2.3,2.3,3.5,5.2,3.5,8.6c0,3.4-1.2,6.3-3.5,8.6c-2.3,2.4-5.1,3.6-8.5,3.6c-3.4,0-6.2-1.2-8.6-3.6c-2.4-2.4-3.5-5.3-3.5-8.6
		c0-3.4,1.2-6.2,3.5-8.6C617.6,457.4,620.5,456.2,623.9,456.2z"/>
	<path d="M686.3,545.6c3.4,0,6.2,1.2,8.6,3.5c2.4,2.3,3.5,5.2,3.5,8.6c0,3.4-1.2,6.3-3.5,8.6c-2.4,2.3-5.2,3.5-8.6,3.5
		s-6.2-1.2-8.5-3.5c-2.3-2.3-3.5-5.2-3.5-8.6c0-3.4,1.2-6.3,3.5-8.6C680.1,546.8,683,545.6,686.3,545.6z"/>
</g>
</svg>
