<?xml version="1.0" encoding="utf-8"?>
<!-- Generator: Adobe Illustrator 18.0.0, SVG Export Plug-In . SVG Version: 6.00 Build 0)  -->
<!DOCTYPE svg PUBLIC "-//W3C//DTD SVG 1.1//EN" "http://www.w3.org/Graphics/SVG/1.1/DTD/svg11.dtd">
<svg version="1.1" id="Layer_1" xmlns="http://www.w3.org/2000/svg" xmlns:xlink="http://www.w3.org/1999/xlink" x="0px" y="0px"
	 viewBox="0 0 79.2 600" enable-background="new 0 0 79.2 600" xml:space="preserve">
<g>
	<path d="M61.6,66.2H49.1V32.7H35.9v33.6H23.5V32.7h-5.8v-6.6l5.8-4.5v-3.9c0-3.2,0.6-5.9,1.7-8.1s2.6-4.1,4.5-5.5
		c1.9-1.4,4-2.4,6.4-3.1c2.4-0.7,4.8-1,7.3-1c3,0,5.9,0.4,8.8,1.3c2.8,0.8,5.3,2,7.4,3.5l-3.3,8.1c-1.7-0.7-3.7-1.2-5.8-1.8
		c-2.1-0.5-4.2-0.8-6.2-0.8c-2.3,0-4.2,0.4-5.9,1.3c-1.7,0.9-2.5,2.4-2.5,4.5v5.4h25.6V66.2z"/>
	<path d="M50,96.5c-0.8-0.2-1.7-0.3-2.5-0.4C46.8,96.1,46,96,45.3,96c-3.2,0-5.8,0.7-7.9,2c-2,1.3-3,2.9-3,4.9v4.7h9.3v11.1h-9.3
		v33.6H22v-33.6h-5.8V112l5.8-4.5v-4c0-3,0.6-5.6,1.7-7.8c1.1-2.2,2.7-4,4.7-5.5c2-1.4,4.5-2.5,7.5-3.2c2.9-0.7,6.2-1.1,9.9-1.1
		c5,0,10.6,0.6,16.7,1.9v64.4H50V96.5z"/>
	<path d="M65.4,182.7c-0.8-0.2-1.7-0.3-2.5-0.4c-0.8-0.1-1.6-0.1-2.3-0.1c-3.2,0-5.8,0.7-7.9,2c-2,1.3-3,2.9-3,4.9v4.4H59v11.1h-9.3
		v33.6H37.4v-33.6H19.5v33.6H7.1v-33.6H1.3V198l5.8-4.5v-3.7c0-3.1,0.5-5.8,1.4-8.1s2.2-4.1,3.8-5.6c1.6-1.5,3.4-2.5,5.4-3.2
		c2.1-0.7,4.2-1,6.5-1c1.4,0,2.8,0.1,4.1,0.4c1.4,0.2,2.8,0.6,4.1,1.1l-1,9.1l-3-0.4c-0.5-0.1-0.9-0.1-1.3-0.1c-0.4,0-0.8,0-1.1,0
		c-2.3,0-3.9,0.6-4.9,1.7c-1,1.1-1.6,2.7-1.6,4.8v5.2h17.8v-3.8c0-3,0.6-5.6,1.7-7.8c1.1-2.2,2.7-4,4.7-5.5c2-1.4,4.5-2.5,7.5-3.2
		c2.9-0.7,6.2-1.1,9.9-1.1c5,0,10.6,0.6,16.7,1.9v64.1H65.4V182.7z"/>
	<path d="M77.3,324.1H64.8v-33.6H50.7v33.6H38.3v-33.6H20.8v33.6H8.4v-33.6H2.5v-6.6l5.8-4.5v-3.8c0-3.1,0.5-5.8,1.4-8.1
		c0.9-2.2,2.2-4.1,3.8-5.6c1.6-1.5,3.4-2.5,5.4-3.2c2.1-0.7,4.2-1,6.5-1c1.4,0,2.8,0.1,4.1,0.4c1.4,0.2,2.8,0.6,4.1,1.1l-1,9.1
		l-3-0.4c-0.5-0.1-0.9-0.1-1.3-0.1c-0.4,0-0.8,0-1.1,0c-2.3,0-3.9,0.6-5,1.7c-1,1.1-1.6,2.7-1.6,4.8v5.3h17.5v-4
		c0-3.2,0.6-5.9,1.7-8.1c1.1-2.2,2.6-4.1,4.5-5.5c1.9-1.4,4-2.4,6.4-3.1c2.4-0.7,4.8-1,7.3-1c3,0,5.9,0.4,8.8,1.3
		c2.8,0.8,5.3,2,7.4,3.5l-3.3,8.1c-1.7-0.7-3.7-1.2-5.8-1.8c-2.1-0.5-4.2-0.8-6.2-0.8c-2.3,0-4.2,0.4-5.9,1.3
		c-1.6,0.9-2.5,2.4-2.5,4.5v5.5h26.5V324.1z"/>
	<path d="M47.2,353.6c0.9-2.2,2.2-4.1,3.8-5.6c1.6-1.5,3.4-2.5,5.4-3.2c2.1-0.7,4.2-1,6.5-1c1.4,0,2.8,0.1,4.1,0.4
		c1.4,0.2,2.8,0.6,4.1,1.1l-1,9.1l-3-0.4c-0.5-0.1-0.9-0.1-1.3-0.1c-0.4,0-0.8,0-1.1,0c-2.3,0-3.9,0.6-5,1.7
		c-1.1,1.1-1.6,2.7-1.6,4.8v5.3h12v11.1h-12V410H45.8v-33.6H28V410H15.5v-33.6H9.7v-6.6l5.8-4.5v-3.8c0-3.1,0.5-5.8,1.4-8.1
		c0.9-2.2,2.2-4.1,3.8-5.6c1.6-1.5,3.4-2.5,5.4-3.2c2.1-0.7,4.2-1,6.5-1c1.4,0,2.8,0.1,4.1,0.4c1.4,0.2,2.8,0.6,4.1,1.1l-1,9.1
		l-3-0.4c-0.5-0.1-0.9-0.1-1.3-0.1c-0.4,0-0.8,0-1.1,0c-2.3,0-3.9,0.6-5,1.7c-1.1,1.1-1.6,2.7-1.6,4.8v5.3h17.8v-3.8
		C45.8,358.5,46.2,355.8,47.2,353.6z"/>
	<path d="M37.3,439.4c0.9-2.2,2.2-4.1,3.8-5.6c1.6-1.5,3.4-2.5,5.4-3.2c2.1-0.7,4.2-1,6.5-1c1.4,0,2.8,0.1,4.1,0.4
		c1.4,0.2,2.8,0.6,4.1,1.1l-1,9.1l-3-0.4c-0.5-0.1-0.9-0.1-1.3-0.1c-0.4,0-0.8,0-1.1,0c-2.3,0-3.9,0.6-5,1.7
		c-1.1,1.1-1.6,2.7-1.6,4.8v5.4H79v44.8c0,3.1-0.5,5.8-1.4,8.1c-0.9,2.2-2.2,4.1-3.7,5.6c-1.6,1.5-3.4,2.5-5.4,3.2
		c-2.1,0.7-4.2,1-6.5,1c-1.4,0-2.8-0.1-4.1-0.4c-1.4-0.2-2.8-0.6-4.1-1.1l1-9.1l3.1,0.4c0.5,0.1,0.9,0.2,1.3,0.2c0.4,0,0.8,0,1.2,0
		c2.3,0,3.9-0.6,4.9-1.7c1-1.1,1.5-2.7,1.5-4.7v-35.4H48.3V496H35.9v-33.6H18.1V496H5.7v-33.6h-5.8v-6.6l5.8-4.5v-3.9
		c0-3.1,0.5-5.8,1.4-8.1c0.9-2.2,2.2-4.1,3.8-5.6c1.6-1.5,3.4-2.5,5.4-3.2c2.1-0.7,4.2-1,6.5-1c1.4,0,2.8,0.1,4.1,0.4
		c1.4,0.2,2.8,0.6,4.1,1.1l-1,9.1l-3-0.4c-0.5-0.1-0.9-0.1-1.3-0.1c-0.4,0-0.8,0-1.1,0c-2.3,0-3.9,0.6-5,1.7
		c-1.1,1.1-1.6,2.7-1.6,4.8v5.4h17.8v-3.9C35.9,444.4,36.4,441.7,37.3,439.4z"/>
	<path d="M51.7,548.4H33.4v33.6H21v-33.6h-5.8v-6.6l5.8-4.5v-3.8c0-3.1,0.5-5.8,1.4-8.1c0.9-2.2,2.2-4.1,3.8-5.6
		c1.6-1.5,3.4-2.5,5.4-3.2c2.1-0.7,4.2-1,6.5-1c1.4,0,2.8,0.1,4.1,0.4c1.4,0.2,2.8,0.6,4.1,1.1l-1,9.1l-3-0.4
		c-0.5-0.1-0.9-0.1-1.3-0.1c-0.4,0-0.8,0-1.1,0c-2.3,0-3.9,0.6-5,1.7c-1.1,1.1-1.6,2.7-1.6,4.8v5.3h30.7v44.8c0,3.1-0.5,5.8-1.4,8.1
		c-0.9,2.2-2.2,4.1-3.7,5.6c-1.6,1.5-3.4,2.5-5.4,3.2c-2.1,0.7-4.2,1-6.5,1c-1.4,0-2.8-0.1-4.1-0.4c-1.4-0.2-2.8-0.6-4.1-1.1l1-9.1
		l3.1,0.4c0.5,0.1,0.9,0.2,1.3,0.2c0.4,0,0.8,0,1.2,0c2.3,0,3.9-0.6,4.9-1.7c1-1.1,1.5-2.7,1.5-4.7V548.4z"/>
</g>
</svg>
