<?xml version="1.0" encoding="utf-8"?>
<!-- Generator: Adobe Illustrator 18.0.0, SVG Export Plug-In . SVG Version: 6.00 Build 0)  -->
<!DOCTYPE svg PUBLIC "-//W3C//DTD SVG 1.1//EN" "http://www.w3.org/Graphics/SVG/1.1/DTD/svg11.dtd">
<svg version="1.1" id="Layer_1" xmlns="http://www.w3.org/2000/svg" xmlns:xlink="http://www.w3.org/1999/xlink" x="0px" y="0px"
	 viewBox="0 0 820.4 598.1" enable-background="new 0 0 820.4 598.1" xml:space="preserve">
<g>
	<g>
		<path d="M196-1.1l-46.3,89.4h-16.2L87.3-1.1h16.2l38.3,73.7l38.1-73.7H196z"/>
		<path d="M372.7-1.1l-46.3,89.4h-16.2L263.9-1.1h16.2l38.3,73.7l38.1-73.7H372.7z"/>
		<path d="M551.6-1.1l-46.3,89.4h-16.2L442.8-1.1H459l38.3,73.7l38.1-73.7H551.6z"/>
		<path d="M730.5-1.1l-46.3,89.4H668L621.7-1.1h16.2l38.3,73.7l38.1-73.7H730.5z"/>
	</g>
	<g>
		<path d="M108.1,126.5l-46.3,89.4H45.7l-46.3-89.4h16.2l38.3,73.7l38.1-73.7H108.1z"/>
		<path d="M196,253.8l-46.3,89.4h-16.2l-46.3-89.4h16.2l38.3,73.7l38.1-73.7H196z"/>
		<path d="M372.7,253.8l-46.3,89.4h-16.2l-46.3-89.4h16.2l38.3,73.7l38.1-73.7H372.7z"/>
		<path d="M551.6,253.8l-46.3,89.4h-16.2l-46.3-89.4H459l38.3,73.7l38.1-73.7H551.6z"/>
		<path d="M730.5,253.8l-46.3,89.4H668l-46.3-89.4h16.2l38.3,73.7l38.1-73.7H730.5z"/>
		<path d="M286,126.5l-46.3,89.4h-16.2l-46.3-89.4h16.2l38.3,73.7l38.1-73.7H286z"/>
		<path d="M463.9,126.5l-46.3,89.4h-16.2l-46.3-89.4h16.2l38.3,73.7l38.1-73.7H463.9z"/>
		<path d="M641.8,126.5l-46.3,89.4h-16.2l-46.3-89.4h16.2l38.3,73.7l38.1-73.7H641.8z"/>
		<path d="M819.7,126.5l-46.3,89.4h-16.2L711,126.5h16.2l38.3,73.7l38.1-73.7H819.7z"/>
	</g>
	<g>
		<path d="M108.1,381.4l-46.3,89.4H45.7l-46.3-89.4h16.2L53.9,455l38.1-73.7H108.1z"/>
		<path d="M196,508.6L149.7,598h-16.2l-46.3-89.4h16.2l38.3,73.7l38.1-73.7H196z"/>
		<path d="M372.7,508.6L326.4,598h-16.2l-46.3-89.4h16.2l38.3,73.7l38.1-73.7H372.7z"/>
		<path d="M551.6,508.6L505.3,598h-16.2l-46.3-89.4H459l38.3,73.7l38.1-73.7H551.6z"/>
		<path d="M730.5,508.6L684.2,598H668l-46.3-89.4h16.2l38.3,73.7l38.1-73.7H730.5z"/>
		<path d="M286,381.4l-46.3,89.4h-16.2l-46.3-89.4h16.2l38.3,73.7l38.1-73.7H286z"/>
		<path d="M463.9,381.4l-46.3,89.4h-16.2l-46.3-89.4h16.2l38.3,73.7l38.1-73.7H463.9z"/>
		<path d="M641.8,381.4l-46.3,89.4h-16.2l-46.3-89.4h16.2l38.3,73.7l38.1-73.7H641.8z"/>
		<path d="M819.7,381.4l-46.3,89.4h-16.2L711,381.4h16.2l38.3,73.7l38.1-73.7H819.7z"/>
	</g>
</g>
</svg>
