<?xml version="1.0" encoding="utf-8"?>
<!-- Generator: Adobe Illustrator 18.0.0, SVG Export Plug-In . SVG Version: 6.00 Build 0)  -->
<!DOCTYPE svg PUBLIC "-//W3C//DTD SVG 1.1//EN" "http://www.w3.org/Graphics/SVG/1.1/DTD/svg11.dtd">
<svg version="1.1" id="Layer_1" xmlns="http://www.w3.org/2000/svg" xmlns:xlink="http://www.w3.org/1999/xlink" x="0px" y="0px"
	 viewBox="0 0 625.6 600" enable-background="new 0 0 625.6 600" xml:space="preserve">
<g>
	<path d="M120.2,52l77,184.4h-42.7l-16.6-39.5H59.6l-16.4,39.5H0.3L77.3,52H120.2z M65.5,3.1c5.5,0,10.2,1.9,14,5.7
		c3.8,3.8,5.7,8.5,5.7,14c0,5.6-1.9,10.3-5.7,14.2c-3.8,3.9-8.4,5.9-14,5.9c-5.5,0-10.2-2-14.1-5.9c-3.9-3.9-5.8-8.6-5.8-14.2
		c0-5.5,1.9-10.2,5.8-14C55.3,5,60,3.1,65.5,3.1z M123.1,161l-24.2-58l-24.2,58H123.1z M128.4,3.1c5.5,0,10.2,1.9,14,5.7
		c3.8,3.8,5.7,8.5,5.7,14c0,5.6-1.9,10.3-5.7,14.2c-3.8,3.9-8.4,5.9-14,5.9c-5.5,0-10.2-2-14.1-5.9c-3.9-3.9-5.8-8.6-5.8-14.2
		c0-5.5,1.9-10.2,5.8-14C118.2,5,122.9,3.1,128.4,3.1z"/>
	<path d="M349.7,52h39.5v117.8c0,9.2-1.9,18-5.7,26.5c-3.8,8.5-9,16-15.6,22.4c-6.6,6.4-14.3,11.5-23.1,15.3
		c-8.8,3.8-18.2,5.7-28.3,5.7c-9.9,0-19.3-1.9-28.1-5.7c-8.9-3.8-16.5-8.9-23.1-15.3c-6.5-6.4-11.7-13.9-15.5-22.4
		c-3.8-8.5-5.7-17.3-5.7-26.5V52h39.5v110c0,5.2,0.9,10.1,2.6,14.7c1.7,4.6,4.1,8.7,7,12.2c2.9,3.6,6.4,6.4,10.5,8.5
		c4.1,2.1,8.3,3.1,12.8,3.1c4.7,0,9-1,13-3.1c4-2.1,7.5-4.9,10.5-8.5c3-3.6,5.4-7.6,7.1-12.2c1.7-4.6,2.6-9.5,2.6-14.7V52z M285,0
		c5.5,0,10.2,1.9,14,5.7c3.8,3.8,5.7,8.5,5.7,14c0,5.6-1.9,10.3-5.7,14.2c-3.8,3.9-8.4,5.9-14,5.9c-5.5,0-10.2-2-14.1-5.9
		c-3.9-3.9-5.8-8.6-5.8-14.2c0-5.5,1.9-10.2,5.8-14C274.8,1.9,279.5,0,285,0z M348,0c5.5,0,10.2,1.9,14,5.7c3.8,3.8,5.7,8.5,5.7,14
		c0,5.6-1.9,10.3-5.7,14.2c-3.8,3.9-8.4,5.9-14,5.9c-5.5,0-10.2-2-14.1-5.9c-3.9-3.9-5.8-8.6-5.8-14.2c0-5.5,1.9-10.2,5.8-14
		C337.8,1.9,342.5,0,348,0z"/>
	<path d="M532.1,49.4c12.5,0,24.3,2.5,35.4,7.5c11.1,5,20.8,11.9,29,20.5c8.2,8.7,14.7,18.7,19.5,30.2c4.8,11.4,7.2,23.7,7.2,36.7
		c0,12.8-2.4,25.1-7.2,36.7c-4.8,11.6-11.3,21.8-19.5,30.4c-8.2,8.7-17.9,15.6-29,20.7c-11.1,5.1-22.9,7.7-35.4,7.7
		c-12.5,0-24.3-2.6-35.4-7.7c-11.1-5.1-20.7-12-28.9-20.7c-8.2-8.7-14.6-18.8-19.4-30.4c-4.8-11.6-7.2-23.8-7.2-36.7
		c0-13,2.4-25.2,7.2-36.7c4.8-11.4,11.2-21.5,19.4-30.2C476,68.8,485.6,62,496.7,57C507.8,51.9,519.6,49.4,532.1,49.4z M532.2,200.6
		c7.1,0,13.7-1.5,20-4.4c6.2-2.9,11.7-7,16.3-12.1c4.7-5.1,8.3-11.1,11-17.8s4-14,4-21.9c0-7.8-1.3-15.1-4-22
		c-2.7-6.8-6.4-12.8-11-17.9c-4.7-5.1-10.1-9.1-16.3-12.1c-6.2-2.9-12.9-4.4-20-4.4c-7.1,0-13.8,1.5-20,4.4c-6.2,3-11.7,7-16.3,12.1
		c-4.7,5.1-8.3,11.1-11,17.9c-2.7,6.9-4,14.2-4,22c0,7.8,1.3,15.1,4,21.9c2.7,6.8,6.4,12.7,11,17.8c4.7,5.1,10.1,9.1,16.3,12.1
		C518.5,199.1,525.1,200.6,532.2,200.6z M501,0c5.5,0,10.2,1.9,14,5.7c3.8,3.8,5.7,8.5,5.7,14c0,5.6-1.9,10.3-5.7,14.2
		c-3.8,3.9-8.4,5.9-14,5.9c-5.5,0-10.2-2-14.1-5.9c-3.9-3.9-5.8-8.6-5.8-14.2c0-5.5,1.9-10.2,5.8-14C490.8,1.9,495.5,0,501,0z
		 M563.9,0c5.5,0,10.2,1.9,14,5.7c3.8,3.8,5.7,8.5,5.7,14c0,5.6-1.9,10.3-5.7,14.2c-3.8,3.9-8.4,5.9-14,5.9c-5.5,0-10.2-2-14.1-5.9
		C546,30,544,25.3,544,19.8c0-5.5,1.9-10.2,5.8-14C553.7,1.9,558.4,0,563.9,0z"/>
	<path d="M121,412.2l77,184.4h-42.7l-16.6-39.5H60.4L44,596.6H1.1l77-184.4H121z M44.2,392.4c5.5,0,10.2,1.9,14,5.7
		c3.8,3.8,5.7,8.5,5.7,14c0,5.6-1.9,10.3-5.7,14.2c-3.8,3.9-8.4,5.9-14,5.9c-5.5,0-10.2-2-14.1-5.9c-3.9-3.9-5.8-8.6-5.8-14.2
		c0-5.5,1.9-10.2,5.8-14C34,394.3,38.6,392.4,44.2,392.4z M123.7,521.2l-22.1-52.8l-2.1-5.2l-2.3,4.9l-21.8,53.1H123.7z
		 M155.2,392.4c5.5,0,10.2,1.9,14,5.7c3.8,3.8,5.7,8.5,5.7,14c0,5.6-1.9,10.3-5.7,14.2c-3.8,3.9-8.4,5.9-14,5.9
		c-5.5,0-10.2-2-14.1-5.9c-3.9-3.9-5.8-8.6-5.8-14.2c0-5.5,1.9-10.2,5.8-14C145,394.3,149.7,392.4,155.2,392.4z"/>
	<path d="M290.4,392.7c5.5,0,10.2,1.9,14,5.7c3.8,3.8,5.7,8.5,5.7,14c0,5.6-1.9,10.3-5.7,14.2c-3.8,3.9-8.5,5.9-14,5.9
		c-3,0-5.6-0.5-7.8-1.6v91.3c0,5.2,0.9,10.1,2.6,14.7c1.7,4.6,4.1,8.7,7,12.2c2.9,3.6,6.4,6.4,10.5,8.5c4.1,2.1,8.3,3.1,12.8,3.1
		c4.7,0,9-1,13-3.1c4-2.1,7.5-4.9,10.5-8.5c3-3.6,5.4-7.6,7.1-12.2c1.7-4.6,2.6-9.5,2.6-14.7v-90.5c-1.9,0.5-3.9,0.8-6,0.8
		c-5.6,0-10.3-2-14.2-5.9c-3.9-3.9-5.9-8.6-5.9-14.2c0-5.5,2-10.2,5.9-14c3.9-3.8,8.6-5.7,14.2-5.7c5.4,0,10,1.9,13.8,5.7
		c3.8,3.8,5.8,8.4,6,13.8h25.7V530c0,9.2-1.9,18-5.7,26.5c-3.8,8.5-9,16-15.6,22.4c-6.6,6.4-14.3,11.5-23.1,15.3
		c-8.8,3.8-18.2,5.7-28.3,5.7c-9.9,0-19.3-1.9-28.1-5.7c-8.9-3.8-16.5-8.9-23.1-15.3c-6.5-6.4-11.7-13.9-15.5-22.4
		c-3.8-8.5-5.7-17.3-5.7-26.5V412.2h27.2c0-5.4,2-10,5.9-13.8C280.1,394.6,284.8,392.7,290.4,392.7z"/>
	<path d="M461.6,392.4c5.6,0,10.3,1.9,14.1,5.7c3.8,3.8,5.8,8.5,5.8,14c0,5.6-1.9,10.3-5.8,14.2c-3.8,3.9-8.6,5.9-14.1,5.9
		c-5.6,0-10.3-2-14.3-5.9c-3.9-3.9-5.9-8.6-5.9-14.2c0-5.5,2-10.2,5.9-14C451.3,394.3,456.1,392.4,461.6,392.4z M533.8,409.6
		c12.5,0,24.3,2.5,35.4,7.5c11.1,5,20.8,11.9,29,20.6c8.2,8.7,14.7,18.7,19.5,30.2c4.8,11.4,7.2,23.7,7.2,36.7
		c0,12.8-2.4,25.1-7.2,36.7c-4.8,11.6-11.3,21.8-19.5,30.4c-8.2,8.7-17.9,15.6-29,20.7c-11.1,5.1-22.9,7.7-35.4,7.7
		s-24.3-2.6-35.4-7.7c-11.1-5.1-20.7-12-28.9-20.7c-8.2-8.7-14.6-18.8-19.4-30.4c-4.8-11.6-7.2-23.8-7.2-36.7
		c0-13,2.4-25.2,7.2-36.7c4.8-11.4,11.2-21.5,19.4-30.2c8.1-8.7,17.8-15.5,28.9-20.6C509.6,412.1,521.3,409.6,533.8,409.6z
		 M534,560.7c7.1,0,13.7-1.5,20-4.4c6.2-2.9,11.7-7,16.3-12.1c4.7-5.1,8.3-11.1,11-17.8c2.7-6.8,4-14,4-21.9s-1.3-15.1-4-22
		c-2.7-6.8-6.4-12.8-11-17.9c-4.7-5.1-10.1-9.1-16.3-12.1c-6.2-2.9-12.9-4.4-20-4.4c-7.1,0-13.8,1.5-20,4.4c-6.2,3-11.7,7-16.3,12.1
		c-4.7,5.1-8.3,11.1-11,17.9c-2.7,6.9-4,14.2-4,22s1.3,15.1,4,21.9c2.7,6.8,6.4,12.7,11,17.8c4.7,5.1,10.1,9.1,16.3,12.1
		C520.2,559.3,526.9,560.7,534,560.7z M606.1,392.4c5.5,0,10.2,1.9,14,5.7c3.8,3.8,5.7,8.5,5.7,14c0,5.6-1.9,10.3-5.7,14.2
		c-3.8,3.9-8.5,5.9-14,5.9c-5.6,0-10.3-2-14.2-5.9c-3.9-3.9-5.9-8.6-5.9-14.2c0-5.5,2-10.2,5.9-14
		C595.9,394.3,600.6,392.4,606.1,392.4z"/>
</g>
<g>
	<path d="M54.5,322l18.1,13l-4,2.5l-3.9-2.8l-7.4,4.6l0.8,4.7l-4.1,2.5l-3.5-22L54.5,322z M61.2,332.2l-5.7-4.1l1.1,6.9L61.2,332.2z
		"/>
	<path d="M76.5,328.6l7.5-3.9l1.9,3.5l-11.4,6L64.9,316l3.9-2.1L76.5,328.6z"/>
	<path d="M75.7,310.2l13.5-6.3l1.7,3.6l-4.8,2.2l7,15l-4,1.9l-7-15l-4.8,2.2L75.7,310.2z"/>
	<path d="M92.3,302.6l12-4.7l1.5,3.7l-7.9,3.1l1.4,3.5l6.9-2.7l1.5,3.7l-6.9,2.7l1.8,4.5l7.9-3.1l1.5,3.7l-12,4.7L92.3,302.6z"/>
	<path d="M124.1,297.8c0.2,0.6,0.3,1.3,0.3,1.9c0,0.6-0.1,1.2-0.2,1.8c-0.2,0.6-0.4,1.1-0.7,1.6c-0.3,0.5-0.7,0.9-1.2,1.3l9.1,6.3
		l-4.9,1.5l-8.6-6l-1.9,0.6l2.5,7.9l-4.2,1.3l-6.2-19.6l8.5-2.7c0.8-0.2,1.6-0.3,2.3-0.2s1.5,0.3,2.2,0.7c0.7,0.4,1.3,0.9,1.8,1.5
		C123.4,296.3,123.8,297,124.1,297.8z M118.6,301.8c0.5-0.2,0.9-0.5,1.2-1c0.3-0.5,0.3-1.1,0.1-1.6c-0.2-0.6-0.5-1-1-1.2
		c-0.5-0.3-1-0.3-1.6-0.2l-3.7,1.2l1.3,4.1L118.6,301.8z"/>
	<path d="M142.5,287.1l4.3-0.9l4.4,20.1l-4.1,0.9l-12.5-11l2.9,13.1l-4.3,0.9l-4.4-20.1l4-0.9l12.6,11.1L142.5,287.1z"/>
	<path d="M164,283.9l10.8,19.5l-4.7,0.5l-2.3-4.2l-8.7,1l-1.3,4.6l-4.8,0.5l6.2-21.4L164,283.9z M165.7,295.9l-3.4-6.1l-2,6.7
		L165.7,295.9z"/>
	<path d="M172.6,283l14.9-0.4l0.1,4l-5.3,0.1l0.4,16.6l-4.4,0.1l-0.4-16.6l-5.3,0.1L172.6,283z"/>
	<path d="M191,282.8l12.8,0.6l-0.2,4l-8.4-0.4l-0.2,3.7l7.4,0.4l-0.2,4l-7.4-0.4l-0.2,4.8l8.4,0.4l-0.2,4l-12.8-0.6L191,282.8z"/>
	<path d="M229.5,286.8l4.9,21.8l-4.7-0.8l-1.1-4.7l-8.6-1.5l-2.6,4l-4.7-0.8l12-18.8L229.5,286.8z M227.8,298.8l-1.5-6.8l-3.8,5.9
		L227.8,298.8z"/>
	<path d="M245.2,307.3c0.9,0.2,1.8,0.3,2.8,0.1c1-0.2,2-0.7,3.2-1.4l2.1,3.3c-1.5,1.1-3,1.9-4.6,2.2c-1.6,0.4-3.2,0.3-4.7-0.1
		c-1.3-0.4-2.5-1-3.6-1.8c-1-0.9-1.9-1.9-2.5-3c-0.6-1.2-1-2.4-1.2-3.8c-0.2-1.4-0.1-2.8,0.3-4.2c0.4-1.4,1-2.7,1.8-3.8
		c0.8-1.1,1.8-2,2.9-2.7c1.1-0.7,2.4-1.2,3.7-1.4c1.3-0.2,2.7-0.2,4,0.2c1.3,0.3,2.4,0.9,3.4,1.6c1,0.8,1.9,1.8,2.7,3.2l-3.3,2.4
		c-0.6-0.9-1.2-1.6-1.8-2.1c-0.6-0.4-1.3-0.8-2.1-1c-0.8-0.2-1.5-0.2-2.3-0.1c-0.8,0.1-1.5,0.4-2.1,0.8c-0.6,0.4-1.2,0.9-1.7,1.6
		c-0.5,0.7-0.8,1.4-1.1,2.3c-0.2,0.8-0.3,1.7-0.2,2.5c0.1,0.8,0.3,1.6,0.7,2.2s0.8,1.3,1.4,1.8C243.8,306.8,244.4,307.1,245.2,307.3
		z"/>
	<path d="M264.8,313.2c0.9,0.3,1.8,0.4,2.8,0.2c1-0.1,2.1-0.5,3.2-1.2l1.9,3.5c-1.5,1-3.1,1.7-4.8,2c-1.6,0.3-3.2,0.2-4.6-0.3
		c-1.3-0.4-2.5-1.1-3.5-2c-1-0.9-1.7-2-2.3-3.2c-0.6-1.2-0.9-2.5-1-3.9c-0.1-1.4,0.1-2.8,0.5-4.1c0.5-1.4,1.1-2.6,2-3.6
		c0.9-1,1.9-1.9,3.1-2.5c1.2-0.6,2.4-1,3.8-1.2c1.4-0.1,2.7,0,4,0.4c1.2,0.4,2.3,1,3.3,1.8c1,0.8,1.8,1.9,2.5,3.4l-3.4,2.2
		c-0.5-1-1.1-1.7-1.7-2.2c-0.6-0.5-1.3-0.8-2-1.1c-0.8-0.2-1.5-0.3-2.3-0.2c-0.8,0.1-1.5,0.3-2.2,0.7c-0.7,0.4-1.3,0.9-1.8,1.5
		c-0.5,0.6-0.9,1.4-1.2,2.2c-0.3,0.8-0.4,1.6-0.3,2.5s0.2,1.6,0.6,2.3c0.3,0.7,0.8,1.3,1.3,1.9C263.3,312.6,264,313,264.8,313.2z"/>
	<path d="M280.5,301l12.1,4.3l-1.3,3.8l-8-2.8l-1.2,3.5l7,2.5l-1.3,3.8l-7-2.5l-1.6,4.6l8,2.8l-1.3,3.8l-12.1-4.3L280.5,301z"/>
	<path d="M308.5,310.7l4.2,1.4l-6.6,19.5l-4-1.3l-5.1-15.9l-4.3,12.7l-4.2-1.4l6.6-19.5l3.9,1.3l5.1,16L308.5,310.7z"/>
	<path d="M314.4,312.7l14.3,4.1l-1.1,3.9l-5.1-1.4l-4.6,15.9l-4.2-1.2l4.6-15.9l-5-1.4L314.4,312.7z"/>
	<path d="M330.6,317.3l12.5,2.8l-0.9,3.9l-8.2-1.8l-0.8,3.6l7.2,1.6l-0.9,3.9l-7.3-1.6l-1.1,4.7l8.2,1.8l-0.9,3.9l-12.5-2.8
		L330.6,317.3z"/>
	<path d="M353.8,321.8c1.5,0.2,2.7,0.7,3.8,1.4c1.1,0.7,1.9,1.6,2.5,2.6c0.6,1,1,2.2,1.2,3.5c0.2,1.3,0.2,2.7,0,4
		c-0.2,1.4-0.6,2.7-1.2,3.9c-0.6,1.2-1.3,2.2-2.2,3c-0.9,0.8-1.8,1.4-2.9,1.8c-1.1,0.4-2.2,0.5-3.4,0.3l-9.1-1.3l3-20.4L353.8,321.8
		z M351.4,338.2c0.8,0.1,1.6,0.1,2.2-0.2c0.6-0.2,1.2-0.6,1.7-1.1c0.5-0.5,0.8-1.1,1.1-1.9c0.3-0.7,0.5-1.5,0.6-2.3
		c0.1-0.8,0.2-1.6,0.1-2.4c-0.1-0.8-0.2-1.5-0.5-2.1c-0.3-0.6-0.7-1.2-1.3-1.6s-1.2-0.7-2-0.8l-3.9-0.6l-1.8,12.4L351.4,338.2z"/>
	<path d="M381.9,340.9c0.9,0,1.8-0.2,2.7-0.5c0.9-0.4,1.8-1.1,2.8-2.1l2.8,2.8c-1.2,1.4-2.5,2.5-4,3.2s-3,1-4.5,1
		c-1.4,0-2.7-0.4-3.9-1c-1.2-0.6-2.2-1.4-3.1-2.4c-0.9-1-1.5-2.1-2-3.4s-0.7-2.7-0.6-4.1c0-1.5,0.4-2.8,0.9-4.1
		c0.6-1.3,1.3-2.4,2.3-3.3s2-1.7,3.3-2.2c1.3-0.5,2.6-0.8,4-0.7c1.3,0,2.5,0.3,3.7,0.8s2.3,1.4,3.4,2.5l-2.7,3
		c-0.8-0.8-1.5-1.3-2.3-1.6c-0.7-0.3-1.5-0.4-2.3-0.5s-1.5,0.1-2.3,0.4c-0.7,0.3-1.3,0.7-1.9,1.3c-0.5,0.5-1,1.2-1.3,1.9
		c-0.3,0.8-0.5,1.6-0.5,2.4c0,0.9,0.1,1.7,0.4,2.5c0.3,0.8,0.7,1.4,1.2,2s1.1,1.1,1.8,1.4C380.4,340.7,381.1,340.9,381.9,340.9z"/>
	<path d="M406.4,323.9l4.4-0.2l1.1,20.6l-4.4,0.2l-0.5-8.8l-9.4,0.5l0.5,8.8l-4.4,0.2l-1.1-20.6l4.4-0.2l0.4,7.7l9.4-0.5
		L406.4,323.9z"/>
	<path d="M425.5,321.4l11.8,18.9l-4.7,0.8l-2.5-4.1l-8.6,1.4l-1.1,4.6l-4.7,0.8l5.2-21.7L425.5,321.4z M427.7,333.4l-3.7-6l-1.6,6.8
		L427.7,333.4z"/>
	<path d="M451.3,321.7c0.2,0.6,0.2,1.3,0.2,1.9c0,0.6-0.1,1.2-0.3,1.8c-0.2,0.6-0.5,1.1-0.8,1.6c-0.4,0.5-0.8,0.9-1.2,1.3l8.8,6.7
		l-5,1.3l-8.3-6.4l-1.9,0.5l2.1,8l-4.3,1.1l-5.3-19.9l8.6-2.3c0.8-0.2,1.6-0.2,2.4-0.1c0.8,0.1,1.5,0.4,2.2,0.8
		c0.7,0.4,1.2,0.9,1.7,1.6C450.7,320.2,451,320.9,451.3,321.7z M445.5,325.5c0.5-0.1,1-0.5,1.2-1c0.3-0.5,0.4-1,0.2-1.6
		c-0.1-0.6-0.5-1-1-1.3c-0.5-0.3-1-0.4-1.6-0.2l-3.8,1l1.1,4.1L445.5,325.5z"/>
	<path d="M466.4,310.5l14.6,16.8l-4.5,1.5l-3.2-3.6l-8.3,2.8l-0.3,4.8l-4.5,1.5l1.7-22.2L466.4,310.5z M470.5,321.9l-4.6-5.3l-0.5,7
		L470.5,321.9z"/>
	<path d="M489.6,320c0.9-0.3,1.7-0.8,2.4-1.5c0.7-0.7,1.3-1.7,1.8-2.9l3.6,1.6c-0.6,1.8-1.5,3.2-2.6,4.4c-1.1,1.2-2.4,2-3.9,2.5
		c-1.3,0.5-2.6,0.6-4,0.5c-1.3-0.1-2.6-0.5-3.8-1.1s-2.2-1.5-3.1-2.5c-0.9-1-1.6-2.3-2.1-3.6c-0.5-1.4-0.7-2.7-0.6-4.1
		c0.1-1.4,0.4-2.7,0.9-3.9c0.5-1.2,1.3-2.3,2.3-3.2c1-0.9,2.1-1.6,3.5-2.1c1.2-0.4,2.5-0.6,3.7-0.5s2.6,0.5,4,1.2l-1.4,3.8
		c-1-0.4-1.9-0.7-2.7-0.7c-0.8,0-1.5,0.1-2.3,0.4c-0.7,0.3-1.4,0.7-2,1.2s-1,1.2-1.3,1.9c-0.3,0.7-0.5,1.5-0.5,2.3
		c0,0.8,0.1,1.6,0.4,2.5c0.3,0.8,0.7,1.5,1.2,2.2s1.1,1.1,1.8,1.5c0.7,0.4,1.4,0.6,2.2,0.7C488.1,320.4,488.8,320.3,489.6,320z"/>
	<path d="M507.9,296.5l4.2-1.3l6.2,19.6l-4.2,1.3l-2.7-8.4l-9,2.8l2.7,8.4l-4.2,1.3l-6.2-19.6l4.2-1.3l2.3,7.4l9-2.8L507.9,296.5z"
		/>
	<path d="M515.2,294.3l14.4-3.7l1,3.9l-5.1,1.3l4.2,16l-4.3,1.1l-4.2-16l-5.1,1.3L515.2,294.3z"/>
	<path d="M532.7,289.9l12.6-2.6l0.8,3.9l-8.3,1.7l0.7,3.6l7.3-1.5l0.8,3.9l-7.3,1.5l1,4.8l8.3-1.7l0.8,3.9l-12.6,2.6L532.7,289.9z"
		/>
	<path d="M564.7,290.6c0.1,0.7,0.1,1.3,0,1.9c-0.1,0.6-0.3,1.2-0.5,1.7s-0.6,1-1,1.5c-0.4,0.4-0.9,0.8-1.4,1.1l8,7.7l-5.1,0.7
		l-7.5-7.3l-2,0.3l1.2,8.2l-4.4,0.6l-2.9-20.4l8.8-1.2c0.8-0.1,1.6-0.1,2.4,0.1c0.8,0.2,1.4,0.6,2.1,1s1.1,1.1,1.5,1.7
		C564.3,289,564.6,289.7,564.7,290.6z M558.6,293.6c0.6-0.1,1-0.4,1.3-0.8c0.3-0.5,0.5-1,0.4-1.6c-0.1-0.6-0.4-1-0.8-1.4
		c-0.5-0.4-1-0.5-1.5-0.4l-3.9,0.6l0.6,4.2L558.6,293.6z"/>
	<path d="M584,292.7c0.8,0.4,1.5,1,2,1.7s0.8,1.6,0.8,2.6c0.1,0.9-0.1,1.8-0.5,2.6c-0.4,0.8-0.9,1.6-1.7,2.3
		c-0.7,0.6-1.5,1.1-2.4,1.5c-0.9,0.4-1.9,0.6-2.9,0.7c-1,0.1-2,0-3-0.2s-1.8-0.6-2.6-1.1c-1.2-0.7-2-1.7-2.5-2.8l3.9-2.2
		c0,0.2,0.1,0.4,0.3,0.7s0.4,0.5,0.7,0.8c0.3,0.2,0.7,0.4,1.2,0.6s1.1,0.2,1.7,0.2c0.5,0,1-0.1,1.4-0.3c0.4-0.2,0.7-0.4,1-0.6
		c0.3-0.2,0.5-0.5,0.6-0.7s0.2-0.5,0.2-0.8c0-0.3-0.1-0.6-0.4-0.8c-0.2-0.3-0.6-0.4-1-0.6c-0.8-0.2-1.6-0.4-2.5-0.5
		c-0.9-0.1-1.7-0.3-2.6-0.5s-1.6-0.5-2.3-0.9c-0.7-0.4-1.3-1-1.8-1.8c-0.4-0.7-0.7-1.5-0.7-2.3c-0.1-0.9,0.1-1.8,0.4-2.7
		c0.4-0.9,0.9-1.7,1.6-2.3c0.7-0.6,1.4-1.1,2.3-1.5c0.9-0.4,1.8-0.6,2.8-0.7c1-0.1,1.9,0,2.9,0.2c0.9,0.2,1.8,0.6,2.5,1.1
		c0.7,0.5,1.3,1,1.8,1.7l-3.1,2.5c-0.4-0.5-1-0.9-1.6-1.2c-0.6-0.3-1.3-0.4-2.1-0.3c-1,0.1-1.8,0.4-2.4,0.9
		c-0.5,0.5-0.8,1.1-0.7,1.9c0,0.3,0.2,0.6,0.6,0.9c0.3,0.2,0.8,0.5,1.3,0.6c0.5,0.2,1.1,0.3,1.8,0.4c0.7,0.1,1.3,0.2,1.9,0.3
		c0.6,0.1,1.2,0.2,1.8,0.4C583.2,292.3,583.7,292.5,584,292.7z"/>
</g>
</svg>
