<?xml version="1.0" encoding="utf-8"?>
<!-- Generator: Adobe Illustrator 18.0.0, SVG Export Plug-In . SVG Version: 6.00 Build 0)  -->
<!DOCTYPE svg PUBLIC "-//W3C//DTD SVG 1.1//EN" "http://www.w3.org/Graphics/SVG/1.1/DTD/svg11.dtd">
<svg version="1.1" id="Layer_1" xmlns="http://www.w3.org/2000/svg" xmlns:xlink="http://www.w3.org/1999/xlink" x="0px" y="0px"
	 viewBox="0 0 117.3 233.9" enable-background="new 0 0 117.3 233.9" xml:space="preserve">
<g>
	<path fill="#231F20" d="M0,0h49.9v16.7H0V0z M33.2,72.1H16.6V22.3h16.6V72.1z"/>
	<path fill="#231F20" d="M58.4,33.3V0H75v22.3h5.7v11H75H58.4z M91.6,72.1H75V38.8h16.6V72.1z M86.2,33.3v-11h5.4V0h16.8v33.3h-5.6
		H86.2z"/>
	<path fill="#231F20" d="M18.6,153H2.1V80.9h16.6V153z M57.5,80.9v44.4H24.3v-16.7h16.6v-11H24.3V80.9H57.5z"/>
	<path fill="#231F20" d="M84,153H67.4V80.9H84V153z M89.5,80.9h27.8v16.7H89.5V80.9z M111.8,125.3H89.5v-16.7h22.3V125.3z
		 M89.5,136.3h27.8V153H89.5V136.3z"/>
	<path fill="#231F20" d="M18.6,217.2h5.6v16.7H2.1v-72.1h22.1v16.7h-5.6V217.2z M29.8,206.2h-5.6v-16.7h5.6V206.2z M51.9,161.8v72.1
		H29.8v-16.7h5.6v-38.7h-5.6v-16.7H51.9z"/>
	<path fill="#231F20" d="M95.5,206.2H62.2v-16.7h33.3v-27.7h16.6v72.1H95.5V206.2z M89.9,178.5H62.2v-16.7h27.7V178.5z M89.9,233.9
		H62.2v-16.7h27.7V233.9z"/>
</g>
</svg>
