<?xml version="1.0" encoding="utf-8"?>
<!-- Generator: Adobe Illustrator 18.0.0, SVG Export Plug-In . SVG Version: 6.00 Build 0)  -->
<!DOCTYPE svg PUBLIC "-//W3C//DTD SVG 1.1//EN" "http://www.w3.org/Graphics/SVG/1.1/DTD/svg11.dtd">
<svg version="1.1" id="Layer_1" xmlns="http://www.w3.org/2000/svg" xmlns:xlink="http://www.w3.org/1999/xlink" x="0px" y="0px"
	 viewBox="1365.8 128.8 60.1 28.9" enable-background="new 1365.8 128.8 60.1 28.9" xml:space="preserve">
<path d="M1382.9,141.5v-4.1h-3.1v-2.5h-1.5v4.1h3.1v2.5H1382.9z M1380.9,141.5V140h-2.5v1.5H1380.9z M1382.9,134.9h-2.5v1.5h2.5
	V134.9z M1385.7,134.9h-1.5v2.5h-0.5v1.5h3.1v-1.5h-1V134.9z M1385.7,139.4h-1.5v2h2.5V140h-1V139.4z M1388.9,137.4h-1.5v4.1h2.5
	V140h-1V137.4z M1390.4,143h1.5v-5.6h-1.5V143z M1394.4,134.9h-1.5v6.6h2v-1h-0.5V134.9z M1395.6,137.4v1h0.5v2h-0.5v1h2.5v-1h-0.5
	v-2h0.5v-1H1395.6z M1397.6,134.9h-1.5v1.5h1.5V134.9z M1399,137.9v1.5h1.5v-0.5h2v-1.5h-3.6V137.9z M1401,140h-2v1.5h3.6v-2h-1.5
	V140z M1405.4,134.9h-1.5v2.5h-0.5v1.5h3.1v-1.5h-1V134.9z M1405.4,139.4h-1.5v2h2.5V140h-1V139.4z M1407.1,137.4v1h0.5v2h-0.5v1
	h2.5v-1h-0.5v-2h0.5v-1H1407.1z M1409.2,134.9h-1.5v1.5h1.5V134.9z M1410.5,141.5h1.5v-4.1h-1.5V141.5z M1412.6,138.9h1.5v-1.5h-1.5
	V138.9z M1412.6,141.5h1.5V140h-1.5V141.5z M1375.4,149.1h1.5v-1.5h-1.5V145h-1.5v6.6h1.5V149.1z M1377.4,151.6h1.5V145h-3v1.5h1.5
	V151.6z M1381.4,145h-1.5v6.6h2v-1h-0.5V145z M1384.6,145h-1.5v2.5h-0.5v1.5h3.1v-1.5h-1V145z M1384.6,149.6h-1.5v2h2.5v-1.5h-1
	V149.6z M1388,147.6h-1.5v4.1h4.1v-1h-2.6V147.6z M1388.5,148.6h0.5v0.5h-0.5v1h2v-2.6h-2V148.6z M1391.5,151.6h1.5v-4.1h-1.5V151.6
	z M1393.5,149.1h1.5v-1.5h-1.5V149.1z M1395.7,147.6v4.1h1.5v-2.5h0.5v-1.5H1395.7z M1398.3,147.6v1.5h0.5v2.5h1.5v-4.1H1398.3z
	 M1401.2,147.6v1h2.5v3.1h1.5v-4.1H1401.2z M1401.2,149.6v2h2v-1h-0.5v-0.5h0.5v-1h-2V149.6z M1408.1,145h-1.5v2.5h-0.5v1.5h3.1
	v-1.5h-1V145z M1408.1,149.6h-1.5v2h2.5v-1.5h-1V149.6z M1411.5,147.6h-1.5v4.1h4.1v-1h-2.6V147.6z M1412,148.6h0.5v0.5h-0.5v1h2
	v-2.6h-2V148.6z M1415,148.1v1.5h1.5v-0.5h2v-1.5h-3.6V148.1z M1417,150.1h-2v1.5h3.6v-2h-1.5V150.1z"/>
<polygon points="1375.1,128.8 1367.6,128.8 1365.8,128.8 1365.8,130.6 1365.8,135.1 1367.6,135.1 1367.6,130.6 1375.1,130.6 "/>
<polygon points="1424.1,128.8 1416.6,128.8 1416.6,130.6 1424.1,130.6 1424.1,135.1 1425.9,135.1 1425.9,130.6 1425.9,128.8 "/>
<polygon points="1367.6,155.9 1367.6,151.4 1365.8,151.4 1365.8,155.9 1365.8,157.7 1367.6,157.7 1375.1,157.7 1375.1,155.9 "/>
<polygon points="1424.1,151.4 1424.1,155.9 1416.6,155.9 1416.6,157.7 1424.1,157.7 1425.9,157.7 1425.9,155.9 1425.9,151.4 "/>
</svg>
