<?xml version="1.0" encoding="utf-8"?>
<!-- Generator: Adobe Illustrator 18.0.0, SVG Export Plug-In . SVG Version: 6.00 Build 0)  -->
<!DOCTYPE svg PUBLIC "-//W3C//DTD SVG 1.1//EN" "http://www.w3.org/Graphics/SVG/1.1/DTD/svg11.dtd">
<svg version="1.1" id="Layer_1" xmlns="http://www.w3.org/2000/svg" xmlns:xlink="http://www.w3.org/1999/xlink" x="0px" y="0px"
	 viewBox="0 0 958.6 953.5" enable-background="new 0 0 958.6 953.5" xml:space="preserve">
<g>
	<path fill="#FFFFFF" d="M953.1,478.1C953.1,215.1,740,2,477.1,2S1,215.1,1,478.1s213.1,476.1,476.1,476.1S953.1,741,953.1,478.1z"
		/>
	<path d="M820.1,728.1h-38.9v-58.3H878v65c37.6-58.6,62.7-126,71.6-198.4h-87.9v-58.3h38.9V342.8h-38.9v-58.3h50.4
		c-61.1-137.1-185-239.9-335.2-272v45.8H460.6v-56c-6.5,0.2-13,0.6-19.4,1V272h-58V343h-58V149.4h-58V91.1h115.9V11.3
		c-67.4,13.5-129.6,41.2-183.5,79.8h48.2v96.8h58.3v58.3h-58.3V343h-15.4v193.4h-58V362.2h-19.4v19.1h-19.4v-96.8h54.2V98.3
		C126.2,146.6,75,210.6,42,284.5h54.8v96.8H77.6v-19.1H58v174.2H4.6c9.9,81.1,40.2,155.9,85.7,219.2V573h58v249.3
		c45.3,43.3,99.2,77.7,158.8,100.6V703h58v237.8c6.4,1.6,12.9,3,19.4,4.3v-48.5h97.2v57.5c6.9-0.1,13.7-0.3,20.5-0.6V703h58v243.9
		c23.6-4.1,46.5-10,68.7-17.5v-71.3h-49.3v-58.3h107.3v105.8c50-24.6,95.1-57.7,133.3-97.4V728.1z M135.7,459.1H96.8v-58.3h38.9
		V459.1z M854.6,650.4h-53.9V573h53.9V650.4z M654.3,91.1h97.2v58.3h-97.2V91.1z M654.3,187.9H732v58.3h-77.7V187.9z M654.3,284.7
		h91.2v-0.2h96.5v58.3h-38.5v135.3h38.5v58.3h-96.5V343h-91.2V284.7z M587.5,453.8v-58.3h97.2v77.7h-38.9v-19.4H587.5z M361.2,395.5
		h115.9v252h-58V453.8h-58V395.5z M341.7,550.6v96.8h-57.8v80.7H168v-58.3h58v-38.5h-58V573h115.8V395.5h58v96.8H400v58.3H341.7z
		 M462.1,858.1h-77.7v-58.3h77.7V858.1z M481.5,761.3h-97.2V703h97.2V761.3z M568,647.4h-58v-252h58V647.4z M576.9,343V272H460.6
		v-58.3h116.3V91.1h58v252H576.9z M667.7,780.7h-38.9v-19.4h-49.3V703h88.2V780.7z M761.8,825h-58V647.4h-0.1h-33.6h-24.4v-96.8
		h-58.3v-58.3h116.3V573h0.1h41.7h16.3V825z"/>
</g>
</svg>
