<?xml version="1.0" encoding="utf-8"?>
<!-- Generator: Adobe Illustrator 18.0.0, SVG Export Plug-In . SVG Version: 6.00 Build 0)  -->
<!DOCTYPE svg PUBLIC "-//W3C//DTD SVG 1.1//EN" "http://www.w3.org/Graphics/SVG/1.1/DTD/svg11.dtd">
<svg version="1.1" id="Layer_1" xmlns="http://www.w3.org/2000/svg" xmlns:xlink="http://www.w3.org/1999/xlink" x="0px" y="0px"
	 viewBox="0 0 259.8 390.6" enable-background="new 0 0 259.8 390.6" xml:space="preserve">
<g>
	<path fill="#000000" d="M16.5,15.2v57.6h7.6v11.6H12.7V72.8H5V15.2h7.6V3.6h11.5v11.6H16.5z"/>
	<path fill="#000000" d="M47.4,34h7.7v11.6h-7.7V34z M70.4,84H58.9V34h11.5V84z"/>
	<path fill="#000000" d="M117,24.7H97.8V13.2H117V24.7z M132.3,63.1H97.8V40.1h11.5v11.5h23.1V63.1z M113.1,36.2h7.7V17h11.5v23.1
		h-19.2V36.2z"/>
	<path fill="#000000" d="M194.8,58.4h-23.1V46.9h23.1V27.7h11.5v50h-11.5V58.4z M190.9,39.2h-19.2V27.7h19.2V39.2z M190.9,77.6
		h-19.2V66.1h19.2V77.6z"/>
	<path fill="#000000" d="M248.3,11.6h7.6v57.6h-7.6v11.6h-11.5V69.2h7.6V11.6h-7.6V0h11.5V11.6z"/>
	<path fill="#000000" d="M0,104.9h19.2v11.6h-7.7v57.6h7.7v11.6H0V104.9z"/>
	<path fill="#000000" d="M51.2,154.9h7.7v11.6H39.7v-50h11.5V154.9z M74.2,174.1H62.7v-30.8h11.5V174.1z"/>
	<path fill="#000000" d="M132,100.4v11.6h-30.8v3.9h-3.8v-15.4h3.8H132z M132,119.6v30.8h-11.5v-19.2H97.4v-11.6h23.1H132z
		 M116.6,150.4H97.4v-11.6h19.2V150.4z"/>
	<path fill="#000000" d="M171.3,162.1h-11.5v-34.6H183v7.7h-11.6V162.1z M159.8,177.6V166H183v-11.5h-7.7v-7.7h19.2v30.8H159.8z"/>
	<path fill="#000000" d="M219,115.5h19.2v80.7H219v-11.6h7.7v-57.6H219V115.5z"/>
	<path fill="#000000" d="M20.3,243.4V301h7.6v11.6H8.8V278H1.2v-11.6h7.6v-34.6h19.1v11.6H20.3z"/>
	<path fill="#000000" d="M79,239.3v11.6H48.3v-11.6H56H79z M56.1,266.2h11.5v23.1H56.1v-11.5V266.2z M67.6,254.6H79v11.6H67.6V254.6
		z"/>
	<path fill="#000000" d="M142,236.9h-10.7v3.6h-3.6v7.1h-7.1v7.1h3.6v10.7h-14.3V244h10.7v-3.6h3.6v-7.1h7.1v-7.1h-3.6v-10.7H142
		V236.9z M120.5,226.1v14.3h-10.7v-25h14.3v10.7H120.5z M127.7,254.7h3.6v10.7h-3.6V254.7z M142,240.4v25h-10.7v-25H142z"/>
	<path fill="#000000" d="M202.6,240.4V252h-23.1v11.5h7.7v7.7h-19.2v-30.8H202.6z M191.1,255.8h11.5v34.6h-15.3v-3.9h3.9V255.8z"/>
	<path fill="#000000" d="M252.1,266.5h7.6V278h-7.6v34.6h-19.2V301h7.7v-57.6h-7.7v-11.6h19.2v11.5V266.5z"/>
	<path fill="#000000" d="M38.8,375.3h7.7v15.3h-7.7V375.3z M46.5,359.9h7.6v15.4h-7.6V359.9z M54.1,344.5h7.7v15.3h-7.7V344.5z
		 M61.9,329.2h7.7v15.3h-7.7V329.2z"/>
	<path fill="#000000" d="M117.1,358.9h3.9v11.6h-15.3v-50H121v11.6h-3.9V358.9z M124.8,351.3H121v-11.6h3.9V351.3z M140.2,320.5v50
		h-15.3v-11.6h3.9v-26.8h-3.9v-11.6H140.2z"/>
	<path fill="#000000" d="M173,368.2h7.7v15.3H173V368.2z M180.7,352.7h7.6v15.4h-7.6V352.7z M188.4,337.4h7.7v15.3h-7.7V337.4z
		 M196.1,322h7.7v15.3h-7.7V322z"/>
</g>
</svg>
