<?xml version="1.0" encoding="utf-8"?>
<!-- Generator: Adobe Illustrator 18.0.0, SVG Export Plug-In . SVG Version: 6.00 Build 0)  -->
<!DOCTYPE svg PUBLIC "-//W3C//DTD SVG 1.1//EN" "http://www.w3.org/Graphics/SVG/1.1/DTD/svg11.dtd">
<svg version="1.1" id="Layer_1" xmlns="http://www.w3.org/2000/svg" xmlns:xlink="http://www.w3.org/1999/xlink" x="0px" y="0px"
	 viewBox="543.1 -227 339.6 183.9" enable-background="new 543.1 -227 339.6 183.9" xml:space="preserve">
<g>
	<path d="M615.9-152h-11.3V-201h11.3v18.8h11.3v11.3h-11.3V-152z M630.9-189.7h-11.3V-201h22.5v48.9h-11.3V-189.7z"/>
	<path d="M664.4-178.4v-7.5h-3.8v33.8h-11.3V-201h18.8v22.6H664.4z M675.7-201H687v48.9h-18.8v-22.6h3.8v7.6h3.8V-201z"/>
	<path d="M712.7-201v11.3h-7.5v26.3h7.5v11.3H694V-201H712.7z M716.6-152v-11.3h7.6v-26.3h-7.6V-201h18.8v48.9H716.6z"/>
	<path d="M742.4-201h11.3v48.9h-11.3V-201z M757.5-152v-11.3h11.3v-26.3h-11.3V-201h11.3v11.3H780v37.6H757.5z"/>
	<path d="M798.4-152h-11.3V-201h11.3V-152z M802.2-201h18.9v11.3h-18.9V-201z M817.3-170.9h-15.1v-11.3h15.1V-170.9z M802.2-163.4
		h18.9v11.3h-18.9V-163.4z"/>
	<g>
		<path d="M874.6-219v167.9H551.1V-219H874.6 M882.6-227H543.1v183.9h339.6V-227L882.6-227z"/>
	</g>
	<path d="M574.3-63.1h-11.3v-48.9h11.3V-63.1z M600.7-100.7h-22.6v-11.3h22.6V-100.7z M578.1-63.1v-11.3h22.6v11.3H578.1z
		 M619.2-63.1H608v-48.9h11.3v18.8h11.3v11.3h-11.3V-63.1z M634.3-100.7H623v-11.3h22.5v48.9h-11.3V-100.7z M651.3-112.1h33.8v11.3
		h-33.8V-112.1z M673.8-63.1h-11.3v-33.8h11.3V-63.1z M702.1-63.1h-11.3v-48.9h11.3v18.8h11.3v11.3h-11.3V-63.1z M728.4-63.1h-11.3
		v-48.9h11.3V-63.1z M754.2-112.1v11.3h-7.5v26.3h7.5v11.3h-18.7v-48.9H754.2z M758.1-63.1v-11.3h7.6v-26.3h-7.6v-11.3h18.8v48.9
		H758.1z M784-112.1h11.3v48.9H784V-112.1z M799-63.1v-11.3h11.3v-26.3H799v-11.3h11.3v11.3h11.3v37.6H799z M840-63.1h-11.3v-48.9
		H840V-63.1z M843.8-112.1h18.9v11.3h-18.9V-112.1z M858.9-81.9h-15.1v-11.3h15.1V-81.9z M843.8-74.4h18.9v11.3h-18.9V-74.4z
		 M882.6-135.1H543.1v92h339.6V-135.1z"/>
</g>
</svg>
