<?xml version="1.0" encoding="utf-8"?>
<!-- Generator: Adobe Illustrator 18.0.0, SVG Export Plug-In . SVG Version: 6.00 Build 0)  -->
<!DOCTYPE svg PUBLIC "-//W3C//DTD SVG 1.1//EN" "http://www.w3.org/Graphics/SVG/1.1/DTD/svg11.dtd">
<svg version="1.1" id="Layer_1" xmlns="http://www.w3.org/2000/svg" xmlns:xlink="http://www.w3.org/1999/xlink" x="0px" y="0px"
	 viewBox="0 0 260.8 70" enable-background="new 0 0 260.8 70" xml:space="preserve">
<rect y="0.3" fill="#FFFFFF" width="260.8" height="70"/>
<path d="M42.8,26.2v44H21.3v-44H42.8z"/>
<g>
	<polygon points="137,3.3 170,52.7 201.1,3.3 	"/>
</g>
<rect x="88.1" y="28.9" width="31.7" height="16.5"/>
<path d="M213.4,51.7c0.7-1.6,1.7-3,2.9-4.2s2.6-2.2,4.2-2.8c1.6-0.7,3.4-1.1,5.1-1.1c1.8,0,3.5,0.4,5.2,1.1c1.6,0.7,3.1,1.6,4.2,2.8
	s2.1,2.6,2.8,4.2c0.7,1.6,1.1,3.3,1.1,5.2c0,1.8-0.3,3.5-1.1,5.1c-0.7,1.6-1.6,3-2.8,4.2s-2.6,2.2-4.2,2.9c-1.6,0.7-3.4,1-5.2,1
	c-1.8,0-3.5-0.4-5.1-1c-1.6-0.7-3.1-1.7-4.2-2.9s-2.1-2.6-2.9-4.2c-0.7-1.6-1-3.3-1-5.1C212.4,55.1,212.7,53.4,213.4,51.7z"/>
<rect x="77.1" y="3.6" width="21.8" height="66.7"/>
</svg>
