<?xml version="1.0" encoding="utf-8"?>
<!-- Generator: Adobe Illustrator 18.0.0, SVG Export Plug-In . SVG Version: 6.00 Build 0)  -->
<!DOCTYPE svg PUBLIC "-//W3C//DTD SVG 1.1//EN" "http://www.w3.org/Graphics/SVG/1.1/DTD/svg11.dtd">
<svg version="1.1" id="Layer_1" xmlns="http://www.w3.org/2000/svg" xmlns:xlink="http://www.w3.org/1999/xlink" x="0px" y="0px"
	 viewBox="0 0 695.9 800" enable-background="new 0 0 695.9 800" xml:space="preserve">
<g>
	<g>
		<rect x="302.6" width="391.6" height="172.8"/>
		<rect x="302.6" y="259.7" width="391.6" height="172.8"/>
		<rect x="0" width="221.5" height="172.8"/>
		<rect x="0" y="259.7" width="221.5" height="172.8"/>
	</g>
	<g>
		<g>
			<path d="M45.1,461.8c2.9,2,5.2,4.4,6.9,7.4c1.6,2.7,2.9,5.6,3.8,8.8c0.9,3.2,1.4,6.4,1.6,9.7c0.2,3.3,0.1,6.5-0.3,9.7
				c-0.4,3.2-1.1,6.1-2.1,8.8c-0.9,2.4-1.9,4.6-3.2,6.7c-1.3,2.1-3,4-5.1,5.6c-1.5,1.4-3.6,2.5-6.4,3.1c-0.3,0.1-1.6,0.4-3.7,0.9
				c-2.1,0.5-4.7,0.7-7.7,0.7H0v-24.2v-37.7v-3.5h22.8c2,0,3.9,0,5.7,0c1.9,0,3.7,0.1,5.6,0.3c1.9,0.2,3.7,0.6,5.5,1.2
				C41.5,459.8,43.3,460.6,45.1,461.8z M26.9,505.1c1.6,0,3-0.5,4.1-1.6c1.1-1,2-2.3,2.6-3.9c0.7-1.5,1.1-3.2,1.4-5
				c0.3-1.8,0.4-3.4,0.4-4.8c0-1.4-0.2-3-0.5-4.6c-0.4-1.6-0.9-3.1-1.7-4.5c-0.8-1.4-1.7-2.5-2.7-3.4c-1-0.9-2.3-1.3-3.6-1.3h-5.2
				v29h4.1H26H26.9z"/>
			<path d="M64.6,457.6h47.7v19.1H86v5.7h20.5v16.2H86v5.9h26.3V523H64.6v-14.5v-50.1V457.6z"/>
			<path d="M118.5,457.7h52.7v19.1h-15.8v46.3h-21.1v-46.3h-15.8V457.7z"/>
			<path d="M175.3,457.7H228v19.1h-15.8v46.3h-21.1v-46.3h-15.8V457.7z"/>
			<path d="M269.8,457.6h17.1V523h-21.1l-0.1-15.5h-9.9l-0.1,15.5h-21.5v-65.4h17.1H269.8z M265.7,492.5l-0.1-15.8H256l-0.2,15.8
				H265.7z"/>
			<path d="M381.3,457.6l22,65.4h-21.7l-2.5-10.2H362l-2.5,10.2h-21.9l21-65.4H381.3z M375.2,497.9l-3.4-13.4l-1.4-5
				c0-0.1-0.1-0.2-0.4-0.2c-0.3,0-0.4,0.1-0.5,0.2l-0.7,4.4l-0.9,3.5l-2.7,10.5H375.2z"/>
			<path d="M409.2,457.6h47.7v19.1h-26.3v5.7h20.5v16.2h-20.5v5.9h26.3V523h-47.7v-14.5v-50.1V457.6z"/>
			<path d="M517.7,479.5c0,3.5-0.5,6.6-1.6,9.5c-1,2.9-2.5,5.3-4.4,7.4l9.2,26.7h-20.7l-7-20.8h-7V523H465v-65.4h35.3v0.1
				c2.4,0.2,4.6,1,6.7,2.3c2.1,1.3,4,3,5.5,5.1c1.6,2,2.8,4.3,3.7,6.8C517.2,474.4,517.7,476.9,517.7,479.5z M486.4,488.6h5.6
				c1.1-0.3,2-1,2.6-2.2c0.6-1.2,0.9-2.4,0.9-3.5c0-0.6-0.1-1.2-0.2-1.9c-0.2-0.7-0.4-1.3-0.7-2c-0.3-0.6-0.7-1.1-1.1-1.6
				c-0.5-0.4-0.9-0.6-1.5-0.6h-5.6V488.6z"/>
			<path d="M572.4,457.6H620v19.1h-26.3v5.7h20.5v16.2h-20.5v5.9H620V523h-47.7v-14.5v-50.1V457.6z"/>
			<path d="M672.8,457.6h21.1V523h-0.4h-20.7l-23.7-34.6V523h-20.9v-65.4h20.9l23.7,35.2V457.6z"/>
		</g>
		<path d="M60.2,537.1h31v35.2H51.6h-3.1h-9.2l-0.2,13.2h52.1v27.4v44.7H79.2H51.9H0v-34.4h51.9v-10.3h-13H24.2H0v-75.7h31.4H60.2z"
			/>
		<path d="M180.5,537.1h41.1l-25.4,120.3h-28.1h-12.4h-27.2l-24.5-120.3h39.9l18.4,89.6L180.5,537.1z"/>
		<path d="M234.3,537.1h87.6v35.2h-48.3v10.5h37.7v29.8h-37.7v10.8h48.3v34.1h-87.6v-26.7v-92.1V537.1z"/>
		<path d="M419.4,537.1h38.8v120.3h-0.7h-38l-43.6-63.7v63.7h-38.4V537.1h38.4l43.6,64.7V537.1z"/>
		<path d="M533.7,537.1h31v35.2h-39.7H522h-9.2l-0.2,13.2h52.1v27.4v44.7h-12.1h-27.2h-51.9v-34.4h51.9v-10.3h-13h-14.8h-24.2v-75.7
			h31.4H533.7z"/>
		<path d="M695.9,537.1L661.1,580l33.2,77.4h-37.3l-21.5-47.6L618.9,629v28.3h-38.8V537.1h38.8v41.7l34.6-41.7H695.9z"/>
		<path d="M0.5,671.7h92.8v34.8H41.4v16.3h44.2v29.8H41.4v47.2H0.5V673.3V671.7z"/>
		<path d="M148.9,763.5h63.4V800h-63.4H107V671.9h41.9V763.5z"/>
		<path d="M294.5,671.7H328v128.1h-41.3l-0.2-30.3h-19.4l-0.2,30.3h-42.1V671.7h33.4H294.5z M286.5,740.1l-0.2-30.9h-18.8l-0.4,30.9
			H286.5z"/>
		<path d="M409.7,737.8H451V800h-12.8h-91.1v-0.2V671.7h0.2h41.1h49.7v37.8h-49.7v53.8h21.3V737.8z"/>
		<path d="M531.5,737.8h41.3V800H560h-91.1v-0.2V671.7h0.2h41.1h49.7v37.8h-49.7v53.8h21.3V737.8z"/>
		<path d="M660.5,671.7h33.4v128.1h-41.3l-0.2-30.3H633l-0.2,30.3h-42.1V671.7h33.4H660.5z M652.4,740.1l-0.2-30.9h-18.8l-0.4,30.9
			H652.4z"/>
	</g>
</g>
</svg>
