<?xml version="1.0" encoding="utf-8"?>
<!-- Generator: Adobe Illustrator 18.0.0, SVG Export Plug-In . SVG Version: 6.00 Build 0)  -->
<!DOCTYPE svg PUBLIC "-//W3C//DTD SVG 1.1//EN" "http://www.w3.org/Graphics/SVG/1.1/DTD/svg11.dtd">
<svg version="1.1" id="Layer_1" xmlns="http://www.w3.org/2000/svg" xmlns:xlink="http://www.w3.org/1999/xlink" x="0px" y="0px"
	 viewBox="0 0 1846.1 800" enable-background="new 0 0 1846.1 800" xml:space="preserve">
<g>
	<path d="M47.6,98.4h68.8v38.9H2.9v-30.5V0h44.7V98.4z"/>
	<path d="M197.1,0H233v137.3h-44.3l-0.2-32.5h-20.8l-0.2,32.5h-45.1V0h35.8H197.1z M188.5,73.3l-0.2-33.2h-20.2l-0.4,33.2H188.5z"/>
	<path d="M314.7,0h35.4v40.2h-45.3h-3.5h-10.5l-0.2,15h59.5v31.3v51.1h-13.8h-31.1h-59.3V98.2h59.3V86.5h-14.8h-16.9h-27.6V0h35.8
		H314.7z"/>
	<path d="M431.9,0h35.4v40.2H422h-3.5H408l-0.2,15h59.5v31.3v51.1h-13.8h-31.1h-59.3V98.2h59.3V86.5h-14.8h-16.9h-27.6V0h35.8H431.9
		z"/>
	<path d="M480.3,0h100.1v40.2h-55.2v11.9h43v34h-43v12.4h55.2v38.9H480.3v-30.5V1.6V0z"/>
	<path d="M725.3,0H770v137.3h-44.7V84.6h-38.5v52.7h-43.7V0H687l-0.2,52.7h38.5V0z"/>
	<path d="M857.7,0h35.8v137.3h-44.3l-0.2-32.5h-20.8l-0.2,32.5H783V0h35.8H857.7z M849.1,73.3l-0.2-33.2h-20.2l-0.4,33.2H849.1z"/>
	<path d="M951.4,98.4h68v39.1h-68h-44.9V0.2h44.9V98.4z"/>
	<path d="M1070.2,98.4h68v39.1h-68h-44.9V0.2h44.9V98.4z"/>
	<path d="M1212.9,0h35.4v40.2H1203h-3.5H1189l-0.2,15h59.5v31.3v51.1h-13.8h-31.1h-59.3V98.2h59.3V86.5h-14.8h-16.9h-27.6V0h35.8
		H1212.9z"/>
	<path d="M1257.2,0.2h110.6v40.2h-33.2v97.2h-44.3V40.4h-33.2V0.2z"/>
	<path d="M1487.2,45.9c0,7.3-1.1,13.9-3.3,20c-2.2,6-5.3,11.2-9.3,15.4l19.4,56h-43.4l-14.6-43.7h-14.6v43.7h-44.7V0h74.1v0.2
		c4.9,0.4,9.6,2,14.1,4.8c4.5,2.8,8.3,6.4,11.6,10.6c3.3,4.3,5.9,9,7.8,14.3C1486.2,35.2,1487.2,40.6,1487.2,45.9z M1421.5,65.1
		h11.7c2.3-0.5,4.2-2.1,5.5-4.5c1.3-2.5,2-4.9,2-7.4c0-1.2-0.2-2.6-0.5-4c-0.3-1.4-0.8-2.8-1.4-4.1c-0.6-1.3-1.4-2.4-2.4-3.3
		c-1-0.9-2-1.3-3.1-1.3h-11.7V65.1z"/>
	<path d="M1546.5,0v32.7h-44.3V0H1546.5z M1506.5,80.1c0-8.4,1.6-16.3,4.7-23.7c3.2-7.4,7.5-13.9,13-19.4c5.5-5.5,11.9-9.8,19.4-13
		c7.4-3.2,15.3-4.7,23.7-4.7c8.4,0,16.3,1.6,23.7,4.7c7.4,3.2,13.9,7.5,19.4,13c5.5,5.5,9.8,11.9,13,19.4c3.2,7.4,4.7,15.3,4.7,23.7
		c0,8.4-1.6,16.3-4.7,23.7c-3.2,7.4-7.5,13.9-13,19.4c-5.5,5.5-11.9,9.8-19.4,13c-7.4,3.2-15.3,4.7-23.7,4.7
		c-8.4,0-16.3-1.6-23.7-4.7s-13.9-7.5-19.4-13c-5.5-5.5-9.8-11.9-13-19.4C1508.1,96.4,1506.5,88.5,1506.5,80.1z M1548.8,80.5
		c0,5.2,1.8,9.6,5.4,13.2c3.6,3.6,8,5.4,13.2,5.4c5.2,0,9.6-1.8,13.3-5.4c3.6-3.6,5.5-8,5.5-13.2c0-5.2-1.8-9.6-5.5-13.3
		c-3.6-3.6-8.1-5.5-13.3-5.5c-5.2,0-9.6,1.8-13.2,5.5C1550.5,70.9,1548.8,75.3,1548.8,80.5z M1634.4,0v32.7h-44.3V0H1634.4z"/>
	<path d="M1792.4,0h14.4v137.3h-44.7V47.8l-35,52.5l-37.9-54.6v91.6h-44.3V0h14.6h29.7h72.9H1792.4z"/>
	<path d="M66,263.2h18.1v38.9H2.7v-38.9h18.9v-58.3H4.4v-40.2H82v40.2H66V263.2z"/>
	<path d="M190.3,164.7h44.3v137.3h-0.8h-43.4l-49.8-72.7v72.7H96.6V164.7h43.9l49.8,73.9V164.7z"/>
	<path d="M314.7,235.6H359v66.7h-13.8h-97.6v-0.2V164.7h0.2h44.1h53.3v40.6h-53.3V263h22.9V235.6z"/>
	<path d="M518.1,164.7h14.4v137.3h-44.7v-89.6l-35,52.5L415,210.5v91.6h-44.3V164.7h14.6H415h72.9H518.1z"/>
	<path d="M620.3,164.7h35.8v137.3h-44.3l-0.2-32.5h-20.8l-0.2,32.5h-45.1V164.7h35.8H620.3z M611.6,238l-0.2-33.2h-20.2l-0.4,33.2
		H611.6z"/>
	<path d="M779.7,210.7c0,7.3-1.1,13.9-3.3,20c-2.2,6-5.3,11.2-9.3,15.4l19.4,56H743l-14.6-43.7h-14.6v43.7h-44.7V164.7h74.1v0.2
		c4.9,0.4,9.6,2,14.1,4.8c4.5,2.8,8.3,6.4,11.6,10.6c3.3,4.3,5.9,9,7.8,14.3C778.7,200,779.7,205.3,779.7,210.7z M714,229.8h11.7
		c2.3-0.5,4.2-2.1,5.5-4.5c1.3-2.5,2-4.9,2-7.4c0-1.2-0.2-2.6-0.5-4c-0.3-1.4-0.8-2.8-1.4-4.1c-0.6-1.3-1.4-2.4-2.4-3.3
		c-1-0.9-2-1.3-3.1-1.3H714V229.8z"/>
	<path d="M939.9,225.7c4.9,4.3,8.9,9.4,11.8,15.3c3,6,4.4,12,4.4,18.2c0,4.8-0.9,9.7-2.8,14.6c-1.9,4.9-4.4,9.4-7.6,13.5
		c-3.2,4.1-7,7.4-11.3,10.2c-4.3,2.7-9,4.3-14.1,4.5h-39.1h-34.6V172.1v-7.4h67.3v0.2c5.6,0,10.5,1,14.6,3c4.1,2,7.5,4.7,10.2,8
		c2.7,3.4,4.6,7.3,5.9,11.9c1.2,4.6,1.9,9.6,1.9,14.9c0,4.4-0.6,8.5-1.8,12.4C943.5,219,941.9,222.5,939.9,225.7z M909.4,210.7
		c0-2.5-0.7-5.1-2-7.8c-1.3-2.7-3.1-4.1-5.3-4.1h-12.8v23.1h12.8c2.1-0.1,3.8-1.4,5.1-3.7C908.7,215.7,909.4,213.3,909.4,210.7z
		 M903.4,269.1c2.2,0,3.9-1.3,5.1-3.9c1.2-2.6,1.9-5.2,1.9-7.8c0-1.4-0.2-2.8-0.5-4.3c-0.3-1.5-0.8-2.9-1.4-4.1
		c-0.6-1.2-1.3-2.3-2.2-3.1c-0.8-0.8-1.8-1.2-2.9-1.2h-14v24.5H903.4z"/>
	<path d="M966.4,164.7h100.1v40.2h-55.2v11.9h43v34h-43v12.4h55.2v38.9H966.4v-30.5V166.4V164.7z"/>
	<path d="M1190.1,210.7c0,7.3-1.1,13.9-3.3,20c-2.2,6-5.3,11.2-9.3,15.4l19.4,56h-43.4l-14.6-43.7h-14.6v43.7h-44.7V164.7h74.1v0.2
		c4.9,0.4,9.6,2,14.1,4.8c4.5,2.8,8.3,6.4,11.6,10.6c3.3,4.3,5.9,9,7.8,14.3C1189.1,200,1190.1,205.3,1190.1,210.7z M1124.4,229.8
		h11.7c2.3-0.5,4.2-2.1,5.5-4.5c1.3-2.5,2-4.9,2-7.4c0-1.2-0.2-2.6-0.5-4c-0.3-1.4-0.8-2.8-1.4-4.1c-0.6-1.3-1.4-2.4-2.4-3.3
		c-1-0.9-2-1.3-3.1-1.3h-11.7V229.8z"/>
	<path d="M1274.3,235.6h44.3v66.7h-13.8h-97.6v-0.2V164.7h0.2h44.1h53.3v40.6h-53.3V263h22.9V235.6z"/>
	<path d="M1477.7,164.7h14.4v137.3h-44.7v-89.6l-35,52.5l-37.9-54.6v91.6h-44.3V164.7h14.6h29.7h72.9H1477.7z"/>
	<path d="M1579.9,164.7h35.8v137.3h-44.3l-0.2-32.5h-20.8l-0.2,32.5h-45.1V164.7h35.8H1579.9z M1571.2,238l-0.2-33.2h-20.2
		l-0.4,33.2H1571.2z"/>
	<path d="M1722.4,164.7h44.3v137.3h-0.8h-43.4l-49.8-72.7v72.7h-43.9V164.7h43.9l49.8,73.9V164.7z"/>
	<path d="M145.6,329.5h5.8v137.3h-43.9v-76.4l-29,43.7l-30.7-45.7v78.5H2.9V329.5h5.4h39.5H48l29.7,45.9l29.2-45.9h0.6H145.6z"/>
	<path d="M227.4,427.9h18.1v38.9h-81.3v-38.9h18.9v-58.3h-17.3v-40.2h77.6v40.2h-16.1V427.9z"/>
	<path d="M390.3,329.5l-39.7,49l37.9,88.3h-42.6l-24.5-54.4l-18.9,22v32.3h-44.3V329.5h44.3V377l39.5-47.6H390.3z"/>
	<path d="M476.3,329.5h35.8v137.3h-44.3l-0.2-32.5h-20.8l-0.2,32.5h-45.1V329.5h35.8H476.3z M467.7,402.8l-0.2-33.2h-20.2l-0.4,33.2
		H467.7z"/>
	<path d="M525.1,329.5h100.1v40.2H570v11.9h43v34h-43v12.4h55.2v38.9H525.1v-30.5V331.1V329.5z"/>
	<path d="M683.1,427.9h68V467h-68h-44.9V329.7h44.9V427.9z"/>
	<path d="M889,329.5h44.7v137.3H889v-52.7h-38.5v52.7h-43.7V329.5h43.9l-0.2,52.7H889V329.5z"/>
	<path d="M1034.2,329.5l46.1,137.3h-45.5l-5.4-21.4h-35.8l-5.4,21.4h-45.9l44.1-137.3H1034.2z M1021.4,414.1l-7.2-28.2l-2.9-10.5
		c0-0.3-0.3-0.4-0.8-0.4c-0.6,0-0.9,0.1-1,0.4l-1.4,9.3l-1.9,7.4l-5.8,22H1021.4z"/>
	<path d="M1088.7,329.5h99.5v37.3h-55.6v17.5h47.4v31.9h-47.4v50.7h-43.9V331.1V329.5z"/>
	<path d="M1264.2,329.5h35.4v40.2h-45.3h-3.5h-10.5l-0.2,15h59.5V416V467h-13.8h-31.1h-59.3v-39.3h59.3V416h-14.8H1223h-27.6v-86.5
		h35.8H1264.2z"/>
	<path d="M1308.5,329.7H1419v40.2h-33.2V467h-44.3v-97.2h-33.2V329.7z"/>
	<path d="M1538.5,375.4c0,7.3-1.1,13.9-3.3,20c-2.2,6-5.3,11.2-9.3,15.4l19.4,56h-43.4l-14.6-43.7h-14.6v43.7h-44.7V329.5h74.1v0.2
		c4.9,0.4,9.6,2,14.1,4.8c4.5,2.8,8.3,6.4,11.6,10.6c3.3,4.3,5.9,9,7.8,14.3C1537.5,364.7,1538.5,370,1538.5,375.4z M1472.8,394.5
		h11.7c2.3-0.5,4.2-2.1,5.5-4.5c1.3-2.5,2-4.9,2-7.4c0-1.2-0.2-2.6-0.5-4c-0.3-1.4-0.8-2.8-1.4-4.1c-0.6-1.3-1.4-2.4-2.4-3.3
		c-1-0.9-2-1.3-3.1-1.3h-11.7V394.5z"/>
	<path d="M1585.4,329.5v32.7h-44.3v-32.7H1585.4z M1545.5,409.6c0-8.4,1.6-16.3,4.7-23.7c3.2-7.4,7.5-13.9,13-19.4
		c5.5-5.5,11.9-9.8,19.4-13c7.4-3.2,15.3-4.7,23.7-4.7c8.4,0,16.3,1.6,23.7,4.7c7.4,3.2,13.9,7.5,19.4,13c5.5,5.5,9.8,11.9,13,19.4
		c3.2,7.4,4.7,15.3,4.7,23.7c0,8.4-1.6,16.3-4.7,23.7c-3.2,7.4-7.5,13.9-13,19.4c-5.5,5.5-11.9,9.8-19.4,13
		c-7.4,3.2-15.3,4.7-23.7,4.7c-8.4,0-16.3-1.6-23.7-4.7s-13.9-7.5-19.4-13c-5.5-5.5-9.8-11.9-13-19.4
		C1547,425.8,1545.5,418,1545.5,409.6z M1587.7,410c0,5.2,1.8,9.6,5.4,13.2c3.6,3.6,8,5.4,13.2,5.4c5.2,0,9.6-1.8,13.3-5.4
		c3.6-3.6,5.5-8,5.5-13.2c0-5.2-1.8-9.6-5.5-13.3c-3.6-3.6-8.1-5.5-13.3-5.5c-5.2,0-9.6,1.8-13.2,5.5
		C1589.5,400.3,1587.7,404.8,1587.7,410z M1673.3,329.5v32.7h-44.3v-32.7H1673.3z"/>
	<path d="M1831.3,329.5h14.4v137.3H1801v-89.6l-35,52.5l-37.9-54.6v91.6h-44.3V329.5h14.6h29.7h72.9H1831.3z"/>
	<path d="M70.1,593.5c7,0,13.2-2.1,18.5-6.2l34.8,22.7c-6.5,8-14.3,14-23.5,18.1c-9.2,4.1-19.2,6.2-29.9,6.2
		c-9.9,0-19.1-1.8-27.6-5.5c-8.5-3.6-16-8.6-22.3-14.9c-6.4-6.3-11.4-13.8-15-22.4c-3.6-8.6-5.5-17.9-5.5-27.8
		c0-10.2,1.8-19.7,5.5-28.5c3.6-8.9,8.6-16.5,15-23.1c6.4-6.5,13.8-11.6,22.3-15.3c8.5-3.7,17.7-5.6,27.6-5.6
		c10.4,0,20.1,2.1,29,6.2c8.9,4.1,16.6,9.9,23.1,17.3l-29.2,29.7c-2.7-3.4-6.1-6.1-10-7.9s-8.2-2.8-12.9-2.8
		c-4.1,0-8.1,0.8-11.8,2.4c-3.8,1.6-7.1,3.7-9.9,6.4c-2.8,2.7-5,5.9-6.7,9.6c-1.6,3.7-2.5,7.6-2.5,11.7c0,4.3,0.8,8.2,2.5,11.8
		c1.6,3.6,3.9,6.8,6.7,9.5c2.8,2.7,6.1,4.8,9.9,6.3C62,592.7,66,593.5,70.1,593.5z"/>
	<path d="M200,491.1c9.5,0,18.4,1.9,26.9,5.6c8.4,3.7,15.8,8.8,22.1,15.3c6.3,6.5,11.3,14.2,14.9,23.1c3.6,8.9,5.5,18.4,5.5,28.5
		c0,9.9-1.8,19.2-5.5,27.9c-3.6,8.7-8.6,16.3-14.9,22.8c-6.3,6.5-13.7,11.5-22.1,15.2c-8.4,3.7-17.4,5.6-26.9,5.6
		c-9.6,0-18.7-1.9-27.2-5.6c-8.5-3.7-15.9-8.8-22.2-15.2c-6.3-6.5-11.3-14-14.9-22.8c-3.6-8.7-5.5-18-5.5-27.9
		c0-10.2,1.8-19.7,5.5-28.5c3.6-8.9,8.6-16.5,14.9-23.1c6.3-6.5,13.7-11.6,22.2-15.3C181.3,493,190.4,491.1,200,491.1z M200,593.5
		c4.1,0,8-0.8,11.5-2.3c3.6-1.5,6.7-3.6,9.5-6.3c2.7-2.7,4.9-5.8,6.5-9.5c1.6-3.6,2.4-7.6,2.4-11.8c0-4.1-0.8-8-2.4-11.7
		c-1.6-3.7-3.7-6.9-6.5-9.6c-2.7-2.7-5.9-4.8-9.5-6.4c-3.6-1.6-7.4-2.4-11.5-2.4c-4.1,0-8,0.8-11.7,2.4c-3.7,1.6-6.9,3.7-9.7,6.4
		c-2.7,2.7-4.9,5.9-6.5,9.6c-1.6,3.7-2.4,7.6-2.4,11.7c0,4.3,0.8,8.2,2.4,11.8c1.6,3.6,3.7,6.8,6.5,9.5c2.7,2.7,6,4.8,9.7,6.3
		C192,592.7,195.9,593.5,200,593.5z"/>
	<path d="M324.4,592.6h68v39.1h-68h-44.9V494.4h44.9V592.6z"/>
	<path d="M461.3,592.6h18.1v38.9h-81.3v-38.9H417v-58.3h-17.3v-40.2h77.6v40.2h-16.1V592.6z"/>
	<path d="M585.7,494.2H630v137.3h-0.8h-43.4l-49.8-72.7v72.7H492V494.2h43.9l49.8,73.9V494.2z"/>
	<path d="M786.5,494.2h44.3v137.3h-0.8h-43.4l-49.8-72.7v72.7h-43.9V494.2h43.9l49.8,73.9V494.2z"/>
	<path d="M961.3,494.2v98v39.3H916h-28h-44.3v-39.3v-98H888v98h28v-98H961.3z"/>
	<path d="M970.1,494.4h110.6v40.2h-33.2v97.2h-44.3v-97.2h-33.2V494.4z"/>
	<path d="M1134.5,592.6h68v39.1h-68h-44.9V494.4h44.9V592.6z"/>
	<path d="M1208.4,494.2h100.1v40.2h-55.2v11.9h43v34h-43v12.4h55.2v38.9h-100.1v-30.5V495.9V494.2z"/>
	<path d="M1404.4,563v68.6h-44.3v-71.5l-44.1-65.9h132L1404.4,563z"/>
	<path d="M135.1,658.9l-39.7,49l42,88.3H90.7l-24.5-54.4l-18.9,22v32.3H2.9V658.9h44.3v47.6l39.5-47.6H135.1z"/>
	<path d="M259.1,658.9v98v39.3h-44.3h-28h-44.3V757v-30.7h44.3V757h28v-98H259.1z"/>
	<path d="M271.9,658.9h100.1v40.2h-55.2V711h43v34h-43v12.4h55.2v38.9H271.9v-30.5V660.6V658.9z"/>
	<path d="M429.8,757.4h68v39.1h-68h-44.9V659.2h44.9V757.4z"/>
	<path d="M548.6,757.4h68v39.1h-68h-44.9V659.2h44.9V757.4z"/>
	<path d="M712.5,699.9c0,2.7,1.6,4.9,4.9,6.6c3.3,1.6,7.4,3.3,12.5,4.9c5,1.6,10.4,3.4,16.3,5.4c5.8,1.9,11.3,4.6,16.3,8
		c5,3.4,9.2,7.8,12.5,13c3.3,5.2,4.9,11.9,4.9,20c-0.1,12.6-5.1,22.8-15,30.6c-9.9,7.8-23.3,11.6-40.2,11.6
		c-17,0-30.4-4.5-40.3-13.6c-9.8-9.1-14.7-18.6-14.7-28.6c22-3.8,33-5.8,33.2-5.8c0.8,1.9,1.8,3.8,2.8,5.7c1,1.9,2.3,3.5,3.7,4.8
		c1.4,1.4,3.1,2.5,5,3.3c1.9,0.8,4.3,1.2,7.2,1.2c3.2,0,5.6-0.5,7.3-1.4c1.7-1,3-2.1,3.8-3.3c1-1.5,1.5-3.2,1.6-4.9
		c0-2.1-1.6-3.9-4.8-5.6c-3.2-1.6-7.2-3.3-11.9-5c-4.7-1.7-9.9-3.7-15.5-5.9c-5.6-2.2-10.8-5-15.5-8.3c-4.7-3.4-8.7-7.5-11.9-12.4
		c-3.2-4.9-4.8-10.8-4.8-17.8c0-9.1,1.6-16.4,4.8-21.9c3.2-5.6,7.4-10.2,12.6-13.9c5.1-3.7,10.9-6.4,17.2-8.1
		c6.3-1.7,12.8-2.6,19.4-2.6c7,0,13.5,0.9,19.5,2.7c6,1.8,11.5,4.4,16.5,7.9c5,3.5,9,7.9,12,13.2c3,5.3,4.5,11.5,4.5,18.6l-35.2,2.7
		c0-2.1-0.4-3.9-1.3-5.5c-0.9-1.6-2.1-2.8-3.5-3.8c-1.4-1-3.1-1.7-4.8-2.2c-1.8-0.5-3.6-0.7-5.4-0.7c-3.6,0-6.7,1-9.4,3
		C713.9,693.8,712.5,696.5,712.5,699.9z"/>
	<path d="M907.5,658.9v98v39.3h-45.3h-28H790V757v-98h44.3v98h28v-98H907.5z"/>
	<path d="M1014.2,658.9h44.3v137.3h-0.8h-43.4l-49.8-72.7v72.7h-43.9V658.9h43.9l49.8,73.9V658.9z"/>
	<path d="M1166.2,667.8c6,4.1,10.8,9.3,14.4,15.4c3.4,5.6,6.1,11.8,7.9,18.4c1.9,6.7,3,13.4,3.4,20.3c0.4,6.9,0.2,13.6-0.7,20.3
		c-0.9,6.7-2.4,12.8-4.4,18.4c-1.8,4.9-4.1,9.6-6.8,14c-2.7,4.4-6.3,8.3-10.7,11.7c-3.2,3-7.6,5.2-13.4,6.6
		c-0.7,0.3-3.3,0.9-7.7,1.9c-4.5,1-9.9,1.4-16.2,1.4h-60.5v-50.9v-79.1v-7.4h47.8c4.1,0,8.1,0,12,0c3.9,0,7.8,0.2,11.7,0.7
		c3.9,0.5,7.8,1.3,11.6,2.6C1158.5,663.5,1162.3,665.3,1166.2,667.8z M1127.9,758.6c3.4,0,6.3-1.1,8.6-3.3c2.3-2.2,4.2-4.9,5.6-8.1
		c1.4-3.2,2.3-6.7,2.9-10.4c0.5-3.7,0.8-7.1,0.8-10.1c0-3-0.4-6.2-1.1-9.7c-0.8-3.4-1.9-6.6-3.5-9.5c-1.6-2.9-3.5-5.3-5.7-7.1
		c-2.2-1.9-4.7-2.8-7.6-2.8H1117v61h8.6h0.4H1127.9z"/>
	<path d="M1287.5,658.9h46.9l-29,137.3h-32.1H1259h-31.1l-28-137.3h45.5l21,102.3L1287.5,658.9z"/>
	<path d="M1419,658.9h35.8v137.3h-44.3l-0.2-32.5h-20.8l-0.2,32.5h-45.1V658.9h35.8H1419z M1410.4,732.3l-0.2-33.2H1390l-0.4,33.2
		H1410.4z"/>
	<path d="M1512.7,757.4h68v39.1h-68h-44.9V659.2h44.9V757.4z"/>
	<path d="M1631.5,757.4h68v39.1h-68h-44.9V659.2h44.9V757.4z"/>
</g>
</svg>
