<?xml version="1.0" encoding="utf-8"?>
<!-- Generator: Adobe Illustrator 18.0.0, SVG Export Plug-In . SVG Version: 6.00 Build 0)  -->
<!DOCTYPE svg PUBLIC "-//W3C//DTD SVG 1.1//EN" "http://www.w3.org/Graphics/SVG/1.1/DTD/svg11.dtd">
<svg version="1.1" id="Layer_1" xmlns="http://www.w3.org/2000/svg" xmlns:xlink="http://www.w3.org/1999/xlink" x="0px" y="0px"
	 viewBox="0 0 201.5 216.1" enable-background="new 0 0 201.5 216.1" xml:space="preserve">
<g>
	<path d="M57.7,39.5C54.6,36.3,51,33.8,47,32c-4.1-1.8-8.5-2.7-13.1-2.7c-4.7,0-9.1,0.9-13.2,2.7c-4.1,1.8-7.7,4.3-10.8,7.5
		c-3.1,3.2-5.5,6.9-7.2,11.2C0.9,55,0,59.6,0,64.5c0,4.8,0.9,9.3,2.6,13.5c1.8,4.2,4.2,7.9,7.2,11c3.1,3.1,6.7,5.6,10.8,7.4
		c4.1,1.8,8.5,2.7,13.2,2.7c4.6,0,9-0.9,13.1-2.7c4.1-1.8,7.7-4.3,10.8-7.4c3.1-3.1,5.5-6.8,7.2-11c1.8-4.2,2.6-8.8,2.6-13.5
		c0-4.9-0.9-9.5-2.6-13.8C63.2,46.3,60.8,42.6,57.7,39.5z M47.2,70.2c-0.8,1.8-1.8,3.3-3.1,4.6c-1.3,1.3-2.9,2.3-4.6,3.1
		c-1.7,0.7-3.6,1.1-5.6,1.1s-3.9-0.4-5.7-1.1c-1.8-0.7-3.4-1.8-4.7-3.1c-1.3-1.3-2.4-2.8-3.1-4.6c-0.8-1.8-1.1-3.7-1.1-5.8
		c0-2,0.4-3.9,1.1-5.7c0.8-1.8,1.8-3.3,3.1-4.6c1.3-1.3,2.9-2.3,4.7-3.1c1.8-0.8,3.7-1.1,5.7-1.1s3.9,0.4,5.6,1.1
		c1.7,0.8,3.3,1.8,4.6,3.1c1.3,1.3,2.4,2.8,3.1,4.6c0.8,1.8,1.1,3.7,1.1,5.7C48.4,66.6,48,68.5,47.2,70.2z"/>
	<path d="M5.4,22.7c1.2,1.2,2.6,2.1,4.2,2.8c1.6,0.7,3.4,1,5.1,1c1.8,0,3.5-0.3,5.2-1c1.6-0.7,3-1.6,4.2-2.8
		c1.2-1.2,2.1-2.6,2.8-4.2c0.7-1.6,1.1-3.4,1.1-5.2S27.8,9.8,27,8.2c-0.7-1.6-1.6-3.1-2.8-4.2C23,2.7,21.6,1.8,20,1
		c-1.6-0.7-3.4-1-5.2-1C13,0,11.3,0.3,9.6,1C8,1.8,6.6,2.7,5.4,3.9C4.2,5.1,3.2,6.5,2.5,8.2c-0.7,1.6-1,3.3-1,5.1s0.4,3.5,1,5.2
		C3.2,20.1,4.2,21.5,5.4,22.7z"/>
	<path d="M43.1,22.7c1.2,1.2,2.6,2.1,4.2,2.8c1.6,0.7,3.4,1,5.1,1s3.5-0.3,5.1-1c1.6-0.7,3.1-1.6,4.2-2.8c1.2-1.2,2.1-2.6,2.9-4.2
		c0.7-1.6,1-3.4,1-5.2s-0.3-3.5-1-5.1c-0.7-1.6-1.6-3.1-2.9-4.2c-1.2-1.2-2.6-2.2-4.2-2.9c-1.6-0.7-3.4-1-5.1-1S49,0.3,47.4,1
		c-1.6,0.7-3.1,1.7-4.2,2.9c-1.2,1.2-2.1,2.6-2.9,4.2c-0.7,1.6-1,3.3-1,5.1s0.3,3.5,1,5.2C41,20.1,41.9,21.5,43.1,22.7z"/>
	<rect x="82.5" y="59.8" width="39" height="16"/>
	<path d="M201.5,30.8h-22v11.5c-3-1.4-7.1-2.1-11-2.1c-3.5,0-7,0.6-10,1.7V30.8h-21v16h12.7c-0.8,1-1.6,1.3-2.4,2
		c-2.7,2.7-4.8,5.8-6.3,9.4c-1.5,3.6-2.3,7.4-2.3,11.5c0,4.1,0.8,7.9,2.3,11.5c1.5,3.6,3.6,6.7,6.3,9.4c2.7,2.7,5.8,4.8,9.4,6.3
		c3.6,1.5,7.4,2.3,11.5,2.3c4.1,0,7.9-0.8,11.5-2.3c3.6-1.5,6.7-3.6,9.4-6.3c2.7-2.7,4.8-5.8,6.3-9.4c1.5-3.6,2.3-7.4,2.3-11.5
		c0-4.1-0.8-7.9-2.3-11.5c-1.5-3.6-3.6-6.7-6.3-9.4c-0.7-0.7-1.5-1-2.4-2h14.3V30.8z M175.1,76.3c-1.8,1.7-3.9,2.6-6.5,2.6
		c-2.5,0-4.7-0.9-6.4-2.6c-1.7-1.7-2.6-3.9-2.6-6.4c0-2.5,0.9-4.7,2.6-6.5c1.7-1.8,3.9-2.7,6.4-2.7c2.5,0,4.7,0.9,6.5,2.7
		c1.8,1.8,2.6,3.9,2.6,6.5C177.8,72.4,176.9,74.6,175.1,76.3z"/>
	<path d="M60.6,120.9c-1.2-1.2-2.6-2.2-4.2-2.9c-1.6-0.7-3.4-1-5.1-1c-1.8,0-3.5,0.3-5.2,1c-1.6,0.7-3,1.7-4.2,2.9
		c-1.2,1.2-2.1,2.6-2.8,4.2c-0.7,1.6-1.1,3.3-1.1,5.1s0.4,3.5,1.1,5.2c0.7,1.6,1.6,3,2.8,4.2c1.2,1.2,2.6,2.1,4.2,2.8
		c1.6,0.7,3.4,1,5.2,1c1.8,0,3.5-0.3,5.1-1c1.6-0.7,3-1.6,4.2-2.8c1.2-1.2,2.1-2.6,2.9-4.2c0.7-1.6,1-3.4,1-5.2s-0.4-3.5-1-5.1
		C62.8,123.5,61.8,122.1,60.6,120.9z"/>
	<path d="M40.5,187.7c0,0.2-0.2,0.4-0.2,0.6c0,0.2-0.1,0.5-0.1,0.7c-0.1,2.1-1,3.8-2.4,5.2c-1.4,1.4-3.2,2.2-5.4,2.2
		c-2.3,0-4.3-0.8-5.7-2.2c-1.4-1.5-2.2-3.3-2.2-5.5v-40.9h-22v45c0,2.5,0.5,5.1,1.6,7.8c1.1,2.7,2.9,5.2,5.2,7.6
		c2.4,2.3,5.5,4.2,9.3,5.7c3.8,1.5,8.4,2.2,13.7,2.2c5.3,0,9.9-0.8,13.8-2.2c3.8-1.5,7-3.4,9.4-5.7c2.4-2.3,4.2-4.8,5.3-7.6
		c1.1-2.7,1.7-5.3,1.7-7.8v-45h-22V187.7z"/>
	<path d="M8.4,142.5c1.6,0.7,3.4,1,5.1,1s3.5-0.3,5.1-1c1.6-0.7,3.1-1.6,4.2-2.8c1.2-1.2,2.1-2.6,2.9-4.2c0.7-1.6,1-3.4,1-5.2
		s-0.3-3.5-1-5.1c-0.7-1.6-1.6-3.1-2.9-4.2c-1.2-1.2-2.6-2.2-4.2-2.9c-1.6-0.7-3.4-1-5.1-1s-3.5,0.3-5.1,1c-1.6,0.7-3.1,1.7-4.2,2.9
		c-1.2,1.2-2.1,2.6-2.9,4.2c-0.7,1.6-1,3.3-1,5.1s0.3,3.5,1,5.2c0.7,1.6,1.6,3,2.9,4.2C5.3,140.9,6.7,141.8,8.4,142.5z"/>
	<rect x="80.5" y="176.8" width="39" height="16"/>
	<rect x="175.5" y="147.8" width="21" height="16"/>
	<path d="M174.5,187.7c0,0.2-0.2,0.4-0.2,0.6c0,0.2-0.1,0.5-0.1,0.7c-0.1,2.1-1,3.8-2.4,5.2c-1.4,1.4-3.2,2.2-5.4,2.2
		c-2.3,0-4.3-0.8-5.7-2.2s-2.2-3.3-2.2-5.5v-17.9h-22v22c0,2.5,0.5,5.1,1.6,7.8c1.1,2.7,2.8,5.2,5.2,7.6c2.4,2.3,5.5,4.2,9.3,5.7
		c3.8,1.5,8.4,2.2,13.7,2.2c5.3,0,9.9-0.8,13.7-2.2c3.8-1.5,7-3.4,9.4-5.7c2.4-2.3,4.2-4.8,5.3-7.6c1.1-2.7,1.7-5.3,1.7-7.8v-22h-22
		V187.7z"/>
	<rect x="136.5" y="147.8" width="21" height="16"/>
</g>
</svg>
