<?xml version="1.0" encoding="utf-8"?>
<!-- Generator: Adobe Illustrator 18.0.0, SVG Export Plug-In . SVG Version: 6.00 Build 0)  -->
<!DOCTYPE svg PUBLIC "-//W3C//DTD SVG 1.1//EN" "http://www.w3.org/Graphics/SVG/1.1/DTD/svg11.dtd">
<svg version="1.1" id="Layer_1" xmlns="http://www.w3.org/2000/svg" xmlns:xlink="http://www.w3.org/1999/xlink" x="0px" y="0px"
	 viewBox="0 0 1352.3 800" enable-background="new 0 0 1352.3 800" xml:space="preserve">
<g>
	<path d="M53.8,1.8l26.2,78H54.2l-3-12.2H30.8l-3,12.2H1.6l25-78H53.8z M46.6,49.8l-4.1-16l-1.6-6c0-0.2-0.2-0.2-0.5-0.2
		c-0.3,0-0.5,0.1-0.6,0.2L39,33.1l-1.1,4.2l-3.3,12.5H46.6z"/>
	<path d="M169.5,36.4c2.8,2.4,5.1,5.3,6.7,8.7c1.7,3.4,2.5,6.8,2.5,10.4c0,2.7-0.5,5.5-1.6,8.3c-1.1,2.8-2.5,5.4-4.3,7.7
		c-1.8,2.3-4,4.2-6.4,5.8c-2.5,1.6-5.1,2.4-8,2.6h-22.2h-19.7V6V1.8h38.3v0.1c3.2,0,6,0.6,8.3,1.7s4.3,2.7,5.8,4.6
		c1.5,1.9,2.6,4.2,3.3,6.8c0.7,2.6,1.1,5.4,1.1,8.5c0,2.5-0.3,4.8-1,7C171.6,32.6,170.7,34.6,169.5,36.4z M152.2,27.8
		c0-1.4-0.4-2.9-1.1-4.4c-0.7-1.6-1.7-2.3-3-2.3h-7.3v13.1h7.3c1.2-0.1,2.1-0.8,2.9-2.1C151.8,30.7,152.2,29.3,152.2,27.8z
		 M148.8,61.1c1.2,0,2.2-0.7,2.9-2.2c0.7-1.5,1.1-3,1.1-4.4c0-0.8-0.1-1.6-0.3-2.5c-0.2-0.9-0.5-1.6-0.8-2.3
		c-0.4-0.7-0.8-1.3-1.2-1.8c-0.5-0.5-1-0.7-1.6-0.7h-8v13.9H148.8z"/>
	<path d="M254.5,58.1c4,0,7.5-1.2,10.5-3.5l19.8,12.9c-3.7,4.5-8.1,8-13.3,10.3c-5.2,2.3-10.9,3.5-17,3.5c-5.6,0-10.8-1-15.7-3.1
		c-4.8-2.1-9.1-4.9-12.7-8.5c-3.6-3.6-6.5-7.8-8.5-12.8c-2.1-4.9-3.1-10.2-3.1-15.8c0-5.8,1-11.2,3.1-16.2c2.1-5,4.9-9.4,8.5-13.1
		c3.6-3.7,7.9-6.6,12.7-8.7c4.8-2.1,10.1-3.2,15.7-3.2c5.9,0,11.4,1.2,16.5,3.5s9.4,5.6,13.1,9.8l-16.6,16.8c-1.6-2-3.5-3.5-5.7-4.5
		c-2.2-1.1-4.7-1.6-7.3-1.6c-2.3,0-4.6,0.5-6.7,1.3c-2.1,0.9-4,2.1-5.6,3.6c-1.6,1.5-2.9,3.3-3.8,5.4c-0.9,2.1-1.4,4.3-1.4,6.7
		c0,2.4,0.5,4.7,1.4,6.7c0.9,2.1,2.2,3.9,3.8,5.4c1.6,1.5,3.5,2.7,5.6,3.6C249.9,57.7,252.2,58.1,254.5,58.1z"/>
	<path d="M375.8,6.8c3.4,2.3,6.2,5.3,8.2,8.8c2,3.2,3.5,6.7,4.5,10.5c1.1,3.8,1.7,7.6,1.9,11.5c0.2,3.9,0.1,7.7-0.4,11.5
		c-0.5,3.8-1.3,7.3-2.5,10.5c-1,2.8-2.3,5.5-3.9,8c-1.6,2.5-3.6,4.7-6.1,6.7c-1.8,1.7-4.3,3-7.6,3.7c-0.4,0.2-1.9,0.5-4.4,1.1
		c-2.5,0.5-5.6,0.8-9.2,0.8H322V50.9V6V1.8h27.1c2.3,0,4.6,0,6.8,0c2.2,0,4.4,0.1,6.7,0.4c2.2,0.3,4.4,0.8,6.6,1.5
		C371.5,4.3,373.7,5.4,375.8,6.8z M354.1,58.4c2,0,3.6-0.6,4.9-1.9c1.3-1.2,2.4-2.8,3.2-4.6c0.8-1.8,1.3-3.8,1.6-5.9s0.5-4,0.5-5.7
		c0-1.7-0.2-3.5-0.6-5.5s-1.1-3.7-2-5.4c-0.9-1.6-2-3-3.2-4c-1.2-1.1-2.7-1.6-4.3-1.6h-6.2v34.6h4.9h0.2H354.1z"/>
	<path d="M430.6,1.8h56.9v22.8h-31.4v6.8h24.4v19.3h-24.4v7h31.4v22.1h-56.9V62.5V2.7V1.8z"/>
	<path d="M529.5,1.8H586v22.8h-31.6v7.1h26.9v18.1h-26.9v30h-24.9V2.7V1.8z"/>
	<path d="M668.7,41.3h25.2v40.6l-10.5-7.8c-3.2,2.4-6.8,4.3-10.7,5.7c-3.9,1.4-8.2,2.1-12.9,2.1c-5.6,0-10.8-1.1-15.6-3.2
		c-4.8-2.1-9-5-12.6-8.7c-3.6-3.7-6.4-8-8.4-12.9c-2-5-3-10.2-3-15.8c0-5.8,1-11.2,3.1-16.2c2-5,4.9-9.4,8.5-13.1
		c3.6-3.7,7.8-6.6,12.6-8.7s10-3.2,15.6-3.2c5.9,0,11.5,1.2,16.6,3.5c5.2,2.3,9.6,5.6,13.2,9.8l-16.7,16.8c-1.4-2-3.3-3.5-5.6-4.5
		s-4.8-1.6-7.5-1.6c-2.5,0-4.8,0.5-7,1.3c-2.1,0.9-4,2.1-5.5,3.6c-1.5,1.5-2.7,3.3-3.6,5.4c-0.9,2.1-1.3,4.3-1.3,6.7
		c0,2.4,0.4,4.7,1.3,6.7c0.9,2.1,2,3.9,3.5,5.4c1.5,1.5,3.3,2.7,5.5,3.6c2.1,0.9,4.4,1.3,6.9,1.3c1.6,0,3.1-0.2,4.7-0.6
		c1.6-0.4,3-1,4.3-1.8V41.3z"/>
	<path d="M781.6,1.8h25.4v78h-25.4v-30h-21.9v30h-24.8v-78h24.9l-0.1,29.9h21.9V1.8z"/>
	<path d="M884.4,57.7h10.3v22.1h-46.2V57.7h10.8V24.6h-9.8V1.8h44.1v22.8h-9.1V57.7z"/>
	<path d="M986.2,1.8h22.5v23v15.4c0,5.6-1,10.9-3.1,15.9c-2.1,5-4.9,9.3-8.4,13c-3.5,3.7-7.7,6.6-12.4,8.8s-9.8,3.2-15.2,3.2
		c-5.6,0-10.9-1.1-15.8-3.2s-9.2-5.1-12.9-8.8c-3.7-3.7-6.6-8.1-8.7-13c-2.1-5-3.2-10.3-3.2-15.9h23.2c0,2.3,0.4,4.5,1.3,6.6
		c0.9,2.1,2.1,3.9,3.7,5.4c1.6,1.5,3.4,2.7,5.6,3.6c2.1,0.9,4.3,1.3,6.7,1.3c2.3,0,4.4-0.4,6.4-1.3c2-0.9,3.8-2.1,5.3-3.6
		c1.5-1.5,2.7-3.3,3.6-5.4c0.9-2.1,1.3-4.3,1.3-6.6V24.6h-20.2V1.8H986.2z"/>
	<path d="M1125,1.8l-22.6,27.8l23.9,50.2h-26.6l-13.9-30.9L1075,61.4v18.4h-25.2v-78h25.2v27l22.5-27H1125z"/>
	<path d="M1188.9,57.7h39.1v22.1h-64.5V62.5V1.8h25.4V57.7z"/>
	<path d="M1344.9,1.8h3.3v78h-24.9V36.4l-16.5,24.8l-17.4-26v44.6h-25.5v-78h3h22.5h0.1l16.8,26.1l16.6-26.1h0.3H1344.9z"/>
	<path d="M57.3,142.1h25.2v78H82H57.3L29,178.9v41.3H4.1v-78H29l28.3,42V142.1z"/>
	<path d="M167,140.4c5.4,0,10.5,1.1,15.3,3.2c4.8,2.1,9,5,12.6,8.7c3.6,3.7,6.4,8.1,8.5,13.1c2.1,5,3.1,10.4,3.1,16.2
		c0,5.6-1,10.9-3.1,15.8c-2.1,5-4.9,9.3-8.5,12.9c-3.6,3.7-7.8,6.6-12.6,8.7c-4.8,2.1-9.9,3.2-15.3,3.2c-5.5,0-10.6-1.1-15.4-3.2
		c-4.8-2.1-9-5-12.6-8.7c-3.6-3.7-6.4-8-8.5-12.9c-2.1-5-3.1-10.2-3.1-15.8c0-5.8,1-11.2,3.1-16.2c2.1-5,4.9-9.4,8.5-13.1
		c3.6-3.7,7.8-6.6,12.6-8.7C156.4,141.4,161.6,140.4,167,140.4z M167,198.5c2.3,0,4.5-0.4,6.6-1.3c2-0.9,3.8-2.1,5.4-3.6
		c1.6-1.5,2.8-3.3,3.7-5.4c0.9-2.1,1.3-4.3,1.3-6.7c0-2.3-0.4-4.6-1.3-6.7c-0.9-2.1-2.1-3.9-3.7-5.4c-1.6-1.5-3.3-2.7-5.4-3.6
		c-2-0.9-4.2-1.3-6.6-1.3c-2.3,0-4.6,0.5-6.7,1.3c-2.1,0.9-3.9,2.1-5.5,3.6c-1.6,1.5-2.8,3.3-3.7,5.4c-0.9,2.1-1.3,4.3-1.3,6.7
		c0,2.4,0.4,4.7,1.3,6.7c0.9,2.1,2.1,3.9,3.7,5.4c1.6,1.5,3.4,2.7,5.5,3.6C162.5,198.1,164.7,198.5,167,198.5z"/>
	<path d="M293.7,142.3c2.9,0.2,5.6,1.1,8.1,2.7c2.5,1.6,4.7,3.6,6.5,6c1.8,2.4,3.3,5.1,4.3,8.1c1.1,3,1.6,6,1.6,9.1
		c0,3.9-0.5,7.5-1.6,10.8c-1.1,3.3-2.5,6.1-4.3,8.6c-1.8,2.5-4,4.4-6.5,5.7c-2.5,1.4-5.2,2-8.1,2h-16.6v24.8h-25.9v-78h42.5V142.3z
		 M284.4,179c1.1-0.3,2-1.2,2.8-2.6c0.7-1.4,1.1-2.8,1.1-4.2c0-0.7-0.1-1.4-0.3-2.3s-0.5-1.6-0.8-2.3c-0.4-0.7-0.8-1.4-1.2-1.9
		c-0.5-0.5-1-0.8-1.5-0.8h-7.1V179H284.4z"/>
	<path d="M434.2,181.6c0,4.1-0.6,8.1-1.8,11.9c-1.2,3.8-2.8,7.4-4.9,10.6l9.2,16h-21.1l-2.2-2.8c-3,1.6-6,2.7-9.2,3.6
		c-3.2,0.8-6.7,1.2-10.5,1.2c-5.4,0-10.5-1.1-15.2-3.2c-4.8-2.1-8.9-5-12.5-8.7c-3.6-3.7-6.4-8-8.4-12.9c-2.1-5-3.1-10.2-3.1-15.8
		c0-5.8,1-11.2,3.1-16.2c2.1-5,4.9-9.4,8.4-13.1c3.5-3.7,7.7-6.6,12.5-8.7c4.8-2.1,9.8-3.2,15.2-3.2c5.6,0,10.9,1.1,15.8,3.2
		c4.9,2.1,9.2,5,12.8,8.7c3.6,3.7,6.5,8.1,8.6,13.1C433.1,170.4,434.2,175.8,434.2,181.6z M393.8,198.5c0.7,0,1.4,0,2.2-0.1
		c0.8-0.1,1.6-0.2,2.3-0.4l-5.7-6.8h16c2-3,3-6.2,3-9.7c0-2.3-0.4-4.6-1.3-6.7c-0.9-2.1-2.1-3.9-3.7-5.4c-1.6-1.5-3.5-2.7-5.7-3.6
		c-2.2-0.9-4.6-1.3-7.1-1.3c-2.3,0-4.4,0.5-6.4,1.3c-2,0.9-3.8,2.1-5.3,3.6c-1.5,1.5-2.7,3.3-3.6,5.4c-0.9,2.1-1.3,4.3-1.3,6.7
		c0,2.4,0.4,4.7,1.3,6.7c0.9,2.1,2.1,3.9,3.6,5.4c1.5,1.5,3.3,2.7,5.3,3.6C389.4,198.1,391.5,198.5,393.8,198.5z"/>
	<path d="M543.9,168.2c0,4.1-0.6,7.9-1.9,11.3c-1.2,3.4-3,6.4-5.3,8.8l11,31.8h-24.7l-8.3-24.8h-8.3v24.8h-25.4v-78h42.1v0.1
		c2.8,0.2,5.5,1.1,8,2.7c2.5,1.6,4.7,3.6,6.6,6c1.9,2.4,3.4,5.1,4.4,8.1C543.3,162.2,543.9,165.2,543.9,168.2z M506.6,179.1h6.7
		c1.3-0.3,2.4-1.2,3.1-2.6c0.7-1.4,1.1-2.8,1.1-4.2c0-0.7-0.1-1.5-0.3-2.3c-0.2-0.8-0.5-1.6-0.8-2.3c-0.4-0.7-0.8-1.4-1.3-1.9
		c-0.5-0.5-1.1-0.8-1.8-0.8h-6.7V179.1z"/>
	<path d="M613.7,165.4c0,1.6,0.9,2.8,2.8,3.7c1.9,0.9,4.2,1.9,7.1,2.8c2.8,0.9,5.9,2,9.2,3c3.3,1.1,6.4,2.6,9.2,4.6
		c2.8,2,5.2,4.4,7.1,7.4c1.9,3,2.8,6.8,2.8,11.4c-0.1,7.2-2.9,13-8.5,17.4c-5.6,4.4-13.2,6.6-22.8,6.6c-9.7,0-17.3-2.6-22.9-7.7
		c-5.6-5.1-8.4-10.6-8.4-16.3c12.5-2.2,18.8-3.3,18.8-3.3c0.5,1.1,1,2.2,1.6,3.2c0.6,1.1,1.3,2,2.1,2.7c0.8,0.8,1.8,1.4,2.9,1.9
		c1.1,0.5,2.5,0.7,4.1,0.7c1.8,0,3.2-0.3,4.2-0.8c1-0.5,1.7-1.2,2.2-1.9c0.5-0.9,0.9-1.8,0.9-2.8c0-1.2-0.9-2.2-2.7-3.2
		c-1.8-0.9-4.1-1.9-6.8-2.9c-2.7-1-5.6-2.1-8.8-3.3c-3.2-1.2-6.1-2.8-8.8-4.7c-2.7-1.9-5-4.2-6.8-7c-1.8-2.8-2.7-6.1-2.7-10.1
		c0-5.1,0.9-9.3,2.7-12.5c1.8-3.2,4.2-5.8,7.1-7.9c2.9-2.1,6.2-3.6,9.8-4.6c3.6-1,7.3-1.5,11-1.5c4,0,7.7,0.5,11.1,1.5
		c3.4,1,6.5,2.5,9.4,4.5c2.8,2,5.1,4.5,6.8,7.5c1.7,3,2.6,6.5,2.6,10.6l-20,1.5c0-1.2-0.3-2.2-0.8-3.1c-0.5-0.9-1.2-1.6-2-2.2
		c-0.8-0.5-1.7-1-2.7-1.2c-1-0.3-2-0.4-3-0.4c-2,0-3.8,0.6-5.3,1.7C614.4,161.9,613.7,163.5,613.7,165.4z"/>
	<path d="M692,142.3h62.8v22.8H736v55.1h-25.2v-55.1H692V142.3z"/>
	<path d="M840.7,142.1h26.2v52.6c0,2.9-0.7,5.9-2,9.1c-1.3,3.2-3.4,6.1-6.3,8.8c-2.8,2.7-6.5,4.9-11,6.7c-4.5,1.8-9.8,2.6-16.1,2.6
		s-11.6-0.9-16-2.6c-4.4-1.8-8.1-4-10.9-6.7c-2.8-2.7-4.9-5.6-6.1-8.8c-1.3-3.2-1.9-6.2-1.9-9.1v-52.6h26V190c0,2.5,0.8,4.6,2.5,6.4
		c1.6,1.8,3.8,2.6,6.6,2.6c2.5,0,4.6-0.8,6.3-2.5c1.7-1.7,2.6-3.7,2.8-6.1c0-0.2,0-0.5,0.1-0.8c0-0.3,0.1-0.5,0.1-0.8V142.1z"/>
	<path d="M980.3,142.1h25.9l-15.7,78h-25.9l0.1-0.1l-6.8-16.8l-6.1,17h-0.5h-26l-15.8-78h25.6l9.1,43.3l13.3-29l13.9,28.5
		L980.3,142.1z"/>
	<path d="M1102,179.7l27.1,40.5h-27.4l-13.7-20.2l-13.8,20.2h-27.8l27.6-40.5l-24.6-37.6h28l10.6,16.1l10.5-16.1h28L1102,179.7z"/>
	<path d="M1219.8,188.7l-0.1,31.5h-25.2v-31.2l-25.6-46.8h26.9l10.5,25.9l10.6-25.9h26.9L1219.8,188.7z"/>
	<path d="M1316.5,198.8l31.8,0.1v21.3h-64.6v-9.7v-11.7l31.5-34.5h-28.4v-22.1h60v10.1v12.1L1316.5,198.8z"/>
	<path d="M46.6,282.5h20.4v78H41.8l-0.1-18.5H29.8l-0.1,18.5H4.1v-78h20.4H46.6z M41.7,324.2l-0.1-18.8H30.1l-0.2,18.8H41.7z"/>
	<path d="M146.6,338.5h30.4v22.1h-30.4h-25.2v-77.9v-0.4l54.1,0.1v23h-28.8L146.6,338.5z"/>
	<path d="M268.5,322.8h25.2v37.9h-7.8h-55.5v-0.1v-78h0.1h25h30.3v23h-30.3v32.8h13V322.8z"/>
	<path d="M409.8,282.5v55.7v22.3h-25.2h-15.9h-25.2v-22.3v-17.4h25.2v17.4h15.9v-55.7H409.8z"/>
	<path d="M548,282.5h8.2v78h-25.4v-50.9l-19.9,29.8l-21.5-31v52.1h-25.2v-78h8.3h16.9h41.4H548z"/>
	<path d="M649.8,282.5H670v22.8h-25.7h-2h-6l-0.1,8.5H670v17.8v29h-7.8h-17.7h-33.7v-22.3h33.7v-6.7H636h-9.6h-15.7v-49.1h20.4
		H649.8z"/>
	<path d="M768.5,321.6v39h-25.2V320l-25-37.4h75L768.5,321.6z"/>
	<path d="M917.1,282.5l-26,40.5l26,37.6h-75.8l26-39.7l-26-38.4H917.1z"/>
	<path d="M1001.8,282.5v78h-25.2v-54.4h-14.5v-13.1l14.5-10.5H1001.8z"/>
	<path d="M1117.9,311.3c-0.8,3.3-2.3,6.2-4.6,8.8c-2.3,2.6-5,5-8.1,7.2c-3.1,2.2-6.5,4.3-10,6.3c-3.6,2-7,3.9-10.2,5.8h33.2v21.2
		h-63.8V351v-11.6l0.3-0.2c0.8-0.6,2.1-1.5,3.8-2.7s3.7-2.6,6-4.2c2.2-1.6,4.6-3.3,7.1-5.1c2.5-1.8,5-3.6,7.3-5.4
		c2.3-1.8,4.4-3.5,6.4-5.3c1.9-1.7,3.5-3.2,4.6-4.6c1.3-2,2-3.8,1.9-5.3c-0.1-1.5-0.6-2.7-1.5-3.7c-0.9-0.9-2.1-1.6-3.5-1.9
		c-1.4-0.3-2.9-0.2-4.3,0.2c-1.4,0.5-2.7,1.3-3.7,2.6c-1.1,1.3-1.8,3-2,5.2l-21.3-3.7c0-4.9,1.3-9.1,4-12.6c2.7-3.5,6-6.1,9.9-7.9
		c4.1-2.3,8.5-3.5,13.2-3.6c4.7-0.2,9.2,0.2,13.7,1.1c3.4,0.7,6.5,2,9.4,3.7c2.9,1.8,5.4,4,7.4,6.5c2,2.6,3.5,5.5,4.4,8.7
		S1118.5,307.8,1117.9,311.3z"/>
	<path d="M1214.1,315.2c1.7,1,3.4,2.1,5,3.2c1.6,1.1,3.1,2.4,4.4,3.8c1.3,1.4,2.4,3,3.3,4.8c0.9,1.8,1.5,3.8,1.8,6.1
		c0.5,2.8,0.4,5.5-0.1,8.1c-0.5,2.6-1.3,5-2.5,7.2c-1.9,3-4.4,5.7-7.6,7.8s-6.9,3.7-11,4.4c-4.2,0.9-8.6,1.2-13.3,1.1
		c-4.6-0.1-9-1.2-13.2-3.2c-4.2-1.9-7.5-4.5-10-8c-2.5-3.4-3.7-7.4-3.7-11.8l21.2-3.6c0.2,0,0.3,0.2,0.6,0.5
		c0.2,0.4,0.5,0.8,0.7,1.2c0.2,0.5,0.4,0.9,0.6,1.4c0.2,0.5,0.3,0.8,0.5,0.9c0.6,0.8,1.3,1.5,2,2.1c0.7,0.6,1.6,1.1,2.6,1.5
		c2,0.5,3.8,0.2,5.4-0.8c1.6-1,2.5-2.4,2.6-4.3c0.1-0.9,0-1.9-0.3-2.7c-0.3-0.9-0.7-1.8-1.3-2.6c-0.4-0.4-0.8-0.9-1.2-1.5
		c-0.4-0.6-0.9-1.1-1.4-1.5c-1.7-1.3-3.2-2.2-4.4-2.7c-1.2-0.5-2.2-0.9-3.1-1.3c-0.1-1.8-0.1-3.6-0.1-5.3c0-1.8,0-3.5-0.1-5.2
		l10.2-11.2h-29v-21.3l51.7,0.1v10.6v11.9L1214.1,315.2z"/>
	<path d="M1340,329.6h9.7v19.9h-9.7v11.1h-25.2v-11.1h-38.1v-9.6v-11.6l36.7-45.7h26.6V329.6z M1314.8,329.6v-17.1l-14.7,17.1
		H1314.8z"/>
	<path d="M48.8,452.5c2.3,0.9,4.4,2.2,6.3,3.9c1.8,1.7,3.4,3.6,4.7,5.7c1.3,2.1,2.3,4.4,3,6.8c0.7,2.4,1.1,4.8,1.1,7.3
		c0,2.6-0.5,5.1-1.3,7.7c-0.9,2.6-2.2,5-3.8,7.1c-2.7,3.3-5.9,5.8-9.7,7.6c-3.8,1.8-7.8,2.9-12,3.4c-3.6,0.4-7.2,0.2-10.9-0.5
		c-3.7-0.7-7.2-2-10.6-3.8c-1.7-1.2-3.4-2.5-5.1-4.1c-1.7-1.6-3.1-3.3-4.2-5.4c-0.8-1.2-1.4-2.5-1.9-3.9c-0.5-1.3-0.9-2.6-1.3-3.7
		c-0.4-1.3-0.7-2.7-0.9-4l19.4-2.8c0.5,0.7,1.1,1.3,1.5,1.9c0.4,0.5,0.8,1,1.2,1.5c0.4,0.5,0.7,0.8,0.8,1c0.9,0.9,1.9,1.5,3.2,2
		c1.3,0.5,2.4,0.7,3.5,0.8c1.3,0.2,2.5-0.1,3.6-0.8c1.1-0.7,1.9-1.6,2.5-2.7c0.5-1.3,0.7-2.7,0.5-4.2c-0.2-1.5-0.9-2.8-1.9-3.9
		c-1.6-1.7-3.5-2.5-5.9-2.4s-4.5,0.5-6.5,1.1l-15.2-1.4v-23.6v-14.9v-5.3h50.5v21.3l-33.1-0.8l-0.8,8.4c0.2-0.1,0.3-0.1,0.4-0.1
		c0.1,0,0.3,0,0.4-0.1c3.5-1.1,7.3-1.6,11.3-1.4C41.6,450.3,45.4,451.1,48.8,452.5z"/>
	<path d="M137.6,450.3c4.2-0.5,8-0.3,11.5,0.9c3.4,1.1,6.4,2.8,8.8,5.1c2.4,2.3,4.3,5,5.6,8.2c1.3,3.2,2,6.6,2,10.1
		c0,3.8-0.8,7.4-2.3,10.8c-1.6,3.4-3.7,6.3-6.5,8.8s-6,4.5-9.7,5.9c-3.7,1.4-7.6,2.2-11.8,2.2c-4.1,0-7.9-0.7-11.5-2.2
		c-3.6-1.4-6.8-3.4-9.5-5.9c-2.7-2.5-4.8-5.4-6.4-8.8c-1.6-3.4-2.3-6.9-2.3-10.8c0-1.9,0.2-3.7,0.6-5.5l0.1-0.4
		c0.2-1.2,0.6-2.5,1.1-3.6l15.1-42.1h22.9L137.6,450.3z M135.2,480.8c2.4,0,4.4-0.7,6-2.2c1.6-1.5,2.3-3.3,2.3-5.5
		c0-2.2-0.8-4-2.3-5.6c-1.6-1.5-3.5-2.3-6-2.3c-2.2,0-4,0.8-5.6,2.3c-1.5,1.5-2.3,3.4-2.3,5.6c0,2.2,0.8,4,2.3,5.5
		C131.1,480.1,133,480.8,135.2,480.8z"/>
	<path d="M240.2,422.9H265l-31.4,78.5h-25.2l23.6-57.7l-30.4-0.6v-20.2l38.5,0.1V422.9z"/>
	<path d="M359.6,446.2c0,2.3-0.3,4.4-1.1,6.3c-0.7,2-1.6,3.8-2.7,5.5c1.9,2.4,3.4,5,4.5,7.8c1.1,2.8,1.6,5.7,1.6,8.7
		c0,3.8-0.8,7.4-2.5,10.8c-1.6,3.4-3.9,6.3-6.7,8.8c-2.8,2.5-6.1,4.5-9.9,5.9c-3.8,1.4-7.8,2.2-12,2.2c-4.1,0-7.9-0.7-11.5-2.2
		c-3.6-1.4-6.8-3.4-9.5-5.9s-4.8-5.4-6.4-8.8c-1.6-3.4-2.3-6.9-2.3-10.8c0-3,0.5-5.9,1.5-8.7c1-2.8,2.3-5.4,4-7.8
		c-1.1-1.7-1.9-3.5-2.4-5.5c-0.5-2-0.8-4.1-0.8-6.3c0-3.4,0.7-6.6,2.1-9.7c1.4-3,3.3-5.6,5.8-7.8c2.5-2.2,5.4-4,8.7-5.2
		c3.4-1.2,6.9-1.9,10.8-1.9c4,0,7.7,0.6,11.2,1.9c3.5,1.2,6.5,3,9.1,5.2c2.6,2.2,4.6,4.8,6.1,7.8
		C358.8,439.6,359.6,442.8,359.6,446.2z M330.9,480.8c2.5,0,4.5-0.7,6-2.2c1.5-1.5,2.2-3.3,2.2-5.5c0-1.8-0.7-3.4-2.2-4.9
		c-1.5-1.4-3.5-2.2-6-2.2c-2.1,0-3.9,0.7-5.4,2.2c-1.5,1.4-2.3,3.1-2.3,4.9c0,2.2,0.8,4,2.3,5.5C327,480.1,328.8,480.8,330.9,480.8z
		 M330.9,441.4c-2,0-3.7,0.8-5.1,2.3c-1.4,1.5-2.1,3.3-2.1,5.2c0,1.5,0.7,2.8,2.1,4.1c1.4,1.3,3.1,1.9,5.1,1.9
		c2.3,0,4.2-0.6,5.6-1.9c1.4-1.2,2-2.6,2-4.1c0-2-0.7-3.7-2-5.2C335.1,442.2,333.3,441.4,330.9,441.4z"/>
	<path d="M431.9,421.6c4.1,0,8,0.7,11.6,2.2c3.6,1.5,6.8,3.5,9.5,6.1c2.7,2.6,4.9,5.6,6.4,9.1c1.6,3.5,2.3,7.3,2.3,11.3
		c0,2-0.2,4-0.6,6c-0.4,2-1,3.9-1.7,5.7l-17.2,39h-23.7l11.5-27.7c-4.3,0.9-8.2,0.9-11.6,0c-3.5-0.9-6.4-2.5-8.8-4.7
		s-4.3-4.9-5.6-8.1c-1.3-3.2-2-6.6-2-10.1c0-4.1,0.8-7.8,2.3-11.3c1.6-3.5,3.7-6.6,6.4-9.1c2.7-2.6,5.9-4.6,9.5-6.1
		C423.8,422.4,427.7,421.6,431.9,421.6z M423.9,451c0,2.2,0.8,4,2.3,5.6c1.5,1.5,3.4,2.3,5.7,2.3c2.3,0,4.3-0.8,5.8-2.3
		c1.5-1.5,2.3-3.4,2.3-5.6c0-2.3-0.8-4.2-2.3-5.7c-1.5-1.5-3.4-2.3-5.8-2.3c-2.3,0-4.2,0.8-5.7,2.3
		C424.7,446.9,423.9,448.7,423.9,451z"/>
	<path d="M548.4,422.9c3.6,1.1,6.8,2.6,9.6,4.6c2.8,2,5.3,4.7,7.5,8.2c1.7,3.3,3,6.9,3.9,10.8c0.9,3.9,1.4,7.9,1.6,11.9
		c0.2,4,0,8-0.5,11.9c-0.5,3.9-1.3,7.6-2.3,10.9c-0.9,3.5-2.3,6.7-4,9.7c-1.7,2.9-4.1,5.3-7,7.1c-2.3,1.3-4.6,2.3-7,2.9
		c-2.4,0.6-4.7,1-7,1.2c-2.7,0.3-5.3,0.4-7.8,0.4c-2.5,0-5-0.3-7.5-0.9c-4-0.9-7.6-2.3-10.8-4.4c-3.2-2.1-5.8-5-7.8-8.8
		c-2.6-4.6-4.3-9.6-5.1-14.9c-0.8-5.3-1-10.7-0.6-16c0.2-2.4,0.4-4.9,0.8-7.5c0.4-2.6,1-5.2,1.8-7.7c0.8-2.5,1.8-4.9,3-7.1
		c1.2-2.3,2.7-4.3,4.5-6.2c2.2-1.9,4.7-3.5,7.5-4.7c2.8-1.2,5.8-2,9-2.4c3.1-0.4,6.2-0.6,9.4-0.4
		C542.8,421.8,545.7,422.2,548.4,422.9z M538.8,480.8c2-0.2,3.5-1.1,4.6-2.6c1.1-1.5,1.9-3.2,2.5-5.1c0.5-1.9,0.9-4,1.1-6.1
		c0.2-2.1,0.2-3.9,0.2-5.4s-0.1-3.2-0.3-5.1c-0.2-1.9-0.7-3.8-1.4-5.7c-0.7-1.8-1.6-3.4-2.8-4.7c-1.2-1.3-2.7-2-4.6-2.2
		c-2.3-0.2-4.1,0.5-5.4,1.9c-1.3,1.4-2.3,3.1-3,5.2c-0.7,2.1-1.2,4.3-1.3,6.6c-0.2,2.3-0.3,4.2-0.3,5.8c0,1.5,0.1,3.2,0.4,5.2
		c0.2,2,0.7,3.9,1.4,5.7c0.7,1.8,1.7,3.3,2.9,4.6c1.2,1.3,2.8,2,4.7,2C537.9,481,538.4,480.9,538.8,480.8z"/>
	<path d="M660,513.5h-18.1V501c-1.4-0.5-2.8-1-4.2-1.5c-4.8-2.1-9.1-5-12.7-8.5c-3.6-3.6-6.5-7.8-8.5-12.8
		c-2.1-4.9-3.1-10.2-3.1-15.8c0-5.8,1-11.2,3.1-16.2c2.1-5,4.9-9.4,8.5-13.1c3.6-3.7,7.9-6.6,12.7-8.7c4.8-2.1,10.1-3.2,15.7-3.2
		c5.9,0,11.4,1.2,16.5,3.5c5.1,2.3,9.4,5.6,13.1,9.8l-16.6,16.8c-1.6-2-3.4-3.5-5.7-4.5c-2.2-1.1-4.7-1.6-7.3-1.6
		c-2.3,0-4.6,0.5-6.7,1.3c-2.1,0.9-4,2.1-5.6,3.6c-1.6,1.5-2.9,3.3-3.8,5.4c-0.9,2.1-1.4,4.3-1.4,6.7c0,2.4,0.5,4.7,1.4,6.7
		c0.9,2.1,2.2,3.9,3.8,5.4c1.6,1.5,3.5,2.7,5.6,3.6c2.1,0.9,4.4,1.3,6.7,1.3c4,0,7.5-1.2,10.5-3.5l19.8,12.9
		c-3.7,4.5-8.1,8-13.3,10.3c-3.3,1.5-6.7,2.5-10.3,3V513.5z"/>
	<path d="M763.2,513.5H745V501h-19.5v-78.3l54.1,0.1v22.9h-28.8l-0.1,33.1h30.4V501h-17.9V513.5z"/>
	<path d="M864.9,513.5h-18.1v-11.1c-5.8-1.1-10.7-3.4-14.6-7c-5.5-5.1-8.3-10.6-8.3-16.3c12.5-2.2,18.8-3.3,18.8-3.3
		c0.5,1.1,1,2.2,1.6,3.2s1.3,2,2.1,2.7c0.8,0.8,1.8,1.4,2.9,1.9c1.1,0.5,2.5,0.7,4.1,0.7c1.8,0,3.2-0.3,4.2-0.8
		c1-0.5,1.7-1.2,2.2-1.9c0.5-0.9,0.9-1.8,0.9-2.8c0-1.2-0.9-2.2-2.7-3.2c-1.8-0.9-4.1-1.9-6.8-2.9c-2.7-1-5.6-2.1-8.8-3.3
		c-3.2-1.2-6.1-2.8-8.8-4.7c-2.7-1.9-5-4.2-6.8-7c-1.8-2.8-2.7-6.1-2.7-10.1c0-5.1,0.9-9.3,2.7-12.5s4.2-5.8,7.1-7.9
		c2.9-2.1,6.2-3.6,9.8-4.6c3.6-1,7.3-1.5,11-1.5c4,0,7.7,0.5,11.1,1.5c3.4,1,6.5,2.5,9.4,4.5c2.8,2,5.1,4.5,6.8,7.5
		c1.7,3,2.6,6.5,2.6,10.6l-20,1.5c0-1.2-0.3-2.2-0.8-3.1c-0.5-0.9-1.2-1.6-2-2.2c-0.8-0.5-1.7-1-2.8-1.2c-1-0.3-2-0.4-3-0.4
		c-2,0-3.8,0.6-5.3,1.7c-1.5,1.1-2.3,2.7-2.3,4.6c0,1.6,0.9,2.8,2.8,3.7c1.9,0.9,4.2,1.9,7.1,2.8c2.8,0.9,5.9,2,9.2,3
		c3.3,1.1,6.4,2.6,9.2,4.6c2.8,2,5.2,4.4,7.1,7.4c1.9,3,2.8,6.8,2.8,11.4c-0.1,7.2-2.9,13-8.5,17.4c-3.6,2.7-7.9,4.6-13,5.6V513.5z"
		/>
	<path d="M970.3,513.5h-18.1v-12.4h-21.5v-22.3h33.7v-6.7h-33.7v-49.1h59.2v22.8h-33.7l-0.1,8.5h33.8v46.8h-19.5V513.5z"/>
	<path d="M1034.7,402.5c0-2.1,0.4-4.1,1.2-6c0.8-1.9,1.9-3.6,3.3-5c1.4-1.4,3.1-2.5,5-3.3c1.9-0.8,3.9-1.2,6-1.2
		c2.1,0,4.1,0.4,6,1.2c1.9,0.8,3.6,1.9,5,3.3c1.4,1.4,2.5,3.1,3.3,5c0.8,1.9,1.2,3.9,1.2,6s-0.4,4.1-1.2,6c-0.8,1.9-1.9,3.6-3.3,5
		c-1.4,1.4-3.1,2.5-5,3.3c-1.9,0.8-3.9,1.2-6,1.2c-2.1,0-4.1-0.4-6-1.2c-1.9-0.8-3.6-1.9-5-3.3c-1.4-1.4-2.5-3.1-3.3-5
		C1035.1,406.6,1034.7,404.6,1034.7,402.5z M1081.5,422.9h26.2v52.6c0,2.9-0.7,5.9-2,9.1c-1.3,3.2-3.4,6.1-6.3,8.8
		c-2.8,2.7-6.5,4.9-11,6.7c-4.5,1.8-9.9,2.6-16.1,2.6c-6.2,0-11.6-0.9-16-2.6c-4.4-1.8-8.1-4-10.9-6.7c-2.8-2.7-4.9-5.6-6.1-8.8
		c-1.3-3.2-1.9-6.2-1.9-9.1v-52.6h26v47.8c0,2.5,0.8,4.6,2.5,6.4c1.6,1.8,3.8,2.6,6.6,2.6c2.5,0,4.6-0.8,6.3-2.5
		c1.7-1.7,2.6-3.7,2.7-6.1c0-0.2,0-0.5,0.1-0.8c0-0.3,0.1-0.5,0.1-0.8V422.9z M1078.8,402.5c0-2.1,0.4-4.1,1.2-6
		c0.8-1.9,1.9-3.6,3.3-5c1.4-1.4,3.1-2.5,5-3.3c1.9-0.8,3.9-1.2,6-1.2c2.1,0,4.1,0.4,6,1.2c1.9,0.8,3.6,1.9,5,3.3
		c1.4,1.4,2.5,3.1,3.3,5c0.8,1.9,1.2,3.9,1.2,6s-0.4,4.1-1.2,6c-0.8,1.9-1.9,3.6-3.3,5c-1.4,1.4-3.1,2.5-5,3.3
		c-1.9,0.8-3.9,1.2-6,1.2c-2.1,0-4.1-0.4-6-1.2c-1.9-0.8-3.6-1.9-5-3.3c-1.4-1.4-2.5-3.1-3.3-5
		C1079.2,406.6,1078.8,404.6,1078.8,402.5z"/>
	<path d="M1152.8,402.5c0-2.1,0.4-4.1,1.2-6c0.8-1.9,1.9-3.6,3.3-5c1.4-1.4,3.1-2.5,5-3.3c1.9-0.8,3.9-1.2,6-1.2
		c2.1,0,4.1,0.4,6,1.2c1.9,0.8,3.6,1.9,5,3.3c1.4,1.4,2.5,3.1,3.3,5c0.8,1.9,1.2,3.9,1.2,6s-0.4,4.1-1.2,6c-0.8,1.9-1.9,3.6-3.3,5
		c-1.4,1.4-3.1,2.5-5,3.3c-1.9,0.8-3.9,1.2-6,1.2c-2.1,0-4.1-0.4-6-1.2c-1.9-0.8-3.6-1.9-5-3.3c-1.4-1.4-2.5-3.1-3.3-5
		C1153.3,406.6,1152.8,404.6,1152.8,402.5z M1224.3,422.9v55.7V501h-25.7h-15.9h-25.2v-22.3v-55.7h25.2v55.7h15.9v-55.7H1224.3z
		 M1196.9,402.5c0-2.1,0.4-4.1,1.2-6c0.8-1.9,1.9-3.6,3.3-5c1.4-1.4,3.1-2.5,5-3.3c1.9-0.8,3.9-1.2,6-1.2c2.1,0,4.1,0.4,6,1.2
		c1.9,0.8,3.6,1.9,5,3.3c1.4,1.4,2.5,3.1,3.3,5c0.8,1.9,1.2,3.9,1.2,6s-0.4,4.1-1.2,6c-0.8,1.9-1.9,3.6-3.3,5
		c-1.4,1.4-3.1,2.5-5,3.3c-1.9,0.8-3.9,1.2-6,1.2c-2.1,0-4.1-0.4-6-1.2c-1.9-0.8-3.6-1.9-5-3.3c-1.4-1.4-2.5-3.1-3.3-5
		C1197.4,406.6,1196.9,404.6,1196.9,402.5z"/>
	<path d="M1310,421.2c5.4,0,10.5,1.1,15.3,3.2c4.8,2.1,9,5,12.6,8.7c3.6,3.7,6.4,8.1,8.5,13.1c2.1,5,3.1,10.4,3.1,16.2
		c0,5.6-1,10.9-3.1,15.8c-2.1,5-4.9,9.3-8.5,12.9c-3.6,3.7-7.8,6.6-12.6,8.7s-9.9,3.2-15.3,3.2c-5.5,0-10.6-1.1-15.4-3.2
		c-4.8-2.1-9-5-12.6-8.7c-3.6-3.7-6.4-8-8.5-12.9c-2.1-5-3.1-10.2-3.1-15.8c0-5.8,1-11.2,3.1-16.2c2.1-5,4.9-9.4,8.5-13.1
		s7.8-6.6,12.6-8.7C1299.4,422.2,1304.5,421.2,1310,421.2z M1272.1,402.5c0-2.1,0.4-4.1,1.2-6c0.8-1.9,1.9-3.6,3.3-5
		c1.4-1.4,3.1-2.5,5-3.3c1.9-0.8,3.9-1.2,6-1.2c2.1,0,4.1,0.4,6,1.2c1.9,0.8,3.6,1.9,5,3.3c1.4,1.4,2.5,3.1,3.3,5
		c0.8,1.9,1.2,3.9,1.2,6s-0.4,4.1-1.2,6c-0.8,1.9-1.9,3.6-3.3,5c-1.4,1.4-3.1,2.5-5,3.3c-1.9,0.8-3.9,1.2-6,1.2
		c-2.1,0-4.1-0.4-6-1.2c-1.9-0.8-3.6-1.9-5-3.3c-1.4-1.4-2.5-3.1-3.3-5C1272.5,406.6,1272.1,404.6,1272.1,402.5z M1310,479.3
		c2.3,0,4.5-0.4,6.6-1.3c2-0.9,3.8-2.1,5.4-3.6c1.6-1.5,2.8-3.3,3.7-5.4c0.9-2.1,1.3-4.3,1.3-6.7c0-2.3-0.4-4.6-1.3-6.7
		c-0.9-2.1-2.1-3.9-3.7-5.4c-1.6-1.5-3.3-2.7-5.4-3.6c-2-0.9-4.2-1.3-6.6-1.3c-2.3,0-4.6,0.5-6.7,1.3c-2.1,0.9-3.9,2.1-5.5,3.6
		c-1.6,1.5-2.8,3.3-3.7,5.4c-0.9,2.1-1.3,4.3-1.3,6.7c0,2.4,0.4,4.7,1.3,6.7c0.9,2.1,2.1,3.9,3.7,5.4s3.4,2.7,5.5,3.6
		C1305.4,478.9,1307.7,479.3,1310,479.3z M1316.2,402.5c0-2.1,0.4-4.1,1.2-6c0.8-1.9,1.9-3.6,3.3-5c1.4-1.4,3.1-2.5,5-3.3
		c1.9-0.8,3.9-1.2,6-1.2c2.1,0,4.1,0.4,6,1.2c1.9,0.8,3.6,1.9,5,3.3c1.4,1.4,2.5,3.1,3.3,5c0.8,1.9,1.2,3.9,1.2,6s-0.4,4.1-1.2,6
		c-0.8,1.9-1.9,3.6-3.3,5c-1.4,1.4-3.1,2.5-5,3.3c-1.9,0.8-3.9,1.2-6,1.2c-2.1,0-4.1-0.4-6-1.2c-1.9-0.8-3.6-1.9-5-3.3
		c-1.4-1.4-2.5-3.1-3.3-5C1316.6,406.6,1316.2,404.6,1316.2,402.5z"/>
	<path d="M50.5,602.9h25.2v40.6l-10.5-7.8c-3.2,2.4-6.8,4.3-10.7,5.7c-3.9,1.4-8.3,2.1-12.9,2.1c-5.6,0-10.8-1.1-15.6-3.2
		c-4.8-2.1-9-5-12.6-8.7c-3.6-3.7-6.4-8-8.4-12.9c-2-5-3-10.2-3-15.8c0-5.8,1-11.2,3.1-16.2c2-5,4.9-9.4,8.5-13.1s7.8-6.6,12.6-8.7
		c4.8-2.1,10-3.2,15.6-3.2c5.9,0,11.5,1.2,16.6,3.5c5.1,2.3,9.6,5.6,13.2,9.8l-16.7,16.8c-1.4-2-3.3-3.5-5.6-4.5
		c-2.3-1.1-4.8-1.6-7.5-1.6c-2.5,0-4.8,0.5-7,1.3c-2.1,0.9-4,2.1-5.5,3.6c-1.5,1.5-2.7,3.3-3.6,5.4c-0.9,2.1-1.3,4.3-1.3,6.7
		c0,2.4,0.4,4.7,1.3,6.7c0.9,2.1,2,3.9,3.6,5.4c1.5,1.5,3.3,2.7,5.5,3.6c2.1,0.9,4.4,1.3,6.9,1.3c1.6,0,3.1-0.2,4.7-0.6
		c1.6-0.4,3-1,4.3-1.8V602.9z M41.3,558.4c-13.2-0.3-21-6.6-23.5-19l13.7-2.6c0,0.5,0.2,1.3,0.5,2.3c0.3,1,0.9,2,1.6,3
		c0.7,1,1.7,1.8,3,2.6c1.2,0.7,2.8,1.1,4.7,1.1s3.4-0.4,4.7-1.1c1.2-0.7,2.2-1.6,3-2.6c0.7-1,1.3-2,1.6-3c0.3-1,0.5-1.8,0.5-2.3
		l13.7,2.6C62.2,551.9,54.4,558.2,41.3,558.4z"/>
	<path d="M160.8,603.6H186v37.9h-7.8h-55.5v-0.1v-78h0.1h25h30.3v23h-30.3v32.8h13V603.6z M153.3,558.4c-13.2-0.3-21-6.6-23.5-19
		l13.7-2.6c0,0.5,0.2,1.3,0.5,2.3c0.3,1,0.9,2,1.6,3c0.7,1,1.7,1.8,3,2.6c1.2,0.7,2.8,1.1,4.7,1.1s3.4-0.4,4.7-1.1
		c1.2-0.7,2.2-1.6,3-2.6c0.7-1,1.3-2,1.6-3c0.4-1,0.5-1.8,0.5-2.3l13.7,2.6C174.3,551.9,166.5,558.2,153.3,558.4z"/>
	<path d="M257.9,563.3v18.6h-25.3v-18.6H257.9z M276.9,590.4h26.2V616c0,2.9-0.7,5.9-2,9.1c-1.3,3.2-3.4,6.1-6.3,8.8
		c-2.8,2.7-6.5,4.9-11,6.7c-4.5,1.8-9.9,2.6-16.1,2.6c-6.2,0-11.6-0.9-16-2.6c-4.4-1.8-8.1-4-10.9-6.7c-2.8-2.7-4.9-5.6-6.1-8.8
		c-1.3-3.2-1.9-6.2-1.9-9.1v-25.6h26v20.8c0,2.5,0.8,4.6,2.5,6.4c1.6,1.8,3.8,2.6,6.6,2.6c2.5,0,4.6-0.8,6.3-2.5
		c1.7-1.7,2.6-3.7,2.7-6.1c0-0.2,0-0.5,0.1-0.8c0-0.3,0.1-0.5,0.1-0.8V590.4z M303.1,563.3v18.6h-25.2v-18.6H303.1z"/>
	<path d="M379,563.3v18.6h-25.2v-18.6H379z M379,563.3v18.6h-25.2v-18.6H379z M420.7,590.5V619v22.3H395h-15.9h-25.2V619v-28.5h25.2
		V619H395v-28.5H420.7z M420.7,563.3v18.6h-25.2v-18.6H420.7z"/>
	<path d="M494,563.3v18.6h-25.2v-18.6H494z M471.3,608.8c0-4.8,0.9-9.2,2.7-13.5c1.8-4.2,4.2-7.9,7.4-11c3.1-3.1,6.8-5.6,11-7.4
		c4.2-1.8,8.7-2.7,13.5-2.7s9.2,0.9,13.5,2.7c4.2,1.8,7.9,4.3,11,7.4c3.1,3.1,5.6,6.8,7.4,11c1.8,4.2,2.7,8.7,2.7,13.5
		s-0.9,9.2-2.7,13.5c-1.8,4.2-4.3,7.9-7.4,11c-3.1,3.1-6.8,5.6-11,7.4c-4.2,1.8-8.7,2.7-13.5,2.7s-9.2-0.9-13.5-2.7
		c-4.2-1.8-7.9-4.2-11-7.4c-3.1-3.1-5.6-6.8-7.4-11C472.2,618.1,471.3,613.6,471.3,608.8z M495.3,609.1c0,3,1,5.5,3,7.5
		c2,2,4.5,3,7.5,3c3,0,5.5-1,7.5-3c2.1-2,3.1-4.5,3.1-7.5c0-3-1-5.5-3.1-7.5c-2.1-2.1-4.6-3.1-7.5-3.1c-3,0-5.5,1-7.5,3.1
		C496.3,603.6,495.3,606.1,495.3,609.1z M544,563.3v18.6h-25.2v-18.6H544z"/>
	<path d="M626.9,612.5H652v29h-7.8h-55.5v-0.1V582h0.1h25h30.3v23h-30.3v14h13V612.5z M618.2,579.5c-11.2-0.2-17.9-5.6-20-16.1
		l11.7-2.2c0,0.5,0.1,1.1,0.4,2c0.3,0.9,0.7,1.8,1.3,2.6c0.6,0.8,1.5,1.5,2.6,2.2c1.1,0.6,2.4,0.9,4,0.9s2.9-0.3,3.9-0.9
		c1.1-0.6,1.9-1.4,2.6-2.2c0.7-0.9,1.1-1.7,1.4-2.6c0.3-0.9,0.4-1.5,0.4-2l11.7,2.2C636,573.9,629.4,579.2,618.2,579.5z"/>
	<path d="M728.2,608.6c0-4.1,0.8-7.9,2.4-11.5c1.6-3.6,3.7-6.7,6.4-9.4c2.7-2.7,5.8-4.8,9.4-6.4c3.6-1.6,7.4-2.4,11.5-2.4
		s7.9,0.8,11.5,2.4c3.6,1.6,6.7,3.7,9.4,6.4c2.7,2.7,4.8,5.8,6.4,9.4c1.6,3.6,2.4,7.4,2.4,11.5c0,2.4-0.3,4.6-0.8,6.8
		c-0.5,2.2-1.3,4.3-2.3,6.3h9c1.6-4.1,2.4-8.4,2.4-13.1c0-5.1-1-10-3-14.6c-2-4.6-4.7-8.6-8.1-11.9c-3.4-3.3-7.4-6-11.8-7.9
		c-4.5-2-9.2-2.9-14.3-2.9c-5.1,0-10,1-14.5,2.9c-4.5,2-8.5,4.6-12,7.9c-3.5,3.3-6.2,7.3-8.1,11.9c-1.9,4.6-2.9,9.5-2.9,14.6
		c0,5.3,1,10.2,2.9,14.7c1.9,4.5,4.6,8.4,8,11.7c1.5,1.4,3.1,2.7,4.7,3.7v23.9l-0.5-0.2c-7-3-13.1-7.2-18.2-12.5
		c-5.1-5.3-9.2-11.5-12.3-18.7c-3-7.1-4.5-14.8-4.5-22.9c0-8.3,1.5-16.2,4.5-23.4s7.1-13.6,12.3-18.9c5.1-5.4,11.2-9.5,18.2-12.6
		c7-3,14.4-4.5,22.3-4.5c7.8,0,15.1,1.5,22.1,4.5c7,3,13,7.2,18.2,12.6c5.2,5.3,9.3,11.7,12.3,18.9c3,7.3,4.4,15.1,4.4,23.4
		c0,8.1-1.5,15.8-4.5,22.9c-1,2.4-2.1,4.7-3.4,7h-49.6v-0.1c-4.1,0-7.9-0.8-11.5-2.4c-3.6-1.6-6.7-3.7-9.4-6.4s-4.8-5.8-6.4-9.4
		C729,616.5,728.2,612.6,728.2,608.6z M748.2,608.8c0,2.7,0.9,5,2.8,6.8s4.1,2.8,6.8,2.8s5-0.9,6.9-2.8c1.9-1.9,2.8-4.1,2.8-6.8
		c0-2.7-0.9-5-2.8-6.9c-1.9-1.9-4.2-2.8-6.9-2.8s-5,0.9-6.8,2.8C749.1,603.8,748.2,606.1,748.2,608.8z"/>
	<path d="M885.8,659.5c-4.6-5-8.4-10.5-11.5-16.4s-5.3-12.2-6.9-18.7c-1.6-6.5-2.4-13.1-2.4-19.9c0-6.7,0.7-13.4,2.1-19.9
		c1.4-6.5,3.7-12.8,6.7-18.8c3-6,6.7-11.6,11.2-16.7l19,13.5c-5.1,5.6-8.9,12.1-11.4,19.5c-2.5,7.4-3.8,14.9-3.8,22.5
		c0,7.6,1.3,15.1,4,22.3c2.7,7.3,6.6,13.6,11.9,19.1L885.8,659.5z"/>
	<path d="M953.4,645.9c5.3-5.5,9.3-11.8,11.9-19.1c2.7-7.3,4-14.7,4-22.3c0-7.6-1.3-15.2-3.9-22.5c-2.6-7.4-6.4-13.9-11.3-19.5
		l18-13.5c4.4,5.1,8.2,10.6,11.2,16.7c3,6,5.2,12.3,6.7,18.8c1.4,6.5,2.1,13.1,2.1,19.9c0,6.7-0.8,13.4-2.4,19.9
		c-1.6,6.5-3.9,12.8-7,18.7c-3.1,6-6.9,11.4-11.4,16.4L953.4,645.9z"/>
	<path d="M1039.1,660.2V547.9h39v15.6h-19.4v81.2h19.4v15.6H1039.1z"/>
	<path d="M1121.3,660.2v-15.6h19.4v-81.2h-19.4v-15.6h39v112.3H1121.3z"/>
	<path d="M1203.6,603.2l13.2-11.7v-43.6h39v15.6h-19.4v32.8l-9.1,8.2v4.2l9.1,8.2v27.8h19.4v15.6h-39v-37.6l-13.2-12.9V603.2z"/>
	<path d="M1351.4,609.8l-13.2,11.7v38.7h-39v-15.6h19.4v-30.2l9.1-7v-1.9l-9.1-7v-35.1h-19.4v-15.6h39v44.8l13.2,10.5V609.8z"/>
	<path d="M29.4,783.6c-0.2-0.6-5.1-14-14.7-40S0.2,704.3,0,703.7h18.8c0.2,0.7,5.1,14,14.6,39.9c9.5,25.9,14.4,39.2,14.7,40H29.4z"
		/>
	<path d="M221.7,800h-70.2v-18.2h70.2V800z"/>
	<path d="M386.1,704.6l0.1,42.1l-50.1-0.1v-13.3h24.4v-6.8h-31.4v-22.8h56.9V704.6z M330.6,768.2c0,2.1,0.4,4.1,1.2,6
		c0.8,1.9,1.9,3.6,3.3,5c1.4,1.4,3.1,2.5,5,3.3c1.9,0.8,3.9,1.2,6,1.2c2.1,0,4.1-0.4,6-1.2c1.9-0.8,3.6-1.9,5-3.3
		c1.4-1.4,2.5-3.1,3.3-5c0.8-1.9,1.2-3.9,1.2-6c0-2.1-0.4-4.1-1.2-6c-0.8-1.9-1.9-3.6-3.3-5c-1.4-1.4-3.1-2.5-5-3.3
		c-1.9-0.8-3.9-1.2-6-1.2c-2.1,0-4.1,0.4-6,1.2c-1.9,0.8-3.6,1.9-5,3.3c-1.4,1.4-2.5,3.1-3.3,5C331,764.1,330.6,766.1,330.6,768.2z"
		/>
	<path d="M454.6,762.2c0.8-1.9,1.9-3.6,3.3-5c1.4-1.4,3.1-2.5,5-3.3c1.9-0.8,3.9-1.2,6-1.2c2.1,0,4.1,0.4,6,1.2
		c1.9,0.8,3.6,1.9,5,3.3c1.4,1.4,2.5,3.1,3.3,5c0.8,1.9,1.2,3.9,1.2,6c0,2.1-0.4,4.1-1.2,6s-1.9,3.6-3.3,5c-1.4,1.4-3.1,2.5-5,3.3
		c-1.9,0.8-3.9,1.2-6,1.2c-2.1,0-4.1-0.4-6-1.2c-1.9-0.8-3.6-1.9-5-3.3c-1.4-1.4-2.5-3.1-3.3-5c-0.8-1.9-1.2-3.9-1.2-6
		C453.4,766.1,453.8,764.1,454.6,762.2z M481.8,703.7h-25.4l2.3,41.8h20.7L481.8,703.7z"/>
	<path d="M569,772.6V756h-16.6v-18.2H569v-16.6h18.3v16.6h16.6V756h-16.6v16.6H569z"/>
	<path d="M672,728.8c0-2.1,0.4-4.1,1.2-6s1.9-3.6,3.3-5c1.4-1.4,3.1-2.5,5-3.3c1.9-0.8,3.9-1.2,6-1.2c2.1,0,4.1,0.4,6,1.2
		c1.9,0.8,3.6,1.9,5,3.3s2.5,3.1,3.3,5c0.8,1.9,1.2,3.9,1.2,6s-0.4,4.1-1.2,6c-0.8,1.9-1.9,3.6-3.3,5c-1.4,1.4-3.1,2.5-5,3.3
		s-3.9,1.2-6,1.2c-2.1,0-4.1-0.4-6-1.2c-1.9-0.8-3.6-1.9-5-3.3c-1.4-1.4-2.5-3.1-3.3-5S672,730.9,672,728.8z M672,768.2
		c0-2.1,0.4-4.1,1.2-6c0.8-1.9,1.9-3.6,3.3-5c1.4-1.4,3.1-2.5,5-3.3c1.9-0.8,3.9-1.2,6-1.2c2.1,0,4.1,0.4,6,1.2
		c1.9,0.8,3.6,1.9,5,3.3c1.4,1.4,2.5,3.1,3.3,5c0.8,1.9,1.2,3.9,1.2,6c0,2.1-0.4,4.1-1.2,6c-0.8,1.9-1.9,3.6-3.3,5
		c-1.4,1.4-3.1,2.5-5,3.3c-1.9,0.8-3.9,1.2-6,1.2c-2.1,0-4.1-0.4-6-1.2c-1.9-0.8-3.6-1.9-5-3.3c-1.4-1.4-2.5-3.1-3.3-5
		S672,770.3,672,768.2z"/>
	<path d="M821,742.9h-45.6v-18.2H821V742.9z M821,768.6h-45.6v-18.2H821V768.6z"/>
	<path d="M886.9,794.2c0.3-0.8,2.1-5.5,5.3-14.1c3.2-8.6,5-13.3,5.2-14h24.7c-0.2,0.5-2.8,5.2-7.6,14c-4.8,8.8-7.4,13.5-7.6,14.1
		H886.9z M895.9,728.8c0-2.1,0.4-4.1,1.2-6c0.8-1.9,1.9-3.6,3.3-5s3.1-2.5,5-3.3c1.9-0.8,3.9-1.2,6-1.2c2.1,0,4.1,0.4,6,1.2
		c1.9,0.8,3.6,1.9,5,3.3s2.5,3.1,3.3,5c0.8,1.9,1.2,3.9,1.2,6s-0.4,4.1-1.2,6c-0.8,1.9-1.9,3.6-3.3,5c-1.4,1.4-3.1,2.5-5,3.3
		s-3.9,1.2-6,1.2c-2.1,0-4.1-0.4-6-1.2s-3.6-1.9-5-3.3c-1.4-1.4-2.5-3.1-3.3-5C896.3,732.9,895.9,730.9,895.9,728.8z"/>
	<path d="M990.4,794.2c0.3-0.8,2.1-5.5,5.3-14.1c3.2-8.6,5-13.3,5.2-14h24.7c-0.2,0.5-2.8,5.2-7.6,14c-4.8,8.8-7.4,13.5-7.6,14.1
		H990.4z"/>
	<path d="M1095.4,768.2c0-2.1,0.4-4.1,1.2-6c0.8-1.9,1.9-3.6,3.3-5c1.4-1.4,3.1-2.5,5-3.3c1.9-0.8,3.9-1.2,6-1.2s4.1,0.4,6,1.2
		c1.9,0.8,3.6,1.9,5,3.3c1.4,1.4,2.5,3.1,3.3,5c0.8,1.9,1.2,3.9,1.2,6c0,2.1-0.4,4.1-1.2,6c-0.8,1.9-1.9,3.6-3.3,5
		c-1.4,1.4-3.1,2.5-5,3.3c-1.9,0.8-3.9,1.2-6,1.2s-4.1-0.4-6-1.2c-1.9-0.8-3.6-1.9-5-3.3c-1.4-1.4-2.5-3.1-3.3-5
		C1095.8,772.3,1095.4,770.3,1095.4,768.2z"/>
	<path d="M1238.5,756h-45.6v-18.2h45.6V756z"/>
	<path d="M1304.1,783.6c0.3-0.8,5.2-14.1,14.7-40c9.5-25.9,14.4-39.2,14.6-39.9h18.8c-0.2,0.5-5.1,13.8-14.7,39.9
		c-9.6,26-14.5,39.4-14.7,40H1304.1z"/>
</g>
</svg>
