<?xml version="1.0" encoding="utf-8"?>
<!-- Generator: Adobe Illustrator 18.0.0, SVG Export Plug-In . SVG Version: 6.00 Build 0)  -->
<!DOCTYPE svg PUBLIC "-//W3C//DTD SVG 1.1//EN" "http://www.w3.org/Graphics/SVG/1.1/DTD/svg11.dtd">
<svg version="1.1" id="Layer_1" xmlns="http://www.w3.org/2000/svg" xmlns:xlink="http://www.w3.org/1999/xlink" x="0px" y="0px"
	 viewBox="0 0 2548.5 800" enable-background="new 0 0 2548.5 800" xml:space="preserve">
<g>
	<path d="M466.7,0h253.8v780.1H466.7V492.4H248v287.7H0V0h249.1L248,311.1h218.7V0z"/>
	<path d="M817.5,0h568.4v228.1h-313.4v67.8h244.4v193h-244.4v70.2h313.4v221.1H817.5V607V9.4V0z"/>
	<path d="M2134.5,0v556.7v223.4H1883h-159.1h-251.5V556.7V382.5h251.5v174.3H1883V0H2134.5z"/>
	<path d="M2249.7,584.2c8.2-19.1,19.3-35.7,33.3-49.7s30.6-25.1,49.7-33.3c19.1-8.2,39.2-12.3,60.2-12.3c21.1,0,41.1,4.1,60.2,12.3
		c19.1,8.2,35.7,19.3,49.7,33.3c14,14,25.2,30.6,33.3,49.7c8.2,19.1,12.3,39.2,12.3,60.2c0,21.1-4.1,41.1-12.3,60.2
		c-8.2,19.1-19.3,35.7-33.3,49.7c-14,14-30.6,25.2-49.7,33.3c-19.1,8.2-39.2,12.3-60.2,12.3c-21.1,0-41.1-4.1-60.2-12.3
		c-19.1-8.2-35.7-19.3-49.7-33.3c-14-14-25.2-30.6-33.3-49.7c-8.2-19.1-12.3-39.2-12.3-60.2C2237.4,623.4,2241.5,603.3,2249.7,584.2
		z M2521.6,0h-253.8l23.4,417.5h207L2521.6,0z"/>
</g>
</svg>
