<?xml version="1.0" encoding="utf-8"?>
<!-- Generator: Adobe Illustrator 18.0.0, SVG Export Plug-In . SVG Version: 6.00 Build 0)  -->
<!DOCTYPE svg PUBLIC "-//W3C//DTD SVG 1.1//EN" "http://www.w3.org/Graphics/SVG/1.1/DTD/svg11.dtd">
<svg version="1.1" id="Layer_1" xmlns="http://www.w3.org/2000/svg" xmlns:xlink="http://www.w3.org/1999/xlink" x="0px" y="0px"
	 viewBox="0 0 84.1 81.4" enable-background="new 0 0 84.1 81.4" xml:space="preserve">
<g>
	<path d="M3.3,54.2v1.3H2.7v2.6h0.7v1.3H0.1v-1.3h0.7v-2.6H0.1v-1.3H3.3z M2.7,52.9H0.7V51h1.9V52.9z"/>
	<path d="M8.1,54.2v1.9H7.4v3.2H5.5v-5.2H8.1z M11.3,54.2v5.2H9.4v-3.2H8.7v-1.9H11.3z"/>
	<path d="M13.6,54.2h1.9v5.2h-1.9V54.2z M16.2,54.2h1.9v1.9h-1.9V54.2z M16.2,57.5h1.9v1.9h-1.9V57.5z"/>
	<path d="M25.6,54.2v5.2h-1.9v-3.9h-3.2v-1.3H25.6z M20.4,56.2H23v1.3h-0.6v0.6H23v1.3h-2.6v-2.6V56.2z"/>
	<path d="M30.5,54.2v1.9h-0.6v3.2h-1.9v-5.2H30.5z M33.7,54.2v5.2h-1.9v-3.2h-0.6v-1.9H33.7z"/>
	<path d="M38.9,54.2v1.9h-1.3v1.3h1.3v1.9h-3.2v-5.2H38.9z M39.6,51h1.9v8.4h-1.9V51z"/>
	<path d="M45.8,58.1H49v1.3h-5.2v-5.2h1.9V58.1z M46.4,54.2H49v3.2h-2.6v-1.3h0.6v-0.6h-0.6V54.2z"/>
	<path d="M51.3,54.2h4.5v1.9h-2.6v0.6h-1.9v-1.9V54.2z M53.9,56.8h1.9v2.6h-4.5v-1.9h2.6V56.8z"/>
	<path d="M58.1,54.2h1.9v5.2h-1.9V54.2z M60.7,54.2h1.9v1.9h-1.9V54.2z M60.7,57.5h1.9v1.9h-1.9V57.5z"/>
	<path d="M66.9,58.1h3.2v1.3h-5.2v-5.2h1.9V58.1z M67.5,54.2h2.6v3.2h-2.6v-1.3h0.6v-0.6h-0.6V54.2z"/>
	<path d="M75,54.2v1.9h-0.6v3.2h-1.9v-5.2H75z M78.2,54.2v5.2h-1.9v-3.2h-0.6v-1.9H78.2z"/>
	<path d="M82.9,54.2h1.3v1.9h-3.9v-1.9H81V51h1.9V54.2z M82.9,57.5h1.3v1.9H81v-2.6h1.9V57.5z"/>
</g>
<g>
	<path d="M4.5,81.4H0.1V62.2h4.4v7.4h4.4v4.5H4.5V81.4z M14.9,81.4h-4.4V62.2h4.4V81.4z"/>
	<path d="M17.2,71.1v-8.9h4.4v5.9h1.5v2.9h-1.5H17.2z M26,81.4h-4.4v-8.9H26V81.4z M24.6,71.1v-2.9H26v-5.9h4.5v8.9H29H24.6z"/>
	<path d="M32.8,62.2h4.4v19.2h-4.4V62.2z M38.7,81.4V77h4.4V66.7h-4.4v-4.5h4.4v4.5h4.4v14.8H38.7z"/>
	<path d="M50.4,62.2h4.4v19.2h-4.4V62.2z M60.7,66.7h-4.5v-4.5h7.4v5.9h-3V66.7z M60.7,81.4v-7.4h-4.5v-4.5h8.9v11.8H60.7z"/>
	<path d="M75.2,62.2v4.5h-2.9V77h2.9v4.5h-7.4V62.2H75.2z M76.7,81.4V77h3V66.7h-3v-4.5h7.4v19.2H76.7z"/>
</g>
<g>
	<path d="M3.6,49.3H0V33.8h3.6V49.3z M4.8,33.8h6v3.6h-6V33.8z M9.6,43.3H4.8v-3.6h4.8V43.3z M4.8,45.7h6v3.6h-6V45.7z"/>
	<path d="M19.1,40.9v-2.4h-1.2v10.7h-3.6V33.8h6v7.2H19.1z M22.7,33.8h3.6v15.5h-6v-7.2h1.2v2.4h1.2V33.8z"/>
	<path d="M33.4,49.3h-3.6V33.8h3.6V49.3z M34.6,33.8h6v3.6h-6V33.8z M39.4,43.3h-4.8v-3.6h4.8V43.3z M34.6,45.7h6v3.6h-6V45.7z"/>
	<path d="M44.2,33.8h3.6v15.5h-3.6V33.8z M52.5,37.4h-3.6v-3.6h6v4.8h-2.4V37.4z M52.5,49.3v-6h-3.6v-3.6h7.2v9.6H52.5z"/>
	<path d="M63.2,49.3h-3.6V33.8h3.6V49.3z M64.4,33.8h6v3.6h-6V33.8z M66.8,40.9h3.6v8.4h-6v-3.6H68v-2.4h-1.2V40.9z"/>
	<path d="M73.5,40.9v-7.2h3.6v4.8h1.2v2.4h-1.2H73.5z M80.7,49.3h-3.6v-7.2h3.6V49.3z M79.5,40.9v-2.4h1.2v-4.8h3.6v7.2h-1.2H79.5z"
		/>
</g>
<g>
	<g>
		<path d="M1.6,6.7H0V0h1.5V6.7z M5.2,1.6H2.1V0h3.1V1.6z M2.1,6.7V5.2h3.1v1.6H2.1z"/>
		<path d="M11.2,0v1.6h-1v3.6h1v1.6H8.7V0H11.2z M11.8,6.7V5.2h1V1.6h-1V0h2.6v6.7H11.8z"/>
		<path d="M19.9,2.1h-0.5v4.6h-1.5V0h2.6v2.6h-0.5C19.9,2.6,19.9,2.1,19.9,2.1z M20.4,3.1h1v1.6h-1V3.1z M22.4,2.1h-0.5v0.5h-0.5V0
			H24v6.7h-1.5L22.4,2.1L22.4,2.1z"/>
		<path d="M29,6.7h-1.5V0H29V6.7z M32.6,0v4.1h-3.1V2.6h1.5v-1h-1.5V0H32.6z"/>
		<path d="M38.5,0v1.6h-1v3.6h1v1.6h-2.6V0H38.5z M39,6.7V5.2h1V1.6h-1V0h2.6v6.7H39z"/>
		<path d="M47.1,2.1h-0.5v4.6h-1.5V0h2.6v2.6h-0.5V2.1z M47.6,3.1h1v1.6h-1V3.1z M49.7,2.1h-0.5v0.5h-0.5V0h2.6v6.7h-1.6V2.1z"/>
		<path d="M56.3,6.7h-1.5V0h1.5V6.7z M56.8,0h2.6v1.6h-2.6V0z M58.9,4.1h-2.1V2.6h2.1V4.1z M56.8,5.2h2.6v1.6h-2.6V5.2z"/>
		<path d="M64.9,3.1v-1h-0.5v4.6h-1.5V0h2.6v3.1H64.9z M66.4,0H68v6.7h-2.6V3.6h0.5v1h0.5L66.4,0L66.4,0z"/>
		<path d="M71.3,0H76v1.6h-4.6V0z M74.4,6.7h-1.5V2.1h1.5V6.7z"/>
		<path d="M82.4,6.7V4.1h-3.1V0h1.5v2.6H84v4.1H82.4z M79.3,6.7V5.2h2.6v1.6H79.3z M84,1.6h-2.6V0H84V1.6z"/>
	</g>
	<g>
		<path d="M0.1,11.3h2v5.4h-2V11.3z M2.8,11.3h2v2h-2V11.3z M2.8,14.7h2v2h-2V14.7z"/>
		<path d="M9.8,11.3v2H9.1v1.4h0.7v2H7.1v-5.4L9.8,11.3L9.8,11.3z M13.2,11.3v5.4h-2.7v-2.1h0.7v-1.4h-0.7v-2H13.2z"/>
		<path d="M18.2,11.3v2h-0.7v3.4h-2v-5.4L18.2,11.3L18.2,11.3z M21.6,11.3v5.4h-2v-3.4h-0.7v-2L21.6,11.3L21.6,11.3z"/>
		<path d="M27.1,11.3v2h-1.4v1.4h1.4v2h-3.4v-5.4h1.4L27.1,11.3L27.1,11.3z M27.8,7.9h2v8.8h-2V7.9z"/>
		<path d="M34.2,14.7h0.7v2h-2.7v-5.4h2L34.2,14.7L34.2,14.7z M35.5,11.3h2v5.4h-2L35.5,11.3L35.5,11.3z"/>
		<path d="M39.9,11.3h2v5.4h-2V11.3z M42.6,11.3h2v2h-2V11.3z M42.6,14.7h2v2h-2V14.7z"/>
		<path d="M49.5,11.3h1.4v2h-4.1v-2h0.7V7.9h2L49.5,11.3L49.5,11.3z M49.5,14.7h1.4v2h-3.4V14h2V14.7z"/>
		<path d="M56.4,11.3v1.4h-0.7v2.7h0.7v1.4H53v-1.4h0.7v-2.7H53v-1.4H56.4z M55.7,9.9h-2v-2h2V9.9z"/>
		<path d="M58.6,11.3h2v5.4h-2V11.3z M62,11.3h2v4.1h-0.7v1.4h-2v-2H62V11.3z"/>
		<path d="M69.7,11.3v1.4H69v2.7h0.7v1.4h-3.4v-1.4H67v-2.7h-0.7v-1.4H69.7z M69,9.9h-2v-2h2V9.9z"/>
		<path d="M74.5,11.3h1.4v2h-4.1v-2h0.7V7.9h2L74.5,11.3L74.5,11.3z M74.5,14.7h1.4v2h-3.4V14h2L74.5,14.7L74.5,14.7z"/>
		<path d="M80,14.7h1.4v2H78v-5.4h2L80,14.7L80,14.7z M82.1,11.3h2v7.5h-2V11.3z"/>
	</g>
	<g>
		<path d="M0,29.8v-1.4h0.7v-6.4H0v-1.4h3.6v1.4H2.9v6.4h0.7v1.4H2.9H0z"/>
		<path d="M8.9,24.8v-1.4H8.1v6.4H6v-9.3h3.6v4.3L8.9,24.8L8.9,24.8z M11,20.5h2.1v9.3H9.6v-4.3h0.7v1.4H11L11,20.5L11,20.5z"/>
		<path d="M19.8,29.8v-3.6h-4.3v-5.7h2.1v3.6H22v5.7H19.8z M15.5,29.8v-2.1h3.6v2.1H15.5z M22,22.6h-3.6v-2.1H22V22.6z"/>
		<path d="M24.4,20.5h2.1v9.3h-2.1C24.4,29.8,24.4,20.5,24.4,20.5z M27.2,27.6h2.1v-7.1h2.1v9.3h-4.3L27.2,27.6L27.2,27.6z"/>
		<path d="M33.9,20.5H36v9.3h-2.1V20.5z M40.3,29.8h-3.6v-2.1h3.6V29.8z"/>
		<path d="M44.7,29.8h-2.1v-9.3h2.1v3.6h2.1v2.1h-2.1V29.8z M47.5,22.6h-2.1v-2.1h4.3v9.3h-2.1L47.5,22.6L47.5,22.6z"/>
		<path d="M51.9,20.5h6.4v2.1h-6.4V20.5z M56.2,29.8h-2.1v-6.4h2.1V29.8z"/>
		<path d="M60.6,29.8v-1.4h0.7v-6.4h-0.7v-1.4h3.6v1.4h-0.7v6.4h0.7v1.4h-0.7H60.6z"/>
		<path d="M70.2,20.5v2.1h-1.4v5h1.4v2.1h-3.6v-9.3L70.2,20.5L70.2,20.5z M70.9,29.8v-2.1h1.4v-5h-1.4v-2.1h3.6v9.3L70.9,29.8
			L70.9,29.8z"/>
		<path d="M79.7,24.8v-1.4H79v6.4h-2.1v-9.3h3.6v4.3L79.7,24.8L79.7,24.8z M81.9,20.5H84v9.3h-3.6v-4.3h0.7v1.4h0.7L81.9,20.5
			L81.9,20.5z"/>
	</g>
</g>
</svg>
