<?xml version="1.0" encoding="utf-8"?>
<!-- Generator: Adobe Illustrator 18.0.0, SVG Export Plug-In . SVG Version: 6.00 Build 0)  -->
<!DOCTYPE svg PUBLIC "-//W3C//DTD SVG 1.1//EN" "http://www.w3.org/Graphics/SVG/1.1/DTD/svg11.dtd">
<svg version="1.1" id="Layer_1" xmlns="http://www.w3.org/2000/svg" xmlns:xlink="http://www.w3.org/1999/xlink" x="0px" y="0px"
	 viewBox="0 0 82.2 84" enable-background="new 0 0 82.2 84" xml:space="preserve">
<g>
	<path d="M1.5,6.1H0.1V0h1.4v2.3h1.4v1.4H1.5V6.1z M4.7,6.1H3.3V0h1.4V6.1z"/>
	<path d="M9.3,2.3v3.7H7.9V3.3H5.6V2.3H9.3z M5.6,3.7h1.9v0.9H7v0.5h0.5v0.9H5.6V4.2V3.7z"/>
	<path d="M10.2,2.3h1.4v3.7h-1.4V2.3z M13.9,2.3v3.7h-1.4V3.7H12V2.3H13.9z M16.2,2.3v3.7h-1.4V3.7h-0.5V2.3H16.2z"/>
	<path d="M17.1,2.3h1.4v3.7h-1.4V2.3z M20.8,2.3v3.7h-1.4V3.7H19V2.3H20.8z M23.2,2.3v3.7h-1.4V3.7h-0.5V2.3H23.2z"/>
	<path d="M25.4,5.1h2.3v0.9H24V2.3h1.4V5.1z M25.9,2.3h1.9v2.3h-1.9V3.7h0.5V3.3h-0.5V2.3z"/>
	<path d="M28.6,2.3H30v3.7h-1.4V2.3z M30.5,2.3h1.4v1.4h-1.4V2.3z"/>
	<path d="M40.6,6.1V3.7h-2.8V0h1.4v2.3h2.8v3.7H40.6z M37.8,6.1V4.7h2.3v1.4H37.8z M41.9,1.4h-2.3V0h2.3V1.4z"/>
	<path d="M44.5,2.3h0.9v1.4h-2.8V2.3h0.5V0h1.4V2.3z M44.5,4.7h0.9v1.4h-2.3V4.2h1.4V4.7z"/>
	<path d="M46.2,2.3h1.4v3.7h-1.4V2.3z M48,2.3h1.4v1.4H48V2.3z"/>
	<path d="M53.8,2.3v3.7h-1.4V3.3h-2.3V2.3H53.8z M50.1,3.7h1.9v0.9h-0.5v0.5h0.5v0.9h-1.9V4.2V3.7z"/>
	<path d="M58.9,6.1h-2.3V4.7h0.9V3.7H57V2.3h0.5V1.4h-1.4V7h-1.4V0h2.8v1.4h1.4V6.1z"/>
	<path d="M61.1,5.1h2.3v0.9h-3.7V2.3h1.4V5.1z M61.6,2.3h1.9v2.3h-1.9V3.7H62V3.3h-0.5V2.3z"/>
	<path d="M69.3,0h0.9v1.4h-0.9V0z M72.1,6.1h-1.4V0h1.4V6.1z"/>
	<path d="M77.2,0v1.4h-3.7v0.5H73V0h0.5H77.2z M77.2,2.3v3.7h-1.4V3.7H73V2.3h2.8H77.2z M75.3,6.1H73V4.7h2.3V6.1z"/>
	<path d="M80.8,3.7H78V2.3h2.8V0h1.4v6.1h-1.4V3.7z M80.3,1.4H78V0h2.3V1.4z M80.3,6.1H78V4.7h2.3V6.1z"/>
	<path d="M8.2,26.2V20H0.8v-9.9h3.7v6.2h7.4v9.9H8.2z M0.8,26.2v-3.7H7v3.7H0.8z M11.9,13.8H5.7v-3.7h6.2V13.8z"/>
	<path d="M17.6,26.2h-3.7V10.1h3.7v6.2h3.7V20h-3.7V26.2z M22.6,13.8h-3.7v-3.7h7.4v16.1h-3.7V13.8z"/>
	<path d="M27.8,10.1H39v3.7H27.8V10.1z M35.3,26.2h-3.7V15.1h3.7V26.2z"/>
	<path d="M40.5,10.1h3.7v16.1h-3.7V10.1z M45.5,22.5h3.7V10.1h3.7v16.1h-7.4V22.5z"/>
	<path d="M54.8,10.1h3.7v16.1h-3.7V10.1z M63.5,13.8h-3.7v-3.7H66v5h-2.5V13.8z M63.5,26.2V20h-3.7v-3.7h7.4v9.9H63.5z"/>
	<path d="M74,17.5v-2.5h-1.2v11.2h-3.7V10.1h6.2v7.4H74z M77.8,10.1h3.7v16.1h-6.2v-7.4h1.2v2.5h1.2V10.1z"/>
	<path d="M1.2,35.6H0v-5h1.2V35.6z M1.6,30.6h1.9v1.2H1.6V30.6z M1.6,32.5h1.5v1.2H1.6V32.5z"/>
	<path d="M5.9,30.6v1.2H5.2v2.7h0.8v1.2H4v-5H5.9z M6.3,35.6v-1.2h0.8v-2.7H6.3v-1.2h1.9v5H6.3z"/>
	<path d="M10.5,32.9v-0.8h-0.4v3.5H9v-5h1.9v2.3H10.5z M11.7,30.6h1.2v5h-1.9v-2.3h0.4V34h0.4V30.6z"/>
	<path d="M13.4,30.6h3.5v1.2h-3.5V30.6z M15.8,35.6h-1.2v-3.5h1.2V35.6z"/>
	<path d="M19.8,35.6v-1.9h-2.3v-3.1h1.2v1.9H21v3.1H19.8z M17.5,35.6v-1.2h1.9v1.2H17.5z M21,31.7h-1.9v-1.2H21V31.7z"/>
	<path d="M25.3,35.6h-1.2v-5h1.2V35.6z M25.7,30.6h1.9v1.2h-1.9V30.6z M25.7,32.5h1.5v1.2h-1.5V32.5z"/>
	<path d="M30,30.6v1.2h-0.8v2.7H30v1.2h-1.9v-5H30z M30.4,35.6v-1.2h0.8v-2.7h-0.8v-1.2h1.9v5H30.4z"/>
	<path d="M33.1,30.6h1.2v5h-1.2V30.6z M35.8,31.7h-1.2v-1.2h1.9v1.6h-0.8V31.7z M35.8,35.6v-1.9h-1.2v-1.2H37v3.1H35.8z"/>
	<path d="M42.4,35.6v-1.9H40v-3.1h1.2v1.9h2.3v3.1H42.4z M40,35.6v-1.2H42v1.2H40z M43.5,31.7h-1.9v-1.2h1.9V31.7z"/>
	<path d="M45.4,35.6h-1.2v-5h1.2V35.6z M48.1,30.6v3.1h-2.3v-1.2H47v-0.8h-1.2v-1.2H48.1z"/>
	<path d="M49.8,35.6h-1.2v-5h1.2v1.9H51v1.2h-1.2V35.6z M51.4,31.7h-1.2v-1.2h2.3v5h-1.2V31.7z"/>
	<path d="M54.5,35.6h-1.2v-5h1.2V35.6z M57.2,31.7h-2.3v-1.2h2.3V31.7z M54.8,35.6v-1.2h2.3v1.2H54.8z"/>
	<path d="M59.1,35.6h-1.2v-5h1.2V35.6z M59.5,30.6h1.9v1.2h-1.9V30.6z M61,33.7h-1.6v-1.2H61V33.7z M59.5,34.4h1.9v1.2h-1.9V34.4z"
		/>
	<path d="M64.5,35.6v-1.9h-2.3v-3.1h1.2v1.9h2.3v3.1H64.5z M62.1,35.6v-1.2h1.9v1.2H62.1z M65.6,31.7h-1.9v-1.2h1.9V31.7z"/>
	<path d="M67.5,35.6h-1.2v-5h1.2v1.9h1.2v1.2h-1.2V35.6z M70.2,35.6h-1.2v-5h1.2V35.6z"/>
	<path d="M71,35.6v-0.8h0.4v-3.5H71v-0.8h1.9v0.8h-0.4v3.5h0.4v0.8h-0.4H71z"/>
	<path d="M74.8,35.6h-1.2v-5h1.2V35.6z M77.5,30.6v3.1h-2.3v-1.2h1.2v-0.8h-1.2v-1.2H77.5z"/>
	<path d="M80.4,35.6v-1.9H78v-3.1h1.2v1.9h2.3v3.1H80.4z M78,35.6v-1.2H80v1.2H78z M81.5,31.7h-1.9v-1.2h1.9V31.7z"/>
	<path d="M0.4,39.9h2.3V50H0.4V39.9z M3.5,50v-2.3h2.3v-5.4H3.5v-2.3h2.3v2.3h2.3V50H3.5z"/>
	<path d="M10.1,50v-1.5h0.8v-7h-0.8v-1.6H14v1.6h-0.8v7H14V50h-0.8H10.1z"/>
	<path d="M18.3,50H16V39.9h2.3V50z M23.8,39.9v6.2h-4.6v-2.3h2.3v-1.5h-2.3v-2.3H23.8z"/>
	<path d="M25.4,39.9h2.3V50h-2.3V39.9z M32.4,50h-3.9v-2.3h3.9V50z"/>
	<path d="M37.8,39.9v2.3h-1.5v5.4h1.5V50h-3.9V39.9H37.8z M38.6,50v-2.3h1.6v-5.4h-1.6v-2.3h3.9V50H38.6z"/>
	<path d="M47.6,43h-0.8v7h-2.3V39.9h3.9v3.9h-0.8V43z M48.3,44.6h1.6v2.3h-1.6V44.6z M51.5,43h-0.8v0.8h-0.8v-3.9h3.9V50h-2.3V43z"
		/>
	<path d="M58.1,50h-2.3V39.9h2.3v3.9h2.3v2.3h-2.3V50z M61.2,42.3h-2.3v-2.3h4.6V50h-2.3V42.3z"/>
	<path d="M68,50h-2.3V39.9H68V50z M73.4,42.3h-4.7v-2.3h4.7V42.3z M68.7,50v-2.3h4.7V50H68.7z"/>
	<path d="M75.2,44.6v-4.7h2.3V43h0.8v1.5h-0.8H75.2z M79.8,50h-2.3v-4.7h2.3V50z M79.1,44.6V43h0.7v-3.1h2.3v4.7h-0.8H79.1z"/>
	<path d="M6.6,84v-5.5H0v-8.8h3.3v5.5h6.6V84H6.6z M0,84v-3.3h5.5V84H0z M9.9,73H4.4v-3.3h5.5V73z"/>
	<path d="M11.4,76.3v-6.6h3.3v4.4h1.1v2.2h-1.1H11.4z M18,84h-3.3v-6.6H18V84z M16.9,76.3v-2.2H18v-4.4h3.3v6.6h-1.1H16.9z"/>
	<path d="M29.4,84v-5.5h-6.6v-8.8h3.3v5.5h6.6V84H29.4z M22.8,84v-3.3h5.5V84H22.8z M32.7,73h-5.5v-3.3h5.5V73z"/>
	<path d="M34.1,69.7H44V73h-9.9V69.7z M40.7,84h-3.3v-9.9h3.3V84z"/>
	<path d="M48.8,84h-3.3V69.7h3.3V84z M49.9,69.7h5.5V73h-5.5V69.7z M54.3,78.5h-4.4v-3.3h4.4V78.5z M49.9,80.7h5.5V84h-5.5V80.7z"/>
	<path d="M61.7,74.1h-1.1V84h-3.3V69.7h5.5v5.5h-1.1V74.1z M62.7,76.3H65v3.3h-2.2V76.3z M67.2,74.1h-1.1v1.1H65v-5.5h5.5V84h-3.3
		V74.1z"/>
	<path d="M78.9,84v-5.5h-6.6v-8.8h3.3v5.5h6.6V84H78.9z M72.3,84v-3.3h5.5V84H72.3z M82.2,73h-5.5v-3.3h5.5V73z"/>
	<path d="M2.7,63.2H0.4V53.2h2.3V63.2z M3.5,53.2h3.9v2.3H3.5V53.2z M6.6,59.4H3.5V57h3.1V59.4z M3.5,60.9h3.9v2.3H3.5V60.9z"/>
	<path d="M12.9,57v2.3h-0.8v3.9H9.8V57H12.9z M16.8,57v6.2h-2.3v-3.9h-0.8V57H16.8z"/>
	<path d="M22.1,57h1.6v2.3H19V57h0.8v-3.9h2.3V57z M22.1,60.9h1.6v2.3h-3.9v-3.1h2.3V60.9z"/>
	<path d="M28.3,61.7h3.9v1.5h-6.2V57h2.3V61.7z M29.1,57h3.1v3.9h-3.1v-1.6h0.8v-0.8h-0.8V57z"/>
	<path d="M38.2,59.4h-1.6v3.9h-2.3V57h3.9V59.4z M39,57h2.3v8.5H39v-2.3h-1.6v-2.3H39V57z"/>
	<path d="M43.8,57h2.3v6.2h-2.3V57z M46.9,57h2.3v2.3h-2.3V57z"/>
	<path d="M57.5,57v6.2h-2.3v-4.7h-3.9V57H57.5z M51.3,59.4h3.1v1.6h-0.8v0.8h0.8v1.5h-3.1v-3.1V59.4z"/>
	<path d="M62.8,57h1.6v2.3h-4.7V57h0.8v-3.9h2.3V57z M62.8,60.9h1.6v2.3h-3.9v-3.1h2.3V60.9z"/>
	<path d="M68.9,61.7h3.9v1.5h-6.2V57h2.3V61.7z M69.7,57h3.1v3.9h-3.1v-1.6h0.8v-0.8h-0.8V57z"/>
	<path d="M78.8,57v2.3h-1.5v1.5h1.5v2.3h-3.9V57H78.8z M79.6,53.2h2.3v10.1h-2.3V53.2z"/>
</g>
</svg>
