<?xml version="1.0" encoding="utf-8"?>
<!-- Generator: Adobe Illustrator 18.0.0, SVG Export Plug-In . SVG Version: 6.00 Build 0)  -->
<!DOCTYPE svg PUBLIC "-//W3C//DTD SVG 1.1//EN" "http://www.w3.org/Graphics/SVG/1.1/DTD/svg11.dtd">
<svg version="1.1" id="Layer_1" xmlns="http://www.w3.org/2000/svg" xmlns:xlink="http://www.w3.org/1999/xlink" x="0px" y="0px"
	 viewBox="0 0 1608.5 800" enable-background="new 0 0 1608.5 800" xml:space="preserve">
<g>
	<path d="M107.1,10c6.8,4.7,12.3,10.5,16.3,17.5c3.9,6.4,6.9,13.3,9,20.8c2.1,7.5,3.4,15.2,3.8,22.9c0.5,7.8,0.2,15.4-0.8,22.9
		c-1,7.5-2.7,14.5-5,20.8c-2,5.6-4.6,10.9-7.7,15.8c-3.1,5-7.1,9.4-12.1,13.3c-3.6,3.4-8.6,5.9-15.1,7.4c-0.8,0.3-3.7,1-8.7,2.1
		c-5,1.1-11.1,1.6-18.3,1.6H0V97.8V8.4V0h54c4.7,0,9.2,0,13.6,0c4.4,0,8.8,0.3,13.3,0.8c4.4,0.5,8.8,1.5,13.2,2.9
		C98.4,5.1,102.7,7.2,107.1,10z M63.8,112.7c3.9,0,7.1-1.2,9.8-3.7c2.6-2.5,4.7-5.5,6.3-9.2c1.5-3.6,2.6-7.6,3.3-11.8
		c0.6-4.2,0.9-8,0.9-11.4c0-3.4-0.4-7.1-1.3-10.9c-0.9-3.9-2.2-7.4-4-10.7c-1.8-3.3-3.9-5.9-6.4-8c-2.5-2.1-5.4-3.1-8.6-3.1H51.4
		v68.9h9.8h0.5H63.8z"/>
	<path d="M153.4,0h113.1v45.4h-62.4v13.5h48.6v38.4h-48.6v14h62.4v44H153.4v-34.5V1.9V0z"/>
	<path d="M372.9,0h112.4v42.1h-62.8v19.8H476V98h-53.5v57.3h-49.6V1.9V0z"/>
	<path d="M545.9,0v37h-50V0H545.9z M500.7,90.5c0-9.5,1.8-18.4,5.4-26.8c3.6-8.4,8.5-15.7,14.7-21.9c6.2-6.2,13.5-11.1,21.9-14.7
		c8.4-3.6,17.3-5.4,26.8-5.4c9.5,0,18.4,1.8,26.8,5.4c8.4,3.6,15.7,8.5,21.9,14.7c6.2,6.2,11.1,13.5,14.7,21.9
		c3.6,8.4,5.4,17.3,5.4,26.8c0,9.5-1.8,18.4-5.4,26.8c-3.6,8.4-8.5,15.7-14.7,21.9c-6.2,6.2-13.5,11.1-21.9,14.7s-17.3,5.4-26.8,5.4
		c-9.5,0-18.4-1.8-26.8-5.4c-8.4-3.6-15.7-8.5-21.9-14.7c-6.2-6.2-11.1-13.5-14.7-21.9C502.5,108.9,500.7,100,500.7,90.5z M548.4,91
		c0,5.9,2,10.9,6.1,14.9c4,4,9,6.1,14.9,6.1c5.9,0,10.9-2,15-6.1c4.1-4,6.2-9,6.2-14.9c0-5.9-2.1-10.9-6.2-15
		c-4.1-4.1-9.1-6.2-15-6.2c-5.9,0-10.9,2.1-14.9,6.2C550.4,80.1,548.4,85.1,548.4,91z M645.3,0v37h-50V0H645.3z"/>
	<path d="M786.8,51.9c0,8.2-1.2,15.8-3.7,22.6c-2.5,6.8-6,12.7-10.5,17.5l21.9,63.3h-49.1l-16.5-49.3h-16.5v49.3h-50.5V0h83.8v0.2
		c5.6,0.5,10.9,2.3,15.9,5.5c5,3.2,9.4,7.2,13.2,12c3.7,4.8,6.7,10.2,8.8,16.2C785.7,39.8,786.8,45.9,786.8,51.9z M712.5,73.6h13.3
		c2.6-0.6,4.7-2.3,6.2-5.1c1.5-2.8,2.2-5.6,2.2-8.4c0-1.4-0.2-2.9-0.6-4.5c-0.4-1.6-0.9-3.2-1.6-4.7c-0.7-1.5-1.6-2.7-2.7-3.7
		c-1.1-1-2.3-1.5-3.5-1.5h-13.3V73.6z"/>
	<path d="M917.8,10c6.8,4.7,12.3,10.5,16.3,17.5c3.9,6.4,6.9,13.3,9,20.8c2.1,7.5,3.4,15.2,3.8,22.9c0.5,7.8,0.2,15.4-0.8,22.9
		c-1,7.5-2.7,14.5-5,20.8c-2,5.6-4.6,10.9-7.7,15.8c-3.1,5-7.1,9.4-12.1,13.3c-3.6,3.4-8.6,5.9-15.1,7.4c-0.8,0.3-3.7,1-8.7,2.1
		c-5,1.1-11.1,1.6-18.3,1.6h-68.4V97.8V8.4V0h54c4.7,0,9.2,0,13.6,0s8.8,0.3,13.3,0.8c4.4,0.5,8.8,1.5,13.2,2.9
		C909.1,5.1,913.5,7.2,917.8,10z M874.5,112.7c3.9,0,7.1-1.2,9.8-3.7c2.6-2.5,4.7-5.5,6.3-9.2c1.5-3.6,2.6-7.6,3.3-11.8
		c0.6-4.2,0.9-8,0.9-11.4c0-3.4-0.4-7.1-1.3-10.9c-0.9-3.9-2.2-7.4-4-10.7c-1.8-3.3-3.9-5.9-6.4-8c-2.5-2.1-5.4-3.1-8.6-3.1h-12.3
		v68.9h9.8h0.5H874.5z"/>
	<path d="M1011.9,0v37h-50V0H1011.9z M966.7,90.5c0-9.5,1.8-18.4,5.4-26.8c3.6-8.4,8.5-15.7,14.7-21.9c6.2-6.2,13.5-11.1,21.9-14.7
		c8.4-3.6,17.3-5.4,26.8-5.4c9.5,0,18.4,1.8,26.8,5.4c8.4,3.6,15.7,8.5,21.9,14.7c6.2,6.2,11.1,13.5,14.7,21.9
		c3.6,8.4,5.4,17.3,5.4,26.8c0,9.5-1.8,18.4-5.4,26.8c-3.6,8.4-8.5,15.7-14.7,21.9c-6.2,6.2-13.5,11.1-21.9,14.7s-17.3,5.4-26.8,5.4
		c-9.5,0-18.4-1.8-26.8-5.4c-8.4-3.6-15.7-8.5-21.9-14.7c-6.2-6.2-11.1-13.5-14.7-21.9C968.5,108.9,966.7,100,966.7,90.5z
		 M1014.4,91c0,5.9,2,10.9,6.1,14.9c4,4,9,6.1,14.9,6.1c5.9,0,10.9-2,15-6.1c4.1-4,6.2-9,6.2-14.9c0-5.9-2.1-10.9-6.2-15
		c-4.1-4.1-9.1-6.2-15-6.2c-5.9,0-10.9,2.1-14.9,6.2C1016.5,80.1,1014.4,85.1,1014.4,91z M1111.3,0v37h-50V0H1111.3z"/>
	<path d="M1294.5,0h16.3v155.3h-50.5V54l-39.6,59.4l-42.8-61.7v103.6h-50V0h16.5h33.6h82.4H1294.5z"/>
	<path d="M1437.1,10c6.8,4.7,12.3,10.5,16.3,17.5c3.9,6.4,6.9,13.3,9,20.8c2.1,7.5,3.4,15.2,3.8,22.9c0.5,7.8,0.2,15.4-0.8,22.9
		c-1,7.5-2.7,14.5-5,20.8c-2,5.6-4.6,10.9-7.7,15.8c-3.1,5-7.1,9.4-12.1,13.3c-3.6,3.4-8.6,5.9-15.1,7.4c-0.8,0.3-3.7,1-8.7,2.1
		c-5,1.1-11.1,1.6-18.3,1.6h-68.4V97.8V8.4V0h54c4.7,0,9.2,0,13.6,0s8.8,0.3,13.3,0.8c4.4,0.5,8.8,1.5,13.2,2.9
		C1428.5,5.1,1432.8,7.2,1437.1,10z M1393.9,112.7c3.9,0,7.1-1.2,9.8-3.7c2.6-2.5,4.7-5.5,6.3-9.2c1.5-3.6,2.6-7.6,3.3-11.8
		c0.6-4.2,0.9-8,0.9-11.4c0-3.4-0.4-7.1-1.3-10.9c-0.9-3.9-2.2-7.4-4-10.7c-1.8-3.3-3.9-5.9-6.4-8c-2.5-2.1-5.4-3.1-8.6-3.1h-12.3
		v68.9h9.8h0.5H1393.9z"/>
	<path d="M1568,0h40.5v155.3h-50l-0.2-36.8h-23.5l-0.2,36.8h-51V0h40.5H1568z M1558.2,82.9l-0.2-37.5h-22.8l-0.5,37.5H1558.2z"/>
	<path d="M149.4,186.2l-44.9,55.4l42.8,99.9H99.2L71.5,280L50,304.9v36.5H0V186.2h50V240l44.7-53.8H149.4z"/>
	<path d="M269,186.2H322l-32.8,155.3h-36.3h-16.1h-35.1L170,186.2h51.4l23.7,115.7L269,186.2z"/>
	<path d="M415.7,297.5h20.5v44h-91.9v-44h21.4v-65.9h-19.6v-45.4h87.8v45.4h-18.2V297.5z"/>
	<path d="M567.6,186.2h50v155.3h-0.9h-49.1l-56.3-82.2v82.2h-49.6V186.2h49.6l56.3,83.6V186.2z"/>
	<path d="M749.5,186.2h50v155.3h-0.9h-49.1l-56.3-82.2v82.2h-49.6V186.2h49.6l56.3,83.6V186.2z"/>
	<path d="M901.1,182.7c10.7,0,20.8,2.1,30.4,6.3c9.5,4.2,17.9,10,25,17.3c7.1,7.4,12.8,16.1,16.9,26.1c4.1,10,6.2,20.8,6.2,32.2
		c0,11.2-2.1,21.7-6.2,31.5c-4.1,9.9-9.7,18.4-16.9,25.7c-7.1,7.3-15.5,13-25,17.2c-9.5,4.2-19.7,6.3-30.4,6.3
		c-10.9,0-21.1-2.1-30.7-6.3c-9.6-4.2-18-9.9-25.1-17.2c-7.1-7.3-12.8-15.9-16.9-25.7c-4.1-9.9-6.2-20.4-6.2-31.5
		c0-11.5,2.1-22.2,6.2-32.2c4.1-10,9.7-18.7,16.9-26.1c7.1-7.4,15.5-13.2,25.1-17.3C880,184.8,890.3,182.7,901.1,182.7z
		 M901.1,298.4c4.7,0,9-0.9,13-2.6c4-1.7,7.6-4.1,10.7-7.1c3.1-3,5.5-6.6,7.3-10.7c1.8-4.1,2.7-8.6,2.7-13.4c0-4.7-0.9-9.1-2.7-13.3
		c-1.8-4.2-4.2-7.8-7.3-10.8c-3.1-3-6.7-5.4-10.7-7.2c-4-1.8-8.4-2.7-13-2.7s-9.1,0.9-13.3,2.7c-4.2,1.8-7.8,4.2-10.9,7.2
		c-3.1,3-5.5,6.6-7.3,10.8c-1.8,4.2-2.7,8.6-2.7,13.3c0,4.8,0.9,9.3,2.7,13.4c1.8,4.1,4.2,7.7,7.3,10.7c3.1,3,6.7,5.4,10.9,7.1
		C892,297.6,896.5,298.4,901.1,298.4z"/>
	<path d="M1127.2,238.1c0,8.2-1.2,15.8-3.7,22.6c-2.5,6.8-6,12.7-10.5,17.5l21.9,63.3h-49.1l-16.5-49.3h-16.5v49.3h-50.5V186.2h83.8
		v0.2c5.6,0.5,10.9,2.3,15.9,5.5c5,3.2,9.4,7.2,13.2,12c3.7,4.8,6.7,10.2,8.8,16.2C1126.2,226.1,1127.2,232.1,1127.2,238.1z
		 M1053,259.8h13.3c2.6-0.6,4.7-2.3,6.2-5.1c1.5-2.8,2.2-5.6,2.2-8.4c0-1.4-0.2-2.9-0.6-4.5c-0.4-1.6-0.9-3.2-1.6-4.7
		c-0.7-1.5-1.6-2.7-2.7-3.7c-1.1-1-2.3-1.5-3.5-1.5H1053V259.8z"/>
	<path d="M1263.8,186.2h50v155.3h-0.9h-49.1l-56.3-82.2v82.2h-49.6V186.2h49.6l56.3,83.6V186.2z"/>
	<path d="M1424.2,186.2h40.5v155.3h-50l-0.2-36.8H1391l-0.2,36.8h-51V186.2h40.5H1424.2z M1414.5,269.1l-0.2-37.5h-22.8l-0.5,37.5
		H1414.5z"/>
	<path d="M1568.4,186.2h40v45.4h-51.2h-4h-11.9l-0.2,17h67.3V284v57.7h-15.6h-35.1h-67v-44.5h67V284H1541h-19.1h-31.2v-97.8h40.5
		H1568.4z"/>
	<g>
		<path d="M289.2,407.1c18.4,12.6,33.1,28.3,44,47.1c10.5,17.2,18.5,35.9,24.2,56.3c5.7,20.3,9.1,41,10.4,61.9
			c1.3,21,0.5,41.6-2.2,61.9c-2.7,20.3-7.2,39.1-13.5,56.3c-5.5,15.1-12.4,29.3-20.7,42.7c-8.4,13.4-19.3,25.4-32.7,35.8
			c-9.6,9.2-23.3,15.9-40.9,20.1c-2.1,0.8-10,2.7-23.6,5.7c-13.6,2.9-30.1,4.4-49.3,4.4H0V644.1V402.7v-22.6h145.8
			c12.6,0,24.8,0,36.8,0c11.9,0,23.9,0.7,35.8,2.2c11.9,1.5,23.8,4.1,35.5,7.9C265.7,393.9,277.4,399.6,289.2,407.1z M172.2,684.3
			c10.5,0,19.3-3.3,26.4-10.1c7.1-6.7,12.8-15,17-24.8c4.2-9.8,7.1-20.4,8.8-31.7c1.7-11.3,2.5-21.6,2.5-30.8
			c0-9.2-1.2-19.1-3.5-29.5c-2.3-10.5-5.9-20.1-10.7-28.9c-4.8-8.8-10.6-16-17.3-21.7c-6.7-5.7-14.5-8.5-23.3-8.5h-33.3v186.1h26.4
			h1.3H172.2z"/>
		<path d="M646.8,380.1h109.4v419.3H621l-0.6-99.3h-63.5l-0.6,99.3H418.6V380.1H528H646.8z M620.4,603.9l-0.6-101.2h-61.6
			l-1.3,101.2H620.4z"/>
		<path d="M1098.7,380.1h135.2v419.3h-2.5h-132.6L946.6,577.5v221.9H812.7V380.1h133.9l152.1,225.7V380.1z"/>
		<path d="M1500.3,380.1h108.1v122.6h-138.3h-10.7h-32.1l-0.6,45.9h181.7v95.6V800h-42.1h-94.9h-181V679.9h181v-35.8h-45.3h-51.5
			h-84.2v-264h109.4H1500.3z"/>
	</g>
</g>
</svg>
