<?xml version="1.0" encoding="utf-8"?>
<!-- Generator: Adobe Illustrator 18.0.0, SVG Export Plug-In . SVG Version: 6.00 Build 0)  -->
<!DOCTYPE svg PUBLIC "-//W3C//DTD SVG 1.1//EN" "http://www.w3.org/Graphics/SVG/1.1/DTD/svg11.dtd">
<svg version="1.1" id="Layer_1" xmlns="http://www.w3.org/2000/svg" xmlns:xlink="http://www.w3.org/1999/xlink" x="0px" y="0px"
	 viewBox="0 0 234.8 355" enable-background="new 0 0 234.8 355" xml:space="preserve">
<g>
	<path fill="#000000" d="M34.6,24.6v24.1h-9V30.7H10.6v-6H34.6z M10.6,33.7h12v6h-3v3h3v6h-12v-12V33.7z"/>
	<path fill="#000000" d="M54.1,0h9v39.2h-9V0z M81.2,15.1v24.1h-15v-9.1h6v-6h-6v-9.1H81.2z"/>
	<path fill="#000000" d="M98.6,27.1h9v24.1h-9V27.1z M110.6,27.1h9v9.1h-9V27.1z M110.6,42.2h9v9.1h-9V42.2z"/>
	<path fill="#000000" d="M163.9,20.1v9.1h-6v6h6v9.1h-15V20.1H163.9z M167,5.1h9v39.2h-9V5.1z"/>
	<path fill="#000000" d="M206.3,46.3h15.1v6h-24.1V28.1h9V46.3z M209.4,28.1h12v15.1h-12v-6h3v-3h-3V28.1z"/>
	<path fill="#000000" d="M21.1,70.1v6h-6v6H6V70.1h6H21.1z M21.1,85.1v6h-6v18.1H6V85.1H21.1z"/>
	<path fill="#000000" d="M57.3,74.7h-6v15.1h-9V65.7h15.1V74.7z M60.3,65.7h9v33.2h-9v-9.1h-6v-9.1h6V65.7z"/>
	<path fill="#000000" d="M85.1,76h9v39.2h-9V76z M112.1,91v24.1h-9v-15.1h-6V91H112.1z"/>
	<path fill="#000000" d="M148.1,83.2v6h-3v12.1h3v6h-15.1v-6h3V89.3h-3v-6H148.1z M145.1,77.2h-9v-9.1h9V77.2z"/>
	<path fill="#000000" d="M182.2,89.8v6h-3V123h-15v-6h6V95.8h-3v-6H182.2z M179.2,83.8h-9v-9.1h9V83.8z"/>
	<path fill="#000000" d="M226.4,95.3h-12.1v12h-9V68.2h9v18.1h6.1v-6h6V95.3z M220.4,98.3h9v9.1h-9V98.3z"/>
	<path fill="#000000" d="M15.1,166.7h3v6H6v-39.2h9V166.7z"/>
	<path fill="#000000" d="M42.2,133.6h9v24.1h-9V133.6z M66.3,133.6v24.1h-9v-15.1h-3.1v-9.1H66.3z M81.4,133.6v24.1h-9v-15.1h-3.1
		v-9.1H81.4z"/>
	<path fill="#000000" d="M113.8,144.1v9.1h-3v15.1h-9v-24.1H113.8z M128.9,144.1v24.1h-9v-15.1h-3v-9.1H128.9z"/>
	<path fill="#000000" d="M168.2,137v9.1h-3v6h3v9.1h-12V137H168.2z M183.3,137v24.1h-12v-9.1h3v-6h-3V137H183.3z"/>
	<path fill="#000000" d="M205.3,141.1h9v33.2h-9V141.1z M232.4,141.1v24.1h-15v-9.1h6v-6h-6v-9.1H232.4z"/>
	<path fill="#000000" d="M21.1,201.5v9.1h-6v6h6v9.1H6v-24.1H21.1z M24.1,201.5h9v33.2h-9V201.5z"/>
	<path fill="#000000" d="M46.5,189.4h9v24.1h-9V189.4z M58.5,189.4h9v9.1h-9V189.4z"/>
	<path fill="#000000" d="M83.3,204.6h21.1v9.1h-12v3h-9.1v-9.1V204.6z M95.4,216.6h9v12H83.3v-9.1h12.1V216.6z"/>
	<path fill="#000000" d="M131.9,197h6v9.1h-18.1V197h3v-15.1h9V197z M131.9,212h6v9.1h-15.1v-12h9V212z"/>
	<path fill="#000000" d="M171.5,214h3v9h-12v-24.1h9V214z M177.5,198.9h9V223h-9V198.9z"/>
	<path fill="#000000" d="M208.4,197h9v24.1h-9V197z M223.4,197h9v18.1h-3v6h-9v-9h3V197z"/>
	<path fill="#000000" d="M9,268h3.1v9.1H0V253h9V268z M24.1,268h3v9.1h-12V253h9V268z M30.2,253h9v24.1h-9V253z"/>
	<path fill="#000000" d="M65.3,251.9h9v24.1h-9V267h6v-3h-6V251.9z M77.3,251.9h9V264h-6v3h6v9.1h-9v-12V251.9z"/>
	<path fill="#000000" d="M126.9,271h6v9.1h-15.1V256h9V271z M136,256h9v33.2h-9V256z"/>
	<path fill="#000000" d="M165.4,250h21.1v12.1h-9.1v-3h-12V250z M174.5,265h12v9.1h-21.1v-12h9.1V265z"/>
	<path fill="#000000" d="M213.7,250h9v20.5h3V265h9v9.1h-6v6h-9.1v-3h3v-3h-9V250z M225.8,250h9v9.1h-9V250z"/>
	<path fill="#000000" d="M38.2,321.9h-6V337h-9v-24.1h15.1V321.9z M44.2,306.9H29.2v-6h15.1V306.9z M41.2,312.8h9V346h-9V337h-6
		v-9.1h6V312.8z"/>
	<path fill="#000000" d="M97.5,310.2v9.1h-12v3h-9.1v-12.1H97.5z M88.5,322.3h9v12h-6v6h-9.1v-3h3v-3h-9.1v-9.1h12.1V322.3z"/>
	<path fill="#000000" d="M155.5,330.9V355h-9V337h-15.1v-6H155.5z M131.4,340h12v6h-3v3h3v6h-12v-12V340z M132.9,315.8h9v9.1h-9
		V315.8z M154,324.9h-9v-9.1h9V324.9z"/>
	<path fill="#000000" d="M205.3,334.5h-15.1v-9.1h6v-6h-3v-9h3v-6h-9.1v36.1h-9v-45.2h18.1v9.1h9V334.5z"/>
</g>
</svg>
