<?xml version="1.0" encoding="utf-8"?>
<!-- Generator: Adobe Illustrator 18.0.0, SVG Export Plug-In . SVG Version: 6.00 Build 0)  -->
<!DOCTYPE svg PUBLIC "-//W3C//DTD SVG 1.1//EN" "http://www.w3.org/Graphics/SVG/1.1/DTD/svg11.dtd">
<svg version="1.1" xmlns="http://www.w3.org/2000/svg" xmlns:xlink="http://www.w3.org/1999/xlink" x="0px" y="0px"
	 viewBox="0 0 1753 949.6" enable-background="new 0 0 1753 949.6" xml:space="preserve">
<g id="Layer_1">
</g>
<g id="Layer_2">
	<circle fill="#FFFFFF" cx="241.9" cy="231.1" r="1.6"/>
	<circle fill="#FFFFFF" cx="777.9" cy="272.1" r="1.6"/>
	<circle fill="#FFFFFF" cx="268.9" cy="467.1" r="1.6"/>
	<circle fill="#FFFFFF" cx="362.9" cy="174.1" r="1.6"/>
	<circle fill="#FFFFFF" cx="598.9" cy="72.1" r="1.6"/>
	<circle fill="#FFFFFF" cx="359.9" cy="381.1" r="1.6"/>
	<circle fill="#FFFFFF" cx="293.9" cy="60.1" r="1.6"/>
	<circle fill="#FFFFFF" cx="119.9" cy="103.1" r="1.6"/>
	<circle fill="#FFFFFF" cx="508.9" cy="440.1" r="1.6"/>
	<circle fill="#FFFFFF" cx="588.9" cy="386.1" r="1.6"/>
	<circle fill="#FFFFFF" cx="722.9" cy="93.1" r="1.6"/>
	<circle fill="#FFFFFF" cx="595.9" cy="186.1" r="1.6"/>
	<circle fill="#FFFFFF" cx="574.9" cy="307.1" r="1.6"/>
	<circle fill="#FFFFFF" cx="479.9" cy="126.1" r="1.6"/>
	<circle fill="#FFFFFF" cx="428.9" cy="279.1" r="1.6"/>
	<circle fill="#FFFFFF" cx="862.5" cy="482.9" r="1.6"/>
	<circle fill="#FFFFFF" cx="741.8" cy="283.2" r="1.6"/>
	<circle fill="#FFFFFF" cx="971.8" cy="206.8" r="1.6"/>
	<circle fill="#FFFFFF" cx="757.1" cy="412.9" r="1.6"/>
	<circle fill="#FFFFFF" cx="912.4" cy="369.4" r="1.6"/>
	<circle fill="#FFFFFF" cx="120.4" cy="386.3" r="1.6"/>
	<circle fill="#FFFFFF" cx="200.6" cy="167.3" r="1.6"/>
	<circle fill="#FFFFFF" cx="310" cy="223.1" r="1.6"/>
	<circle fill="#FFFFFF" cx="109" cy="260.4" r="1.6"/>
	<circle fill="#FFFFFF" cx="782" cy="163.4" r="1.6"/>
	<circle fill="#FFFFFF" cx="661" cy="220.4" r="1.6"/>
	<circle fill="#FFFFFF" cx="425" cy="322.4" r="1.6"/>
	<circle fill="#FFFFFF" cx="730" cy="334.4" r="1.6"/>
	<circle fill="#FFFFFF" cx="96" cy="298.4" r="1.6"/>
	<circle fill="#FFFFFF" cx="301" cy="301.4" r="1.6"/>
	<circle fill="#FFFFFF" cx="428" cy="208.4" r="1.6"/>
	<circle fill="#FFFFFF" cx="544" cy="268.4" r="1.6"/>
	<circle fill="#FFFFFF" cx="170" cy="161.7" r="1.6"/>
	<circle fill="#FFFFFF" cx="76" cy="216.7" r="1.6"/>
	<circle fill="#FFFFFF" cx="823.2" cy="227.2" r="1.6"/>
	<circle fill="#FFFFFF" cx="713.8" cy="171.4" r="1.6"/>
	<circle fill="#FFFFFF" cx="914.8" cy="134.1" r="1.6"/>
	<circle fill="#FFFFFF" cx="240.2" cy="354.3" r="1.6"/>
	<circle fill="#FFFFFF" cx="101.9" cy="422.1" r="1.6"/>
	<circle fill="#FFFFFF" cx="1572" cy="311.9" r="1.6"/>
	<circle fill="#FFFFFF" cx="1036" cy="270.9" r="1.6"/>
	<circle fill="#FFFFFF" cx="1545" cy="75.9" r="1.6"/>
	<circle fill="#FFFFFF" cx="1451" cy="368.9" r="1.6"/>
	<circle fill="#FFFFFF" cx="1215" cy="470.9" r="1.6"/>
	<circle fill="#FFFFFF" cx="1454" cy="161.9" r="1.6"/>
	<circle fill="#FFFFFF" cx="1520" cy="482.9" r="1.6"/>
	<circle fill="#FFFFFF" cx="1694" cy="439.9" r="1.6"/>
	<circle fill="#FFFFFF" cx="962" cy="439.9" r="1.6"/>
	<circle fill="#FFFFFF" cx="1305" cy="102.9" r="1.6"/>
	<circle fill="#FFFFFF" cx="1225" cy="156.9" r="1.6"/>
	<circle fill="#FFFFFF" cx="1091" cy="449.9" r="1.6"/>
	<circle fill="#FFFFFF" cx="1218" cy="356.9" r="1.6"/>
	<circle fill="#FFFFFF" cx="1181" cy="218.9" r="1.6"/>
	<circle fill="#FFFFFF" cx="1334" cy="416.9" r="1.6"/>
	<circle fill="#FFFFFF" cx="1385" cy="263.9" r="1.6"/>
	<circle fill="#FFFFFF" cx="951.4" cy="60.1" r="1.6"/>
	<circle fill="#FFFFFF" cx="1038" cy="147.8" r="1.6"/>
	<circle fill="#FFFFFF" cx="960" cy="310.2" r="1.6"/>
	<circle fill="#FFFFFF" cx="866" cy="365.2" r="1.6"/>
	<circle fill="#FFFFFF" cx="1125.7" cy="86.1" r="1.6"/>
	<circle fill="#FFFFFF" cx="1693.5" cy="156.6" r="1.6"/>
	<circle fill="#FFFFFF" cx="1613.2" cy="375.7" r="1.6"/>
	<circle fill="#FFFFFF" cx="1503.8" cy="319.9" r="1.6"/>
	<circle fill="#FFFFFF" cx="1704.8" cy="282.6" r="1.6"/>
	<circle fill="#FFFFFF" cx="1031.9" cy="379.6" r="1.6"/>
	<circle fill="#FFFFFF" cx="1152.9" cy="322.6" r="1.6"/>
	<circle fill="#FFFFFF" cx="1388.9" cy="220.6" r="1.6"/>
	<circle fill="#FFFFFF" cx="1083.9" cy="208.6" r="1.6"/>
	<circle fill="#FFFFFF" cx="909.9" cy="251.6" r="1.6"/>
	<circle fill="#FFFFFF" cx="1717.9" cy="244.6" r="1.6"/>
	<circle fill="#FFFFFF" cx="1512.9" cy="241.6" r="1.6"/>
	<circle fill="#FFFFFF" cx="1385.9" cy="334.6" r="1.6"/>
	<circle fill="#FFFFFF" cx="1269.9" cy="274.6" r="1.6"/>
	<circle fill="#FFFFFF" cx="1643.8" cy="381.3" r="1.6"/>
	<circle fill="#FFFFFF" cx="1737.8" cy="326.3" r="1.6"/>
	<circle fill="#FFFFFF" cx="1100" cy="371.6" r="1.6"/>
	<circle fill="#FFFFFF" cx="1573.7" cy="188.7" r="1.6"/>
	<circle fill="#FFFFFF" cx="1712" cy="120.9" r="1.6"/>
	<circle fill="#FFFFFF" cx="1572" cy="718.9" r="1.6"/>
	<circle fill="#FFFFFF" cx="1036" cy="677.9" r="1.6"/>
	<circle fill="#FFFFFF" cx="1545" cy="482.9" r="1.6"/>
	<circle fill="#FFFFFF" cx="1451" cy="775.9" r="1.6"/>
	<circle fill="#FFFFFF" cx="1215" cy="877.9" r="1.6"/>
	<circle fill="#FFFFFF" cx="1454" cy="568.9" r="1.6"/>
	<circle fill="#FFFFFF" cx="1520" cy="889.9" r="1.6"/>
	<circle fill="#FFFFFF" cx="1694" cy="846.9" r="1.6"/>
	<circle fill="#FFFFFF" cx="1305" cy="509.9" r="1.6"/>
	<circle fill="#FFFFFF" cx="1225" cy="563.9" r="1.6"/>
	<circle fill="#FFFFFF" cx="1091" cy="856.9" r="1.6"/>
	<circle fill="#FFFFFF" cx="1218" cy="763.9" r="1.6"/>
	<circle fill="#FFFFFF" cx="1239" cy="642.9" r="1.6"/>
	<circle fill="#FFFFFF" cx="1334" cy="823.9" r="1.6"/>
	<circle fill="#FFFFFF" cx="1385" cy="670.9" r="1.6"/>
	<circle fill="#FFFFFF" cx="951.4" cy="467.1" r="1.6"/>
	<circle fill="#FFFFFF" cx="1072" cy="666.8" r="1.6"/>
	<circle fill="#FFFFFF" cx="842" cy="743.2" r="1.6"/>
	<circle fill="#FFFFFF" cx="1056.7" cy="537.1" r="1.6"/>
	<circle fill="#FFFFFF" cx="901.4" cy="580.6" r="1.6"/>
	<circle fill="#FFFFFF" cx="1693.5" cy="563.6" r="1.6"/>
	<circle fill="#FFFFFF" cx="1613.2" cy="782.7" r="1.6"/>
	<circle fill="#FFFFFF" cx="1503.8" cy="726.9" r="1.6"/>
	<circle fill="#FFFFFF" cx="1704.8" cy="689.6" r="1.6"/>
	<circle fill="#FFFFFF" cx="1031.9" cy="786.6" r="1.6"/>
	<circle fill="#FFFFFF" cx="1152.9" cy="729.6" r="1.6"/>
	<circle fill="#FFFFFF" cx="1388.9" cy="627.6" r="1.6"/>
	<circle fill="#FFFFFF" cx="1083.9" cy="615.6" r="1.6"/>
	<circle fill="#FFFFFF" cx="1717.9" cy="651.6" r="1.6"/>
	<circle fill="#FFFFFF" cx="1512.9" cy="648.6" r="1.6"/>
	<circle fill="#FFFFFF" cx="1385.9" cy="741.6" r="1.6"/>
	<circle fill="#FFFFFF" cx="1269.9" cy="681.6" r="1.6"/>
	<circle fill="#FFFFFF" cx="1643.8" cy="788.3" r="1.6"/>
	<circle fill="#FFFFFF" cx="1737.8" cy="733.3" r="1.6"/>
	<circle fill="#FFFFFF" cx="990.6" cy="722.8" r="1.6"/>
	<circle fill="#FFFFFF" cx="1100" cy="778.6" r="1.6"/>
	<circle fill="#FFFFFF" cx="899" cy="815.9" r="1.6"/>
	<circle fill="#FFFFFF" cx="1573.7" cy="595.7" r="1.6"/>
	<circle fill="#FFFFFF" cx="1712" cy="527.9" r="1.6"/>
	<circle fill="#FFFFFF" cx="241.9" cy="638.1" r="1.6"/>
	<circle fill="#FFFFFF" cx="777.9" cy="679.1" r="1.6"/>
	<circle fill="#FFFFFF" cx="268.9" cy="874.1" r="1.6"/>
	<circle fill="#FFFFFF" cx="362.9" cy="581.1" r="1.6"/>
	<circle fill="#FFFFFF" cx="598.9" cy="479.1" r="1.6"/>
	<circle fill="#FFFFFF" cx="359.9" cy="788.1" r="1.6"/>
	<circle fill="#FFFFFF" cx="293.9" cy="467.1" r="1.6"/>
	<circle fill="#FFFFFF" cx="119.9" cy="510.1" r="1.6"/>
	<circle fill="#FFFFFF" cx="508.9" cy="847.1" r="1.6"/>
	<circle fill="#FFFFFF" cx="588.9" cy="793.1" r="1.6"/>
	<circle fill="#FFFFFF" cx="722.9" cy="500.1" r="1.6"/>
	<circle fill="#FFFFFF" cx="595.9" cy="593.1" r="1.6"/>
	<circle fill="#FFFFFF" cx="632.9" cy="731.1" r="1.6"/>
	<circle fill="#FFFFFF" cx="479.9" cy="533.1" r="1.6"/>
	<circle fill="#FFFFFF" cx="428.9" cy="686.1" r="1.6"/>
	<circle fill="#FFFFFF" cx="862.5" cy="889.9" r="1.6"/>
	<circle fill="#FFFFFF" cx="775.8" cy="802.2" r="1.6"/>
	<circle fill="#FFFFFF" cx="853.8" cy="639.8" r="1.6"/>
	<circle fill="#FFFFFF" cx="947.8" cy="584.8" r="1.6"/>
	<circle fill="#FFFFFF" cx="688.1" cy="863.9" r="1.6"/>
	<circle fill="#FFFFFF" cx="120.4" cy="793.3" r="1.6"/>
	<circle fill="#FFFFFF" cx="200.6" cy="574.3" r="1.6"/>
	<circle fill="#FFFFFF" cx="310" cy="630.1" r="1.6"/>
	<circle fill="#FFFFFF" cx="109" cy="667.4" r="1.6"/>
	<circle fill="#FFFFFF" cx="782" cy="570.4" r="1.6"/>
	<circle fill="#FFFFFF" cx="661" cy="627.4" r="1.6"/>
	<circle fill="#FFFFFF" cx="425" cy="729.4" r="1.6"/>
	<circle fill="#FFFFFF" cx="730" cy="741.4" r="1.6"/>
	<circle fill="#FFFFFF" cx="904" cy="698.4" r="1.6"/>
	<circle fill="#FFFFFF" cx="96" cy="705.4" r="1.6"/>
	<circle fill="#FFFFFF" cx="301" cy="708.4" r="1.6"/>
	<circle fill="#FFFFFF" cx="428" cy="615.4" r="1.6"/>
	<circle fill="#FFFFFF" cx="544" cy="675.4" r="1.6"/>
	<circle fill="#FFFFFF" cx="170" cy="568.7" r="1.6"/>
	<circle fill="#FFFFFF" cx="76" cy="623.7" r="1.6"/>
	<circle fill="#FFFFFF" cx="713.8" cy="578.4" r="1.6"/>
	<circle fill="#FFFFFF" cx="240.2" cy="761.3" r="1.6"/>
	<circle fill="#FFFFFF" cx="101.9" cy="829.1" r="1.6"/>
</g>
</svg>
