<?xml version="1.0" encoding="utf-8"?>
<!-- Generator: Adobe Illustrator 18.0.0, SVG Export Plug-In . SVG Version: 6.00 Build 0)  -->
<!DOCTYPE svg PUBLIC "-//W3C//DTD SVG 1.1//EN" "http://www.w3.org/Graphics/SVG/1.1/DTD/svg11.dtd">
<svg version="1.1" id="Layer_1" xmlns="http://www.w3.org/2000/svg" xmlns:xlink="http://www.w3.org/1999/xlink" x="0px" y="0px"
	 viewBox="0 0 264 392" enable-background="new 0 0 264 392" xml:space="preserve">
<g>
	<path fill="#000000" d="M18.7,51.9H9.3V11.1h9.4v15.7h9.4v9.4h-9.4V51.9z M31.3,20.6h-9.4v-9.4h18.8v40.8h-9.4V20.6z"/>
	<path fill="#000000" d="M77.7,40.8h-9.4V0h9.4V40.8z M99.7,40.8H80.9v-9.4h9.4v-6.2h-9.4v-9.4h9.4V9.4h-9.4V0h18.8V40.8z"/>
	<path fill="#000000" d="M132.1,61.2h-9.4V20.4h9.4V61.2z M154.1,29.8h-18.8v-9.4h18.8V29.8z M135.3,61.2v-9.4h18.8v9.4H135.3z"/>
	<path fill="#000000" d="M169.4,2.7h9.4v40.8h-9.4V2.7z M182,43.5v-9.4h9.4V12.2H182V2.7h9.4v9.4h9.4v31.4H182z"/>
	<path fill="#000000" d="M230.2,52.4h-9.4V11.6h9.4V52.4z M233.3,11.6h15.7V21h-15.7V11.6z M245.9,36.7h-12.6v-9.4h12.6V36.7z
		 M233.3,42.9h15.7v9.4h-15.7V42.9z"/>
	<path fill="#000000" d="M9.4,124.5H0V83.6h9.4V124.5z M12.6,83.6h15.7v9.4H12.6V83.6z M12.6,99.3h12.5v9.4H12.6V99.3z"/>
	<path fill="#000000" d="M63.6,120h-9.4V79.2h9.4V120z M66.8,79.2h15.7v9.4H66.8V79.2z M73.1,98h9.4v22H66.8v-9.4h9.4v-6.3h-3.1V98z
		"/>
	<path fill="#000000" d="M114.1,128.9h-9.4V88.1h9.4v15.7h9.4v9.4h-9.4V128.9z M136.1,128.9h-9.4V88.1h9.4V128.9z"/>
	<path fill="#000000" d="M156.9,120v-6.2h3.1V85.5h-3.1v-6.3h15.6v6.3h-3.1v28.3h3.1v6.2h-3.1H156.9z"/>
	<path fill="#000000" d="M203.6,128.9H191v-15.7h5.8v6.3h6.8V128.9z M206.7,88.1h9.4v40.8h-9.4V88.1z"/>
	<path fill="#000000" d="M244.3,116.1h-9.4V75.2h9.4V116.1z M247.5,90.9h15.7v25.1h-9.4v-15.7h-6.3V90.9z M250.6,87.8V75.2h9.4v12.5
		H250.6z"/>
	<path fill="#000000" d="M9.3,152.3h9.4v40.8H9.3V152.3z M37.6,193.1H21.9v-9.4h15.7V193.1z"/>
	<path fill="#000000" d="M73.4,156.4h-3.2v28.2h-9.4v-40.8h15.7v15.7h-3.1V156.4z M76.5,162.6h6.3v9.4h-6.3V162.6z M89.1,156.4H86
		v3.1h-3.1v-15.7h15.7v40.8h-9.4V156.4z"/>
	<path fill="#000000" d="M130.7,171.1v-6.2h-3.1v28.2h-9.4v-40.8h15.7v18.8H130.7z M140.1,152.3h9.4v40.8h-15.7v-18.8h3.1v6.3h3.1
		V152.3z"/>
	<path fill="#000000" d="M183.4,146.9v9.4h-6.2v21.9h6.2v9.4h-15.6v-40.8H183.4z M186.6,187.7v-9.4h6.3v-21.9h-6.3v-9.4h15.7v40.8
		H186.6z"/>
	<path fill="#000000" d="M237.3,193.1h-9.4v-40.8h9.4V193.1z M259.3,152.3v25.1h-18.8v-9.4h9.4v-6.2h-9.4v-9.4H259.3z"/>
	<path fill="#000000" d="M21.9,219v9.4h-6.3v21.9h6.3v9.4H6.2V219H21.9z M40.7,219v40.8h-9.4v3.1h3.1v3.1H25v-21.9h6.3v-15.7H25V219
		h6.3H40.7z"/>
	<path fill="#000000" d="M60.8,213.3h9.4v40.8h-9.4V213.3z M82.8,222.7h-9.4v-9.4h15.7v12.6h-6.3V222.7z M82.8,254.1v-15.7h-9.4
		v-9.4h18.8v25.1H82.8z"/>
	<path fill="#000000" d="M140.8,254.1v-15.7H122v-25.1h9.4v15.7h18.8v25.1H140.8z M122,254.1v-9.4h15.7v9.4H122z M150.2,222.7h-15.7
		v-9.4h15.7V222.7z"/>
	<path fill="#000000" d="M181.3,211.9h28.2v9.4h-28.2V211.9z M200.1,252.7h-9.4v-28.2h9.4V252.7z"/>
	<path fill="#000000" d="M232.6,219h9.4v40.8h-9.4V219z M245.2,250.3h9.4V219h9.4v40.8h-18.8V250.3z"/>
	<path fill="#000000" d="M14.4,314.5h9.4v9.4H5v-40.8h9.4V314.5z M23.8,283.2h9.4v31.4h-9.4v-21.9V283.2z"/>
	<path fill="#000000" d="M68.4,312.7h3.1v9.4h-9.4v-9.4h-3.1v-31.4h9.4V312.7z M87.3,312.7h3.1v9.4H74.7v-9.4h3.1v-31.4h9.4v9.4
		V312.7z M106.1,281.4v31.4H103v9.4h-9.4v-9.4h3.1v-31.4H106.1z"/>
	<path fill="#000000" d="M141.7,285.9h6.3v6.3h-15.7v-18.8h9.4V285.9z M148,295.3v6.3h-6.3v12.5h-9.4v-18.8H148z M157.4,273.3h9.4
		v18.8h-15.6v-6.3h6.2V273.3z M166.8,295.3v18.8h-9.4v-12.5h-6.2v-6.3H166.8z"/>
	<path fill="#000000" d="M185.1,292.2v-18.8h9.4v12.6h3.2v6.2h-3.2H185.1z M203.8,314.2h-9.4v-18.8h9.4V314.2z M200.8,292.2v-6.2h3
		v-12.6h9.5v18.8h-3.1H200.8z"/>
	<path fill="#000000" d="M249.9,290.3h-22v-9.4h28.2v15.7h-6.2V290.3z M256.1,321.6h-28.2v-15.7h6.2v6.2h22V321.6z M237.3,305.9
		v-9.4h9.4v9.4H237.3z"/>
	<path fill="#000000" d="M37.9,382.6h-9.4v-40.8h9.4V382.6z M59.9,351.2H41v-9.4h18.8V351.2z M50.4,388.9H41v-3.1h3.1v-3.1H41v-9.4
		h18.8v9.4h-9.4V388.9z"/>
	<path fill="#000000" d="M98.1,392h-9.4v-40.8h9.4V392z M110.6,348.1H94.9v-6.3h15.7V348.1z M101.2,351.2h15.7v9.4h-15.7V351.2z
		 M107.5,370h9.4v22h-15.7v-9.4h9.4v-6.3h-3.1V370z"/>
	<path fill="#000000" d="M162.5,384.2v-15.7h-18.8v-25.1h9.4v15.7h18.8v25.1H162.5z M159.3,390.5h-9.4v-3.1h3.1v-3.1h-9.4v-9.4h15.7
		V390.5z M171.8,352.8h-15.7v-9.4h15.7V352.8z"/>
	<path fill="#000000" d="M206.2,388.9h-9.4v-40.8h9.4v15.7h9.4v9.4h-9.4V388.9z M201.5,335.5h9.4v9.4h-9.4V335.5z M218.8,357.5h-9.4
		v-9.4h18.8v40.8h-9.4V357.5z M223.4,344.9H214v-9.4h9.4V344.9z"/>
</g>
</svg>
