<?xml version="1.0" encoding="utf-8"?>
<!-- Generator: Adobe Illustrator 18.0.0, SVG Export Plug-In . SVG Version: 6.00 Build 0)  -->
<!DOCTYPE svg PUBLIC "-//W3C//DTD SVG 1.1//EN" "http://www.w3.org/Graphics/SVG/1.1/DTD/svg11.dtd">
<svg version="1.1" id="Layer_1" xmlns="http://www.w3.org/2000/svg" xmlns:xlink="http://www.w3.org/1999/xlink" x="0px" y="0px"
	 viewBox="0 0 559.1 223.6" enable-background="new 0 0 559.1 223.6" xml:space="preserve">
<path d="M69.8,74.5H159v29.8v89.3h-29.8H69.8H40V44.7h29.8V74.5z M69.8,104.3v59.5h59.4v-59.5H69.8z"/>
<path d="M465.5,41.8c26.5,0,47.9,20.9,49.5,46.9c0,1.6-1.2,2.8-2.6,2.8h-22.9c-1.6,0-2.8-1.2-3.2-2.8c-1.4-10.4-10-18.3-20.9-18.3
	c-11.6,0-21.1,9.4-21.1,21.1v10.2c0,1.6,1.2,2.8,2.8,2.8h25.1c1.4,0,2.8,1.4,2.8,3v22.7c0,1.6-1.4,2.8-2.8,2.8h-25.1
	c-1.6,0-2.8,1.2-2.8,2.8v55c0,1.6-1.2,2.8-2.8,2.8h-22.9c-1.6,0-2.8-1.2-2.8-2.8V91.5C416,64,438.3,41.8,465.5,41.8z"/>
<g>
	<path d="M289.8,90.2c3.9,0,8.2,0.6,12.9,1.7c4.7,1.1,9.1,3.2,13.3,6.3c4.2,3.1,7.7,7.3,10.5,12.7c2.8,5.4,4.3,12.4,4.3,21.1v61.7
		H302v-60.5c0-3.2-0.5-5.9-1.6-8.1c-1-2.2-2.4-4-4.2-5.3c-1.7-1.3-3.7-2.3-5.9-2.9c-2.2-0.6-4.4-0.9-6.7-0.9c-1.8,0-3.8,0.3-5.9,0.9
		c-2.2,0.6-4.2,1.6-6,3c-1.9,1.4-3.4,3.2-4.7,5.4c-1.3,2.2-1.9,4.8-1.9,7.9v60.5h-28.8V90.2h24.6l4.2,7.9c3.3-2.4,7.1-4.3,11.2-5.7
		C280.5,90.9,285,90.2,289.8,90.2z"/>
</g>
</svg>
