<?xml version="1.0" encoding="utf-8"?>
<!-- Generator: Adobe Illustrator 18.0.0, SVG Export Plug-In . SVG Version: 6.00 Build 0)  -->
<!DOCTYPE svg PUBLIC "-//W3C//DTD SVG 1.1//EN" "http://www.w3.org/Graphics/SVG/1.1/DTD/svg11.dtd">
<svg version="1.1" id="Layer_1" xmlns="http://www.w3.org/2000/svg" xmlns:xlink="http://www.w3.org/1999/xlink" x="0px" y="0px"
	 viewBox="0 0 559.1 223.6" enable-background="new 0 0 559.1 223.6" xml:space="preserve">
<path d="M446.2,193.6h-34.2V44.7h34.2V193.6z M457.9,44.7h57.2v34.5h-57.2V44.7z M457.9,101.9h45.7v34.5h-45.7V101.9z"/>
<path d="M250.9,44.7H340v29.8v29.8v59.5v29.8h-29.8v-29.8v-59.5V74.5h-59.4v119.1h-29.8V44.7H250.9z"/>
<path d="M141.9,110.2c4.6-6.9,6.7-15.6,6.7-25.1c0-22-8.6-41.1-35.6-41.1h-72v8.8l0,0v140.8l0,0l37-0.6l44,0.5
	c24-1.4,38.2-25.9,38.2-46.8C160.3,133.4,152.6,119.1,141.9,110.2z M108.5,89c0,5.4-3.3,12-7.5,12H86.1V77h14.9
	C105.4,77,108.5,83.6,108.5,89z M102.4,154H86.1v-24h16.3c4.4,0,7.5,6.6,7.5,12.4S106.8,154,102.4,154z"/>
</svg>
