<?xml version="1.0" encoding="utf-8"?>
<!-- Generator: Adobe Illustrator 18.0.0, SVG Export Plug-In . SVG Version: 6.00 Build 0)  -->
<!DOCTYPE svg PUBLIC "-//W3C//DTD SVG 1.1//EN" "http://www.w3.org/Graphics/SVG/1.1/DTD/svg11.dtd">
<svg version="1.1" id="Layer_1" xmlns="http://www.w3.org/2000/svg" xmlns:xlink="http://www.w3.org/1999/xlink" x="0px" y="0px"
	 viewBox="0 0 559.1 223.6" enable-background="new 0 0 559.1 223.6" xml:space="preserve">
<path d="M132.3,113.1c5.8,4,10.5,9.2,14,15.5c3.5,6.3,5.2,13.3,5.2,20.9c0,6.1-1.2,11.8-3.5,17.2c-2.4,5.4-5.6,10-9.6,14
	c-4,4-8.7,7.1-14.1,9.4c-5.3,2.3-11.1,3.4-17.2,3.4H40V45.8h65c5.6,0,10.8,1.1,15.6,3.2c4.9,2.2,9.1,5,12.8,8.6
	c3.7,3.6,6.6,7.9,8.6,12.7c2.1,4.9,3.1,10.1,3.1,15.6c0,6-1.1,11.2-3.4,15.7C139.5,106.3,136.4,110.1,132.3,113.1z M71.7,101.3H105
	c3.8,0,6.9-1.3,9.6-4c2.6-2.6,4-5.8,4-9.6c0-3.8-1.3-6.9-4-9.4c-2.6-2.5-5.8-3.8-9.6-3.8H71.7V101.3z M107.1,164.8
	c4.2,0,7.7-1.8,10.6-5.3s4.4-7.6,4.4-12.3c0-4.8-1.5-8.9-4.4-12.2c-2.9-3.3-6.5-5-10.6-5H71.7v34.8H107.1z"/>
<path d="M422.8,45.8h92.3l-4.6,28.8h-60.6l-4.2,26.7H499l-4.6,28.8h-53.4l-10,63.6h-31.7L422.8,45.8z"/>
<path d="M268.8,101.9v34.5h-11.5v57.2h-34.2v-91.7H268.8z M326,101.9v91.7h-34.2v-57.2h-11.5v-34.5H326z"/>
</svg>
