<?xml version="1.0" encoding="utf-8"?>
<!-- Generator: Adobe Illustrator 18.0.0, SVG Export Plug-In . SVG Version: 6.00 Build 0)  -->
<!DOCTYPE svg PUBLIC "-//W3C//DTD SVG 1.1//EN" "http://www.w3.org/Graphics/SVG/1.1/DTD/svg11.dtd">
<svg version="1.1" id="Layer_1" xmlns="http://www.w3.org/2000/svg" xmlns:xlink="http://www.w3.org/1999/xlink" x="0px" y="0px"
	 viewBox="0 0 559.1 223.6" enable-background="new 0 0 559.1 223.6" xml:space="preserve">
<path d="M422.8,45.8h92.3v28.8h-60.6v26.7h53.4V130h-53.4v63.6h-31.7V45.8z"/>
<path d="M325,45.8h31.5l-23.3,147.8h-30l-55.9-96.5l-15.2,96.5h-31.5l23.3-147.8h29.6l56.1,97.1L325,45.8z"/>
<path d="M94.8,44c24.5,0,44.3,20.1,44.3,44.5c0,10.6-3.6,20.5-10,28.3c-1,1.2-1,3,0,4.2c6.4,7.8,10,17.4,10,28.1
	c0,24.7-19.9,44.5-44.3,44.5h-52c-1.6,0-2.8-1.2-2.8-2.8V133v-28.5V46.8c0-1.4,1.2-2.8,2.8-2.8H94.8z M110.8,88.5
	c0-8.8-7.4-16-16-16H68.5v32.1h26.3C103.4,104.5,110.8,97.3,110.8,88.5z M110.8,149.1c0-8.8-7.4-16-16-16H68.5v32.1h26.3
	C103.4,165.1,110.8,158.1,110.8,149.1z"/>
</svg>
