<?xml version="1.0" encoding="utf-8"?>
<!-- Generator: Adobe Illustrator 18.0.0, SVG Export Plug-In . SVG Version: 6.00 Build 0)  -->
<!DOCTYPE svg PUBLIC "-//W3C//DTD SVG 1.1//EN" "http://www.w3.org/Graphics/SVG/1.1/DTD/svg11.dtd">
<svg version="1.1" id="Layer_1" xmlns="http://www.w3.org/2000/svg" xmlns:xlink="http://www.w3.org/1999/xlink" x="0px" y="0px"
	 viewBox="0 0 559.1 223.6" enable-background="new 0 0 559.1 223.6" xml:space="preserve">
<path d="M144.6,152.3c0,5.7-1.1,11.1-3.2,16.1c-2.2,5-5.1,9.4-8.9,13.1c-3.8,3.8-8.2,6.7-13.2,8.9c-5.1,2.2-10.5,3.2-16.2,3.2H40
	V45.8h57.7c5,0,9.7,1,14.2,2.9c4.4,1.9,8.3,4.6,11.7,7.9c3.3,3.3,6,7.2,7.9,11.8c1.9,4.5,2.9,9.3,2.9,14.5c0,6.4-1,12.2-3.1,17.4
	c-2.1,5.2-5.5,9.6-10.2,13.2c7.9,2.9,13.8,7.9,17.7,14.9C142.7,135.4,144.6,143.4,144.6,152.3z M61.9,105.4
	c5.5,0.1,10.7,0.2,15.4,0.2H98c5.3,0,9.7-2,13.3-5.9c3.6-3.9,5.4-8.7,5.4-14.2c0-5.7-1.8-10.4-5.4-14.3c-3.6-3.9-8-5.8-13.3-5.8
	H61.9V105.4z M61.9,173.2c1,0.1,3.1,0.2,6.4,0.2h34.9c2.9,0,5.6-0.6,8.2-1.9c2.6-1.2,4.8-2.9,6.8-5.1c1.9-2.1,3.5-4.7,4.6-7.6
	c1.1-2.9,1.7-6,1.7-9.3c0-3.3-0.6-6.4-1.7-9.2c-1.1-2.8-2.6-5.3-4.6-7.5c-1.9-2.1-4.2-3.8-6.8-5.1c-2.6-1.2-5.3-1.9-8.2-1.9H61.9
	V173.2z"/>
<path d="M260.1,113.4V90.7h-11.5v102.9h-34.2V44.7h57.2v68.7H260.1z M294.5,44.7h34.2v148.9h-57.2v-68.7H283v23h11.5V44.7z"/>
<path d="M455.7,44.7h59.4v29.8h-59.4v29.8h59.4V134h-59.4v59.5h-29.8h-29.8v-29.8h29.8V134h-29.8v-29.8h29.8V44.7H455.7z"/>
</svg>
