<?xml version="1.0" encoding="utf-8"?>
<!-- Generator: Adobe Illustrator 18.0.0, SVG Export Plug-In . SVG Version: 6.00 Build 0)  -->
<!DOCTYPE svg PUBLIC "-//W3C//DTD SVG 1.1//EN" "http://www.w3.org/Graphics/SVG/1.1/DTD/svg11.dtd">
<svg version="1.1" id="Layer_1" xmlns="http://www.w3.org/2000/svg" xmlns:xlink="http://www.w3.org/1999/xlink" x="0px" y="0px"
	 viewBox="0 0 559.1 223.6" enable-background="new 0 0 559.1 223.6" xml:space="preserve">
<path d="M361.2,45.8v147.8h-22.1L256.6,80.2v113.4h-22.7V45.8h22.9l82.5,114v-114H361.2z"/>
<path d="M145.1,113.1c5.1,4,8.9,9.2,11.4,15.5c2.4,6.3,3.1,13.3,2,20.9c-1,6.1-3.1,11.8-6.3,17.2c-3.2,5.4-7.1,10-11.8,14
	c-4.7,4-9.8,7.1-15.5,9.4c-5.7,2.3-11.6,3.4-17.7,3.4H40L63.4,45.8h65c5.6,0,10.6,1.1,15.2,3.2c4.6,2.2,8.4,5,11.4,8.6
	c3,3.6,5.1,7.9,6.5,12.7c1.3,4.9,1.6,10.1,0.7,15.6c-1,6-3,11.2-5.9,15.7C153.2,106.3,149.5,110.1,145.1,113.1z M111.5,164.8
	c2.1,0,4.1-0.5,6.1-1.4c2-1,3.8-2.2,5.4-3.8c1.6-1.6,3-3.5,4.1-5.6c1.1-2.1,1.9-4.4,2.3-6.7c0.7-4.8-0.1-8.9-2.5-12.2
	c-2.4-3.3-5.6-5-9.8-5H81.7l-5.6,34.8H111.5z M86.3,101.3h33.3c3.8,0,7.1-1.3,10.1-4c3-2.6,4.8-5.8,5.5-9.6c0.7-3.8-0.1-6.9-2.4-9.4
	c-2.3-2.5-5.3-3.8-9.1-3.8H90.5L86.3,101.3z"/>
<path d="M498.1,44.7v23h-23v23h-34.2V44.7h23H498.1z M498.1,101.9v23h-23v68.7h-34.2v-91.7h23H498.1z"/>
</svg>
