<?xml version="1.0" encoding="utf-8"?>
<!-- Generator: Adobe Illustrator 18.0.0, SVG Export Plug-In . SVG Version: 6.00 Build 0)  -->
<!DOCTYPE svg PUBLIC "-//W3C//DTD SVG 1.1//EN" "http://www.w3.org/Graphics/SVG/1.1/DTD/svg11.dtd">
<svg version="1.1" id="Layer_1" xmlns="http://www.w3.org/2000/svg" xmlns:xlink="http://www.w3.org/1999/xlink" x="0px" y="0px"
	 viewBox="0 0 559.1 223.6" enable-background="new 0 0 559.1 223.6" xml:space="preserve">
<path d="M515.1,45.8v19.6h-77.9v40.2h70.6v20.2h-70.6v67.7h-21.9V45.8H515.1z"/>
<path d="M40,44.7h34.2v148.9H40V44.7z M143,101.9v91.7H86v-34.5h22.8v-22.8H86v-34.5H143z"/>
<path d="M299.8,116.8v-70c0-1.4,1.2-2.8,2.8-2.8h22.9c1.4,0,2.6,1.4,2.6,2.8v122.6v14.2v7.2c0,1.6-1.2,2.8-2.6,2.8h-22.9
	c-1.6,0-2.8-1.2-2.8-2.8v-7.2v-14c-0.4-3.8-8.2-19.9-30.7-40.1c-3.2-2.8-6.4-6-9.6-9.2c-1-1-2-0.6-2,0.8v69.8c0,1.6-1.2,2.8-2.8,2.8
	h-22.9c-1.6,0-2.8-1.2-2.8-2.8V68.2v-14v-7.4c0-1.4,1.2-2.8,2.8-2.8h22.9c1.6,0,2.8,1.4,2.8,2.8v7.4v14c0.4,3.8,8,19.9,30.7,40.1
	c3,2.8,6.4,5.8,9.4,9C298.8,118.6,299.8,118.2,299.8,116.8z"/>
</svg>
