<?xml version="1.0" encoding="utf-8"?>
<!-- Generator: Adobe Illustrator 18.0.0, SVG Export Plug-In . SVG Version: 6.00 Build 0)  -->
<!DOCTYPE svg PUBLIC "-//W3C//DTD SVG 1.1//EN" "http://www.w3.org/Graphics/SVG/1.1/DTD/svg11.dtd">
<svg version="1.1" xmlns="http://www.w3.org/2000/svg" xmlns:xlink="http://www.w3.org/1999/xlink" x="0px" y="0px"
	 viewBox="0 0 1015.5 508.9" enable-background="new 0 0 1015.5 508.9" xml:space="preserve">
<g id="Layer_1">
</g>
<g id="Layer_2">
	<path d="M703.4,97.3h-21v20.9h-20.9V97.3h-21v-21h21V55.2h20.9v21.1h21V97.3z"/>
	<path d="M266.8,323.5h-21v20.9H225v-20.9h-21v-21h21v-21.1h20.9v21.1h21V323.5z"/>
	<path d="M380.7,448.3h-21v20.9h-20.9v-20.9h-21v-21h21v-21.1h20.9v21.1h21V448.3z"/>
	<path d="M103.4,448.3h-21v20.9H61.6v-20.9h-21v-21h21v-21.1h20.9v21.1h21V448.3z"/>
	<path d="M121.4,68.3h-21v20.9H79.6V68.3h-21v-21h21V26.1h20.9v21.1h21V68.3z"/>
	<path d="M848.1,439.2h-21V460h-20.9v-20.9h-21v-21h21V397h20.9v21.1h21V439.2z"/>
	<path d="M914.6,68.3h-21v20.9h-20.9V68.3h-21v-21h21V26.1h20.9v21.1h21V68.3z"/>
	<path d="M563.6,286.4h-21v20.9h-20.9v-20.9h-21v-21h21v-21.1h20.9v21.1h21V286.4z"/>
</g>
</svg>
