<?xml version="1.0" encoding="utf-8"?>
<!-- Generator: Adobe Illustrator 18.0.0, SVG Export Plug-In . SVG Version: 6.00 Build 0)  -->
<!DOCTYPE svg PUBLIC "-//W3C//DTD SVG 1.1//EN" "http://www.w3.org/Graphics/SVG/1.1/DTD/svg11.dtd">
<svg version="1.1" xmlns="http://www.w3.org/2000/svg" xmlns:xlink="http://www.w3.org/1999/xlink" x="0px" y="0px"
	 viewBox="0 0 1015.5 508.9" enable-background="new 0 0 1015.5 508.9" xml:space="preserve">
<g id="Layer_1">
</g>
<g id="Layer_2">
	<g>
		<g>
			<path d="M78,370.3c-9.2,0-18-1.6-26.2-4.6c-8.1-3.1-15.6-7.3-22.4-12.6c-6.7-5.3-12.6-11.6-17.6-18.8c-4.9-7.2-8.8-15-11.3-23.2
				L0,309.2l49.2-16.5l0.6,2c1.7,6.3,5.1,11.5,9.9,15.6c4.9,4.1,10.4,6.1,16.9,6.1c7.5,0,13.2-2.4,17.3-7.4c4.2-5.1,6.9-10.9,8-17.4
				c0-1.2,0.1-4.8,0.2-9.6c0.1-5.6,0.2-12.5,0.2-20.6v-58.7c0-23.9-0.1-51.6-0.3-82.4l0-2h57v159.6c0,10.2-0.6,20.1-1.9,29.5
				c-1.3,9.6-5.2,19.1-11.6,28.1c-8,11.5-18,20.3-29.7,26.1C104.2,367.4,91.4,370.3,78,370.3z M5,311.7c2.4,7.2,5.9,14,10.2,20.3
				c4.7,6.8,10.3,12.9,16.7,17.9c6.4,5.1,13.6,9.1,21.3,12c7.7,2.9,16,4.4,24.8,4.4c12.8,0,24.9-2.8,36-8.3
				c11.1-5.5,20.5-13.8,28.2-24.8c6-8.5,9.7-17.3,10.9-26.3c1.3-9.2,1.9-19,1.9-29V122.3h-49c0.2,30,0.3,57.1,0.3,80.5v58.7
				c0,8.1-0.1,15-0.2,20.7c-0.1,5-0.2,8.6-0.2,9.7l0,0.3c-1.2,7.3-4.2,13.8-8.9,19.5c-4.9,5.9-11.7,8.9-20.4,8.9
				c-7.4,0-13.9-2.4-19.5-7.1c-5-4.2-8.5-9.4-10.6-15.6L5,311.7z"/>
			<path d="M430.9,257.6c-8.2,0-16.2-0.8-24-2.5c-7.4-1.6-14.7-3.8-21.4-6.7c-7,2.9-14.2,5.1-21.6,6.7c-7.6,1.6-15.6,2.5-23.8,2.5
				c-16.8,0-33-3.5-48-10.4c-14.9-6.9-28.1-16.3-39.1-28c-11-11.7-19.8-25.5-26.2-41.1c-6.4-15.6-9.7-32.3-9.7-49.6
				c0-17.5,3.3-34.2,9.7-49.6c6.4-15.4,15.2-29.1,26.2-40.8c11-11.7,24.1-21,39.1-27.8C307.2,3.4,323.3,0,340.2,0
				c8.2,0,16.2,0.8,23.8,2.5c7.3,1.6,14.6,3.8,21.6,6.7c6.8-2.9,14-5.1,21.4-6.7c7.7-1.6,15.8-2.5,24-2.5c16.8,0,33,3.4,47.9,10.2
				c15,6.8,28.2,16.1,39.3,27.8c11.1,11.7,20,25.4,26.4,40.8c6.4,15.4,9.7,32.1,9.7,49.6c0,17.3-3.3,34-9.7,49.6
				c-6.4,15.6-15.3,29.5-26.4,41.2c-11.1,11.7-24.3,21.1-39.2,28C463.9,254.1,447.8,257.6,430.9,257.6z M385.6,244.1l0.8,0.3
				c6.8,2.9,14,5.2,21.4,6.8c7.5,1.6,15.3,2.4,23.1,2.4c16.2,0,31.8-3.4,46.3-10c14.5-6.7,27.3-15.8,38-27.1
				c10.7-11.3,19.4-24.7,25.6-39.9c6.2-15.2,9.4-31.3,9.4-48.1c0-17-3.2-33.1-9.4-48.1c-6.2-14.9-14.8-28.3-25.6-39.6
				c-10.7-11.3-23.5-20.4-38-26.9c-14.5-6.5-30-9.9-46.3-9.9c-7.9,0-15.7,0.8-23.1,2.4c-7.4,1.6-14.7,3.9-21.4,6.8l-0.8,0.3
				l-0.8-0.3c-7-2.9-14.3-5.2-21.6-6.8C355.8,4.8,348,4,340.2,4c-16.3,0-31.8,3.3-46.3,9.9c-14.5,6.6-27.2,15.6-37.8,26.9
				c-10.6,11.3-19.2,24.6-25.4,39.6c-6.2,14.9-9.4,31.1-9.4,48.1c0,16.8,3.2,32.9,9.4,48.1c6.2,15.2,14.8,28.6,25.4,39.9
				c10.6,11.3,23.4,20.4,37.8,27.1c14.5,6.7,30,10,46.3,10c7.9,0,15.6-0.8,23-2.4c7.4-1.6,14.7-3.9,21.6-6.8L385.6,244.1z
				 M433.7,205.4l2.5-3.6c7.2-10.4,13-22,17.1-34.3c4.1-12.3,6.1-25.5,6.1-39c0-13.6-2.1-26.8-6.3-39.2c-4.2-12.5-10-24.1-17.2-34.5
				l-2.5-3.6l4.3,0.5c9,1,17.5,3.7,25.2,8c7.7,4.4,14.5,10.1,20.1,16.9c5.7,6.8,10.2,14.8,13.5,23.6c3.3,8.9,5,18.4,5,28.2
				s-1.7,19.4-5,28.2c-3.3,8.8-7.9,16.7-13.5,23.5c-5.7,6.7-12.4,12.4-20.1,16.7c-7.7,4.4-16.1,7.1-24.9,8L433.7,205.4z M441.7,56.2
				C448,66,453.1,76.6,456.9,88c4.3,12.9,6.5,26.5,6.5,40.5c0,14-2.1,27.6-6.3,40.3c-3.7,11.2-8.8,21.8-15.1,31.6
				c6.6-1.2,13-3.5,18.9-6.9c7.3-4.1,13.7-9.5,19-15.8c5.4-6.4,9.7-13.9,12.8-22.3c3.1-8.4,4.7-17.4,4.7-26.8s-1.6-18.4-4.7-26.8
				c-3.1-8.4-7.5-16-12.8-22.5c-5.4-6.5-11.8-11.9-19-16C455,59.8,448.5,57.4,441.7,56.2z M337.9,205.4l-4.4-0.5
				c-9-0.9-17.4-3.6-25.1-7.9c-7.7-4.3-14.4-9.9-20.1-16.8c-5.6-6.8-10.2-14.8-13.5-23.6c-3.3-8.8-5-18.3-5-28.2
				c0-9.9,1.7-19.4,5-28.2c3.3-8.8,7.8-16.8,13.5-23.6c5.6-6.8,12.4-12.5,20.1-16.9c7.7-4.4,16.1-7.1,25.1-8l4.4-0.5l-2.5,3.6
				c-7.3,10.4-13.1,22-17.2,34.5c-4.1,12.4-6.2,25.6-6.2,39.2c0,13.6,2.1,26.7,6.2,39c4.1,12.3,9.9,23.9,17.2,34.3L337.9,205.4z
				 M329.6,56.2c-6.8,1.2-13.2,3.5-19.2,6.9c-7.2,4.1-13.6,9.5-19,16c-5.4,6.5-9.7,14.1-12.8,22.5c-3.1,8.4-4.7,17.4-4.7,26.8
				s1.6,18.5,4.7,26.8c3.1,8.4,7.4,16,12.8,22.5c5.3,6.5,11.7,11.8,18.9,15.8c6,3.3,12.4,5.6,19.2,6.8c-6.3-9.7-11.4-20.3-15.2-31.6
				c-4.2-12.7-6.4-26.3-6.4-40.3c0-14,2.1-27.6,6.4-40.5C318.1,76.6,323.2,66,329.6,56.2z M385.7,187.3l-1.4-1.3
				c-7.3-6.9-13.1-15.4-17.3-25.3c-4.2-9.9-6.3-20.8-6.3-32.3c0-11.5,2.1-22.4,6.3-32.3c4.2-9.9,10-18.5,17.3-25.6l1.4-1.4l1.4,1.4
				c7.3,7.1,13.1,15.7,17.3,25.6c4.2,9.9,6.4,20.8,6.4,32.3c0,11.5-2.1,22.4-6.4,32.3c-4.2,9.9-10,18.4-17.3,25.3L385.7,187.3z
				 M385.7,74.8c-6.2,6.4-11.3,14.1-15,22.9c-4,9.4-6,19.7-6,30.7c0,11,2,21.3,6,30.7c3.7,8.8,8.8,16.4,15,22.6
				c6.2-6.2,11.3-13.8,15-22.6c4-9.4,6-19.8,6-30.7c0-11-2-21.3-6-30.7C397,88.9,392,81.3,385.7,74.8z"/>
			<path d="M696.1,437.7h-93.4v-48H621V236.4h-18.4v-48.3h93.4v48.3h-18.4v153.3h18.4V437.7z M606.7,433.7h85.4v-40h-18.4V232.4
				h18.4v-40.3h-85.4v40.3H625v161.3h-18.4V433.7z"/>
			<path d="M998,326.1h-53.2L830,169.8v156.3h-56.7V76.4h52.2l0.6,0.8l115.2,156.5V76.4H998V326.1z M946.8,322.1H994V80.4h-48.7V246
				L823.5,80.4h-46.2v241.6H826V157.5L946.8,322.1z"/>
		</g>
		<g>
			<path d="M519.4,334.1h34.8v140v34.8h-34.8h-34.8h-35.2h-34.8V334.1h34.8v140h35.2h34.8V334.1z"/>
		</g>
		<g>
			<path d="M950.1,410.1c0,2.7,1.6,4.8,4.8,6.4c3.2,1.6,7.2,3.2,12.1,4.8c4.9,1.6,10.1,3.3,15.8,5.2c5.7,1.9,10.9,4.5,15.8,7.8
				c4.9,3.3,8.9,7.5,12.1,12.6c3.2,5.1,4.8,11.5,4.8,19.4c-0.1,12.3-5,22.2-14.6,29.7c-9.6,7.5-22.6,11.3-39,11.3
				c-16.5,0-29.6-4.4-39.1-13.2c-9.5-8.8-14.3-18.1-14.3-27.8c21.3-3.7,32.1-5.6,32.2-5.6c0.8,1.9,1.7,3.7,2.7,5.5s2.2,3.4,3.6,4.7
				c1.4,1.3,3,2.4,4.9,3.2c1.9,0.8,4.2,1.2,7,1.2c3.1,0,5.4-0.5,7.1-1.4c1.7-0.9,2.9-2,3.7-3.2c0.9-1.5,1.5-3.1,1.6-4.8
				c0-2-1.6-3.8-4.7-5.4c-3.1-1.6-7-3.2-11.6-4.9c-4.6-1.7-9.6-3.6-15.1-5.7c-5.5-2.1-10.5-4.8-15.1-8.1c-4.6-3.3-8.5-7.3-11.6-12
				c-3.1-4.7-4.7-10.5-4.7-17.3c0-8.8,1.6-15.9,4.7-21.3c3.1-5.4,7.2-9.9,12.2-13.5s10.6-6.2,16.7-7.9c6.1-1.7,12.4-2.5,18.8-2.5
				c6.8,0,13.1,0.9,18.9,2.6c5.8,1.7,11.1,4.3,16,7.7c4.9,3.4,8.8,7.7,11.7,12.8c2.9,5.1,4.4,11.2,4.4,18.1l-34.2,2.6
				c0-2-0.4-3.8-1.3-5.3c-0.9-1.5-2-2.8-3.4-3.7c-1.4-0.9-3-1.6-4.7-2.1c-1.7-0.5-3.5-0.7-5.2-0.7c-3.5,0-6.5,1-9.1,2.9
				C951.4,404.1,950.1,406.8,950.1,410.1z"/>
		</g>
	</g>
</g>
</svg>
