<?xml version="1.0" encoding="utf-8"?>
<!-- Generator: Adobe Illustrator 18.0.0, SVG Export Plug-In . SVG Version: 6.00 Build 0)  -->
<!DOCTYPE svg PUBLIC "-//W3C//DTD SVG 1.1//EN" "http://www.w3.org/Graphics/SVG/1.1/DTD/svg11.dtd">
<svg version="1.1" id="Layer_1" xmlns="http://www.w3.org/2000/svg" xmlns:xlink="http://www.w3.org/1999/xlink" x="0px" y="0px"
	 viewBox="0 0 313 164.8" enable-background="new 0 0 313 164.8" xml:space="preserve">
<g>
	<path d="M62.9,49.9c7.6,0,14.7,1.5,21.3,4.5c6.6,3,12.3,7.1,17.2,12.3c4.8,5.2,8.6,11.3,11.3,18.3c2.7,7,4.1,14.4,4.1,22.3
		s-1.4,15.4-4.1,22.3c-2.7,7-6.5,13.1-11.3,18.3c-4.8,5.2-10.6,9.3-17.2,12.3c-6.6,3-13.7,4.5-21.3,4.5c-6.5,0-12.7-1.1-18.6-3.4
		c-5.9-2.3-10.6-5.2-14-8.7l-4.4,9.5H0V1.5h30.4v60.3C38.7,53.9,49.6,49.9,62.9,49.9z M58.7,137.7c4,0,7.7-0.8,11.1-2.4
		c3.4-1.6,6.5-3.8,9.1-6.5c2.6-2.7,4.7-5.9,6.2-9.6c1.5-3.7,2.2-7.6,2.2-11.9c0-4.1-0.7-8-2.2-11.8c-1.5-3.7-3.5-7-6.2-9.7
		c-2.6-2.7-5.7-4.9-9.1-6.5c-3.4-1.6-7.1-2.4-11.1-2.4s-7.7,0.5-11.1,1.6c-3.4,1.1-6.5,2.9-9,5.3c-2.6,2.4-4.6,5.6-6.1,9.5
		c-1.5,3.9-2.2,8.7-2.2,14.4c0,5.1,0.7,9.6,2.2,13.3c1.5,3.7,3.5,6.8,6.1,9.2c2.6,2.4,5.6,4.3,9,5.5
		C51.1,137.1,54.8,137.7,58.7,137.7z"/>
	<path d="M183,53c4.1,0,8.6,0.6,13.6,1.8c5,1.2,9.6,3.4,14,6.6c4.4,3.2,8.1,7.7,11.1,13.4c3,5.7,4.5,13.1,4.5,22.2v65.1h-30.4V98.3
		c0-3.4-0.5-6.2-1.7-8.6c-1.1-2.3-2.6-4.2-4.4-5.6c-1.8-1.4-3.9-2.4-6.3-3.1c-2.3-0.7-4.7-1-7-1c-1.9,0-4,0.3-6.3,1
		c-2.3,0.7-4.4,1.7-6.4,3.2c-2,1.5-3.6,3.4-5,5.7c-1.3,2.3-2,5.1-2,8.3v63.8h-30.4V53h26l4.4,8.4c3.5-2.5,7.5-4.5,11.8-6
		C173.1,53.8,177.8,53,183,53z"/>
	<path d="M254.4,24.1c2.3-5.5,5.4-10,9.2-13.6c3.8-3.6,8.3-6.2,13.3-7.9c5-1.7,10.3-2.5,15.9-2.5c3.4,0,6.7,0.3,10.1,0.9
		c3.4,0.6,6.7,1.5,10.1,2.6l-2.4,22.2l-7.3-1.1c-1.2-0.1-2.2-0.3-3.2-0.3c-1-0.1-1.9-0.1-2.8-0.1c-5.6,0-9.6,1.4-12.2,4.1
		c-2.6,2.7-3.9,6.6-3.9,11.8v13h29.3v27.1h-29.3v82.1H251V80.1h-14.3V64L251,53v-9.2C251,36.2,252.1,29.6,254.4,24.1z"/>
</g>
</svg>
